<svg xmlns="http://www.w3.org/2000/svg" width="81" height="15" viewBox="0 0 81 15">
    <g fill="none" fill-rule="evenodd">
        <path fill="#004DA0" d="M24.016 7.976l1.341-4.458 1.25 4.458h-2.591zm3.66 3.987h2.99L27.33 1.815h-1.992c-1.395 0-2.084.491-2.52 1.796l-2.808 8.352h2.881l.616-2.049h3.57l.599 2.05zM38.783 9.264s-1.014.65-2.682.65c-1.467 0-2.192-.87-2.192-3.008 0-2.301.834-3.044 2.338-3.044 1.287 0 2.463.617 2.463.617l.309-2.282s-1.485-.526-3.026-.526c-2.899 0-4.965 1.594-4.965 5.22 0 4.112 2.084 5.234 4.765 5.234 1.794 0 3.316-.508 3.316-.508l-.326-2.353zM48.623 1.815h-8.172v2.192h2.7v7.957h2.771V4.007h2.701zM58.044 1.815h-7.428v10.15h7.701V9.77h-5.055V7.85h4.364V5.89h-4.364V3.973h4.782z"/>
        <path fill="#00A6EB" d="M14.894 5.777c0-2.739-2.176-4.915-4.952-4.915-.375 0-.751.038-1.126.114 2.589 1.8 4.54 5.625 4.54 8.139v.263c.937-.864 1.538-2.177 1.538-3.6"/>
        <path fill="#004DA0" d="M0 8.964c0 3.452 2.626 4.428 6.003 4.428 3.6 0 7.164-1.387 7.352-4.014-.901.826-2.1 1.352-3.413 1.352-2.739 0-4.915-2.14-4.915-4.953A4.943 4.943 0 0 1 8.816.976C7.953.374 6.978 0 6.04 0 2.364 0 0 5.55 0 8.964M65.183 1.67c-3.135 0-5.326 1.595-5.326 5.22 0 4.112 2.12 5.235 4.982 5.235 2.357 0 3.877-.653 3.877-.653V6.997h-2.59v2.99s-.544.055-1.07.055c-1.54 0-2.393-.814-2.393-3.136 0-2.3.98-3.062 2.684-3.062 1.484 0 2.862.705 2.862.705l.307-2.279s-1.41-.6-3.333-.6M74.078 7.976l1.344-4.458 1.247 4.458h-2.59zm3.662 3.987h2.988L77.396 1.815h-1.992c-1.397 0-2.084.491-2.518 1.796l-2.81 8.352h2.881l.617-2.049h3.567l.599 2.05z"/>
        <path d="M0 0h81v15H0z"/>
    </g>
</svg>
