<?xml version="1.0" encoding="UTF-8" standalone="no"?>
<svg
   xmlns:dc="http://purl.org/dc/elements/1.1/"
   xmlns:cc="http://creativecommons.org/ns#"
   xmlns:rdf="http://www.w3.org/1999/02/22-rdf-syntax-ns#"
   xmlns:svg="http://www.w3.org/2000/svg"
   xmlns="http://www.w3.org/2000/svg"
   viewBox="0 0 568.71997 206.39999"
   height="206.39999"
   width="568.71997"
   xml:space="preserve"
   id="svg2"
   version="1.1"><metadata
     id="metadata8"><rdf:RDF><cc:Work
         rdf:about=""><dc:format>image/svg+xml</dc:format><dc:type
           rdf:resource="http://purl.org/dc/dcmitype/StillImage" /></cc:Work></rdf:RDF></metadata><defs
     id="defs6" /><g
     transform="matrix(1.3333333,0,0,-1.3333333,0,206.4)"
     id="g10"><g
       transform="scale(0.1)"
       id="g12"><path
         id="path14"
         style="fill:#00adef;fill-opacity:1;fill-rule:nonzero;stroke:none"
         d="m 536.957,401.23 c -3.293,-12.3 4.031,-22.32 16.336,-22.32 12.305,0 24.996,10.02 28.297,22.32 3.297,12.301 -4.031,22.321 -16.344,22.321 -12.305,0 -25,-10.02 -28.289,-22.321 m 119.59,0 c -3.293,-12.3 4.039,-22.32 16.348,-22.32 12.293,0 25,10.02 28.296,22.32 3.293,12.301 -4.043,22.321 -16.355,22.321 -12.293,0 -24.988,-10.02 -28.289,-22.321 m 119.609,0 c -3.304,-12.3 4.035,-22.32 16.328,-22.32 12.309,0 25.008,10.02 28.301,22.32 3.301,12.301 -4.039,22.321 -16.344,22.321 -12.304,0 -25,-10.02 -28.285,-22.321 m 156.391,1.719 c -3.836,-14.32 3.18,-22.328 15.48,-22.328 12.309,0 23.606,8.008 27.442,22.328 l 38.461,143.641 h 31.2 c 13.72,0 22.12,10.023 24.74,19.75 2.69,10.019 -1.86,19.746 -14.17,19.746 H 950.391 c -12.297,0 -22.051,-9.727 -24.743,-19.746 -2.609,-9.727 0.43,-19.75 14.18,-19.75 h 31.18 z m 139.613,0 c -3.83,-14.32 3.18,-22.328 15.49,-22.328 12.3,0 23.61,8.008 27.44,22.328 l 16.7,62.383 h 89.85 l -16.71,-62.383 c -3.82,-14.32 3.18,-22.328 15.5,-22.328 12.29,0 23.6,8.008 27.43,22.328 l 43.52,162.524 c 3.84,14.312 -3.17,22.312 -15.48,22.312 -12.3,0 -23.61,-8 -27.44,-22.312 l -16.25,-60.653 h -89.84 l 16.25,60.653 c 3.83,14.312 -3.19,22.324 -15.49,22.324 -12.3,0 -23.61,-8.012 -27.43,-22.324 z m 245.73,0.852 c -3.45,-12.871 3.7,-21.449 16.29,-21.449 h 73.83 c 13.44,0 22.99,10.019 25.59,19.738 2.68,10.019 -1.29,19.75 -15.03,19.75 h -52.93 l 11.65,43.492 h 46.92 c 13.74,0 23.58,10.008 26.18,19.738 2.68,10.008 -1.58,19.75 -15.6,19.75 h -46.92 l 11.18,41.77 h 50.36 c 13.44,0 23,10.023 25.6,19.738 2.68,10.031 -1.29,19.746 -15.02,19.746 h -70.97 c -15.16,0 -25.16,-10.586 -28.99,-24.89 z m 297.92,0.289 c -3.59,-13.449 3.91,-21.738 17.07,-21.738 h 58.95 c 39.49,0 72.21,21.738 83.01,62.089 6.67,24.891 -7.06,45.2 -30.46,48.641 l 0.15,0.559 c 20.61,8.597 32.51,22.05 37.88,42.078 8.12,30.328 -10.55,50.355 -40.31,50.355 h -54.95 c -13.15,0 -24.66,-7.722 -28.34,-21.465 z m 81.55,144.223 h 22.32 c 12.58,0 21.34,-6.872 17.74,-20.313 -3.83,-14.32 -15.22,-22.621 -29.24,-22.621 h -22.32 z m -21.61,-80.692 h 30.34 c 20.02,0 27.87,-9.152 24.27,-22.609 -4.3,-16.032 -18.11,-24.903 -33.57,-24.903 h -33.76 z m 147.68,-61.82 c -3.84,-14.289 2.01,-23.449 16.03,-23.449 H 1911 c 12.59,0 22.56,9.429 25.66,18.878 2.89,9.739 -0.49,20.61 -15.08,20.61 h -50.94 l 38.46,143.633 c 3.84,14.312 -3.17,22.312 -15.48,22.312 -12.3,0 -23.61,-8 -27.44,-22.312 z m 164.19,57.519 c -13.04,-48.64 16.59,-84.41 64.38,-84.41 47.21,0 96.43,36.34 109.29,84.41 l 27.37,102.153 c 3.83,14.312 -3.18,22.312 -15.47,22.312 -12.33,0 -23.63,-8 -27.45,-22.312 l -26.75,-99.864 c -6.74,-25.179 -30.39,-47.211 -56.42,-47.211 -27.19,0 -38.48,20.891 -31.42,47.211 l 26.73,99.864 c 3.84,14.312 -3.17,22.312 -15.47,22.312 -12.31,0 -23.61,-8 -27.44,-22.312 z m 224.68,-59.519 c -3.44,-12.871 3.7,-21.449 16.28,-21.449 h 73.84 c 13.44,0 22.99,10.019 25.6,19.738 2.68,10.019 -1.29,19.75 -15.03,19.75 h -52.95 l 11.66,43.492 h 46.92 c 13.75,0 23.58,10.008 26.2,19.738 2.66,10.008 -1.59,19.75 -15.62,19.75 h -46.93 l 11.19,41.77 h 50.36 c 13.46,0 23.01,10.023 25.6,19.738 2.69,10.031 -1.28,19.746 -15.03,19.746 h -70.97 c -15.15,0 -25.14,-10.586 -28.97,-24.89 z m 412.54,185.715 c -38.05,0 -77.64,-24.907 -88.36,-64.965 -17.8,-66.371 83.22,-46.071 74.21,-79.821 -3.76,-14.019 -16.9,-24.621 -35.79,-24.621 -18.61,0 -31.64,11.161 -45.08,11.161 -11.74,0 -21.63,-9.161 -24.61,-20.301 -7.21,-26.918 38.91,-32.059 60.94,-32.059 39.49,0 80.07,25.481 91.04,66.379 19.77,73.82 -80.86,54.949 -72.98,84.43 3.23,12.011 16.14,18.594 28.44,18.594 17.19,0 24.04,-8.594 35.76,-8.594 11.74,0 21.85,10.019 24.85,21.179 6.05,22.61 -32.4,28.618 -48.42,28.618 m 176.78,-171.118 c -36.33,0 -45.52,30.911 -36.18,65.821 9.28,34.621 35.66,65.804 71.43,65.804 35.77,0 45.43,-31.183 36.16,-65.804 -9.35,-34.91 -35.08,-65.821 -71.41,-65.821 m -10.57,-39.488 c 58.64,0 110.77,46.059 126.62,105.309 15.57,58.082 -12.72,105.297 -70.23,105.297 -58.38,0 -110.7,-45.786 -126.63,-105.297 -15.85,-59.25 12.14,-105.309 70.24,-105.309 m 166.28,26.891 c -3.85,-14.289 2.01,-23.449 16.02,-23.449 h 71.55 c 12.58,0 22.55,9.429 25.65,18.878 2.91,9.739 -0.49,20.61 -15.07,20.61 h -50.95 l 38.48,143.633 c 3.82,14.312 -3.18,22.312 -15.5,22.312 -12.3,0 -23.59,-8 -27.43,-22.312 z m 178.48,57.519 c -13.02,-48.64 16.61,-84.41 64.38,-84.41 47.22,0 96.44,36.34 109.31,84.41 l 27.36,102.153 c 3.82,14.312 -3.19,22.312 -15.5,22.312 -12.28,0 -23.59,-8 -27.43,-22.312 l -26.75,-99.864 c -6.73,-25.179 -30.38,-47.211 -56.41,-47.211 -27.17,0 -38.47,20.891 -31.43,47.211 l 26.75,99.864 c 3.83,14.312 -3.18,22.312 -15.49,22.312 -12.31,0 -23.59,-8 -27.43,-22.312 z m 258.8,-60.371 c -3.84,-14.32 3.18,-22.328 15.49,-22.328 12.3,0 23.6,8.008 27.43,22.328 l 38.48,143.641 h 31.18 c 13.74,0 22.14,10.023 24.75,19.738 2.68,10.031 -1.87,19.746 -14.18,19.746 h -105.3 c -12.31,0 -22.06,-9.715 -24.74,-19.746 -2.61,-9.715 0.43,-19.738 14.17,-19.738 h 31.2 z m 145.92,0 c -3.84,-14.32 3.18,-22.328 15.49,-22.328 12.29,0 23.6,8.008 27.43,22.328 l 43.52,162.524 c 3.81,14.312 -3.17,22.312 -15.48,22.312 -12.31,0 -23.62,-8 -27.43,-22.312 z m 206.14,15.449 c -36.33,0 -45.52,30.911 -36.18,65.821 9.28,34.621 35.66,65.804 71.43,65.804 35.76,0 45.46,-31.183 36.18,-65.804 -9.36,-34.91 -35.08,-65.821 -71.43,-65.821 m -10.56,-39.488 c 58.64,0 110.77,46.059 126.62,105.309 15.56,58.082 -12.7,105.297 -70.24,105.297 -58.36,0 -110.69,-45.786 -126.63,-105.297 -15.86,-59.25 12.15,-105.309 70.25,-105.309 m 163.79,24.039 c -3.84,-14.32 3.16,-22.328 15.47,-22.328 12.31,0 23.61,8.008 27.45,22.328 l 28.59,106.731 h 0.58 l 58.65,-119.621 c 2.64,-5.149 10.07,-9.438 15.51,-9.438 12.29,0 23.58,8.008 27.43,22.328 l 43.51,162.524 c 3.85,14.312 -3.16,22.312 -15.48,22.312 -12.29,0 -23.6,-8 -27.44,-22.312 L 4045.22,457.32 h -0.56 l -58.31,121.032 c -2.34,5.156 -10.08,9.433 -15.5,9.433 -12.31,0 -23.6,-8 -27.43,-22.312 L 3899.9,402.949" /><path
         id="path16"
         style="fill:#00adef;fill-opacity:1;fill-rule:nonzero;stroke:none"
         d="m 849.027,1533.09 c -20.058,14.55 -55.558,13.16 -76.105,0 -47.109,-21.76 -44.109,-79.62 -59.484,-122.2 -1.227,-16.32 -0.071,-32.91 9.679,-44.26 16.18,-15.15 41.653,-18.16 62.262,-11.53 62.605,14.35 64.223,85.23 78.398,136.03 3,15.83 -0.461,32.3 -14.75,41.96" /><path
         id="path18"
         style="fill:#ffffff;fill-opacity:1;fill-rule:nonzero;stroke:none"
         d="m 849.027,1533.09 2.645,3.66 c -10.856,7.84 -25.156,11.23 -39.473,11.25 -15.058,-0.02 -30.215,-3.77 -41.707,-11.1 l 2.43,-3.81 -1.891,4.11 c -12.492,-5.77 -21.812,-14.06 -28.777,-23.75 -10.465,-14.57 -15.785,-32.15 -20.051,-49.86 -4.246,-17.74 -7.426,-35.72 -13.012,-51.16 l -0.214,-0.58 -0.043,-0.62 c -0.258,-3.41 -0.418,-6.85 -0.418,-10.3 0.015,-13.37 2.347,-26.91 11.183,-37.24 l 0.16,-0.19 0.176,-0.16 c 11.887,-11.12 28.02,-16.08 43.867,-16.08 7.817,0 15.598,1.21 22.864,3.54 l -1.387,4.3 1.012,-4.4 c 16.445,3.75 29.175,11.37 38.902,21.42 14.609,15.1 22.559,35.28 28.312,56.24 5.739,20.97 9.297,42.87 14.528,61.57 l 0.043,0.18 0.047,0.19 c 0.691,3.68 1.062,7.41 1.062,11.11 0.063,13.39 -5.101,26.93 -17.73,35.42 l -2.528,-3.74 2.645,3.66 -2.645,-3.66 -2.535,-3.73 c 9.781,-6.66 13.707,-16.64 13.77,-27.95 0,-3.1 -0.317,-6.27 -0.918,-9.43 l 4.433,-0.85 -4.351,1.22 c -7.188,-25.86 -11.149,-56.13 -20.899,-81.27 -4.855,-12.57 -11.101,-23.8 -19.718,-32.67 -8.625,-8.86 -19.567,-15.48 -34.434,-18.91 l -0.195,-0.04 -0.176,-0.06 c -6.344,-2.04 -13.219,-3.11 -20.102,-3.11 -14.011,0 -27.902,4.44 -37.691,13.64 l -3.094,-3.3 3.434,2.94 c -6.707,7.75 -9.008,18.95 -9,31.36 0,3.17 0.152,6.39 0.387,9.62 l -4.5,0.34 4.246,-1.53 c 7.906,21.98 10.976,47.12 17.902,69.09 3.441,10.98 7.805,21.12 13.996,29.72 6.203,8.6 14.176,15.71 25.234,20.83 l 0.286,0.13 0.265,0.16 c 9.547,6.16 23.313,9.7 36.832,9.69 12.875,0.01 25.477,-3.2 34.176,-9.54 l 0.066,-0.05 0.051,-0.03 2.535,3.73" /><path
         id="path20"
         style="fill:#00adef;fill-opacity:1;fill-rule:nonzero;stroke:none"
         d="m 774.777,1288.7 c -28.914,14.25 -64.523,2.26 -86.703,-17.52 -9.41,-11.11 -17.707,-21.95 -22.133,-35.97 L 607.836,1015.25 567.715,864.926 539.59,758.398 c -2.692,-15.574 0.531,-32.41 11.515,-41.5 17.958,-16.488 49.766,-15.57 71.024,-7.843 28.191,11.621 51.004,37.097 55.801,68.242 l 11.992,47.047 106.066,409.946 c 2.668,20.71 -0.672,45.95 -21.211,54.41" /><path
         id="path22"
         style="fill:#ffffff;fill-opacity:1;fill-rule:nonzero;stroke:none"
         d="m 774.777,1288.7 2,4.05 c -9.468,4.67 -19.589,6.71 -29.668,6.71 -23.058,-0.04 -45.836,-10.49 -62.039,-24.91 l -0.238,-0.22 -0.203,-0.24 c -9.477,-11.18 -18.266,-22.55 -23,-37.52 l -0.024,-0.11 -58.14,-220.06 -40.117,-150.314 -28.184,-106.719 -0.023,-0.195 c -0.645,-3.672 -0.973,-7.41 -0.973,-11.121 0.02,-13.137 4.082,-26.289 14.062,-34.641 l 2.875,3.488 -3.054,-3.332 c 11.531,-10.527 27.515,-14.355 43.043,-14.375 11.566,0.008 22.984,2.137 32.57,5.618 l 0.098,0.015 0.09,0.063 c 29.5,12.176 53.429,38.765 58.543,71.726 l -4.465,0.684 4.379,-1.113 11.992,47.043 106.133,410.203 0.035,0.28 c 0.519,4.09 0.828,8.35 0.828,12.65 -0.012,9.24 -1.375,18.71 -5.156,27.06 -3.746,8.33 -10.153,15.57 -19.649,19.45 l -1.715,-4.17 2,4.05 -2,-4.05 -1.711,-4.18 c 7.157,-2.97 11.762,-8.11 14.852,-14.84 3.051,-6.71 4.352,-14.98 4.352,-23.32 0,-3.88 -0.274,-7.76 -0.758,-11.5 l 4.476,-0.57 -4.363,1.13 -106.07,-409.947 -12.063,-47.278 -0.023,-0.207 c -4.485,-29.343 -26.188,-53.679 -53.067,-64.761 l 1.727,-4.172 -1.539,4.25 c -8.535,-3.11 -19.063,-5.09 -29.496,-5.078 -14.098,-0.024 -27.848,3.601 -36.926,11.992 l -0.082,0.086 -0.09,0.058 c -7.168,5.879 -10.805,16.328 -10.797,27.688 0,3.172 0.289,6.414 0.832,9.578 l -4.441,0.769 4.359,-1.16 28.129,106.528 40.117,150.324 58.11,219.96 -4.364,1.16 4.305,-1.35 c 4.133,13.09 11.934,23.38 21.277,34.4 l -3.449,2.92 3.008,-3.38 c 14.652,13.13 35.766,22.66 56.027,22.63 8.868,0 17.563,-1.79 25.672,-5.79 l 0.125,-0.06 0.16,-0.06 1.711,4.18" /><path
         id="path24"
         style="fill:#5a5758;fill-opacity:1;fill-rule:nonzero;stroke:none"
         d="m 5.42969,832.215 c -1.66016,-3.82 -2.6875,-7.637 -3.53516,-10.832 -7.51562,-28.024 8.09375,-45.856 33.56637,-45.856 32.4883,0 49.1524,14.653 61.6211,44.59 l 107.043,259.213 h 1.266 l 4.929,-266.861 c 0.368,-15.289 6.66,-36.942 41.055,-36.942 34.398,0 52.301,21.653 60.852,36.942 l 147.921,266.861 h 1.282 L 429.551,820.117 c -3.563,-29.937 5.258,-44.59 37.73,-44.59 25.477,0 50.641,17.832 58.153,45.856 0.847,3.195 1.875,7.012 2.257,10.832 l 35.993,355.395 c 2.324,22.93 -15.524,49.04 -49.278,49.04 -31.843,0 -62.828,-22.93 -75.968,-45.85 L 295.691,938.582 h -1.265 l -7.578,252.218 c -0.864,22.92 -19.559,45.85 -51.407,45.85 -33.757,0 -65.593,-26.11 -75.554,-49.04 L 5.42969,832.215" /><path
         id="path26"
         style="fill:#5a5758;fill-opacity:1;fill-rule:nonzero;stroke:none"
         d="m 814.902,825.211 c -8.539,-31.852 7.071,-49.691 34.457,-49.691 27.383,0 52.547,17.839 61.075,49.691 l 85.668,319.729 h 69.418 c 30.58,0 49.29,22.29 55.09,43.94 5.97,22.3 -4.14,43.96 -31.54,43.96 H 854.695 c -27.39,0 -49.109,-21.66 -55.093,-43.96 -5.801,-21.65 0.972,-43.94 31.539,-43.94 h 69.429 z m 229.258,0 c -8.54,-31.852 7.07,-49.691 34.46,-49.691 27.38,0 52.55,17.839 61.08,49.691 l 37.03,138.203 h 1.27 l 95.49,-171.32 c 6.95,-12.114 21.04,-16.574 32.5,-16.574 28.03,0 54.26,24.21 60.91,49.046 2.39,8.922 1.13,18.477 -5.23,28.028 l -77.21,115.926 c 67.69,10.183 131.3,50.31 150.07,120.36 26.8,100 -21.93,143.96 -120.02,143.96 h -112.09 c -31.85,0 -54.16,-19.11 -62.36,-49.69 z m 181.2,319.729 h 65.6 c 35.03,0 53.95,-19.75 44.22,-56.06 -9.56,-35.65 -39.4,-56.68 -74.42,-56.68 h -65.6 z M 1388.5,841.141 c -2.12,-3.196 -7.36,-10.832 -10.09,-21.032 -6.82,-25.476 9.71,-44.589 35.19,-44.589 26.11,0 43.24,14.023 54.9,33.765 l 34.98,59.238 h 177.06 l 3.07,-59.875 c 1.24,-19.105 10.87,-33.128 37.62,-33.128 23.56,0 48.55,17.199 55.2,42.05 1.2,4.45 2.31,13.371 1.22,23.571 l -31.99,346.469 c -2.64,30.58 -20.24,52.87 -53.99,52.87 -32.49,0 -63.64,-23.57 -82.31,-52.87 z m 275.92,299.979 h 1.26 l 9.75,-184.706 h -121.01 z m 398.52,99.36 c -84.7,0 -172.8,-55.42 -196.69,-144.59 -39.59,-147.757 185.26,-102.538 165.13,-177.695 -8.37,-31.207 -37.62,-54.769 -79.65,-54.769 -41.4,0 -70.41,24.832 -100.35,24.832 -26.1,0 -48.12,-20.375 -54.78,-45.215 -16.05,-59.867 86.61,-71.344 135.65,-71.344 87.89,0 178.24,56.699 202.64,147.778 44.02,164.323 -179.97,122.273 -162.39,187.883 7.18,26.75 35.94,41.4 63.32,41.4 38.22,0 53.48,-19.1 79.59,-19.1 26.12,0 48.65,22.29 55.3,47.13 13.49,50.31 -72.1,63.69 -107.77,63.69" /><path
         id="path28"
         style="fill:#c8c7c7;fill-opacity:1;fill-rule:nonzero;stroke:none"
         d="M 2338.82,1233.26 2218.65,784.809 h 1859.27 l 120.37,448.451 H 2338.82" /><path
         id="path30"
         style="fill:#c8c7c7;fill-opacity:1;fill-rule:nonzero;stroke:none"
         d="M 4226.4,1196.19 4109.93,748.754 H 2263.98 l 36.1,-37.774 h 1845.95 l 116.48,447.45 -36.11,37.76" /><path
         id="path32"
         style="fill:#ffffff;fill-opacity:1;fill-rule:nonzero;stroke:none"
         d="m 4226.4,1196.19 -2.5,0.65 -115.98,-445.512 H 2257.93 l 41.06,-42.937 h 1849.04 l 117.35,450.779 -40.31,42.15 -1.17,-4.48 2.5,-0.65 -1.87,-1.78 35.11,-36.73 -115.61,-444.114 H 2301.19 l -31.17,32.598 h 1841.92 l 116.96,449.376 -2.5,0.65 -1.87,-1.78 1.87,1.78" /><path
         id="path34"
         style="fill:#00adef;fill-opacity:1;fill-rule:nonzero;stroke:none"
         d="m 2332.14,910.008 c -0.94,-2.16 -1.51,-4.309 -2,-6.113 -4.23,-15.813 4.58,-25.868 18.95,-25.868 18.33,0 27.72,8.266 34.75,25.153 l 60.37,146.25 h 0.72 l 2.81,-150.563 c 0.2,-8.621 3.75,-20.84 23.16,-20.84 19.4,0 29.49,12.219 34.32,20.84 l 83.45,150.563 h 0.72 l -17.97,-146.25 c -2,-16.887 2.97,-25.153 21.3,-25.153 14.36,0 28.55,10.055 32.78,25.868 0.49,1.804 1.07,3.953 1.29,6.113 l 20.28,200.512 c 1.3,12.93 -8.77,27.65 -27.81,27.65 -17.96,0 -35.44,-12.94 -42.85,-25.86 l -80.52,-142.298 h -0.71 l -4.29,142.298 c -0.5,12.92 -11.04,25.86 -29.01,25.86 -19.04,0 -37,-14.72 -42.63,-27.65 z m 309.67,5.027 c -1.19,-1.797 -4.14,-6.101 -5.68,-11.855 -3.85,-14.375 5.47,-25.153 19.85,-25.153 14.73,0 24.4,7.907 30.97,19.043 l 19.73,33.418 h 99.89 l 1.73,-33.781 c 0.71,-10.773 6.14,-18.68 21.23,-18.68 13.3,0 27.4,9.703 31.15,23.719 0.66,2.516 1.3,7.539 0.67,13.289 l -18.06,195.485 c -1.49,17.23 -11.42,29.81 -30.46,29.81 -18.32,0 -35.91,-13.3 -46.44,-29.81 z m 155.64,169.245 h 0.73 l 5.5,-104.206 h -68.28 z m 92.79,-178.229 c -4.82,-17.969 3.98,-28.024 19.44,-28.024 15.45,0 29.64,10.055 34.44,28.024 l 48.32,180.379 h 39.15 c 17.26,0 27.82,12.58 31.08,24.8 3.38,12.57 -2.33,24.79 -17.79,24.79 h -132.23 c -15.45,0 -27.71,-12.22 -31.07,-24.79 -3.27,-12.22 0.54,-24.8 17.79,-24.8 h 39.17 z m 131.09,1.082 c -4.33,-16.168 4.64,-26.945 20.44,-26.945 h 92.72 c 16.88,0 28.87,12.57 32.14,24.789 3.36,12.57 -1.63,24.796 -18.86,24.796 h -66.48 l 14.62,54.61 h 58.93 c 17.25,0 29.6,12.578 32.88,24.797 3.37,12.57 -1.98,24.8 -19.6,24.8 h -58.93 l 14.06,52.45 h 63.24 c 16.88,0 28.87,12.58 32.16,24.8 3.36,12.57 -1.64,24.79 -18.88,24.79 h -89.12 c -19.03,0 -31.58,-13.29 -36.39,-31.26 z m 167.52,-1.082 c -4.81,-17.969 3.99,-28.024 19.45,-28.024 15.45,0 29.64,10.055 34.46,28.024 l 20.88,77.972 h 0.71 l 53.89,-96.648 c 3.92,-6.832 11.87,-9.348 18.34,-9.348 15.81,0 30.6,13.657 34.35,27.672 1.36,5.028 0.64,10.414 -2.95,15.801 l -43.56,65.406 c 38.19,5.746 74.08,28.384 84.66,67.914 15.1,56.41 -12.39,81.2 -67.73,81.2 h -63.23 c -17.97,0 -30.56,-10.79 -35.17,-28.02 z m 102.21,180.379 h 37.02 c 19.76,0 30.43,-11.13 24.94,-31.61 -5.39,-20.14 -22.22,-31.98 -41.98,-31.98 h -37 z m 99.04,-180.379 c -4.81,-17.969 3.99,-28.024 19.44,-28.024 15.44,0 29.64,10.055 34.46,28.024 l 54.66,204.099 c 4.81,17.97 -3.99,28.02 -19.45,28.02 -15.45,0 -29.64,-10.05 -34.45,-28.02 z m 77.15,8.984 c -1.2,-1.797 -4.15,-6.101 -5.7,-11.855 -3.84,-14.375 5.48,-25.153 19.86,-25.153 14.74,0 24.4,7.907 30.97,19.043 l 19.73,33.418 H 3632 l 1.73,-33.781 c 0.71,-10.773 6.14,-18.68 21.23,-18.68 13.3,0 27.4,9.703 31.15,23.719 0.67,2.516 1.3,7.539 0.69,13.289 l -18.08,195.485 c -1.49,17.23 -11.41,29.81 -30.46,29.81 -18.33,0 -35.9,-13.3 -46.44,-29.81 z m 155.63,169.245 h 0.73 l 5.5,-104.206 h -68.27 z m 83.69,-174.632 c -4.82,-17.964 2.52,-29.46 20.14,-29.46 h 89.82 c 15.81,0 28.33,11.851 32.22,23.707 3.64,12.218 -0.61,25.878 -18.94,25.878 h -63.96 l 48.31,180.377 c 4.82,17.97 -3.99,28.02 -19.44,28.02 -15.45,0 -29.64,-10.05 -34.45,-28.02 z m 302.89,230.682 c -47.79,0 -97.47,-31.26 -110.95,-81.56 -22.33,-83.368 104.51,-57.86 93.16,-100.258 -4.71,-17.602 -21.21,-30.899 -44.93,-30.899 -23.35,0 -39.72,14.016 -56.61,14.016 -14.73,0 -27.15,-11.504 -30.9,-25.516 -9.05,-33.777 48.87,-40.242 76.53,-40.242 49.58,0 100.56,31.977 114.31,83.363 24.84,92.706 -101.53,68.986 -91.62,105.996 4.04,15.1 20.26,23.36 35.71,23.36 21.57,0 30.19,-10.77 44.92,-10.77 14.72,0 27.45,12.56 31.19,26.58 7.59,28.39 -40.69,35.93 -60.81,35.93" /><path
         id="path36"
         style="fill:#022743;fill-opacity:1;fill-rule:nonzero;stroke:none"
         d="m 2812.07,44.3086 c 0,0 -5.39,25.3711 -39.4,48.0117 -31.74,21.1097 -17.35,48.6287 -0.44,54.6097 18.43,6.519 32.88,-4.649 41.23,-20.43 8.64,-16.352 16.43,-46.1484 0.33,-79.0898" /><path
         id="path38"
         style="fill:#022743;fill-opacity:1;fill-rule:nonzero;stroke:none"
         d="m 2755.61,60.5508 c -7.85,7.1211 -39.42,26.0703 -37.02,60.4692 2.52,36.339 34.14,50.16 34.14,50.16 -12.34,2.211 -23.62,2 -35.73,-1.071 -55.45,-14.019 -77.06,-71.4879 -59.76,-114.6481 22.28,-58.33981 93.05,-63.99215 113.02,-45.4101 22.38,20.8476 -7.66,45.1992 -14.65,50.5" /><path
         id="path40"
         style="fill:#192c46;fill-opacity:1;fill-rule:nonzero;stroke:none"
         d="M 1734.26,165.879 V 38.0195 c -2.81,-0.6093 -5.2,-1.0078 -7.81,-1.0078 -2.6,0 -5,0.3985 -8,1.0078 v 77.8325 l 1.2,20.007 -2.6,-6.8 -35.82,-78.6371 c -2.8,-0.6016 -5.2,-0.8008 -7.4,-0.8008 -2.21,0 -4.41,0.1992 -7.41,0.8008 L 1630,129.66 l -2.59,6.199 0.79,-20.007 V 38.0195 c -2.6,-0.6093 -5.4,-1.0078 -7.8,-1.0078 -2.6,0 -4.8,0.3985 -7.8,1.0078 V 165.68 c 2.6,1 5.6,1.8 9.8,1.8 2,0 4,-0.199 6.21,-0.8 l 44.02,-93.6487 2.39,-6.4024 2.01,6.4024 41.82,93.6487 c 2,0.402 3.6,0.601 6.6,0.601 2.81,0 5.8,-0.402 8.81,-1.402" /><path
         id="path42"
         style="fill:#192c46;fill-opacity:1;fill-rule:nonzero;stroke:none"
         d="m 1833.68,93.8398 c 0,12.8082 -6.8,26.8202 -25.21,26.8202 -16.41,0 -26.81,-12.211 -28.61,-26.8202 z m 16.02,-13.4101 h -70.04 c 1.2,-17.3984 13.21,-30.4102 30.41,-30.4102 15.61,0 22.81,5.8008 28.02,9.8086 4,-2.0078 7.8,-6.8086 8.8,-11.0078 -7.6,-6.4101 -19.41,-13.6015 -37.01,-13.6015 -27.62,0 -47.03,19.4023 -47.03,49.621 0,29.2112 20.01,50.2192 45.62,50.2192 24.22,0 42.02,-17.399 42.02,-41.8207 0,-5.0078 -0.2,-7.3985 -0.79,-12.8086" /><path
         id="path44"
         style="fill:#192c46;fill-opacity:1;fill-rule:nonzero;stroke:none"
         d="M 2019.56,98.6406 V 38.0195 c -2.59,-0.6093 -5.4,-0.8007 -8,-0.8007 -2.8,0 -5.6,0.1914 -8.2,0.8007 v 53.8203 c 0,15.2112 -6.2,28.2192 -25.22,28.2192 -11.2,0 -18.8,-5.2 -24.21,-10.207 1,-3.602 1.61,-7.411 1.61,-11.2114 V 38.0195 c -2.61,-0.6093 -5.41,-0.8007 -8.01,-0.8007 -2.8,0 -5.6,0.1914 -8.2,0.8007 v 53.8203 c 0,15.2112 -6.21,28.2192 -25.22,28.2192 -8.2,0 -17.01,-2.61 -23.01,-6.411 V 38.0195 c -2.6,-0.6093 -5.6,-0.8007 -8.2,-0.8007 -2.6,0 -5.2,0.1914 -8,0.8007 V 120.66 c 8.6,7.602 25.01,14.399 41.62,14.399 13.8,0 24.21,-5.188 30.81,-13.2 8.21,7.2 20.61,13.2 33.22,13.2 25.01,0 39.01,-17.399 39.01,-36.4184" /><path
         id="path46"
         style="fill:#192c46;fill-opacity:1;fill-rule:nonzero;stroke:none"
         d="m 2122.19,85.6406 c 0,19.6094 -11.81,34.0074 -33.22,34.0074 -9.8,0 -17.2,-2.386 -23.01,-6.398 l -0.2,-58.0195 c 5.81,-3.211 13.41,-4.8086 22.62,-4.8086 21.6,0 33.81,13.4062 33.81,35.2187 z m 16.41,1 c 0,-31.6211 -21.01,-51.2304 -50.22,-51.2304 -14.21,0 -26.02,2.6093 -38.63,9.0117 l 0.21,125.2581 c 2.8,0.601 5.4,0.8 8,0.8 2.6,0 5.4,-0.199 8,-0.8 v -41.02 c 6.41,3.801 14.81,6.399 24.61,6.399 27.42,0 48.03,-18.809 48.03,-48.4184" /><path
         id="path48"
         style="fill:#192c46;fill-opacity:1;fill-rule:nonzero;stroke:none"
         d="m 2229.03,93.8398 c 0,12.8082 -6.8,26.8202 -25.21,26.8202 -16.41,0 -26.81,-12.211 -28.61,-26.8202 z m 16.01,-13.4101 H 2175 c 1.2,-17.3984 13.21,-30.4102 30.41,-30.4102 15.62,0 22.82,5.8008 28.02,9.8086 4,-2.0078 7.8,-6.8086 8.81,-11.0078 -7.61,-6.4101 -19.41,-13.6015 -37.02,-13.6015 -27.62,0 -47.02,19.4023 -47.02,49.621 0,29.2112 20.01,50.2192 45.62,50.2192 24.21,0 42.01,-17.399 42.01,-41.8207 0,-5.0078 -0.19,-7.3985 -0.79,-12.8086" /><path
         id="path50"
         style="fill:#192c46;fill-opacity:1;fill-rule:nonzero;stroke:none"
         d="m 2324.47,117.852 c -5.21,1.41 -11.41,2.007 -17.21,2.007 -8.2,0 -15.41,-1.609 -20.62,-4.808 V 38.0195 c -2.59,-0.6093 -5.4,-0.8007 -8.2,-0.8007 -2.8,0 -5.4,0.1914 -8.2,0.8007 v 84.2425 c 7.8,6.597 22.41,12.797 38.02,12.797 7.6,0 13.8,-1 20.21,-3.2 0.4,-4.8 -1.2,-10.398 -4,-14.007" /><path
         id="path52"
         style="fill:#192c46;fill-opacity:1;fill-rule:nonzero;stroke:none"
         d="m 2472.12,85.2383 c 0,20.4097 -12.41,35.0237 -32.21,35.0237 -19.82,0 -32.22,-14.614 -32.22,-35.0237 0,-20.4102 12.4,-34.8164 32.22,-34.8164 19.8,0 32.21,14.4062 32.21,34.8164 z m -80.84,0 c 0,28.2107 21.01,50.0317 49.22,50.0317 28.21,0 48.02,-21.821 48.02,-50.0317 0,-28.2188 -21.01,-49.8281 -49.22,-49.8281 -28.21,0 -48.02,21.6093 -48.02,49.8281" /><path
         id="path54"
         style="fill:#192c46;fill-opacity:1;fill-rule:nonzero;stroke:none"
         d="m 2575.15,161.672 c -1.2,-4.391 -3.8,-8.602 -8.6,-10.992 -4.6,3.59 -9.41,5.992 -16.41,5.992 -7.61,0 -15.21,-4 -15.21,-17.012 v -8.199 h 24.42 c 0.59,-2.199 0.8,-4.199 0.8,-6.602 0,-2.41 -0.21,-4 -0.8,-6.398 h -24.42 V 37.8086 c -2.59,-0.5898 -5.2,-0.7969 -7.8,-0.7969 -2.8,0 -5.2,0.2071 -7.8,0.7969 v 80.8394 h -13.21 c -0.4,2.411 -0.8,4.012 -0.8,6.411 0,2.402 0.4,4.402 0.8,6.601 h 13.21 v 6.199 c 0,23.219 17.21,33.02 31.42,33.02 12.6,0 21.4,-5.801 24.4,-9.207" /><path
         id="path56"
         style="fill:#192c46;fill-opacity:1;fill-rule:nonzero;stroke:none"
         d="m 2871.44,46.8203 c 1.81,7.211 5.6,12.6094 10.41,15.6016 5.8,-4.2031 14.2,-9.4024 29.21,-9.4024 13.41,0 18.21,5.0118 18.21,11.4102 0,6.4023 -5.4,10.0117 -22.41,12.6016 -16.81,2.5976 -32.81,8.8085 -32.81,28.8207 0,17.609 15.81,29.609 39.81,29.609 17.21,0 29.41,-4.789 35.62,-9.199 -1,-7 -4.01,-12.614 -8.61,-16.211 -6.6,3.801 -16.4,7.211 -27.81,7.211 -12,0 -17.21,-3.813 -17.21,-9.813 0,-6.211 4.2,-9.2107 20.41,-11.8006 20.62,-3.207 35.62,-10.207 35.62,-29.0195 0,-19.8086 -15.21,-31.8086 -41.22,-31.8086 -21.21,0 -33.81,7.3985 -39.22,12" /><path
         id="path58"
         style="fill:#192c46;fill-opacity:1;fill-rule:nonzero;stroke:none"
         d="m 3036.71,94.2383 c 0,11.2107 -5.8,22.6207 -21.21,22.8127 -14,0 -22.61,-9.801 -24.21,-22.8127 z m 21.41,-15 h -67.03 c 1.8,-15.6172 11.4,-25.207 27.21,-25.207 13.81,0 21.81,5.3984 28.02,9.7968 5,-3.1992 9,-9.6093 9.81,-15.4062 -8.01,-6.4102 -20.42,-13.4102 -39.43,-13.4102 -28.42,0 -48.82,18.8086 -48.82,49.8281 0,29.4102 20.61,50.6212 47.62,50.6212 25.41,0 43.42,-17.41 43.42,-42.8204 0,-5 -0.2,-8.1992 -0.8,-13.4023" /><path
         id="path60"
         style="fill:#192c46;fill-opacity:1;fill-rule:nonzero;stroke:none"
         d="M 3169.76,96.2383 V 38.0195 c -3.8,-0.8007 -7.79,-1.0078 -11.41,-1.0078 -3.8,0 -7.39,0.2071 -11.39,1.0078 v 52.8203 c 0,17.4102 -8.41,24.0192 -23.01,24.0192 -8.81,0 -16.61,-2.609 -21.02,-5.211 V 38.0195 c -3.6,-0.8007 -7.6,-1.0078 -11.4,-1.0078 -3.61,0 -7.41,0.2071 -11.21,1.0078 V 120.66 c 8.4,7 25.02,15.012 45.43,15.012 30.61,0 44.01,-17.621 44.01,-39.4337" /><path
         id="path62"
         style="fill:#192c46;fill-opacity:1;fill-rule:nonzero;stroke:none"
         d="m 3233.19,52.4219 c 7.19,0 13.8,1.1992 19.6,3 V 75.832 c -6.2,2.6094 -13.61,3.7969 -21.62,3.7969 -11.2,0 -18.8,-3.7969 -18.8,-12.8008 0,-8.6093 6.8,-14.4062 20.82,-14.4062 z M 3275,96.2383 V 44.4219 c -11.21,-5.4024 -27.81,-9.4102 -43.83,-9.4102 -28,0 -41.81,11.8086 -41.81,30.8203 0,19.6094 17.01,30.2188 40.02,30.0078 9,0 16.8,-1.1992 23.41,-3.6015 v 5.4101 c 0,11.3906 -7.6,18.2036 -22.81,18.2036 -11.4,0 -21.01,-4.403 -26.41,-8.403 -5.61,2.801 -9.41,8 -10.41,14.602 5.6,5.41 20.01,13.41 38.43,13.41 25,0 43.41,-11.199 43.41,-39.2227" /><path
         id="path64"
         style="fill:#192c46;fill-opacity:1;fill-rule:nonzero;stroke:none"
         d="m 3371.44,45.4219 c -5.81,-5 -15.41,-10.2031 -28.42,-10.2031 -20.41,0 -35.42,9.2031 -35.42,32.0117 v 45.8205 h -16.2 c -0.61,3.008 -0.8,6 -0.8,9.398 0,3.012 0.19,6.012 0.8,9.012 h 16.2 v 25.211 c 3.81,0.797 7.61,1.008 11.41,1.008 3.81,0 7.4,-0.211 11,-1.008 v -25.211 h 35.42 c 0.8,-3 1,-6 1,-9.012 0,-3.187 -0.2,-6.199 -1,-9.398 h -35.42 V 72.4297 c 0,-14 6.6,-17.6016 16.02,-17.6016 6.8,0 12.8,3.6016 15.8,6.3907 4.8,-3.1875 8.8,-9.5977 9.61,-15.7969" /><path
         id="path66"
         style="fill:#192c46;fill-opacity:1;fill-rule:nonzero;stroke:none"
         d="m 3429.34,52.4219 c 7.21,0 13.81,1.1992 19.61,3 V 75.832 c -6.2,2.6094 -13.61,3.7969 -21.61,3.7969 -11.2,0 -18.81,-3.7969 -18.81,-12.8008 0,-8.6093 6.81,-14.4062 20.81,-14.4062 z m 41.83,43.8164 V 44.4219 c -11.22,-5.4024 -27.82,-9.4102 -43.83,-9.4102 -28.01,0 -41.82,11.8086 -41.82,30.8203 0,19.6094 17.01,30.2188 40.02,30.0078 9,0 16.81,-1.1992 23.41,-3.6015 v 5.4101 c 0,11.3906 -7.6,18.2036 -22.81,18.2036 -11.4,0 -21.01,-4.403 -26.41,-8.403 -5.61,2.801 -9.4,8 -10.41,14.602 5.6,5.41 20.01,13.41 38.42,13.41 25.01,0 43.43,-11.199 43.43,-39.2227" /><path
         id="path68"
         style="fill:#192c46;fill-opacity:1;fill-rule:nonzero;stroke:none"
         d="M 3652.63,104.449 V 44.8203 c -10.6,-5.6094 -26.21,-10 -43.82,-10 -36.41,0 -65.63,25.1992 -65.63,67.2187 0,42.422 30.61,68.039 65.03,68.039 20.82,0 35.02,-5.398 43.42,-11.598 -0.99,-6.011 -3.4,-10.41 -8.6,-13.609 -9.61,6.199 -19.41,9.801 -34.82,9.801 -25.61,0 -48.02,-19 -48.02,-52.633 0,-30.9999 16.4,-52.0195 49.02,-52.0195 11.61,0 20.41,1.8086 27.01,4.4102 v 34.6094 h -27.01 c -0.8,2.8007 -1,5.1992 -1,7.6015 0,2.3985 0.2,5.0074 1,7.8084 h 43.42" /><path
         id="path70"
         style="fill:#192c46;fill-opacity:1;fill-rule:nonzero;stroke:none"
         d="m 3739.95,117.852 c -5.2,1.41 -11.4,2.007 -17.2,2.007 -8.21,0 -15.41,-1.609 -20.62,-4.808 V 38.0195 c -2.6,-0.6093 -5.4,-0.8007 -8.2,-0.8007 -2.8,0 -5.4,0.1914 -8.2,0.8007 v 84.2425 c 7.8,6.597 22.41,12.797 38.01,12.797 7.61,0 13.81,-1 20.22,-3.2 0.4,-4.8 -1.2,-10.398 -4.01,-14.007" /><path
         id="path72"
         style="fill:#192c46;fill-opacity:1;fill-rule:nonzero;stroke:none"
         d="m 3832.7,85.2383 c 0,20.4097 -12.41,35.0237 -32.22,35.0237 -19.81,0 -32.22,-14.614 -32.22,-35.0237 0,-20.4102 12.41,-34.8164 32.22,-34.8164 19.81,0 32.22,14.4062 32.22,34.8164 z m -80.84,0 c 0,28.2107 21,50.0317 49.22,50.0317 28.21,0 48.01,-21.821 48.01,-50.0317 0,-28.2188 -21,-49.8281 -49.21,-49.8281 -28.22,0 -48.02,21.6093 -48.02,49.8281" /><path
         id="path74"
         style="fill:#192c46;fill-opacity:1;fill-rule:nonzero;stroke:none"
         d="M 3952.04,132.059 V 44.4219 c -11.4,-5 -24.2,-9.2031 -43.41,-9.2031 -26.82,0 -40.02,14.4023 -40.02,37.0117 v 59.8285 c 2.79,0.601 5.59,0.8 8.2,0.8 2.6,0 5.4,-0.199 8,-0.8 V 78.8398 c 0,-18.0195 4.21,-28.6093 27.61,-28.6093 8.8,0 16.41,1.5976 23.41,4.1992 v 77.6293 c 2.81,0.601 5.61,0.8 8.21,0.8 2.6,0 5.4,-0.199 8,-0.8" /><path
         id="path76"
         style="fill:#192c46;fill-opacity:1;fill-rule:nonzero;stroke:none"
         d="m 4050.19,85.6406 c 0,20.8084 -13.41,34.0074 -33.21,34.0074 -8.62,0 -16.82,-2.386 -23.22,-6.398 l 0.2,-57.6211 c 5.6,-3.207 13.41,-5.207 23.02,-5.207 20.01,0 33.21,13.4062 33.21,35.2187 z m 16.4,0 c 0,-32.4218 -23.8,-50.2304 -48.62,-50.2304 -9,0 -16.61,1.0117 -24.01,3.8007 V 0.789063 c -2.6,-0.589844 -5.4,-0.8007818 -8,-0.8007818 -2.61,0 -5.2,0.2109378 -8.01,0.8007818 L 3977.76,120.66 c 8.4,7.199 22.81,14.399 39.22,14.399 28.21,0 49.61,-17.61 49.61,-49.4184" /></g></g></svg>