<?xml version="1.0" encoding="UTF-8"?>
<svg id="Ebene_1" data-name="Ebene 1" xmlns="http://www.w3.org/2000/svg" viewBox="0 0 300 51.06">
  <defs>
    <style>
      .cls-1 {
        fill: #fff;
      }

      .cls-2 {
        fill: #f29232;
      }
    </style>
  </defs>
  <polygon class="cls-1" points="21.72 27.62 0 40.18 0 50.97 31.02 33.02 21.72 27.62 21.72 27.62"/>
  <path class="cls-2" d="m14.88,19.57l19.64,11.43,9.33-5.4L0,0m0,0v10.88l14.88,8.69"/>
  <path class="cls-1" d="m61.27,47.29c0-2.09-1.48-3.52-3.51-3.52h-4.17v7.2h4.17c2.03,0,3.51-1.58,3.51-3.67h0Zm-1.26.06c0,1.36-.95,2.36-2.25,2.36h-2.92v-4.68h2.92c1.3,0,2.25.97,2.25,2.33h0Z"/>
  <polygon class="cls-1" points="64.77 50.93 64.77 43.74 63.52 43.74 63.52 50.93 64.77 50.93 64.77 50.93"/>
  <path class="cls-1" d="m72.91,50.96c1.51,0,2.24-.9,2.24-2.11,0-1.4-.78-2.08-2.24-2.08h-3.3c-.55,0-.9-.33-.9-.87s.34-.88.91-.88h5.17v-1.26h-5.17c-1.44,0-2.22.86-2.22,2.02s.84,2.05,2.2,2.05h3.31c.67,0,1.05.32,1.05.93,0,.56-.38.94-1.05.94h-5.4v1.26h5.4Z"/>
  <polygon class="cls-1" points="80.87 50.96 80.87 45.02 83.6 45.02 83.6 43.76 76.88 43.76 76.88 45.02 79.61 45.02 79.61 50.96 80.87 50.96 80.87 50.96"/>
  <path class="cls-1" d="m94.14,50.96l-2.17-2.19c.93-.36,1.49-1.2,1.49-2.39,0-1.6-.97-2.62-2.61-2.62h-5.17v7.2h1.25v-5.94h3.92c.86,0,1.38.46,1.38,1.39s-.48,1.45-1.38,1.45h-3v1.11h2.69l1.82,2h1.78Z"/>
  <polygon class="cls-1" points="97.28 50.96 97.28 43.76 96.02 43.76 96.02 50.96 97.28 50.96 97.28 50.96"/>
  <path class="cls-1" d="m107.44,45.63c0-1.23-.93-1.86-2.34-1.86h-5.27v7.2h5.42c1.41,0,2.32-.86,2.32-2.18,0-.84-.48-1.42-1.13-1.62.53-.17,1-.62,1-1.54h0Zm-5.44,1.15v1.06h3.2c.7,0,1.09.34,1.09.93,0,.7-.65.95-1.55.95h-3.64v-4.69h3.54c.93,0,1.53.12,1.53.88,0,.62-.34.87-1.05.87h-3.11Z"/>
  <path class="cls-1" d="m116.58,47.78c0,1.45-.64,2.04-2.62,2.04s-2.62-.59-2.62-2.04v-4.02h-1.3v4.02c0,2.23,1.11,3.28,3.88,3.28s3.89-1.05,3.89-3.28v-4.02h-1.23v4.02h0Z"/>
  <polygon class="cls-1" points="123.88 50.96 123.88 45.02 126.61 45.02 126.61 43.76 119.89 43.76 119.89 45.02 122.62 45.02 122.62 50.96 123.88 50.96 123.88 50.96"/>
  <polygon class="cls-1" points="129.95 50.96 129.95 43.76 128.69 43.76 128.69 50.96 129.95 50.96 129.95 50.96"/>
  <path class="cls-1" d="m141,47.29c0-2.09-1.45-3.52-3.53-3.52h-1.75c-2.01,0-3.5,1.41-3.5,3.52s1.49,3.67,3.5,3.67h1.75c2.05,0,3.53-1.58,3.53-3.67h0Zm-1.26.06c0,1.36-.94,2.36-2.27,2.36h-1.75c-1.3,0-2.24-1-2.24-2.36s.95-2.33,2.24-2.33h1.75c1.33,0,2.27.97,2.27,2.33h0Z"/>
  <path class="cls-1" d="m149.88,50.79c.18.18.37.27.57.27.37,0,.62-.28.62-.75v-6.6h-1.2v5.27l-5.08-5.04c-.19-.19-.35-.26-.53-.26-.4,0-.64.29-.64.75v6.54h1.2v-5.27l5.06,5.09h0Z"/>
  <path class="cls-1" d="m105.48,32.47c0-1.1-.88-1.99-2.01-1.99s-1.96.88-1.96,1.99.86,1.99,1.96,1.99,2.01-.88,2.01-1.99h0Z"/>
  <path class="cls-1" d="m101.3,25.15c0-5.17-3.7-8.73-8.82-8.73h-10.49v17.82h10.49c5.12,0,8.82-3.92,8.82-9.09h0Zm-3.82.2c0,2.94-2.11,5.07-5,5.07h-6.69v-10.17h6.69c2.89,0,5,2.13,5,5.1h0Z"/>
  <path class="cls-1" d="m79.64,32.47c0-1.1-.88-1.99-2.01-1.99s-1.96.88-1.96,1.99.86,1.99,1.96,1.99,2.01-.88,2.01-1.99h0Z"/>
  <path class="cls-1" d="m73.67,34.24l-10.93-9.09,10.59-8.73h-5.71l-8.24,6.96c-.74.61-.96,1.1-.96,1.74,0,.54.12,1,.78,1.57l8.75,7.55h5.71Z"/>
  <polygon class="cls-1" points="53.59 34.24 57.42 34.24 57.42 16.42 53.59 16.42 53.59 34.24 53.59 34.24"/>
  <path class="cls-1" d="m300,32.2v-15.96h-3.65v11.86l-11.67-11.2c-.54-.51-.98-.71-1.54-.71-1.18,0-1.91.86-1.91,2.26v15.78h3.63v-11.86l11.67,11.37c.51.51.98.74,1.57.74,1.13,0,1.91-.86,1.91-2.28h0Z"/>
  <path class="cls-1" d="m267.65,23.68v3.01h9.46v-3.01h-9.46Zm10.17,6.74h-12.4v-10.17h12.38v-3.82h-16.18v17.82h16.2v-3.82h0Z"/>
  <path class="cls-1" d="m243.55,21.96c0-1.1.66-1.72,1.74-1.72h12.89v-3.82h-12.89c-3.7,0-5.71,2.21-5.71,5.15s2.16,5.12,5.66,5.12h8.06c1.37,0,2.16.69,2.16,1.89,0,1.13-.78,1.84-2.16,1.84h-13.46v3.82h13.46c3.87,0,5.76-2.28,5.76-5.34,0-3.55-2.01-5.22-5.76-5.22h-8.01c-1.05,0-1.74-.61-1.74-1.72h0Z"/>
  <path class="cls-1" d="m238.21,34.24l-5.34-5.37c2.23-.88,3.6-2.92,3.6-5.83,0-4.04-2.48-6.62-6.64-6.62h-12.94v17.82h3.8v-14h9.14c1.81,0,2.89,1.01,2.89,2.89s-1.03,2.99-2.89,2.99h-6.91v3.26h5.54l4.34,4.85h5.42Z"/>
  <path class="cls-1" d="m203.17,23.68v3.01h9.46v-3.01h-9.46Zm10.17,6.74h-12.4v-10.17h12.38v-3.82h-16.18v17.82h16.2v-3.82h0Z"/>
  <path class="cls-1" d="m194.78,25.15c0-5.17-3.7-8.73-8.82-8.73h-10.49v17.82h10.49c5.12,0,8.82-3.92,8.82-9.09h0Zm-3.82.2c0,2.94-2.11,5.07-5,5.07h-6.69v-10.17h6.69c2.89,0,5,2.13,5,5.1h0Z"/>
  <path class="cls-1" d="m173.12,25.15c0-5.17-3.7-8.73-8.82-8.73h-10.49v17.82h10.49c5.12,0,8.82-3.92,8.82-9.09h0Zm-3.82.2c0,2.94-2.11,5.07-5,5.07h-6.69v-10.17h6.69c2.89,0,5,2.13,5,5.1h0Z"/>
  <path class="cls-1" d="m140.15,23.68v3.01h9.46v-3.01h-9.46Zm10.17,6.74h-12.4v-10.17h12.38v-3.82h-16.18v17.82h16.2v-3.82h0Z"/>
  <path class="cls-1" d="m130.62,20.24v-3.82h-15.37v17.82h3.8v-14h11.57Zm-.74,3.43h-8.6v3.02h8.6v-3.02h0Z"/>
</svg>