<?xml version="1.0" encoding="UTF-8"?>
<svg id="Layer_2" data-name="Layer 2" xmlns="http://www.w3.org/2000/svg" viewBox="0 0 325.62 364.79">
  <defs>
    <style>
      .cls-1 {
        fill: #fff;
      }
    </style>
  </defs>
  <g id="Laag_2" data-name="Laag 2">
    <g>
      <path class="cls-1" d="M315.62,157.29l-1.25-18.44s-11.02,1.92-26.65,3.94v-3.08c7.12-.91,11.62-1.42,12.28-1.48,3.44-.31,3.44-3.75,3.44-3.75,0,0,0-6.25-.31-9.38s1.88-3.75,1.88-3.75l20.62-1.56-.62-19.06s-19.51,2.35-37.28,4.37v-5.23c6.23-.95,11.12-1.74,11.65-1.95,1.56-.62,2.19-4.06,2.19-4.06l-1.56-13.44-12.28,2.37V31.58h-41.69c-.34-2.35-.76-4.52-1.25-5.33-1.25-2.08-2.71-1.88-2.71-1.88,0,0-9.17,2.92-17.92,4.79s-19.79,1.46-23.96,1.25c-4.17-.21-3.75-3.96-4.17-5.83-.42-1.88-2.08-2.71-2.08-2.71,0,0-2.29-.42-3.75-.21-1.46.21-2.08-.42-2.08-.42,0,0-3.54-7.71-3.96-8.96-.42-1.25-1.67-1.46-1.67-1.46,0,0-52.92,19.17-58.12,20.21s-4.17-1.88-4.17-1.88l33.33-11.67-5.83-17.5c-6.75,0-58.73,26.33-69.04,31.58h-39.66v72.11L0,120.42l10.62,14.06,28.39-12.84v10.71c-8.39,3.68-3.6,7.13-2.45,10.57,1.25,3.75-1.25,8.44-1.25,8.44l-18.44,7.19,9.38,15.94s6.07-2.37,12.77-5.12v19.57l-19.64,4.93,2.81,9.69c0,6.25,3.75,8.75,3.75,8.75,2.67.4,7.72-.85,13.08-2.56v48.73h57.25l-.02.08s4.04-.04,9.31-.08h21.16c1.03.02,1.85.05,2.34.08,4.38.31,4.69,5.62,4.69,5.62,0,0,1.56,3.44,7.19,1.88s25-3.75,36.25-5.31c6.74-.94,37.95-1.76,61.88-2.27h48.65v-62.42h14.78v-18.12l-14.78.25v-18.42l27.9-2.46ZM197.81,38.54s.26-.32.65-.71h4.95c1.72,1.2,3.69,3.06,3.47,5.71-.31,3.75-1.56,9.06-3.75,6.88s-2.19-6.88-5-5.31-67.5,23.44-67.5,23.44l-19.06,5.31-1.56-1.25,87.81-34.06ZM45.27,37.83h33.55l3.68,10.08s14.69-8.12,17.81-9.69c.32-.16.64-.28.96-.4h8.85l.51.08-.94,1.56c-9.69,3.44-54.06,29.69-55,31.56s4.69,6.88,4.69,6.88c0,0,16.56-9.38,20.31-11.88s40.62-20.31,40.62-20.31l22.23-7.9h4.73l-1.33,1.33c-14.06,4.69-60.94,27.19-60.94,27.19-8.75,4.06-3.12,10-1.25,12.5s-.62,5.94-.62,5.94l-37.86,16.23v-63.18ZM45.27,118.81l27.55-12.46c4.06-2.5,6.56.62,6.56.62l3.44,7.19s-24.2,10.81-37.55,15.85v-11.2ZM45.27,166.74c3.33-1.42,6.4-2.78,8.48-3.82,7.5-3.75,8.12-.62,10.94,5s6.88,3.75,6.88,3.75l52.5-20.31,78.12-22.19s.31,1.25,4.69,1.25.62,5.31.62,5.31c0,0-23.44,4.38-27.5,5s-62.19,17.5-67.81,19.38-3.44,5-2.81,7.19-1.56,4.38-1.56,4.38l-62.55,15.69v-20.62ZM105.62,240.1c-3.44.62-5.62,2.81-5.62,2.81l-2.23,9.29h-52.5v-44.61c5.04-1.8,9.63-3.61,11.92-4.37,5.62-1.88,5.94,6.25,6.25,9.69s8.12,1.25,8.12,1.25l76.25-19.69,1.88,1.56c-7.5,5.31-46.88,12.5-46.88,12.5l2.19,17.5,47.81-13.44.94,21.56s-44.69,5.31-48.12,5.94ZM281.47,252.21h-13.22l.19-3.35s0-6.88.31-9.06-.94-4.06-.94-4.06l-66.56-.62-2.5-33.44s73.76-8.45,82.72-9.59v60.13ZM281.47,178.28l-15.22.26-.31-16.88,15.53-1.37v17.98ZM281.47,143.57c-3.48.42-7.1.83-10.85,1.22-24.06,2.5-113.44,23.75-113.44,23.75-5,.94-5.62,4.69-7.19,8.12s-4.38.31-4.38.31c0,0-.94-3.44-1.56-6.56s3.12-3.12,3.12-3.12c31.03-12.08,100.81-22.36,134.28-26.77v3.05ZM281.47,105.8c-11.35,1.26-20.81,2.23-22.1,2.12-3.44-.31-.94-3.75-.94-3.75,0,0,12.01-1.72,23.03-3.36v4.99ZM281.47,84l-46.16,8.92s.62,8.44.94,10.62-.94,3.44-.94,3.44c0,0-5.94,1.25-8.44,1.56s-3.44-1.25-3.44-1.25l-2.19-6.88s-1.56-3.44-3.75-4.06-112.81,31.56-112.81,31.56l-8.44.94,4.38-3.44c15.62-7.5,165-45.62,167.08-46.46,2.08-.83,2.71-2.5,2.71-2.5,0,0-2.29-10.42-2.92-11.88-.62-1.46-1.67-1.04-1.67-1.04,0,0-56.04,12.92-58.75,13.54-2.71.62-2.92-1.46-2.92-1.46,0,0,0-1.25-.62-2.92-.62-1.67,1.67-2.5,1.67-2.5,0,0,48.75-9.58,53.54-10.42s4.17-3.75,4.17-3.75c0,0-2.29-10.42-2.71-12.29-.42-1.88-2.92-2.29-2.92-2.29l-7.5.62c-4.58-.21-2.92-2.71-2.92-2.71,0,0-.05-.61-.13-1.54h34.73v46.16Z"/>
      <rect class="cls-1" x="38.12" y="341.67" width="249.6" height="23.12"/>
      <path class="cls-1" d="M83.72,280.08c0-9.38-6.2-14.95-18.28-14.95h-26.42v55.32h9.68v-22.78h14.26c8.91,0,11,4.49,11,14.64,0,2.71,0,5.73,1.47,8.13h10.38c-2.09-2.25-3.02-8.13-3.02-14.57,0-8.75-4.88-11.23-8.21-11.7v-.15c1.78-.62,9.14-3.33,9.14-13.95ZM64.58,290.31h-15.88v-17.28h15.73c5.04,0,9.61,1.39,9.61,8.44,0,5.81-3.33,8.83-9.45,8.83Z"/>
      <path class="cls-1" d="M102.47,297.36c-7.44.85-15.42,2.48-15.42,12.48,0,7.82,6.51,11.7,13.71,11.7,4.73,0,10.38-1.47,13.87-4.88.7,3.64,3.25,4.88,6.82,4.88,1.47,0,4.26-.54,5.58-1.01v-6.12c-.93.16-1.63.16-2.17.16-1.63,0-2.09-.85-2.09-3.02v-20.61c0-8.45-8.21-11.62-16.04-11.62-8.83,0-17.59,3.02-18.21,13.33h8.83c.39-4.34,3.87-6.35,8.83-6.35,3.56,0,8.29.85,8.29,5.42,0,5.19-5.66,4.49-12.01,5.65ZM113.94,306.97c0,5.58-6.04,7.59-9.92,7.59-3.1,0-8.13-1.16-8.13-5.11,0-4.65,3.41-6.04,7.2-6.66,3.87-.7,8.14-.62,10.85-2.4v6.59Z"/>
      <polygon class="cls-1" points="149.74 320.45 164.07 280.39 154.93 280.39 145.17 311.15 145.01 311.15 134.86 280.39 125.26 280.39 139.82 320.45 149.74 320.45"/>
      <path class="cls-1" d="M179.56,297.36c-7.44.85-15.42,2.48-15.42,12.48,0,7.82,6.51,11.7,13.71,11.7,4.73,0,10.38-1.47,13.87-4.88.7,3.64,3.25,4.88,6.82,4.88,1.47,0,4.26-.54,5.58-1.01v-6.12c-.93.16-1.63.16-2.17.16-1.63,0-2.09-.85-2.09-3.02v-20.61c0-8.45-8.21-11.62-16.04-11.62-8.83,0-17.59,3.02-18.21,13.33h8.83c.39-4.34,3.87-6.35,8.83-6.35,3.56,0,8.29.85,8.29,5.42,0,5.19-5.65,4.49-12.01,5.65ZM191.03,306.97c0,5.58-6.04,7.59-9.92,7.59-3.1,0-8.13-1.16-8.13-5.11,0-4.65,3.41-6.04,7.2-6.66,3.87-.7,8.14-.62,10.85-2.4v6.59Z"/>
      <path class="cls-1" d="M224.19,329.74c-4.49,0-8.52-.85-9.61-5.89h-8.83c.77,9.38,9.84,12.47,17.9,12.47,12.63,0,19.68-5.97,19.68-17.97v-37.97h-8.83v5.5h-.15c-2.25-4.49-6.82-6.58-11.85-6.58-11.39,0-18.13,9.3-18.13,20.07,0,11.46,5.27,21.07,17.98,21.07,4.96,0,9.53-2.63,12.01-7.05h.15v6.12c0,6.59-3.17,10.23-10.3,10.23ZM223.73,313.48c-7.36,0-10.54-6.66-10.54-13.25s2.71-13.95,10.54-13.95,10.77,6.35,10.77,13.25-2.94,13.95-10.77,13.95Z"/>
      <path class="cls-1" d="M267.5,279.31c-12.86,0-20.22,8.83-20.22,21.07s7.36,21.15,20.22,21.15,20.22-8.83,20.22-21.15-7.36-21.07-20.22-21.07ZM267.5,314.56c-7.9,0-11.39-7.21-11.39-14.18s3.49-14.1,11.39-14.1,11.39,7.2,11.39,14.1-3.49,14.18-11.39,14.18Z"/>
    </g>
  </g>
</svg>