<svg enable-background="new 0 0 406 100" viewBox="0 0 406 100" xmlns="http://www.w3.org/2000/svg"><g fill="#003a5d"><path d="m143.153 63.945c.123-.159.188-.338.188-.545v-27.728c0-.207-.064-.388-.188-.544-.124-.157-.337-.291-.64-.404-.3-.115-.7-.204-1.198-.266-.498-.063-1.132-.093-1.901-.093s-1.403.03-1.9.093c-.499.062-.9.151-1.199.266-.302.113-.515.248-.639.404-.125.156-.189.337-.189.544v27.728c0 .207.063.386.189.545.124.154.337.284.639.386.299.105.7.183 1.199.236.497.052 1.131.077 1.9.077s1.403-.025 1.901-.077c.498-.053.898-.13 1.198-.236.303-.102.515-.232.64-.386"/><path d="m171.176 53.477c-.271 1.152-.686 2.133-1.247 2.944-.561.809-1.278 1.427-2.149 1.853-.872.426-1.902.638-3.084.638-1.288 0-2.368-.233-3.24-.7-.871-.469-1.563-1.127-2.071-1.978-.509-.853-.879-1.855-1.107-3.007s-.343-2.414-.343-3.784c0-1.475.14-2.789.421-3.943.281-1.151.7-2.138 1.262-2.959.561-.82 1.276-1.442 2.147-1.867.874-.426 1.893-.639 3.056-.639 1.308 0 2.391.239 3.255.715.861.479 1.551 1.143 2.071 1.996.519.85.887 1.85 1.107 3.006.218 1.151.325 2.412.325 3.783 0 1.475-.134 2.789-.403 3.942m4.704 7.273c1.265-1.412 2.211-3.094 2.834-5.046s.934-4.112.934-6.479c0-2.472-.291-4.662-.872-6.574-.581-1.911-1.468-3.52-2.663-4.829-1.195-1.308-2.705-2.3-4.534-2.974-1.827-.675-3.987-1.012-6.479-1.012-2.554 0-4.782.384-6.682 1.152-1.902.77-3.484 1.853-4.751 3.255-1.265 1.403-2.217 3.084-2.85 5.048-.633 1.961-.949 4.126-.949 6.494 0 2.452.291 4.631.871 6.542.58 1.912 1.475 3.52 2.679 4.83 1.203 1.307 2.721 2.304 4.547 2.992 1.829.683 3.979 1.026 6.451 1.026 2.554 0 4.786-.384 6.698-1.152 1.908-.77 3.498-1.859 4.766-3.273"/><path d="m233.599 56.327c-.957 1.079-1.897 1.9-2.821 2.46s-1.938.843-3.037.843c-1.309 0-2.331-.333-3.068-.997-.738-.665-1.105-1.577-1.105-2.741 0-.687.129-1.293.388-1.824.259-.528.669-.98 1.23-1.354s1.287-.655 2.182-.841c.89-.187 1.973-.282 3.239-.282h2.991v4.736zm6.401 8.208c.448-.072.773-.191.98-.356.207-.167.313-.395.313-.687v-18.692c0-1.912-.23-3.561-.686-4.953-.457-1.393-1.183-2.528-2.181-3.411-.996-.883-2.269-1.537-3.816-1.964-1.547-.425-3.411-.638-5.592-.638-1.225 0-2.414.098-3.564.296-1.154.197-2.22.451-3.197.763-.975.312-1.825.649-2.554 1.013-.727.363-1.236.695-1.526.995-.29.302-.488.64-.591 1.015-.105.372-.155.881-.155 1.525 0 .48.029.913.092 1.309.062.394.149.727.264.997.115.269.26.477.437.623.177.145.378.219.607.219.333 0 .763-.145 1.293-.438.528-.29 1.188-.613 1.979-.966.79-.352 1.697-.673 2.725-.965 1.028-.29 2.196-.437 3.506-.437.995 0 1.83.104 2.507.312.674.209 1.214.531 1.619.966.405.436.698.981.872 1.636.177.653.267 1.417.267 2.289v1.683h-2.712c-2.471 0-4.641.188-6.51.56-1.867.372-3.433.953-4.688 1.729-1.258.781-2.201 1.766-2.835 2.96-.635 1.194-.951 2.602-.951 4.222 0 1.495.249 2.804.749 3.924.499 1.123 1.2 2.064 2.103 2.82.905.76 1.972 1.33 3.208 1.715 1.236.382 2.592.576 4.065.576 1.786 0 3.412-.343 4.876-1.027 1.465-.686 2.768-1.641 3.91-2.867v2.211c0 .292.087.521.264.687.178.166.478.284.903.356.427.072 1.108.109 2.042.109.871.001 1.53-.037 1.977-.109"/><path d="m203.104 63.82c.176-.219.315-.505.418-.857l8.351-25.142c.083-.29.151-.549.203-.779.05-.227.094-.429.123-.607.032-.178.053-.338.062-.483.011-.145.016-.27.016-.374 0-.209-.051-.388-.157-.545-.102-.156-.289-.286-.56-.388-.271-.104-.648-.177-1.137-.22-.489-.04-1.116-.061-1.885-.061-.792 0-1.429.026-1.917.078-.488.051-.876.125-1.168.217-.29.095-.504.23-.638.405-.136.177-.233.389-.295.639l-5.265 17.24-1.117 3.789-.035.154-.005-.016-.252.856c-.033.172-.178.304-.358.304-.206 0-.374-.167-.374-.373v-.002-4.131l-5.524-17.82c-.082-.25-.186-.463-.31-.639-.125-.176-.338-.31-.637-.405-.303-.091-.713-.166-1.231-.217-.521-.052-1.204-.078-2.058-.078-.767 0-1.407.021-1.915.061-.51.043-.908.115-1.199.22-.292.102-.494.233-.608.388-.115.157-.171.336-.171.545 0 .125.004.26.015.406.01.143.052.383.123.715.073.334.174.706.298 1.121l8.349 25.142c.102.331.244.605.42.824.175.22.461.391.856.514.394.126.939.214 1.635.266.695.053 1.594.078 2.697.078 1.12 0 2.029-.02 2.724-.061.695-.043 1.245-.125 1.651-.252.407-.124.698-.294.875-.512"/><path d="m109.638 46.945v-3.89h.005v-12.579h3.489c.85 0 1.676.059 2.476.173.799.114 1.563.389 2.29.826.727.435 1.339 1.111 1.836 2.024.5.914.749 2.076.749 3.488 0 1.039-.147 2-.437 2.881-.292.883-.715 1.641-1.276 2.274-.561.634-1.283 1.127-2.164 1.48-.882.353-1.978.529-3.286.529h-1.877l-1.07 2.864c-.033.173-.177.304-.359.304-.205 0-.374-.165-.374-.371v-.003zm-7.345 17.356c.313.105.732.188 1.262.25.529.063 1.188.093 1.978.093.81 0 1.473-.03 1.994-.093.517-.062.931-.145 1.245-.25.311-.102.532-.238.669-.403.135-.167.202-.354.202-.561v-12.863h3.364c2.658 0 4.969-.312 6.93-.935 1.963-.624 3.618-1.53 4.968-2.725 1.349-1.194 2.377-2.663 3.084-4.406.706-1.745 1.06-3.749 1.06-6.013 0-1.64-.229-3.119-.686-4.437-.457-1.32-1.12-2.471-1.992-3.458-.872-.985-1.928-1.801-3.163-2.444-1.236-.644-2.455-1.085-3.659-1.325-1.205-.238-2.238-.393-3.101-.467-.86-.072-1.769-.108-2.723-.108h-9.5c-.832 0-1.501.243-2.009.732-.51.488-.764 1.22-.764 2.196v36.254c0 .207.063.394.187.561.126.164.343.3.654.402"/><path d="m274.67 41.067c-.351-1.432-.927-2.683-1.728-3.753-.8-1.07-1.847-1.916-3.145-2.54-1.298-.622-2.893-.934-4.783-.934-1.721 0-3.378.417-4.967 1.246-.472.247-.941.542-1.409.863l-1.393 3.643c-.014.086-.061.162-.125.217-.062.055-.142.09-.237.09-.204 0-.373-.167-.373-.372v-.002-.576l-.023-3.321h.026v-.012c0-.208-.061-.387-.187-.545-.126-.156-.339-.285-.639-.388-.301-.103-.701-.181-1.199-.234-.5-.051-1.133-.078-1.899-.078-.111 0-.195.005-.3.007-.09-.002-.168-.007-.261-.007-.644 0-1.18.027-1.606.078-.425.053-.775.13-1.043.235-.27.103-.457.234-.562.387-.102.156-.154.337-.154.543v.002.002 27.78.002c0 .006.003.011.003.017.001.2.05.375.151.526.105.157.292.285.562.39.268.102.617.181 1.043.234.425.051.961.077 1.606.077.092 0 .169-.004.257-.005.105.001.192.005.304.005.766 0 1.399-.026 1.899-.077.498-.053.898-.129 1.199-.233.3-.104.513-.234.639-.391.125-.156.187-.336.187-.543v-9.313-9.159c1.099-1.39 2.158-2.449 3.175-3.177 1.018-.725 2.025-1.089 3.022-1.089.79 0 1.479.152 2.071.451.592.301 1.074.728 1.448 1.277.373.55.659 1.21.856 1.978.198.77.297 1.827.297 3.178v15.854c0 .207.062.387.188.543.122.158.33.287.622.391.29.103.689.18 1.2.233.508.051 1.146.077 1.915.077.749 0 1.377-.026 1.883-.077.511-.053.907-.129 1.2-.233.289-.104.497-.234.622-.391.125-.156.187-.336.187-.543v-17.163c.001-2.013-.175-3.736-.529-5.17"/></g></svg>