<?xml version="1.0" encoding="UTF-8"?>
<svg xmlns="http://www.w3.org/2000/svg" width="362" height="58" viewBox="0 0 362 58" fill="none">
  <path d="M39.5217 16.6202L34.7061 16.5471L57.9948 47.9175H73.8421L42.602 5.93652L34.7061 16.5471L39.5217 16.6202L42.602 12.4549L66.5668 44.6585H60.4201L39.5217 16.6202Z" fill="#D71F27"></path>
  <path d="M38.735 26.7942L32.9643 19.0402L11.4541 47.9172H27.8785L41.1603 30.0529L38.735 26.7942ZM25.4526 44.6585H18.7291L32.9643 25.5585L36.3107 30.0548L25.4526 44.6585Z" fill="#D71F27"></path>
  <path d="M61.7407 5.93652L53.8447 16.5471L77.1332 47.9175H92.9805L61.7407 5.93652ZM58.6607 16.6202L61.7407 12.4549L85.7061 44.6585H79.5594L58.6607 16.6202Z" fill="#D71F27"></path>
  <path d="M34.7061 16.5471L57.9948 47.9172H73.8421L42.602 5.93652L34.7061 16.5471ZM60.4205 44.6585L39.5217 16.6199L42.602 12.4549L66.5668 44.6585H60.4205Z" fill="#D71F27"></path>
  <path d="M115.017 11.0865H120.986L130.691 26.0471L140.398 11.0865H146.368V42.7233H140.762V20.0362L130.691 34.9491H130.509L120.53 20.1251V42.7233H115.017L115.017 11.0865Z" fill="#231F20"></path>
  <path d="M153.685 29.3008V11.0865H159.293V29.0757C159.293 34.9491 162.343 38.0704 167.355 38.0704C172.319 38.0704 175.373 35.1301 175.373 29.3008V11.0865H180.978V29.0309C180.978 38.4739 175.602 43.2198 167.262 43.2198C158.971 43.2195 153.685 38.4739 153.685 29.3008Z" fill="#231F20"></path>
  <path d="M188.296 11.0865H211.945V16.0578H193.901V24.2847H209.898V29.2538H193.901V37.7508H212.174V42.7233H188.296V11.0865Z" fill="#231F20"></path>
  <path d="M219.49 11.0865H225.098V24.2368H240.317V11.0865H245.921V42.7233H240.317V29.39H225.098V42.7233H219.49V11.0865Z" fill="#231F20"></path>
  <path d="M252.627 38.1145L255.998 34.1365C259.052 36.7588 262.152 38.2485 266.07 38.2485C269.535 38.2485 271.722 36.6214 271.722 34.2743V34.1816C271.722 31.9234 270.444 30.7047 264.522 29.3465C257.733 27.7193 253.901 25.7319 253.901 19.8994V19.8102C253.901 14.3859 258.458 10.6345 264.795 10.6345C269.442 10.6345 273.135 12.036 276.368 14.6122L273.36 18.8163C270.489 16.6924 267.618 15.5614 264.701 15.5614C261.423 15.5614 259.51 17.2336 259.51 19.3131V19.4023C259.51 21.8427 260.966 22.9286 267.117 24.3748C273.86 26.0023 277.326 28.3977 277.326 33.6391V33.728C277.326 39.6503 272.629 43.1766 265.934 43.1766C261.057 43.1766 256.454 41.5047 252.627 38.1145Z" fill="#231F20"></path>
  <path d="M302.551 30.1581L297.036 17.5034L291.567 30.1581H302.551ZM294.533 10.8589H299.724L313.759 42.7242H307.837L304.599 35.0852H289.518L286.237 42.7242H280.495L294.533 10.8589Z" fill="#231F20"></path>
  <path d="M317.97 11.0865H323.942L333.646 26.0471L343.35 11.0865H349.321V42.7233H343.717V20.0362L333.646 34.9491H333.462L323.482 20.1251V42.7233H317.97L317.97 11.0865Z" fill="#231F20"></path>
</svg>
