<svg width="99" height="14" viewBox="0 0 99 14" fill="none" xmlns="http://www.w3.org/2000/svg">
<path fill-rule="evenodd" clip-rule="evenodd" d="M16.6468 4.04834C16.7447 4.04834 16.8701 4.05824 16.9449 4.07089L16.5099 6.22799C16.2442 6.11249 15.9511 6.06904 15.7124 6.06904C14.8472 6.06904 14.0706 6.73179 13.8589 7.79054L12.7677 13.2559H10.5781L12.3744 4.24634H14.493L14.317 5.05649C14.8296 4.43719 15.6937 4.04834 16.6468 4.04834" fill="#FEFEFE"/>
<path fill-rule="evenodd" clip-rule="evenodd" d="M34.2011 4.24634L32.4213 13.2559H30.3203L30.4606 12.4672C29.8616 13.0826 28.8958 13.4539 27.9427 13.4539C26.8658 13.4539 25.5964 12.7312 25.5947 10.8947C25.5958 10.5246 25.6481 10.1891 25.7009 9.88989L26.8289 4.24634H29.0185L27.9251 9.74964C27.8899 9.94379 27.8536 10.1726 27.8536 10.3486C27.8547 11.1428 28.4025 11.4959 28.9492 11.4959C29.5668 11.4959 30.6377 11.1785 30.9198 9.73149L32.011 4.24634H34.2011Z" fill="#FEFEFE"/>
<path fill-rule="evenodd" clip-rule="evenodd" d="M50.0258 4.58019L49.6568 6.41994C49.3741 6.26869 48.5177 5.84959 47.2428 5.84959C46.1313 5.84959 45.5923 6.39519 45.5923 6.96169C45.5923 7.34889 45.8761 7.56064 46.4382 7.64974L47.6218 7.84389C49.2641 8.10844 49.8465 8.95544 49.8487 10.2254C49.8498 11.1428 49.4593 11.8666 48.8582 12.4474C48.1173 13.1717 46.9359 13.4539 45.7523 13.4539C44.5748 13.4539 43.2531 12.9726 42.6509 12.5986L43.0623 10.5482C43.5496 10.9624 44.7079 11.5855 45.8942 11.5855C47.1466 11.5855 47.6757 10.9849 47.6746 10.4377C47.6746 9.94379 47.3402 9.76779 46.8116 9.68034L45.6104 9.48509C43.9335 9.20239 43.4038 8.26904 43.4033 7.40279C43.4027 6.55414 43.7228 5.72529 44.3399 5.10819C45.028 4.42014 46.0856 4.04834 47.3924 4.04834C48.3445 4.04834 49.4175 4.27604 50.0258 4.58019" fill="#FEFEFE"/>
<path fill-rule="evenodd" clip-rule="evenodd" d="M96.7695 0.452881C96.0468 0.452881 95.4358 1.03918 95.4077 1.76243C95.3797 2.48568 95.944 3.07363 96.6672 3.07363C97.3899 3.07363 97.9999 2.48568 98.0279 1.76243C98.056 1.03918 97.4922 0.452881 96.7695 0.452881" fill="#FEFEFE"/>
<path fill-rule="evenodd" clip-rule="evenodd" d="M92.4111 9.48158C92.5684 8.75778 92.7015 7.94928 92.7031 7.33218C92.7015 5.33733 91.4035 4.02173 89.4482 4.02173C86.2857 4.02173 84.76 7.13638 84.7622 10.2252C84.76 12.643 86.5448 13.4812 88.3356 13.4812C89.7133 13.4812 90.733 13.2133 91.4722 12.8976L91.8748 10.8885C91.4596 11.1222 90.4063 11.6288 88.6722 11.6288C87.3236 11.6288 86.8445 10.9682 86.8434 10.0662C86.8423 9.85943 86.8726 9.69058 86.9039 9.47993L92.4111 9.48158ZM89.3228 5.82298C90.117 5.82298 90.6197 6.37958 90.6208 7.33218C90.6208 7.50598 90.6071 7.70783 90.5779 7.88878H87.2114C87.6233 6.44998 88.4005 5.82298 89.3228 5.82298V5.82298Z" fill="#FEFEFE"/>
<path fill-rule="evenodd" clip-rule="evenodd" d="M97.3013 4.33545L95.5099 13.2559H93.3198L95.1101 4.33545H97.3013Z" fill="#FEFEFE"/>
<path fill-rule="evenodd" clip-rule="evenodd" d="M70.0111 4.04834C68.5998 4.04834 67.5691 4.27714 67.2314 4.39209L66.8327 6.37154C67.3937 6.13504 68.4508 5.88424 69.6228 5.88424C70.6013 5.88424 71.0622 6.25494 71.0622 6.87204C71.0622 7.04859 71.0396 7.18994 71.0083 7.34889L70.9522 7.63269H68.6658C66.7232 7.63269 65.0952 8.93509 65.0952 11.0201C65.0963 12.4138 66.2194 13.4368 67.826 13.4368C68.8308 13.4368 69.5365 13.0496 70.0491 12.5359L69.9077 13.2559H72.0082L73.1802 7.41929C73.2308 7.17234 73.2677 6.85554 73.2677 6.60804C73.2677 4.64839 71.5467 4.04834 70.0111 4.04834V4.04834ZM70.488 9.94379C70.4016 10.4014 70.2267 10.8254 69.9418 11.1081C69.6074 11.4436 69.1135 11.6724 68.5135 11.6724C67.7033 11.6724 67.249 11.1373 67.249 10.6269C67.249 9.81014 67.8584 9.16554 68.8715 9.16554H70.6436L70.488 9.94379Z" fill="#FEFEFE"/>
<path fill-rule="evenodd" clip-rule="evenodd" d="M41.9736 4.58019L41.6045 6.41994C41.3218 6.26869 40.4655 5.84959 39.1911 5.84959C38.079 5.84959 37.5395 6.39519 37.5395 6.96169C37.5395 7.34889 37.8238 7.56064 38.3859 7.64974L39.5695 7.84389C41.2113 8.10844 41.7937 8.95544 41.7954 10.2254C41.7965 11.1428 41.406 11.8666 40.8054 12.4474C40.0645 13.1717 38.8831 13.4539 37.6995 13.4539C36.522 13.4539 35.2003 12.9726 34.5986 12.5986L35.0095 10.5482C35.4973 10.9624 36.6551 11.5855 37.842 11.5855C39.0943 11.5855 39.6234 10.9849 39.6223 10.4377C39.6218 9.94379 39.2879 9.76779 38.7588 9.68034L37.5576 9.48509C35.8812 9.20239 35.3516 8.26904 35.351 7.40279C35.3499 6.55414 35.6706 5.72529 36.2877 5.10819C36.9752 4.42014 38.0334 4.04834 39.3402 4.04834C40.2922 4.04834 41.3653 4.27604 41.9736 4.58019" fill="#FEFEFE"/>
<path fill-rule="evenodd" clip-rule="evenodd" d="M75.0516 4.43734H76.0839L76.3105 3.30709C76.6323 1.70274 77.6151 0.783691 79.3102 0.783691H80.5912L80.2199 2.63719H79.4626C78.9329 2.63719 78.5798 2.91934 78.455 3.53699L78.2746 4.43734H81.2633L81.4899 3.30709C81.8116 1.70274 82.7945 0.783691 84.4896 0.783691H85.7722L85.3993 2.63719H84.6436C84.1128 2.63719 83.7592 2.91934 83.6349 3.53699L83.4539 4.43734H85.0764L84.7398 6.11319H83.1179L81.684 13.256H79.4939L80.9267 6.11319H77.938L76.5041 13.256H74.3135L75.7473 6.11319H74.715L75.0516 4.43734Z" fill="#FEFEFE"/>
<path fill-rule="evenodd" clip-rule="evenodd" d="M21.1156 4.04834C19.7043 4.04834 18.6731 4.27714 18.3354 4.39209L17.9377 6.37154C18.4987 6.13504 19.5553 5.88424 20.7273 5.88424C21.7052 5.88424 22.1667 6.25494 22.1661 6.87204C22.1672 7.04859 22.1447 7.18994 22.1128 7.34889L22.0567 7.63269H19.7709C17.8277 7.63269 16.1997 8.93509 16.1997 11.0201C16.2008 12.4138 17.3239 13.4368 18.9299 13.4368C19.9353 13.4368 20.641 13.0496 21.153 12.5359L21.0122 13.2559H23.1127L24.2853 7.41929C24.3348 7.17234 24.3722 6.85554 24.3722 6.60804C24.3722 4.64839 22.6507 4.04834 21.1156 4.04834V4.04834ZM21.5925 9.94379C21.5056 10.4014 21.3307 10.8254 21.0469 11.1081C20.7119 11.4436 20.2186 11.6724 19.6174 11.6724C18.8078 11.6724 18.3535 11.1373 18.3535 10.6269C18.3535 9.81014 18.9629 9.16554 19.976 9.16554H21.7487L21.5925 9.94379Z" fill="#FEFEFE"/>
<path fill-rule="evenodd" clip-rule="evenodd" d="M4.11291 6.09804L9.24001 0.783936H12.2227L7.16596 5.76584L10.0073 13.2557H7.37716L5.38176 7.52309L3.44356 9.43434L2.67631 13.2557H0.339355L2.84296 0.783936H5.17936L4.11291 6.09804Z" fill="#FEFEFE"/>
<path fill-rule="evenodd" clip-rule="evenodd" d="M54.8025 0.783936H56.9464L58.7289 7.49009L63.2813 0.783936H65.5137L63.0096 13.2563H60.7249L62.1956 5.93249L59.0474 10.5607H57.4771L56.0636 5.88299L54.5836 13.2563H52.2983L54.8025 0.783936Z" fill="#FEFEFE"/>
</svg>
