<?xml version="1.0" encoding="utf-8"?>
<!-- Generator: Adobe Illustrator 23.0.6, SVG Export Plug-In . SVG Version: 6.00 Build 0)  -->
<svg version="1.1" xmlns="http://www.w3.org/2000/svg" xmlns:xlink="http://www.w3.org/1999/xlink" x="0px" y="0px"
	 viewBox="0 0 317.7 111.4" style="enable-background:new 0 0 317.7 111.4;" xml:space="preserve">
<style type="text/css">
	.st0{fill:#E30613;}
	.st1{fill:#164194;}
	.st2{fill-rule:evenodd;clip-rule:evenodd;fill:#164194;}
</style>
<g id="Hilfslinien_anzeigen">
	<path class="st0" d="M304.9,0.1c-7,0-12.8,5.7-12.8,12.8c0,7,5.7,12.8,12.8,12.8c7,0,12.8-5.7,12.8-12.8
		C317.7,5.8,311.9,0.1,304.9,0.1z M313.4,15.6h-5.8v5.8h-5.5v-5.8h-5.8v-5.5h5.8V4.4h5.5v5.8h5.8V15.6z"/>
</g>
<g id="Vordergrund">
	<path class="st1" d="M179.1,75.9h-37.2c0.8-1.6,1.3-3.5,1.3-5.6v-1.7c0-2.1-0.5-4-1.3-5.6h9.8l3.4,0l28.8,0c4.9,0,8.6-3.9,8.6-8.7
		v-1.5c0-5-2.8-8-7.8-8h-32.2h-10.5c0.8-1.6,1.3-3.5,1.3-5.6v-1.7c0-2.1-0.5-4-1.5-5.6l6.6,0h32.2c4.9,0,8.6-3.9,8.6-8.7v-1.9
		c0-5-2.8-8-7.8-8h-32.2h-7.4c0.9-1.6,1.4-3.5,1.4-5.6V6c0-2.1-0.5-4-1.3-5.6c0.3,0,41.7,0,41.7,0c13,0,19.7,8,19.7,18.7v6.6
		c0,4.3-1.9,9.2-6.6,11.8c5.6,1.6,9.8,6.5,9.8,13v7.8c0,9.3-7.7,17.6-18.5,17.6H179.1z"/>
	<path class="st2" d="M265.3,75.9h-33.6c-10.3,0-18.4-8.4-18.4-18.5V18.7c0-10.2,8.8-18.2,19-18.2h32.3c10.2,0,19,8,19,18.2v38.8
		C283.7,67.5,275.4,75.9,265.3,75.9z M269.8,20.5c0-3.9-3.3-7.2-7.2-7.2h-28c-4.1,0-7.2,3.3-7.2,7.2v35.4c0,4.1,3.1,7.2,7,7.2h28.2
		c3.9,0,7.2-3.1,7.2-7.2V20.5z"/>
	<g>
		<path class="st1" d="M99,75.9h29.4h1.4c3.2,0,5.9-2.1,5.9-5.6v-1.7c0-3.4-2.7-5.6-5.9-5.6h-13.9l-3.4,0l-18.3,0
			c-4.9,0-8.6-3.9-8.6-8.7v-1.5c0-5,0-8,0-8h29.5h12.7h1.6h0.5c3.2,0,5.9-2.1,5.9-5.6v-1.7c0-3.4-2.7-5.6-5.9-5.6l-0.5,0h-1.6h-8.6
			H85.7c0,0,0-3.9,0-8.7v-1.9c0-5,2.8-8,7.8-8h25l9.4,0h2.6c2.9-0.4,5.2-2.4,5.2-5.6V6c0-3.4-2.7-5.6-5.9-5.6h-4
			c-0.3,0-34.4,0-34.4,0c-13,0-19.7,8-19.7,18.7l0.1,39.2c0,9.3,7.7,17.6,18.5,17.6H99z"/>
	</g>
	<path class="st2" d="M14.2,70.1c0,3.3-2.8,5.9-5.9,5.9H6.1c-3.3,0-5.9-2.6-5.9-5.9V6.4c0-3.3,2.6-5.9,5.9-5.9h2.2
		c3.1,0,5.9,2.5,5.9,5.9V70.1z M65,73.5l-2,1.7c-1.1,0.9-2.6,1.2-3.7,1.2c-1.1,0-2.2-0.6-2.8-1.1c-0.7-0.5-1.2-1-1.2-1L13.7,38.2
		L55.1,1.4C56,0.6,57.4,0,58.7,0c1.7,0,3.4,1,4.5,2.3L64.7,4C65.6,5.1,66,6.1,66,7.4c0,1.9-1.1,3.4-2.4,4.7L34.4,37.9l31.2,27.2
		c0.7,0.7,1.5,2.1,1.5,3.9C67.1,70.6,66.5,72.2,65,73.5z"/>
	<g>
		<path d="M2.4,89.9v16.6H0.2V89.9H2.4z"/>
		<path d="M7.7,94.5v1.9h0c0.8-1.5,2.1-2.2,3.9-2.2c0.8,0,1.5,0.1,2,0.3c0.5,0.2,1,0.5,1.3,0.9c0.3,0.4,0.6,0.8,0.7,1.4
			c0.1,0.5,0.2,1.1,0.2,1.8v7.9h-2v-8.1c0-0.7-0.2-1.3-0.7-1.8s-1-0.7-1.8-0.7c-0.6,0-1.1,0.1-1.6,0.3C9.4,96.4,9,96.7,8.7,97
			c-0.3,0.3-0.5,0.7-0.7,1.2c-0.1,0.5-0.2,1-0.2,1.5v6.8h-2v-12H7.7z"/>
		<path d="M20.1,110.3c-0.5,0.5-1.2,0.7-2.1,0.7c-0.4,0-0.7,0-1-0.1v-1.7c0.1,0,0.1,0,0.2,0c0.1,0,0.1,0,0.2,0h0.4
			c0.4,0,0.7-0.1,0.9-0.4c0.2-0.2,0.2-0.7,0.2-1.3V94.5h2V108C20.9,109.1,20.6,109.9,20.1,110.3z M18.9,92.3v-2.4h2v2.4H18.9z"/>
		<path d="M32.5,105.7c-0.9,0.7-2,1-3.4,1c-1,0-1.8-0.2-2.5-0.5c-0.7-0.3-1.3-0.7-1.8-1.3s-0.8-1.2-1.1-2s-0.4-1.6-0.4-2.5
			c0-0.9,0.1-1.8,0.4-2.5c0.3-0.8,0.7-1.4,1.2-2c0.5-0.6,1.1-1,1.8-1.3s1.4-0.5,2.3-0.5c1.1,0,2,0.2,2.7,0.7c0.7,0.4,1.3,1,1.7,1.7
			c0.4,0.7,0.7,1.4,0.9,2.2s0.2,1.6,0.2,2.3h-9c0,0.5,0,1,0.2,1.5s0.4,0.9,0.7,1.3s0.7,0.7,1.2,0.9c0.5,0.2,1,0.3,1.7,0.3
			c0.8,0,1.5-0.2,2.1-0.6c0.5-0.4,0.9-1,1.1-1.8h2C33.9,104,33.4,105,32.5,105.7z M32,98c-0.2-0.4-0.4-0.8-0.7-1.1
			c-0.3-0.3-0.7-0.5-1.1-0.7c-0.4-0.2-0.9-0.3-1.4-0.3c-0.5,0-1,0.1-1.4,0.3s-0.8,0.4-1.1,0.7s-0.5,0.7-0.7,1.1s-0.3,0.8-0.3,1.3
			h6.9C32.3,98.9,32.2,98.4,32,98z"/>
		<path d="M43.6,96.6c-0.5-0.4-1.2-0.6-2-0.6c-0.7,0-1.3,0.1-1.8,0.4c-0.5,0.3-0.9,0.6-1.2,1c-0.3,0.4-0.5,0.9-0.6,1.5
			c-0.1,0.6-0.2,1.2-0.2,1.8c0,0.6,0.1,1.1,0.2,1.6c0.1,0.5,0.3,1,0.6,1.4s0.6,0.7,1.1,1c0.4,0.2,1,0.4,1.6,0.4c1,0,1.7-0.3,2.3-0.8
			c0.6-0.5,0.9-1.2,1-2.2h2c-0.2,1.5-0.8,2.6-1.7,3.4c-0.9,0.8-2.1,1.2-3.6,1.2c-0.9,0-1.7-0.1-2.4-0.4c-0.7-0.3-1.3-0.7-1.8-1.3
			c-0.5-0.5-0.8-1.2-1.1-1.9c-0.2-0.8-0.4-1.6-0.4-2.5c0-0.9,0.1-1.7,0.3-2.5c0.2-0.8,0.6-1.5,1.1-2c0.5-0.6,1.1-1,1.8-1.4
			c0.7-0.3,1.5-0.5,2.5-0.5c0.7,0,1.3,0.1,1.9,0.2c0.6,0.2,1.1,0.4,1.6,0.8c0.5,0.3,0.8,0.8,1.1,1.3s0.5,1.1,0.6,1.9h-2
			C44.4,97.6,44.1,97,43.6,96.6z"/>
		<path d="M54.1,94.5v1.7h-2.4v7.5c0,0.2,0,0.4,0.1,0.6s0.1,0.2,0.2,0.3c0.1,0.1,0.3,0.1,0.5,0.2c0.2,0,0.4,0,0.8,0h0.9v1.7h-1.5
			c-0.5,0-1,0-1.3-0.1c-0.4-0.1-0.7-0.2-0.9-0.4c-0.2-0.2-0.4-0.4-0.5-0.8c-0.1-0.3-0.2-0.8-0.2-1.3v-7.7h-2v-1.7h2v-3.6h2v3.6H54.1
			z"/>
		<path d="M56.4,92.3v-2.4h2v2.4H56.4z M58.4,94.5v12h-2v-12H58.4z"/>
		<path d="M61.2,98c0.2-0.8,0.6-1.4,1.1-2s1.1-1,1.8-1.3c0.7-0.3,1.6-0.5,2.5-0.5c1,0,1.8,0.2,2.5,0.5c0.7,0.3,1.3,0.8,1.8,1.3
			s0.9,1.2,1.1,2s0.4,1.6,0.4,2.5c0,0.9-0.1,1.7-0.4,2.5c-0.2,0.8-0.6,1.4-1.1,2s-1.1,1-1.8,1.3c-0.7,0.3-1.6,0.5-2.5,0.5
			c-0.9,0-1.8-0.2-2.5-0.5c-0.7-0.3-1.3-0.8-1.8-1.3s-0.9-1.2-1.1-2c-0.2-0.8-0.4-1.6-0.4-2.5C60.8,99.6,60.9,98.8,61.2,98z
			 M63.2,102.4c0.2,0.6,0.5,1,0.8,1.4c0.3,0.4,0.7,0.7,1.2,0.9c0.5,0.2,0.9,0.3,1.5,0.3c0.5,0,1-0.1,1.5-0.3
			c0.5-0.2,0.9-0.5,1.2-0.9c0.3-0.4,0.6-0.9,0.8-1.4c0.2-0.6,0.3-1.2,0.3-1.9c0-0.7-0.1-1.4-0.3-1.9c-0.2-0.6-0.5-1-0.8-1.4
			c-0.3-0.4-0.7-0.7-1.2-0.9c-0.5-0.2-0.9-0.3-1.5-0.3c-0.5,0-1,0.1-1.5,0.3c-0.5,0.2-0.9,0.5-1.2,0.9c-0.3,0.4-0.6,0.9-0.8,1.4
			s-0.3,1.2-0.3,1.9C62.9,101.2,63,101.9,63.2,102.4z"/>
		<path d="M76.7,94.5v1.9h0c0.8-1.5,2.1-2.2,3.9-2.2c0.8,0,1.5,0.1,2,0.3c0.5,0.2,1,0.5,1.3,0.9c0.3,0.4,0.6,0.8,0.7,1.4
			c0.1,0.5,0.2,1.1,0.2,1.8v7.9h-2v-8.1c0-0.7-0.2-1.3-0.7-1.8s-1-0.7-1.8-0.7c-0.6,0-1.1,0.1-1.6,0.3c-0.4,0.2-0.8,0.5-1.1,0.8
			c-0.3,0.3-0.5,0.7-0.7,1.2c-0.1,0.5-0.2,1-0.2,1.5v6.8h-2v-12H76.7z"/>
		<path d="M97.6,89.9l5.2,14l5.3-14h3v16.6H109V92.7h0l-5.2,13.8h-1.9l-5.2-13.8h0v13.8h-2.1V89.9H97.6z"/>
		<path d="M114.2,98c0.2-0.8,0.6-1.4,1.1-2s1.1-1,1.8-1.3c0.7-0.3,1.6-0.5,2.5-0.5c1,0,1.8,0.2,2.5,0.5c0.7,0.3,1.3,0.8,1.8,1.3
			s0.9,1.2,1.1,2s0.4,1.6,0.4,2.5c0,0.9-0.1,1.7-0.4,2.5c-0.2,0.8-0.6,1.4-1.1,2s-1.1,1-1.8,1.3c-0.7,0.3-1.6,0.5-2.5,0.5
			c-0.9,0-1.8-0.2-2.5-0.5c-0.7-0.3-1.3-0.8-1.8-1.3s-0.9-1.2-1.1-2c-0.2-0.8-0.4-1.6-0.4-2.5C113.8,99.6,114,98.8,114.2,98z
			 M116.2,102.4c0.2,0.6,0.5,1,0.8,1.4c0.3,0.4,0.7,0.7,1.2,0.9c0.5,0.2,0.9,0.3,1.5,0.3c0.5,0,1-0.1,1.5-0.3
			c0.5-0.2,0.9-0.5,1.2-0.9c0.3-0.4,0.6-0.9,0.8-1.4c0.2-0.6,0.3-1.2,0.3-1.9c0-0.7-0.1-1.4-0.3-1.9c-0.2-0.6-0.5-1-0.8-1.4
			c-0.3-0.4-0.7-0.7-1.2-0.9c-0.5-0.2-0.9-0.3-1.5-0.3c-0.5,0-1,0.1-1.5,0.3c-0.5,0.2-0.9,0.5-1.2,0.9c-0.3,0.4-0.6,0.9-0.8,1.4
			s-0.3,1.2-0.3,1.9C115.9,101.2,116,101.9,116.2,102.4z"/>
		<path d="M135.9,106.5v-1.9h0c-0.4,0.7-1,1.3-1.6,1.6c-0.7,0.3-1.4,0.5-2.3,0.5c-0.8,0-1.5-0.1-2-0.3c-0.5-0.2-1-0.5-1.3-0.9
			c-0.3-0.4-0.6-0.8-0.7-1.4c-0.1-0.5-0.2-1.1-0.2-1.8v-7.9h2v8.1c0,0.7,0.2,1.3,0.7,1.8c0.4,0.4,1,0.7,1.8,0.7
			c0.6,0,1.1-0.1,1.6-0.3c0.4-0.2,0.8-0.4,1.1-0.8c0.3-0.3,0.5-0.7,0.7-1.2c0.1-0.5,0.2-1,0.2-1.5v-6.8h2v12H135.9z"/>
		<path d="M142.9,89.9v16.6h-2V89.9H142.9z"/>
		<path d="M154.7,106.5v-1.6h0c-0.3,0.7-0.8,1.1-1.5,1.4c-0.7,0.3-1.5,0.4-2.3,0.4c-0.9,0-1.7-0.2-2.4-0.5c-0.7-0.3-1.3-0.8-1.7-1.4
			c-0.5-0.6-0.8-1.2-1-2c-0.2-0.8-0.3-1.6-0.3-2.4s0.1-1.7,0.3-2.4s0.6-1.4,1-2c0.5-0.6,1-1,1.7-1.4c0.7-0.3,1.5-0.5,2.4-0.5
			c0.3,0,0.6,0,1,0.1c0.4,0.1,0.7,0.2,1.1,0.3s0.7,0.3,1,0.6c0.3,0.2,0.6,0.5,0.8,0.9h0v-6.2h2v16.6H154.7z M147.6,102.2
			c0.1,0.5,0.4,1,0.7,1.4s0.7,0.8,1.2,1c0.5,0.2,1,0.4,1.7,0.4c0.7,0,1.2-0.1,1.7-0.4c0.5-0.3,0.8-0.6,1.1-1
			c0.3-0.4,0.5-0.9,0.6-1.5c0.1-0.5,0.2-1.1,0.2-1.7c0-0.6-0.1-1.2-0.2-1.7s-0.4-1-0.7-1.5c-0.3-0.4-0.7-0.8-1.2-1
			c-0.5-0.3-1.1-0.4-1.7-0.4c-0.7,0-1.2,0.1-1.7,0.4c-0.5,0.3-0.8,0.6-1.1,1c-0.3,0.4-0.5,0.9-0.6,1.5c-0.1,0.6-0.2,1.1-0.2,1.7
			C147.4,101.1,147.5,101.7,147.6,102.2z"/>
		<path d="M164.8,91.7v-1.9h13.3v1.9h-5.5v14.8h-2.2V91.7H164.8z"/>
		<path d="M185.5,105.7c-0.9,0.7-2,1-3.4,1c-1,0-1.8-0.2-2.5-0.5c-0.7-0.3-1.3-0.7-1.8-1.3s-0.8-1.2-1.1-2s-0.4-1.6-0.4-2.5
			c0-0.9,0.1-1.8,0.4-2.5c0.3-0.8,0.7-1.4,1.2-2c0.5-0.6,1.1-1,1.8-1.3s1.4-0.5,2.3-0.5c1.1,0,2,0.2,2.7,0.7c0.7,0.4,1.3,1,1.7,1.7
			c0.4,0.7,0.7,1.4,0.9,2.2s0.2,1.6,0.2,2.3h-9c0,0.5,0,1,0.2,1.5s0.4,0.9,0.7,1.3s0.7,0.7,1.2,0.9c0.5,0.2,1,0.3,1.7,0.3
			c0.8,0,1.5-0.2,2.1-0.6c0.5-0.4,0.9-1,1.1-1.8h2C187,104,186.4,105,185.5,105.7z M185,98c-0.2-0.4-0.4-0.8-0.7-1.1
			c-0.3-0.3-0.7-0.5-1.1-0.7c-0.4-0.2-0.9-0.3-1.4-0.3c-0.5,0-1,0.1-1.4,0.3s-0.8,0.4-1.1,0.7s-0.5,0.7-0.7,1.1s-0.3,0.8-0.3,1.3
			h6.9C185.3,98.9,185.2,98.4,185,98z"/>
		<path d="M196.7,96.6c-0.5-0.4-1.2-0.6-2-0.6c-0.7,0-1.3,0.1-1.8,0.4c-0.5,0.3-0.9,0.6-1.2,1c-0.3,0.4-0.5,0.9-0.6,1.5
			c-0.1,0.6-0.2,1.2-0.2,1.8c0,0.6,0.1,1.1,0.2,1.6c0.1,0.5,0.3,1,0.6,1.4s0.6,0.7,1.1,1c0.4,0.2,1,0.4,1.6,0.4c1,0,1.7-0.3,2.3-0.8
			c0.6-0.5,0.9-1.2,1-2.2h2c-0.2,1.5-0.8,2.6-1.7,3.4c-0.9,0.8-2.1,1.2-3.6,1.2c-0.9,0-1.7-0.1-2.4-0.4c-0.7-0.3-1.3-0.7-1.8-1.3
			c-0.5-0.5-0.8-1.2-1.1-1.9c-0.2-0.8-0.4-1.6-0.4-2.5c0-0.9,0.1-1.7,0.3-2.5c0.2-0.8,0.6-1.5,1.1-2c0.5-0.6,1.1-1,1.8-1.4
			c0.7-0.3,1.5-0.5,2.5-0.5c0.7,0,1.3,0.1,1.9,0.2c0.6,0.2,1.1,0.4,1.6,0.8c0.5,0.3,0.8,0.8,1.1,1.3s0.5,1.1,0.6,1.9h-2
			C197.5,97.6,197.2,97,196.7,96.6z"/>
		<path d="M204,89.9v6.4h0c0.2-0.4,0.4-0.7,0.7-0.9s0.6-0.5,0.9-0.6c0.3-0.2,0.7-0.3,1.1-0.4c0.4-0.1,0.7-0.1,1.1-0.1
			c0.8,0,1.5,0.1,2,0.3c0.5,0.2,1,0.5,1.3,0.9c0.3,0.4,0.6,0.8,0.7,1.4c0.1,0.5,0.2,1.1,0.2,1.8v7.9h-2v-8.1c0-0.7-0.2-1.3-0.7-1.8
			c-0.4-0.4-1-0.7-1.8-0.7c-0.6,0-1.1,0.1-1.6,0.3c-0.4,0.2-0.8,0.5-1.1,0.8c-0.3,0.3-0.5,0.7-0.7,1.2s-0.2,1-0.2,1.5v6.8h-2V89.9
			H204z"/>
		<path d="M216.8,94.5v1.9h0c0.8-1.5,2.1-2.2,3.9-2.2c0.8,0,1.5,0.1,2,0.3c0.5,0.2,1,0.5,1.3,0.9c0.3,0.4,0.6,0.8,0.7,1.4
			c0.1,0.5,0.2,1.1,0.2,1.8v7.9h-2v-8.1c0-0.7-0.2-1.3-0.7-1.8c-0.4-0.4-1-0.7-1.8-0.7c-0.6,0-1.1,0.1-1.6,0.3
			c-0.4,0.2-0.8,0.5-1.1,0.8c-0.3,0.3-0.5,0.7-0.7,1.2s-0.2,1-0.2,1.5v6.8h-2v-12H216.8z"/>
		<path d="M227.6,98c0.2-0.8,0.6-1.4,1.1-2c0.5-0.6,1.1-1,1.8-1.3c0.7-0.3,1.6-0.5,2.5-0.5c1,0,1.8,0.2,2.5,0.5
			c0.7,0.3,1.3,0.8,1.8,1.3c0.5,0.6,0.9,1.2,1.1,2s0.4,1.6,0.4,2.5c0,0.9-0.1,1.7-0.4,2.5c-0.2,0.8-0.6,1.4-1.1,2
			c-0.5,0.6-1.1,1-1.8,1.3c-0.7,0.3-1.6,0.5-2.5,0.5c-0.9,0-1.8-0.2-2.5-0.5c-0.7-0.3-1.3-0.8-1.8-1.3c-0.5-0.6-0.9-1.2-1.1-2
			c-0.2-0.8-0.4-1.6-0.4-2.5C227.2,99.6,227.4,98.8,227.6,98z M229.6,102.4c0.2,0.6,0.5,1,0.8,1.4c0.3,0.4,0.7,0.7,1.2,0.9
			c0.5,0.2,0.9,0.3,1.5,0.3c0.5,0,1-0.1,1.5-0.3c0.5-0.2,0.9-0.5,1.2-0.9c0.3-0.4,0.6-0.9,0.8-1.4s0.3-1.2,0.3-1.9
			c0-0.7-0.1-1.4-0.3-1.9s-0.5-1-0.8-1.4c-0.3-0.4-0.7-0.7-1.2-0.9c-0.5-0.2-0.9-0.3-1.5-0.3c-0.5,0-1,0.1-1.5,0.3
			c-0.5,0.2-0.9,0.5-1.2,0.9c-0.3,0.4-0.6,0.9-0.8,1.4s-0.3,1.2-0.3,1.9C229.3,101.2,229.4,101.9,229.6,102.4z"/>
		<path d="M243.3,89.9v16.6h-2V89.9H243.3z"/>
		<path d="M246.1,98c0.2-0.8,0.6-1.4,1.1-2c0.5-0.6,1.1-1,1.8-1.3c0.7-0.3,1.6-0.5,2.5-0.5c1,0,1.8,0.2,2.5,0.5
			c0.7,0.3,1.3,0.8,1.8,1.3c0.5,0.6,0.9,1.2,1.1,2s0.4,1.6,0.4,2.5c0,0.9-0.1,1.7-0.4,2.5c-0.2,0.8-0.6,1.4-1.1,2
			c-0.5,0.6-1.1,1-1.8,1.3c-0.7,0.3-1.6,0.5-2.5,0.5c-0.9,0-1.8-0.2-2.5-0.5c-0.7-0.3-1.3-0.8-1.8-1.3c-0.5-0.6-0.9-1.2-1.1-2
			c-0.2-0.8-0.4-1.6-0.4-2.5C245.8,99.6,245.9,98.8,246.1,98z M248.1,102.4c0.2,0.6,0.5,1,0.8,1.4c0.3,0.4,0.7,0.7,1.2,0.9
			c0.5,0.2,0.9,0.3,1.5,0.3c0.5,0,1-0.1,1.5-0.3c0.5-0.2,0.9-0.5,1.2-0.9c0.3-0.4,0.6-0.9,0.8-1.4s0.3-1.2,0.3-1.9
			c0-0.7-0.1-1.4-0.3-1.9s-0.5-1-0.8-1.4c-0.3-0.4-0.7-0.7-1.2-0.9c-0.5-0.2-0.9-0.3-1.5-0.3c-0.5,0-1,0.1-1.5,0.3
			c-0.5,0.2-0.9,0.5-1.2,0.9c-0.3,0.4-0.6,0.9-0.8,1.4s-0.3,1.2-0.3,1.9C247.9,101.2,248,101.9,248.1,102.4z"/>
		<path d="M268.8,109.9c-0.9,1-2.3,1.5-4.2,1.5c-0.6,0-1.1-0.1-1.7-0.2s-1.1-0.3-1.6-0.6c-0.5-0.3-0.9-0.6-1.2-1.1s-0.5-1-0.5-1.7h2
			c0,0.4,0.1,0.7,0.3,0.9c0.2,0.2,0.5,0.5,0.8,0.6s0.6,0.3,1,0.3c0.4,0.1,0.7,0.1,1,0.1c0.7,0,1.2-0.1,1.7-0.3s0.8-0.5,1.1-0.9
			s0.5-0.9,0.6-1.4c0.1-0.6,0.2-1.2,0.2-1.8v-0.8h0c-0.3,0.7-0.9,1.3-1.5,1.6c-0.7,0.3-1.4,0.5-2.2,0.5c-0.9,0-1.7-0.2-2.4-0.5
			c-0.7-0.3-1.2-0.8-1.7-1.3c-0.5-0.6-0.8-1.2-1-1.9c-0.2-0.7-0.3-1.5-0.3-2.3c0-0.7,0.1-1.4,0.3-2.2s0.5-1.4,0.9-2
			c0.4-0.6,1-1.1,1.7-1.5s1.6-0.6,2.6-0.6c0.8,0,1.5,0.2,2.1,0.5c0.6,0.3,1.1,0.8,1.5,1.5h0v-1.7h1.9v11
			C270.2,107.4,269.7,108.9,268.8,109.9z M266.3,104.5c0.5-0.3,0.8-0.6,1.1-1.1s0.5-0.9,0.6-1.5s0.2-1.1,0.2-1.7
			c0-0.5-0.1-1-0.2-1.6c-0.1-0.5-0.3-1-0.6-1.4s-0.6-0.7-1.1-1s-1-0.4-1.6-0.4c-0.6,0-1.2,0.1-1.6,0.4c-0.5,0.2-0.8,0.6-1.1,1
			c-0.3,0.4-0.5,0.9-0.6,1.4c-0.1,0.5-0.2,1.1-0.2,1.7c0,0.5,0.1,1.1,0.2,1.6c0.1,0.5,0.3,1,0.6,1.5s0.6,0.8,1,1.1
			c0.4,0.3,1,0.4,1.6,0.4C265.3,104.9,265.8,104.7,266.3,104.5z"/>
		<path d="M277.9,108.1c-0.2,0.6-0.5,1.1-0.7,1.5c-0.2,0.4-0.5,0.7-0.7,1s-0.6,0.4-0.9,0.6c-0.3,0.1-0.7,0.2-1.2,0.2
			c-0.2,0-0.5,0-0.7,0c-0.2,0-0.5-0.1-0.7-0.2v-1.8c0.2,0.1,0.4,0.1,0.6,0.2c0.2,0.1,0.4,0.1,0.6,0.1c0.4,0,0.7-0.1,1-0.3
			s0.5-0.5,0.6-0.8l0.8-2l-4.8-12h2.2l3.5,9.8h0l3.4-9.8h2.1L277.9,108.1z"/>
	</g>
</g>
</svg>
