<svg xmlns="http://www.w3.org/2000/svg" width="262.95" height="60" viewBox="0 0 262.95 60"><g id="Gruppe_5" data-name="Gruppe 5" transform="translate(-322 -354)"><g id="Gruppe_1" data-name="Gruppe 1" transform="translate(416.225 382.764)"><path id="Pfad_1" data-name="Pfad 1" d="M403.878,124.7H400.3v-2.5h10.239v2.5h-3.7v10.851h-2.966Z" transform="translate(-400.3 -122.2)" fill="#b04d94" fill-rule="evenodd"></path></g><g id="Gruppe_2" data-name="Gruppe 2" transform="translate(382.024 382.764)"><rect id="Rechteck_1" data-name="Rechteck 1" width="3.013" height="13.346" transform="translate(0 0)" fill="#b04d94"></rect></g><g id="Gruppe_3" data-name="Gruppe 3" transform="translate(467.963 382.764)"><path id="Pfad_2" data-name="Pfad 2" d="M620.1,122.2h2.966v5.955h.047a9.224,9.224,0,0,1,.965-1.459l2.966-4.472h3.719l-4.449,5.72,4.661,7.65h-3.531L624.2,129.85l-1.13,1.412v4.331H620.1V122.2Z" transform="translate(-620.1 -122.2)" fill="#b04d94" fill-rule="evenodd"></path></g><g id="Gruppe_4" data-name="Gruppe 4" transform="translate(382.024 381.799)"><path id="Pfad_3" data-name="Pfad 3" d="M454.631,139.049v0Zm-3.342,1.059h2.683m-17.866,1.177-.188.565m3.766-4.661.706-.235m-6.473.235.706-.235m-4.237,4.331-.141.565m-4.143-2.8v2.966m-1.13-4.072v2.966m-7.415-4.59v5.72m-6.026-2.989v2.966m-3.39-1.907h2.683m-7.6-4.119v6.049m-.894-.706.141.518m-6.026-.565-.188.565m-3.837-4.661.706-.235m-4.237,4.331-.141.565m-.8-2.33v1.506m-9.062-1.718v4.425m-10.875-4.684v2.966m-2.613-2.8v2.825m-.753-1.93H361.96m-4.849-4.119v6.049m-2.448-4.849.659-.235m-6.8,3.931V137.92m-4.331,1.6v1.506m-5.108-.918h-2.707m-4.9,0H328.77m-2.071-3.178-.706.235m-1.342,1.883v2.377m-7.485-4.237.706-.235Zm-3.036,2.024v2.825m-3.46-1.93h2.683m-6.709-3.79v5.72m-2.73-6.049h-.706m-8.168,1.954v2.966m1.13-1.86v2.966m-6.8-1.907h-2.754m-1.459-1.059v2.377m-4.449-.541V137.92m-6.826,2.189h2.8m-6.92,1.506v.424m-4-6.049v4.99m-2.942.071v-1.506M255,136.319h.706m101.4-.33h.706v2.589a1.021,1.021,0,0,1,.471-.518,1.4,1.4,0,0,1,.706-.235c.518,0,1.365.33,1.365,1.742v2.448h-.706v-2.354c0-.659-.235-1.224-.894-1.224a1,1,0,0,0-.942.753v2.825h-.706m-1.883-5.084v1.012h1.036v.565h-1.036v2.213c0,.518.141.8.518.8.235,0,.33-.047.471-.047v.565a1.95,1.95,0,0,1-.659.094.937.937,0,0,1-.753-.33,1.683,1.683,0,0,1-.235-1.083v-2.213h-.612v-.565h.612v-.753m-5.061,4.1a2.012,2.012,0,0,0,.942.282c.518,0,.753-.282.753-.612s-.188-.518-.706-.706c-.706-.33-1.036-.706-1.036-1.177a1.24,1.24,0,0,1,1.318-1.224,2.668,2.668,0,0,1,1.012.235l-.188.565a1.464,1.464,0,0,0-.8-.235c-.424,0-.659.235-.659.565s.235.471.753.706c.659.235,1.036.612,1.036,1.224,0,.706-.565,1.224-1.459,1.224a1.95,1.95,0,0,1-1.083-.282m-.871-.965a5.473,5.473,0,0,0,.071,1.13h-.659v-.636a1.557,1.557,0,0,1-1.318.753c-.565,0-1.318-.33-1.318-1.789v-2.4H346v2.307c0,.753.235,1.271.847,1.271a1.122,1.122,0,0,0,.942-.659,1.168,1.168,0,0,0,.047-.424v-2.5h.683m-4.331,3.107a5.875,5.875,0,0,0,.094.989h-.612l-.094-.518a1.4,1.4,0,0,1-1.177.612,1.136,1.136,0,0,1-1.177-1.177c0-.989.8-1.554,2.307-1.506v-.094a.833.833,0,0,0-.894-.942,1.853,1.853,0,0,0-.989.282l-.141-.471a2.142,2.142,0,0,1,1.271-.377c1.177,0,1.436.847,1.436,1.695m-.683.377v.753a.466.466,0,0,1-.047.235.949.949,0,0,1-.894.683c-.377,0-.659-.188-.659-.706C341.9,140.062,342.752,139.92,343.529,139.92Zm-7.226.188c.047,1.059.612,1.459,1.318,1.459a2.173,2.173,0,0,0,1.083-.235l.094.518a2.453,2.453,0,0,1-1.271.282,1.859,1.859,0,0,1-1.883-2.071c0-1.224.706-2.213,1.789-2.213,1.271,0,1.6,1.177,1.6,1.93a2.655,2.655,0,0,1-.047.33m-.565-.518h-2.048c.094-.518.377-1.224,1.083-1.224C338.28,138.343,338.468,139.12,338.421,139.591Zm-4.331,2.448v-6.049h.659v6.049Zm-.965-5.226a.435.435,0,0,1-.471.424.415.415,0,0,1-.377-.424.435.435,0,0,1,.424-.471c.235-.024.424.165.424.471m-.871,5.226v-4.1h.706v4.1Zm-3.531-1.93c0,1.059.612,1.459,1.318,1.459a2.308,2.308,0,0,0,1.083-.235l.071.518a2.521,2.521,0,0,1-1.271.282,1.835,1.835,0,0,1-1.883-2.071c0-1.224.659-2.213,1.789-2.213,1.271,0,1.6,1.177,1.6,1.93a2.656,2.656,0,0,1-.047.33m-.565-.518h-2.024c.047-.518.377-1.224,1.083-1.224C330.677,138.343,330.818,139.12,330.818,139.591Zm-4.19-2.66v1.012h.989v.565h-.989v2.213c0,.518.094.8.518.8.141,0,.282-.047.377-.047l.047.565a2.09,2.09,0,0,1-.612.094.825.825,0,0,1-.753-.33,1.658,1.658,0,0,1-.282-1.083v-2.213h-.612v-.565h.612v-.753m-1.271,4.237a2.4,2.4,0,0,1-.588,1.883,1.836,1.836,0,0,1-1.365.471,2.131,2.131,0,0,1-1.271-.33l.141-.565a1.9,1.9,0,0,0,1.13.33c.706,0,1.224-.447,1.224-1.412v-.471a1.329,1.329,0,0,1-1.224.706,1.837,1.837,0,0,1-1.648-2.024,1.928,1.928,0,0,1,1.742-2.166,1.225,1.225,0,0,1,1.177.706h.047l.023-.612h.612a7.334,7.334,0,0,0-.047,1.13m-.659.447v.753a1.036,1.036,0,0,1-.047.377,1.065,1.065,0,0,1-.989.824c-.706,0-1.13-.73-1.13-1.53,0-.942.471-1.506,1.177-1.506a1,1,0,0,1,.942.753A.918.918,0,0,1,323.945,139.52Zm-3.554-2.707a.422.422,0,0,1-.424.424.435.435,0,0,1-.471-.424.472.472,0,0,1,.471-.471c.235-.024.424.165.424.471m-.824,5.226v-4.1h.659v4.1Zm-1.742-5.108v1.012h.989v.565h-.989v2.213c0,.518.094.8.518.8.188,0,.282-.047.377-.047l.047.565a1.844,1.844,0,0,1-.612.094.9.9,0,0,1-.777-.33,1.658,1.658,0,0,1-.282-1.083v-2.213h-.612v-.565h.612v-.753m-2.966,2.024v-1.271h.612v.8h.047a1.2,1.2,0,0,1,1.13-.894.356.356,0,0,1,.188.047v.706a.424.424,0,0,0-.235-.047c-.565,0-.894.377-.989.965a1.036,1.036,0,0,0-.047.377v2.166h-.706m-3.531-1.954c0,1.059.612,1.459,1.318,1.459a1.861,1.861,0,0,0,1.036-.235l.141.518a2.521,2.521,0,0,1-1.271.282,1.859,1.859,0,0,1-1.883-2.071c0-1.224.659-2.213,1.789-2.213a1.736,1.736,0,0,1,1.6,1.93,2.655,2.655,0,0,1-.047.33m-.565-.518h-2.071c.047-.518.377-1.224,1.083-1.224C312.552,138.343,312.717,139.12,312.717,139.591Zm-6.073-3.272h2.872v.612H307.35v1.883h2.024v.612H307.35v2.589h-.73m-2.754-6.026v4.99a7.287,7.287,0,0,0,.047,1.036h-.659v-.706a1.436,1.436,0,0,1-1.318.8c-.942,0-1.648-.847-1.648-2.071-.047-1.365.73-2.213,1.695-2.213a1.277,1.277,0,0,1,1.177.612v-2.448m0,3.648v.989a1.137,1.137,0,0,1-1.036.942c-.777,0-1.13-.706-1.13-1.577,0-.894.424-1.554,1.13-1.554a1.125,1.125,0,0,1,1.036.847Zm-6.991-.588a5.592,5.592,0,0,0-.071-1.13h.612l.047.706h.047a1.322,1.322,0,0,1,1.224-.8c.565,0,1.365.33,1.365,1.742v2.448h-.706v-2.354c0-.659-.235-1.224-.894-1.224a1.118,1.118,0,0,0-.942.753v2.825h-.706m-1.106-1.13v1.13h-.612v-.636a1.557,1.557,0,0,1-1.318.753c-.565,0-1.318-.33-1.318-1.789v-2.4h.706v2.307c0,.753.235,1.271.847,1.271a1.122,1.122,0,0,0,.942-.659,1.169,1.169,0,0,0,.047-.424v-2.5h.706m-8.45,2.166c.047,1.059.612,1.459,1.342,1.459a1.99,1.99,0,0,0,1.083-.235l.141.518a2.736,2.736,0,0,1-1.318.282,1.859,1.859,0,0,1-1.883-2.071,1.975,1.975,0,0,1,1.836-2.213c1.224,0,1.554,1.177,1.554,1.93v.33m-.636-.518h-2.024c.047-.518.33-1.224,1.083-1.224C288.519,138.343,288.707,139.12,288.707,139.591Zm-3.554,1.836a2.5,2.5,0,0,1-.565,1.883,1.969,1.969,0,0,1-1.436.471,2.228,2.228,0,0,1-1.271-.33l.188-.565a1.9,1.9,0,0,0,1.13.33c.706,0,1.224-.447,1.224-1.412v-.471a1.445,1.445,0,0,1-1.224.706,1.837,1.837,0,0,1-1.648-2.024,1.929,1.929,0,0,1,1.765-2.166,1.225,1.225,0,0,1,1.177.706h.047v-.612h.636v1.13m-.753.447v.753c0,.141-.047.235-.047.377a1.135,1.135,0,0,1-.989.824c-.753,0-1.13-.73-1.13-1.53,0-.942.471-1.506,1.13-1.506a1.016,1.016,0,0,1,.989.753A.919.919,0,0,1,284.423,139.52Zm-3.719,1.365a8.167,8.167,0,0,0,.047,1.13h-.636v-.636h-.047a1.439,1.439,0,0,1-1.271.753c-.565,0-1.318-.33-1.318-1.789v-2.4h.706v2.307c0,.753.235,1.271.847,1.271a1.122,1.122,0,0,0,.942-.659,1.169,1.169,0,0,0,.047-.424v-2.5h.706m-6.873,2.166c.047,1.059.612,1.459,1.365,1.459a1.99,1.99,0,0,0,1.083-.235l.141.518a2.961,2.961,0,0,1-1.365.282,1.859,1.859,0,0,1-1.883-2.071,1.975,1.975,0,0,1,1.836-2.213c1.271,0,1.6,1.177,1.6,1.93v.33m-.636-.518h-2.071c.047-.518.33-1.224,1.036-1.224C275.832,138.343,276,139.12,276,139.591Zm-6.238,2.024,1.742-2.4c.141-.235.33-.424.518-.683H269.9v-.612h2.919v.471l-1.695,2.354c-.188.235-.33.471-.518.683h2.26v.612h-3.107m-4-6.049h.683v2.589a1.411,1.411,0,0,1,1.342-.753c.942,0,1.6.847,1.6,2.071,0,1.506-.847,2.213-1.695,2.213a1.462,1.462,0,0,1-1.318-.753l-.047.659h-.565V140.98m.706-.588v-.706a.7.7,0,0,1,.047-.33,1.051,1.051,0,0,1,1.036-.894c.753,0,1.177.706,1.177,1.506,0,.942-.471,1.624-1.224,1.624a1.05,1.05,0,0,1-.989-.918A.646.646,0,0,1,266.463,140.391Zm-2.542,1.648v-6.049h.706v6.049Zm-1.106-.989a3.208,3.208,0,0,0,.094.989h-.659l-.047-.518h-.047a1.309,1.309,0,0,1-1.13.612,1.149,1.149,0,0,1-1.224-1.177c0-.989.847-1.554,2.354-1.506v-.094a.86.86,0,0,0-.894-.942,1.638,1.638,0,0,0-.989.282l-.165-.471a2.045,2.045,0,0,1,1.224-.377c1.177,0,1.459.847,1.459,1.695m-.612.377v.753a.465.465,0,0,1-.047.235.965.965,0,0,1-.942.683.63.63,0,0,1-.659-.706C260.532,140.062,261.426,139.92,262.179,139.92Zm-6.473-3.6v2.4H258.3v-2.4H259v5.72H258.3v-2.683h-2.589v2.683H255v-5.72m109.2-10.475v6.544m11.581-2.613-.565,2.166m9.51-11.04,2.966-.847m12.9.847,2.966-.847m21.608,12.358H428.2m11.628-3.272v3.013m.965-2.542v2.778m7.3-5.979v4.778m6.426-4.472h-1.342m-91.377-4.025V129.3m-38.439-10.239h3.013m-5.461,10.616.471,2.377m-12.452-7.721v2.448m17.442-7.721V124.2h4.943v-5.131h2.966v13.346h-2.966v-5.555h-4.943v5.555h-3.013V119.065m-1.977,12.97a8.286,8.286,0,0,1-3.39.565c-4.661,0-7.014-2.872-7.014-6.661,0-4.566,3.248-7.109,7.3-7.109a7.4,7.4,0,0,1,3.248.612l-.612,2.4a5.972,5.972,0,0,0-2.5-.518,4.035,4.035,0,0,0-4.308,4.425c0,2.683,1.554,4.355,4.308,4.355a7.221,7.221,0,0,0,2.5-.424m-11.981-2.872h-4.9v3.154h5.484v2.448h-8.5V119.065h8.262v2.472h-5.249v2.825h4.9M284.988,128.2v-1.977h5.2V128.2Zm-1.506-2.589c0,4.378-2.636,6.991-6.5,6.991-4.025,0-6.332-2.989-6.332-6.756,0-4.025,2.542-7.015,6.52-7.015,4.1,0,6.308,3.06,6.308,6.779m-9.627.141c0-2.589,1.13-4.519,3.248-4.519,2.071,0,3.2,2.024,3.2,4.472,0,2.613-1.177,4.519-3.2,4.519C275.055,130.246,273.854,128.386,273.854,125.75ZM260.7,129.3a7.585,7.585,0,0,0,3.342.847c1.365,0,2.118-.636,2.118-1.412,0-.894-.659-1.365-2.26-1.883-2.213-.8-3.648-2.024-3.648-4.025,0-2.26,1.907-4,5.061-4a8.285,8.285,0,0,1,3.366.659l-.659,2.448a6.538,6.538,0,0,0-2.778-.612c-1.271,0-1.93.565-1.93,1.271,0,.847.753,1.271,2.519,1.93,2.307.847,3.46,2.071,3.46,3.978,0,2.213-1.765,4.1-5.39,4.1a8.626,8.626,0,0,1-3.766-.8m.565-2.5-.612,2.5m194.429-5.084v2.213h2.118v-2.213H457.9v5.7h-1.271v-2.354h-2.118v2.354h-1.342v-5.7m-5.084-.306h1.271v2.354h.047a1.345,1.345,0,0,1,1.224-.565c.989,0,1.695.8,1.695,2.071a1.958,1.958,0,0,1-1.883,2.213,1.372,1.372,0,0,1-1.224-.659h-.047l-.047.565H448.04a8.749,8.749,0,0,0,.047-1.224m1.271-.494v-.612a.512.512,0,0,1,.047-.235.771.771,0,0,1,.777-.612c.612,0,.847.518.847,1.13,0,.777-.33,1.177-.847,1.177a.79.79,0,0,1-.777-.612A.353.353,0,0,1,449.359,130.67Zm-8.568-1.059v-1.318h1.083l.047.565h.047a1.275,1.275,0,0,1,1.224-.659,1.139,1.139,0,0,1,1.13.706,3.646,3.646,0,0,1,.565-.518,1.381,1.381,0,0,1,.753-.188c.8,0,1.412.565,1.412,1.789v2.4h-1.224v-2.213c0-.612-.188-.965-.612-.965a.529.529,0,0,0-.565.424.873.873,0,0,0-.094.33v2.4h-1.224v-2.307c0-.518-.188-.847-.612-.847a.72.72,0,0,0-.635.471.6.6,0,0,0-.047.282v2.4h-1.271m-.942-.188a6.515,6.515,0,0,1-1.93.33,3.232,3.232,0,0,1-2.354-.8,2.783,2.783,0,0,1-.8-2.095,2.985,2.985,0,0,1,3.3-2.966,4.866,4.866,0,0,1,1.6.282l-.282,1.036a3.22,3.22,0,0,0-1.318-.235,1.732,1.732,0,0,0-1.93,1.836,1.762,1.762,0,0,0,1.836,1.907,2.069,2.069,0,0,0,.659-.118v-1.177h-.942V129.14h2.166m14.806,9.91v-1.13h.612l.047.706a1.341,1.341,0,0,1,1.271-.8c.565,0,1.365.33,1.365,1.742v2.448h-.706v-2.354c0-.659-.235-1.224-.894-1.224a1,1,0,0,0-.895.753.507.507,0,0,0-.094.377v2.448h-.706m-3.531-1.907c0,1.059.612,1.459,1.318,1.459a2.173,2.173,0,0,0,1.083-.235l.094.518a2.521,2.521,0,0,1-1.271.282,1.859,1.859,0,0,1-1.883-2.071c0-1.224.659-2.213,1.789-2.213,1.271,0,1.6,1.177,1.6,1.93a2.656,2.656,0,0,1-.047.33m-.424-.518h-2.071c.094-.518.377-1.224,1.106-1.224C453.172,138.343,453.36,139.12,453.36,139.591Zm-4.778,2.448v-3.531h-1.6v3.531H446.3v-3.531h-.518v-.565h.518v-.094a2.108,2.108,0,0,1,.424-1.412,1.275,1.275,0,0,1,.989-.377,1.145,1.145,0,0,1,.518.141l-.141.565a.507.507,0,0,0-.377-.094c-.565,0-.706.494-.706,1.13v.141h1.6v-.188a1.8,1.8,0,0,1,.494-1.412,1.113,1.113,0,0,1,.895-.377,1.845,1.845,0,0,1,.612.094l-.094.612a.693.693,0,0,0-.471-.141c-.565,0-.706.565-.706,1.177v.235h.894v.565h-.894v3.531m-3.931-2.095a1.945,1.945,0,0,1-1.93,2.166,1.892,1.892,0,0,1-1.836-2.118,1.955,1.955,0,0,1,1.883-2.166,1.925,1.925,0,0,1,1.883,2.118m-3.084.047c0-.777.33-1.6,1.177-1.6.871,0,1.177.894,1.177,1.554,0,.942-.518,1.624-1.177,1.624C442.791,141.568,442.32,140.885,442.32,139.991Zm-2.118-3.06v1.012h1.036v.565H440.2v2.213c0,.518.141.8.518.8a2.534,2.534,0,0,0,.377-.047l.047.565a1.636,1.636,0,0,1-.612.094.878.878,0,0,1-.753-.33,1.659,1.659,0,0,1-.282-1.083v-2.213h-.612v-.565h.612v-.753m-3.39,4.1a1.718,1.718,0,0,0,.942.282c.471,0,.753-.282.753-.612s-.141-.518-.753-.706c-.706-.33-.989-.706-.989-1.177a1.213,1.213,0,0,1,1.318-1.224,2.536,2.536,0,0,1,.989.235l-.188.565a1.515,1.515,0,0,0-.847-.235.557.557,0,0,0-.612.565c0,.33.235.471.706.706.706.235,1.083.612,1.083,1.224,0,.706-.565,1.224-1.506,1.224a1.95,1.95,0,0,1-1.083-.282m-1.459-4.92v1.012h.989v.565h-.989v2.213c0,.518.141.8.518.8.188,0,.33-.047.424-.047v.565a1.636,1.636,0,0,1-.612.094.878.878,0,0,1-.753-.33,1.658,1.658,0,0,1-.282-1.083v-2.213h-.565v-.565h.565v-.753m-3.366,4.1a1.855,1.855,0,0,0,.942.282.622.622,0,0,0,.706-.612c0-.33-.188-.518-.706-.706-.659-.33-.989-.706-.989-1.177a1.24,1.24,0,0,1,1.318-1.224,2.283,2.283,0,0,1,.942.235l-.188.565a1.42,1.42,0,0,0-.753-.235c-.424,0-.659.235-.659.565s.235.471.706.706c.706.235,1.036.612,1.036,1.224,0,.706-.518,1.224-1.459,1.224a1.691,1.691,0,0,1-1.036-.282m-4.143-2.8v-1.13h.612l.071.706a1.366,1.366,0,0,1,1.271-.8c.541,0,1.389.33,1.389,1.742v2.448h-.706v-2.354c0-.659-.235-1.224-.894-1.224a1.093,1.093,0,0,0-.965.753v2.825h-.753m-1.153-1.13c0,.424.047.824.047,1.13h-.612l-.047-.659a1.409,1.409,0,0,1-1.271.753c-.612,0-1.318-.33-1.318-1.789v-2.4h.659v2.307c0,.753.235,1.271.894,1.271a.991.991,0,0,0,.894-.659,1.125,1.125,0,0,0,.094-.424v-2.5h.659m-7.415-1.6h.706v2.73h.047a4.777,4.777,0,0,1,.424-.612l1.6-2.118h.847l-1.93,2.448,2.118,3.248h-.847l-1.742-2.778-.518.612v2.166h-.706m-6.026-2.966v-1.13h.612v.706h.047a1.392,1.392,0,0,1,1.271-.8c.518,0,1.365.33,1.365,1.742v2.448h-.706v-2.354c0-.659-.235-1.224-.894-1.224a1.067,1.067,0,0,0-.965.753c0,.094-.047.235-.047.377v2.448h-.706M408,140.109c0,1.059.612,1.459,1.318,1.459a1.861,1.861,0,0,0,1.036-.235l.141.518a2.521,2.521,0,0,1-1.271.282,1.893,1.893,0,0,1-1.93-2.071,1.975,1.975,0,0,1,1.836-2.213c1.271,0,1.554,1.177,1.554,1.93v.33m-.471-.518h-2.071a1.2,1.2,0,0,1,1.083-1.224C409.978,138.343,410.214,139.12,410.214,139.591Zm-6.991-3.6h.706v2.589a1.021,1.021,0,0,1,.471-.518,1.423,1.423,0,0,1,.753-.235c.518,0,1.318.33,1.318,1.742v2.448h-.706v-2.354c0-.659-.188-1.224-.847-1.224a.962.962,0,0,0-.942.753.646.646,0,0,0-.047.306v2.519h-.706m-.753-.165a2.188,2.188,0,0,1-1.13.282,1.893,1.893,0,0,1-1.93-2.071,2.067,2.067,0,0,1,2.071-2.213,2.558,2.558,0,0,1,1.012.235l-.188.565a1.522,1.522,0,0,0-.8-.188,1.416,1.416,0,0,0-1.365,1.554,1.439,1.439,0,0,0,1.365,1.577,1.932,1.932,0,0,0,.871-.235m-5.932-.071a1.9,1.9,0,0,0,.989.282c.518,0,.753-.282.753-.612s-.235-.518-.753-.706c-.706-.33-1.036-.706-1.036-1.177a1.228,1.228,0,0,1,1.365-1.224,2.091,2.091,0,0,1,.942.235l-.141.565a1.79,1.79,0,0,0-.8-.235c-.424,0-.659.235-.659.565s.235.471.777.706a1.239,1.239,0,0,1,.989,1.224c0,.706-.518,1.224-1.459,1.224a2.118,2.118,0,0,1-1.13-.282m-.659-5.037a.4.4,0,0,1-.424.424.435.435,0,0,1-.471-.424.445.445,0,0,1,.471-.471c.306-.024.424.165.424.471m-.918,5.226v-4.1h.706v4.1Zm-1.718-5.108v1.012h.989v.565h-.989v2.213c0,.518.141.8.518.8.188,0,.282-.047.424-.047v.565a1.962,1.962,0,0,1-.612.094.878.878,0,0,1-.753-.33,1.658,1.658,0,0,1-.282-1.083v-2.213h-.612v-.565h.612v-.753m-3.39,4.1a2.012,2.012,0,0,0,.942.282c.518,0,.753-.282.753-.612s-.188-.518-.706-.706c-.659-.33-1.036-.706-1.036-1.177a1.255,1.255,0,0,1,1.365-1.224,2.765,2.765,0,0,1,.965.235l-.188.565a1.464,1.464,0,0,0-.8-.235.557.557,0,0,0-.612.565c0,.33.235.471.706.706.659.235,1.036.612,1.036,1.224,0,.706-.518,1.224-1.459,1.224a1.95,1.95,0,0,1-1.083-.282m-.824-.8a6.318,6.318,0,0,0,.047.989h-.612l-.094-.518a1.4,1.4,0,0,1-1.177.612,1.11,1.11,0,0,1-1.177-1.177c0-.989.847-1.554,2.307-1.506v-.094a.833.833,0,0,0-.894-.942,1.853,1.853,0,0,0-.989.282l-.141-.471a2,2,0,0,1,1.224-.377c1.224,0,1.507.847,1.507,1.695m-.659.377v.753a.611.611,0,0,1-.094.235.949.949,0,0,1-.894.683c-.377,0-.659-.188-.659-.706C385.639,140.062,386.487,139.92,387.287,139.92Zm-3.931,2.118v-6.049h.706v6.049Zm-4.472-2.73a12.35,12.35,0,0,0-.047-1.365h.659l.047.706a1.452,1.452,0,0,1,1.365-.8c.942,0,1.648.847,1.648,2.071,0,1.506-.847,2.213-1.789,2.213a1.342,1.342,0,0,1-1.177-.659v2.26h-.706m.706-3.342v-.706c0-.141.047-.235.047-.33a1.088,1.088,0,0,1,1.036-.894c.753,0,1.177.706,1.177,1.506,0,.942-.424,1.624-1.177,1.624a1.1,1.1,0,0,1-1.036-.918A.646.646,0,0,1,379.59,140.391Zm-1.506-.447a1.945,1.945,0,0,1-1.93,2.166,1.892,1.892,0,0,1-1.836-2.118,1.942,1.942,0,0,1,1.883-2.166,1.912,1.912,0,0,1,1.883,2.118m-3.06.047c0-.777.33-1.6,1.177-1.6.8,0,1.13.894,1.13,1.554,0,.942-.471,1.624-1.13,1.624C375.494,141.568,375.024,140.885,375.024,139.991Zm-7.015-.942a8.342,8.342,0,0,0-.047-1.13h.612l.047.659a1.362,1.362,0,0,1,1.224-.753,1.124,1.124,0,0,1,1.083.847,2.934,2.934,0,0,1,.424-.565,1.652,1.652,0,0,1,.847-.282c.565,0,1.318.377,1.318,1.789v2.4h-.706v-2.283c0-.8-.282-1.271-.871-1.271a1,1,0,0,0-.847.706c0,.094-.047.235-.047.33v2.542h-.659v-2.448c0-.659-.282-1.13-.8-1.13a.95.95,0,0,0-.847.753.9.9,0,0,0-.094.306v2.519h-.659m-2.589-2.825a10.648,10.648,0,0,0-.047-1.271h.612l.047.8a1.241,1.241,0,0,1,1.083-.894c.094,0,.165,0,.188.047v.706a.353.353,0,0,0-.235-.047,1.013,1.013,0,0,0-.942.965v2.542H365.4m-3.531-1.954c0,1.059.612,1.459,1.271,1.459a2.173,2.173,0,0,0,1.083-.235l.094.518a2.387,2.387,0,0,1-1.271.282,1.825,1.825,0,0,1-1.836-2.071c0-1.224.659-2.213,1.789-2.213a1.736,1.736,0,0,1,1.6,1.93,1.844,1.844,0,0,1-.071.33m-.518-.518h-2.024c.047-.518.377-1.224,1.036-1.224C363.819,138.343,364.007,139.12,364.007,139.591Zm61.153-7.179V124.95H422.1v7.462h-3.036V124.95h-1.271v-2.26h1.271v-.141a4.338,4.338,0,0,1,1.083-3.107,4.164,4.164,0,0,1,2.966-1.036,3.056,3.056,0,0,1,1.271.235l-.377,2.213a2.425,2.425,0,0,0-.824-.141c-.894,0-1.177.753-1.177,1.695v.282h3.107v-.377a4.456,4.456,0,0,1,1.224-3.225,4.02,4.02,0,0,1,2.707-.989,9.349,9.349,0,0,1,1.6.188L430.5,120.6a5.41,5.41,0,0,0-.989-.094c-.989,0-1.412.753-1.412,1.695v.471h1.93v2.26H428.15v7.462m-11.3-4.92a4.814,4.814,0,0,1-5.061,5.131,4.688,4.688,0,0,1-4.99-4.967,4.825,4.825,0,0,1,5.155-5.131,4.689,4.689,0,0,1,4.9,4.967m-6.991.071c0-1.412.565-2.872,1.977-2.872,1.365,0,1.93,1.459,1.93,2.872,0,1.742-.753,2.919-1.93,2.919C410.59,130.481,409.861,129.234,409.861,127.539Zm-6.308-7.485v2.636h2.118v2.26h-2.118V128.5c0,1.13.282,1.648,1.177,1.648a5.126,5.126,0,0,0,.894-.047v2.213a4.893,4.893,0,0,1-1.93.282,3.15,3.15,0,0,1-2.26-.8,4.026,4.026,0,0,1-.847-2.872V124.95h-1.295v-2.26h1.295V120.9m-9.015,8.874a5.776,5.776,0,0,0,2.542.753c.942,0,1.318-.33,1.318-.8,0-.518-.282-.753-1.483-1.13-1.977-.659-2.73-1.742-2.73-2.872,0-1.789,1.554-3.2,3.954-3.2a7.294,7.294,0,0,1,2.778.518l-.565,2.118a5.149,5.149,0,0,0-2.118-.565c-.753,0-1.177.33-1.177.777,0,.494.377.706,1.554,1.153,1.907.612,2.707,1.554,2.707,2.966,0,1.789-1.459,3.107-4.237,3.107a7.164,7.164,0,0,1-3.107-.659m-3.3-11.887v2.636h2.118v2.26h-2.118V128.5c0,1.13.235,1.648,1.177,1.648a5.406,5.406,0,0,0,.894-.047v2.213a4.893,4.893,0,0,1-1.93.282,3.15,3.15,0,0,1-2.26-.8,4.026,4.026,0,0,1-.847-2.872V124.95h-1.271v-2.26h1.271V120.9m-8.968,8.874a5.776,5.776,0,0,0,2.542.753c.942,0,1.271-.33,1.271-.8,0-.518-.282-.753-1.412-1.13-1.977-.659-2.73-1.742-2.73-2.872,0-1.789,1.554-3.2,3.954-3.2a7,7,0,0,1,2.707.518l-.518,2.118a4.947,4.947,0,0,0-2.118-.565c-.706,0-1.13.33-1.13.777,0,.494.377.706,1.554,1.153,1.836.612,2.636,1.554,2.636,2.966,0,1.789-1.412,3.107-4.19,3.107a7.245,7.245,0,0,1-3.107-.659m-11.04-6.1c0-1.224-.047-2.283-.094-3.178h2.589l.141,1.389h.047a3.467,3.467,0,0,1,3.013-1.554c1.93,0,3.437,1.318,3.437,4.213v5.7h-2.989v-5.32c0-1.271-.424-2.118-1.507-2.118a1.592,1.592,0,0,0-1.506,1.13,1.909,1.909,0,0,0-.141.777v5.555h-2.966m-2.424-3.131c0,1.271,0,2.307.047,3.107h-2.589l-.165-1.365h-.047a3.432,3.432,0,0,1-3.107,1.554c-1.977,0-3.413-1.177-3.413-4.213v-5.72h3.013v5.249c0,1.436.471,2.283,1.577,2.283a1.608,1.608,0,0,0,1.506-1.059,1.5,1.5,0,0,0,.094-.659v-5.814h3.06" transform="translate(-255 -118.1)" fill="#555" fill-rule="evenodd"></path></g><path id="Pfad_4" data-name="Pfad 4" d="M0,24.927V8.309L14.406,0,28.788,8.309V24.927L14.406,33.237Z" transform="translate(322 354)" fill="#b04d94"></path><path id="Pfad_5" data-name="Pfad 5" d="M132.8,24.927V8.309L147.182,0l14.406,8.309V24.927l-14.406,8.309Z" transform="translate(220.459 354)" fill="#b04d94"></path><path id="Pfad_6" data-name="Pfad 6" d="M66.4,138.627V122.009L80.782,113.7l14.406,8.309v16.618l-14.406,8.309Z" transform="translate(271.23 267.063)" fill="#b04d94"></path><path id="Pfad_7" data-name="Pfad 7" d="M57.607,34.5V52.484H54.1V34.5Z" transform="translate(280.634 327.621)" fill="#fff"></path><path id="Pfad_8" data-name="Pfad 8" d="M177.178,39.725H174V36.5h9.863v3.225h-3.2V54.484h-3.484Z" transform="translate(188.957 326.092)" fill="#fff"></path><path id="Pfad_9" data-name="Pfad 9" d="M106.7,145.6h3.484v8.1h.047c.282-.753.588-1.554.871-2.33l2.4-5.767h3.837l-4.025,7.815,4.072,10.169h-3.813l-2.566-7.438-.8,1.459v5.979h-3.484V145.6Z" transform="translate(240.416 242.672)" fill="#fff"></path></g></svg>