<svg width="120" height="99" viewBox="0 0 120 99" fill="none" xmlns="http://www.w3.org/2000/svg">
<g clip-path="url(#clip0_1264_4860)">
<path d="M17.6242 19.6228C17.6242 17.7017 16.0687 16.1384 14.1398 16.1384C12.211 16.1384 10.6555 17.694 10.6555 19.6228C10.6555 21.5516 12.211 23.1071 14.1398 23.1071C16.0687 23.1071 17.6242 21.5516 17.6242 19.6228ZM15.0654 29.0803C15.0654 27.1592 13.5099 25.596 11.581 25.596C9.65219 25.596 8.09668 27.1515 8.09668 29.0803C8.09668 31.0091 9.65219 32.5647 11.581 32.5647C13.5099 32.5647 15.0654 31.0091 15.0654 29.0803ZM17.9431 38.4523C17.9431 36.5312 16.3876 34.9679 14.4587 34.9679C12.5299 34.9679 10.9744 36.5234 10.9744 38.4523C10.9744 40.3811 12.5299 41.9366 14.4587 41.9366C16.3876 41.9366 17.9431 40.3811 17.9431 38.4523ZM25.5262 44.6665C25.5262 42.7455 23.9707 41.1822 22.0418 41.1822C20.113 41.1822 18.5575 42.7377 18.5575 44.6665C18.5575 46.5954 20.113 48.1509 22.0418 48.1509C23.9707 48.1509 25.5262 46.5954 25.5262 44.6665ZM35.2559 45.8721C35.2559 43.951 33.7004 42.3877 31.7716 42.3877C29.8427 42.3877 28.2872 43.9432 28.2872 45.8721C28.2872 47.8009 29.8427 49.3564 31.7716 49.3564C33.7004 49.3564 35.2559 47.8009 35.2559 45.8721ZM44.0368 41.5166C44.0368 39.5956 42.4813 38.0323 40.5524 38.0323C38.6236 38.0323 37.0681 39.5878 37.0681 41.5166C37.0681 43.4455 38.6236 45.001 40.5524 45.001C42.4813 45.001 44.0368 43.4455 44.0368 41.5166ZM50.8111 34.2524C50.8111 32.3313 49.2555 30.768 47.3267 30.768C45.3979 30.768 43.8424 32.3235 43.8424 34.2524C43.8424 36.1812 45.3979 37.7367 47.3267 37.7367C49.2555 37.7367 50.8111 36.1812 50.8111 34.2524ZM57.4842 26.8948C57.4842 24.9738 55.9287 23.4105 53.9998 23.4105C52.071 23.4105 50.5155 24.966 50.5155 26.8948C50.5155 28.8236 52.071 30.3792 53.9998 30.3792C55.9287 30.3792 57.4842 28.8236 57.4842 26.8948ZM63.9162 19.3195C63.9162 17.3984 62.3607 15.8351 60.4319 15.8351C58.5031 15.8351 56.9475 17.3906 56.9475 19.3195C56.9475 21.2483 58.5031 22.8038 60.4319 22.8038C62.3607 22.8038 63.9162 21.2483 63.9162 19.3195ZM70.3405 11.7363C70.3405 9.81528 68.785 8.25199 66.8562 8.25199C64.9273 8.25199 63.3718 9.80751 63.3718 11.7363C63.3718 13.6652 64.9273 15.2207 66.8562 15.2207C68.785 15.2207 70.3405 13.6652 70.3405 11.7363ZM78.1103 5.66207C78.1103 3.74101 76.5548 2.17772 74.6259 2.17772C72.6971 2.17772 71.1416 3.73323 71.1416 5.66207C71.1416 7.5909 72.6971 9.14641 74.6259 9.14641C76.5548 9.14641 78.1103 7.5909 78.1103 5.66207ZM87.7234 3.48435C87.7234 1.56329 86.1678 0 84.239 0C82.3102 0 80.7547 1.55551 80.7547 3.48435C80.7547 5.41318 82.3102 6.9687 84.239 6.9687C86.1678 6.9687 87.7234 5.41318 87.7234 3.48435ZM97.3753 5.51429C97.3753 3.59323 95.8198 2.02994 93.891 2.02994C91.9621 2.02994 90.4066 3.58546 90.4066 5.51429C90.4066 7.44313 91.9621 8.99864 93.891 8.99864C95.8198 8.99864 97.3753 7.44313 97.3753 5.51429ZM105.355 11.3164C105.355 9.3953 103.8 7.83201 101.871 7.83201C99.9419 7.83201 98.3864 9.38752 98.3864 11.3164C98.3864 13.2452 99.9419 14.8007 101.871 14.8007C103.8 14.8007 105.355 13.2452 105.355 11.3164ZM110.107 19.9494C110.107 18.0284 108.552 16.4651 106.623 16.4651C104.694 16.4651 103.138 18.0206 103.138 19.9494C103.138 21.8783 104.694 23.4338 106.623 23.4338C108.552 23.4338 110.107 21.8783 110.107 19.9494ZM110.838 29.7958C110.838 27.8748 109.283 26.3115 107.354 26.3115C105.425 26.3115 103.87 27.867 103.87 29.7958C103.87 31.7247 105.425 33.2802 107.354 33.2802C109.283 33.2802 110.838 31.7247 110.838 29.7958Z" fill="url(#paint0_linear_1264_4860)" style=""/>
<path d="M40.1085 16.9475C40.813 16.9475 41.384 16.3765 41.384 15.672C41.384 14.9676 40.813 14.3965 40.1085 14.3965C39.4041 14.3965 38.833 14.9676 38.833 15.672C38.833 16.3765 39.4041 16.9475 40.1085 16.9475Z" fill="#00AED7" style="fill:#00AED7;fill:color(display-p3 0.0000 0.6824 0.8431);fill-opacity:1;"/>
<path d="M33.5521 12.0713C33.8022 10.7721 32.9519 9.51618 31.6528 9.26601C30.3536 9.01584 29.0977 9.86618 28.8475 11.1653C28.5973 12.4644 29.4477 13.7204 30.7468 13.9706C32.0459 14.2207 33.3019 13.3704 33.5521 12.0713Z" fill="#00AED7" style="fill:#00AED7;fill:color(display-p3 0.0000 0.6824 0.8431);fill-opacity:1;"/>
<path d="M21.513 16.5592C23.3944 16.5592 24.9196 15.0341 24.9196 13.1527C24.9196 11.2713 23.3944 9.74609 21.513 9.74609C19.6316 9.74609 18.1064 11.2713 18.1064 13.1527C18.1064 15.0341 19.6316 16.5592 21.513 16.5592Z" fill="#00AED7" style="fill:#00AED7;fill:color(display-p3 0.0000 0.6824 0.8431);fill-opacity:1;"/>
<path d="M103.978 42.5351C105.903 42.5351 107.463 40.9751 107.463 39.0508C107.463 37.1264 105.903 35.5664 103.978 35.5664C102.054 35.5664 100.494 37.1264 100.494 39.0508C100.494 40.9751 102.054 42.5351 103.978 42.5351Z" fill="#00A33A" style="fill:#00A33A;fill:color(display-p3 0.0000 0.6392 0.2275);fill-opacity:1;"/>
<path d="M96.9629 49.4648C98.8872 49.4648 100.447 47.9048 100.447 45.9804C100.447 44.0561 98.8872 42.4961 96.9629 42.4961C95.0385 42.4961 93.4785 44.0561 93.4785 45.9804C93.4785 47.9048 95.0385 49.4648 96.9629 49.4648Z" fill="#00A33A" style="fill:#00A33A;fill:color(display-p3 0.0000 0.6392 0.2275);fill-opacity:1;"/>
<path d="M87.7154 52.7862C89.571 52.7862 91.0753 51.2819 91.0753 49.4263C91.0753 47.5707 89.571 46.0664 87.7154 46.0664C85.8597 46.0664 84.3555 47.5707 84.3555 49.4263C84.3555 51.2819 85.8597 52.7862 87.7154 52.7862Z" fill="#00A33A" style="fill:#00A33A;fill:color(display-p3 0.0000 0.6392 0.2275);fill-opacity:1;"/>
<path d="M77.884 51.0747C79.1769 51.0747 80.2251 50.0265 80.2251 48.7336C80.2251 47.4407 79.1769 46.3926 77.884 46.3926C76.5911 46.3926 75.543 47.4407 75.543 48.7336C75.543 50.0265 76.5911 51.0747 77.884 51.0747Z" fill="#00A33A" style="fill:#00A33A;fill:color(display-p3 0.0000 0.6392 0.2275);fill-opacity:1;"/>
<path d="M69.2903 45.1334C69.9733 45.1334 70.527 44.5798 70.527 43.8968C70.527 43.2138 69.9733 42.6602 69.2903 42.6602C68.6074 42.6602 68.0537 43.2138 68.0537 43.8968C68.0537 44.5798 68.6074 45.1334 69.2903 45.1334Z" fill="#00A33A" style="fill:#00A33A;fill:color(display-p3 0.0000 0.6392 0.2275);fill-opacity:1;"/>
<path d="M19.2492 97.9351V98.6739H15.5859V92.6074H19.1636V93.3463H16.3792V95.3218H18.8058V96.0684H16.3792V97.9351H19.2492Z" fill="#706F6F" style="fill:#706F6F;fill:color(display-p3 0.4392 0.4353 0.4353);fill-opacity:1;"/>
<path d="M25.8993 92.6074V98.6739H25.1215L22.3216 94.054V98.6739H21.5205V92.6074H22.3138L25.0982 97.2117V92.6074H25.8993Z" fill="#706F6F" style="fill:#706F6F;fill:color(display-p3 0.4392 0.4353 0.4353);fill-opacity:1;"/>
<path d="M28.1543 95.6559C28.1543 93.9293 29.492 92.5371 31.2187 92.5371C32.0197 92.5371 32.7353 92.8482 33.2642 93.3304L32.7119 93.8515C32.3231 93.5093 31.7942 93.276 31.2264 93.276C29.9509 93.276 28.9632 94.3493 28.9632 95.6559C28.9632 96.9625 29.9509 98.0203 31.2264 98.0203C32.2764 98.0203 33.0775 97.4214 33.2019 96.4803C33.2097 96.4337 33.2175 96.387 33.2175 96.3326H31.4598V95.6404H34.1041C34.1041 97.7636 32.9608 98.7669 31.2342 98.7669C29.5076 98.7669 28.1699 97.3747 28.1699 95.6559H28.1543Z" fill="#706F6F" style="fill:#706F6F;fill:color(display-p3 0.4392 0.4353 0.4353);fill-opacity:1;"/>
<path d="M36.1895 92.6074H36.9905V98.6739H36.1895V92.6074Z" fill="#706F6F" style="fill:#706F6F;fill:color(display-p3 0.4392 0.4353 0.4353);fill-opacity:1;"/>
<path d="M44.037 92.6074V98.6739H43.2592L40.4593 94.054V98.6739H39.6582V92.6074H40.4515L43.2359 97.2117V92.6074H44.037Z" fill="#706F6F" style="fill:#706F6F;fill:color(display-p3 0.4392 0.4353 0.4353);fill-opacity:1;"/>
<path d="M50.3673 97.9351V98.6739H46.7041V92.6074H50.2818V93.3463H47.4974V95.3218H49.924V96.0684H47.4974V97.9351H50.3673Z" fill="#706F6F" style="fill:#706F6F;fill:color(display-p3 0.4392 0.4353 0.4353);fill-opacity:1;"/>
<path d="M56.3097 97.9351V98.6739H52.6465V92.6074H56.2242V93.3463H53.4398V95.3218H55.8664V96.0684H53.4398V97.9351H56.3097Z" fill="#706F6F" style="fill:#706F6F;fill:color(display-p3 0.4392 0.4353 0.4353);fill-opacity:1;"/>
<path d="M60.1823 96.3873H59.389V98.6739H58.5879V92.6074H60.8667C62.1889 92.6074 62.6944 93.5563 62.6944 94.4974C62.6944 95.3762 62.2511 96.2551 61.1078 96.3718L62.7178 98.6661H61.7611L60.1745 96.3795L60.1823 96.3873ZM59.389 95.6562H60.6567C61.5434 95.6562 61.9011 95.1896 61.9011 94.5051C61.9011 93.8207 61.5045 93.3541 60.89 93.3541H59.3968V95.664L59.389 95.6562Z" fill="#706F6F" style="fill:#706F6F;fill:color(display-p3 0.4392 0.4353 0.4353);fill-opacity:1;"/>
<path d="M65.0127 92.6074H65.8138V98.6739H65.0127V92.6074Z" fill="#706F6F" style="fill:#706F6F;fill:color(display-p3 0.4392 0.4353 0.4353);fill-opacity:1;"/>
<path d="M72.8602 92.6074V98.6739H72.0825L69.2825 94.054V98.6739H68.4814V92.6074H69.2748L72.0591 97.2117V92.6074H72.8602Z" fill="#706F6F" style="fill:#706F6F;fill:color(display-p3 0.4392 0.4353 0.4353);fill-opacity:1;"/>
<path d="M75.1152 95.6559C75.1152 93.9293 76.453 92.5371 78.1796 92.5371C78.9807 92.5371 79.6962 92.8482 80.2251 93.3304L79.6729 93.8515C79.284 93.5093 78.7551 93.276 78.1874 93.276C76.9118 93.276 75.9241 94.3493 75.9241 95.6559C75.9241 96.9625 76.9118 98.0203 78.1874 98.0203C79.2373 98.0203 80.0384 97.4214 80.1629 96.4803C80.1706 96.4337 80.1784 96.387 80.1784 96.3326H78.4207V95.6404H81.0651C81.0651 97.7636 79.9218 98.7669 78.1951 98.7669C76.4685 98.7669 75.1308 97.3747 75.1308 95.6559H75.1152Z" fill="#706F6F" style="fill:#706F6F;fill:color(display-p3 0.4392 0.4353 0.4353);fill-opacity:1;"/>
<path d="M86.3623 92.6074H87.1634V97.9351H89.6444V98.6739H86.3623V92.6074Z" fill="#706F6F" style="fill:#706F6F;fill:color(display-p3 0.4392 0.4353 0.4353);fill-opacity:1;"/>
<path d="M91.666 92.6074H92.4671V98.6739H91.666V92.6074Z" fill="#706F6F" style="fill:#706F6F;fill:color(display-p3 0.4392 0.4353 0.4353);fill-opacity:1;"/>
<path d="M95.9359 93.3463V95.3218H98.098V96.0684H95.9359V98.6739H95.1348V92.6074H98.6658V93.3463H95.9359Z" fill="#706F6F" style="fill:#706F6F;fill:color(display-p3 0.4392 0.4353 0.4353);fill-opacity:1;"/>
<path d="M104.422 97.9351V98.6739H100.759V92.6074H104.336V93.3463H101.552V95.3218H103.979V96.0684H101.552V97.9351H104.422Z" fill="#706F6F" style="fill:#706F6F;fill:color(display-p3 0.4392 0.4353 0.4353);fill-opacity:1;"/>
<path d="M7.79312 85.1261C2.98658 85.1261 0 82.0229 0 77.0219V72.2465C0 67.1988 2.98658 64.0723 7.79312 64.0723C12.5997 64.0723 15.5473 67.0666 15.5473 72.0754V75.482C15.5473 75.6764 15.3918 75.8319 15.1974 75.8319H3.96656V77.6908C3.96656 80.1252 5.46763 81.6884 7.79312 81.6884C10.1186 81.6884 11.5808 80.3507 11.5808 78.3519V78.033C11.5808 77.8386 11.7363 77.683 11.9308 77.683H15.1974C15.3918 77.683 15.5473 77.8386 15.5473 78.033V78.173C15.5473 82.264 12.3585 85.1261 7.79312 85.1261ZM11.5808 72.7365V71.8576C11.5808 68.9488 10.3442 67.5411 7.79312 67.5411C5.24208 67.5411 3.96656 69.011 3.96656 71.5776V72.7365H11.5808Z" fill="#223574" style="fill:#223574;fill:color(display-p3 0.1333 0.2078 0.4549);fill-opacity:1;"/>
<path d="M19.0629 57.6777H22.3606C22.555 57.6777 22.7106 57.8333 22.7106 58.0277V84.4248C22.7106 84.6192 22.555 84.7748 22.3606 84.7748H19.0629C18.8684 84.7748 18.7129 84.6192 18.7129 84.4248V58.0277C18.7129 57.8333 18.8684 57.6777 19.0629 57.6777Z" fill="#223574" style="fill:#223574;fill:color(display-p3 0.1333 0.2078 0.4549);fill-opacity:1;"/>
<path d="M32.7822 85.095C28.559 85.095 26.0391 82.0773 26.0391 77.0219V72.1065C26.0391 67.0744 28.559 64.0723 32.7822 64.0723C35.271 64.0723 36.9043 65.1845 37.7987 66.25V64.7023C37.7987 64.5078 37.9543 64.3523 38.1487 64.3523H41.2364C41.4309 64.3523 41.5864 64.5078 41.5864 64.7023V84.4261C41.5864 84.6206 41.4309 84.7761 41.2364 84.7761H38.1487C37.9543 84.7761 37.7987 84.6206 37.7987 84.4261V82.9406C36.811 84.1228 35.0766 85.095 32.7822 85.095ZM33.8322 67.51C31.32 67.51 30.0445 69.1977 30.0445 72.5265V76.563C30.0445 79.9385 31.32 81.6496 33.8322 81.6496C36.9665 81.6496 37.6199 78.8807 37.6199 76.563V72.3865C37.6199 69.2443 36.2743 67.51 33.8322 67.51Z" fill="#223574" style="fill:#223574;fill:color(display-p3 0.1333 0.2078 0.4549);fill-opacity:1;"/>
<path d="M52.475 85.1261C47.5595 85.1261 44.5107 82.264 44.5107 77.6519C44.5107 77.4574 44.6663 77.3019 44.8607 77.3019H48.1273C48.3217 77.3019 48.4773 77.4574 48.4773 77.6519C48.4773 80.1718 49.9317 81.6185 52.475 81.6185C54.6605 81.6185 56.1226 80.5451 56.1226 78.9507C56.1226 77.3563 54.186 76.8352 51.9461 76.2442C48.8817 75.4353 45.0707 74.4242 45.0707 70.0065C45.0707 66.2889 47.7851 64.0723 52.335 64.0723C57.2971 64.0723 59.9181 66.5689 59.9181 71.3054C59.9181 71.4998 59.7625 71.6554 59.5681 71.6554H56.4804C56.286 71.6554 56.1304 71.4998 56.1304 71.3054C56.1304 68.661 55.0338 67.5877 52.3428 67.5877C50.8183 67.5877 49.0062 67.9922 49.0062 69.9365C49.0062 71.8809 51.0672 72.3554 53.4549 72.9854C56.426 73.7709 60.1281 74.7509 60.1281 78.9896C60.1281 82.8395 57.2659 85.1339 52.475 85.1339" fill="#223574" style="fill:#223574;fill:color(display-p3 0.1333 0.2078 0.4549);fill-opacity:1;"/>
<path d="M70.1298 85.0554C64.9111 85.0554 63.8611 82.0066 63.8611 77.0912V67.8592H62.2434C62.0489 67.8592 61.8934 67.7037 61.8934 67.517L61.8545 65.0282C61.8545 64.9349 61.8934 64.8415 61.9556 64.7793C62.0178 64.7093 62.1112 64.6782 62.2045 64.6782C64.0011 64.6782 65.1211 64.0249 65.1211 60.7816C65.1211 60.5872 65.2766 60.4316 65.4711 60.4316H67.5088C67.7032 60.4316 67.8588 60.5872 67.8588 60.7816V64.3593H71.8253C72.0198 64.3593 72.1753 64.5149 72.1753 64.7093V67.517C72.1753 67.7114 72.0198 67.867 71.8253 67.867H67.8588V76.6401C67.8588 80.7933 68.0143 81.3222 70.6276 81.3222C71.0009 81.3222 71.4287 81.3066 71.9809 81.2755C71.9809 81.2755 71.9964 81.2755 72.0042 81.2755C72.0975 81.2755 72.1831 81.3066 72.2453 81.3688C72.3153 81.4311 72.3542 81.5244 72.3542 81.6255V84.6121C72.3542 84.791 72.2142 84.9465 72.0353 84.9621C71.3431 85.0321 70.7054 85.071 70.122 85.071" fill="#223574" style="fill:#223574;fill:color(display-p3 0.1333 0.2078 0.4549);fill-opacity:1;"/>
<path d="M75.6986 84.7762C75.5042 84.7762 75.3486 84.6207 75.3486 84.4262V64.7023C75.3486 64.5079 75.5042 64.3523 75.6986 64.3523H78.7863C78.9808 64.3523 79.1363 64.5079 79.1363 64.7023V66.5767C80.1318 65.0134 81.9051 64.0879 84.0673 64.0879C84.2151 64.0879 84.3706 64.0879 84.5262 64.1034C84.7128 64.1112 84.8606 64.2668 84.8606 64.4534V67.72C84.8606 67.8133 84.8217 67.9067 84.7517 67.9767C84.6895 68.0389 84.5962 68.07 84.5106 68.07H84.495C84.3395 68.07 84.1917 68.0622 84.0439 68.0622C80.9096 68.0622 79.323 69.7344 79.323 73.0243V84.434C79.323 84.6284 79.1674 84.784 78.973 84.784H75.7064L75.6986 84.7762Z" fill="#223574" style="fill:#223574;fill:color(display-p3 0.1333 0.2078 0.4549);fill-opacity:1;"/>
<path d="M93.8908 85.1245C89.0142 85.1245 86.0977 82.0523 86.0977 76.9114V72.2448C86.0977 67.2439 89.0842 64.1406 93.8908 64.1406C98.6973 64.1406 101.645 67.2439 101.645 72.2448V76.9114C101.645 81.9746 98.674 85.1245 93.8908 85.1245ZM93.8908 67.8194C91.4564 67.8194 90.0642 69.2894 90.0642 71.856V77.3314C90.0642 79.9446 91.4564 81.4379 93.8908 81.4379C96.3252 81.4379 97.6784 79.9057 97.6784 77.3314V71.856C97.6784 69.3283 96.2629 67.8194 93.8908 67.8194Z" fill="#223574" style="fill:#223574;fill:color(display-p3 0.1333 0.2078 0.4549);fill-opacity:1;"/>
<path d="M116.353 84.7763C116.158 84.7763 116.003 84.6208 116.003 84.4263V72.4955C116.003 69.0267 114.859 67.549 112.176 67.549C109.493 67.549 108.388 68.9412 108.388 72.6744V84.4341C108.388 84.6285 108.233 84.7841 108.038 84.7841H104.772C104.577 84.7841 104.422 84.6285 104.422 84.4341V64.7102C104.422 64.5158 104.577 64.3602 104.772 64.3602H107.86C108.054 64.3602 108.21 64.5158 108.21 64.7102V66.2813C109.197 65.1146 110.947 64.1113 113.226 64.1113C117.465 64.1113 120 67.1057 120 72.1144V84.4341C120 84.6285 119.845 84.7841 119.65 84.7841H116.353V84.7763Z" fill="#223574" style="fill:#223574;fill:color(display-p3 0.1333 0.2078 0.4549);fill-opacity:1;"/>
</g>
<defs>
<linearGradient id="paint0_linear_1264_4860" x1="8.10446" y1="24.6782" x2="110.838" y2="24.6782" gradientUnits="userSpaceOnUse">
<stop stop-color="#00AED7" style="stop-color:#00AED7;stop-color:color(display-p3 0.0000 0.6824 0.8431);stop-opacity:1;"/>
<stop offset="0.23" stop-color="#00AED7" style="stop-color:#00AED7;stop-color:color(display-p3 0.0000 0.6824 0.8431);stop-opacity:1;"/>
<stop offset="0.31" stop-color="#00ADD0" style="stop-color:#00ADD0;stop-color:color(display-p3 0.0000 0.6784 0.8157);stop-opacity:1;"/>
<stop offset="0.42" stop-color="#00ACBC" style="stop-color:#00ACBC;stop-color:color(display-p3 0.0000 0.6745 0.7373);stop-opacity:1;"/>
<stop offset="0.55" stop-color="#00A99D" style="stop-color:#00A99D;stop-color:color(display-p3 0.0000 0.6627 0.6157);stop-opacity:1;"/>
<stop offset="0.7" stop-color="#00A671" style="stop-color:#00A671;stop-color:color(display-p3 0.0000 0.6510 0.4431);stop-opacity:1;"/>
<stop offset="0.86" stop-color="#00A33A" style="stop-color:#00A33A;stop-color:color(display-p3 0.0000 0.6392 0.2275);stop-opacity:1;"/>
<stop offset="0.87" stop-color="#00A33A" style="stop-color:#00A33A;stop-color:color(display-p3 0.0000 0.6392 0.2275);stop-opacity:1;"/>
</linearGradient>
<clipPath id="clip0_1264_4860">
<rect width="120" height="98.7673" fill="white" style="fill:white;fill-opacity:1;"/>
</clipPath>
</defs>
</svg>
