<?xml version="1.0" encoding="utf-8"?>
<!-- Generator: Adobe Illustrator 24.2.0, SVG Export Plug-In . SVG Version: 6.00 Build 0)  -->
<svg version="1.1" id="Ebene_1" xmlns="http://www.w3.org/2000/svg" xmlns:xlink="http://www.w3.org/1999/xlink" x="0px" y="0px"
	 viewBox="0 0 481.9 198.4" style="enable-background:new 0 0 481.9 198.4;" xml:space="preserve">
<style type="text/css">
	.st0{clip-path:url(#SVGID_2_);fill:#98BC39;}
	.st1{clip-path:url(#SVGID_2_);fill:#20201F;}
</style>
<g>
	<defs>
		<rect id="SVGID_1_" x="8.9" y="7.9" width="464.7" height="177.8"/>
	</defs>
	<clipPath id="SVGID_2_">
		<use xlink:href="#SVGID_1_"  style="overflow:visible;"/>
	</clipPath>
	<path class="st0" d="M439.6,120.1h28.9l5.1-23.9h-28.9L439.6,120.1z M388.4,120.1h28.9l5.1-23.9h-28.9L388.4,120.1z M337.1,120.1
		H366l5.1-23.9h-28.9L337.1,120.1z M285.9,120.1h28.9l5.1-23.9H291L285.9,120.1z M150.3,120.1h32.6l12.3-57.8h0.3l33.4,57.8h42.2
		l-39.5-61.8l59.8-50.3h-39.3l-55.9,49.5l10.5-49.5h-32.6L150.3,120.1z M61.2,29.7h20.2c24.1,0,37.9,7.5,32.3,33.9
		c-6.5,30.8-25.9,34.8-52.3,34.8H46.6L61.2,29.7z M9.4,120.1h60c22.8,0,39.5-5.3,50.9-13.5c12.5-9,22.9-23.9,27.1-43.6
		c4.3-20.3-1.4-36.5-13.4-45.7c-9.8-7.5-23.6-9.3-38.4-9.3H33.2L9.4,120.1z"/>
	<path class="st1" d="M446,168.6c0.4-4.9,3.4-9.5,8.8-9.5c5.8,0,8.7,4.1,9.1,9.5H446z M467.6,171.6c0-8.8-3.4-15.7-12.8-15.7
		c-8.3,0-12.5,7.3-12.5,14.9c0,7.7,3.9,14.9,12.3,14.9c6.8,0,11-3.1,12.7-9.8h-3.5c-0.8,3.9-4.1,6.7-8.1,6.7c-6.9,0-9.6-5-9.7-11
		H467.6z M437.1,165.4c-0.3-6-5-9.5-10.8-9.5c-8.3,0-12.5,7.3-12.5,14.9c0,7.7,3.9,14.9,12.3,14.9c6.4,0,10.1-3.2,11-9.6h-3.6
		c-0.3,3.9-3.3,6.6-7.7,6.6c-5.2,0-8.3-5.4-8.3-11.9c0-6.4,3.2-11.8,8.3-11.8c4.6,0,7.4,2.1,7.7,6.4H437.1z M406.4,144.5h-3.9v4.2
		h3.9V144.5z M402.7,184.9h3.4v-28.1h-3.4V184.9z M370.3,156.8l11.5,28.1h3.8l11.1-28.1H393l-9.4,23.5l-9.7-23.5H370.3z M357.5,168
		c0.1-5.4,2.7-9,7.7-9c0.7,0,1.4,0.2,2.1,0.2V156c-1.1-0.1-2.2-0.1-3.4-0.1c-2.8,0.1-5.3,2.1-6.3,5h-0.1l-0.2-4.1h-3.5
		c0.1,1.9,0.3,4.1,0.3,6.3v21.8h3.4V168z M324.8,168.6c0.4-4.9,3.4-9.5,8.8-9.5c5.8,0,8.7,4.1,9.1,9.5H324.8z M346.4,171.6
		c0-8.8-3.4-15.7-12.8-15.7c-8.3,0-12.5,7.3-12.5,14.9c0,7.7,3.9,14.9,12.3,14.9c6.8,0,11-3.1,12.7-9.8h-3.5
		c-0.8,3.9-4.1,6.7-8.1,6.7c-6.9,0-9.6-5-9.7-11H346.4z M314.1,174.3c0-13.9-22.8-8.7-22.8-20.2c0-4.9,5.2-7.1,9.4-7.1
		c4.1,0,8.7,1.3,8.8,6.3h3.9c-0.9-7.8-7.8-9.6-13.2-9.6c-6.4,0-12.9,3.9-12.9,10.9c0,8.7,10,10.8,16.5,13c3.4,1.1,6.3,3,6.3,7.1
		c0,5.2-5.2,7.8-9.7,7.8c-5.4,0-10-1.8-10.1-8h-3.9c0.2,6.7,5.6,11.4,12,11.4C306.6,185.8,314.1,183.1,314.1,174.3 M265.2,171.6
		h14.1v-3.4h-14.1V171.6z M252,184.9v-25h6.4v-3.1H252v-3.6c-0.2-4-0.1-6.3,4.5-6.3c0.7,0,1.4,0.1,2.1,0.2v-2.7
		c-1-0.2-2.1-0.6-3.2-0.6c-4.8,0-6.8,2.2-6.8,7v6h-5.7v3.1h5.7v25H252z M234,184.9v-25h6.4v-3.1H234v-3.6c-0.2-4-0.1-6.3,4.5-6.3
		c0.7,0,1.4,0.1,2.1,0.2v-2.7c-1-0.2-2.1-0.6-3.2-0.6c-4.8,0-6.8,2.2-6.8,7v6H225v3.1h5.7v25H234z M208.4,156
		c-9,0-13.1,7.5-13.1,14.9c0,7.4,4.1,14.9,13.1,14.9c9,0,13.1-7.5,13.1-14.9C221.5,163.5,217.4,156,208.4,156 M217.9,170.9
		c0,5.2-2.7,11.8-9.5,11.8c-6.8,0-9.5-6.6-9.5-11.8c0-5.2,2.7-11.8,9.5-11.8C215.2,159,217.9,165.7,217.9,170.9 M181.7,177.4
		c0,3.8-0.4,8.3,6.7,8.3c1.1,0,2.4-0.2,3.4-0.5v-2.9c-0.9,0.3-1.9,0.3-2.9,0.3c-2.6,0-3.9-1.4-3.9-4v-18.8h6.4v-3.1h-6.4v-7.4
		l-3.4,1.5v6h-5.6v3.1h5.6V177.4z M150,163.8c0,5.2,4.5,6.5,8.9,7.6c4.5,1,8.9,1.7,8.9,5.7c0,3.9-3.8,5.6-7.3,5.6
		c-3.8,0-7.5-1.2-7.8-5.4h-3.6c0.1,6.2,5.7,8.5,10.6,8.5c5.9,0,11.8-2.9,11.8-9.2c0-3-1.8-5.5-4.8-6.6c-7.6-2.7-13-2.3-13-6.4
		c0-3.3,3.2-4.5,6.3-4.5c3.5,0,6.6,1.2,6.9,4.7h3.6c-0.4-5.9-4.9-7.8-10.2-7.8C155.4,156,150,158,150,163.8 M134.2,177.4
		c0,3.8-0.4,8.3,6.7,8.3c1.1,0,2.4-0.2,3.4-0.5v-2.9c-0.9,0.3-1.9,0.3-2.9,0.3c-2.6,0-3.9-1.4-3.9-4v-18.8h6.4v-3.1h-6.4v-7.4
		l-3.4,1.5v6h-5.6v3.1h5.6V177.4z M102.5,163.8c0,5.2,4.5,6.5,8.9,7.6c4.5,1,8.9,1.7,8.9,5.7c0,3.9-3.8,5.6-7.3,5.6
		c-3.8,0-7.5-1.2-7.8-5.4h-3.6c0.1,6.2,5.7,8.5,10.6,8.5c5.9,0,11.8-2.9,11.8-9.2c0-3-1.8-5.5-4.8-6.6c-7.6-2.7-13-2.3-13-6.4
		c0-3.3,3.2-4.5,6.3-4.5c3.5,0,6.6,1.2,6.9,4.7h3.6c-0.4-5.9-4.9-7.8-10.2-7.8C107.9,156,102.5,158,102.5,163.8 M75.5,168.7
		c0-5,2.5-9.7,8.1-9.7c4.6,0,7.4,2.9,7.4,7.7v18.1h3.4v-17.6c0-3.2-0.7-11.4-9.9-11.4c-3.6,0-6.8,1.6-8.8,5.1l-0.1-0.1l-0.2-4.1
		h-3.5c0.1,1.9,0.3,4.1,0.3,6.3v21.8h3.4V168.7z M58.5,173c0,5-2.5,9.7-8.1,9.7c-4.6,0-7.4-2.9-7.4-7.7v-18.1h-3.4v17.6
		c0,3.2,0.7,11.4,9.9,11.4c3.6,0,6.8-1.6,8.8-5.1l0.1,0.1l0.2,4.1h3.5c-0.1-1.9-0.3-4.1-0.3-6.3v-21.8h-3.4V173z M12.5,184.9
		l0.1-21.1l19.4,21.1h5l-20.3-22.2l18.6-18.3h-4.6l-18.1,17.8l-0.1-17.8H8.9v40.4H12.5z"/>
</g>
</svg>
