<?xml version="1.0" encoding="utf-8"?>
<!-- Generator: Adobe Illustrator 28.3.0, SVG Export Plug-In . SVG Version: 6.00 Build 0)  -->
<svg version="1.1" id="katman_1" xmlns="http://www.w3.org/2000/svg" xmlns:xlink="http://www.w3.org/1999/xlink" x="0px" y="0px"
	 viewBox="0 0 886 588" style="enable-background:new 0 0 886 588;" xml:space="preserve">
<style type="text/css">
	.st0{fill:#0054A1;}
	.st1{fill:#575756;}
</style>
<g>
	<path class="st0" d="M804.7,253.44L872.05,215c-53.69-91.9-172.58-123.39-265.58-70.32c-92.98,53.05-124.85,170.57-71.16,262.47
		s172.59,123.39,265.58,70.34c29.56-16.87,54.09-41.12,71.16-70.34l-67.35-38.44c-10.23,17.53-24.96,32.09-42.7,42.21
		c-55.79,31.83-127.13,12.95-159.34-42.21c-32.2-55.14-13.09-125.64,42.7-157.47C701.16,179.4,772.49,198.29,804.7,253.44"/>
	<path class="st0" d="M450.95,503.23v-76.86c-64.42,0-116.65-51.62-116.65-115.29V195.79h116.65v-76.86H334.3V3.64L256.54,80.5
		v230.57C256.54,417.2,343.57,503.23,450.95,503.23"/>
	<path class="st0" d="M198.21,118.93v76.86c-64.42,0-116.65,51.62-116.65,115.29v192.14H3.8V311.08
		C3.8,204.95,90.85,118.93,198.21,118.93"/>
	<path class="st1" d="M40.29,574.94c-1.14,2.06-2.56,3.78-4.26,5.19c-1.71,1.42-3.63,2.46-5.79,3.17c-2.16,0.7-4.46,1.06-6.91,1.06
		c-2.84,0-5.46-0.5-7.84-1.47c-2.39-0.98-4.54-2.39-6.43-4.25c-1.34-1.31-2.35-2.68-3.08-4.14c-0.71-1.46-1.24-3.04-1.57-4.75
		c-0.33-1.69-0.53-3.59-0.57-5.68c-0.06-2.08-0.08-4.4-0.08-6.96c0-2.56,0.03-4.89,0.08-6.96c0.04-2.08,0.24-3.98,0.57-5.68
		c0.33-1.71,0.86-3.29,1.57-4.75c0.72-1.46,1.74-2.83,3.08-4.14c1.89-1.86,4.04-3.28,6.43-4.25c2.38-0.98,5-1.47,7.84-1.47
		c5.04,0,9.27,1.4,12.73,4.22c3.45,2.81,5.67,6.89,6.63,12.28H34.3c-0.65-2.71-1.89-4.93-3.69-6.63c-1.8-1.71-4.23-2.56-7.28-2.56
		c-1.62,0-3.12,0.29-4.48,0.87c-1.38,0.58-2.55,1.36-3.51,2.37c-0.67,0.72-1.21,1.47-1.64,2.3c-0.43,0.83-0.75,1.86-0.99,3.1
		c-0.22,1.22-0.39,2.74-0.49,4.56c-0.11,1.8-0.15,4.06-0.15,6.77c0,2.71,0.04,4.97,0.15,6.78c0.1,1.8,0.26,3.32,0.49,4.56
		c0.24,1.22,0.56,2.26,0.99,3.08c0.43,0.83,0.97,1.6,1.64,2.3c0.96,1,2.13,1.79,3.51,2.37c1.36,0.58,2.87,0.87,4.48,0.87
		c3.05,0,5.49-0.85,7.32-2.56c1.82-1.71,3.06-3.92,3.73-6.62h8.3C42.23,570.53,41.43,572.88,40.29,574.94"/>
	<path class="st1" d="M83.15,557.1c0-2.71-0.04-4.95-0.13-6.74c-0.07-1.78-0.22-3.29-0.45-4.51c-0.24-1.22-0.56-2.26-0.99-3.08
		c-0.43-0.84-0.97-1.6-1.64-2.3c-0.96-1-2.13-1.82-3.52-2.42c-1.39-0.59-2.9-0.89-4.53-0.89c-1.62,0-3.12,0.3-4.51,0.89
		c-1.39,0.61-2.58,1.42-3.54,2.42c-0.65,0.7-1.2,1.46-1.63,2.3c-0.43,0.83-0.77,1.86-0.99,3.08c-0.22,1.22-0.38,2.74-0.46,4.51
		c-0.07,1.79-0.11,4.03-0.11,6.74s0.04,4.95,0.11,6.74c0.08,1.78,0.24,3.29,0.46,4.51c0.22,1.22,0.56,2.26,0.99,3.08
		c0.43,0.84,0.97,1.6,1.63,2.3c0.96,1,2.14,1.82,3.54,2.41c1.39,0.61,2.9,0.91,4.51,0.91c1.63,0,3.13-0.3,4.53-0.91
		c1.39-0.59,2.56-1.4,3.52-2.41c0.67-0.7,1.21-1.46,1.64-2.3c0.43-0.83,0.75-1.86,0.99-3.08c0.22-1.22,0.38-2.74,0.45-4.51
		C83.11,562.05,83.15,559.81,83.15,557.1 M91.45,557.1c0,2.56-0.03,4.89-0.07,6.96c-0.06,2.08-0.24,3.98-0.54,5.68
		c-0.31,1.71-0.81,3.29-1.53,4.75c-0.71,1.46-1.73,2.83-3.05,4.14c-1.88,1.86-4.02,3.28-6.4,4.25c-2.39,0.98-5.04,1.47-7.95,1.47
		c-2.9,0-5.53-0.5-7.89-1.47c-2.37-0.98-4.5-2.39-6.38-4.25c-1.32-1.31-2.34-2.68-3.05-4.14c-0.71-1.46-1.24-3.04-1.57-4.75
		c-0.32-1.71-0.52-3.61-0.57-5.68c-0.04-2.08-0.07-4.4-0.07-6.96s0.03-4.89,0.07-6.96c0.06-2.08,0.25-3.98,0.57-5.68
		c0.33-1.71,0.86-3.29,1.57-4.75c0.71-1.46,1.73-2.83,3.05-4.14c1.88-1.86,4.01-3.28,6.38-4.25c2.37-0.98,5-1.47,7.89-1.47
		c2.91,0,5.56,0.5,7.95,1.47c2.38,0.98,4.53,2.39,6.4,4.25c1.32,1.31,2.34,2.68,3.05,4.14c0.72,1.46,1.23,3.04,1.53,4.75
		c0.31,1.71,0.49,3.61,0.54,5.68C91.42,552.21,91.45,554.54,91.45,557.1"/>
	<path class="st1" d="M141,573.4c-0.99,2.28-2.37,4.22-4.12,5.83c-1.75,1.61-3.83,2.86-6.22,3.77c-2.39,0.89-4.96,1.35-7.71,1.35
		c-2.74,0-5.32-0.45-7.7-1.35c-2.39-0.91-4.46-2.16-6.18-3.77c-1.74-1.61-3.09-3.55-4.09-5.83c-0.99-2.28-1.49-4.8-1.49-7.57v-35.55
		h8.31v35.17c0,3.61,1,6.45,3.04,8.5c2.02,2.06,4.73,3.08,8.12,3.08c3.4,0,6.11-1.02,8.17-3.08c2.05-2.05,3.06-4.9,3.06-8.5v-35.17
		h8.31v35.55C142.49,568.6,141.99,571.11,141,573.4"/>
	<path class="st1" d="M186.23,546.6c0-2.88-0.88-5.09-2.63-6.66c-1.74-1.56-4.05-2.34-6.95-2.34h-11.83v17.92h11.83
		c2.9,0,5.21-0.77,6.95-2.31C185.35,551.67,186.23,549.47,186.23,546.6 M194.53,546.55c0,2.37-0.4,4.53-1.23,6.51
		c-0.81,1.98-1.98,3.69-3.49,5.12c-1.53,1.43-3.36,2.56-5.49,3.4c-2.13,0.83-4.53,1.24-7.17,1.24h-12.34v21.08h-8.31v-53.61h20.62
		c2.65,0,5.04,0.41,7.17,1.24c2.14,0.84,3.97,1.97,5.5,3.4c1.53,1.43,2.7,3.15,3.51,5.15C194.12,542.08,194.53,544.24,194.53,546.55
		"/>
	<polygon class="st1" points="205.19,583.9 205.19,530.29 213.49,530.29 213.49,576.6 239.63,576.6 239.63,583.9 	"/>
	<rect x="249.68" y="530.29" class="st1" width="8.3" height="53.62"/>
	<polygon class="st1" points="306.22,583.9 281.16,546.18 281.16,583.9 272.84,583.9 272.84,530.29 280.39,530.29 305.45,567.94 
		305.45,530.29 313.77,530.29 313.77,583.9 	"/>
	<path class="st1" d="M364.92,571.86c-0.74,2.35-1.99,4.49-3.77,6.4c-2.09,2.16-4.39,3.72-6.88,4.67c-2.49,0.96-5.19,1.43-8.09,1.43
		c-2.85,0-5.47-0.48-7.87-1.46c-2.38-0.99-4.53-2.41-6.4-4.27c-1.32-1.29-2.34-2.68-3.06-4.14c-0.71-1.45-1.23-3.03-1.56-4.73
		c-0.33-1.71-0.52-3.61-0.57-5.68c-0.06-2.09-0.08-4.4-0.08-6.98c0-2.56,0.03-4.87,0.08-6.96c0.06-2.08,0.24-3.98,0.57-5.68
		c0.33-1.71,0.85-3.29,1.56-4.75c0.72-1.45,1.74-2.83,3.06-4.14c1.88-1.84,4.01-3.26,6.38-4.25c2.37-0.98,5-1.46,7.89-1.46
		c2.9,0,5.49,0.44,7.76,1.31c2.26,0.88,4.22,2.08,5.88,3.58c1.66,1.51,2.98,3.28,4,5.27c1.03,2.01,1.74,4.17,2.14,6.48h-8.38
		c-0.71-2.96-2.02-5.26-3.94-6.89c-1.94-1.62-4.41-2.45-7.45-2.45c-1.62,0-3.12,0.3-4.48,0.91c-1.36,0.61-2.52,1.4-3.48,2.41
		c-0.67,0.7-1.21,1.47-1.64,2.3c-0.43,0.83-0.75,1.86-0.99,3.08c-0.22,1.24-0.39,2.74-0.49,4.53c-0.1,1.78-0.15,4.02-0.15,6.73
		c0,2.72,0.06,4.98,0.15,6.78c0.1,1.8,0.26,3.33,0.49,4.56c0.24,1.22,0.56,2.26,0.99,3.08c0.43,0.83,0.97,1.6,1.64,2.3
		c0.96,1,2.12,1.8,3.48,2.38c1.36,0.56,2.87,0.85,4.48,0.85c1.77,0,3.41-0.32,4.94-0.98c1.52-0.65,2.8-1.58,3.87-2.78
		c1-1.16,1.71-2.41,2.12-3.77c0.42-1.35,0.61-2.9,0.61-4.67v-3.01h-11.58v-6.92h19.9v8.2C366.03,566.59,365.66,569.5,364.92,571.86"
		/>
	<polygon class="st1" points="416.31,537.59 416.31,583.9 408.01,583.9 408.01,537.59 393.07,537.59 393.07,530.29 431.25,530.29 
		431.25,537.59 	"/>
	<polygon class="st1" points="441.3,583.9 441.3,530.29 476.04,530.29 476.04,537.6 449.6,537.6 449.6,553.18 472.15,553.18 
		472.15,560.48 449.6,560.48 449.6,576.6 476.04,576.6 476.04,583.9 	"/>
	<path class="st1" d="M522.56,574.94c-1.14,2.06-2.56,3.78-4.26,5.19c-1.71,1.42-3.63,2.46-5.79,3.17c-2.17,0.7-4.46,1.06-6.91,1.06
		c-2.84,0-5.46-0.5-7.84-1.47c-2.39-0.98-4.54-2.39-6.43-4.25c-1.34-1.31-2.35-2.68-3.08-4.14c-0.71-1.46-1.24-3.04-1.57-4.75
		c-0.33-1.69-0.53-3.59-0.57-5.68c-0.06-2.08-0.08-4.4-0.08-6.96c0-2.56,0.03-4.89,0.08-6.96c0.04-2.08,0.24-3.98,0.57-5.68
		c0.33-1.71,0.86-3.29,1.57-4.75c0.72-1.46,1.74-2.83,3.08-4.14c1.89-1.86,4.04-3.28,6.43-4.25c2.38-0.98,5-1.47,7.84-1.47
		c5.04,0,9.27,1.4,12.73,4.22c3.45,2.81,5.67,6.89,6.63,12.28h-8.38c-0.65-2.71-1.88-4.93-3.69-6.63c-1.8-1.71-4.23-2.56-7.28-2.56
		c-1.62,0-3.12,0.29-4.48,0.87c-1.38,0.58-2.55,1.36-3.51,2.37c-0.67,0.72-1.21,1.47-1.64,2.3c-0.43,0.83-0.75,1.86-0.99,3.1
		c-0.22,1.22-0.39,2.74-0.49,4.56c-0.11,1.8-0.15,4.06-0.15,6.77c0,2.71,0.04,4.97,0.15,6.78c0.1,1.8,0.26,3.32,0.49,4.56
		c0.24,1.22,0.56,2.26,0.99,3.08c0.43,0.83,0.97,1.6,1.64,2.3c0.96,1,2.13,1.79,3.51,2.37c1.36,0.58,2.87,0.87,4.48,0.87
		c3.05,0,5.49-0.85,7.32-2.56c1.82-1.71,3.06-3.92,3.73-6.62h8.3C524.51,570.53,523.7,572.88,522.56,574.94"/>
	<polygon class="st1" points="566.86,583.9 566.86,560.48 544.92,560.48 544.92,583.9 536.62,583.9 536.62,530.29 544.92,530.29 
		544.92,553.18 566.86,553.18 566.86,530.29 575.16,530.29 575.16,583.9 	"/>
	<polygon class="st1" points="623.39,583.9 598.33,546.18 598.33,583.9 590.01,583.9 590.01,530.29 597.56,530.29 622.62,567.94 
		622.62,530.29 630.94,530.29 630.94,583.9 	"/>
	<path class="st1" d="M674.58,557.1c0-2.71-0.03-4.95-0.11-6.74c-0.07-1.78-0.22-3.29-0.45-4.51c-0.24-1.22-0.56-2.26-0.99-3.08
		c-0.43-0.84-0.97-1.6-1.64-2.3c-0.96-1-2.13-1.82-3.52-2.42c-1.39-0.59-2.9-0.89-4.53-0.89c-1.62,0-3.12,0.3-4.51,0.89
		c-1.39,0.61-2.58,1.42-3.54,2.42c-0.65,0.7-1.2,1.46-1.63,2.3c-0.43,0.83-0.77,1.86-0.99,3.08c-0.22,1.22-0.38,2.74-0.46,4.51
		c-0.07,1.79-0.11,4.03-0.11,6.74s0.04,4.95,0.11,6.74c0.08,1.78,0.24,3.29,0.46,4.51c0.22,1.22,0.56,2.26,0.99,3.08
		c0.43,0.84,0.97,1.6,1.63,2.3c0.96,1,2.14,1.82,3.54,2.41c1.39,0.61,2.9,0.91,4.51,0.91c1.63,0,3.13-0.3,4.53-0.91
		c1.39-0.59,2.56-1.4,3.52-2.41c0.67-0.7,1.21-1.46,1.64-2.3c0.43-0.83,0.75-1.86,0.99-3.08c0.22-1.22,0.38-2.74,0.45-4.51
		C674.55,562.05,674.58,559.81,674.58,557.1 M682.89,557.1c0,2.56-0.03,4.89-0.08,6.96c-0.04,2.08-0.22,3.98-0.53,5.68
		c-0.31,1.71-0.81,3.29-1.53,4.75c-0.71,1.46-1.73,2.83-3.05,4.14c-1.88,1.86-4.02,3.28-6.4,4.25c-2.39,0.98-5.04,1.47-7.95,1.47
		c-2.9,0-5.53-0.5-7.89-1.47c-2.37-0.98-4.5-2.39-6.38-4.25c-1.32-1.31-2.34-2.68-3.05-4.14c-0.71-1.46-1.24-3.04-1.57-4.75
		c-0.32-1.71-0.52-3.61-0.57-5.68c-0.04-2.08-0.07-4.4-0.07-6.96s0.03-4.89,0.07-6.96c0.06-2.08,0.25-3.98,0.57-5.68
		c0.33-1.71,0.86-3.29,1.57-4.75c0.71-1.46,1.73-2.83,3.05-4.14c1.88-1.86,4.01-3.28,6.38-4.25c2.37-0.98,5-1.47,7.89-1.47
		c2.91,0,5.56,0.5,7.95,1.47c2.38,0.98,4.53,2.39,6.4,4.25c1.32,1.31,2.34,2.68,3.05,4.14c0.72,1.46,1.23,3.04,1.53,4.75
		c0.31,1.71,0.49,3.61,0.53,5.68C682.87,552.21,682.89,554.54,682.89,557.1"/>
	<polygon class="st1" points="695.77,583.9 695.77,530.29 704.07,530.29 704.07,576.6 730.2,576.6 730.2,583.9 	"/>
	<path class="st1" d="M767.08,557.1c0-2.71-0.03-4.95-0.11-6.74c-0.07-1.78-0.22-3.29-0.45-4.51c-0.24-1.22-0.56-2.26-0.99-3.08
		c-0.43-0.84-0.97-1.6-1.64-2.3c-0.96-1-2.13-1.82-3.52-2.42c-1.39-0.59-2.9-0.89-4.53-0.89c-1.62,0-3.12,0.3-4.51,0.89
		c-1.39,0.61-2.58,1.42-3.54,2.42c-0.65,0.7-1.2,1.46-1.63,2.3c-0.43,0.83-0.77,1.86-0.99,3.08c-0.22,1.22-0.38,2.74-0.46,4.51
		c-0.07,1.79-0.11,4.03-0.11,6.74s0.04,4.95,0.11,6.74c0.08,1.78,0.24,3.29,0.46,4.51c0.22,1.22,0.56,2.26,0.99,3.08
		c0.43,0.84,0.97,1.6,1.63,2.3c0.96,1,2.14,1.82,3.54,2.41c1.39,0.61,2.9,0.91,4.51,0.91c1.63,0,3.13-0.3,4.53-0.91
		c1.39-0.59,2.56-1.4,3.52-2.41c0.67-0.7,1.21-1.46,1.64-2.3c0.43-0.83,0.75-1.86,0.99-3.08c0.22-1.22,0.38-2.74,0.45-4.51
		C767.05,562.05,767.08,559.81,767.08,557.1 M775.39,557.1c0,2.56-0.03,4.89-0.08,6.96c-0.04,2.08-0.22,3.98-0.53,5.68
		c-0.31,1.71-0.82,3.29-1.53,4.75s-1.73,2.83-3.05,4.14c-1.88,1.86-4.02,3.28-6.4,4.25c-2.39,0.98-5.04,1.47-7.95,1.47
		c-2.9,0-5.53-0.5-7.89-1.47c-2.37-0.98-4.5-2.39-6.38-4.25c-1.32-1.31-2.34-2.68-3.05-4.14c-0.71-1.46-1.24-3.04-1.57-4.75
		c-0.32-1.71-0.52-3.61-0.57-5.68c-0.04-2.08-0.07-4.4-0.07-6.96s0.03-4.89,0.07-6.96c0.06-2.08,0.25-3.98,0.57-5.68
		c0.33-1.71,0.86-3.29,1.57-4.75c0.71-1.46,1.73-2.83,3.05-4.14c1.88-1.86,4.01-3.28,6.38-4.25c2.37-0.98,5-1.47,7.89-1.47
		c2.91,0,5.56,0.5,7.95,1.47c2.38,0.98,4.53,2.39,6.4,4.25c1.32,1.31,2.34,2.68,3.05,4.14s1.23,3.04,1.53,4.75
		c0.31,1.71,0.49,3.61,0.53,5.68C775.36,552.21,775.39,554.54,775.39,557.1"/>
	<path class="st1" d="M824.57,571.86c-0.74,2.35-2,4.49-3.77,6.4c-2.09,2.16-4.39,3.72-6.88,4.67c-2.49,0.96-5.19,1.43-8.09,1.43
		c-2.85,0-5.47-0.48-7.87-1.46c-2.39-0.99-4.53-2.41-6.4-4.27c-1.32-1.29-2.34-2.68-3.06-4.14c-0.71-1.45-1.23-3.03-1.56-4.73
		c-0.33-1.71-0.53-3.61-0.57-5.68c-0.06-2.09-0.08-4.4-0.08-6.98c0-2.56,0.03-4.87,0.08-6.96c0.04-2.08,0.24-3.98,0.57-5.68
		c0.33-1.71,0.85-3.29,1.56-4.75c0.72-1.45,1.74-2.83,3.06-4.14c1.88-1.84,4.01-3.26,6.36-4.25c2.38-0.98,5.01-1.46,7.91-1.46
		c2.9,0,5.49,0.44,7.74,1.31c2.27,0.88,4.23,2.08,5.89,3.58c1.64,1.51,2.98,3.28,4,5.27c1.03,2.01,1.74,4.17,2.14,6.48h-8.38
		c-0.71-2.96-2.02-5.26-3.95-6.89c-1.92-1.62-4.4-2.45-7.44-2.45c-1.62,0-3.12,0.3-4.48,0.91c-1.36,0.61-2.52,1.4-3.48,2.41
		c-0.67,0.7-1.21,1.47-1.64,2.3c-0.43,0.83-0.75,1.86-0.99,3.08c-0.22,1.24-0.39,2.74-0.49,4.53c-0.1,1.78-0.15,4.02-0.15,6.73
		c0,2.72,0.06,4.98,0.15,6.78c0.1,1.8,0.26,3.33,0.49,4.56c0.24,1.22,0.56,2.26,0.99,3.08c0.43,0.83,0.97,1.6,1.64,2.3
		c0.96,1,2.12,1.8,3.48,2.38c1.36,0.56,2.87,0.85,4.48,0.85c1.77,0,3.41-0.32,4.94-0.98c1.52-0.65,2.8-1.58,3.87-2.78
		c1-1.16,1.71-2.41,2.12-3.77c0.4-1.35,0.61-2.9,0.61-4.67v-3.01h-11.58v-6.92h19.88v8.2C825.67,566.59,825.3,569.5,824.57,571.86"
		/>
	<polygon class="st1" points="855.54,561.84 855.54,583.9 847.24,583.9 847.24,561.84 831,530.29 840,530.29 851.39,553.86 
		862.78,530.29 871.77,530.29 	"/>
	<path class="st0" d="M843.2,77.84h6.08c2.5,0,4.23,0.15,5.19,0.47c0.96,0.32,1.76,0.86,2.37,1.61c0.61,0.77,0.91,1.67,0.91,2.68
		c0,1.62-0.6,2.84-1.82,3.66c-1.21,0.82-3.28,1.23-6.21,1.23h-6.53V77.84z M843.2,105.6V91.94h3.19c1.89,0,3.36,0.4,4.39,1.2
		c1.36,1.07,3.17,3.54,5.44,7.41l2.98,5.06h6.48l-3.97-6.29c-1.78-2.8-3.38-4.88-4.77-6.25c-0.74-0.72-1.71-1.33-2.94-1.83
		c2.76-0.21,5.02-1.15,6.8-2.82c1.76-1.67,2.64-3.75,2.64-6.22c0-1.78-0.55-3.39-1.64-4.82c-1.1-1.42-2.48-2.42-4.14-3
		c-1.67-0.58-4.46-0.87-8.38-0.87h-11.46v32.1H843.2z M869.04,71.06c5.38,4.9,8.07,10.92,8.07,18.06c0,6.64-2.36,12.34-7.07,17.11
		c-5.12,5.16-11.33,7.74-18.65,7.74c-6.78,0-12.67-2.26-17.66-6.8c-5.38-4.89-8.07-10.92-8.07-18.05c0-6.64,2.36-12.35,7.08-17.15
		c5.08-5.16,11.3-7.75,18.64-7.75C858.16,64.22,864.05,66.5,869.04,71.06z M836.4,63.02c-4.73,2.49-8.57,6.06-11.5,10.73
		c-2.93,4.66-4.38,9.78-4.38,15.37c0,7.98,2.95,14.94,8.87,20.89c5.92,5.93,13.24,8.9,21.99,8.9c5.26,0,10.25-1.24,14.98-3.74
		c4.74-2.48,8.57-6.06,11.49-10.72c2.93-4.66,4.39-9.77,4.39-15.33c0-7.98-2.97-14.95-8.88-20.9c-5.92-5.95-13.25-8.93-21.99-8.93
		C846.14,59.29,841.13,60.53,836.4,63.02z"/>
</g>
</svg>
