<?xml version="1.0" encoding="UTF-8"?>
<svg width="182px" height="52px" viewBox="0 0 182 52" version="1.1" xmlns="http://www.w3.org/2000/svg" xmlns:xlink="http://www.w3.org/1999/xlink">
    <title>Group 17</title>
    <defs>
        <linearGradient x1="50%" y1="0%" x2="50%" y2="100%" id="linearGradient-1">
            <stop stop-color="#3E3E3B" offset="0%"></stop>
            <stop stop-color="#1D1D1B" offset="100%"></stop>
        </linearGradient>
        <polygon id="path-2" points="0 0 35.4466367 0 35.4466367 35.4214919 0 35.4214919"></polygon>
        <polygon id="path-4" points="0 0 7.36403629 0 7.36403629 7.35876989 0 7.35876989"></polygon>
    </defs>
    <g id="Design" stroke="none" stroke-width="1" fill="none" fill-rule="evenodd">
        <g id="illustrations-schemas" transform="translate(-162.000000, -54.000000)">
            <g id="Group-5" transform="translate(162.112500, 6.500000)">
                <g id="Group-17" transform="translate(0.000000, 47.499598)">
                    <path d="M121.772829,34.3800918 C121.772829,28.3609114 117.044706,23.9965179 111.256346,23.9965179 C104.526422,23.9965179 99.0940768,29.7800804 94.6040774,34.3824324 C99.2104062,38.6290168 104.072035,44.3470432 110.9097,44.6723832 C116.876067,44.956373 121.772829,39.9233551 121.772829,34.3800918 M85.1626649,34.3824324 C80.5578976,30.1311668 75.7118836,23.9965179 68.8656299,23.9965179 C62.9632832,23.9965179 58.4732838,28.8337076 58.4732838,34.3824324 C58.4732838,40.3969316 62.7220365,44.7636656 68.5103961,44.7636656 C75.2403205,44.7636656 80.6726655,38.9801032 85.1626649,34.3824324 M89.8837615,39.2204023 C83.8650855,45.2349015 77.8698315,51.9999454 68.3035017,51.9999454 C58.3811572,51.9999454 51.3280091,42.5089111 51.0406991,34.3824324 C50.7104487,25.0638204 58.6091314,16.5815742 68.9921088,16.5815742 C77.7324224,16.5815742 84.2203194,23.8763684 89.8837615,29.5397813 C95.9024375,23.525282 101.975765,16.3966688 111.538191,16.6689557 C121.772829,16.9607475 128.556624,24.1946867 128.556624,34.3457633 C128.556624,43.6651554 121.157611,51.9281677 110.764484,51.9281677 C102.024951,51.9281677 95.5565725,44.8838152 89.8837615,39.2204023" id="Fill-1" fill="url(#linearGradient-1)" opacity="0.201543899"></path>
                    <polygon id="Fill-3" fill="#1D1D1B" points="46.8583087 0 39.484279 7.36813219 39.484279 51.9997893 46.8583087 51.9997893"></polygon>
                    <g id="Group-16" transform="translate(0.000000, 16.577985)">
                        <path d="M68.6951177,27.9849369 C70.1137108,27.9849369 71.4581342,27.7110895 72.733853,27.1688562 C74.0087912,26.627403 75.1104064,25.8948028 76.0332336,24.972616 C76.9505957,24.0527698 77.6837046,22.9659625 78.2317797,21.7153149 C78.7736088,20.4638871 79.0453042,19.1289788 79.0453042,17.7113701 C79.0453042,16.2929813 78.7736088,14.9494908 78.2317797,13.6723167 C77.6837046,12.3982634 76.9505957,11.2997532 76.0332336,10.3775664 C75.1104064,9.45772013 74.0087912,8.72590013 72.733853,8.18444696 C71.4581342,7.63909283 70.1137108,7.36836625 68.6951177,7.36836625 C67.2757438,7.36836625 65.9313204,7.63909283 64.6501364,8.18444696 C63.3759791,8.72590013 62.268118,9.45772013 61.3218687,10.3775664 C60.3756195,11.2997532 59.6315803,12.3982634 59.0889704,13.6723167 C58.5471412,14.9494908 58.2754459,16.2929813 58.2754459,17.7113701 C58.2754459,19.1289788 58.5471412,20.4638871 59.0889704,21.7153149 C59.6315803,22.9659625 60.3756195,24.0527698 61.3218687,24.972616 C62.268118,25.8948028 63.3759791,26.627403 64.6501364,27.1688562 C65.9313204,27.7110895 67.2757438,27.9849369 68.6951177,27.9849369 M68.6951177,0.000234057566 C71.106804,0.000234057566 73.3857657,0.461327463 75.5374677,1.3811737 C77.6837046,2.30336051 79.5644921,3.56571099 81.1735842,5.17134589 C82.7779919,6.7769808 84.05293,8.65412248 84.9991793,10.8043313 C85.9454285,12.9545402 86.4177724,15.255326 86.4177724,17.7113701 C86.4177724,20.166634 85.9454285,22.4705406 84.9991793,24.6184089 C84.05293,26.7678375 82.7779919,28.6332764 81.1735842,30.2162857 C79.5644921,31.7985148 77.6837046,33.0499426 75.5374677,33.9690087 C73.3857657,34.8919757 71.106804,35.3499483 68.6951177,35.3499483 C66.237368,35.3499483 63.9295192,34.8919757 61.7832823,33.9690087 C59.6315803,33.0499426 57.7617231,31.7985148 56.1815181,30.2162857 C54.5942865,28.6332764 53.3490163,26.7678375 52.4254083,24.6184089 C51.5025811,22.4705406 51.0411675,20.166634 51.0411675,17.7113701 C51.0411675,15.255326 51.5025811,12.9545402 52.4254083,10.8043313 C53.3490163,8.65412248 54.5942865,6.7769808 56.1815181,5.17134589 C57.7617231,3.56571099 59.6315803,2.30336051 61.7832823,1.3811737 C63.9295192,0.461327463 66.237368,0.000234057566 68.6951177,0.000234057566" id="Fill-4" fill="#1D1D1B"></path>
                        <g id="Group-8" transform="translate(0.000000, 0.000156)">
                            <mask id="mask-3" fill="white">
                                <use xlink:href="#path-2"></use>
                            </mask>
                            <g id="Clip-7"></g>
                            <path d="M27.2255109,21.7150808 C26.6774359,22.9665086 25.944327,24.0525357 25.0277456,24.972382 C24.1041377,25.8945688 23.0025224,26.6271689 21.7268036,27.1686221 C20.4518655,27.7108555 19.1082228,27.9847028 17.6888489,27.9847028 C16.2694751,27.9847028 14.9250517,27.7108555 13.6438677,27.1686221 C13.0341147,26.9095984 12.4641791,26.6037632 11.9301573,26.2565778 C11.3891088,25.8891074 10.8855356,25.472485 10.4194376,25.0067104 C9.47318835,24.0642386 8.72914915,22.9665086 8.18653923,21.7150808 C7.64471005,20.463653 7.37301473,19.1295249 7.37301473,17.7111361 C7.37301473,16.2467159 7.64471005,14.8774791 8.18653923,13.6034258 C8.71821887,12.3527782 9.44586267,11.2644105 10.3632248,10.3352019 C11.3001052,9.43642089 12.3900094,8.71708397 13.6438677,8.18421291 C14.9250517,7.63885878 16.2694751,7.36813219 17.6888489,7.36813219 C19.1082228,7.36813219 20.4518655,7.63885878 21.7268036,8.18421291 C23.0025224,8.72566608 24.1041377,9.45826626 25.0277456,10.3773323 C25.944327,11.2995191 26.6774359,12.3980293 27.2255109,13.6720826 C27.7673401,14.9492568 28.0390355,16.2927472 28.0390355,17.7111361 C28.0390355,19.1295249 27.7673401,20.463653 27.2255109,21.7150808 M34.0623959,10.8040973 C33.144253,8.65388842 31.8755608,6.77752693 30.2711531,5.17111183 C28.6620609,3.56547693 26.7867386,2.30312645 24.6350366,1.38093964 C22.4833345,0.461093406 20.1817316,0 17.7232012,0 C17.7169554,0 17.7114902,0.000780191888 17.7060251,0.000780191888 C17.70056,0.000780191888 17.6943141,0 17.6888489,0 C15.2310993,0 12.9232505,0.461093406 10.7770136,1.38093964 C8.62531157,2.30312645 6.75545438,3.56547693 5.1752494,5.17111183 C3.56537653,6.77752693 2.30214943,8.65388842 1.37932221,10.8040973 C0.461960123,12.9543061 -0.000234220106,15.255092 -0.000234220106,17.7111361 C-0.000234220106,20.1211488 0.461960123,22.3977487 1.37932221,24.5487378 C1.61510378,25.0979928 1.8750881,25.6293035 2.15693296,26.1442302 C2.97436113,27.6632638 3.97682319,29.0207977 5.1752494,30.2160516 C6.36586827,31.4081848 7.72122195,32.4107314 9.23662604,33.2268121 C9.74410294,33.506901 10.268756,33.7659247 10.8121466,34.0031031 C12.9583835,34.9486956 15.2662323,35.4214919 17.7232012,35.4214919 C18.4328882,35.4214919 19.852262,35.2576516 21.9750769,34.9260701 L21.948532,34.816063 C22.8268574,34.5968291 23.6919103,34.3284431 24.531199,33.9695548 C25.8108215,33.4202997 26.9834835,32.7399724 28.0733877,31.9558795 L28.0733877,35.4214919 L35.4466367,35.4214919 L35.4466367,17.7111361 C35.4466367,15.255092 34.9844423,12.9543061 34.0623959,10.8040973" id="Fill-6" fill="#1D1D1B" mask="url(#mask-3)"></path>
                        </g>
                        <path d="M111.280939,7.36813219 C110.052065,7.36813219 108.941861,7.53509326 107.948768,7.86433423 L107.948768,0.288670999 C108.517923,0.190366821 109.071463,0.120929743 109.616415,0.0748984213 C110.159025,0.0288670999 110.712565,0 111.280939,0 C114.257877,0 116.952189,0.628834662 119.363875,1.87948226 C121.772439,3.13091005 123.783609,4.84265105 125.389578,7.01626565 C127.042391,4.84265105 129.099624,3.13091005 131.557374,1.87948226 C134.015124,0.628834662 136.660249,0 139.495874,0 C140.158717,0 140.808287,0.0405699782 141.446147,0.110007056 C142.083226,0.178663942 142.735138,0.265265242 143.395639,0.357327885 L143.395639,8.00788954 C142.827265,7.81830291 142.21595,7.66772588 141.552327,7.54679613 C140.891826,7.43210793 140.205561,7.36813219 139.495874,7.36813219 C138.079623,7.36813219 136.743788,7.64432012 135.492272,8.18655348 C134.239975,8.72878684 133.140702,9.47230971 132.194453,10.4179023 C131.248203,11.3634949 130.504164,12.4588843 129.962335,13.7095319 C129.419725,14.9609596 129.145688,16.2982085 129.145688,17.7111361 C129.145688,19.1295249 129.419725,20.4667738 129.962335,21.7182016 C130.504164,22.9688492 131.248203,24.0642386 132.194453,25.0098312 C133.140702,25.9554237 134.239975,26.6989466 135.492272,27.24118 C136.743788,27.7834133 138.079623,28.0596013 139.495874,28.0596013 C140.205561,28.0596013 140.891826,27.9964057 141.552327,27.8809373 C142.21595,27.7600076 142.827265,27.6102107 143.395639,27.4198439 L143.395639,35.0704056 C142.735138,35.1679295 142.083226,35.2490695 141.446147,35.3185066 C140.808287,35.3879437 140.158717,35.4222721 139.495874,35.4222721 C136.660249,35.4222721 134.015124,34.799679 131.557374,33.5482512 C129.099624,32.2976036 127.042391,30.5850824 125.389578,28.4114678 C123.783609,30.5850824 121.772439,32.2976036 119.363875,33.5482512 C116.952189,34.799679 114.257877,35.4222721 111.280939,35.4222721 C110.712565,35.4222721 110.159025,35.3879437 109.616415,35.3185066 C109.071463,35.2490695 108.517923,35.1679295 107.948768,35.0704056 L107.948768,27.5579379 C108.941861,27.8926402 110.052065,28.0596013 111.280939,28.0596013 C112.746376,28.0596013 114.116564,27.7834133 115.392283,27.24118 C116.669563,26.6989466 117.779767,25.9554237 118.726016,25.0098312 C119.669142,24.0642386 120.416304,22.9688492 120.958914,21.7182016 C121.501524,20.4667738 121.772439,19.1295249 121.772439,17.7111361 C121.772439,16.2982085 121.501524,14.9609596 120.958914,13.7095319 C120.416304,12.4588843 119.669142,11.3634949 118.726016,10.4179023 C117.779767,9.47230971 116.669563,8.72878684 115.392283,8.18655348 C114.116564,7.64432012 112.746376,7.36813219 111.280939,7.36813219" id="Fill-9" fill="#1D1D1B"></path>
                        <path d="M172.191127,31.7430432 C172.191127,30.2692607 172.846163,28.9507364 173.878293,28.0535158 L165.997567,28.0535158 L163.475797,28.0535158 C162.057204,28.0535158 160.723711,27.7827892 159.472195,27.2382152 C158.214433,26.6959819 157.117502,25.952459 156.171253,25.0068664 C155.225784,24.0643946 154.480964,22.9658845 153.939135,21.7152369 C153.397306,20.4638091 153.125611,19.1296809 153.125611,17.7112921 C153.125611,16.2468719 153.397306,14.8776352 153.939135,13.6035818 C154.480964,12.3264077 155.225784,11.2161946 156.171253,10.2737228 C157.117502,9.32891044 158.214433,8.58460738 159.472195,8.04003345 C160.723711,7.49780008 162.057204,7.2270735 163.475797,7.2270735 C164.89439,7.2270735 166.227103,7.49780008 167.479399,8.04003345 C168.730915,8.58460738 169.833311,9.32891044 170.779561,10.2737228 C171.719564,11.2161946 172.464384,12.3264077 173.012459,13.6035818 C173.071795,13.7416758 173.114735,13.8860113 173.167044,14.027226 L164.493874,14.027226 L164.493874,21.3953582 L177.309617,21.3953582 L177.51495,21.3953582 C179.53627,21.3953582 181.199232,19.7585156 181.199232,17.739379 L181.199232,17.7112921 C181.199232,15.255248 180.737038,12.9544621 179.814992,10.8042533 C178.896849,8.65404446 177.628157,6.77690278 176.023749,5.17126787 C174.414657,3.56563297 172.539334,2.30328249 170.386852,1.38109568 C168.23593,0.461249444 165.933547,0.000156038378 163.475797,0.000156038378 C161.018047,0.000156038378 158.710199,0.461249444 156.563962,1.38109568 C154.41226,2.30328249 152.531472,3.56563297 150.927845,5.17126787 C149.317972,6.77690278 148.054745,8.65404446 147.131137,10.8042533 C146.214556,12.9544621 145.752362,15.255248 145.752362,17.7112921 C145.752362,20.1213048 146.214556,22.3979048 147.131137,24.5488938 C148.054745,26.6959819 149.317972,28.5754641 150.927845,30.1787585 C152.531472,31.7875141 154.41226,33.0607873 156.563962,34.0032591 C158.516577,34.8638108 160.604259,35.3288051 162.815296,35.4060441 L162.817639,35.421648 L163.475797,35.421648 L173.866582,35.421648 C172.841478,34.5252075 172.191127,33.2113643 172.191127,31.7430432" id="Fill-11" fill="#1D1D1B"></path>
                        <g id="Group-15" transform="translate(173.855964, 28.064048)">
                            <mask id="mask-5" fill="white">
                                <use xlink:href="#path-4"></use>
                            </mask>
                            <g id="Clip-14"></g>
                            <path d="M7.36466088,3.67938494 C7.36466088,5.71100462 5.71575133,7.35876989 3.68194007,7.35876989 C1.64890955,7.35876989 0,5.71100462 0,3.67938494 C0,1.64698508 1.64890955,0 3.68194007,0 C5.71575133,0 7.36466088,1.64698508 7.36466088,3.67938494" id="Fill-13" fill="#1D1D1B" mask="url(#mask-5)"></path>
                        </g>
                    </g>
                </g>
            </g>
        </g>
    </g>
</svg>