<svg xmlns="http://www.w3.org/2000/svg" width="500" height="104.771">
    <path d="M56.8 0H0v52.386Z"/>
    <path fill="#2ec8f4" d="M56.8 0 0 52.386v52.386L113.546 0Z"/>
    <path fill="#00a0e3" d="m284.902 82.017 14.772-59.264h-26.149l-14.816 59.264Z"/>
    <path fill="#00a0e3" d="M239.748 22.709h-29.765l-33.689 59.264h17.33l5.6-9.877h24.032l1.808 9.877h25.575l-10.847-59.264Zm-26.061 34.35h-6l9.7-17.109 3.135 17.109Z"/>
    <path fill="#00a0e3" d="m404.533 82.017 14.772-59.264h-26.193L378.34 82.017Z"/>
    <path fill="#00a0e3" d="m327.277 61.557-5.115 20.46h-25.046l14.82-59.264h25.09l-4.895 19.358 22.442-19.358h26.854l-32.94 28.221 22.449 31.043h-30.3Z"/>
    <path fill="#00a0e3" d="M154.423 22.753h-39.554l-14.772 59.22h45.418c18.123 0 35.938-13.449 35.938-34.13 0-24.296-27.03-25.09-27.03-25.09Zm1.323 26.9s-1.676 19.27-18.123 19.27h-9.26l8.158-31.969h8.422c3.042-.002 11.729.792 10.803 12.697Z"/>
    <path fill="#00a0e3" d="m417.585 82.018 14.772-59.309h29.147l11.6 34.924 8.728-34.924h18.167l-14.814 59.309h-29.016l-11.684-35.233-8.819 35.232Z"/>
</svg>