<svg xmlns="http://www.w3.org/2000/svg" width="255" height="30.992" viewBox="0 0 255 30.992"><defs><style>.a{fill:#fff;}</style></defs><g transform="translate(-405 -70.883)"><g transform="translate(405 70.883)"><path class="a" d="M82.234-1.176H99.95q4.43,0,6.336,2.194A5.952,5.952,0,0,1,107.5,6.45a8.654,8.654,0,0,1-2.685,4.66,9.916,9.916,0,0,1-3.737,2.049,6.534,6.534,0,0,1,4.28,2.727,6.606,6.606,0,0,1,.523,4.857,10.212,10.212,0,0,1-2.019,4.284,11.124,11.124,0,0,1-3.669,3.008,11.779,11.779,0,0,1-3.808,1,43.228,43.228,0,0,1-4.33.418H75.722ZM86.67,22.875H91.5a6.174,6.174,0,0,0,3.633-.867,3.758,3.758,0,0,0,1.5-2.327A2.246,2.246,0,0,0,96.1,17.5q-.817-.825-3.3-.825h-4.8Zm2.558-12.036h4.116a5.487,5.487,0,0,0,3.243-.762,3.542,3.542,0,0,0,1.337-2.2,2.213,2.213,0,0,0-.424-2.09,3.988,3.988,0,0,0-2.863-.753H90.463Z" transform="translate(-75.722 1.176)"/><path class="a" d="M147.933-1.176H173.3l-1.389,6.54H156.029l-1.036,4.871h14.732L168.4,16.482H153.666l-1.283,6.038h16.339l-1.475,6.937H141.422Z" transform="translate(-106.891 1.176)"/><path class="a" d="M209.246-1.176h8.837l7.932,16.948,3.6-16.948h8.922l-6.512,30.633H223.1l-7.9-16.822-3.579,16.822h-8.9Z" transform="translate(-135.975 1.176)"/></g><g transform="translate(517.746 80.248)"><path class="a" d="M290.238,38.234v-20.9H293V27.7L303.383,17.33h3.75l-8.769,8.47,9.154,12.433h-3.651l-7.442-10.58L293,30.989v7.243Z" transform="translate(-290.238 -16.969)"/><path class="a" d="M336.755,43.435V41.211a5.54,5.54,0,0,1-4.8,2.567,6.12,6.12,0,0,1-2.5-.512,4.118,4.118,0,0,1-1.725-1.291,4.827,4.827,0,0,1-.792-1.9,12.951,12.951,0,0,1-.157-2.4V28.293h2.567v8.4a14.94,14.94,0,0,0,.157,2.71,2.672,2.672,0,0,0,1.027,1.589,3.188,3.188,0,0,0,1.94.578,4.24,4.24,0,0,0,2.168-.591,3.3,3.3,0,0,0,1.432-1.61,8.1,8.1,0,0,0,.42-2.959V28.293h2.567V43.435Z" transform="translate(-307.568 -22.17)"/><path class="a" d="M357.789,43.122V27.981h2.31v2.153a5.445,5.445,0,0,1,4.819-2.5,6.322,6.322,0,0,1,2.517.491,3.953,3.953,0,0,1,1.717,1.291,4.955,4.955,0,0,1,.8,1.9,14.85,14.85,0,0,1,.142,2.5v9.311h-2.567V33.912a6.957,6.957,0,0,0-.3-2.345,2.471,2.471,0,0,0-1.063-1.241,3.369,3.369,0,0,0-1.79-.463,4.158,4.158,0,0,0-2.831,1.041q-1.189,1.041-1.19,3.949v8.27Z" transform="translate(-322.285 -21.856)"/><path class="a" d="M386.735,38.614l2.539-.4a3.539,3.539,0,0,0,1.191,2.337,4.147,4.147,0,0,0,2.73.813,4.007,4.007,0,0,0,2.623-.716,2.147,2.147,0,0,0,.856-1.69,1.559,1.559,0,0,0-.756-1.367,11.115,11.115,0,0,0-2.623-.87,23.967,23.967,0,0,1-3.915-1.233,3.737,3.737,0,0,1-2.217-3.473,3.916,3.916,0,0,1,.463-1.879,4.167,4.167,0,0,1,1.262-1.432,5.311,5.311,0,0,1,1.633-.75,7.8,7.8,0,0,1,2.218-.306,8.769,8.769,0,0,1,3.132.513,4.25,4.25,0,0,1,1.989,1.39,5.416,5.416,0,0,1,.884,2.346l-2.51.342a2.738,2.738,0,0,0-.99-1.825,3.628,3.628,0,0,0-2.317-.656,4.194,4.194,0,0,0-2.523.584,1.7,1.7,0,0,0-.756,1.368,1.423,1.423,0,0,0,.314.9,2.267,2.267,0,0,0,.984.684q.383.142,2.265.655a31.392,31.392,0,0,1,3.8,1.191,3.857,3.857,0,0,1,1.69,1.347,3.755,3.755,0,0,1,.614,2.2,4.317,4.317,0,0,1-.748,2.416,4.836,4.836,0,0,1-2.161,1.754,7.848,7.848,0,0,1-3.194.621,7.115,7.115,0,0,1-4.5-1.226A5.709,5.709,0,0,1,386.735,38.614Z" transform="translate(-336.018 -21.863)"/><path class="a" d="M420.8,36.364l.371,2.266a9.444,9.444,0,0,1-1.939.228,4.395,4.395,0,0,1-2.167-.442,2.494,2.494,0,0,1-1.084-1.163,9.236,9.236,0,0,1-.313-3.029v-8.71h-1.879v-2h1.879V19.767l2.554-1.539v5.29h2.58v2h-2.58v8.858a4.479,4.479,0,0,0,.134,1.411,1.075,1.075,0,0,0,.447.5,1.708,1.708,0,0,0,.877.184A8.268,8.268,0,0,0,420.8,36.364Z" transform="translate(-348.852 -17.395)"/><path class="a" d="M429.949,38.614l2.539-.4a3.548,3.548,0,0,0,1.191,2.337,4.147,4.147,0,0,0,2.73.813,4.017,4.017,0,0,0,2.625-.716,2.157,2.157,0,0,0,.856-1.69,1.561,1.561,0,0,0-.755-1.367,11.166,11.166,0,0,0-2.625-.87,23.887,23.887,0,0,1-3.913-1.233,3.741,3.741,0,0,1-2.218-3.473,3.905,3.905,0,0,1,.465-1.879,4.145,4.145,0,0,1,1.261-1.432,5.311,5.311,0,0,1,1.633-.75,7.794,7.794,0,0,1,2.217-.306,8.741,8.741,0,0,1,3.131.513,4.258,4.258,0,0,1,1.99,1.39,5.431,5.431,0,0,1,.885,2.346l-2.51.342a2.746,2.746,0,0,0-.991-1.825,3.627,3.627,0,0,0-2.316-.656,4.2,4.2,0,0,0-2.525.584,1.7,1.7,0,0,0-.755,1.368,1.42,1.42,0,0,0,.313.9,2.281,2.281,0,0,0,.984.684q.384.142,2.267.655a31.512,31.512,0,0,1,3.8,1.191,3.858,3.858,0,0,1,1.689,1.347,3.762,3.762,0,0,1,.613,2.2,4.306,4.306,0,0,1-.748,2.416,4.834,4.834,0,0,1-2.159,1.754,7.868,7.868,0,0,1-3.195.621,7.123,7.123,0,0,1-4.5-1.226A5.707,5.707,0,0,1,429.949,38.614Z" transform="translate(-356.519 -21.863)"/><path class="a" d="M464.017,36.364l.369,2.266a9.435,9.435,0,0,1-1.938.228,4.394,4.394,0,0,1-2.167-.442,2.478,2.478,0,0,1-1.084-1.163,9.178,9.178,0,0,1-.313-3.029v-8.71h-1.879v-2h1.879V19.767l2.551-1.539v5.29h2.582v2h-2.582v8.858a4.494,4.494,0,0,0,.135,1.411,1.077,1.077,0,0,0,.442.5,1.719,1.719,0,0,0,.877.184A8.276,8.276,0,0,0,464.017,36.364Z" transform="translate(-369.355 -17.395)"/><path class="a" d="M473.3,35.551q0-4.205,2.338-6.23a7.045,7.045,0,0,1,4.761-1.682,6.793,6.793,0,0,1,5.105,2.046,7.784,7.784,0,0,1,1.981,5.654,10.02,10.02,0,0,1-.877,4.6,6.214,6.214,0,0,1-2.551,2.6,7.433,7.433,0,0,1-3.659.927,6.806,6.806,0,0,1-5.139-2.038A8.152,8.152,0,0,1,473.3,35.551Zm2.639,0a6.442,6.442,0,0,0,1.27,4.356,4.225,4.225,0,0,0,6.372-.007,6.61,6.61,0,0,0,1.267-4.434,6.264,6.264,0,0,0-1.274-4.256,4.23,4.23,0,0,0-6.366-.007A6.409,6.409,0,0,0,475.943,35.551Z" transform="translate(-377.088 -21.857)"/><path class="a" d="M505.141,37.908V24.762h-2.266v-2h2.266v-1.61a7.07,7.07,0,0,1,.269-2.266,3.285,3.285,0,0,1,1.305-1.619,4.7,4.7,0,0,1,2.616-.62,12.567,12.567,0,0,1,2.4.256l-.385,2.237A8.635,8.635,0,0,0,509.83,19a2.249,2.249,0,0,0-1.654.5,2.7,2.7,0,0,0-.485,1.867v1.4h2.953v2h-2.953V37.906Z" transform="translate(-391.117 -16.642)"/><path class="a" d="M519.631,37.908V24.762h-2.266v-2h2.266v-1.61a7.012,7.012,0,0,1,.268-2.266,3.276,3.276,0,0,1,1.3-1.619,4.7,4.7,0,0,1,2.616-.62,12.56,12.56,0,0,1,2.4.256l-.386,2.237A8.6,8.6,0,0,0,524.321,19a2.25,2.25,0,0,0-1.654.5,2.7,2.7,0,0,0-.486,1.867v1.4h2.953v2H522.18V37.906Z" transform="translate(-397.991 -16.642)"/><path class="a" d="M545.525,38.253l2.652.327a6.475,6.475,0,0,1-2.327,3.607,7.873,7.873,0,0,1-9.6-.762,7.989,7.989,0,0,1-1.948-5.738,8.37,8.37,0,0,1,1.968-5.932,6.658,6.658,0,0,1,5.1-2.11,6.472,6.472,0,0,1,4.962,2.067,8.22,8.22,0,0,1,1.925,5.816q0,.226-.014.685H536.951a5.815,5.815,0,0,0,1.412,3.82,4.2,4.2,0,0,0,3.166,1.325,3.942,3.942,0,0,0,2.41-.741A4.94,4.94,0,0,0,545.525,38.253ZM537.1,34.1h8.454a5.108,5.108,0,0,0-.969-2.863,3.933,3.933,0,0,0-3.179-1.483,4.072,4.072,0,0,0-2.973,1.184A4.68,4.68,0,0,0,537.1,34.1Z" transform="translate(-406.018 -21.86)"/></g></g></svg>