<?xml version="1.0" encoding="UTF-8" standalone="no"?>
<svg
   xmlns:dc="http://purl.org/dc/elements/1.1/"
   xmlns:cc="http://creativecommons.org/ns#"
   xmlns:rdf="http://www.w3.org/1999/02/22-rdf-syntax-ns#"
   xmlns:svg="http://www.w3.org/2000/svg"
   xmlns="http://www.w3.org/2000/svg"
   id="svg1281"
   version="1.1"
   viewBox="0 0 13.609108 13.609108"
   height="13.609108mm"
   width="13.609108mm">
  <defs
     id="defs1275">
    <clipPath
       id="clipPath109"
       clipPathUnits="userSpaceOnUse">
      <path
         id="path107"
         d="M 0,1336 H 1366 V 0 H 0 Z" />
    </clipPath>
    <clipPath
       id="clipPath89"
       clipPathUnits="userSpaceOnUse">
      <path
         id="path87"
         d="m 1080.238,1245.496 h 35.385 v 36.386 h -35.385 z" />
    </clipPath>
  </defs>
  <metadata
     id="metadata1278">
    <rdf:RDF>
      <cc:Work
         rdf:about="">
        <dc:format>image/svg+xml</dc:format>
        <dc:type
           rdf:resource="http://purl.org/dc/dcmitype/StillImage" />
        <dc:title></dc:title>
      </cc:Work>
    </rdf:RDF>
  </metadata>
  <g
     transform="translate(-55.939492,-42.999021)"
     id="layer1">
    <g
       id="g83"
       transform="matrix(0.35277777,0,0,-0.35277777,-324.22865,495.85935)">
      <g
         clip-path="url(#clipPath89)"
         id="g85">
        <path
           id="path91"
           style="fill:#005496;fill-opacity:1;fill-rule:nonzero;stroke:none"
           d="m 1120.967,1262.68 h -36.564 v 2.063 h 36.564 z" />
        <path
           id="path93"
           style="fill:#005496;fill-opacity:1;fill-rule:nonzero;stroke:none"
           d="m 1120.967,1248.815 h -36.564 v 2.063 h 36.564 z" />
        <g
           transform="translate(1102.6848,1274.9712)"
           id="g95">
          <path
             id="path97"
             style="fill:#005496;fill-opacity:1;fill-rule:nonzero;stroke:none"
             d="m 0,0 c -9.859,0 -17.879,-8.02 -17.879,-17.878 0,-9.859 8.02,-17.879 17.879,-17.879 9.858,0 17.878,8.02 17.878,17.879 C 17.878,-8.02 9.858,0 0,0 m 0,-37.819 c -10.996,0 -19.941,8.945 -19.941,19.941 0,10.995 8.945,19.941 19.941,19.941 10.995,0 19.941,-8.946 19.941,-19.941 0,-10.996 -8.946,-19.941 -19.941,-19.941" />
        </g>
        <g
           transform="translate(1102.6848,1274.9712)"
           id="g99">
          <path
             id="path101"
             style="fill:#005496;fill-opacity:1;fill-rule:nonzero;stroke:none"
             d="m 0,0 c -4.263,0 -7.865,-8.188 -7.865,-17.878 0,-9.692 3.602,-17.879 7.865,-17.879 4.263,0 7.865,8.187 7.865,17.879 C 7.865,-8.188 4.263,0 0,0 m 0,-37.819 c -5.567,0 -9.928,8.758 -9.928,19.941 0,11.181 4.361,19.941 9.928,19.941 5.566,0 9.927,-8.76 9.927,-19.941 0,-11.183 -4.361,-19.941 -9.927,-19.941" />
        </g>
      </g>
    </g>
    <g
       id="g103"
       transform="matrix(0.35277777,0,0,-0.35277777,-324.22865,495.85935)">
      <g
         clip-path="url(#clipPath109)"
         id="g105">
        <g
           transform="translate(1111.844,1245.4966)"
           id="g111">
          <path
             id="path113"
             style="fill:none;stroke:#333333;stroke-width:0.75;stroke-linecap:butt;stroke-linejoin:miter;stroke-miterlimit:10;stroke-dasharray:none;stroke-opacity:1"
             d="m 0,0 h -29.827 c -2.209,0 -4,1.791 -4,4 v 29.827 c 0,2.209 1.791,4 4,4 H 0 c 2.209,0 4,-1.791 4,-4 V 4 C 4,1.791 2.209,0 0,0 Z" />
        </g>
      </g>
    </g>
  </g>
</svg>
