<svg xmlns="http://www.w3.org/2000/svg" xmlns:xlink="http://www.w3.org/1999/xlink" id="Ebene_1" x="0px" y="0px" viewBox="0 0 444.2 227.2" style="enable-background:new 0 0 444.2 227.2;" xml:space="preserve"><style type="text/css">	.st0{fill:#D51317;}</style><polygon class="st0" points="0,227.2 205.4,227.2 185.3,194.5 32.7,194.5 32.7,146.3 155.7,146.3 135.5,113.6 32.7,113.6 32.7,65.3  105.8,65.3 85.7,32.7 0,32.7 "></polygon><path class="st0" d="M278.8,32.7c-2.6-7.5-6.5-13.7-11.9-18.6C256.6,4.7,242.1,0,223.5,0H65.6l20.1,32.7h133c7.4,0,13,1.8,17,5.4 c3.9,3.6,5.9,9.9,5.9,18.7s-2,14.9-5.9,18.6s-9.6,5.5-17,5.5l-103.5-0.2l20.3,32.9h58.4l49.8,80.9h45.7l-50.6-82.2 c13.9-2.4,24.6-8.1,32.2-17.3c6.2-7.5,9.8-17.4,10.9-29.7h162.3V32.7L278.8,32.7L278.8,32.7z"></path><polygon class="st0" points="318.1,146.3 444.2,146.3 444.2,113.6 298,113.6 "></polygon><polygon class="st0" points="368,227.2 444.2,227.2 444.2,194.5 347.9,194.5 "></polygon></svg>