<?xml version="1.0" encoding="UTF-8"?>
<svg xmlns="http://www.w3.org/2000/svg" xmlns:xlink="http://www.w3.org/1999/xlink" version="1.1" id="Ebene_1" x="0px" y="0px" viewBox="0 0 562.92 114.17" style="enable-background:new 0 0 562.92 114.17;" xml:space="preserve">
<style type="text/css">
	.st0{fill-rule:evenodd;clip-rule:evenodd;stroke:#000000;stroke-width:0.216;stroke-miterlimit:2.6131;}
	.st1{fill-rule:evenodd;clip-rule:evenodd;fill:#FFFF01;stroke:#000000;stroke-width:0.216;stroke-miterlimit:2.6131;}
	.st2{fill-rule:evenodd;clip-rule:evenodd;}
</style>
<g>
	<g>
		<path class="st0" d="M524.54,0.11c21,0,38.27,17.19,38.27,38.27c0,21.08-17.27,38.27-38.27,38.27c-21,0-38.27-17.19-38.27-38.27    C486.26,17.3,503.53,0.11,524.54,0.11L524.54,0.11z"></path>
		<path class="st0" d="M447.99,0.11c21,0,38.27,17.19,38.27,38.27c0,21.08-17.27,38.27-38.27,38.27s-38.27-17.19-38.27-38.27    C409.71,17.3,426.98,0.11,447.99,0.11L447.99,0.11z"></path>
		<path class="st0" d="M486.26,0.11c21,0,38.27,17.19,38.27,38.27c0,21.08-17.27,38.27-38.27,38.27c-21,0-38.27-17.19-38.27-38.27    C447.99,17.3,465.26,0.11,486.26,0.11L486.26,0.11z"></path>
		<path class="st1" d="M505.4,5.29c-11.4,6.64-19.14,18.99-19.14,33.09c0,14.1,7.73,26.45,19.14,33.09    c11.4-6.64,19.14-18.99,19.14-33.09C524.54,24.28,516.8,11.93,505.4,5.29z"></path>
		<path class="st1" d="M467.13,5.29c-11.4,6.64-19.14,18.99-19.14,33.09c0,14.1,7.73,26.45,19.14,33.09    c11.4-6.64,19.14-18.99,19.14-33.09C486.26,24.28,478.53,11.93,467.13,5.29z"></path>
	</g>
	<path class="st2" d="M1.23,0.59h21.11v28c2.87-2.98,5.72-5.1,8.55-6.38c2.83-1.29,6.19-1.93,10.07-1.93   c5.73,0,10.25,1.75,13.55,5.24c3.3,3.5,4.94,8.85,4.94,16.07V76.6h-21.2V46.32c0-3.45-0.64-5.89-1.91-7.33   c-1.29-1.45-3.08-2.16-5.4-2.16c-2.55,0-4.64,0.97-6.21,2.9c-1.59,1.93-2.39,5.42-2.39,10.42V76.6H1.23V0.59L1.23,0.59z    M91.29,39.36l-20.16-2.12c0.76-3.52,1.86-6.3,3.29-8.32c1.44-2.02,3.49-3.77,6.19-5.26c1.93-1.08,4.6-1.91,7.98-2.49   c3.38-0.59,7.04-0.89,10.99-0.89c6.32,0,11.41,0.35,15.24,1.06c3.84,0.7,7.04,2.19,9.59,4.44c1.8,1.56,3.22,3.75,4.27,6.6   c1.03,2.87,1.54,5.57,1.54,8.17v24.32c0,2.59,0.18,4.62,0.5,6.09c0.33,1.47,1.04,3.34,2.16,5.63h-19.8   c-0.8-1.42-1.31-2.49-1.56-3.24c-0.24-0.74-0.48-1.91-0.73-3.5c-2.76,2.67-5.52,4.57-8.25,5.7c-3.73,1.52-8.07,2.28-13.01,2.28   c-6.57,0-11.56-1.52-14.97-4.57c-3.39-3.03-5.09-6.78-5.09-11.24c0-4.2,1.22-7.63,3.68-10.32c2.46-2.71,6.98-4.71,13.57-6.02   c7.93-1.6,13.06-2.71,15.42-3.35c2.33-0.64,4.83-1.49,7.45-2.51c0-2.6-0.53-4.41-1.59-5.45c-1.08-1.03-2.95-1.56-5.67-1.56   c-3.45,0-6.03,0.56-7.77,1.66C93.22,35.36,92.13,36.99,91.29,39.36L91.29,39.36z M109.59,50.46c-2.9,1.05-5.93,1.96-9.06,2.76   c-4.29,1.14-7.01,2.27-8.14,3.36c-1.19,1.15-1.77,2.44-1.77,3.89c0,1.66,0.58,3.01,1.73,4.07c1.17,1.05,2.87,1.58,5.12,1.58   c2.35,0,4.53-0.56,6.57-1.69c2.02-1.15,3.45-2.55,4.3-4.18c0.85-1.65,1.25-3.79,1.25-6.41V50.46L109.59,50.46z M143.04,21.54h19.7   v8.04c2.85-3.36,5.7-5.74,8.58-7.17c2.89-1.42,6.37-2.12,10.46-2.12c4.39,0,7.86,0.78,10.41,2.34c2.57,1.56,4.65,3.88,6.28,6.96   c3.31-3.59,6.34-6.05,9.08-7.34c2.73-1.3,6.09-1.95,10.11-1.95c5.91,0,10.53,1.75,13.84,5.28c3.33,3.5,4.98,8.99,4.98,16.46V76.6   h-21.15V45.24c0-2.5-0.48-4.35-1.45-5.56c-1.42-1.9-3.18-2.85-5.29-2.85c-2.48,0-4.49,0.9-6.02,2.69c-1.52,1.8-2.26,4.69-2.26,8.67   V76.6h-21.17V46.27c0-2.43-0.14-4.05-0.41-4.92c-0.46-1.38-1.24-2.5-2.33-3.35c-1.12-0.85-2.41-1.28-3.9-1.28   c-2.42,0-4.41,0.92-5.96,2.75c-1.56,1.84-2.34,4.85-2.34,9.02V76.6h-21.15V21.54L143.04,21.54z M246.49,49.22   c0-8.39,2.83-15.33,8.49-20.76c5.68-5.45,13.32-8.18,22.97-8.18c11.03,0,19.36,3.2,24.99,9.59c4.53,5.15,6.79,11.5,6.79,19.04   c0,8.46-2.81,15.4-8.42,20.81c-5.61,5.4-13.38,8.11-23.31,8.11c-8.85,0-16-2.25-21.47-6.74C249.83,65.54,246.49,58.25,246.49,49.22   L246.49,49.22z M267.64,49.17c0,4.92,0.99,8.55,2.99,10.88c1.98,2.35,4.48,3.54,7.48,3.54c3.04,0,5.54-1.17,7.49-3.49   c1.96-2.32,2.93-6.02,2.93-11.15c0-4.76-0.99-8.32-2.95-10.66c-1.96-2.32-4.41-3.48-7.31-3.48c-3.08,0-5.63,1.18-7.63,3.54   C268.65,40.73,267.64,44.34,267.64,49.17L267.64,49.17z M316.17,61.36l20.95-1.99c0.87,2.5,2.07,4.29,3.63,5.35   c1.56,1.08,3.63,1.61,6.23,1.61c2.83,0,5.03-0.6,6.58-1.82c1.21-0.89,1.81-2.02,1.81-3.36c0-1.52-0.8-2.69-2.37-3.52   c-1.15-0.58-4.18-1.31-9.08-2.18c-7.32-1.29-12.42-2.46-15.27-3.56c-2.85-1.1-5.25-2.94-7.2-5.52c-1.96-2.58-2.93-5.53-2.93-8.86   c0-3.63,1.06-6.76,3.17-9.38c2.1-2.64,5.01-4.6,8.71-5.89c3.7-1.3,8.66-1.95,14.88-1.95c6.57,0,11.41,0.51,14.55,1.5   c3.13,1.01,5.73,2.57,7.82,4.67c2.09,2.1,3.83,4.95,5.22,8.55l-20.02,1.98c-0.53-1.77-1.38-3.06-2.6-3.9   c-1.66-1.11-3.66-1.66-6.02-1.66c-2.37,0-4.12,0.43-5.2,1.27c-1.09,0.85-1.63,1.88-1.63,3.08c0,1.36,0.69,2.37,2.07,3.06   c1.38,0.69,4.39,1.31,9.02,1.88c7.01,0.8,12.23,1.9,15.65,3.31c3.43,1.41,6.05,3.43,7.86,6.07c1.82,2.62,2.73,5.5,2.73,8.66   c0,3.19-0.95,6.28-2.89,9.29c-1.91,3.01-4.93,5.39-9.06,7.17c-4.14,1.79-9.77,2.67-16.88,2.67c-10.05,0-17.22-1.43-21.48-4.3   C320.13,70.72,317.38,66.63,316.17,61.36L316.17,61.36z"></path>
	<path class="st2" d="M0,113.9l6.24-16.24h2.31l6.65,16.24h-2.45l-1.89-4.92H4.07l-1.78,4.92H0L0,113.9z M4.69,107.23h5.51l-1.7-4.5   c-0.51-1.37-0.9-2.49-1.15-3.37c-0.21,1.04-0.5,2.08-0.88,3.11L4.69,107.23L4.69,107.23z M19.8,113.9V97.66h5.59   c1.26,0,2.23,0.08,2.89,0.23c0.93,0.21,1.72,0.6,2.38,1.16c0.85,0.73,1.5,1.65,1.92,2.78c0.43,1.13,0.64,2.41,0.64,3.86   c0,1.23-0.14,2.33-0.44,3.28c-0.29,0.95-0.65,1.74-1.11,2.37c-0.45,0.62-0.94,1.12-1.48,1.47c-0.53,0.36-1.18,0.63-1.94,0.82   c-0.76,0.18-1.63,0.28-2.61,0.28H19.8L19.8,113.9z M21.95,111.98h3.47c1.07,0,1.91-0.1,2.52-0.3c0.61-0.2,1.09-0.48,1.46-0.84   c0.51-0.51,0.91-1.19,1.19-2.05c0.28-0.86,0.43-1.9,0.43-3.13c0-1.7-0.28-3-0.84-3.91c-0.56-0.92-1.24-1.52-2.03-1.83   c-0.57-0.22-1.5-0.33-2.78-0.33h-3.41V111.98L21.95,111.98z M43.7,113.9l-6.29-16.24h2.33l4.22,11.8c0.34,0.94,0.62,1.83,0.85,2.66   c0.25-0.88,0.54-1.77,0.88-2.66l4.39-11.8h2.19l-6.36,16.24H43.7L43.7,113.9z M53.61,113.9l6.24-16.24h2.32l6.65,16.24h-2.45   l-1.89-4.92h-6.79l-1.78,4.92H53.61L53.61,113.9z M58.3,107.23h5.51l-1.7-4.5c-0.51-1.37-0.9-2.49-1.15-3.37   c-0.21,1.04-0.5,2.08-0.88,3.11L58.3,107.23L58.3,107.23z M73.39,113.9V97.66h2.2l8.53,12.75V97.66h2.06v16.24h-2.2l-8.53-12.76   v12.76H73.39L73.39,113.9z M104.26,108.2l2.15,0.54c-0.45,1.76-1.26,3.11-2.43,4.04c-1.17,0.93-2.6,1.39-4.3,1.39   c-1.75,0-3.17-0.36-4.27-1.07c-1.1-0.71-1.93-1.75-2.5-3.1c-0.57-1.35-0.86-2.81-0.86-4.36c0-1.69,0.32-3.17,0.97-4.42   c0.65-1.26,1.57-2.22,2.76-2.87c1.19-0.65,2.5-0.98,3.94-0.98c1.63,0,2.99,0.41,4.1,1.24c1.11,0.83,1.88,1.99,2.31,3.49l-2.11,0.5   c-0.38-1.18-0.92-2.04-1.64-2.58c-0.72-0.54-1.62-0.81-2.7-0.81c-1.25,0-2.29,0.3-3.13,0.9c-0.84,0.6-1.43,1.4-1.77,2.41   c-0.34,1.01-0.51,2.04-0.51,3.12c0,1.38,0.2,2.59,0.6,3.62c0.4,1.03,1.03,1.8,1.88,2.31c0.85,0.51,1.77,0.76,2.76,0.76   c1.2,0,2.22-0.35,3.06-1.04C103.4,110.6,103.97,109.57,104.26,108.2L104.26,108.2z M111.98,113.9V97.66h11.74v1.92h-9.59v4.97h8.98   v1.91h-8.98v5.53h9.97v1.92H111.98L111.98,113.9z M129.95,113.9V97.66h5.59c1.26,0,2.23,0.08,2.89,0.23   c0.93,0.21,1.72,0.6,2.38,1.16c0.85,0.73,1.5,1.65,1.92,2.78c0.43,1.13,0.64,2.41,0.64,3.86c0,1.23-0.14,2.33-0.44,3.28   c-0.29,0.95-0.65,1.74-1.11,2.37c-0.45,0.62-0.94,1.12-1.48,1.47c-0.53,0.36-1.18,0.63-1.94,0.82c-0.76,0.18-1.63,0.28-2.61,0.28   H129.95L129.95,113.9z M132.1,111.98h3.47c1.07,0,1.91-0.1,2.52-0.3c0.61-0.2,1.09-0.48,1.46-0.84c0.51-0.51,0.91-1.19,1.19-2.05   c0.28-0.86,0.43-1.9,0.43-3.13c0-1.7-0.28-3-0.84-3.91c-0.56-0.92-1.24-1.52-2.03-1.83c-0.57-0.22-1.5-0.33-2.78-0.33h-3.41V111.98   L132.1,111.98z M164.53,108.68l2.03-0.18c0.1,0.81,0.32,1.48,0.67,2c0.35,0.52,0.9,0.94,1.63,1.26c0.74,0.32,1.57,0.48,2.49,0.48   c0.82,0,1.54-0.12,2.17-0.36c0.63-0.25,1.1-0.58,1.4-1c0.31-0.43,0.46-0.89,0.46-1.39c0-0.51-0.15-0.95-0.45-1.33   c-0.29-0.38-0.78-0.7-1.46-0.96c-0.44-0.17-1.4-0.44-2.89-0.79c-1.49-0.36-2.54-0.7-3.13-1.01c-0.78-0.41-1.35-0.91-1.74-1.51   c-0.38-0.6-0.57-1.27-0.57-2.02c0-0.82,0.23-1.58,0.7-2.3c0.46-0.71,1.15-1.26,2.04-1.63c0.9-0.37,1.89-0.55,2.98-0.55   c1.21,0,2.26,0.19,3.19,0.58c0.92,0.38,1.63,0.96,2.12,1.71c0.49,0.75,0.76,1.61,0.8,2.56l-2.06,0.16   c-0.11-1.02-0.49-1.8-1.13-2.33c-0.64-0.53-1.58-0.79-2.83-0.79c-1.3,0-2.25,0.24-2.84,0.71c-0.59,0.48-0.89,1.05-0.89,1.72   c0,0.59,0.21,1.07,0.63,1.44c0.42,0.38,1.49,0.76,3.24,1.16c1.75,0.4,2.95,0.74,3.6,1.04c0.95,0.44,1.65,0.99,2.1,1.66   c0.45,0.67,0.67,1.44,0.67,2.31c0,0.87-0.25,1.68-0.74,2.44c-0.5,0.76-1.21,1.36-2.13,1.79c-0.93,0.42-1.97,0.63-3.13,0.63   c-1.47,0-2.7-0.21-3.7-0.64c-0.99-0.43-1.77-1.07-2.34-1.93C164.85,110.74,164.55,109.76,164.53,108.68L164.53,108.68z    M183.32,113.9V97.66h11.74v1.92h-9.59v4.97h8.98v1.91h-8.98v5.53h9.97v1.92H183.32L183.32,113.9z M201.29,113.9V97.66h6.13   c1.08,0,1.9,0.05,2.47,0.16c0.8,0.13,1.47,0.39,2.01,0.76c0.54,0.37,0.97,0.9,1.3,1.57c0.33,0.67,0.49,1.41,0.49,2.22   c0,1.38-0.44,2.55-1.32,3.51c-0.88,0.95-2.47,1.43-4.77,1.43h-4.17v6.6H201.29L201.29,113.9z M203.43,105.38h4.2   c1.39,0,2.37-0.26,2.96-0.78c0.58-0.52,0.87-1.24,0.87-2.18c0-0.68-0.17-1.26-0.51-1.75c-0.34-0.48-0.79-0.8-1.36-0.96   c-0.36-0.09-1.03-0.14-2-0.14h-4.16V105.38L203.43,105.38z M215.83,113.9l6.24-16.24h2.31l6.65,16.24h-2.45l-1.9-4.92h-6.79   l-1.78,4.92H215.83L215.83,113.9z M220.52,107.23h5.51l-1.7-4.5c-0.51-1.37-0.9-2.49-1.15-3.37c-0.21,1.04-0.5,2.08-0.88,3.11   L220.52,107.23L220.52,107.23z M235.67,113.9V97.66h7.2c1.45,0,2.55,0.15,3.3,0.44c0.75,0.29,1.35,0.81,1.81,1.54   c0.45,0.74,0.67,1.56,0.67,2.45c0,1.15-0.37,2.12-1.12,2.91c-0.75,0.79-1.9,1.29-3.46,1.51c0.57,0.27,1,0.54,1.3,0.81   c0.63,0.57,1.22,1.3,1.79,2.16l2.82,4.42h-2.7l-2.15-3.38c-0.63-0.97-1.15-1.72-1.55-2.24c-0.4-0.52-0.77-0.88-1.09-1.08   c-0.32-0.21-0.65-0.35-0.98-0.44c-0.25-0.05-0.64-0.08-1.2-0.08h-2.49v7.21H235.67L235.67,113.9z M237.81,104.83h4.62   c0.98,0,1.75-0.1,2.3-0.31c0.56-0.2,0.98-0.53,1.26-0.98c0.29-0.45,0.43-0.93,0.43-1.46c0-0.77-0.28-1.4-0.84-1.89   c-0.56-0.5-1.44-0.74-2.64-0.74h-5.14V104.83L237.81,104.83z M253.11,113.9l6.24-16.24h2.31l6.65,16.24h-2.45l-1.89-4.92h-6.79   l-1.78,4.92H253.11L253.11,113.9z M257.8,107.23h5.51l-1.7-4.5c-0.51-1.37-0.9-2.49-1.15-3.37c-0.21,1.04-0.5,2.08-0.88,3.11   L257.8,107.23L257.8,107.23z M275.36,113.9V99.57h-5.35v-1.92h12.87v1.92h-5.37v14.32H275.36L275.36,113.9z M288.34,113.9V97.66   h2.15v16.24H288.34L288.34,113.9z M296.51,105.99c0-2.7,0.72-4.81,2.17-6.33c1.45-1.52,3.32-2.29,5.61-2.29   c1.5,0,2.85,0.36,4.05,1.07c1.2,0.72,2.12,1.72,2.75,3c0.63,1.28,0.95,2.73,0.95,4.36c0,1.65-0.33,3.12-0.99,4.42   c-0.67,1.3-1.61,2.29-2.83,2.95c-1.22,0.67-2.53,1-3.94,1c-1.53,0-2.9-0.37-4.1-1.11c-1.21-0.74-2.12-1.75-2.74-3.03   C296.82,108.77,296.51,107.41,296.51,105.99L296.51,105.99z M298.72,106.02c0,1.96,0.53,3.5,1.58,4.62   c1.06,1.13,2.38,1.69,3.96,1.69c1.62,0,2.95-0.57,3.99-1.71c1.04-1.14,1.57-2.75,1.57-4.84c0-1.32-0.23-2.47-0.67-3.46   c-0.45-0.99-1.1-1.75-1.96-2.3c-0.86-0.54-1.83-0.81-2.9-0.81c-1.52,0-2.83,0.52-3.93,1.57   C299.27,101.83,298.72,103.58,298.72,106.02L298.72,106.02z M317.67,113.9V97.66h2.2l8.53,12.75V97.66h2.06v16.24h-2.2l-8.53-12.76   v12.76H317.67L317.67,113.9z M356.72,113.9V99.57h-5.35v-1.92h12.87v1.92h-5.37v14.32H356.72L356.72,113.9z M369.38,113.9V97.66   h11.74v1.92h-9.59v4.97h8.98v1.91h-8.98v5.53h9.97v1.92H369.38L369.38,113.9z M398.94,108.2l2.15,0.54   c-0.45,1.76-1.26,3.11-2.43,4.04c-1.17,0.93-2.6,1.39-4.3,1.39c-1.75,0-3.17-0.36-4.27-1.07c-1.1-0.71-1.93-1.75-2.5-3.1   c-0.57-1.35-0.86-2.81-0.86-4.36c0-1.69,0.32-3.17,0.97-4.42c0.65-1.26,1.57-2.22,2.76-2.87c1.19-0.65,2.5-0.98,3.94-0.98   c1.63,0,2.99,0.41,4.1,1.24c1.11,0.83,1.88,1.99,2.31,3.49l-2.11,0.5c-0.38-1.18-0.92-2.04-1.64-2.58   c-0.72-0.54-1.62-0.81-2.7-0.81c-1.25,0-2.29,0.3-3.13,0.9c-0.84,0.6-1.43,1.4-1.77,2.41c-0.34,1.01-0.51,2.04-0.51,3.12   c0,1.38,0.2,2.59,0.6,3.62c0.4,1.03,1.03,1.8,1.88,2.31c0.85,0.51,1.77,0.76,2.76,0.76c1.2,0,2.22-0.35,3.05-1.04   C398.08,110.6,398.64,109.57,398.94,108.2L398.94,108.2z M406.68,113.9V97.66h2.15v6.67h8.44v-6.67h2.15v16.24h-2.15v-7.66h-8.44   v7.66H406.68L406.68,113.9z M425.85,113.9V97.66h2.2l8.53,12.75V97.66h2.06v16.24h-2.2l-8.53-12.76v12.76H425.85L425.85,113.9z    M444.49,105.99c0-2.7,0.72-4.81,2.17-6.33c1.45-1.52,3.32-2.29,5.61-2.29c1.5,0,2.85,0.36,4.05,1.07c1.2,0.72,2.12,1.72,2.75,3   c0.63,1.28,0.95,2.73,0.95,4.36c0,1.65-0.33,3.12-1,4.42c-0.67,1.3-1.61,2.29-2.82,2.95c-1.22,0.67-2.53,1-3.95,1   c-1.53,0-2.9-0.37-4.1-1.11c-1.21-0.74-2.12-1.75-2.74-3.03C444.79,108.77,444.49,107.41,444.49,105.99L444.49,105.99z    M446.7,106.02c0,1.96,0.53,3.5,1.58,4.62c1.05,1.13,2.38,1.69,3.96,1.69c1.62,0,2.95-0.57,3.99-1.71   c1.04-1.14,1.57-2.75,1.57-4.84c0-1.32-0.23-2.47-0.67-3.46c-0.45-0.99-1.1-1.75-1.96-2.3c-0.86-0.54-1.83-0.81-2.9-0.81   c-1.52,0-2.83,0.52-3.93,1.57C447.25,101.83,446.7,103.58,446.7,106.02L446.7,106.02z M465.58,113.9V97.66h2.15v14.32h8v1.92   H465.58L465.58,113.9z M480.52,105.99c0-2.7,0.72-4.81,2.17-6.33c1.45-1.52,3.32-2.29,5.61-2.29c1.5,0,2.85,0.36,4.05,1.07   c1.2,0.72,2.12,1.72,2.75,3c0.63,1.28,0.95,2.73,0.95,4.36c0,1.65-0.33,3.12-0.99,4.42c-0.67,1.3-1.61,2.29-2.83,2.95   c-1.22,0.67-2.53,1-3.94,1c-1.53,0-2.9-0.37-4.1-1.11c-1.21-0.74-2.12-1.75-2.74-3.03C480.83,108.77,480.52,107.41,480.52,105.99   L480.52,105.99z M482.73,106.02c0,1.96,0.53,3.5,1.58,4.62c1.06,1.13,2.38,1.69,3.96,1.69c1.62,0,2.95-0.57,3.99-1.71   c1.04-1.14,1.57-2.75,1.57-4.84c0-1.32-0.23-2.47-0.67-3.46c-0.45-0.99-1.1-1.75-1.96-2.3c-0.86-0.54-1.83-0.81-2.9-0.81   c-1.52,0-2.83,0.52-3.93,1.57C483.28,101.83,482.73,103.58,482.73,106.02L482.73,106.02z M509.3,107.53v-1.9l6.88-0.01v6.02   c-1.05,0.84-2.14,1.47-3.27,1.9c-1.12,0.42-2.28,0.63-3.46,0.63c-1.6,0-3.05-0.34-4.35-1.02c-1.3-0.68-2.29-1.67-2.95-2.96   c-0.67-1.29-1-2.74-1-4.33c0-1.58,0.33-3.06,0.99-4.43c0.66-1.37,1.61-2.39,2.85-3.05c1.24-0.66,2.67-1,4.29-1   c1.17,0,2.23,0.19,3.18,0.57c0.95,0.38,1.69,0.91,2.23,1.59c0.54,0.68,0.95,1.57,1.23,2.66l-1.94,0.53   c-0.25-0.83-0.55-1.48-0.91-1.95c-0.36-0.47-0.88-0.85-1.55-1.14c-0.67-0.28-1.42-0.43-2.24-0.43c-0.98,0-1.83,0.15-2.55,0.45   c-0.72,0.3-1.29,0.69-1.74,1.18c-0.44,0.49-0.78,1.02-1.03,1.61c-0.41,1-0.62,2.09-0.62,3.27c0,1.45,0.25,2.66,0.75,3.63   c0.5,0.98,1.22,1.7,2.18,2.17c0.95,0.47,1.96,0.71,3.03,0.71c0.93,0,1.84-0.18,2.73-0.54c0.89-0.36,1.56-0.74,2.02-1.15v-3.03   H509.3L509.3,107.53z M522.6,113.9V97.66h2.15v16.24H522.6L522.6,113.9z M531.47,113.9V97.66h11.74v1.92h-9.59v4.97h8.98v1.91   h-8.98v5.53h9.97v1.92H531.47L531.47,113.9z M548.71,108.68l2.03-0.18c0.1,0.81,0.32,1.48,0.67,2c0.35,0.52,0.9,0.94,1.63,1.26   c0.74,0.32,1.57,0.48,2.49,0.48c0.82,0,1.54-0.12,2.17-0.36c0.63-0.25,1.1-0.58,1.4-1c0.31-0.43,0.46-0.89,0.46-1.39   c0-0.51-0.15-0.95-0.45-1.33c-0.29-0.38-0.78-0.7-1.46-0.96c-0.44-0.17-1.4-0.44-2.89-0.79c-1.49-0.36-2.54-0.7-3.13-1.01   c-0.78-0.41-1.35-0.91-1.74-1.51c-0.38-0.6-0.57-1.27-0.57-2.02c0-0.82,0.23-1.58,0.7-2.3c0.47-0.71,1.15-1.26,2.04-1.63   c0.9-0.37,1.89-0.55,2.98-0.55c1.21,0,2.26,0.19,3.19,0.58c0.92,0.38,1.63,0.96,2.12,1.71c0.49,0.75,0.76,1.61,0.8,2.56l-2.06,0.16   c-0.11-1.02-0.49-1.8-1.13-2.33c-0.64-0.53-1.58-0.79-2.83-0.79c-1.3,0-2.25,0.24-2.84,0.71c-0.59,0.48-0.89,1.05-0.89,1.72   c0,0.59,0.21,1.07,0.63,1.44c0.42,0.38,1.49,0.76,3.24,1.16c1.75,0.4,2.95,0.74,3.6,1.04c0.95,0.44,1.65,0.99,2.1,1.66   c0.45,0.67,0.67,1.44,0.67,2.31c0,0.87-0.25,1.68-0.74,2.44c-0.5,0.76-1.21,1.36-2.13,1.79c-0.93,0.42-1.97,0.63-3.13,0.63   c-1.47,0-2.7-0.21-3.7-0.64c-0.99-0.43-1.77-1.07-2.34-1.93C549.04,110.74,548.74,109.76,548.71,108.68L548.71,108.68z"></path>
</g>
</svg>
