<?xml version="1.0" encoding="utf-8"?>
<!-- Generator: Adobe Illustrator 25.4.1, SVG Export Plug-In . SVG Version: 6.00 Build 0)  -->
<svg version="1.1"
	 id="Ebene_1" inkscape:export-filename="C:\Users\patri\Desktop\Sikoplast_logo\Sikoplast_logo.png" inkscape:export-xdpi="299.94662" inkscape:export-ydpi="299.94662" inkscape:version="1.1 (c68e22c387, 2021-05-23)" sodipodi:docname="Sikoplast_logo.svg" xmlns:cc="http://creativecommons.org/ns#" xmlns:dc="http://purl.org/dc/elements/1.1/" xmlns:inkscape="http://www.inkscape.org/namespaces/inkscape" xmlns:rdf="http://www.w3.org/1999/02/22-rdf-syntax-ns#" xmlns:sodipodi="http://sodipodi.sourceforge.net/DTD/sodipodi-0.dtd" xmlns:svg="http://www.w3.org/2000/svg"
	 xmlns="http://www.w3.org/2000/svg" xmlns:xlink="http://www.w3.org/1999/xlink" x="0px" y="0px" viewBox="0 0 510 100"
	 style="enable-background:new 0 0 510 100;" xml:space="preserve">
<style type="text/css">
	.st0{fill:#003399;}
</style>
<sodipodi:namedview  bordercolor="#666666" borderopacity="1" gridtolerance="10" guidetolerance="10" id="namedview3899" inkscape:current-layer="text3965" inkscape:cx="241.99005" inkscape:cy="30.579837" inkscape:pagecheckerboard="0" inkscape:pageopacity="0" inkscape:pageshadow="2" inkscape:window-height="1017" inkscape:window-maximized="1" inkscape:window-width="1920" inkscape:window-x="-8" inkscape:window-y="-8" inkscape:zoom="2.0765317" objecttolerance="10" pagecolor="#ffffff" showborder="true" showgrid="false">
	</sodipodi:namedview>
<g id="g4012" transform="matrix(1.0260233,0,0,0.97327297,5,7.5)">
	<g id="g4004">
		<path id="path3868" inkscape:connector-curvature="0" class="st0" d="M188.3,32.1c-4.6-6.8-9.2-13.5-13.9-20.3
			c-0.3-0.4-0.5-0.6-1-0.6c-1,0.1-2.1,0-3.1,0c-3.4,0-6.7,0-10.1,0c-0.2,0-0.6-0.3-0.6,0.4c0,2.6,0,5.3,0.1,7.9
			c0,0.7-0.1,0.8-0.8,0.8c-6.2,0-12.5,0-18.7,0c-0.3,0-0.6-0.1-0.9,0.1c0.1,0.1,0.1,0.2,0.2,0.3c5.4,8.2,10.9,16.4,16.4,24.6
			c0.1,0.2,0.3,0.3,0.3,0.6c0,1.1,0,2.2,0,3.5c-0.3-0.4-0.4-0.6-0.6-0.8c-2.5-3.8-5.1-7.6-7.6-11.4c-5.6-8.4-11.2-16.8-16.8-25.2
			c-0.2-0.4-0.4-0.7-1-0.7c-4.5,0-9,0-13.5,0c-0.5,0-0.6,0.1-0.6,0.6c0,2.5,0,5,0,7.5c0,0.7-0.1,0.8-0.8,0.8c-6.3,0-12.6,0-19,0
			c-0.3,0-0.6-0.1-0.8,0.1c0.1,0.2,0.3,0.4,0.4,0.6c5.1,7.7,10.2,15.5,15.5,23.2c1,1.4,0.8,2.8,0.8,4.5c-0.2-0.3-0.4-0.6-0.6-0.8
			c-8-12-16-24-24-36c-0.2-0.3-0.4-0.6-0.9-0.6c-4.5,0-9,0-13.5,0c-0.5,0-0.6,0.1-0.6,0.6c0,2.5,0,5,0.1,7.5c0,0.7-0.2,0.8-0.8,0.8
			c-6.4,0-12.7,0-19.1,0c-0.3,0-0.7,0-0.7,0.1c-0.2,0.3,0.2,0.5,0.3,0.7c5.1,7.7,10.2,15.4,15.4,23.1c1,1.5,0.7,2.9,0.8,4.6
			c-0.3-0.4-0.5-0.7-0.6-0.9C60,35.8,52,23.9,44.1,11.9c-0.3-0.4-0.6-0.6-1.1-0.6c-3.2,0-6.3,0.1-9.5,0c-1.3,0-2.6-0.1-3.9-0.1
			c-0.3,0-0.5,0-0.5,0.5c0,2.6,0,5.2,0,7.8c0,0.7-0.1,0.8-0.8,0.8c-6.3,0-12.6,0-18.9,0c-0.3,0-0.7,0-1.1,0c0.2,0.3,0.3,0.5,0.4,0.7
			C12.2,26,15.6,31.1,19,36.2c2,3,4.1,6.1,6.1,9.1c0,1,0,2,0,3.1c0,0,0,0,0,0c0,0,0,0-0.1,0c-0.2-0.2-0.4-0.4-0.5-0.6
			c-0.1-0.1-0.1-0.2-0.2-0.4c-7-10.5-14-21-21-31.5c-1-1.6-2.1-3.1-3.3-4.9c0,0.4,0,0.5,0,0.6c0,7.1,0,14.2,0,21.3
			c0,0.4,0.2,0.7,0.4,1c4.3,6.4,8.6,12.9,12.9,19.3c0.7,1.1,1.5,1.7,2.9,1.7c4.1-0.1,8.2,0,12.3,0c0.2,0,0.6,0.2,0.6-0.3
			c0-2.8,0-5.7,0-8.5c0-0.7,0.2-0.8,0.8-0.8c6.2,0,12.5,0,18.8,0c0.2,0,0.5,0,0.7,0c0.2,0,0.1-0.2,0-0.3c-0.1-0.1-0.1-0.3-0.2-0.4
			c-5.5-8.1-10.9-16.2-16.4-24.3c-0.1-0.1-0.3-0.3-0.3-0.5c0-1,0-2.1,0-3.3c0.2,0.3,0.3,0.5,0.4,0.6c8.3,12.4,16.6,24.8,24.8,37.2
			c0.3,0.5,0.7,0.7,1.3,0.7c2.9,0,5.8,0,8.7,0c1.5,0,3,0,4.5,0c0.4,0,0.5,0,0.5-0.5c0-2.8,0.1-5.5,0.1-8.3c0-0.7,0.1-0.9,0.9-0.9
			c6.2,0,12.3,0,18.5,0c0.2,0,0.6,0.1,0.8-0.1c0.2-0.3-0.2-0.5-0.3-0.7c-5.4-8-10.8-16.1-16.2-24.1C76.2,20.4,76,20.3,76,20
			c0-1.1,0-2.2,0-3.5c0.3,0.5,0.5,0.7,0.7,1c8.2,12.3,16.4,24.6,24.6,37c0.4,0.5,0.7,0.7,1.4,0.7c2.9,0,5.8,0,8.8,0
			c1.4,0,2.9,0,4.3,0c0.2,0,0.5,0.2,0.5-0.3c0-2.9,0-5.7,0-8.6c0-0.6,0.2-0.8,0.8-0.8c6.2,0,12.5,0,18.7,0c0.2,0,0.5,0,0.8,0
			c-0.1-0.2-0.1-0.2-0.1-0.3c-5.6-8.3-11.1-16.6-16.7-24.9c-0.1-0.1-0.2-0.2-0.2-0.4c0-1,0-2,0-3.1c0.3,0.2,0.5,0.5,0.7,0.8
			c8.2,12.3,16.4,24.5,24.5,36.8c0.3,0.5,0.6,0.7,1.2,0.7c2.8,0,5.7,0,8.5,0c1.6,0,3.1,0,4.6,0c0.5,0,0.5-0.1,0.5-0.6
			c0-2.8,0-5.5,0-8.2c0-0.8,0.2-0.8,0.9-0.8c6.3,0,12.7,0,19,0c0.2,0,0.5,0.1,0.8-0.1c-0.2-0.2-0.3-0.4-0.4-0.6
			c-5.2-7.8-10.4-15.5-15.7-23.2c-0.9-1.4-0.9-2.7-0.8-4.3c8.4,12.6,16.8,25.1,25.1,37.6c0.2-0.2,0.2-0.3,0.2-0.4
			c0-7.1,0-14.3,0-21.4C188.7,32.7,188.5,32.4,188.3,32.1L188.3,32.1z"/>
		<path id="path3870" inkscape:connector-curvature="0" class="st0" d="M187.7,0c-31.1,0-62.3,0-93.4,0C84.9,0,75.5,0,66,0
			C44.4,0,22.7,0,1,0C0.3,0,0.1,0.1,0.1,0.9C0.2,2.9,0.2,5,0.1,7c0,0.9,0.3,1,1,1c55,0,110,0,165.1,0c7.2,0,14.4,0,21.6,0
			c0.7,0,1-0.1,1-0.9c-0.1-2-0.1-4.1,0-6.1C188.8,0.2,188.5,0,187.7,0z"/>
		<path id="path3872" inkscape:connector-curvature="0" class="st0" d="M187.6,58.3c-62.1,0-124.3,0-186.4,0c-0.2,0-0.4,0-0.6,0
			c-0.4,0-0.5,0.1-0.5,0.5c0,2.5,0,4.9,0,7.4c0,0.1,0,0.1,0,0.2c62.8,0,125.7,0,188.5,0c0-0.1,0-0.1,0-0.2c0-2.3,0-4.5,0-6.8
			C188.6,58.3,188.6,58.3,187.6,58.3z"/>
	</g>
	<path id="path3874" inkscape:connector-curvature="0" class="st0" d="M5.2,45.9c-1.7-2.7-3.3-5.2-5-7.9C0.1,38.3,0,38.4,0,38.5
		c0,2.3,0,4.7,0,7c0,0.5,0.3,0.5,0.6,0.5C2.1,45.9,3.5,45.9,5.2,45.9z"/>
	<path id="path3876" inkscape:connector-curvature="0" class="st0" d="M188.3,20.6c-1.6,0-3.2,0-4.9,0c1.8,2.5,3.4,5,5.3,7.6
		c0-2.6,0-4.9,0-7.2C188.7,20.7,188.6,20.6,188.3,20.6z"/>
</g>
<g id="g4023" transform="matrix(1.1905339,0,0,1.0188836,-29.402106,3.664397)">
	<path id="path3878" inkscape:connector-curvature="0" class="st0" d="M297.2,16.7c-4.6-6.8-15-6.9-19.9-1.4c-2,2.2-3.2,4.8-4,7.5
		c-1.4,4.8-1.5,9.7-1.2,14.6c0.2,3.9,1,7.8,2.9,11.4c2,3.9,4.9,6.8,9.8,7.4c5,0.6,9.1-0.7,12.1-4.5c1.4-1.8,2.3-3.8,3-5.9
		c1.2-3.8,1.5-7.8,1.6-12.1c0-2-0.1-4.3-0.4-6.5C300.4,23.4,299.4,19.9,297.2,16.7z M291.9,41.2c-0.3,1.4-0.9,2.7-1.9,3.7
		c-1.8,1.8-4.7,1.8-6.5,0c-1.4-1.4-1.9-3.1-2.3-5c-0.4-2.1-0.5-4.1-0.5-6.7c0.1-2.4,0.1-5.2,1.1-7.9c0.3-0.9,0.8-1.8,1.5-2.5
		c1.9-2,4.9-1.9,6.8,0.3c1.2,1.4,1.8,3.1,2,4.9C292.9,32.5,292.8,36.8,291.9,41.2L291.9,41.2z"/>
	<rect id="rect3880" x="224.7" y="11.3" class="st0" width="8.6" height="45"/>
	<polygon id="polygon3882" class="st0" points="343.6,44.7 343.6,11.3 335,11.3 335,56.3 343.6,56.3 356.8,56.3 356.8,44.7 	"/>
	<polygon id="polygon3884" class="st0" points="448.9,11.3 423.1,11.3 423.1,22.9 431.7,22.9 431.7,56.3 440.3,56.3 440.3,22.9 
		448.9,22.9 	"/>
	<polygon id="polygon3886" class="st0" points="249.7,11.3 241.1,11.3 241.1,56.3 249.7,56.3 249.7,45.5 254.4,37.7 260.1,56.3 
		270.9,56.3 260.1,28 270.2,11.3 258.7,11.3 249.7,28.8 	"/>
	<path id="path3888" inkscape:connector-curvature="0" class="st0" d="M370.4,11.3l-10.7,45h8.8l1.3-8.1h9.7l2,8.1h8.9l-10.7-45
		H370.4z M371.6,38.7l3.5-16.3l3.1,16.3H371.6z"/>
	<path id="path3890" inkscape:connector-curvature="0" class="st0" d="M321.7,11.3h-6.6H315h-8.5v45h8.6V39.2c0.6,0,2.2,0,5.1,0
		c7.9-0.2,8.9-8.2,9.2-9.8c0.7-4.6,0.2-7.7,0-9C327.9,10.7,321.7,11.3,321.7,11.3z M321.3,25.7c0,4.3-3.4,4.3-3.4,4.3h-2.8V20
		c0.2,0,0.8,0,2.5,0c3.6-0.1,3.7,3.9,3.7,3.9S321.4,24.8,321.3,25.7L321.3,25.7z"/>
	<path id="path3892" inkscape:connector-curvature="0" class="st0" d="M212.3,28.2c-4.1-1.6-6.1-2.4-6.1-2.4s-3.1-1.2-1.7-4.7
		c0.3-0.6,1.5-2.5,4.4-1.3c0.5,0.3,2.2,1,2.4,5.2l8.1-0.7c0,0,0-13-11.1-12.9c-1.2,0.1-3.3,0-4.9,0.7c-0.9,0.3-7.2,2.4-7.3,11.9
		c0,0-0.2,7.5,4.1,10.4c1.5,1.1,3.2,2.6,8.5,4.3c0.8,0.4,3.7,1,3.2,5.6c-0.2,1.1-1,4.5-5.3,3.4c-0.8-0.3-3.2-1.6-3.4-7
		c-1.2,0.2-8.1,0.8-8.1,0.8s0.1,11.5,7.3,14.3c1.2,0.3,8.3,2.3,12.8-1.3c1-0.9,4.1-2.9,5.1-11.1C220.5,40.2,221.1,31.7,212.3,28.2z"
		/>
	<path id="path3894" inkscape:connector-curvature="0" class="st0" d="M410.7,28.2c-4-1.6-6.1-2.4-6.1-2.4s-3.1-1.2-1.7-4.7
		c0.3-0.6,1.5-2.5,4.4-1.3c0.5,0.3,2.2,1,2.5,5.2l8.1-0.7c0,0,0-13-11.1-12.9c-1.2,0.1-3.3,0-4.9,0.7c-0.9,0.3-7.2,2.4-7.3,11.9
		c0,0-0.2,7.5,4.1,10.4c1.5,1.1,3.2,2.6,8.5,4.3c0.8,0.4,3.7,1,3.2,5.6c-0.2,1.1-1,4.5-5.3,3.4c-0.8-0.3-3.2-1.6-3.4-7
		c-1.2,0.2-8.1,0.8-8.1,0.8s0.1,11.5,7.3,14.3c1.2,0.3,8.3,2.3,12.8-1.3c1-0.9,4.1-2.9,5.1-11.1C418.9,40.2,419.5,31.7,410.7,28.2
		L410.7,28.2z"/>
</g>
<g id="text3965">
	<path id="path13780" d="M18.9,95.5h-3.2L11,86.1l-2.1,0.1V92c0,1,0.2,1.8,0.5,2.2c0.3,0.5,1,0.7,1.9,0.8v0.5H5V95
		c0.9-0.1,1.5-0.4,1.8-0.9c0.3-0.4,0.4-1.2,0.4-2.5V79.2c0-1.2-0.1-1.9-0.4-2.3c-0.3-0.4-0.9-0.6-1.8-0.8v-0.5h6.5
		c1.5,0,2.8,0.3,3.7,0.9c1.4,0.9,2.2,2.3,2.2,4.4c0,2.7-1.5,4.3-4.5,5l4.1,8.1c0.3,0.6,0.9,1,1.9,1.1V95.5z M15.6,80.8
		c0-1.9-0.7-3.1-2.2-3.8c-0.8-0.4-1.8-0.6-3-0.5c-0.7,0-1.1,0.1-1.2,0.2c-0.3,0.2-0.4,0.5-0.4,1.1v7.4c1.9,0,3.3-0.2,4.2-0.6
		C14.8,84,15.6,82.7,15.6,80.8z"/>
	<path id="path13782" d="M44.2,90.7l-1,4.9H30.3V95c0.9-0.1,1.5-0.3,1.8-0.5c0.4-0.4,0.6-1.1,0.6-2.2V79c0-1.2-0.2-1.9-0.6-2.3
		c-0.3-0.3-0.9-0.4-1.8-0.5v-0.5H43l0.2,4.1h-0.5c-0.2-1.4-0.5-2.2-0.9-2.6c-0.5-0.4-1.4-0.5-2.8-0.5h-3.7c-0.4,0-0.6,0-0.7,0.1
		c-0.2,0.2-0.3,0.5-0.3,0.9v7h4.1c1,0,1.7-0.2,2.1-0.6c0.3-0.3,0.5-1.1,0.6-2.2h0.5v6.7h-0.5c-0.1-1.2-0.4-2-0.7-2.3
		c-0.3-0.3-1-0.5-2-0.5h-4.1v7.5c0,0.6,0.2,1.1,0.7,1.2c0.5,0.1,1.6,0.2,3.5,0.2c1.5,0,2.6-0.3,3.3-0.8c0.7-0.5,1.3-1.6,1.9-3.1
		L44.2,90.7z"/>
	<path id="path13784" d="M69.4,92.1c-0.3,0.7-0.9,1.4-1.7,2.1c-1.3,1.1-2.7,1.7-4.2,1.7c-2,0-3.7-0.8-5.1-2.4
		c-1.7-1.9-2.5-4.6-2.5-8c0-3.2,0.8-5.7,2.5-7.7c1.5-1.8,3.2-2.7,5.2-2.7c0.8,0,1.6,0.2,2.4,0.5c0.9,0.3,1.3,0.5,1.4,0.5
		c0.3,0,0.6-0.3,0.7-0.9l0.6-0.1l0.5,6.4l-0.6,0.1c-0.3-1.7-0.8-3.1-1.6-4c-0.9-1.1-1.9-1.6-3.2-1.6c-0.7,0-1.4,0.2-2.1,0.5
		c-0.8,0.4-1.4,0.8-1.8,1.5c-1.4,1.9-2.1,4.4-2.1,7.6c0,3,0.7,5.4,2.1,7.1c1.2,1.4,2.6,2.2,4.2,2.2c1.9,0,3.5-1,5-3.1L69.4,92.1z"/>
	<path id="path13786" d="M94.9,76.2c-0.5,0-1,0.2-1.2,0.5c-0.4,0.4-0.9,1.2-1.4,2.4l-3.4,7.4V92c0,1.1,0.2,1.9,0.5,2.4
		c0.3,0.4,1,0.6,1.9,0.6v0.5h-6.3V95c1.1-0.1,1.8-0.4,2.1-1c0.2-0.4,0.3-1.2,0.3-2.4v-5.1l-3-6.5c-0.8-1.8-1.5-2.9-1.9-3.4
		c-0.3-0.3-0.7-0.4-1.2-0.4v-0.6h5.4v0.6c-1.2,0.1-1.7,0.4-1.7,1.1c0,0.3,0.1,0.7,0.4,1.3l3.2,6.7l3.3-6.9c0.2-0.4,0.3-0.8,0.3-1.2
		c0-0.6-0.5-0.9-1.4-0.9v-0.6h4.3L94.9,76.2z"/>
	<path id="path13788" d="M120.1,92.1c-0.3,0.7-0.9,1.4-1.7,2.1c-1.3,1.1-2.7,1.7-4.2,1.7c-2,0-3.7-0.8-5.1-2.4
		c-1.7-1.9-2.5-4.6-2.5-8c0-3.2,0.8-5.7,2.5-7.7c1.5-1.8,3.2-2.7,5.2-2.7c0.8,0,1.6,0.2,2.4,0.5c0.9,0.3,1.3,0.5,1.4,0.5
		c0.3,0,0.6-0.3,0.7-0.9l0.6-0.1l0.5,6.4l-0.6,0.1c-0.3-1.7-0.8-3.1-1.6-4c-0.9-1.1-1.9-1.6-3.2-1.6c-0.7,0-1.4,0.2-2.1,0.5
		c-0.8,0.4-1.4,0.8-1.8,1.5c-1.4,1.9-2.1,4.4-2.1,7.6c0,3,0.7,5.4,2.1,7.1c1.2,1.4,2.6,2.2,4.2,2.2c1.9,0,3.5-1,5-3.1L120.1,92.1z"
		/>
	<path id="path13790" d="M145.5,90.5l-1.1,5h-12.7V95c0.8-0.1,1.4-0.3,1.8-0.6c0.4-0.5,0.6-1.2,0.6-2.4V79c0-1.2-0.2-1.9-0.6-2.3
		c-0.3-0.3-0.9-0.4-1.8-0.5v-0.5h6.5v0.5c-0.9,0-1.5,0.1-1.9,0.4c-0.5,0.4-0.7,1.2-0.7,2.4v14.2c0,0.6,0.2,1.1,0.5,1.2
		c0.3,0.1,1,0.2,2.1,0.2c2.1,0,3.5-0.2,4.2-0.5c1-0.5,1.9-1.7,2.5-3.5H145.5z"/>
	<path id="path13792" d="M167.9,95.5h-7.7V95c1.4-0.1,2.3-0.3,2.6-0.6c0.3-0.4,0.5-1.1,0.5-2.3v-13c0-1.2-0.2-2-0.5-2.3
		c-0.3-0.3-1.2-0.5-2.6-0.6v-0.5h7.7v0.5c-1.4,0.1-2.3,0.3-2.6,0.6c-0.3,0.3-0.5,1.1-0.5,2.3v13c0,1.2,0.2,1.9,0.5,2.3
		c0.4,0.3,1.2,0.6,2.6,0.6L167.9,95.5z"/>
	<path id="path13794" d="M196.3,76.2c-0.6,0.1-1,0.3-1.1,0.6c-0.2,0.4-0.3,1.5-0.3,3.2v15.9h-0.1L185,78.9h-0.2v11.9
		c0,1.6,0.1,2.7,0.4,3.2s0.8,0.9,1.7,0.9v0.5h-4.4V95c0.8-0.1,1.2-0.7,1.4-1.7c0.1-0.3,0.1-1.1,0.1-2.5v-13c-0.3-0.6-0.5-0.9-0.5-1
		c-0.3-0.4-0.6-0.6-0.9-0.6v-0.5h2.6l9,15.1V80c0-1.6-0.2-2.7-0.5-3.1c-0.3-0.3-0.8-0.5-1.6-0.6v-0.5h4.4L196.3,76.2z"/>
	<path id="path13796" d="M221.6,85.4c-0.6,0.1-1.1,0.2-1.2,0.4c-0.3,0.3-0.5,1-0.5,1.9v5.8c0,0.4-0.5,0.9-1.4,1.4
		c-1,0.6-2,0.9-3,0.9c-2.6,0-4.6-1.1-6-3.2c-1.2-1.8-1.8-4.3-1.8-7.5c0-2.7,0.6-5,1.9-6.9c1.4-2.1,3.1-3.2,5.3-3.2
		c0.8,0,1.7,0.2,2.4,0.6c0.8,0.4,1.2,0.5,1.4,0.5c0.4,0,0.7-0.4,0.9-1.1h0.6l0.2,6.1H220c-0.5-1.6-0.9-2.8-1.4-3.5
		c-0.8-1.2-1.9-1.8-3.2-1.8c-1.4,0-2.6,0.7-3.7,2c-1.4,1.8-2.1,4.4-2.1,7.9c0,2.8,0.6,5.1,1.8,6.8c1.2,1.7,2.6,2.5,4.4,2.5
		c0.8,0,1.4-0.2,2-0.6c0.5-0.4,0.8-0.9,0.8-1.5v-4.9c0-1.2-0.2-1.9-0.5-2.2c-0.2-0.2-0.8-0.3-1.7-0.4V85h5.2V85.4z"/>
	<path id="path13798" d="M274.7,80.5h-0.6c-0.3-1.7-0.7-2.7-1.2-3.2c-0.5-0.4-1.4-0.6-2.8-0.6h-1.4V92c0,1.1,0.2,1.8,0.5,2.3
		c0.4,0.4,1.1,0.7,2.1,0.7v0.5h-6.7V95c1.1-0.1,1.8-0.4,2.1-0.9c0.3-0.4,0.4-1.2,0.4-2.5v-15h-1.5c-1.4,0-2.3,0.2-2.8,0.6
		c-0.6,0.5-1,1.5-1.2,3.2H261l0.2-4.8h13.2L274.7,80.5z"/>
	<path id="path13800" d="M300.1,90.7l-1,4.9h-12.8V95c0.9-0.1,1.5-0.3,1.8-0.5c0.4-0.4,0.6-1.1,0.6-2.2V79c0-1.2-0.2-1.9-0.6-2.3
		c-0.3-0.3-0.9-0.4-1.8-0.5v-0.5h12.6l0.2,4.1h-0.5c-0.2-1.4-0.5-2.2-0.9-2.6c-0.5-0.4-1.4-0.5-2.8-0.5h-3.7c-0.4,0-0.6,0-0.7,0.1
		c-0.2,0.2-0.3,0.5-0.3,0.9v7h4.1c1,0,1.7-0.2,2.1-0.6c0.3-0.3,0.5-1.1,0.6-2.2h0.5v6.7H297c-0.1-1.2-0.4-2-0.7-2.3
		c-0.3-0.3-1-0.5-2-0.5h-4.1v7.5c0,0.6,0.2,1.1,0.7,1.2c0.5,0.1,1.6,0.2,3.5,0.2c1.5,0,2.6-0.3,3.3-0.8c0.7-0.5,1.3-1.6,1.9-3.1
		L300.1,90.7z"/>
	<path id="path13802" d="M325.3,92.1c-0.3,0.7-0.9,1.4-1.7,2.1c-1.3,1.1-2.7,1.7-4.2,1.7c-2,0-3.7-0.8-5.1-2.4
		c-1.7-1.9-2.5-4.6-2.5-8c0-3.2,0.8-5.7,2.5-7.7c1.5-1.8,3.2-2.7,5.2-2.7c0.8,0,1.6,0.2,2.4,0.5c0.9,0.3,1.3,0.5,1.4,0.5
		c0.3,0,0.6-0.3,0.7-0.9l0.6-0.1l0.5,6.4l-0.6,0.1c-0.3-1.7-0.8-3.1-1.6-4c-0.9-1.1-1.9-1.6-3.2-1.6c-0.7,0-1.4,0.2-2.1,0.5
		c-0.8,0.4-1.4,0.8-1.8,1.5c-1.4,1.9-2.1,4.4-2.1,7.6c0,3,0.7,5.4,2.1,7.1c1.2,1.4,2.6,2.2,4.2,2.2c1.9,0,3.5-1,5-3.1L325.3,92.1z"
		/>
	<path id="path13804" d="M350.8,95.5h-5.5V95c0.9-0.1,1.5-0.5,1.8-1.2c0.1-0.3,0.2-1.1,0.2-2.2v-5.9h-7V92c0,1.1,0.1,1.8,0.4,2.2
		c0.3,0.4,0.8,0.6,1.7,0.8v0.5H337V95c0.8-0.1,1.4-0.4,1.6-0.9c0.2-0.4,0.2-1.2,0.2-2.5V78.8c0-1-0.1-1.6-0.2-1.8
		c-0.2-0.4-0.7-0.7-1.6-0.8v-0.5h5.4v0.5c-0.9,0.1-1.4,0.3-1.7,0.6c-0.3,0.3-0.4,1-0.4,2.1v5.9h7v-5.9c0-1.1-0.1-1.8-0.4-2.1
		c-0.2-0.3-0.7-0.4-1.6-0.5v-0.5h5.5v0.5c-0.8,0.1-1.4,0.3-1.6,0.6c-0.3,0.3-0.4,1-0.4,2.1V92c0,1.1,0.1,1.8,0.4,2.2
		c0.2,0.4,0.8,0.6,1.6,0.8L350.8,95.5z"/>
	<path id="path13806" d="M376.2,76.2c-0.6,0.1-1,0.3-1.1,0.6c-0.2,0.4-0.3,1.5-0.3,3.2v15.9h-0.1l-9.8-16.9h-0.2v11.9
		c0,1.6,0.1,2.7,0.4,3.2s0.8,0.9,1.7,0.9v0.5h-4.4V95c0.8-0.1,1.2-0.7,1.4-1.7c0.1-0.3,0.1-1.1,0.1-2.5v-13c-0.3-0.6-0.5-0.9-0.5-1
		c-0.3-0.4-0.6-0.6-0.9-0.6v-0.5h2.6l9,15.1V80c0-1.6-0.2-2.7-0.5-3.1c-0.3-0.3-0.8-0.5-1.6-0.6v-0.5h4.4V76.2z"/>
	<path id="path13808" d="M401.4,85.6c0,3.1-0.7,5.6-2,7.6c-1.3,1.8-2.9,2.8-4.9,2.8c-2,0-3.6-0.9-4.9-2.8c-1.3-1.9-2-4.5-2-7.6
		c0-3.3,0.7-5.9,2.1-7.8c1.3-1.7,2.9-2.6,4.7-2.6c1.9,0,3.5,0.9,4.7,2.6C400.7,79.7,401.4,82.3,401.4,85.6L401.4,85.6z M399.6,85.5
		c0-3.2-0.6-5.7-1.7-7.5c-0.9-1.4-2-2.2-3.4-2.2c-1.3,0-2.4,0.7-3.4,2.2c-1.1,1.8-1.7,4.3-1.7,7.5c0,3.2,0.5,5.6,1.6,7.4
		c0.9,1.5,2.1,2.2,3.4,2.2c1.4,0,2.5-0.7,3.4-2.2C399.1,91.2,399.6,88.7,399.6,85.5z"/>
	<path id="path13810" d="M426.8,90.5l-1.1,5H413V95c0.8-0.1,1.4-0.3,1.8-0.6c0.4-0.5,0.6-1.2,0.6-2.4V79c0-1.2-0.2-1.9-0.6-2.3
		c-0.3-0.3-0.9-0.4-1.8-0.5v-0.5h6.5v0.5c-0.9,0-1.5,0.1-1.9,0.4c-0.5,0.4-0.7,1.2-0.7,2.4v14.2c0,0.6,0.2,1.1,0.5,1.2
		c0.3,0.1,1,0.2,2.1,0.2c2.1,0,3.5-0.2,4.2-0.5c1-0.5,1.9-1.7,2.5-3.5H426.8z"/>
	<path id="path13812" d="M452.1,85.6c0,3.1-0.7,5.6-2,7.6c-1.3,1.8-2.9,2.8-4.9,2.8c-2,0-3.6-0.9-4.9-2.8c-1.3-1.9-2-4.5-2-7.6
		c0-3.3,0.7-5.9,2.1-7.8c1.3-1.7,2.9-2.6,4.7-2.6c1.9,0,3.5,0.9,4.7,2.6C451.4,79.7,452.1,82.3,452.1,85.6L452.1,85.6z M450.3,85.5
		c0-3.2-0.6-5.7-1.7-7.5c-0.9-1.4-2-2.2-3.4-2.2c-1.3,0-2.4,0.7-3.4,2.2c-1.1,1.8-1.7,4.3-1.7,7.5c0,3.2,0.5,5.6,1.6,7.4
		c0.9,1.5,2.1,2.2,3.4,2.2c1.4,0,2.5-0.7,3.4-2.2C449.8,91.2,450.3,88.7,450.3,85.5z"/>
	<path id="path13814" d="M477.6,85.4c-0.6,0.1-1.1,0.2-1.2,0.4c-0.3,0.3-0.5,1-0.5,1.9v5.8c0,0.4-0.5,0.9-1.4,1.4
		c-1,0.6-2,0.9-3,0.9c-2.6,0-4.6-1.1-6-3.2c-1.2-1.8-1.8-4.3-1.8-7.5c0-2.7,0.6-5,1.9-6.9c1.4-2.1,3.1-3.2,5.3-3.2
		c0.8,0,1.7,0.2,2.4,0.6c0.8,0.4,1.2,0.5,1.4,0.5c0.4,0,0.7-0.4,0.9-1.1h0.6l0.2,6.1h-0.5c-0.5-1.6-0.9-2.8-1.4-3.5
		c-0.8-1.2-1.9-1.8-3.2-1.8c-1.4,0-2.6,0.7-3.7,2c-1.4,1.8-2.1,4.4-2.1,7.9c0,2.8,0.6,5.1,1.8,6.8c1.2,1.7,2.6,2.5,4.4,2.5
		c0.8,0,1.4-0.2,2-0.6c0.5-0.4,0.8-0.9,0.8-1.5v-4.9c0-1.2-0.2-1.9-0.5-2.2c-0.2-0.2-0.8-0.3-1.7-0.4V85h5.2L477.6,85.4z"/>
	<path id="path13816" d="M502.9,76.2c-0.5,0-1,0.2-1.2,0.5c-0.4,0.4-0.9,1.2-1.4,2.4l-3.4,7.4V92c0,1.1,0.2,1.9,0.5,2.4
		c0.3,0.4,1,0.6,1.9,0.6v0.5h-6.3V95c1.1-0.1,1.8-0.4,2.1-1c0.2-0.4,0.3-1.2,0.3-2.4v-5.1l-3-6.5c-0.8-1.8-1.5-2.9-1.9-3.4
		c-0.3-0.3-0.7-0.4-1.2-0.4v-0.6h5.4v0.6c-1.2,0.1-1.7,0.4-1.7,1.1c0,0.3,0.1,0.7,0.4,1.3l3.2,6.7l3.3-6.9c0.2-0.4,0.3-0.8,0.3-1.2
		c0-0.6-0.5-0.9-1.4-0.9v-0.6h4.3L502.9,76.2z"/>
</g>
</svg>
