<svg viewBox="105.87275693311582 105.80000000000001 436.1957585644372 319.51599999999996" version="1.1" xmlns="http://www.w3.org/2000/svg" style="max-height: 500px" width="436.1957585644372" height="319.51599999999996">
  
  <defs>
    <style>
      .st0 {
        fill: #f15922;
      }

      .st1 {
        stroke-dasharray: 2 2;
      }

      .st1, .st2, .st3 {
        fill: none;
        stroke: #999;
      }

      .st1, .st3 {
        stroke-miterlimit: 10;
      }

      .st4 {
        display: none;
      }

      .st5 {
        fill: #999;
      }
    </style>
  </defs>
  <g id="Logo">
    <path d="M229.031006,341.070007c-14.266968,0-24.234985,9.96698-24.234985,24.820984,0,14.950989,9.968018,24.919006,24.234985,24.919006,14.36499,0,24.234985-9.968018,24.234985-24.919006,0-14.854004-9.869995-24.820984-24.234985-24.820984ZM229.031006,382.209961c-8.599976,0-14.463013-6.546997-14.463013-16.31897,0-9.674988,5.863037-16.221985,14.463013-16.221985,8.697021,0,14.463013,6.546997,14.463013,16.221985,0,9.771973-5.765991,16.31897-14.463013,16.31897ZM403.27301,382.209961c-8.111023,0-13.680969-6.253967-13.680969-16.31897,0-9.869995,5.471985-16.221985,13.875977-16.221985,6.742981,0,10.651978,3.810974,11.531006,8.208984h9.674988c-1.075012-9.869995-9.185974-16.807983-21.107971-16.807983-14.170044,0-23.747009,10.357971-23.747009,25.015991,0,14.266968,9.088989,24.723999,23.161011,24.723999,12.800964,0,20.618958-8.403992,21.888977-17.786011h-9.674011c-.97699,5.473022-5.570007,9.185974-11.921997,9.185974ZM273.493042,350.057983v-7.622986h-8.404053v47.003967h9.479004v-29.02301c0-6.35199,2.442993-9.67395,8.30603-9.67395h9.869995v-8.307007h-8.98999c-5.570007,0-9.088013,2.932007-10.260986,7.622986ZM182.546021,374.292969l-31.955017-53.256958h-11.921997v68.403992h9.771973v-53.355042l31.955017,53.355042h11.923035v-68.403992h-9.77301v53.256958ZM171.437988,183.654968c0-7.05896,5.263-9.651978,7.517029-10.306946,2.255005-.657043,8.255005-.837036,12.729004,6.987l44.859009,82.475952c8.497986,14.007019,17.846985,26.776001,40.406006,25.067017,22.440002-1.700012,39.847961-17.812012,39.847961-41.744995v-107.642029h-32.777954l.008972,102.835022c0,7.057983-5.263,9.651001-7.518005,10.307007-2.253967.656006-8.253967.836975-12.729004-6.987l-44.857971-82.476013c-8.498047-14.007019-17.847046-26.776978-40.406006-25.067017-22.44104,1.700012-39.848022,17.812012-39.848022,41.744019v107.642029h32.778015l-.009033-102.834045ZM358.612,389.438965h9.479004v-47.003967h-9.479004v47.003967ZM358.025024,332.955994h10.554016v-11.238037h-10.554016v11.238037ZM333.946045,348.201965c-2.932007-4.592957-8.502014-7.133972-15.343018-7.133972-13.388,0-22.574036,9.96698-22.574036,24.820984,0,14.950989,9.186035,24.919006,22.574036,24.919006,7.328979,0,13.192993-2.932007,16.320007-7.916016v6.548035h8.403992v-68.405029h-9.380981v27.166992ZM320.069031,382.208008c-8.502014,0-14.267029-6.546997-14.267029-16.319031,0-9.674011,5.765015-16.221985,14.267029-16.221985s14.07196,6.547974,14.07196,16.221985c0,9.772034-5.569946,16.319031-14.07196,16.319031ZM497.999023,196.008972l-72.101013.01001v28.919006h48.973999c1.950012,0,3.530029,1.580017,3.530029,3.528992l.001953,14.497986v.27301c0,6.540039-3.265991,9.577026-6.966003,10.100037l-2.882996.098999-61.544983-.002014c-23.310974,0-42.268982-18.936035-42.268982-42.216003,0-23.281006,18.958008-39.955017,42.268982-39.955017h87.244995v-32.779968h-87.244995c-41.40802,0-75.091003,31.380005-75.091003,72.734985,0,41.354004,33.682983,74.995972,75.091003,74.995972h58.815002c.903015,0,1.797974-.032959,2.687988-.084961l.027039.078003c15.806946-.252014,38.177002-7.365051,41.406982-33.179016.257996-2.065002.408997-4.234985.408997-6.544983v-38.121033c0-6.823975-5.53302-12.35498-12.356995-12.354004Z" class="st0"/>
  </g>
  <g class="st4" id="Guidelines">
    <path d="M.5,1.46619h647.895996v526.606808H.5V1.46619Z" class="st2"/>
    <path d="M31.311399,484.447998v14.545013h-2.2017v-12.344025h-.085199l-3.480101,2.27301v-2.10199l3.6292-2.372009h2.1378ZM36.9506,488.084015l2.4077,4.246979,2.429001-4.246979h2.322399l-3.402,5.454987,3.430401,5.45401h-2.322399l-2.457401-4.077026-2.450298,4.077026h-2.329601l3.394901-5.45401-3.3522-5.454987h2.329498Z" class="st5"/>
    <path d="M608.950012,484.447998v14.545013h-2.202026v-12.344025h-.084961l-3.480042,2.27301v-2.10199l3.629028-2.372009h2.138ZM614.588989,488.084015l2.40802,4.246979,2.429016-4.246979h2.32196l-3.401978,5.454987,3.430969,5.45401h-2.322998l-2.45697-4.077026-2.450012,4.077026h-2.330017l3.39502-5.45401-3.35199-5.454987h2.328979Z" class="st5"/>
    <path d="M31.311399,26.5819v14.545401h-2.2017v-12.3437h-.085199l-3.480101,2.272699v-2.102299l3.6292-2.372101h2.1378ZM36.9506,30.218201l2.4077,4.2472,2.429001-4.2472h2.322399l-3.402,5.454597,3.430401,5.454502h-2.322399l-2.457401-4.076702-2.450298,4.076702h-2.329601l3.394901-5.454502-3.3522-5.454597h2.329498Z" class="st5"/>
    <path d="M608.950012,26.5819v14.545401h-2.202026v-12.3437h-.084961l-3.480042,2.272699v-2.102299l3.629028-2.372101h2.138ZM614.588989,30.218201l2.40802,4.2472,2.429016-4.2472h2.32196l-3.401978,5.454597,3.430969,5.454502h-2.322998l-2.45697-4.076702-2.450012,4.076702h-2.330017l3.39502-5.454502-3.35199-5.454597h2.328979Z" class="st5"/>
    <path d="M101.054001,416.222992v14.545013h-2.202103v-12.343994h-.085197l-3.480202,2.27298v-2.10199l3.629303-2.372009h2.138199ZM106.693001,419.859009l2.406998,4.246979,2.429001-4.246979h2.322998l-3.402,5.454987,3.43,5.45401h-2.321999l-2.458-4.076996-2.449997,4.076996h-2.329002l3.395004-5.45401-3.353004-5.454987h2.330002Z" class="st5"/>
    <path d="M542.241028,416.222992v14.545013h-2.202026v-12.343994h-.085022l-3.47998,2.27298v-2.10199l3.629028-2.372009h2.138ZM547.880005,419.859009l2.40802,4.246979,2.428955-4.246979h2.322021l-3.401978,5.454987,3.430969,5.45401h-2.322998l-2.45697-4.076996-2.450012,4.076996h-2.330017l3.39502-5.45401-3.35199-5.454987h2.328979Z" class="st5"/>
    <path d="M101.054001,96.323097v14.545906h-2.202103v-12.3442h-.085197l-3.480202,2.273193v-2.102798l3.629303-2.372101h2.138199ZM106.693001,99.959396l2.406998,4.247604,2.429001-4.247604h2.322998l-3.402,5.454605,3.43,5.455002h-2.321999l-2.458-4.077003-2.449997,4.077003h-2.329002l3.395004-5.455002-3.353004-5.454605h2.330002Z" class="st5"/>
    <path d="M542.241028,96.323097v14.545906h-2.202026v-12.3442h-.085022l-3.47998,2.273193v-2.102798l3.629028-2.372101h2.138ZM547.880005,99.959396l2.40802,4.247604,2.428955-4.247604h2.322021l-3.401978,5.454605,3.430969,5.455002h-2.322998l-2.45697-4.077003-2.450012,4.077003h-2.330017l3.39502-5.455002-3.35199-5.454605h2.328979Z" class="st5"/>
    <path d="M99.537003,348.481995v14.545013h-2.201706v-12.343994h-.085197l-3.480202,2.27298v-2.10199l3.629303-2.372009h2.137802ZM105.176003,352.118011l2.407997,4.246979,2.429001-4.246979h2.321999l-3.402,5.453979,3.431,5.455017h-2.322998l-2.457001-4.076996-2.449997,4.076996h-2.330002l3.394997-5.455017-3.351997-5.453979h2.329002Z" class="st5"/>
    <path d="M92.913002,309.713013c-.7855-.003998-1.456604-.210999-2.013405-.622009-.5569-.411011-.982796-1.009003-1.277695-1.795013-.295006-.785004-.442505-1.730988-.442505-2.837982,0-1.104004.147499-2.046997.442505-2.82901.298195-.782013.7258-1.378998,1.2826-1.790009.560196-.41098,1.229698-.615997,2.008499-.615997.7789,0,1.4468.207001,2.003601.621002.556793.411011.982697,1.007996,1.277695,1.790009.298302.778992.447403,1.720001.447403,2.824005,0,1.109985-.147499,2.057983-.442398,2.842987-.295006.78302-.720901,1.381012-1.277702,1.795013-.556801.41098-1.226402.617004-2.008598.617004ZM92.913002,308.38501c.6894,0,1.227997-.335999,1.615799-1.009003.391098-.673004.5867-1.645996.5867-2.917999,0-.846008-.0895-1.559998-.268501-2.143005-.175697-.587006-.429199-1.031006-.760696-1.333008-.328102-.303986-.7192-.457001-1.173302-.457001-.686005,0-1.224602.338013-1.6157,1.014008-.391106.675995-.588303,1.648987-.591599,2.919006,0,.847992.087799,1.565979.263496,2.151978.178902.584015.432503,1.026001.760597,1.328003.328102.298004.722504.447021,1.183205.447021ZM99.990097,308.152008l-.0746.540985c-.049698.39801-.134193.812012-.253494,1.243011-.116005.434998-.237.837006-.3629,1.208008-.122704.371979-.223801.666992-.303307.884979h-1.053993c.043098-.204987.102798-.483978.178993-.834991.076202-.347992.150803-.737.223701-1.167999s.127602-.869995.164101-1.317993l.049698-.556h1.431801ZM105.265999,309.683014c-.623001,0-1.182999-.120026-1.68-.358002-.493996-.242004-.888-.574005-1.182999-.994019-.294998-.42099-.453003-.902008-.473-1.441986h1.491997c.036003.436981.230003.796997.581001,1.078979.352005.281006.773003.422028,1.263.422028.390999,0,.737999-.08902,1.039001-.268005.305-.183014.543999-.433014.716003-.751007.175995-.317993.264-.681.264-1.088989,0-.414001-.090004-.784027-.269005-1.108002-.179001-.325012-.426003-.580017-.740997-.766022-.311005-.186005-.668999-.279999-1.072998-.28299-.309006,0-.619003.053009-.93.158997-.312004.106018-.564003.244995-.756004.416992l-1.406998-.208984.571999-5.130005h5.598v1.316986h-4.32l-.322998,2.84903h.058998c.198997-.192017.462997-.353027.791-.482025.331001-.130005.685997-.194,1.064003-.194.618996,0,1.170998.147003,1.654999.442017.487.294983.869995.697998,1.148994,1.208008.281006.506989.420006,1.090973.417007,1.75.002998.659973-.146004,1.247986-.447006,1.764984-.298996.516998-.712997.924988-1.242996,1.222992-.527.295013-1.132004.443024-1.815002.443024ZM111.779999,301.907013l1.686005,2.972992,1.699997-2.972992h1.625999l-2.381996,3.817993,2.400993,3.819h-1.625l-1.719994-2.854004-1.716003,2.854004h-1.629997l2.375999-3.819-2.346001-3.817993h1.629997Z" class="st5"/>
    <path d="M540.724976,348.481995v14.545013h-2.200989v-12.343994h-.084961l-3.481018,2.27298v-2.10199l3.630005-2.372009h2.136963ZM546.36499,352.118011l2.406982,4.246979,2.429016-4.246979h2.322998l-3.401978,5.453979,3.429993,5.455017h-2.322021l-2.458008-4.076996-2.449951,4.076996h-2.329041l3.394043-5.455017-3.352051-5.453979h2.330017Z" class="st5"/>
    <path d="M69.741203,390.606995h509.413826" class="st1"/>
    <path d="M0,458.832001h648.895996" class="st3"/>
    <path d="M0,70.707397h648.895996" class="st3"/>
    <path d="M69.741203.966187v527.606811" class="st3"/>
    <path d="M579.155029.966187v527.606811" class="st3"/>
    <path d="M69.741203,320.865997h509.413826" class="st1"/>
    <path d="M69.741203,285.994995h509.413826" class="st1"/>
    <path d="M69.741203,138.932007h509.413826" class="st1"/>
    <path d="M510.929993,70.707397v388.124603" class="st1"/>
    <path d="M425.511993,70.707397v388.124603" class="st1"/>
    <path d="M137.966003,70.707397v388.124603" class="st1"/>
  </g>
</svg>