<?xml version="1.0" encoding="utf-8"?>
<!-- Generator: Adobe Illustrator 28.1.0, SVG Export Plug-In . SVG Version: 6.00 Build 0)  -->
<svg version="1.1" id="Ebene_1" xmlns="http://www.w3.org/2000/svg" xmlns:xlink="http://www.w3.org/1999/xlink" x="0px" y="0px"
	 viewBox="0 0 1927.56 841.89" style="enable-background:new 0 0 1927.56 841.89;" xml:space="preserve">
<style type="text/css">
	.st0{fill-rule:evenodd;clip-rule:evenodd;fill:#BD1830;}
</style>
<g>
	<path class="st0" d="M867.2,419.23c0-109.56,75.08-187.96,187.44-187.96c112.36,0,187.44,78.4,187.44,187.96
		c0,109.56-75.08,187.96-187.44,187.96C942.29,607.2,867.2,528.79,867.2,419.23L867.2,419.23z M467.23,598.65V239.82h144.78
		l49.92,181.68l53.14-181.68h142.78l0.32,358.6H755.93l-0.07-188.2L699.5,598.63l-77.57-0.27l-56.09-184.38l-0.54,184.65
		L467.23,598.65L467.23,598.65z M334.1,598.65V239.82h110.57v358.84H334.1L334.1,598.65z M0,478.03h110.56
		c0,9.05,1.51,17.09,4.02,23.62c8.04,21.61,32.16,26.13,52.77,26.13c18.09,0,45.73-6.03,45.73-32.67c0-18.59-15.58-23.62-77.4-41.21
		C78.9,437.83,14.07,422.25,14.07,349.88c0-82.93,70.87-118.61,144.74-118.61c77.9,0,146.75,29.65,149.77,117.1H204.04
		c2.01-13.57-4.02-22.61-13.07-28.65c-9.05-6.53-21.61-9.05-32.67-9.05c-15.08,0-39.7,4.02-39.7,24.12
		c2.01,25.63,53.27,31.16,104.03,45.23c50.76,14.07,101.02,37.69,101.02,103.53c0,93.48-85.94,123.63-165.85,123.63
		C117.1,607.2,1,592.62,0,478.03L0,478.03z M1254.49,598.65V239.82h113.08L1472.1,431.8l1.01-191.98h104.53v301.87l111.19-301.87
		h108.05l130.67,358.84h-114.59l-15.08-51.26h-114.08l-16.08,51.26h-90.09h-20.98h-86.57l-110.06-196l-1.01,196H1254.49
		L1254.49,598.65z M1707.93,470.49h67.85l-32.16-110.56L1707.93,470.49L1707.93,470.49z M981.12,419.23
		c0-79.91,44.53-98.5,73.53-98.5c29,0,73.53,18.59,73.53,98.5c0,79.91-44.53,98.5-73.53,98.5
		C1025.65,517.74,981.12,499.14,981.12,419.23L981.12,419.23z"/>
</g>
</svg>
