<?xml version="1.0" encoding="utf-8"?>
<!-- Generator: Adobe Illustrator 23.0.3, SVG Export Plug-In . SVG Version: 6.00 Build 0)  -->
<svg version="1.1" id="Ebene_1" xmlns="http://www.w3.org/2000/svg" xmlns:xlink="http://www.w3.org/1999/xlink" x="0px" y="0px"
	 width="258px" height="72px" viewBox="0 0 258 72" style="enable-background:new 0 0 258 72;" xml:space="preserve">
<style type="text/css">
	.st0{fill:#179C7D;}
	.st1{fill:#FFFFFF;}
</style>
<g>
	<g>
		<path class="st0" d="M0,41.699c9.875-5.084,24.342-13.301,41.509-25.317v-4.034C26.4,22.235,11.033,30.173,0,35.425V41.699z"/>
		<path class="st0" d="M0,29.656c10.995-4.48,26.362-11.4,41.509-20.409V7.256C27.273,14.319,12.482,18.739,0,21.495V29.656z"/>
		<path class="st0" d="M41.509,41.719V21.433C32.059,29.4,22.7,36.297,14.84,41.719H41.509z"/>
		<path class="st0" d="M9.532,41.719c7.463-4.431,16.525-10.215,25.55-16.975c2.106-1.578,4.255-3.203,6.427-4.883v-2.513
			C28.152,27.361,14.52,35.708,3.869,41.719H9.532z"/>
		<path class="st0" d="M0,18.544c12.143-2.136,26.995-5.976,41.509-12.875V3.408C26.883,9.973,12.242,12.758,0,13.749V18.544z"/>
		<path class="st0" d="M0,0v11.621c0.908-0.056,1.832-0.121,2.776-0.194C12.87,10.65,26.644,8.868,41.509,2.44V0H0z"/>
		<g>
			<g>
				<path class="st1" d="M0,11.621v2.127c12.242-0.991,26.883-3.776,41.509-10.341V2.44C26.644,8.868,12.87,10.65,2.776,11.427
					C1.832,11.5,0.908,11.565,0,11.621z"/>
			</g>
		</g>
		<g>
			<g>
				<path class="st1" d="M0,21.495c12.482-2.756,27.273-7.176,41.509-14.239V5.669C26.995,12.568,12.143,16.408,0,18.544V21.495z"/>
			</g>
		</g>
		<g>
			<g>
				<path class="st1" d="M0,35.425c11.033-5.252,26.4-13.189,41.509-23.076V9.248C26.362,18.256,10.995,25.176,0,29.656V35.425z"/>
			</g>
		</g>
		<g>
			<g>
				<path class="st1" d="M9.532,41.719h5.308C22.7,36.297,32.059,29.4,41.509,21.433v-1.572c-2.172,1.68-4.321,3.305-6.427,4.883
					C26.057,31.504,16.995,37.288,9.532,41.719z"/>
			</g>
		</g>
		<g>
			<g>
				<path class="st1" d="M0,41.719h3.869c10.651-6.012,24.283-14.359,37.64-24.371v-0.966C24.342,28.398,9.875,36.615,0,41.699
					V41.719z"/>
			</g>
		</g>
	</g>
	<g>
		<path d="M243.927,41.699h5.338v-7.533c0-2.946,0-8.368,4.341-8.368c0.957,0,1.916,0.158,2.394,0.438v-5.378
			c-0.562-0.16-1.118-0.16-1.637-0.16c-3.186,0-5.377,3.231-5.616,5.138h-0.082v-4.659h-4.738V41.699z M238.586,36.2
			c-1.993,1.114-4.222,2.073-6.815,2.073c-3.301,0-5.614-1.872-5.857-5.184h14.184c0-7.172-2.15-12.392-9.763-12.392
			c-6.371,0-9.518,4.901-9.518,10.838c0,6.738,3.942,10.643,10.717,10.643c2.871,0,5.096-0.559,7.052-1.636V36.2z M225.914,29.424
			c0.243-2.75,1.752-4.822,4.742-4.822c2.992,0,4.188,2.233,4.344,4.822H225.914z M208.86,41.699h5.338V25.079h4.661v-3.904h-4.661
			v-2.551c0-1.593,0.561-3.149,2.357-3.149c1.152,0,1.832,0.44,2.304,0.719l0.442-4.424c-1.034-0.238-2.549-0.438-3.904-0.438
			c-4.226,0-6.536,2.869-6.536,6.973v2.87h-3.943v3.904h3.943V41.699z M187.622,30.937c0-3.068,1.672-6.097,5.143-6.097
			c3.506,0,5.177,2.95,5.177,6.097c0,3.428-1.073,7.094-5.177,7.094C188.695,38.031,187.622,34.324,187.622,30.937 M182.04,31.578
			c0,5.893,3.95,10.6,10.725,10.6c6.811,0,10.756-4.707,10.756-10.6c0-6.776-4.659-10.881-10.756-10.881
			C186.707,20.696,182.04,24.801,182.04,31.578 M159.808,41.699h5.339V31.654c0-2.627,0.839-6.815,4.705-6.815
			c3.426,0,3.465,3.389,3.465,5.899v10.961h5.335V28.746c0-4.623-2.11-8.05-6.968-8.05c-2.79,0-5.101,1.276-6.451,3.269h-0.086
			V11.812h-5.339V41.699z M135.465,41.699h5.336V31.654c0-2.627,0.839-6.815,4.703-6.815c3.424,0,3.465,3.389,3.465,5.899v10.961
			h5.343V28.746c0-4.623-2.114-8.05-6.974-8.05c-2.79,0-5.063,0.918-6.734,3.269h-0.084v-2.789h-5.055V41.699z M129.963,21.176
			h-5.341v10.043c0,2.627-0.837,6.812-4.703,6.812c-3.427,0-3.467-3.388-3.467-5.899V21.176h-5.338v12.951
			c0,4.621,2.112,8.051,6.973,8.051c2.788,0,5.101-1.276,6.734-3.27h0.081v2.79h5.061V21.176z M93.54,35.761
			c0-3.15,3.546-3.548,5.938-3.548h2.312c0,1.596-0.24,3.067-1.117,4.225c-0.836,1.112-2.11,1.835-3.745,1.835
			C95.015,38.272,93.54,37.511,93.54,35.761 M90.832,26.835c1.794-1.357,4.063-2.233,6.336-2.233c3.146,0,4.622,1.116,4.622,4.425
			h-2.949c-2.231,0-4.861,0.196-6.893,1.194c-2.033,0.998-3.505,2.79-3.505,5.861c0,3.901,3.544,6.096,7.17,6.096
			c2.431,0,5.101-1.276,6.336-3.547h0.081c0.042,0.634,0.042,1.986,0.239,3.067h4.701c-0.12-1.599-0.198-3.032-0.24-4.585
			c-0.039-1.513-0.079-3.068-0.079-5.14v-2.631c0-6.057-2.59-8.646-8.845-8.646c-2.272,0-5.06,0.6-7.134,1.556L90.832,26.835z
			 M74.773,41.699h5.34v-7.533c0-2.946,0-8.368,4.342-8.368c0.956,0,1.913,0.158,2.392,0.438v-5.378
			c-0.558-0.16-1.116-0.16-1.635-0.16c-3.187,0-5.38,3.231-5.618,5.138h-0.079v-4.659h-4.743V41.699z M55.488,41.699h5.579V29.503
			h9.404v-4.384h-9.404v-6.853h9.882v-4.383H55.488V41.699z"/>
	</g>
	<g>
		<path d="M218.804,69.558c-1.014,0.239-2.108,0.438-3.162,0.438c-4.496,0-7.618-2.247-7.618-6.942c0-4.753,2.904-7.417,7.618-7.417
			c0.915,0,2.127,0.178,3.141,0.577l-0.198,2.346c-1.055-0.597-2.009-0.736-3.003-0.736c-2.864,0-4.653,2.189-4.653,5.031
			c0,2.826,1.75,4.952,4.714,4.952c1.093,0,2.386-0.239,3.041-0.577L218.804,69.558z"/>
		<path d="M231.648,69.558c-1.014,0.239-2.108,0.438-3.162,0.438c-4.495,0-7.617-2.247-7.617-6.942c0-4.753,2.903-7.417,7.617-7.417
			c0.915,0,2.129,0.178,3.142,0.577l-0.198,2.346c-1.055-0.597-2.009-0.736-3.004-0.736c-2.863,0-4.653,2.189-4.653,5.031
			c0,2.826,1.751,4.952,4.714,4.952c1.093,0,2.386-0.239,3.042-0.577L231.648,69.558z"/>
		<path d="M234.947,55.876h3.521c3.022,0,5.786,0.875,5.786,4.195c0,3.243-2.366,4.415-5.349,4.415h-1.173v5.272h-2.784V55.876z
			 M237.731,62.298h0.975c1.391,0,2.644-0.456,2.644-2.068c0-1.61-1.213-2.168-2.644-2.168h-0.975V62.298z"/>
		<path d="M246.738,55.876h8.194v2.187h-5.41v3.421h4.952v2.187h-4.952v3.898h5.449v2.189h-8.233V55.876z"/>
	</g>
</g>
</svg>
