<?xml version="1.0" encoding="UTF-8" standalone="no"?>
<!DOCTYPE svg PUBLIC "-//W3C//DTD SVG 1.1//EN" "http://www.w3.org/Graphics/SVG/1.1/DTD/svg11.dtd">
<svg width="100%" height="100%" viewBox="0 0 1084 280" version="1.1" xmlns="http://www.w3.org/2000/svg" xmlns:xlink="http://www.w3.org/1999/xlink" xml:space="preserve" xmlns:serif="http://www.serif.com/" style="fill-rule:evenodd;clip-rule:evenodd;stroke-linejoin:round;stroke-miterlimit:2;">
    <g transform="matrix(4.16667,0,0,4.16667,0,0)">
        <path d="M167.84,22.017L172.262,8.623L172.36,8.623L176.426,22.017L167.84,22.017ZM166.761,1.557L154.759,33.18L143.074,17.504L155.739,1.557L144.745,1.557L134.44,15.543L134.342,15.543L134.342,1.557L125.212,1.557L125.212,35.808L134.342,35.808L134.342,20.255L134.44,20.255L145.089,35.808L163.033,35.808L165.732,28.502L178.586,28.502L181.138,35.808L191.151,35.808L177.95,1.557L166.761,1.557Z" style="fill:rgb(29,97,164);fill-rule:nonzero;"/>
        <path d="M200.73,10.931C200.73,7.935 204.557,7.743 206.871,7.743C209.46,7.743 212.112,8.228 214.464,9.313L215.053,2.256C212.757,1.463 209.511,0.97 206.225,0.97C199.359,0.97 191.316,3.226 191.316,11.47C191.316,23.931 207.499,19.912 207.499,26.294C207.499,29.042 204.764,29.628 201.861,29.628C198.087,29.628 194.79,28.649 192.441,27.373L191.646,34.924C194.694,35.91 198.666,36.394 201.861,36.394C209.46,36.394 216.921,33.99 216.921,25.116C216.921,12.747 200.73,16.474 200.73,10.931Z" style="fill:rgb(29,97,164);fill-rule:nonzero;"/>
        <path d="M229.928,21.577L244.107,21.577L244.107,15.107L229.928,15.107L229.928,8.034L244.944,8.034L244.944,1.557L220.8,1.557L220.8,35.808L245.483,35.808L245.483,29.332L229.928,29.332L229.928,21.577Z" style="fill:rgb(29,97,164);fill-rule:nonzero;"/>
        <rect x="250.149" y="1.557" width="9.113" height="34.251" style="fill:rgb(29,97,164);fill-rule:nonzero;"/>
        <path d="M42.259,36.38C40.25,36.38 37.649,36.221 35.356,34.978L35.159,34.871L35.449,30.003L35.957,30.332C37.743,31.491 40.211,32.013 41.393,32.013C42.102,32.013 45.643,31.861 45.643,28.867C45.643,27.085 43.665,26.122 41.375,25.007C38.397,23.556 35.021,21.913 35.021,17.889C35.021,13.014 38.478,9.986 44.042,9.986C46.306,9.986 48.183,10.49 49.764,10.963L50.043,11.047L49.572,15.846L49.09,15.547C48.114,14.943 45.486,14.353 44.514,14.353C42.683,14.353 40.545,15.039 40.545,16.974C40.545,18.968 42.498,19.857 44.76,20.885C47.76,22.249 51.161,23.795 51.161,28.379C51.161,33.906 46.69,36.38 42.259,36.38Z" style="fill:rgb(29,97,164);fill-rule:nonzero;"/>
        <path d="M68.147,24.012C61.052,24.012 59.993,26.748 59.993,28.379C59.993,30.624 62.182,32.013 64.21,32.013C68.201,32.013 70.679,29.678 70.679,25.919L70.679,24.103C70.314,24.095 69.946,24.077 69.588,24.059C69.115,24.036 68.625,24.012 68.147,24.012ZM63.828,36.38C57.884,36.38 54.475,33.464 54.475,28.379C54.475,21.716 61.863,19.938 66.228,19.938C67.867,19.938 69.084,19.938 70.675,20.014C70.58,16 68.908,14.353 64.977,14.353C62.502,14.353 59.861,15.278 58.086,16.767L57.551,17.216L57.249,12.447L57.435,12.337C60.079,10.777 62.857,9.986 65.692,9.986C72.661,9.986 75.908,13.327 75.908,20.501L75.908,30.628C75.908,32.903 75.969,34.466 76.095,35.408L76.149,35.808L71.162,35.808L71.162,33.164C70.011,34.477 67.678,36.38 63.828,36.38Z" style="fill:rgb(29,97,164);fill-rule:nonzero;"/>
        <path d="M104.7,35.808L99.462,35.808L99.462,22.749C99.462,16.841 98.146,14.565 94.609,14.352C88.453,14.353 87.531,20.452 87.531,24.088L87.531,35.808L82.302,35.808L82.302,1.557L87.531,1.557L87.531,13.458C89.286,11.24 92.013,9.986 95.155,9.986C101.399,9.986 104.7,13.75 104.7,20.872L104.7,35.808Z" style="fill:rgb(29,97,164);fill-rule:nonzero;"/>
        <path d="M116.458,7.368L110.663,7.368L110.663,1.557L116.458,1.557L116.458,7.368ZM116.179,35.808L110.942,35.808L110.942,10.66L116.179,10.66L116.179,35.808Z" style="fill:rgb(29,97,164);fill-rule:nonzero;"/>
        <path d="M10.712,22.688L22.411,22.688L16.728,7.357L10.712,22.688ZM32.87,35.808L27.273,35.808L24.131,27.329L8.894,27.329L5.565,35.808L0,35.808L14.237,1.557L19.552,1.557L32.87,35.808Z" style="fill:rgb(29,97,164);fill-rule:nonzero;"/>
        <path d="M116.564,66.751L119.77,66.751L114.309,49.782L110.901,49.782L105.221,66.751L108.328,66.751L109.546,62.666L115.365,62.666L116.564,66.751ZM110.197,60.273L112.53,52.349L112.578,52.349L114.714,60.273L110.197,60.273Z" style="fill:rgb(35,31,32);fill-rule:nonzero;"/>
        <path d="M120.603,63.462C121.22,63.841 122.555,64.504 124.198,64.504C125.562,64.504 126.775,63.746 126.775,62.053C126.775,60.836 126.074,60.296 124.565,59.471L122.99,58.608C121.313,57.684 120.216,56.333 120.216,54.154C120.216,51.109 122.721,49.539 125.562,49.539C127.36,49.539 128.621,49.999 129.106,50.146L128.961,52.743C128.201,52.452 127.212,52.012 125.783,52.012C124.229,52.012 123.426,52.837 123.426,54.011C123.426,55.269 124.274,55.75 125.225,56.29L127.037,57.316C129.031,58.432 129.981,59.494 129.981,61.884C129.981,65.329 127.532,66.988 124.298,66.988C122.6,66.988 121.285,66.751 120.434,66.231L120.603,63.462Z" style="fill:rgb(35,31,32);fill-rule:nonzero;"/>
        <path d="M37.39,66.751L40.601,66.751L35.135,49.782L31.736,49.782L26.044,66.751L29.15,66.751L30.372,62.662L36.199,62.662L37.39,66.751ZM31.034,60.273L33.362,52.349L33.41,52.349L35.546,60.273L31.034,60.273Z" style="fill:rgb(35,31,32);fill-rule:nonzero;"/>
        <path d="M41.502,63.462C42.098,63.841 43.434,64.504 45.092,64.504C46.447,64.504 47.667,63.746 47.667,62.053C47.667,60.836 46.963,60.296 45.457,59.471L43.869,58.608C42.19,57.684 41.106,56.333 41.106,54.154C41.106,51.109 43.608,49.539 46.447,49.539C48.246,49.539 49.514,49.999 50.003,50.146L49.858,52.743C49.1,52.452 48.102,52.012 46.66,52.012C45.117,52.012 44.315,52.837 44.315,54.011C44.315,55.269 45.168,55.75 46.115,56.29L47.933,57.316C49.931,58.432 50.869,59.494 50.869,61.884C50.869,65.329 48.421,66.988 45.195,66.988C43.48,66.988 42.162,66.751 41.327,66.231L41.502,63.462Z" style="fill:rgb(35,31,32);fill-rule:nonzero;"/>
        <path d="M62.579,66.751L65.791,66.751L60.313,49.782L56.912,49.782L51.229,66.751L54.348,66.751L55.553,62.662L61.387,62.662L62.579,66.751ZM56.212,60.273L58.549,52.349L58.596,52.349L60.725,60.273L56.212,60.273Z" style="fill:rgb(35,31,32);fill-rule:nonzero;"/>
        <path d="M67.07,49.782L70.184,49.782L70.184,56.68L75.211,56.68L75.211,49.782L78.32,49.782L78.32,66.751L75.211,66.751L75.211,59.247L70.184,59.247L70.184,66.751L67.07,66.751L67.07,49.782Z" style="fill:rgb(35,31,32);fill-rule:nonzero;"/>
        <rect x="81.453" y="49.782" width="3.124" height="16.969" style="fill:rgb(35,31,32);fill-rule:nonzero;"/>
        <rect x="144.139" y="49.782" width="3.121" height="16.969" style="fill:rgb(35,31,32);fill-rule:nonzero;"/>
        <path d="M93.97,49.782L97.09,49.782L97.09,56.969L97.154,56.969L101.986,49.782L105.573,49.782L99.81,57.773L106.027,66.751L102.258,66.751L97.154,58.776L97.09,58.776L97.09,66.751L93.97,66.751L93.97,49.782Z" style="fill:rgb(35,31,32);fill-rule:nonzero;"/>
        <path d="M132.154,49.782L141.067,49.782L141.067,52.252L135.27,52.252L135.27,56.78L140.765,56.78L140.765,59.247L135.27,59.247L135.27,64.261L141.311,64.261L141.311,66.751L132.154,66.751L132.154,49.782Z" style="fill:rgb(35,31,32);fill-rule:nonzero;"/>
        <path d="M157.772,49.772L166.683,49.772L166.683,52.25L160.879,52.25L160.879,56.765L166.367,56.765L166.367,59.241L160.879,59.241L160.879,64.242L166.926,64.242L166.926,66.72L157.772,66.72L157.772,49.772Z" style="fill:rgb(35,31,32);fill-rule:nonzero;"/>
        <path d="M223.419,49.772L232.33,49.772L232.33,52.25L226.526,52.25L226.526,56.765L232.015,56.765L232.015,59.241L226.526,59.241L226.526,64.242L232.573,64.242L232.573,66.72L223.419,66.72L223.419,49.772Z" style="fill:rgb(35,31,32);fill-rule:nonzero;"/>
        <path d="M202.622,64.544C204.587,64.544 206.162,62.868 206.162,58.208C206.162,53.547 204.587,51.872 202.622,51.872C200.654,51.872 199.076,53.547 199.076,58.208C199.076,62.868 200.654,64.544 202.622,64.544ZM202.622,49.493C206.14,49.493 209.367,52.113 209.367,58.208C209.367,64.301 206.14,66.925 202.622,66.925C199.1,66.925 195.871,64.301 195.871,58.208C195.871,52.113 199.1,49.493 202.622,49.493Z" style="fill:rgb(35,31,32);fill-rule:nonzero;"/>
        <path d="M188.769,57.122C190.421,57.122 191.537,56.275 191.537,54.551C191.537,52.608 190.518,52.122 188.769,52.122L187.507,52.122L187.507,57.122L188.769,57.122ZM184.397,49.744L189.69,49.744C192.704,49.744 194.742,51.103 194.742,54.213C194.742,56.421 193.359,57.901 191.464,58.19L191.464,58.265C192.094,58.362 192.798,58.654 193.333,60.234L195.543,66.689L192.243,66.689L190.567,61.178C190.152,59.842 189.351,59.407 188.21,59.407L187.507,59.407L187.507,66.689L184.397,66.689L184.397,49.744Z" style="fill:rgb(35,31,32);fill-rule:nonzero;"/>
        <path d="M215.697,57.696C217.643,57.696 218.494,56.748 218.494,54.899C218.494,53.05 217.643,52.126 215.697,52.126L214.53,52.126L214.53,57.696L215.697,57.696ZM211.416,49.743L216.281,49.743C219.783,49.743 221.607,51.688 221.607,54.899C221.607,58.11 219.783,60.08 216.281,60.08L214.53,60.08L214.53,66.72L211.416,66.72L211.416,49.743Z" style="fill:rgb(35,31,32);fill-rule:nonzero;"/>
        <path d="M172.862,49.78L172.862,60.774C172.862,63.595 173.713,64.52 175.537,64.52C177.313,64.52 178.188,63.595 178.188,60.774L178.188,49.78L181.302,49.78L181.302,60.774C181.302,65.249 178.724,67 175.537,67C172.327,67 169.749,65.249 169.749,60.774L169.749,49.78L172.862,49.78Z" style="fill:rgb(35,31,32);fill-rule:nonzero;"/>
    </g>
</svg>
