<svg xmlns="http://www.w3.org/2000/svg" width="167.765" height="50.045" viewBox="0 0 167.765 50.045">
  <g id="Group_18286" data-name="Group 18286" transform="translate(-90 -33)">
    <g id="TEPEKIMYA_CALCIUM_OXIDE_-_EN_" data-name="TEPEKIMYA CALCIUM OXIDE - EN " transform="translate(89.999 33)">
      <g id="Group_18285" data-name="Group 18285">
        <g id="Group_18284" data-name="Group 18284">
          <g id="Group_18275" data-name="Group 18275">
            <path id="Path_1" data-name="Path 1" d="M70.76,10.861V4.18H90.635v6.681h-6.2V32.244H76.924V10.861Z" transform="translate(-19.207 -1.135)" fill="#2d4191" fill-rule="evenodd"/>
          </g>
          <path id="Path_2" data-name="Path 2" d="M133.411,32.282h-16.8V4.32h16.8v6.105l-9.457-.131-.131,4.947h9.063v5.945h-9.063V26h9.588Z" transform="translate(-31.652 -1.173)" fill="#2d4191" fill-rule="evenodd"/>
          <g id="Group_18277" data-name="Group 18277">
            <path id="Path_3" data-name="Path 3" d="M201.67,77.939h-6.98V50.05h10.819q4.743,0,7.206,2.477a8.74,8.74,0,0,1,2.368,6.666q0,9.53-9.326,9.522H201.67Zm0-15.548h3.162c2.04,0,3.06-1.115,3.06-3.359,0-2.025-1.355-3.045-4.058-3.045h-2.186Z" transform="translate(-77.989 -46.83)" fill="#2d4191" fill-rule="evenodd"/>
          </g>
          <g id="Group_18278" data-name="Group 18278">
            <path id="Path_4" data-name="Path 4" d="M224.011,32.282h-16.8V4.32h16.8v5.974h-9.588v4.947h9.063v5.945h-9.063V26h9.588Z" transform="translate(-56.244 -1.173)" fill="#2d4191" fill-rule="evenodd"/>
          </g>
          <g id="Group_18282" data-name="Group 18282">
            <path id="Path_5" data-name="Path 5" d="M117.574,60.749H115.06V51.795l2.514-.015Z" transform="translate(-31.231 -14.055)" fill="#2d4191" fill-rule="evenodd"/>
            <path id="Path_6" data-name="Path 6" d="M150.1,94.175a.9.9,0,1,1,.9.882.9.9,0,0,1-.9-.882" transform="translate(-65.885 -58.556)" fill="#2d4191"/>
          </g>
          <g id="Group_18283" data-name="Group 18283">
            <path id="Path_7" data-name="Path 7" d="M79.02,60.621V51.74H81.4l.015,4.022L84.36,51.74h2.769l-3.315,4.32,3.606,4.561H84.389l-2.958-3.927L81.4,60.621Z" transform="translate(-21.449 -14.044)" fill="#2d4191" fill-rule="evenodd"/>
          </g>
          <g id="Group_18281" data-name="Group 18281">
            <path id="Path_8" data-name="Path 8" d="M146.643,60.719H144.37l1.392-8.939h2.426l1.668,5.807L151.51,51.8l2.441-.051,1.413,8.983-2.339.007-.707-5.858L150.679,60.7l-1.61.036-1.727-5.858Z" transform="translate(-39.187 -14.047)" fill="#2d4191" fill-rule="evenodd"/>
          </g>
          <g id="Group_18280" data-name="Group 18280">
            <path id="Path_9" data-name="Path 9" d="M187.545,56.582v4.095H185.2V56.619l-3.169-4.874,2.783-.015,1.559,3.053,1.5-3,2.79-.007Z" transform="translate(-49.41 -14.042)" fill="#2d4191" fill-rule="evenodd"/>
          </g>
          <g id="Group_18279" data-name="Group 18279">
            <path id="Path_10" data-name="Path 10" d="M252.6,106.408H250.19l3.1-8.918h3.126l3.111,8.918H257.1l-.437-1.588h-3.57Zm3.49-3.351-1.26-4.153-1.2,4.153Z" transform="translate(-93.053 -59.707)" fill="#2d4191" fill-rule="evenodd"/>
          </g>
        </g>
        <g id="Group_18274" data-name="Group 18274">
          <g id="Group_18273" data-name="Group 18273">
            <path id="Path_11" data-name="Path 11" d="M35.55,46.41s4.371,3.7,8.9,3.789c5.457.109,10.163-4.6,17.719-4.568,5.34,0,6.987,2.514,6.987,2.514S67.92,47,64.226,47C58.7,47,52.263,52.668,47.7,52.894c-3.1.153-7.366.488-11.621-5.421a3.723,3.723,0,0,1-.525-1.064" transform="translate(-34.792 -45.63)" fill="#e31e24" fill-rule="evenodd"/>
            <path id="Path_12" data-name="Path 12" d="M60.12,48.38s-5.828,5.872-5.267,12.182a77.716,77.716,0,0,0,1.224,9.544c.153.845,1.632,8.189,1.188,10.513s-.466,3.738-2.914,6.4a17.85,17.85,0,0,0,1.093-9.471,33.723,33.723,0,0,0-2.637-9.173c-1.071-2.863-1.6-3.912-1.6-7.162s.576-7.431,8.3-12.386Z" transform="translate(-39.043 -46.377)" fill="#ffed00" fill-rule="evenodd"/>
            <path id="Path_13" data-name="Path 13" d="M43.413,47.3s1.537-.219,4.991,14.1c0,0,2.433,7,1.457,12.808-.889,5.2-1.792,7.22-3.424,9.573-1.989,2.871-7.1,6.688-6.717,8.014.568,1.916,7.6-4.422,10.389-4.554,2.914-.131,5.654,1.7,7.978,3.585s3.045,1.61,3.424,1.377c.991-.6-3.111-4.3-4.838-6.433s-3.468-4.08-4.335-6.754a36.708,36.708,0,0,1-.925-11.548,49.769,49.769,0,0,1,2.055-10.112c.648-1.807,2.674-7.082,3.585-8.1a46.628,46.628,0,0,0-3.563,11.475c-.729,4.9-1.341,11.147.248,15.3a41.972,41.972,0,0,0,9.734,15.132c5.639,5.7,2.761,5.617-.627,3.738s-8.633-6.251-10.295-6.688-3.206-.729-6.156,1.195a83.861,83.861,0,0,1-7.031,5.209c-1.727.911-8.1,4.08-2.761-2.856,2.725-3.548,7.723-7.912,9.041-11.46s2.506-6.623,2.6-10.455.313-6.557-.729-10.455a66.342,66.342,0,0,0-3.257-10.12Z" transform="translate(-34.51 -46.083)" fill="#2d4191" fill-rule="evenodd"/>
          </g>
        </g>
      </g>
    </g>
  </g>
</svg>
