<?xml version="1.0" encoding="UTF-8"?>
<!-- Generator: Adobe Illustrator 25.2.3, SVG Export Plug-In . SVG Version: 6.00 Build 0)  -->
<svg xmlns:xodm="http://www.corel.com/coreldraw/odm/2003" xmlns="http://www.w3.org/2000/svg" xmlns:xlink="http://www.w3.org/1999/xlink" version="1.1" id="Livello_1" x="0px" y="0px" viewBox="0 0 251 35.2" style="enable-background:new 0 0 251 35.2;" xml:space="preserve">
<style type="text/css">
	.st0{fill:#FEFEFE;}
</style>
<g>
	<path class="st0" d="M74.3,17.8v7.9c0,0.2-0.2,0.6-0.3,0.7c-1.2,0.8-3.1,2-5,2.8c-1.4,0.6-2.9,1-4,1c-0.8,0-1.7-0.4-2.3-0.9   c-0.6-0.4-1-1-1.3-1.7c-0.3-0.7-0.3-1.5,0-2.3c0.3-0.8,0.8-1.6,1.8-2.4l0,0c0.4-0.3,1.7-1.1,3.4-2.1c2.1-1.2,4.6-2.7,6.5-3.7   C73.6,16.8,74.3,17.2,74.3,17.8L74.3,17.8z M72.7,25.3v-6.1c-1.7,0.9-3.6,2.1-5.2,3c-1.7,1-3.1,1.8-3.2,1.9l0,0l0,0l0,0l0,0l0,0   l0,0l0,0l0,0l0,0l0,0l0,0l0,0l0,0l0,0l0,0l0,0l0,0l0,0l0,0l0,0l0,0l0,0l0,0l0,0l0,0c-0.7,0.6-1.1,1.1-1.3,1.6   c-0.1,0.4-0.1,0.8,0,1.1c0.1,0.4,0.4,0.7,0.7,0.9c0.4,0.3,0.9,0.5,1.4,0.5c0.9,0,2.1-0.3,3.3-0.8C69.9,27,71.6,26.1,72.7,25.3   L72.7,25.3z M64.2,24.3L64.2,24.3L64.2,24.3L64.2,24.3L64.2,24.3L64.2,24.3L64.2,24.3L64.2,24.3L64.2,24.3L64.2,24.3L64.2,24.3   L64.2,24.3L64.2,24.3L64.2,24.3L64.2,24.3L64.2,24.3L64.2,24.3L64.2,24.3L64.2,24.3L64.2,24.3L64.2,24.3L64.2,24.3L64.2,24.3   L64.2,24.3L64.2,24.3L64.2,24.3L64.2,24.3L64.2,24.3z M90.1,11.2c0,0,0-0.1,0-0.2c-0.1-1.7-1.1-3.9-2.9-5.8c-0.5-0.5-1.1-1-1.8-1.5   l0,29.7l4.7,0C90.1,33.5,90.1,11.2,90.1,11.2z M83.8,2.9C82.6,2.4,81.3,2,79.9,2h0c0,0,0,0,0,0L53.4,2c-2.1,0-4.1,0.8-5.7,2   c1.7,1.6,3,3.7,3.2,6.3h8c0.3-2.4,2.1-4,4.3-4.7c0.9-0.3,2-0.4,3-0.4c1,0,2.1,0.2,3,0.4c2.7,0.8,4.8,2.6,4.8,5.4   c0,0.6-0.1,4.8-11.6,5.5l0,0c-2.4,0.2-4.8,0.4-7.3,0.7c-1.4,0.1-2.7,0.3-4.4,0.4l0,0c-3.4,0.2-5.7,2-6.8,4.2h6.5   c0.4,0,0.8,0.4,0.8,0.8c0,3.8-1.4,6.7-3.5,8.8c-0.3,0.3-0.7,0.6-1,0.9c1.1,0.6,2.3,1,3.9,1h11.9h0c2.3,0,4.2-0.3,5.9-0.9   c1.7-0.6,3.2-1.6,4.6-2.9c0.5-0.5,1.4-0.1,1.4,0.6v3.2l9.5,0L83.8,2.9L83.8,2.9z M46.3,5.1c-1.7,1.6-2.9,3.6-3.2,5.3l6.1,0   C48.9,8.2,47.8,6.4,46.3,5.1z M43.3,23.6c-0.2,0.7-0.3,1.5-0.3,2.3c0,1.2,0.3,2.3,0.8,3.4c0.4,0.8,0.9,1.5,1.5,2.2   c0.4-0.3,0.9-0.7,1.3-1c1.7-1.6,2.8-3.9,3-6.8L43.3,23.6L43.3,23.6z M91.8,11c0,0.1,0,0.1,0,0.2v22.3h9V14.9c0-3.2,2-5.3,4.4-6.2   c0.9-0.3,1.9-0.5,2.8-0.5c1,0,1.9,0.1,2.8,0.4c2.2,0.8,3.9,2.6,3.9,5.6l0,19.4h8.2l0-30.9c-0.5-0.2-1-0.4-1.6-0.5   c-2.8-0.7-5.9-0.6-8.9,0.1c-4,0.9-7.8,2.9-10.2,5.7c-0.5,0.5-1.4,0.2-1.4-0.5V2L85.7,2c1,0.6,1.9,1.3,2.6,2.1   C90.5,6.2,91.7,8.9,91.8,11L91.8,11z M91.1,35.1C91,35.2,91,35.2,91.1,35.1l-17.6,0c-0.4,0-0.8-0.4-0.8-0.8V32   c-1.1,0.9-2.4,1.6-3.7,2.1c-1.9,0.7-4,1.1-6.5,1H50.5h0c-2.1-0.1-3.9-0.7-5.3-1.7c-2,1.1-4.3,1.7-6.6,1.7H11.5   c-3.1,0-6-1.4-8.1-3.8c-2-2.2-3.3-5.3-3.3-8.8L0,11c0-2,1.2-5.3,3.8-7.7c1.8-1.7,4.4-2.9,7.7-2.9h27.1h0c2.5,0,5.4,0.9,7.7,2.5   c2-1.5,4.4-2.5,7-2.5l26.5,0c0,0,0,0,0,0l0,0h0l0,0c0,0,0,0,0,0h0l0,0h0h0h0c1.4,0,2.7,0.3,3.9,0.7c0.1-0.4,0.4-0.7,0.8-0.7l17,0   c0.4,0,0.8,0.4,0.8,0.8v4.1c2.6-2.3,6-3.9,9.6-4.7c3.3-0.7,6.6-0.8,9.7-0.1c0.4,0.1,0.9,0.2,1.3,0.4c0.1-0.3,0.4-0.5,0.7-0.5l17,0   c0.4,0,0.8,0.4,0.8,0.8v4.1c2.6-2.3,6-3.9,9.6-4.7c3.3-0.7,6.6-0.8,9.7-0.1c1.8,0.4,3.4,1.2,4.9,2.2c1.9-1.4,4.4-2.3,7.6-2.4h0H195   c0,0,0,0,0,0c2.1,0.1,4,0.4,5.7,1.1l0-0.3c0-0.4,0.4-0.8,0.8-0.8l17,0c0.4,0,0.8,0.4,0.8,0.8v4.1c2.6-2.3,6-3.9,9.6-4.7   c3.3-0.7,6.6-0.8,9.7-0.1c3.1,0.8,5.8,2.4,7.6,5.1c1.4,2.1,2.3,4.9,2.3,8.3v20.4c0,0.4-0.4,0.8-0.8,0.8h-16.9   c-0.4,0-0.8-0.4-0.8-0.8l0-20.2c0-2.1-1.2-3.4-2.8-4c-0.7-0.2-1.4-0.4-2.2-0.4c-0.8,0-1.5,0.2-2.3,0.4c-1.9,0.7-3.3,2.3-3.3,4.7   v19.4c0,0.4-0.4,0.8-0.8,0.8h-17c-0.4,0-0.8-0.4-0.8-0.8l0-0.4c-2.1,0.8-4.3,1.2-6,1.2h0l-21.4,0h0c-1,0-1.9-0.1-2.8-0.3   c-0.2,0.1-0.3,0.2-0.5,0.2H153c-0.4,0-0.8-0.4-0.8-0.8l0-20.2c0-2.1-1.2-3.4-2.8-4c-0.7-0.2-1.4-0.4-2.2-0.4   c-0.8,0-1.5,0.2-2.3,0.4c-1.9,0.7-3.3,2.3-3.3,4.7l0,19.4c0,0.4-0.4,0.8-0.8,0.8h-9.9h-7.1h-9.8c-0.4,0-0.8-0.4-0.8-0.8l0-20.2   c0-2.1-1.2-3.4-2.8-4c-0.7-0.2-1.4-0.4-2.2-0.4c-0.8,0-1.5,0.2-2.3,0.4c-1.9,0.7-3.3,2.3-3.3,4.7l0,19.4c0,0.4-0.4,0.8-0.8,0.8   L91.1,35.1L91.1,35.1z M43.8,32.3c-0.6-0.7-1.2-1.5-1.5-2.4c-0.6-1.3-0.9-2.7-0.9-4.1c0-0.8,0.1-1.5,0.2-2.3h-9   c-0.3,2.9-2.1,4.7-4.3,5.6c-0.9,0.4-2,0.5-3,0.5c-1,0-2-0.2-3-0.5c-2.5-1-4.5-3.1-4.5-6.6V11.2c0-2.8,1.9-4.6,4.4-5.3   c0.9-0.3,1.9-0.4,2.9-0.4c1,0,2,0.1,2.9,0.4c2.3,0.7,4.1,2.2,4.4,4.5l9.1,0C41.8,8.3,43.1,5.9,45,4c-2-1.3-4.4-2-6.5-2H11.5   c-2.8,0-5,1.1-6.6,2.5C2.7,6.6,1.7,9.4,1.7,11l0,11.6c0,3.1,1.1,5.7,2.9,7.7c1.8,2,4.3,3.2,6.9,3.2h27.1   C40.4,33.5,42.2,33.1,43.8,32.3L43.8,32.3z M42.1,21.9c0-0.1,0-0.1,0.1-0.2c1.3-3,4-5.4,8.4-5.7v0c1.3-0.1,2.8-0.3,4.4-0.4   c2.4-0.2,4.8-0.4,7.3-0.7l0,0c10.5-0.6,10.1-3.7,10.1-3.7v0v0l0,0v0v0v0l0,0v0v0l0,0v0v0v0l0,0v0l0,0v0v0l0,0v0l0,0v0l0,0v0l0,0v0   v0l0,0v0l0,0v0l0,0l0,0v0l0,0v0l0,0v0v0l0,0v0l0,0v0l0,0v0l0,0v0l0,0v0l0,0v0v0l0,0v0v0v0v0v0v0v0l0,0v0v0v0c0-1.9-1.6-3.3-3.6-3.9   c-0.8-0.2-1.7-0.4-2.6-0.4c-0.9,0-1.7,0.1-2.5,0.4c-1.8,0.6-3.2,1.8-3.2,3.9c0,0.4-0.4,0.8-0.8,0.8h-9.5h-7.8c0,0,0,0-0.1,0   l-10.5,0c-0.4,0-0.8-0.4-0.8-0.8c0-1.9-1.5-3.1-3.3-3.7c-0.8-0.2-1.6-0.4-2.4-0.4c-0.8,0-1.7,0.1-2.4,0.3c-1.8,0.6-3.2,1.8-3.2,3.7   v11.4c0,2.6,1.5,4.3,3.4,5c0.8,0.3,1.6,0.4,2.4,0.4c0.8,0,1.6-0.1,2.4-0.4c1.9-0.7,3.3-2.3,3.3-4.8c0-0.4,0.4-0.8,0.8-0.8   L42.1,21.9L42.1,21.9z M79.9,0.4C79.9,0.4,79.9,0.4,79.9,0.4L79.9,0.4L79.9,0.4L79.9,0.4L79.9,0.4L79.9,0.4L79.9,0.4z M79.9,0.4   L79.9,0.4L79.9,0.4L79.9,0.4L79.9,0.4z M72.4,11.2L72.4,11.2L72.4,11.2L72.4,11.2L72.4,11.2L72.4,11.2L72.4,11.2L72.4,11.2   L72.4,11.2L72.4,11.2L72.4,11.2L72.4,11.2L72.4,11.2L72.4,11.2L72.4,11.2L72.4,11.2L72.4,11.2L72.4,11.2L72.4,11.2L72.4,11.2   L72.4,11.2L72.4,11.2L72.4,11.2L72.4,11.2L72.4,11.2L72.4,11.2L72.4,11.2L72.4,11.2L72.4,11.2L72.4,11.2L72.4,11.2L72.4,11.2   L72.4,11.2L72.4,11.2L72.4,11.2L72.4,11.2L72.4,11.2L72.4,11.2L72.4,11.2L72.4,11.2L72.4,11.2L72.4,11.2L72.4,11.2L72.4,11.2   L72.4,11.2L72.4,11.2L72.4,11.2L72.4,11.2L72.4,11.2L72.4,11.2L72.4,11.2L72.4,11.2L72.4,11.2L72.4,11.2L72.4,11.2L72.4,11.2   L72.4,11.2L72.4,11.2L72.4,11.2L72.4,11.2L72.4,11.2L72.4,11.2L72.4,11.2L72.4,11.2L72.4,11.2L72.4,11.2L72.4,11.2z M131.6,14v19.6   h8.3l0-18.6c0-3.2,2-5.3,4.4-6.2c0.9-0.3,1.9-0.5,2.8-0.5c1,0,1.9,0.1,2.8,0.4c2.2,0.8,3.9,2.6,3.9,5.6l0,19.4h12.5   c-0.8-0.4-1.5-0.9-2.2-1.5c-2.5-2.2-3.6-5.2-3.6-8.2V12.4c0-2.5,1.2-6,3.9-8.6c-1.2-0.8-2.5-1.4-4-1.7c-2.8-0.7-5.9-0.6-8.9,0.1   c-4,0.9-7.8,2.9-10.2,5.7C140.9,8.4,140,8,140,7.3V2l-14.5,0c1.5,0.9,2.9,2.1,3.9,3.6C130.8,7.8,131.6,10.5,131.6,14L131.6,14z    M130,33.5V14c0-3.1-0.8-5.5-2-7.4c-0.9-1.3-2.1-2.4-3.4-3.1l0,30.1L130,33.5L130,33.5z M170.8,14v19.3c0.8,0.1,1.6,0.2,2.6,0.2   l21.4,0c1.7,0,3.9-0.4,6-1.3l0-29c-1.6-0.7-3.5-1.1-5.7-1.2h-21.6c-2.6,0.1-4.7,0.8-6.3,1.9c0.5,0.5,1,1.1,1.5,1.7   C169.9,7.8,170.8,10.5,170.8,14L170.8,14z M169.1,32.9V14c0-3.1-0.8-5.5-2-7.4c-0.4-0.6-0.9-1.2-1.4-1.6L165.6,5   c-2.4,2.3-3.5,5.3-3.5,7.4v11.4c0,2.5,1,5.1,3.1,7C166.3,31.7,167.5,32.4,169.1,32.9z M202.3,31.3c0.4-0.2,0.8-0.5,1.1-0.8   c1.8-1.5,3.1-3.7,3.1-6.7V12.4c0-3.1-1.1-5.6-3-7.4c-0.3-0.3-0.7-0.6-1.1-0.9L202.3,31.3L202.3,31.3z M202.3,2.2   c0.8,0.4,1.6,1,2.2,1.6c2.3,2.1,3.6,5.1,3.6,8.6v11.4c0,3.6-1.5,6.2-3.6,8c-0.7,0.6-1.4,1-2.2,1.4l0,0.3h15.4l0-18.6   c0-3.2,2-5.3,4.4-6.2c0.9-0.3,1.9-0.5,2.8-0.5c1,0,1.9,0.1,2.8,0.4c2.2,0.8,3.9,2.6,3.9,5.6l0,19.4h15.3V14c0-3.1-0.8-5.5-2-7.4   c-1.6-2.3-3.9-3.7-6.7-4.4c-2.8-0.7-5.9-0.6-8.9,0.1c-4,0.9-7.8,2.9-10.2,5.7c-0.5,0.5-1.4,0.2-1.4-0.5V2l-15.4,0V2.2L202.3,2.2z    M195,0.4L195,0.4L195,0.4z M176.6,17.8C176.6,17.8,176.6,17.8,176.6,17.8c0,0,0-0.1,0-0.1l0-5.2c0-3.2,2-5.3,4.6-6.1   c1-0.3,2-0.5,3.1-0.5c1.1,0,2.1,0.2,3.1,0.5c2.6,0.9,4.6,3,4.7,6.2l0,4.3c0,0.1,0,0.2,0,0.2l0,0.8l0,0.8c0,0.1,0,0.2,0,0.2l0,4.3   c0,3.2-2.1,5.3-4.7,6.2c-1,0.3-2,0.5-3.1,0.5c-1.1,0-2.1-0.2-3.1-0.5c-2.6-0.9-4.6-2.9-4.6-6.1l0-5.2   C176.6,17.8,176.6,17.8,176.6,17.8L176.6,17.8z M178.2,17.8C178.2,17.8,178.2,17.8,178.2,17.8C178.2,17.8,178.2,17.8,178.2,17.8   l0,5.3c0,2.4,1.5,3.9,3.5,4.6c0.8,0.3,1.7,0.4,2.6,0.4c0.9,0,1.8-0.1,2.6-0.4c2-0.7,3.5-2.2,3.5-4.6l0-5.3l0-5.3   c0-2.4-1.6-3.9-3.5-4.6c-0.8-0.3-1.7-0.4-2.6-0.4c-0.9,0-1.8,0.1-2.6,0.4c-1.9,0.7-3.5,2.2-3.5,4.6L178.2,17.8   C178.2,17.7,178.2,17.7,178.2,17.8z"></path>
</g>
</svg>
