<?xml version="1.0" encoding="UTF-8"?> <svg xmlns="http://www.w3.org/2000/svg" xmlns:xlink="http://www.w3.org/1999/xlink" width="275px" height="58px" viewBox="0 0 275 58"><!-- Generator: Sketch 62 (91390) - https://sketch.com --><title>Logo/Logo Positiv</title><desc>Created with Sketch.</desc><defs><polygon id="path-1" points="0 0.00927401399 274.253 0.00927401399 274.253 57 0 57"></polygon></defs><g id="HOFMANN" stroke="none" stroke-width="1" fill="none" fill-rule="evenodd"><g id="Style-Guide" transform="translate(-2167.000000, -1542.000000)"><g id="Logo/Logo-Positiv" transform="translate(2167.686977, 1542.460155)"><g id="Logo-Positiv"><g id="S_Hofmann_Logo_RGB"><mask id="mask-2" fill="white"><use xlink:href="#path-1"></use></mask><g id="Clip-2"></g><path d="M166.334,54.965 L166.334,50.375 L167.306,50.375 L167.306,48.528 L163.265,48.528 L163.265,50.375 L164.237,50.375 L164.237,54.965 L163.182,54.965 L163.182,56.826 L167.389,56.826 L167.389,54.965 L166.334,54.965 Z M175.689,48.528 L173.521,48.528 L173.521,51.54 L170.957,51.54 L170.957,48.528 L168.789,48.528 L168.789,56.826 L170.957,56.826 L170.957,53.494 L173.521,53.494 L173.521,56.826 L175.689,56.826 L175.689,48.528 Z M183.192,53.885 C185.291,52.463 184.698,48.54 181.439,48.528 L177.799,48.528 L177.799,56.826 L179.92,56.826 L179.92,54.383 L181.024,54.383 L182.445,56.826 L184.816,56.826 L184.816,56.517 L183.192,53.885 Z M181.439,52.475 L179.92,52.475 L179.92,50.423 C180.418,50.423 180.941,50.412 181.439,50.423 C182.648,50.435 182.588,52.475 181.439,52.475 L181.439,52.475 Z M191.823,54.965 L191.823,50.375 L192.795,50.375 L192.795,48.528 L188.754,48.528 L188.754,50.375 L189.727,50.375 L189.727,54.965 L188.671,54.965 L188.671,56.826 L192.878,56.826 L192.878,54.965 L191.823,54.965 Z M198.285,52.108 L195.036,48.504 L194.254,48.504 L194.254,56.826 L196.423,56.826 L196.423,53.128 L198.178,54.976 L198.415,54.976 L200.182,53.128 L200.182,56.826 L202.35,56.826 L202.35,48.504 L201.592,48.504 L198.285,52.108 Z M206.583,56.826 L206.583,54.704 L208.112,54.704 C212.083,54.704 212.083,48.54 208.112,48.528 L204.462,48.528 L204.462,56.826 L206.583,56.826 Z M208.1,52.795 L206.583,52.795 L206.583,50.423 C207.069,50.423 207.603,50.412 208.1,50.423 C209.333,50.435 209.262,52.795 208.1,52.795 L208.1,52.795 Z M215.901,55.037 C215.285,55.037 214.632,54.705 214.632,54.029 L214.632,48.528 L212.607,48.528 L212.607,54.065 C212.607,55.889 214.206,56.944 215.901,56.944 C217.609,56.944 219.208,55.889 219.208,54.065 L219.208,48.528 L217.159,48.528 L217.159,54.029 C217.159,54.705 216.519,55.037 215.901,55.037 L215.901,55.037 Z M223.369,48.528 L221.237,48.528 L221.237,56.826 L226.381,56.826 L226.381,54.919 L223.369,54.919 L223.369,48.528 Z M229.31,54.289 L227.26,54.289 C227.212,57.94 233.968,57.844 233.968,54.36 C233.968,52.287 232.358,52.073 230.709,51.894 C229.962,51.811 229.345,51.681 229.393,51.053 C229.463,50.07 231.693,49.974 231.693,51.077 L233.708,51.077 C233.755,47.497 227.307,47.497 227.378,51.077 C227.402,52.878 228.586,53.496 230.389,53.625 C231.219,53.673 231.907,53.767 231.907,54.347 C231.907,55.32 229.31,55.343 229.31,54.289 L229.31,54.289 Z M235.013,52.676 C235.025,55.51 237.157,56.92 239.269,56.92 C240.797,56.92 242.374,56.256 242.966,54.527 C243.251,53.719 243.251,52.925 243.204,52.096 L239.279,52.096 L239.279,53.932 L241.046,53.932 C240.667,54.728 240.121,54.954 239.269,54.954 C238.011,54.954 237.205,54.051 237.205,52.676 C237.205,51.409 237.928,50.365 239.269,50.365 C240.109,50.365 240.655,50.649 240.998,51.36 L243.085,51.36 C242.682,49.298 240.94,48.433 239.269,48.421 C237.157,48.421 235.025,49.843 235.013,52.676 L235.013,52.676 Z M250.068,48.528 L244.888,48.528 L244.888,56.826 L250.175,56.826 L250.175,54.942 L246.997,54.942 L246.997,53.483 L249.819,53.483 L249.819,51.598 L246.997,51.598 L246.997,50.423 L250.068,50.423 L250.068,48.528 Z M258.129,51.077 C258.129,49.641 256.98,48.528 255.545,48.528 L252.002,48.528 L252.002,56.826 L255.889,56.826 C257.584,56.826 258.461,55.653 258.473,54.206 C258.473,53.47 258.153,52.855 257.478,52.51 C257.88,52.179 258.129,51.575 258.129,51.077 L258.129,51.077 Z M255.735,53.53 C256.588,53.53 256.6,54.942 255.746,54.942 L254.051,54.942 L254.051,53.53 L255.735,53.53 Z M255.379,50.423 C256.233,50.423 256.233,51.789 255.391,51.789 L254.051,51.789 L254.051,50.423 L255.379,50.423 Z M265.315,48.528 L260.134,48.528 L260.134,56.826 L265.42,56.826 L265.42,54.942 L262.243,54.942 L262.243,53.483 L265.066,53.483 L265.066,51.598 L262.243,51.598 L262.243,50.423 L265.315,50.423 L265.315,48.528 Z M272.628,53.885 C274.728,52.463 274.134,48.54 270.874,48.528 L267.236,48.528 L267.236,56.826 L269.357,56.826 L269.357,54.383 L270.459,54.383 L271.882,56.826 L274.253,56.826 L274.253,56.517 L272.628,53.885 Z M270.874,52.475 L269.357,52.475 L269.357,50.423 C269.855,50.423 270.376,50.412 270.874,50.423 C272.083,50.435 272.025,52.475 270.874,52.475 L270.874,52.475 Z" id="Fill-1" fill="#4D9A44" mask="url(#mask-2)"></path><path d="M173.575,0.876 L156.178,38.596 L156.178,40.031 L165.843,40.031 L168.108,35.171 L183.35,35.171 L185.614,40.031 L195.279,40.031 L195.279,38.596 L177.828,0.876 L173.575,0.876 Z M175.674,16.56 L180.147,26.722 L171.311,26.722 L175.674,16.56 Z M240.123,1.207 L240.123,40.031 L250.34,40.031 L250.34,21.033 L269.834,40.087 L273.369,40.087 L273.369,1.373 L263.263,1.373 L263.263,20.316 L243.712,1.207 L240.123,1.207 Z M199.411,1.207 L199.411,40.031 L209.628,40.031 L209.628,21.033 L229.123,40.087 L232.658,40.087 L232.658,1.373 L222.551,1.373 L222.551,20.316 L203.001,1.207 L199.411,1.207 Z M148.448,1.262 L133.04,18.052 L117.907,1.262 L114.262,1.262 L114.262,40.031 L124.369,40.031 L124.369,22.801 L132.542,31.418 L133.647,31.418 L141.876,22.801 L141.876,40.031 L151.982,40.031 L151.982,1.262 L148.448,1.262 Z M84.275,1.373 L84.275,40.031 L94.326,40.031 L94.326,27.495 L106.752,27.495 L106.752,18.659 L94.326,18.659 L94.326,10.209 L108.354,10.209 L108.354,1.373 L84.275,1.373 Z M22.036,1.373 L22.036,15.4 L10.106,15.4 L10.106,1.373 L0,1.373 L0,40.031 L10.106,40.031 L10.106,24.513 L22.036,24.513 L22.036,40.031 L32.142,40.031 L32.142,1.373 L22.036,1.373 L22.036,1.373 Z" id="Fill-3" fill="#545A5B" mask="url(#mask-2)"></path><path d="M72.273,5.844 C65.023,-1.406 53.584,-1.896 45.756,4.354 L52.027,5.171 L53.114,11.713 C56.849,9.517 61.718,9.987 64.924,13.193 C68.729,16.999 68.729,23.167 64.924,26.97 C61.12,30.775 54.951,30.775 51.148,26.97 C47.425,23.25 47.371,17.279 50.929,13.459 L49.819,7.103 L43.714,6.244 C36.31,14.056 36.418,26.384 44.075,34.042 C51.862,41.829 64.486,41.829 72.273,34.042 C80.06,26.255 80.061,13.631 72.273,5.844" id="Fill-4" fill="#4D9A44" mask="url(#mask-2)"></path></g></g></g></g></g></svg> 