<svg width="226.788" height="47.48" fill="none" xmlns="http://www.w3.org/2000/svg"><g clip-path="url(#a)" transform="translate(0 -1.26)"><path d="M113.102 16.17v-3.106h-4.188v23.992h4.188V25.063h.004c0-4.397 3.576-7.978 7.972-7.978v-4.021c-3.073 0-5.851 1.197-7.974 3.106m-41.515 5.073c-.406-.54-.81-1.08-1.261-1.577-.857-.856-2.477-2.478-5.676-2.478-1.983 0-3.83.675-5.271 1.892-2.388 2.072-2.748 4.91-2.748 6.036 0 .947.18 2.928 1.666 4.866 2.073 2.748 5.272 3.019 6.443 3.019.316 0 1.171 0 2.117-.27 2.208-.587 3.244-1.803 4.686-3.606l4.866.045c-1.126 2.253-2.028 4.1-3.964 5.588-.992.765-4.01 2.748-7.839 2.793-1.44 0-4.91-.36-8.109-3.018-3.83-3.244-4.325-7.659-4.325-9.417 0-2.793 1.036-5.676 2.748-7.838 2.342-2.883 5.992-4.595 9.686-4.595 3.695 0 7.614 1.847 9.956 5 .676.857 1.082 1.622 1.938 3.559h-4.91zm13.695 8.65c1.443 2.028 3.921 3.2 6.443 3.2a8.375 8.375 0 0 0 5-1.713c.857-.675 2.975-2.837 2.975-6.171 0-.496-.09-1.622-.586-2.928-1.216-3.109-4.055-5.09-7.344-5.09-4.235 0-7.704 3.109-8.02 7.387-.18 2.614.992 4.55 1.532 5.317m14.507-16.761h4.46V37.1h-4.504v-3.604c-.18.224-.857 1.081-1.577 1.712-2.433 2.207-5.407 2.342-6.533 2.342-1.44 0-4.91-.316-7.93-2.793-2.792-2.298-4.414-5.947-4.414-9.732 0-2.793.901-5.632 2.613-7.793 2.297-2.838 5.902-4.506 9.551-4.506 1.082 0 3.56.09 6.082 1.846.902.63 1.487 1.172 2.252 1.938v-3.378zM130.56 27.82c1.081 3.155 4.19 5.227 7.479 5.227.945 0 3.199-.18 5.225-1.891 2.478-2.073 2.793-4.91 2.793-6.037 0-4.55-3.695-7.885-8.02-7.885-.63 0-1.937.045-3.378.72-2.524 1.172-4.28 3.785-4.55 6.578a8.777 8.777 0 0 0 .451 3.289zm-.496-22.165v11.037c.045-.09.631-.856 1.126-1.307.947-.902 3.559-2.703 7.208-2.703 2.208 0 3.919.63 4.641.946 4.686 2.028 7.388 6.307 7.388 11.443 0 3.334-1.216 6.758-3.558 9.011-.857.81-1.353 1.171-3.199 2.208-1.938.765-3.289 1.26-5.362 1.26-.901 0-3.965-.134-6.307-1.982-.857-.675-1.892-1.938-1.983-2.073v3.514h-4.46V5.655zm29.013 22.255c1.307 3.29 4.325 5.137 7.749 5.137 1.487 0 2.568-.405 3.064-.585 2.748-1.261 4.91-4.325 4.91-7.48 0-1.17-.316-2.386-.765-3.378-1.397-2.884-4.235-4.64-7.389-4.64-1.802 0-3.605.585-5.001 1.666a7.974 7.974 0 0 0-3.109 6.127c-.045.63 0 1.712.541 3.154zm-2.073-10.767c2.343-2.883 6.082-4.55 9.777-4.55 1.397 0 4.775.27 7.838 2.838 4.009 3.379 4.55 7.93 4.55 9.732 0 1.487-.36 5-3.063 8.109-3.334 3.784-7.748 4.235-9.462 4.235-1.44 0-5-.316-8.154-3.019-2.703-2.297-4.325-5.856-4.325-9.46 0-1.396.315-4.82 2.838-7.885" fill="#53575a"/><path d="M193 37.056h4.55V13.09H193v23.967zm13.966-8.92a7.827 7.827 0 0 1-.631-3.108c.045-3.244 1.983-6.082 4.911-7.255 1.352-.54 2.478-.63 3.064-.63 3.198 0 5.225 1.848 5.991 2.703 1.757 2.028 1.983 4.325 1.983 5.272 0 3.154-1.983 6.038-4.82 7.254-1.351.585-2.614.63-3.154.63h-.113a7.77 7.77 0 0 1-7.231-4.867zM203 19.845a12.385 12.385 0 0 0-1.126 5.227c0 1.803.406 6.352 4.235 9.551 3.109 2.613 6.532 2.883 7.93 2.883 3.468 0 5.676-1.442 6.667-2.297.361-.315.901-.857 1.622-1.712v11.129h4.46V13.178h-4.415v3.513c-1.622-1.756-2.477-2.478-3.469-2.973-1.261-.63-3.604-.946-5.045-.946-4.641 0-8.921 2.793-10.858 7.073m-9.912-9.1h4.505V5.563h-4.505v5.181zm-9.775 26.265h4.551V5.52h-4.551v31.493z" fill="url(#b)" style="fill:url(#b)"/><path d="M23.457 33.745c2.535-.673 3.726-2.07 5.381-4.14l5.59.052c-1.295 2.588-2.33 4.71-4.555 6.417-1.138.88-4.606 3.157-9.004 3.208-1.133 0-3.353-.194-5.819-1.292l2.603-4.507c1.408.49 2.69.573 3.372.573.362 0 1.346 0 2.432-.31zm-11.902 2.072C7.156 32.09 6.587 27.017 6.587 25c0-3.208 1.19-6.52 3.156-9.004.79-.972 1.71-1.823 2.72-2.546l2.585 4.477c-.06.048-.123.091-.181.139-2.743 2.38-3.157 5.64-3.157 6.934 0 1.087.208 3.364 1.915 5.589.44.584.924 1.07 1.43 1.474l-2.573 4.458c-.31-.219-.62-.45-.925-.704m3.476-23.84a14.4 14.4 0 0 1 5.837-1.26c4.451 0 8.746 2.121 11.437 5.744.776.984 1.242 1.863 2.224 4.089h-5.64c-.465-.621-.932-1.243-1.448-1.811-.984-.984-2.848-2.847-6.521-2.847a9.61 9.61 0 0 0-3.297.577l-2.592-4.491zM20.56 1.26 0 13.13v23.74l20.56 11.87 20.56-11.87V13.13z" fill="url(#c)" style="fill:url(#c)"/></g><defs><linearGradient id="b" x1="205.052" y1="44.625" x2="205.052" y2="5.519" gradientUnits="userSpaceOnUse"><stop stop-color="#F4A500"/><stop offset=".22" stop-color="#F4A500"/><stop offset=".44" stop-color="#EA880D"/><stop offset=".69" stop-color="#E26E19"/><stop offset=".83" stop-color="#DF651E"/><stop offset="1" stop-color="#DF651E"/></linearGradient><linearGradient id="c" x1="20.56" y1="48.74" x2="20.56" y2="1.26" gradientUnits="userSpaceOnUse"><stop stop-color="#F4A500"/><stop offset=".22" stop-color="#F4A500"/><stop offset=".44" stop-color="#EA880D"/><stop offset=".69" stop-color="#E26E19"/><stop offset=".83" stop-color="#DF651E"/><stop offset="1" stop-color="#DF651E"/></linearGradient><clipPath id="a"><path fill="#fff" transform="translate(0 1.26)" d="M0 0h226.788v47.48H0z"/></clipPath></defs></svg>