<svg width="179" height="52" viewBox="0 0 179 52" fill="none" xmlns="http://www.w3.org/2000/svg">
<g clip-path="url(#clip0_94_1253)">
<path d="M87.2718 49.5419C87.2718 49.3928 87.2334 49.2647 87.1566 49.1608C87.0798 49.0558 86.9843 48.9613 86.868 48.8751C86.7517 48.7901 86.6271 48.7071 86.4932 48.6284C86.3583 48.5486 86.2337 48.4562 86.1174 48.3512C86.0022 48.2483 85.9056 48.1233 85.8288 47.9826C85.753 47.8398 85.7135 47.6645 85.7135 47.4555C85.7135 47.234 85.754 47.045 85.835 46.8854C85.916 46.7268 86.025 46.5966 86.1641 46.4958C86.3022 46.3961 86.4652 46.3226 86.6541 46.2774C86.842 46.2312 87.0414 46.2081 87.2521 46.2081C87.4919 46.2081 87.7068 46.227 87.8968 46.2648C88.0868 46.3026 88.2353 46.3509 88.3432 46.4087L88.0951 46.8539C88.0121 46.8077 87.8896 46.7636 87.7266 46.7216C87.5636 46.6806 87.3736 46.6596 87.1597 46.6596C86.8867 46.6596 86.6645 46.7216 86.4932 46.8476C86.3209 46.9736 86.2357 47.1542 86.2357 47.3925C86.2357 47.5479 86.2742 47.6781 86.3499 47.7842C86.4257 47.8913 86.5223 47.9868 86.6386 48.0729C86.7548 48.159 86.8794 48.2409 87.0133 48.3197C87.1483 48.3995 87.2729 48.4908 87.3881 48.5927C87.5034 48.6956 87.5999 48.8174 87.6767 48.9602C87.7525 49.102 87.7909 49.2752 87.7909 49.48C87.7909 49.8853 87.6466 50.1971 87.357 50.4166C87.0673 50.636 86.6531 50.7463 86.1112 50.7463C85.834 50.7463 85.5993 50.7221 85.4073 50.6749C85.2152 50.6276 85.0688 50.573 84.9702 50.5153L85.2246 50.0585C85.319 50.1131 85.4488 50.1646 85.6118 50.2171C85.7748 50.2696 85.9679 50.2958 86.1911 50.2958C86.3188 50.2958 86.4465 50.2843 86.5752 50.2612C86.7029 50.237 86.8192 50.1971 86.923 50.1383C87.0258 50.0795 87.1099 50.0018 87.1743 49.9063C87.2386 49.8097 87.2708 49.6889 87.2708 49.5419" fill="black"/>
<path d="M89.5777 47.5364L89.1438 49.6238C89.1189 49.7372 89.1064 49.8412 89.1064 49.9378C89.1064 50.0543 89.1292 50.152 89.1749 50.2286C89.2206 50.3063 89.3026 50.3441 89.423 50.3441C89.5217 50.3441 89.6224 50.3189 89.7241 50.2696C89.8248 50.2192 89.9224 50.1541 90.0158 50.0743C90.1082 49.9945 90.1934 49.9073 90.2702 49.8107C90.347 49.7141 90.4093 49.6196 90.4591 49.5283L90.8744 47.5353H91.3395L90.9492 49.397C90.9326 49.4674 90.9159 49.5545 90.8993 49.6564C90.8827 49.7593 90.8671 49.8664 90.8526 49.9787C90.8381 50.0921 90.8267 50.2013 90.8184 50.3084C90.81 50.4155 90.8059 50.509 90.8059 50.5888V50.6696H90.4405V50.0743H90.4155C90.3532 50.1583 90.2827 50.2391 90.2017 50.3189C90.1207 50.3987 90.0325 50.4701 89.9349 50.5321C89.8373 50.5961 89.7335 50.6465 89.6213 50.6864C89.5092 50.7263 89.3919 50.7452 89.2684 50.7452C89.177 50.7452 89.0939 50.7358 89.0171 50.7137C88.9403 50.6927 88.8728 50.657 88.8157 50.6045C88.7576 50.5531 88.7119 50.4838 88.6797 50.3977C88.6465 50.3126 88.6299 50.2034 88.6299 50.069C88.6299 49.9231 88.6506 49.7582 88.6922 49.5734L89.1137 47.5364H89.5788H89.5777Z" fill="black"/>
<path d="M93.2905 49.7834C93.2905 49.6742 93.2635 49.5818 93.2095 49.5073C93.1555 49.4306 93.088 49.3624 93.005 49.3025C92.9219 49.2416 92.8337 49.1818 92.7382 49.124C92.6427 49.0663 92.5544 49.0001 92.4714 48.9277C92.3883 48.8542 92.3208 48.7691 92.2669 48.6714C92.2129 48.5727 92.1859 48.4509 92.1859 48.306C92.1859 48.1895 92.2139 48.0803 92.27 47.9784C92.326 47.8755 92.4029 47.7863 92.4994 47.7096C92.597 47.6319 92.7122 47.571 92.8462 47.528C92.9801 47.4839 93.1265 47.4618 93.2832 47.4618C93.5023 47.4618 93.6715 47.4765 93.7919 47.5059C93.9113 47.5353 94.0193 47.5773 94.1138 47.6319L93.9591 48.0078C93.794 47.9112 93.5687 47.864 93.2832 47.864C93.1099 47.864 92.9655 47.9007 92.8524 47.9742C92.7382 48.0477 92.6821 48.159 92.6821 48.3102C92.6821 48.3974 92.7091 48.474 92.7631 48.5381C92.8171 48.6032 92.8846 48.6641 92.9676 48.7229C93.0507 48.7817 93.1389 48.8405 93.2344 48.9014C93.3299 48.9623 93.4182 49.0316 93.5012 49.1083C93.5843 49.186 93.6518 49.2763 93.7058 49.3813C93.7597 49.4852 93.7867 49.6091 93.7867 49.7509C93.7867 50.0764 93.6777 50.3242 93.4608 50.4943C93.2438 50.6633 92.9531 50.7473 92.5897 50.7473C92.4039 50.7473 92.2336 50.7295 92.0779 50.6917C91.9232 50.6539 91.7976 50.6056 91.7031 50.5468L91.8765 50.152C91.9596 50.2066 92.0675 50.2517 92.2025 50.2895C92.3364 50.3273 92.4766 50.3462 92.6209 50.3462C92.8233 50.3462 92.9853 50.3011 93.1078 50.2108C93.2292 50.1205 93.2905 49.9787 93.2905 49.7845" fill="black"/>
<path d="M94.8517 47.5364H95.3106L95.4404 46.9158L95.9356 46.772L95.7747 47.5364H96.5865L96.4941 47.9375H95.6885L95.2982 49.8317C95.2898 49.8811 95.2826 49.9273 95.2763 49.9693C95.2701 50.0113 95.267 50.0491 95.267 50.0816C95.267 50.1814 95.2898 50.2507 95.3355 50.2885C95.3802 50.3252 95.4487 50.3452 95.54 50.3452C95.6387 50.3452 95.73 50.3326 95.8131 50.3074C95.8961 50.2832 95.9782 50.2454 96.0612 50.195V50.5772C95.974 50.6276 95.8629 50.6675 95.7259 50.7001C95.5899 50.7316 95.4591 50.7463 95.3355 50.7463C94.9597 50.7463 94.7718 50.573 94.7718 50.2265C94.7718 50.1562 94.7822 50.068 94.8019 49.963L95.2234 47.9375H94.7583L94.8517 47.5364Z" fill="black"/>
<path d="M99.1725 49.4359C99.1393 49.5913 99.1164 49.7477 99.104 49.9063C99.0915 50.0659 99.0853 50.2129 99.0853 50.3515V50.53C99.0853 50.5867 99.0894 50.6381 99.0977 50.6843H98.7562L98.67 50.1383H98.6451C98.5952 50.2087 98.535 50.2811 98.4624 50.3546C98.3897 50.4281 98.3108 50.4932 98.2236 50.552C98.1364 50.6108 98.044 50.6581 97.9443 50.6938C97.8457 50.7284 97.7398 50.7463 97.6287 50.7463C97.1366 50.7463 96.8916 50.4239 96.8916 49.775C96.8916 49.5083 96.9259 49.2364 96.9933 48.9612C97.0619 48.684 97.1667 48.4362 97.3089 48.2147C97.4512 47.9931 97.6349 47.8115 97.8592 47.6697C98.0845 47.528 98.3544 47.4566 98.6721 47.4566C98.7873 47.4566 98.9285 47.4702 99.0957 47.4975C99.2628 47.5248 99.4185 47.5616 99.5628 47.6078L99.1725 49.438V49.4359ZM97.7709 50.3452C97.8696 50.3452 97.9651 50.321 98.0554 50.2738C98.1457 50.2255 98.2319 50.1656 98.3129 50.0942C98.3938 50.0239 98.4644 49.9483 98.5267 49.8664C98.589 49.7845 98.6378 49.7078 98.6752 49.6375L99.0219 47.9448C98.8984 47.886 98.7406 47.8577 98.5506 47.8577C98.3606 47.8577 98.1924 47.9133 98.0492 48.0257C97.9038 48.1391 97.7824 48.2861 97.6827 48.4677C97.5841 48.6494 97.5093 48.8552 97.4595 49.0852C97.4097 49.3151 97.3847 49.5451 97.3847 49.774C97.3847 49.9325 97.4159 50.068 97.4782 50.1782C97.5394 50.2885 97.637 50.3441 97.7699 50.3441" fill="black"/>
<path d="M100.884 47.5364H101.349L100.692 50.6707H100.228L100.885 47.5364H100.884ZM100.982 46.5767C100.982 46.4801 101.014 46.3992 101.079 46.3331C101.143 46.2659 101.222 46.2333 101.318 46.2333C101.413 46.2333 101.493 46.2669 101.56 46.3331C101.626 46.4003 101.658 46.4811 101.658 46.5767C101.658 46.6722 101.625 46.7541 101.56 46.8182C101.493 46.8822 101.413 46.9148 101.318 46.9148C101.222 46.9148 101.143 46.8822 101.079 46.8182C101.014 46.7541 100.982 46.6722 100.982 46.5767Z" fill="black"/>
<path d="M103.809 50.6707L104.224 48.6893C104.241 48.6147 104.256 48.5402 104.268 48.4667C104.281 48.3932 104.287 48.3281 104.287 48.2693C104.287 48.1485 104.259 48.0498 104.203 47.9753C104.147 47.8997 104.043 47.8629 103.89 47.8629C103.782 47.8629 103.677 47.8871 103.574 47.9375C103.471 47.9879 103.373 48.0519 103.282 48.1286C103.191 48.2063 103.109 48.2924 103.037 48.3858C102.964 48.4793 102.904 48.5738 102.854 48.6651L102.445 50.6707H101.981L102.638 47.5364H102.96L102.935 48.075H102.96C103.014 48.0078 103.078 47.9385 103.152 47.865C103.226 47.7915 103.31 47.7264 103.403 47.6666C103.496 47.6088 103.601 47.5595 103.716 47.5196C103.831 47.4797 103.96 47.4597 104.1 47.4597C104.306 47.4597 104.469 47.5101 104.59 47.6099C104.71 47.7096 104.769 47.886 104.769 48.1359C104.769 48.2619 104.751 48.4131 104.713 48.5874L104.273 50.6686H103.809V50.6707Z" fill="black"/>
<path d="M107.812 49.4359C107.779 49.5913 107.756 49.7477 107.744 49.9063C107.731 50.0659 107.725 50.2129 107.725 50.3515V50.53C107.725 50.5867 107.729 50.6381 107.737 50.6843H107.396L107.31 50.1383H107.285C107.235 50.2087 107.175 50.2811 107.102 50.3546C107.029 50.4281 106.95 50.4932 106.863 50.552C106.776 50.6108 106.684 50.6581 106.584 50.6938C106.485 50.7284 106.379 50.7463 106.268 50.7463C105.776 50.7463 105.531 50.4239 105.531 49.775C105.531 49.5083 105.566 49.2364 105.633 48.9612C105.702 48.684 105.806 48.4362 105.949 48.2147C106.091 47.9931 106.275 47.8115 106.499 47.6697C106.724 47.528 106.994 47.4566 107.312 47.4566C107.427 47.4566 107.568 47.4702 107.735 47.4975C107.902 47.5248 108.058 47.5616 108.202 47.6078L107.812 49.438V49.4359ZM106.412 50.3452C106.51 50.3452 106.606 50.321 106.696 50.2738C106.786 50.2255 106.873 50.1656 106.954 50.0942C107.035 50.0239 107.105 49.9483 107.167 49.8664C107.23 49.7845 107.278 49.7078 107.316 49.6375L107.663 47.9448C107.539 47.886 107.381 47.8577 107.191 47.8577C107.001 47.8577 106.833 47.9133 106.69 48.0257C106.545 48.1391 106.423 48.2861 106.323 48.4677C106.225 48.6494 106.15 48.8552 106.1 49.0852C106.05 49.3151 106.025 49.5451 106.025 49.774C106.025 49.9325 106.057 50.068 106.119 50.1782C106.18 50.2885 106.278 50.3441 106.411 50.3441" fill="black"/>
<path d="M109.679 46.2827H110.144L109.766 48.0761H109.791C109.849 48.0005 109.916 47.927 109.99 47.8535C110.064 47.78 110.146 47.7149 110.238 47.6561C110.329 47.5973 110.426 47.55 110.529 47.5143C110.632 47.4797 110.744 47.4608 110.864 47.4608C111.108 47.4608 111.285 47.5479 111.397 47.7212C111.508 47.8944 111.564 48.1128 111.564 48.3764C111.564 48.7533 111.513 49.0851 111.41 49.3771C111.306 49.6669 111.17 49.9126 111.001 50.1131C110.832 50.3137 110.638 50.4659 110.421 50.5709C110.204 50.6749 109.982 50.7274 109.755 50.7274C109.528 50.7274 109.337 50.7032 109.168 50.6518C109.001 50.6024 108.879 50.5436 108.8 50.4764L109.68 46.2816L109.679 46.2827ZM110.714 47.8629C110.61 47.8629 110.506 47.8881 110.399 47.9406C110.291 47.9931 110.189 48.0614 110.091 48.1443C109.995 48.2283 109.905 48.3207 109.824 48.4247C109.744 48.5265 109.679 48.6263 109.629 48.7218L109.32 50.195C109.443 50.2822 109.62 50.3263 109.846 50.3263C109.978 50.3263 110.117 50.2853 110.262 50.2034C110.406 50.1226 110.539 50.0029 110.658 49.8464C110.778 49.69 110.876 49.4978 110.953 49.27C111.029 49.0421 111.068 48.7817 111.068 48.4887C111.068 48.2756 111.036 48.1181 110.972 48.0152C110.907 47.9123 110.822 47.8619 110.714 47.8619" fill="black"/>
<path d="M113.014 47.5364H113.479L112.822 50.6707H112.356L113.014 47.5364ZM113.112 46.5767C113.112 46.4801 113.144 46.3992 113.209 46.3331C113.273 46.2659 113.352 46.2333 113.448 46.2333C113.543 46.2333 113.623 46.2669 113.689 46.3331C113.756 46.4003 113.788 46.4811 113.788 46.5767C113.788 46.6722 113.755 46.7541 113.689 46.8182C113.623 46.8822 113.543 46.9148 113.448 46.9148C113.352 46.9148 113.273 46.8822 113.209 46.8182C113.144 46.7541 113.112 46.6722 113.112 46.5767Z" fill="black"/>
<path d="M114.711 49.9252C114.699 49.9955 114.692 50.0543 114.692 50.1005C114.692 50.1803 114.706 50.237 114.733 50.2738C114.76 50.3084 114.796 50.3263 114.842 50.3263C114.924 50.3263 114.993 50.3221 115.05 50.3105C115.106 50.3011 115.172 50.2801 115.251 50.2517V50.6087C115.214 50.6308 115.17 50.6476 115.121 50.6623C115.071 50.677 115.022 50.6885 114.97 50.6969C114.918 50.7053 114.866 50.7127 114.815 50.7179C114.763 50.7242 114.716 50.7274 114.676 50.7274C114.531 50.7274 114.415 50.6938 114.329 50.6276C114.242 50.5604 114.198 50.4376 114.198 50.258C114.198 50.174 114.211 50.0722 114.236 49.9504L115.005 46.2827H115.469L114.713 49.9252H114.711Z" fill="black"/>
<path d="M116.813 47.5364H117.278L116.621 50.6707H116.157L116.814 47.5364H116.813ZM116.912 46.5767C116.912 46.4801 116.944 46.3992 117.009 46.3331C117.073 46.2659 117.152 46.2333 117.247 46.2333C117.343 46.2333 117.423 46.2669 117.489 46.3331C117.556 46.4003 117.588 46.4811 117.588 46.5767C117.588 46.6722 117.555 46.7541 117.489 46.8182C117.423 46.8822 117.343 46.9148 117.247 46.9148C117.152 46.9148 117.073 46.8822 117.009 46.8182C116.944 46.7541 116.912 46.6722 116.912 46.5767Z" fill="black"/>
<path d="M118.127 47.5364H118.586L118.715 46.9158L119.21 46.772L119.05 47.5364H119.861L119.769 47.9375H118.963L118.573 49.8317C118.565 49.8811 118.557 49.9273 118.551 49.9693C118.545 50.0113 118.542 50.0491 118.542 50.0816C118.542 50.1814 118.565 50.2507 118.61 50.2885C118.655 50.3252 118.724 50.3452 118.815 50.3452C118.914 50.3452 119.005 50.3326 119.088 50.3074C119.171 50.2832 119.253 50.2454 119.336 50.195V50.5772C119.249 50.6276 119.138 50.6675 119.001 50.7001C118.865 50.7316 118.734 50.7463 118.61 50.7463C118.235 50.7463 118.047 50.573 118.047 50.2265C118.047 50.1562 118.057 50.068 118.077 49.963L118.498 47.9375H118.033L118.127 47.5364Z" fill="black"/>
<path d="M121.089 49.5671L121.121 50.1688H121.152L121.387 49.5608L122.415 47.5364H122.913L121.449 50.3315C121.342 50.5363 121.235 50.7358 121.13 50.93C121.025 51.1243 120.916 51.2986 120.804 51.4508C120.693 51.6031 120.577 51.7249 120.457 51.8173C120.337 51.9086 120.213 51.9548 120.086 51.9548C120.015 51.9548 119.954 51.9506 119.902 51.9422C119.85 51.9338 119.804 51.9202 119.763 51.8992L119.911 51.4666C119.957 51.4823 120.007 51.4907 120.06 51.4907C120.179 51.4907 120.299 51.4277 120.419 51.3028C120.539 51.1768 120.673 50.9668 120.822 50.6696L120.289 47.5353H120.785L121.088 49.5661L121.089 49.5671Z" fill="black"/>
<path d="M123.408 49.7435C123.408 49.5472 123.448 49.3592 123.529 49.1797C123.609 49.0001 123.714 48.8321 123.842 48.6767C123.969 48.5223 124.115 48.3837 124.276 48.2598C124.437 48.137 124.597 48.033 124.759 47.9501C124.73 47.8755 124.705 47.8073 124.685 47.7464C124.664 47.6855 124.647 47.6256 124.632 47.5647C124.617 47.5038 124.608 47.4419 124.602 47.3768C124.595 47.3127 124.592 47.2382 124.592 47.1542C124.592 47.0408 124.613 46.9295 124.655 46.8161C124.695 46.7037 124.76 46.6019 124.847 46.5116C124.934 46.4223 125.043 46.3499 125.173 46.2921C125.303 46.2365 125.459 46.2081 125.641 46.2081C125.785 46.2081 125.901 46.2281 125.991 46.268C126.08 46.3079 126.148 46.3562 126.198 46.415C126.248 46.4738 126.281 46.5389 126.297 46.6092C126.314 46.6806 126.322 46.7478 126.322 46.8108C126.322 47.0481 126.233 47.2697 126.052 47.4723C125.872 47.675 125.627 47.8619 125.317 48.033C125.358 48.1548 125.407 48.2798 125.463 48.4068C125.519 48.5339 125.58 48.6599 125.646 48.7848C125.712 48.9108 125.783 49.0358 125.857 49.1587C125.932 49.2815 126.006 49.396 126.08 49.501C126.134 49.4506 126.191 49.3865 126.25 49.3099C126.31 49.2332 126.369 49.1513 126.427 49.0652C126.484 48.9791 126.54 48.8909 126.594 48.7985C126.648 48.7071 126.697 48.6189 126.742 48.536L127.071 48.7176C127.034 48.789 126.982 48.8731 126.917 48.9718C126.85 49.0694 126.78 49.1702 126.706 49.2721C126.631 49.3739 126.556 49.4726 126.483 49.5661C126.408 49.6595 126.342 49.7383 126.285 49.8013C126.416 49.9682 126.528 50.0953 126.622 50.1835C126.715 50.2717 126.813 50.3483 126.917 50.4145L126.557 50.7662C126.461 50.7116 126.36 50.6329 126.253 50.5279C126.145 50.425 126.041 50.3032 125.938 50.1656C125.852 50.2402 125.758 50.3116 125.658 50.3819C125.56 50.4502 125.452 50.5121 125.337 50.5667C125.221 50.6213 125.096 50.6654 124.962 50.699C124.827 50.7326 124.685 50.7484 124.531 50.7484C124.358 50.7484 124.202 50.7242 124.063 50.6738C123.925 50.6234 123.806 50.5541 123.709 50.4638C123.612 50.3735 123.537 50.2685 123.487 50.1478C123.435 50.027 123.409 49.8926 123.409 49.7467M125.72 49.8496C125.634 49.7278 125.549 49.5965 125.469 49.4548C125.388 49.313 125.312 49.1713 125.242 49.0285C125.172 48.8867 125.108 48.7502 125.053 48.6179C124.997 48.4856 124.951 48.3701 124.914 48.2693C124.766 48.3659 124.629 48.4677 124.505 48.5759C124.38 48.6851 124.274 48.7964 124.186 48.9119C124.097 49.0274 124.028 49.1461 123.978 49.2668C123.928 49.3876 123.904 49.5115 123.904 49.6364C123.904 49.8622 123.971 50.0312 124.108 50.1446C124.244 50.258 124.438 50.3137 124.685 50.3137C124.783 50.3137 124.884 50.3011 124.983 50.2738C125.081 50.2454 125.177 50.2097 125.267 50.1667C125.358 50.1226 125.442 50.0732 125.518 50.0186C125.594 49.964 125.662 49.9084 125.72 49.8496ZM125.056 47.1416C125.056 47.2046 125.058 47.2602 125.063 47.3106C125.067 47.361 125.074 47.4072 125.084 47.4513C125.095 47.4954 125.107 47.5406 125.122 47.5857C125.136 47.6319 125.156 47.6865 125.181 47.7495C125.417 47.6067 125.593 47.4713 125.71 47.3421C125.828 47.213 125.887 47.0691 125.887 46.9095C125.887 46.8255 125.863 46.7541 125.815 46.6964C125.769 46.6386 125.687 46.6082 125.571 46.6082C125.476 46.6082 125.397 46.6229 125.332 46.6523C125.269 46.6806 125.216 46.7226 125.175 46.7751C125.134 46.8276 125.103 46.8854 125.085 46.9505C125.067 47.0156 125.057 47.0796 125.057 47.1416" fill="#4BAD35"/>
<path d="M129.072 46.3268C129.245 46.2932 129.414 46.269 129.575 46.2543C129.735 46.2396 129.896 46.2333 130.058 46.2333C130.22 46.2333 130.368 46.2522 130.517 46.2921C130.666 46.332 130.798 46.395 130.911 46.4811C131.025 46.5672 131.115 46.6796 131.184 46.8161C131.252 46.9536 131.285 47.1206 131.285 47.318C131.285 47.6855 131.18 47.991 130.967 48.2367C130.754 48.4803 130.446 48.6378 130.04 48.7103L130.263 48.9361L130.933 50.6728H130.394L129.65 48.7796L129.068 48.6851L128.658 50.6728H128.162L129.073 46.3289L129.072 46.3268ZM130.027 46.6848C129.929 46.6848 129.828 46.6869 129.729 46.6932C129.631 46.6995 129.548 46.709 129.482 46.7216L129.141 48.3396H129.568C129.717 48.3396 129.863 48.3249 130.005 48.2955C130.148 48.2661 130.275 48.2136 130.39 48.138C130.503 48.0635 130.594 47.9606 130.663 47.8314C130.731 47.7023 130.764 47.5385 130.764 47.3421C130.764 47.2665 130.75 47.1899 130.721 47.1143C130.692 47.0366 130.648 46.9652 130.59 46.9011C130.533 46.836 130.456 46.7835 130.36 46.7436C130.266 46.7037 130.155 46.6848 130.026 46.6848" fill="black"/>
<path d="M133.839 50.3641C133.695 50.4901 133.524 50.5846 133.329 50.6486C133.132 50.7137 132.935 50.7452 132.737 50.7452C132.406 50.7452 132.157 50.6497 131.991 50.4575C131.823 50.2654 131.739 49.9976 131.739 49.6543C131.739 49.3109 131.787 49.0054 131.883 48.7334C131.977 48.4615 132.103 48.2315 132.257 48.0435C132.412 47.8556 132.587 47.7107 132.784 47.6109C132.98 47.5112 133.181 47.4608 133.388 47.4608C133.536 47.4608 133.665 47.4828 133.775 47.5238C133.885 47.5647 133.974 47.6204 134.045 47.6897C134.116 47.759 134.167 47.8388 134.201 47.927C134.234 48.0173 134.251 48.1118 134.251 48.2126C134.251 48.5087 134.107 48.7429 133.823 48.9119C133.537 49.081 133.122 49.166 132.577 49.166C132.527 49.166 132.475 49.1639 132.422 49.1629C132.368 49.1608 132.312 49.1576 132.255 49.1534C132.239 49.2332 132.226 49.3078 132.218 49.3792C132.21 49.4495 132.206 49.5125 132.206 49.5671C132.206 49.7981 132.257 49.984 132.361 50.1289C132.464 50.2738 132.625 50.3452 132.845 50.3452C133.027 50.3452 133.193 50.3147 133.343 50.2549C133.494 50.194 133.611 50.131 133.694 50.0627L133.843 50.3641H133.839ZM133.313 47.8629C133.086 47.8629 132.889 47.9406 132.721 48.0981C132.554 48.2535 132.427 48.4898 132.34 48.8027C132.497 48.8027 132.66 48.7985 132.83 48.7901C133 48.7817 133.153 48.7597 133.292 48.725C133.43 48.6893 133.546 48.6326 133.637 48.556C133.728 48.4793 133.773 48.3711 133.773 48.2336C133.773 48.1916 133.766 48.1485 133.752 48.1044C133.738 48.0603 133.714 48.0204 133.681 47.9858C133.647 47.9501 133.601 47.9207 133.542 47.8976C133.481 47.8745 133.407 47.8629 133.315 47.8629" fill="black"/>
<path d="M136.822 50.4019C136.76 50.4565 136.688 50.5048 136.608 50.5457C136.527 50.5877 136.445 50.6234 136.36 50.6518C136.275 50.6812 136.191 50.7043 136.109 50.7211C136.026 50.7379 135.948 50.7452 135.874 50.7452C135.672 50.7452 135.505 50.7137 135.375 50.6486C135.244 50.5846 135.142 50.5016 135.068 50.4008C134.994 50.3011 134.942 50.1919 134.913 50.0753C134.885 49.9588 134.869 49.8475 134.869 49.7425C134.869 49.3876 134.917 49.0694 135.012 48.7859C135.107 48.5045 135.235 48.2651 135.393 48.0687C135.552 47.8724 135.735 47.7222 135.942 47.6172C136.148 47.5133 136.361 47.4608 136.58 47.4608C136.737 47.4608 136.867 47.4755 136.967 47.5049C137.069 47.5343 137.16 47.5679 137.243 47.6046L137.07 47.9931C137.001 47.9511 136.913 47.9196 136.809 47.8965C136.707 47.8734 136.595 47.8629 136.474 47.8629C136.334 47.8629 136.197 47.9102 136.062 48.0068C135.928 48.1034 135.809 48.2294 135.706 48.3858C135.602 48.5423 135.52 48.7219 135.458 48.9245C135.395 49.1272 135.365 49.3351 135.365 49.5482C135.365 49.8202 135.421 50.0207 135.533 50.1509C135.645 50.2801 135.795 50.3452 135.985 50.3452C136.109 50.3452 136.24 50.3168 136.376 50.2612C136.513 50.2045 136.622 50.1467 136.704 50.0879L136.822 50.4019Z" fill="black"/>
<path d="M138.625 49.5671L138.655 50.1688H138.686L138.922 49.5608L139.951 47.5364H140.447L138.984 50.3315C138.876 50.5363 138.771 50.7358 138.666 50.93C138.56 51.1243 138.452 51.2986 138.34 51.4508C138.228 51.6031 138.112 51.7249 137.992 51.8173C137.873 51.9086 137.748 51.9548 137.62 51.9548C137.551 51.9548 137.488 51.9506 137.438 51.9422C137.386 51.9338 137.339 51.9202 137.297 51.8992L137.447 51.4666C137.492 51.4823 137.541 51.4907 137.595 51.4907C137.715 51.4907 137.835 51.4277 137.955 51.3028C138.074 51.1768 138.209 50.9668 138.358 50.6696L137.826 47.5353H138.321L138.625 49.5661V49.5671Z" fill="black"/>
<path d="M142.555 50.4019C142.493 50.4565 142.421 50.5048 142.341 50.5457C142.26 50.5877 142.177 50.6234 142.093 50.6518C142.008 50.6812 141.924 50.7043 141.842 50.7211C141.759 50.7379 141.681 50.7452 141.607 50.7452C141.405 50.7452 141.237 50.7137 141.108 50.6486C140.977 50.5846 140.875 50.5016 140.801 50.4008C140.727 50.3011 140.675 50.1919 140.646 50.0753C140.618 49.9588 140.602 49.8475 140.602 49.7425C140.602 49.3876 140.65 49.0694 140.745 48.7859C140.84 48.5045 140.967 48.2651 141.126 48.0687C141.285 47.8724 141.468 47.7222 141.674 47.6172C141.881 47.5133 142.094 47.4608 142.313 47.4608C142.47 47.4608 142.6 47.4755 142.7 47.5049C142.802 47.5343 142.893 47.5679 142.976 47.6046L142.803 47.9931C142.733 47.9511 142.646 47.9196 142.542 47.8965C142.44 47.8734 142.328 47.8629 142.207 47.8629C142.067 47.8629 141.93 47.9102 141.795 48.0068C141.661 48.1034 141.542 48.2294 141.439 48.3858C141.335 48.5423 141.253 48.7219 141.191 48.9245C141.128 49.1272 141.098 49.3351 141.098 49.5482C141.098 49.8202 141.154 50.0207 141.265 50.1509C141.378 50.2801 141.528 50.3452 141.718 50.3452C141.842 50.3452 141.971 50.3168 142.108 50.2612C142.245 50.2045 142.354 50.1467 142.437 50.0879L142.555 50.4019Z" fill="black"/>
<path d="M143.98 49.9252C143.968 49.9955 143.962 50.0543 143.962 50.1005C143.962 50.1803 143.975 50.237 144.002 50.2738C144.029 50.3084 144.065 50.3263 144.111 50.3263C144.193 50.3263 144.263 50.3221 144.319 50.3105C144.375 50.3011 144.442 50.2801 144.521 50.2517V50.6087C144.484 50.6308 144.44 50.6476 144.39 50.6623C144.34 50.677 144.291 50.6885 144.239 50.6969C144.187 50.7053 144.135 50.7127 144.084 50.7179C144.032 50.7242 143.985 50.7274 143.944 50.7274C143.8 50.7274 143.683 50.6938 143.597 50.6276C143.51 50.5604 143.466 50.4376 143.466 50.258C143.466 50.174 143.479 50.0722 143.504 49.9504L144.272 46.2827H144.737L143.981 49.9252H143.98Z" fill="black"/>
<path d="M146.081 47.5364H146.547L145.889 50.6707H145.425L146.082 47.5364H146.081ZM146.181 46.5767C146.181 46.4801 146.212 46.3992 146.277 46.3331C146.34 46.2659 146.421 46.2333 146.515 46.2333C146.61 46.2333 146.691 46.2669 146.756 46.3331C146.823 46.4003 146.855 46.4811 146.855 46.5767C146.855 46.6722 146.822 46.7541 146.756 46.8182C146.69 46.8822 146.609 46.9148 146.515 46.9148C146.422 46.9148 146.34 46.8822 146.277 46.8182C146.212 46.7541 146.181 46.6722 146.181 46.5767Z" fill="black"/>
<path d="M149.008 50.6707L149.424 48.6893C149.44 48.6147 149.455 48.5402 149.467 48.4667C149.48 48.3932 149.486 48.3281 149.486 48.2693C149.486 48.1485 149.458 48.0498 149.403 47.9753C149.347 47.8997 149.242 47.8629 149.089 47.8629C148.982 47.8629 148.877 47.8871 148.774 47.9375C148.671 47.9879 148.573 48.0519 148.483 48.1286C148.392 48.2063 148.31 48.2924 148.238 48.3858C148.165 48.4793 148.105 48.5738 148.055 48.6651L147.646 50.6707H147.182L147.839 47.5364H148.161L148.136 48.075H148.161C148.215 48.0078 148.278 47.9385 148.353 47.865C148.428 47.7915 148.511 47.7264 148.604 47.6666C148.698 47.6088 148.802 47.5595 148.918 47.5196C149.033 47.4797 149.162 47.4597 149.302 47.4597C149.509 47.4597 149.673 47.5101 149.792 47.6099C149.913 47.7096 149.972 47.886 149.972 48.1359C149.972 48.2619 149.953 48.4131 149.916 48.5874L149.475 50.6686H149.011L149.008 50.6707Z" fill="black"/>
<path d="M152.832 50.8156C152.746 51.224 152.596 51.5243 152.383 51.7144C152.172 51.9044 151.889 52 151.539 52C151.272 52 151.051 51.9653 150.878 51.896C150.705 51.8257 150.573 51.7669 150.481 51.7175L150.687 51.3658C150.72 51.3826 150.76 51.4046 150.807 51.4319C150.855 51.4592 150.913 51.4855 150.981 51.5096C151.049 51.5348 151.131 51.5558 151.229 51.5737C151.325 51.5894 151.441 51.5978 151.573 51.5978C151.779 51.5978 151.953 51.5222 152.093 51.3721C152.234 51.2219 152.339 50.9857 152.409 50.6633L152.521 50.1373H152.497C152.438 50.2171 152.375 50.2916 152.308 50.363C152.24 50.4334 152.164 50.4974 152.082 50.5541C151.999 50.6108 151.909 50.656 151.812 50.6896C151.715 50.7232 151.609 50.7389 151.494 50.7389C151.27 50.7389 151.091 50.6581 150.955 50.4953C150.818 50.3326 150.749 50.1005 150.749 49.7992C150.749 49.5188 150.788 49.2405 150.863 48.9654C150.939 48.6882 151.053 48.4415 151.204 48.222C151.355 48.0026 151.539 47.8241 151.76 47.6865C151.981 47.549 152.235 47.4786 152.524 47.4786C152.746 47.4786 152.934 47.4975 153.086 47.5353C153.239 47.5731 153.373 47.6193 153.489 47.6729L152.832 50.8145V50.8156ZM151.666 50.3389C151.77 50.3389 151.872 50.3116 151.973 50.258C152.074 50.2034 152.167 50.1341 152.253 50.048C152.337 49.9619 152.413 49.8685 152.481 49.7677C152.549 49.6679 152.606 49.5734 152.651 49.4863L152.967 47.9753C152.9 47.9375 152.82 47.9112 152.726 47.8997C152.63 47.8871 152.534 47.8818 152.434 47.8818C152.265 47.8818 152.108 47.9312 151.963 48.0309C151.819 48.1307 151.693 48.2661 151.588 48.4352C151.482 48.6042 151.399 48.8006 151.337 49.0211C151.275 49.2426 151.243 49.4747 151.243 49.7173C151.243 49.9094 151.282 50.0606 151.359 50.1709C151.434 50.2811 151.537 50.3368 151.665 50.3368" fill="black"/>
<path d="M156.736 24.6859C156.527 24.6859 156.33 24.5757 156.22 24.3919C156.102 24.1955 156.104 23.9498 156.224 23.7545C156.293 23.6411 163.368 12.3188 178.281 9.3609C178.516 9.3168 178.755 9.41235 178.892 9.61081C179.029 9.80926 179.037 10.0707 178.914 10.2765C178.834 10.4099 170.74 23.6422 156.782 24.6849C156.768 24.6849 156.752 24.6859 156.737 24.6859M177.035 10.8855C166.257 13.5221 160.039 20.6223 158 23.3293C168.092 21.9695 174.778 13.9988 177.035 10.8855Z" fill="#95C11F"/>
<path d="M160.382 21.5569C161.352 20.7095 162.345 19.9419 163.359 19.1859C164.373 18.4331 165.406 17.7117 166.453 17.0092C168.552 15.6169 170.704 14.3128 172.903 13.1032C170.77 14.4304 168.695 15.8458 166.683 17.3431C165.681 18.097 164.693 18.8688 163.73 19.6679C162.77 20.4669 161.815 21.2922 160.934 22.1501L160.925 22.1585C160.766 22.315 160.51 22.3097 160.356 22.148C160.202 21.9863 160.207 21.728 160.367 21.5726C160.372 21.5674 160.377 21.5621 160.382 21.5579" fill="#95C11F"/>
<path d="M158.415 17.8209C158.325 17.8209 158.236 17.8009 158.152 17.76C158.034 17.7033 146.464 11.8946 146.835 0.59011C146.843 0.375906 146.96 0.180603 147.147 0.0766513C147.333 -0.0262504 147.559 -0.0241504 147.742 0.0829514C148.184 0.343356 158.587 6.56786 159.017 17.1856C159.026 17.4009 158.923 17.6035 158.745 17.7211C158.646 17.7883 158.529 17.8209 158.414 17.8209M148.048 1.73988C148.385 9.71791 155.177 14.5753 157.725 16.122C156.852 8.57024 150.455 3.42621 148.048 1.73988Z" fill="#95C11F"/>
<path d="M155.48 13.3027C154.88 12.6433 154.392 11.9775 153.896 11.2877C153.406 10.601 152.94 9.90061 152.49 9.1908C151.588 7.77328 150.744 6.3232 149.938 4.85318C150.858 6.2518 151.813 7.62628 152.819 8.95665C153.321 9.62236 153.837 10.2765 154.372 10.9118C154.902 11.5397 155.464 12.1792 156.034 12.7126L156.051 12.7283C156.214 12.8806 156.225 13.1389 156.074 13.3048C155.923 13.4707 155.668 13.4801 155.504 13.3279C155.496 13.3205 155.489 13.3121 155.481 13.3048" fill="#95C11F"/>
<path d="M79.7972 49.6417C76.4377 49.5787 73.0792 49.5619 69.7217 49.4621L64.6876 49.271L62.1711 49.1734L59.6566 49.0232L54.6287 48.7218L49.6081 48.3239C46.259 48.0834 42.9233 47.6918 39.5835 47.3652C32.9132 46.5956 26.2627 45.6715 19.6516 44.5071C13.0467 43.3258 6.45952 41.9881 0 40.1653C6.49378 41.8568 13.0997 43.0591 19.717 44.1049C26.3395 45.1339 32.9963 45.9214 39.6635 46.5546C43.0033 46.8129 46.3358 47.1363 49.6808 47.3085L54.6942 47.6036L59.7116 47.8031L62.2199 47.9028L64.7302 47.949L69.7498 48.0383C73.0958 48.0708 76.4429 48.0194 79.7879 48.0141H79.8107C80.255 48.0141 80.6163 48.3774 80.6174 48.8268C80.6174 49.2763 80.2582 49.6417 79.8138 49.6427C79.8097 49.6427 79.8014 49.6427 79.7982 49.6427" fill="black"/>
<mask id="mask0_94_1253" style="mask-type:luminance" maskUnits="userSpaceOnUse" x="1" y="7" width="153" height="28">
<path d="M93.7659 21.4728C93.7659 17.9175 97.1992 17.9679 99.0035 17.9679H100.293C102.097 17.9679 105.802 18.012 105.802 21.4728V22.8305H93.767V21.4728H93.7659ZM97.8688 15.7482C95.4924 15.7482 90.5414 16.5976 90.5414 21.1767V28.7726C90.5414 33.6919 95.4924 34.2012 97.8688 34.2012H101.743C104.12 34.2012 109.025 33.5512 109.025 28.7726V27.7436H105.8V28.4765C105.8 32.0654 102.096 31.9814 100.292 31.9814H99.0025C97.1982 31.9814 93.7649 32.1851 93.7649 28.4765V24.9736H109.024V21.1767C109.024 16.8003 104.119 15.7482 101.742 15.7482H97.8678H97.8688ZM120.146 15.7482C117.77 15.7482 112.819 16.5976 112.819 21.1767V28.7726C112.819 33.6919 117.77 34.2012 120.146 34.2012H124.02C126.397 34.2012 131.302 33.5512 131.302 28.7726V27.7436H128.078V28.4765C128.078 32.0654 124.373 31.9814 122.569 31.9814H121.28C119.475 31.9814 116.042 32.1851 116.042 28.4765V21.4718C116.042 17.9164 119.475 17.9668 121.28 17.9668H122.569C124.373 17.9668 128.078 18.0109 128.078 21.4718V21.7007H131.302V21.1757C131.302 16.7992 126.397 15.7471 124.02 15.7471H120.146V15.7482ZM138.32 28.4775V21.4728C138.32 17.9175 141.753 17.9679 143.558 17.9679H144.846C146.651 17.9679 150.355 18.012 150.355 21.4728V28.4775C150.355 32.0665 146.651 31.9825 144.846 31.9825H143.558C143.379 31.9825 143.185 31.9846 142.98 31.9846C141.108 31.9846 138.32 31.8197 138.32 28.4775ZM142.423 15.7482C140.047 15.7482 135.096 16.5976 135.096 21.1767V28.7726C135.096 33.6919 140.047 34.2012 142.423 34.2012H146.298C148.674 34.2012 153.579 33.5512 153.579 28.7726V21.1767C153.579 16.8003 148.674 15.7482 146.298 15.7482H142.423ZM32.4887 34.2012H37.6692V15.6327H32.4887V34.2012ZM53.4817 25.674C53.4817 25.674 56.9917 25.5753 56.89 28.5384C56.7882 31.5005 53.8907 31.4018 53.8907 31.4018H50.7554C49.6311 31.4018 47.2111 31.4354 47.2111 28.4366C47.2111 25.4377 50.7554 25.6792 50.7554 25.6792L53.4817 25.674ZM42.9857 20.9783H48.1319C48.1319 20.9783 48.4725 18.3595 51.4032 18.3595H54.0277C54.0277 18.3595 56.8568 18.4981 56.8568 21.497V25.024C56.8568 25.024 55.4594 22.6804 50.6547 22.7497C45.849 22.8179 41.9984 23.9897 41.9984 28.5395C41.9984 33.0892 45.85 34.2001 49.9394 34.2001C54.0288 34.2001 56.4145 32.4004 56.8578 31.4344V34.2001H61.9013V20.7378C61.9013 20.7378 61.8234 15.661 55.2808 15.661C50.8644 15.661 49.9301 15.6327 49.7349 15.6327C49.7349 15.6327 49.6861 15.6306 49.5978 15.6306C48.6407 15.6306 42.9868 15.8479 42.9868 20.9783M70.8119 19.0358V15.6348H65.9045V34.2033H70.9822V22.2425C70.9822 22.2425 72.1117 18.4919 75.7308 18.3627C79.8326 18.2178 80.3548 20.4155 80.3548 22.0357V34.2033H85.3983V21.1001C85.3983 21.1001 85.5343 15.6348 77.8663 15.6348C77.8663 15.6348 77.7272 15.6264 77.4863 15.6264C76.2083 15.6264 72.0733 15.8763 70.8109 19.0368M10.5438 7.29867C4.30333 7.29867 1.58643 11.5124 1.58643 15.2126V26.2861C1.58643 29.9864 4.36666 34.2001 10.5438 34.2001H19.0631C22.4984 34.2001 28.309 33.3286 28.309 26.2861V20.0543H14.9166V23.7146H22.7382V24.9148C22.7382 27.7246 21.8454 30.0252 17.9948 30.0252H12.0844C9.0862 30.0252 7.34103 27.7246 7.34103 24.9148V16.6953C7.34103 13.8854 8.9585 11.5848 12.0844 11.5848H17.9948C21.9087 11.5848 22.1672 13.3216 22.6292 15.619H28.309V15.2116C28.309 11.5113 28.2063 7.29762 19.0631 7.29762H10.5438V7.29867ZM32.4887 10.8498H37.6692V7.29867H32.4887V10.8498Z" fill="white"/>
</mask>
<g mask="url(#mask0_94_1253)">
<mask id="mask1_94_1253" style="mask-type:luminance" maskUnits="userSpaceOnUse" x="1" y="7" width="153" height="28">
<path d="M153.579 7.29877H1.58643V34.2023H153.579V7.29877Z" fill="white"/>
</mask>
<g mask="url(#mask1_94_1253)">
<path d="M2.18649 7.29877H1.58643V34.2023H2.18649V7.29877Z" fill="black"/>
<path d="M2.78659 7.29867H2.18652V34.2022H2.78659V7.29867Z" fill="#010100"/>
<path d="M3.38669 7.29867H2.78662V34.2022H3.38669V7.29867Z" fill="#010301"/>
<path d="M3.98678 7.29867H3.38672V34.2022H3.98678V7.29867Z" fill="#020401"/>
<path d="M4.5859 7.29867H3.98584V34.2022H4.5859V7.29867Z" fill="#030602"/>
<path d="M5.186 7.29867H4.58594V34.2022H5.186V7.29867Z" fill="#030702"/>
<path d="M5.78561 7.29867H5.18555V34.2022H5.78561V7.29867Z" fill="#040903"/>
<path d="M6.38571 7.29867H5.78564V34.2022H6.38571V7.29867Z" fill="#040A03"/>
<path d="M6.98581 7.29867H6.38574V34.2022H6.98581V7.29867Z" fill="#050C04"/>
<path d="M7.5859 7.29867H6.98584V34.2022H7.5859V7.29867Z" fill="#060D04"/>
<path d="M8.18503 7.29867H7.58496V34.2022H8.18503V7.29867Z" fill="#060F04"/>
<path d="M8.78512 7.29867H8.18506V34.2022H8.78512V7.29867Z" fill="#071005"/>
<path d="M9.38522 7.29867H8.78516V34.2022H9.38522V7.29867Z" fill="#071105"/>
<path d="M9.98532 7.29867H9.38525V34.2022H9.98532V7.29867Z" fill="#081306"/>
<path d="M10.5854 7.29867H9.98535V34.2022H10.5854V7.29867Z" fill="#091406"/>
<path d="M11.1845 7.29867H10.5845V34.2022H11.1845V7.29867Z" fill="#091607"/>
<path d="M11.7846 7.29867H11.1846V34.2022H11.7846V7.29867Z" fill="#0A1707"/>
<path d="M12.3842 7.29867H11.7842V34.2022H12.3842V7.29867Z" fill="#0A1807"/>
<path d="M12.9843 7.29867H12.3843V34.2022H12.9843V7.29867Z" fill="#0B1A08"/>
<path d="M13.5844 7.29867H12.9844V34.2022H13.5844V7.29867Z" fill="#0C1B08"/>
<path d="M14.1845 7.29867H13.5845V34.2022H14.1845V7.29867Z" fill="#0C1D09"/>
<path d="M14.7837 7.29867H14.1836V34.2022H14.7837V7.29867Z" fill="#0D1E09"/>
<path d="M15.3838 7.29867H14.7837V34.2022H15.3838V7.29867Z" fill="#0D1F09"/>
<path d="M15.9839 7.29867H15.3838V34.2022H15.9839V7.29867Z" fill="#0E210A"/>
<path d="M16.584 7.29867H15.9839V34.2022H16.584V7.29867Z" fill="#0F220A"/>
<path d="M17.184 7.29867H16.584V34.2022H17.184V7.29867Z" fill="#0F240B"/>
<path d="M17.7841 7.29867H17.1841V34.2022H17.7841V7.29867Z" fill="#10250B"/>
<path d="M18.3833 7.29867H17.7832V34.2022H18.3833V7.29867Z" fill="#10260C"/>
<path d="M18.9829 7.29867H18.3828V34.2022H18.9829V7.29867Z" fill="#11280C"/>
<path d="M19.583 7.29867H18.9829V34.2022H19.583V7.29867Z" fill="#12290C"/>
<path d="M20.1831 7.29867H19.583V34.2022H20.1831V7.29867Z" fill="#122A0D"/>
<path d="M20.7832 7.29867H20.1831V34.2022H20.7832V7.29867Z" fill="#132C0D"/>
<path d="M21.3833 7.29867H20.7832V34.2022H21.3833V7.29867Z" fill="#132D0E"/>
<path d="M21.9824 7.29867H21.3823V34.2022H21.9824V7.29867Z" fill="#142E0E"/>
<path d="M22.5825 7.29867H21.9824V34.2022H22.5825V7.29867Z" fill="#14300E"/>
<path d="M23.1826 7.29867H22.5825V34.2022H23.1826V7.29867Z" fill="#15310F"/>
<path d="M23.7827 7.29867H23.1826V34.2022H23.7827V7.29867Z" fill="#16320F"/>
<path d="M24.3828 7.29867H23.7827V34.2022H24.3828V7.29867Z" fill="#163410"/>
<path d="M24.9829 7.29867H24.3828V34.2022H24.9829V7.29867Z" fill="#173510"/>
<path d="M25.582 7.29867H24.9819V34.2022H25.582V7.29867Z" fill="#173610"/>
<path d="M26.1816 7.29867H25.5815V34.2022H26.1816V7.29867Z" fill="#183811"/>
<path d="M26.7817 7.29867H26.1816V34.2022H26.7817V7.29867Z" fill="#183911"/>
<path d="M27.3818 7.29867H26.7817V34.2022H27.3818V7.29867Z" fill="#193A12"/>
<path d="M27.9819 7.29867H27.3818V34.2022H27.9819V7.29867Z" fill="#193C12"/>
<path d="M28.581 7.29867H27.981V34.2022H28.581V7.29867Z" fill="#1A3D12"/>
<path d="M29.1811 7.29867H28.5811V34.2022H29.1811V7.29867Z" fill="#1B3E13"/>
<path d="M29.7812 7.29867H29.1812V34.2022H29.7812V7.29867Z" fill="#1B3F13"/>
<path d="M30.3813 7.29867H29.7812V34.2022H30.3813V7.29867Z" fill="#1C4113"/>
<path d="M30.9814 7.29867H30.3813V34.2022H30.9814V7.29867Z" fill="#1C4214"/>
<path d="M31.5815 7.29867H30.9814V34.2022H31.5815V7.29867Z" fill="#1D4314"/>
<path d="M32.1806 7.29867H31.5806V34.2022H32.1806V7.29867Z" fill="#1D4415"/>
<path d="M32.7802 7.29867H32.1802V34.2022H32.7802V7.29867Z" fill="#1E4615"/>
<path d="M33.3803 7.29867H32.7803V34.2022H33.3803V7.29867Z" fill="#1E4715"/>
<path d="M33.9804 7.29867H33.3804V34.2022H33.9804V7.29867Z" fill="#1F4816"/>
<path d="M34.5805 7.29867H33.9805V34.2022H34.5805V7.29867Z" fill="#1F4916"/>
<path d="M35.1806 7.29867H34.5806V34.2022H35.1806V7.29867Z" fill="#204B16"/>
<path d="M35.7798 7.29867H35.1797V34.2022H35.7798V7.29867Z" fill="#204C17"/>
<path d="M36.3799 7.29867H35.7798V34.2022H36.3799V7.29867Z" fill="#214D17"/>
<path d="M36.9799 7.29867H36.3799V34.2022H36.9799V7.29867Z" fill="#224E18"/>
<path d="M37.58 7.29867H36.98V34.2022H37.58V7.29867Z" fill="#225018"/>
<path d="M38.1801 7.29867H37.5801V34.2022H38.1801V7.29867Z" fill="#235118"/>
<path d="M38.7802 7.29867H38.1802V34.2022H38.7802V7.29867Z" fill="#235219"/>
<path d="M39.3789 7.29867H38.7788V34.2022H39.3789V7.29867Z" fill="#245319"/>
<path d="M39.979 7.29867H39.3789V34.2022H39.979V7.29867Z" fill="#245419"/>
<path d="M40.5791 7.29867H39.979V34.2022H40.5791V7.29867Z" fill="#25561A"/>
<path d="M41.1792 7.29867H40.5791V34.2022H41.1792V7.29867Z" fill="#25571A"/>
<path d="M41.7793 7.29867H41.1792V34.2022H41.7793V7.29867Z" fill="#26581A"/>
<path d="M42.3794 7.29867H41.7793V34.2022H42.3794V7.29867Z" fill="#26591B"/>
<path d="M42.9785 7.29867H42.3784V34.2022H42.9785V7.29867Z" fill="#275A1B"/>
<path d="M43.5786 7.29867H42.9785V34.2022H43.5786V7.29867Z" fill="#275B1B"/>
<path d="M44.1787 7.29867H43.5786V34.2022H44.1787V7.29867Z" fill="#285D1C"/>
<path d="M44.7788 7.29867H44.1787V34.2022H44.7788V7.29867Z" fill="#285E1C"/>
<path d="M45.3789 7.29867H44.7788V34.2022H45.3789V7.29867Z" fill="#295F1D"/>
<path d="M45.979 7.29867H45.3789V34.2022H45.979V7.29867Z" fill="#29601D"/>
<path d="M46.5776 7.29867H45.9775V34.2022H46.5776V7.29867Z" fill="#2A611D"/>
<path d="M47.1777 7.29867H46.5776V34.2022H47.1777V7.29867Z" fill="#2A621E"/>
<path d="M47.7778 7.29867H47.1777V34.2022H47.7778V7.29867Z" fill="#2B631E"/>
<path d="M48.3779 7.29867H47.7778V34.2022H48.3779V7.29867Z" fill="#2B651E"/>
<path d="M48.978 7.29867H48.3779V34.2022H48.978V7.29867Z" fill="#2B661F"/>
<path d="M49.5771 7.29867H48.9771V34.2022H49.5771V7.29867Z" fill="#2C671F"/>
<path d="M50.1772 7.29867H49.5771V34.2022H50.1772V7.29867Z" fill="#2C681F"/>
<path d="M50.7773 7.29867H50.1772V34.2022H50.7773V7.29867Z" fill="#2D6920"/>
<path d="M51.3774 7.29867H50.7773V34.2022H51.3774V7.29867Z" fill="#2D6A20"/>
<path d="M51.9775 7.29867H51.3774V34.2022H51.9775V7.29867Z" fill="#2E6B20"/>
<path d="M52.5776 7.29867H51.9775V34.2022H52.5776V7.29867Z" fill="#2E6C21"/>
<path d="M53.1762 7.29867H52.5762V34.2022H53.1762V7.29867Z" fill="#2F6D21"/>
<path d="M53.7763 7.29867H53.1763V34.2022H53.7763V7.29867Z" fill="#2F6E21"/>
<path d="M54.3764 7.29867H53.7764V34.2022H54.3764V7.29867Z" fill="#306F21"/>
<path d="M54.9765 7.29867H54.3765V34.2022H54.9765V7.29867Z" fill="#307122"/>
<path d="M55.5766 7.29867H54.9766V34.2022H55.5766V7.29867Z" fill="#317222"/>
<path d="M56.1767 7.29867H55.5767V34.2022H56.1767V7.29867Z" fill="#317322"/>
<path d="M56.7758 7.29867H56.1758V34.2022H56.7758V7.29867Z" fill="#317423"/>
<path d="M57.3759 7.29867H56.7759V34.2022H57.3759V7.29867Z" fill="#327523"/>
<path d="M57.976 7.29867H57.376V34.2022H57.976V7.29867Z" fill="#327623"/>
<path d="M58.5761 7.29867H57.9761V34.2022H58.5761V7.29867Z" fill="#337724"/>
<path d="M59.1762 7.29867H58.5762V34.2022H59.1762V7.29867Z" fill="#337824"/>
<path d="M59.7763 7.29867H59.1763V34.2022H59.7763V7.29867Z" fill="#347924"/>
<path d="M60.375 7.29867H59.7749V34.2022H60.375V7.29867Z" fill="#347A25"/>
<path d="M60.9751 7.29867H60.375V34.2022H60.9751V7.29867Z" fill="#357B25"/>
<path d="M61.5752 7.29867H60.9751V34.2022H61.5752V7.29867Z" fill="#357C25"/>
<path d="M62.1753 7.29867H61.5752V34.2022H62.1753V7.29867Z" fill="#357D25"/>
<path d="M62.7754 7.29867H62.1753V34.2022H62.7754V7.29867Z" fill="#367E26"/>
<path d="M63.3755 7.29867H62.7754V34.2022H63.3755V7.29867Z" fill="#367F26"/>
<path d="M63.9746 7.29867H63.3745V34.2022H63.9746V7.29867Z" fill="#378026"/>
<path d="M64.5747 7.29867H63.9746V34.2022H64.5747V7.29867Z" fill="#378127"/>
<path d="M65.1748 7.29867H64.5747V34.2022H65.1748V7.29867Z" fill="#378227"/>
<path d="M65.7749 7.29867H65.1748V34.2022H65.7749V7.29867Z" fill="#388327"/>
<path d="M66.375 7.29867H65.7749V34.2022H66.375V7.29867Z" fill="#388328"/>
<path d="M66.9736 7.29867H66.3735V34.2022H66.9736V7.29867Z" fill="#398428"/>
<path d="M67.5737 7.29867H66.9736V34.2022H67.5737V7.29867Z" fill="#398528"/>
<path d="M68.1738 7.29867H67.5737V34.2022H68.1738V7.29867Z" fill="#398628"/>
<path d="M68.7739 7.29867H68.1738V34.2022H68.7739V7.29867Z" fill="#3A8729"/>
<path d="M69.374 7.29867H68.7739V34.2022H69.374V7.29867Z" fill="#3A8829"/>
<path d="M69.9741 7.29867H69.374V34.2022H69.9741V7.29867Z" fill="#3B8929"/>
<path d="M70.5732 7.29867H69.9731V34.2022H70.5732V7.29867Z" fill="#3B8A29"/>
<path d="M71.1733 7.29867H70.5732V34.2022H71.1733V7.29867Z" fill="#3B8B2A"/>
<path d="M71.7734 7.29867H71.1733V34.2022H71.7734V7.29867Z" fill="#3C8C2A"/>
<path d="M72.3735 7.29867H71.7734V34.2022H72.3735V7.29867Z" fill="#3C8C2A"/>
<path d="M72.9736 7.29867H72.3735V34.2022H72.9736V7.29867Z" fill="#3C8D2A"/>
<path d="M73.5737 7.29867H72.9736V34.2022H73.5737V7.29867Z" fill="#3D8E2B"/>
<path d="M74.1723 7.29867H73.5723V34.2022H74.1723V7.29867Z" fill="#3D8F2B"/>
<path d="M74.7724 7.29867H74.1724V34.2022H74.7724V7.29867Z" fill="#3E902B"/>
<path d="M75.3725 7.29867H74.7725V34.2022H75.3725V7.29867Z" fill="#3E912C"/>
<path d="M75.9726 7.29867H75.3726V34.2022H75.9726V7.29867Z" fill="#3E922C"/>
<path d="M76.5727 7.29867H75.9727V34.2022H76.5727V7.29867Z" fill="#3F922C"/>
<path d="M77.1728 7.29867H76.5728V34.2022H77.1728V7.29867Z" fill="#3F932C"/>
<path d="M77.7719 7.29867H77.1719V34.2022H77.7719V7.29867Z" fill="#3F942C"/>
<path d="M78.372 7.29867H77.772V34.2022H78.372V7.29867Z" fill="#40952D"/>
<path d="M78.9721 7.29867H78.3721V34.2022H78.9721V7.29867Z" fill="#40962D"/>
<path d="M79.5722 7.29867H78.9722V34.2022H79.5722V7.29867Z" fill="#40962D"/>
<path d="M80.1723 7.29867H79.5723V34.2022H80.1723V7.29867Z" fill="#41972D"/>
<path d="M80.7719 7.29867H80.1719V34.2022H80.7719V7.29867Z" fill="#41982E"/>
<path d="M81.3711 7.29867H80.771V34.2022H81.3711V7.29867Z" fill="#41992E"/>
<path d="M81.9712 7.29867H81.3711V34.2022H81.9712V7.29867Z" fill="#42992E"/>
<path d="M82.5713 7.29867H81.9712V34.2022H82.5713V7.29867Z" fill="#429A2E"/>
<path d="M83.1714 7.29867H82.5713V34.2022H83.1714V7.29867Z" fill="#429B2F"/>
<path d="M83.7714 7.29867H83.1714V34.2022H83.7714V7.29867Z" fill="#439C2F"/>
<path d="M84.3716 7.29867H83.7715V34.2022H84.3716V7.29867Z" fill="#439C2F"/>
<path d="M84.9707 7.29867H84.3706V34.2022H84.9707V7.29867Z" fill="#439D2F"/>
<path d="M85.5708 7.29867H84.9707V34.2022H85.5708V7.29867Z" fill="#439E2F"/>
<path d="M86.1709 7.29867H85.5708V34.2022H86.1709V7.29867Z" fill="#449E30"/>
<path d="M86.771 7.29867H86.1709V34.2022H86.771V7.29867Z" fill="#449F30"/>
<path d="M87.3706 7.29867H86.7705V34.2022H87.3706V7.29867Z" fill="#44A030"/>
<path d="M87.9697 7.29867H87.3696V34.2022H87.9697V7.29867Z" fill="#45A030"/>
<path d="M88.5698 7.29867H87.9697V34.2022H88.5698V7.29867Z" fill="#45A130"/>
<path d="M89.1699 7.29867H88.5698V34.2022H89.1699V7.29867Z" fill="#45A231"/>
<path d="M89.77 7.29867H89.1699V34.2022H89.77V7.29867Z" fill="#45A231"/>
<path d="M90.3701 7.29867H89.77V34.2022H90.3701V7.29867Z" fill="#46A331"/>
<path d="M90.9702 7.29867H90.3701V34.2022H90.9702V7.29867Z" fill="#46A331"/>
<path d="M91.5693 7.29867H90.9692V34.2022H91.5693V7.29867Z" fill="#46A431"/>
<path d="M92.1694 7.29867H91.5693V34.2022H92.1694V7.29867Z" fill="#46A531"/>
<path d="M92.7695 7.29867H92.1694V34.2022H92.7695V7.29867Z" fill="#47A532"/>
<path d="M93.3696 7.29867H92.7695V34.2022H93.3696V7.29867Z" fill="#47A632"/>
<path d="M93.9692 7.29867H93.3691V34.2022H93.9692V7.29867Z" fill="#47A632"/>
<path d="M94.5693 7.29867H93.9692V34.2022H94.5693V7.29867Z" fill="#47A732"/>
<path d="M95.1684 7.29867H94.5684V34.2022H95.1684V7.29867Z" fill="#48A732"/>
<path d="M95.7685 7.29867H95.1685V34.2022H95.7685V7.29867Z" fill="#48A832"/>
<path d="M96.3686 7.29867H95.7686V34.2022H96.3686V7.29867Z" fill="#48A833"/>
<path d="M96.9687 7.29867H96.3687V34.2022H96.9687V7.29867Z" fill="#48A933"/>
<path d="M97.5688 7.29867H96.9688V34.2022H97.5688V7.29867Z" fill="#48A933"/>
<path d="M98.1689 7.29867H97.5688V34.2022H98.1689V7.29867Z" fill="#49AA33"/>
<path d="M98.768 7.29867H98.168V34.2022H98.768V7.29867Z" fill="#49AA33"/>
<path d="M99.3681 7.29867H98.7681V34.2022H99.3681V7.29867Z" fill="#49AA33"/>
<path d="M99.9682 7.29867H99.3682V34.2022H99.9682V7.29867Z" fill="#49AB33"/>
<path d="M100.568 7.29867H99.9678V34.2022H100.568V7.29867Z" fill="#49AB33"/>
<path d="M101.168 7.29867H100.568V34.2022H101.168V7.29867Z" fill="#49AB34"/>
<path d="M101.768 7.29867H101.168V34.2022H101.768V7.29867Z" fill="#49AC34"/>
<path d="M102.367 7.29867H101.767V34.2022H102.367V7.29867Z" fill="#4AAC34"/>
<path d="M102.967 7.29867H102.367V34.2022H102.967V7.29867Z" fill="#4AAC34"/>
<path d="M103.567 7.29867H102.967V34.2022H103.567V7.29867Z" fill="#4AAD34"/>
<path d="M104.167 7.29867H103.567V34.2022H104.167V7.29867Z" fill="#4AAD34"/>
<path d="M104.768 7.29867H104.167V34.2022H104.768V7.29867Z" fill="#4AAD34"/>
<path d="M105.367 7.29867H104.767V34.2022H105.367V7.29867Z" fill="#4AAD34"/>
<path d="M106.009 7.29867H105.367V34.2022H106.009V7.29867Z" fill="#4AAD34"/>
<path d="M106.653 7.29867H106.01V34.2022H106.653V7.29867Z" fill="#4BAD34"/>
<path d="M107.295 7.29867H106.653V34.2022H107.295V7.29867Z" fill="#4CAE33"/>
<path d="M107.938 7.29867H107.295V34.2022H107.938V7.29867Z" fill="#4DAE33"/>
<path d="M108.581 7.29867H107.938V34.2022H108.581V7.29867Z" fill="#4EAE33"/>
<path d="M109.223 7.29867H108.581V34.2022H109.223V7.29867Z" fill="#4FAE33"/>
<path d="M109.867 7.29867H109.225V34.2022H109.867V7.29867Z" fill="#50AF32"/>
<path d="M110.51 7.29867H109.867V34.2022H110.51V7.29867Z" fill="#51AF32"/>
<path d="M111.152 7.29867H110.51V34.2022H111.152V7.29867Z" fill="#52AF32"/>
<path d="M111.795 7.29867H111.152V34.2022H111.795V7.29867Z" fill="#53B031"/>
<path d="M112.438 7.29867H111.795V34.2022H112.438V7.29867Z" fill="#54B031"/>
<path d="M113.081 7.29867H112.438V34.2022H113.081V7.29867Z" fill="#55B031"/>
<path d="M113.724 7.29867H113.081V34.2022H113.724V7.29867Z" fill="#57B030"/>
<path d="M114.366 7.29867H113.724V34.2022H114.366V7.29867Z" fill="#58B130"/>
<path d="M115.009 7.29867H114.366V34.2022H115.009V7.29867Z" fill="#59B130"/>
<path d="M115.652 7.29867H115.009V34.2022H115.652V7.29867Z" fill="#5AB130"/>
<path d="M116.295 7.29867H115.653V34.2022H116.295V7.29867Z" fill="#5BB12F"/>
<path d="M116.938 7.29867H116.295V34.2022H116.938V7.29867Z" fill="#5CB22F"/>
<path d="M117.581 7.29867H116.938V34.2022H117.581V7.29867Z" fill="#5DB22F"/>
<path d="M118.223 7.29867H117.581V34.2022H118.223V7.29867Z" fill="#5EB22E"/>
<path d="M118.866 7.29867H118.223V34.2022H118.866V7.29867Z" fill="#5FB32E"/>
<path d="M119.509 7.29867H118.867V34.2022H119.509V7.29867Z" fill="#60B32E"/>
<path d="M120.152 7.29867H119.51V34.2022H120.152V7.29867Z" fill="#61B32E"/>
<path d="M120.795 7.29867H120.152V34.2022H120.795V7.29867Z" fill="#62B32D"/>
<path d="M121.438 7.29867H120.795V34.2022H121.438V7.29867Z" fill="#63B42D"/>
<path d="M122.08 7.29867H121.438V34.2022H122.08V7.29867Z" fill="#64B42D"/>
<path d="M122.724 7.29867H122.081V34.2022H122.724V7.29867Z" fill="#65B42C"/>
<path d="M123.366 7.29867H122.724V34.2022H123.366V7.29867Z" fill="#66B42C"/>
<path d="M124.009 7.29867H123.366V34.2022H124.009V7.29867Z" fill="#67B52C"/>
<path d="M124.651 7.29867H124.009V34.2022H124.651V7.29867Z" fill="#68B52C"/>
<path d="M125.294 7.29867H124.652V34.2022H125.294V7.29867Z" fill="#69B52B"/>
<path d="M125.938 7.29867H125.295V34.2022H125.938V7.29867Z" fill="#6AB62B"/>
<path d="M126.581 7.29867H125.938V34.2022H126.581V7.29867Z" fill="#6BB62B"/>
<path d="M127.223 7.29867H126.581V34.2022H127.223V7.29867Z" fill="#6CB62A"/>
<path d="M127.866 7.29867H127.223V34.2022H127.866V7.29867Z" fill="#6DB62A"/>
<path d="M128.508 7.29867H127.866V34.2022H128.508V7.29867Z" fill="#6EB72A"/>
<path d="M129.152 7.29867H128.509V34.2022H129.152V7.29867Z" fill="#6FB72A"/>
<path d="M129.795 7.29867H129.152V34.2022H129.795V7.29867Z" fill="#70B729"/>
<path d="M130.438 7.29867H129.795V34.2022H130.438V7.29867Z" fill="#71B729"/>
<path d="M131.08 7.29867H130.438V34.2022H131.08V7.29867Z" fill="#72B829"/>
<path d="M131.723 7.29867H131.08V34.2022H131.723V7.29867Z" fill="#73B828"/>
<path d="M132.366 7.29867H131.724V34.2022H132.366V7.29867Z" fill="#74B828"/>
<path d="M133.009 7.29867H132.366V34.2022H133.009V7.29867Z" fill="#75B928"/>
<path d="M133.651 7.29867H133.009V34.2022H133.651V7.29867Z" fill="#76B928"/>
<path d="M134.294 7.29867H133.651V34.2022H134.294V7.29867Z" fill="#77B927"/>
<path d="M134.937 7.29867H134.294V34.2022H134.937V7.29867Z" fill="#78B927"/>
<path d="M135.581 7.29867H134.938V34.2022H135.581V7.29867Z" fill="#79BA27"/>
<path d="M136.223 7.29867H135.581V34.2022H136.223V7.29867Z" fill="#7ABA26"/>
<path d="M136.866 7.29867H136.223V34.2022H136.866V7.29867Z" fill="#7BBA26"/>
<path d="M137.508 7.29867H136.866V34.2022H137.508V7.29867Z" fill="#7CBA26"/>
<path d="M138.151 7.29867H137.508V34.2022H138.151V7.29867Z" fill="#7EBB26"/>
<path d="M138.794 7.29867H138.152V34.2022H138.794V7.29867Z" fill="#7FBB25"/>
<path d="M139.438 7.29867H138.795V34.2022H139.438V7.29867Z" fill="#80BB25"/>
<path d="M140.08 7.29867H139.438V34.2022H140.08V7.29867Z" fill="#81BC25"/>
<path d="M140.723 7.29867H140.08V34.2022H140.723V7.29867Z" fill="#82BC24"/>
<path d="M141.365 7.29867H140.723V34.2022H141.365V7.29867Z" fill="#83BC24"/>
<path d="M142.009 7.29867H141.366V34.2022H142.009V7.29867Z" fill="#84BC24"/>
<path d="M142.651 7.29867H142.009V34.2022H142.651V7.29867Z" fill="#85BD24"/>
<path d="M143.294 7.29867H142.651V34.2022H143.294V7.29867Z" fill="#86BD23"/>
<path d="M143.937 7.29867H143.294V34.2022H143.937V7.29867Z" fill="#87BD23"/>
<path d="M144.579 7.29867H143.937V34.2022H144.579V7.29867Z" fill="#88BD23"/>
<path d="M145.223 7.29867H144.581V34.2022H145.223V7.29867Z" fill="#89BE22"/>
<path d="M145.866 7.29867H145.223V34.2022H145.866V7.29867Z" fill="#89BE22"/>
<path d="M146.508 7.29867H145.866V34.2022H146.508V7.29867Z" fill="#8ABE22"/>
<path d="M147.151 7.29867H146.508V34.2022H147.151V7.29867Z" fill="#8BBE22"/>
<path d="M147.794 7.29867H147.151V34.2022H147.794V7.29867Z" fill="#8CBF21"/>
<path d="M148.437 7.29867H147.794V34.2022H148.437V7.29867Z" fill="#8DBF21"/>
<path d="M149.08 7.29867H148.438V34.2022H149.08V7.29867Z" fill="#8EBF21"/>
<path d="M149.723 7.29867H149.08V34.2022H149.723V7.29867Z" fill="#8FBF21"/>
<path d="M150.365 7.29867H149.723V34.2022H150.365V7.29867Z" fill="#90C020"/>
<path d="M151.008 7.29867H150.365V34.2022H151.008V7.29867Z" fill="#91C020"/>
<path d="M151.651 7.29867H151.009V34.2022H151.651V7.29867Z" fill="#92C020"/>
<path d="M152.294 7.29867H151.651V34.2022H152.294V7.29867Z" fill="#93C120"/>
<path d="M152.937 7.29867H152.294V34.2022H152.937V7.29867Z" fill="#94C11F"/>
<path d="M153.579 7.29867H152.937V34.2022H153.579V7.29867Z" fill="#95C11F"/>
</g>
</g>
</g>
<defs>
<clipPath id="clip0_94_1253">
<rect width="179" height="52" fill="white"/>
</clipPath>
</defs>
</svg>