<svg width="210" height="56" viewBox="0 0 210 56" fill="none" xmlns="http://www.w3.org/2000/svg">
<path d="M86.8587 38.3325C86.3597 39.5183 85.5938 40.5609 84.5513 41.475C83.5136 42.3891 82.1746 43.1253 80.5441 43.6837C78.9135 44.242 76.9766 44.5236 74.7383 44.5236C73.8094 44.5236 72.8903 44.4594 71.9762 44.3309C71.0622 44.2025 70.1826 44.0345 69.3377 43.827C68.4879 43.6194 67.7121 43.3724 67.0105 43.0858C66.3039 42.7943 65.6962 42.5077 65.1872 42.2211C65.0291 42.1223 64.9797 42.0136 65.0439 41.8851L66.4373 37.2751C66.5016 37.0824 66.63 37.033 66.8227 37.1318C67.8455 37.7742 69.0857 38.3078 70.5433 38.7377C72.001 39.1675 73.5426 39.3849 75.1781 39.3849C77.1298 39.3849 78.6417 38.9847 79.714 38.1843C80.7862 37.3838 81.3198 36.3462 81.3198 35.0615C81.3198 33.8806 80.8405 32.8924 79.8819 32.1117C78.9184 31.3261 77.3669 30.5997 75.2225 29.9278C73.7847 29.4831 72.4753 28.9643 71.3092 28.3713C70.1431 27.7784 69.1401 27.0916 68.31 26.306C67.4799 25.5203 66.8326 24.6408 66.3682 23.6625C65.9037 22.6891 65.6715 21.5774 65.6715 20.3273C65.6715 18.9833 65.9531 17.7431 66.5114 16.6066C67.0698 15.4702 67.8702 14.4869 68.9128 13.6568C69.9504 12.8267 71.2005 12.1795 72.6581 11.715C74.1157 11.2505 75.7512 11.0183 77.5794 11.0183C79.5311 11.0183 81.2012 11.1863 82.5946 11.5223C83.988 11.8583 85.1442 12.2684 86.0731 12.7477C86.2312 12.8119 86.2806 12.9256 86.2164 13.0837L84.7736 17.501C84.744 17.5998 84.6748 17.664 84.5809 17.6937C84.4821 17.7283 84.403 17.7134 84.3388 17.6443C83.7953 17.3577 82.9207 17.0217 81.72 16.6363C80.5193 16.2509 79.1013 16.0582 77.4707 16.0582C76.4479 16.0582 75.5832 16.1718 74.8816 16.3942C74.175 16.6165 73.6068 16.913 73.1769 17.2836C72.7471 17.6492 72.4259 18.0643 72.2184 18.5287C72.0108 18.9932 71.9071 19.4478 71.9071 19.8974C71.9071 21.0833 72.4209 22.0319 73.4437 22.7533C74.4665 23.4747 76.1169 24.1862 78.3898 24.8879C81.4631 25.881 83.7656 27.1163 85.3023 28.6085C86.839 30.0957 87.6098 32.1216 87.6098 34.6811C87.6048 35.9311 87.3528 37.1466 86.8587 38.3325Z" fill="#007C36"/>
<path d="M111.461 44.909C111.302 44.909 111.204 44.8596 111.174 44.7658C111.144 44.7015 111.011 44.4693 110.789 44.0691C110.566 43.6688 110.324 43.0117 110.067 42.1025C109.81 41.1884 109.682 40.1558 109.682 39.0094V31.1828C109.682 29.3941 109.301 27.9118 108.531 26.7457C107.76 25.5796 106.495 24.9916 104.736 24.9916C103.421 24.9916 102.334 25.3672 101.475 26.1231C100.61 26.8742 100.002 27.6993 99.6515 28.5937C99.5526 28.8506 99.4835 29.1273 99.439 29.4337C99.3896 29.7351 99.3649 30.0315 99.3649 30.3181V43.6639C99.3649 43.8566 99.266 43.9554 99.0783 43.9554H93.4603C93.2676 43.9554 93.1688 43.8566 93.1688 43.6639V27.4869C93.1688 26.2071 93.154 25.0163 93.1194 23.9095C93.0848 22.8077 93.0403 21.7404 92.9761 20.7176C92.9761 20.5249 93.0749 20.431 93.2627 20.431H98.1593C98.352 20.431 98.4458 20.5101 98.4458 20.6731L98.7818 23.6971C99.103 23.2474 99.518 22.8027 100.027 22.3531C100.541 21.9035 101.124 21.4983 101.781 21.1277C102.438 20.7621 103.174 20.4656 103.99 20.2383C104.805 20.016 105.694 19.9023 106.653 19.9023C107.646 19.9023 108.684 20.0605 109.771 20.3816C110.858 20.7028 111.851 21.271 112.75 22.0863C113.645 22.9016 114.391 23.9985 114.984 25.377C115.576 26.7556 115.868 28.48 115.868 30.5602V39.0094C115.868 39.5826 115.987 40.2397 116.229 40.976C116.471 41.7122 116.693 42.3051 116.901 42.7547C117.108 43.2044 117.227 43.4564 117.261 43.5256C117.39 43.7479 117.326 43.8961 117.069 43.9554L111.461 44.909Z" fill="#007C36"/>
<path d="M144.101 32.7887C144.066 33.1889 144.022 33.5002 143.958 33.7226C143.893 33.8807 143.795 33.9597 143.671 33.9597H126.822C126.951 34.8244 127.252 35.61 127.736 36.3117C128.215 37.0182 128.798 37.6161 129.49 38.1102C130.177 38.6043 130.953 38.9947 131.817 39.2862C132.682 39.5728 133.576 39.7161 134.505 39.7161C135.528 39.7161 136.472 39.6666 137.337 39.5728C137.559 39.5728 137.673 39.637 137.673 39.7655L138.295 43.8468C138.295 44.0049 138.216 44.1186 138.058 44.1828C137.386 44.3409 136.689 44.4397 135.968 44.4743C135.247 44.504 134.52 44.5237 133.784 44.5237C131.768 44.5237 129.96 44.2371 128.359 43.659C126.758 43.0859 125.409 42.2755 124.302 41.233C123.2 40.1953 122.355 38.9354 121.782 37.4679C121.209 36.0004 120.917 34.3649 120.917 32.5713C120.917 31.005 121.169 29.4584 121.683 27.9366C122.197 26.4197 122.963 25.0559 123.986 23.8602C125.009 22.6595 126.293 21.7009 127.825 20.9796C129.362 20.2582 131.155 19.8975 133.201 19.8975C135.345 19.8975 137.119 20.2878 138.527 21.0734C139.936 21.8591 141.057 22.8275 141.887 23.9738C142.722 25.1251 143.305 26.3752 143.641 27.7192C143.977 29.0631 144.145 30.2935 144.145 31.4151C144.145 31.9289 144.131 32.3885 144.101 32.7887ZM130.301 24.7249C129.579 25.0609 128.981 25.4858 128.502 25.9997C128.023 26.5135 127.652 27.0818 127.395 27.7043C127.138 28.3269 126.965 28.9297 126.867 29.5029H138.29C138.261 29.0878 138.162 28.574 138.004 27.9662C137.846 27.3585 137.564 26.7754 137.164 26.2121C136.763 25.6538 136.22 25.1795 135.528 24.799C134.841 24.4136 133.952 24.2209 132.865 24.2209C131.877 24.2209 131.022 24.3889 130.301 24.7249Z" fill="#007C36"/>
<path d="M147.125 20.5253C147.189 20.461 147.253 20.4264 147.317 20.4264H150.055V16.3945C150.055 16.2661 150.119 16.1722 150.248 16.108L155.722 14.5713C155.974 14.5071 156.108 14.6009 156.108 14.8579V20.4264H161.869C162.062 20.4264 162.155 20.5253 162.155 20.718L161.913 24.9426C161.913 25.1353 161.819 25.2292 161.627 25.2292H156.108V35.1162C156.108 36.4305 156.305 37.4682 156.706 38.234C157.106 39.0048 157.881 39.3853 159.033 39.3853C159.606 39.3853 160.07 39.3606 160.426 39.3112C160.777 39.2618 161.128 39.1728 161.484 39.0493C161.74 38.9851 161.869 39.0839 161.869 39.3359L162.012 43.5605C162.012 43.689 161.948 43.7828 161.82 43.8471C161.37 44.0398 160.757 44.1979 159.972 44.3264C159.186 44.4548 158.316 44.5191 157.353 44.5191C156.167 44.5191 155.119 44.3264 154.21 43.9459C153.301 43.5605 152.57 43.0664 152.026 42.4586C151.354 41.7224 150.86 40.7935 150.539 39.6768C150.218 38.5552 150.06 37.2755 150.06 35.8376V25.2292H146.606C146.542 25.2292 146.478 25.2143 146.413 25.1797C146.349 25.1501 146.314 25.1007 146.314 25.0365V21.7704V21.2417C146.314 20.9205 146.329 20.7476 146.364 20.718L147.125 20.5253Z" fill="#007C36"/>
<path d="M189.964 37.4183C189.213 38.9847 188.225 40.299 187.009 41.3564C185.794 42.4138 184.4 43.2043 182.834 43.733C181.268 44.2617 179.652 44.5236 177.987 44.5236C176.198 44.5236 174.523 44.237 172.972 43.6589C171.42 43.0857 170.066 42.2655 168.915 41.2131C167.764 40.1557 166.86 38.8858 166.203 37.3986C165.545 35.9113 165.219 34.2561 165.219 32.4328C165.219 30.5453 165.54 28.8308 166.183 27.2941C166.82 25.7574 167.719 24.4382 168.871 23.3363C170.022 22.2295 171.405 21.3846 173.021 20.7917C174.637 20.1987 176.421 19.9072 178.372 19.9072C180.294 19.9072 182.039 20.2086 183.605 20.8164C185.171 21.4241 186.51 22.2691 187.612 23.3363C188.714 24.4085 189.574 25.6784 190.181 27.1508C190.789 28.6233 191.096 30.2093 191.096 31.9041C191.091 34.014 190.715 35.852 189.964 37.4183ZM184.326 29.4039C184.069 28.475 183.679 27.6499 183.15 26.9334C182.622 26.212 181.95 25.624 181.134 25.1596C180.319 24.6951 179.336 24.4629 178.185 24.4629C177.033 24.4629 176.04 24.6753 175.205 25.1102C174.375 25.54 173.678 26.1181 173.12 26.8395C172.557 27.5609 172.142 28.391 171.87 29.3348C171.598 30.2785 171.46 31.247 171.46 32.2352C171.46 33.3864 171.628 34.4339 171.964 35.3777C172.3 36.3214 172.764 37.1318 173.357 37.7988C173.95 38.4708 174.642 38.9896 175.447 39.3602C176.248 39.7308 177.107 39.9136 178.036 39.9136C178.965 39.9136 179.835 39.7456 180.65 39.4096C181.465 39.0736 182.172 38.5696 182.76 37.8976C183.353 37.2256 183.822 36.4104 184.178 35.4518C184.529 34.4932 184.707 33.3864 184.707 32.1413C184.707 31.242 184.578 30.3329 184.326 29.4039Z" fill="#007C36"/>
<path d="M209.669 25.7527C209.125 25.6588 208.532 25.6094 207.89 25.6094C206.452 25.6094 205.276 26.0393 204.362 26.9039C203.448 27.7686 202.835 28.8408 202.514 30.1206C202.45 30.3775 202.41 30.6542 202.395 30.9606C202.381 31.2669 202.371 31.5288 202.371 31.7511V43.6541C202.371 43.8468 202.272 43.9407 202.084 43.9407H196.466C196.273 43.9407 196.175 43.8419 196.175 43.6541V28.3912C196.175 26.7606 196.16 25.3426 196.125 24.1419C196.096 22.9412 196.046 21.7998 195.982 20.7128C195.982 20.5201 196.081 20.4213 196.268 20.4213H201.165C201.358 20.4213 201.452 20.5201 201.452 20.7128L201.694 24.1666C202.43 22.7238 203.408 21.6565 204.624 20.95C205.839 20.2483 207.075 19.8926 208.32 19.8926C208.641 19.8926 208.903 19.9025 209.11 19.9173C209.318 19.937 209.55 19.9766 209.807 20.0359C209.935 20.0704 210 20.1495 210 20.278V25.5106L209.669 25.7527Z" fill="#007C36"/>
<path d="M18.178 24.4185C27.0176 5.87472 36.2426 5.78577 36.2426 5.78577C36.2426 5.78577 19.0921 1.56116 10.0451 20.5447C0.993042 39.5283 15.0751 50.1861 15.0751 50.1861C15.0751 50.1861 9.33849 42.9623 18.178 24.4185Z" fill="#007C36"/>
<path d="M18.1782 24.4186C9.33868 42.9624 15.0752 50.1863 15.0752 50.1863L36.2428 5.78589C36.2428 5.78589 27.0178 5.87978 18.1782 24.4186Z" fill="#2A5558"/>
<path d="M9.75823 18.4004C19.4625 -1.95185 37.8482 2.57416 37.8482 2.57416C24.7 -3.69605 8.96272 1.88242 2.69251 15.0306C-3.57275 28.1787 2.00076 43.916 15.1539 50.1862C15.1539 50.1862 0.0539859 38.7575 9.75823 18.4004Z" fill="#8AC9AD"/>
<path d="M36.104 5.78589C36.104 5.78589 51.0012 17.7828 41.4996 37.5717C31.741 57.8993 13.4097 53.398 13.4097 53.398C26.5578 59.6682 42.2951 54.0897 48.5653 40.9415C54.8306 27.7934 49.2521 12.0561 36.104 5.78589Z" fill="#1E1B2F"/>
<path d="M33.1446 31.5535C41.9841 13.0097 36.2476 5.78589 36.2476 5.78589L15.0801 50.1863C15.0801 50.1863 24.305 50.0973 33.1446 31.5535Z" fill="#293F53"/>
<path d="M41.2727 35.4323C50.3247 16.4487 36.2427 5.78589 36.2427 5.78589C36.2427 5.78589 41.9793 13.0147 33.1397 31.5535C24.3002 50.0924 15.0752 50.1863 15.0752 50.1863C15.0752 50.1863 32.2256 54.4109 41.2727 35.4323Z" fill="#152B47"/>
<path d="M36.4652 6.04263C36.4554 6.02287 36.4405 6.0031 36.4307 5.98828C36.4405 6.0031 36.4504 6.02287 36.4652 6.04263Z" fill="white"/>
<path d="M2.04572 20.0656C2.04078 20.0853 2.06055 20.0854 2.05561 20.1051C2.06055 20.0854 2.06549 20.0606 2.04572 20.0656Z" fill="white"/>
<path d="M1.43308 20.861C1.60602 20.7621 1.91731 20.3619 2.07048 20.189C2.02601 20.2384 1.99142 20.268 1.95189 20.3273C1.90742 20.3767 1.88766 20.3174 1.79872 20.3767C1.70978 20.4261 1.62084 20.4756 1.55167 20.5892C1.5319 20.6485 1.54673 20.688 1.45285 20.7374C1.3985 20.777 1.38367 20.7374 1.37379 20.6781C1.36391 20.777 1.34414 20.9301 1.43308 20.861Z" fill="white"/>
<path d="M4.96588 17.689C4.96588 17.7334 4.96588 17.768 4.96588 17.8125C4.97577 17.773 4.96094 17.7285 4.96588 17.689Z" fill="white"/>
<path d="M2.03082 20.0209C2.02588 20.011 2.02093 20.0061 2.02587 19.9962C2.08517 19.9419 2.05058 19.9468 2.10493 19.9419C2.30257 19.8282 2.75716 19.6948 2.79668 19.3242C2.60892 19.423 2.26799 19.7096 2.10493 19.8579C2.08517 19.8875 2.00611 19.932 2.01105 19.9814C2.00611 20.0012 2.016 20.011 2.03082 20.0209Z" fill="white"/>
<path d="M46.3223 14.3191C46.3667 14.3932 46.4211 14.4723 46.4804 14.5563C46.426 14.4772 46.3766 14.3981 46.3223 14.3191Z" fill="white"/>
<path d="M45.4082 14.3833C45.4181 14.3833 45.428 14.3784 45.423 14.3784C45.4131 14.3784 45.4131 14.3784 45.4082 14.3833Z" fill="white"/>
<path d="M20.367 5.5042C20.2286 5.5042 20.1051 5.50914 20.0014 5.47949C19.9421 5.49432 19.863 5.49926 19.8037 5.51408C19.8976 5.56843 20.1792 5.5042 20.367 5.5042Z" fill="white"/>
<path d="M5.95428 11.3151C5.95922 11.3102 5.96416 11.3052 5.9691 11.3003C5.95922 11.3102 5.94439 11.3201 5.93945 11.3299C5.94439 11.325 5.94933 11.325 5.95428 11.3201C5.94933 11.3201 5.94933 11.3201 5.95428 11.3151Z" fill="white"/>
<path d="M49.8751 33.2433C49.8405 33.3421 49.8652 33.5299 49.8257 33.604C49.7318 33.8411 49.5243 34.355 49.381 34.5823C49.1932 34.859 48.9659 34.9381 48.9264 35.5112C48.9264 35.699 48.9907 35.9213 48.9808 36.0449C48.9709 36.0646 48.8078 36.6131 48.8078 36.6131C48.7881 36.623 48.6596 36.8601 48.6547 36.9046C48.6349 37.0726 48.6201 37.2455 48.6893 37.2999C48.6794 37.3789 48.6695 37.4382 48.6448 37.5766C48.6151 37.8681 48.709 38.0707 48.8573 37.9719C49.2278 37.7149 49.3612 37.0182 49.5194 36.4599C49.7121 35.7682 49.88 35.1703 49.9443 34.3501C49.964 34.3501 49.969 34.3352 50.0283 34.3501C50.0233 34.2957 50.0431 34.2414 50.0382 34.187C50.0135 33.9202 50.0728 33.2037 49.8751 33.2433Z" fill="white"/>
<path d="M36.3071 5.93415C36.2972 5.90451 36.2824 5.90451 36.2725 5.87486C36.0254 5.85016 36.0304 5.90945 35.8772 5.89957C35.8722 5.8798 35.8624 5.87981 35.8525 5.8551C35.6647 5.84028 35.4424 5.80569 35.3386 5.82051C35.3732 5.84027 35.4177 5.86004 35.4572 5.86498C35.3584 5.87486 35.1212 5.85015 35.0471 5.82545C34.9285 5.81063 34.889 5.82545 34.8198 5.86498C34.9236 5.87486 34.9236 5.86992 35.0076 5.89462C34.9878 5.88474 34.8939 5.9391 34.8346 5.9391C34.6815 5.92922 34.7852 5.91933 34.5925 5.89957C34.6123 5.84522 34.5777 5.90451 34.4986 5.86992C34.4591 5.88969 34.464 5.89957 34.4196 5.91439C34.385 5.91933 34.3553 5.89462 34.3208 5.89462C34.2269 5.88968 34.1824 5.8798 34.1775 5.94897C34.1775 5.94897 34.1132 5.97862 34.1725 5.9885C34.1231 5.9885 34.049 6.01321 33.9798 6.0478C34.2664 6.09227 34.6123 6.07745 34.8939 6.09227C34.8939 6.24544 34.632 6.29979 34.3998 6.31955C34.1725 6.33438 34.0342 6.38873 33.9205 6.47767C33.9255 6.47767 33.8464 6.58143 33.8464 6.58143C33.7525 6.58143 33.8266 6.73955 33.7081 6.76919C33.3869 6.88284 33.214 6.97672 32.6556 7.02613C32.7742 7.05084 32.8335 7.04589 32.9768 7.0706C32.5123 7.03107 32.5519 7.1546 32.3196 7.18919C32.0528 7.20895 31.9243 7.28306 31.7959 7.37694C31.7218 7.43623 31.618 7.46588 31.6427 7.54988C31.6921 7.72776 31.9243 7.95504 32.1566 8.06375C32.1072 8.12304 31.9787 8.17246 31.9886 8.21693C32.0923 8.21693 32.2109 8.20704 32.3246 8.18727C32.3344 8.21692 32.3394 8.24657 32.3542 8.27622C32.3048 8.29104 32.1467 8.3108 32.1566 8.36515C32.1763 8.38492 32.7248 8.52327 32.8088 8.53315C33.382 8.51339 33.7921 8.35528 34.0095 8.19222C34.0984 8.23175 34.1577 8.29104 34.3059 8.33551C34.2763 8.35033 34.2664 8.38492 34.2713 8.41457C34.301 8.52327 34.5036 8.55291 34.6024 8.63691C34.7259 8.77526 34.7407 8.85432 34.9878 8.96302C34.9927 8.98773 34.9779 8.99761 34.9829 9.02232C34.9829 9.0569 35.2151 9.36819 35.3189 9.37313C35.6351 9.38302 35.5807 9.10138 35.7981 9.11126C35.892 9.11126 36.0847 9.14091 36.2577 9.15079C36.2478 9.01738 36.5393 9.0322 36.5146 8.89385C36.4454 8.87409 36.3268 8.85432 36.2972 8.78515C36.2478 8.65668 36.1292 8.42445 36.3664 8.4541C36.4899 8.44421 36.7715 8.35527 36.7518 8.27622C36.7073 8.16751 36.6035 8.02422 36.3762 7.98964C36.3664 7.94517 36.3071 7.91057 36.2428 7.88587C36.1737 7.83152 36.0847 7.76729 35.9908 7.71788C36.1638 7.68823 35.9958 7.59929 36.0551 7.52024C36.1292 7.44118 36.2873 7.42141 36.4652 7.39671C36.6776 7.35718 37.1223 7.27812 37.0779 7.16448C37.1174 7.13483 37.0581 7.12495 37.0235 7.05578C36.9642 6.89766 37.1718 6.85813 37.5275 6.91743C37.8042 6.9619 38.1402 7.06072 38.2094 7.16448C38.2538 7.26824 37.8981 7.34236 37.7696 7.35718C37.5226 7.39177 37.6906 7.55977 37.2212 7.49059C37.2409 7.54 37.2854 7.69812 37.3052 7.73764C37.3447 7.80188 37.3842 7.87105 37.5127 7.91058C37.4633 7.9254 37.3891 7.94022 37.4089 8.00446C37.4583 8.13787 37.735 8.22186 37.9722 8.25151C38.0068 8.32069 38.0512 8.33551 38.1945 8.35033C38.3872 8.37504 38.5207 8.42445 38.7232 8.42939C38.9308 8.48868 39.1185 8.46398 39.1679 8.3701C39.2964 8.43927 39.6966 8.51833 39.835 8.62703C39.6867 8.63691 39.6966 8.76044 39.5583 8.74562C39.3903 8.70609 38.9851 8.5628 38.7381 8.52821C38.5157 8.49856 37.9524 8.65668 38.1501 8.77032C38.3971 8.87409 38.4564 8.72586 38.7282 8.93338C38.9308 9.08161 38.7776 9.19525 38.6886 9.17549C38.4564 9.15572 38.3823 9.00749 38.1847 8.98279C37.9969 8.96302 37.9425 9.29901 37.9969 9.44725C38.0809 9.67948 37.656 9.56584 37.6955 9.76842C37.572 9.76842 37.4188 9.76347 37.2755 9.74865C37.2903 9.72395 37.2854 9.70913 37.3002 9.68936C37.2162 9.6696 37.0433 9.63995 36.8852 9.63995C36.7369 9.63007 36.5788 9.72395 36.4751 9.72889C36.2922 9.7783 36.1786 9.6943 35.9711 9.74371C35.9118 9.76842 35.9118 9.80795 35.7784 9.79807C35.7784 9.79807 35.5363 9.70913 35.5313 9.69925C35.5214 9.67948 35.5906 9.66465 35.5807 9.62513C35.2892 9.60042 35.0965 9.75359 34.7407 9.73877C34.7062 9.73877 34.2911 9.43737 34.2565 9.41266C34.1478 9.41266 34.4443 9.62513 34.301 9.62019C34.2862 9.60042 34.2812 9.57077 34.2763 9.54607C34.2071 9.54607 34.1231 9.48677 34.0935 9.42254C34.0638 9.29407 34.1923 9.23972 34.301 9.17549C34.3405 9.15572 34.4344 9.14585 34.4344 9.11126C34.4146 9.10138 34.4245 9.07173 34.4146 9.05691C34.3208 9.06679 34.1676 9.05196 34.1429 8.97785C34.1132 8.90867 34.1132 8.88891 34.1626 8.80985C34.1528 8.78021 34.1429 8.76044 34.1379 8.73079C33.8415 8.8395 33.3573 8.84444 33.4314 9.13596C33.4808 9.3089 33.7031 9.34349 33.8217 9.54113C33.8267 9.54113 33.9551 9.67948 33.965 9.71407C33.9749 9.77336 33.7871 9.83265 33.7081 9.83265C33.5895 9.83265 33.466 9.81783 33.3869 9.85736C33.3573 9.8623 33.3177 9.90677 33.2782 9.89195C33.1942 9.91171 33.2634 9.89195 33.0904 9.89195C32.7791 9.89195 32.369 10.2082 32.201 10.3366C32.1911 10.3465 32.0825 10.4009 32.0874 10.4355C32.117 10.5392 32.1862 10.643 32.0874 10.7171C32.0429 10.7566 31.5093 10.9246 31.4302 10.9444C31.3709 10.9543 31.3067 10.9642 31.2375 10.974C31.2079 11.2013 31.3512 11.2606 30.9164 11.2903C30.9065 11.3594 30.8225 11.4286 30.7039 11.4385C30.5359 11.4336 30.3778 11.4088 30.2444 11.3446C30.2098 11.3594 30.1406 11.3545 30.1011 11.3545C30.1011 11.3792 30.111 11.4039 30.1159 11.4286C30.1357 11.4533 30.1258 11.5966 30.2296 11.6065C30.2296 11.6263 30.2394 11.651 30.2444 11.6707C30.2048 11.6954 30.0368 11.7399 29.9183 11.7399C29.8244 11.7547 29.5526 11.7201 29.5032 11.6757C29.355 11.7103 28.9696 11.7992 28.9795 11.8881C28.9844 11.898 28.9992 11.9128 29.0042 11.9227C29.0437 12.0561 29.691 12.0907 29.943 12.1204C30.0023 12.1204 30.0418 12.1698 30.1307 12.1747C30.1703 12.3131 30.4223 12.6688 30.7237 12.6491C30.7385 12.7182 30.8274 12.6935 30.8422 12.7874C30.8521 12.822 30.8274 12.8961 30.8126 12.9356C30.8225 12.9356 30.8324 12.9257 30.8373 12.9159C30.8472 12.9653 30.9015 13.1481 30.9065 13.1827C30.9509 13.3704 30.6891 13.3705 30.7237 13.578C30.6891 13.578 30.4667 13.6422 30.363 13.657C30.2197 13.662 30.111 13.6126 29.938 13.6521C29.6959 13.6817 29.4686 13.6916 29.2166 13.7163C29.1573 13.7163 29.0042 13.7015 28.9498 13.6768C28.7176 13.7064 28.5051 13.7213 28.268 13.741C28.1988 13.7657 28.0802 13.7213 28.0357 13.7213C27.9665 13.7361 27.4724 13.998 27.4724 14.0523C27.4823 14.1314 27.675 14.2598 27.7096 14.418C27.759 14.6749 27.6651 14.9664 27.7096 15.2233C27.7195 15.2826 27.5663 15.332 27.5812 15.4803C27.596 15.5495 27.7244 15.6186 27.8529 15.5989C27.8826 15.836 27.927 16.0139 27.9616 16.2412C27.9715 16.2709 28.0011 16.3598 28.1049 16.3351C28.3371 16.3203 28.4903 16.2017 28.7571 16.1671C29.1129 16.1473 29.2117 16.6118 29.4439 16.6068C29.7898 16.5475 29.9232 16.2906 30.2987 16.2462C30.358 16.2363 30.615 16.1572 30.7632 16.177C30.7681 16.177 30.7632 16.1621 30.7583 16.1621C31.0794 16.2116 31.035 15.8953 31.2079 15.7817C31.4994 15.6137 31.5291 15.332 31.6822 15.1097C31.6229 15.0949 31.5241 15.0554 31.5093 14.9911C31.4796 14.7638 31.8057 14.329 32.0627 14.2598C32.3641 14.1808 32.6606 14.0968 32.71 13.8942C32.6704 13.8398 32.6111 13.741 32.5766 13.6817C32.5469 13.5286 32.7446 13.4248 32.9669 13.4149C33.2485 13.41 33.1991 13.5137 33.5154 13.494C33.8316 13.4742 33.9601 13.3062 34.212 13.2025C34.3158 13.1629 34.3059 13.0345 34.5579 13.0295C35.0817 13.0147 35.4621 13.2568 35.561 13.6126C35.5955 13.6718 35.8179 13.7114 35.9266 13.7756C36.1984 13.9337 36.3021 14.0128 36.7468 14.0721C36.7616 14.1215 36.9741 14.166 37.0235 14.166C37.0532 14.2104 37.7795 14.6798 37.8141 14.6947C37.8635 14.7638 37.9722 14.8281 38.0117 14.9664C38.0315 15.0702 38.0216 15.2283 37.8586 15.2332C37.8586 15.2678 37.9327 15.2925 38.0167 15.2975C38.1995 15.2826 38.155 15.0801 38.239 14.9862C38.239 14.9862 38.323 14.8874 38.323 14.8429C38.2884 14.7095 38.1896 14.7836 38.155 14.6551C38.1303 14.5711 38.1007 14.4229 38.2588 14.4081C38.4119 14.413 38.5058 14.5316 38.7035 14.5514C38.6886 14.3438 38.2884 14.2055 38.0018 14.1017C37.9277 14.077 37.6066 14.0276 37.6164 13.914C37.6164 13.8893 37.6164 13.8646 37.6214 13.8399C37.4287 13.8547 37.315 13.8893 37.0976 13.825C37.0037 13.7855 36.8111 13.5582 36.7221 13.4248C36.6727 13.3556 36.5146 13.1876 36.3021 13.1382C36.1242 13.1135 35.9958 13.0493 35.9612 12.9109C35.9414 12.8615 35.9513 12.7973 35.9711 12.7429C35.9464 12.7429 35.8871 12.7034 35.892 12.6886C35.8525 12.5996 36.144 12.5898 36.2824 12.5206C36.3515 12.57 36.3466 12.7676 36.5195 12.7676C36.6529 12.7825 36.7814 12.7676 36.9099 12.7676C36.9741 12.985 37.4731 13.3655 37.7647 13.3754C37.8141 13.3952 37.8882 13.3705 37.9426 13.3754C37.9771 13.494 38.1797 13.5286 38.3774 13.5829C38.5651 13.6669 38.8813 13.8497 38.9357 13.9782C38.9456 14.0523 38.9851 14.1363 39.0049 14.2253C39.0543 14.4229 39.0098 14.4427 39.1877 14.5612C39.3211 14.6502 39.4348 14.7342 39.5286 14.8676C39.5286 14.8874 39.578 14.9714 39.6275 14.9763C39.6966 14.9664 39.7658 14.9763 39.835 14.9763C39.8152 15.0306 39.7411 15.1789 39.7559 15.2678C39.8103 15.4852 40.1463 15.752 40.3439 15.757C40.3983 15.7471 40.4526 15.7619 40.5119 15.757C40.3637 15.6878 40.4526 15.5396 40.4378 15.4704C40.418 15.3815 40.3192 15.1838 40.2747 15.1344C40.2698 15.1097 40.255 15.0801 40.255 15.0554C40.3143 15.1048 40.4971 15.3172 40.6404 15.3518H40.6601C40.6799 15.2728 40.7491 15.1838 40.8084 15.1542C40.7886 15.1295 40.759 15.0949 40.7392 15.0702C40.6404 15.0702 40.2599 14.8231 40.255 14.7984C40.2352 14.7787 40.2747 14.7391 40.2698 14.6897C40.1957 14.6255 40.0919 14.5415 39.9881 14.4772C39.9881 14.4328 40.0277 14.3834 40.0919 14.3784C40.2006 14.3834 40.2648 14.5069 40.4378 14.5267C40.4477 14.4575 40.4279 14.3932 40.3785 14.3241C40.5119 14.2944 40.5415 14.2203 40.7244 14.2154C40.9269 14.2401 40.9714 14.3191 41.1394 14.3389C41.2926 14.334 41.3717 14.3587 41.4952 14.3142C41.6039 14.2895 41.7867 14.2994 41.8707 14.2796C41.93 14.2796 41.9547 14.2895 41.9992 14.2549C41.9003 14.166 41.5841 14.0326 41.5248 13.8497C41.4902 13.7262 41.6236 13.5582 41.7027 13.4841C41.6829 13.4149 41.6483 13.3359 41.6286 13.2617C41.6385 13.1975 41.6632 13.2766 41.6533 13.1432C41.6236 13.0641 41.7225 13.0295 41.8213 13.0196C41.7916 12.9851 41.7966 12.9258 41.7669 12.8912C41.9843 12.8516 41.8905 12.5502 42.1177 12.5749C42.2017 12.5749 42.4735 12.7528 42.7502 12.8121C42.7996 12.8121 42.5822 12.8961 42.6217 12.9307C42.8194 13.1086 43.022 13.2815 43.106 13.2963C43.2542 13.3112 43.6198 13.2025 43.6593 13.1432C43.6346 13.1432 43.3925 13.0691 43.3925 13.0691C43.3431 13.0641 43.2147 13.0246 43.19 12.9208C43.1653 12.8566 43.7335 12.7627 43.941 12.7281C43.941 12.7281 43.9015 12.817 43.8422 12.8269C43.8817 12.8714 44.2128 13.1234 43.7285 13.158C44.1584 13.6719 45.0527 13.8695 45.3294 14.5168C45.3443 14.5168 45.3492 14.5069 45.3591 14.5168C45.2553 14.5514 45.1911 14.6601 45.033 14.6304C44.8699 14.6057 44.7118 14.5909 44.5487 14.5514C44.4351 14.5365 44.0892 14.4328 44.0448 14.3191C43.8372 14.2994 43.7977 14.1758 43.5457 14.1314C43.3629 14.1166 43.1257 14.0918 43.0071 14.1462C42.8836 14.2154 42.7799 14.2944 42.6514 14.2845C42.5377 14.2796 42.4438 14.2697 42.3302 14.2598C42.2709 14.2598 42.0782 14.2104 42.093 14.2845C42.1177 14.3389 42.1672 14.329 42.2116 14.3982C42.0436 14.4575 41.0604 14.2598 41.1197 14.5464C41.1295 14.5958 41.2531 14.5859 41.3272 14.6008C41.3173 14.6502 41.3371 14.6551 41.3568 14.7095C41.3964 14.8972 41.2827 14.8627 41.1938 14.9516C41.3865 15.0257 41.5248 15.1196 41.6681 15.2826C41.6039 15.3913 41.9646 15.589 42.0486 15.6582C42.0436 15.6829 42.0189 15.7174 41.9794 15.7273C42.0189 15.7422 42.0585 15.7273 42.098 15.7323C42.266 15.6433 42.4686 15.9497 42.681 15.9695C42.8737 15.9695 42.7453 15.7174 42.9725 15.7125C43.1949 15.7323 43.4765 16.0485 43.6989 16.0732C43.9953 16.088 43.9904 15.9447 44.0991 15.8163C44.1485 15.8558 44.2177 15.9151 44.3165 15.925C44.4104 15.9398 44.3709 15.8805 44.4647 15.836C44.4845 15.8657 44.4796 15.92 44.4993 15.9497C44.4796 15.9793 44.445 15.9991 44.4697 16.0584C44.4993 16.2066 44.5982 16.3598 44.6624 16.5624C44.7365 16.8193 44.5784 16.8737 44.5784 17.1059C44.5982 17.3431 44.5833 17.4666 44.5982 17.7334C44.5833 17.7779 44.524 17.7779 44.5537 17.8668C44.5685 17.8915 44.5833 17.9261 44.6031 17.9607C44.5982 17.9508 44.5932 17.9459 44.5883 17.9409C44.4697 17.9706 44.445 17.9656 44.2968 17.9558C44.0645 17.9508 43.8372 17.8322 43.6347 17.8273C43.2937 17.8273 43.5062 17.9459 43.1702 17.9459C42.77 17.936 42.2413 17.7581 41.8361 17.6148C41.6187 17.5358 41.4013 17.6395 41.2432 17.4962C41.1839 17.4369 41.0505 17.3826 40.9961 17.2047C40.9072 17.2047 40.8182 17.2096 40.7293 17.2096C40.7145 17.2096 40.6947 17.1998 40.6898 17.1849C40.339 17.3134 40.0524 17.3282 40.1413 17.7433C40.1611 17.8125 40.1808 17.9162 40.2006 18.0052C40.2055 18.0595 40.1166 18.2028 39.9931 18.2127C39.0543 18.2324 38.3279 17.4073 37.4237 17.4369C37.2953 17.4518 37.1767 17.4518 37.0383 17.4567C36.7765 17.4715 36.3663 17.1998 36.2824 16.8687C36.2329 16.6711 36.3812 16.5624 36.3515 16.3598C36.3318 16.261 36.1341 16.1967 36.1094 16.0831C36.0699 15.9052 36.2576 15.9447 36.2379 15.7372C36.1687 15.7669 36.1193 15.8212 36.0501 15.8262C35.813 15.8459 35.8624 15.589 35.5807 15.6137C35.3139 15.6186 35.3534 15.8163 35.0619 15.841C34.9087 15.8509 34.8099 15.7619 34.6172 15.7767C34.4048 15.7866 34.2219 15.9991 34.0589 16.0139C33.965 16.0139 33.7328 15.9052 33.5252 15.9151C32.8582 15.9596 31.9836 16.3252 31.4302 16.6414C31.2672 16.7501 30.9806 16.9083 30.6545 16.9428C30.1307 16.9972 29.938 16.9379 29.5032 16.7254C29.3698 16.8588 29.3747 17.1998 29.271 17.3579C29.2117 17.4073 29.1178 17.4715 29.0338 17.5259C28.7176 18.0002 28.3075 18.0892 27.9616 18.6129C27.8134 18.855 27.843 19.3096 27.9171 19.5073C27.7689 19.7444 27.5564 20.1199 27.3539 20.283C27.087 20.4609 26.5781 20.6931 26.3854 21.0143C26.0692 21.5479 25.8666 22.1211 25.7332 22.7535C25.6838 22.9907 25.3478 23.2378 25.3824 23.5342C25.4713 24.1667 25.8814 24.5521 25.9852 25.2339C26.0346 25.6193 25.8567 26.3803 25.5405 26.6026C25.6788 26.82 26.005 27.0473 26.0346 27.2697C26.0494 27.3685 26.1433 27.5167 26.1779 27.7489C26.1729 27.7391 26.1433 27.7539 26.1334 27.7539C26.2026 27.8132 26.2767 27.8576 26.3656 27.9416C26.3805 27.9812 27.2896 28.6037 27.4132 28.668C27.848 28.9249 27.9863 29.2658 28.3371 29.671C28.7522 30.1157 29.4044 29.923 30.1505 30.758C30.19 30.7976 30.447 30.842 30.6199 30.8124C31.2227 30.7234 31.5834 30.3776 32.1961 30.2738C32.5222 30.2343 32.9323 30.3924 33.1596 30.3628C33.4116 30.3282 33.4412 30.1256 33.6636 30.0119C34.2219 29.7352 35.0224 29.2313 35.7734 29.1077C36.3861 29.0287 35.9908 30.0218 36.4503 29.9724C36.5887 29.9527 37.068 29.8044 37.3348 29.755C37.824 29.6809 38.1007 29.923 38.3082 30.2195C38.1748 30.3628 38.2341 30.7877 38.2489 30.9705C38.2538 31.015 38.2143 31.0743 38.2736 31.1879C38.2094 31.2571 37.9969 31.6623 38.0117 31.8253C38.1007 32.5072 38.9061 33.0408 39.3162 33.441C39.5039 33.6436 39.494 33.9747 39.6176 34.2366C39.7757 34.5528 39.9042 34.7405 40.0376 35.3137C40.0969 35.6151 40.2401 35.709 40.2599 36.0549C40.2945 36.7713 39.6028 37.2951 39.6275 38.2289C39.667 39.0986 40.0623 39.4494 40.4427 39.9533C40.5514 40.0966 40.6947 40.1164 40.6997 40.2894C40.6898 40.3882 40.6997 40.5068 40.6997 40.6155C40.7046 41.6877 41.006 41.9891 41.3964 42.2411C41.4952 42.3053 41.678 42.7698 41.8806 43.0662C41.9448 43.1749 41.93 43.3034 41.8262 43.422C41.9349 43.4912 41.8954 43.6443 41.8756 43.8568C41.8954 43.837 41.925 43.8074 41.9942 43.7629C42.0535 43.8568 42.1474 43.9062 42.3302 43.837C42.7502 43.6641 42.8836 43.3083 43.3333 43.1206C43.4518 43.081 43.4914 43.1403 43.61 43.1057C43.7088 43.0613 43.7878 42.9723 43.9212 42.9032C43.9657 42.7006 44.2967 42.666 44.4796 42.5079C44.9144 42.1225 45.0676 41.7568 45.3344 41.3171C45.5221 41.0404 45.6259 40.9762 45.8631 40.655C45.9718 40.4623 46.1744 40.1461 46.2089 39.8397C46.2139 39.7409 46.1694 39.6865 46.0953 39.6717C46.2238 39.3456 46.0854 39.4543 46.4214 39.1282C46.54 39.0491 46.6882 38.975 46.787 38.8219C46.8859 38.6786 46.9353 38.1993 46.96 37.972C46.9798 37.5471 46.7623 37.7299 46.7821 37.4087C46.792 37.2457 46.9205 37.0134 47.0588 36.9442C47.207 36.124 48.2101 35.8523 48.2694 34.9184C48.2743 34.8295 48.2842 34.7801 48.215 34.7109C48.2249 34.449 48.2199 34.2069 48.2298 33.945C48.2298 33.8561 48.2496 33.7523 48.2545 33.6584C48.2595 33.6337 48.3188 33.525 48.3089 33.4608C48.3188 33.2236 48.0025 33.0556 47.9877 32.6307C47.9778 32.2502 47.8197 31.9834 47.8099 31.5881C47.7851 31.2274 48.0075 31.0891 48.047 30.758C48.1112 30.2491 48.3336 30.2491 48.5016 29.923C48.5559 29.7995 48.5559 29.3251 48.6202 29.2065C48.8129 28.9298 48.9759 28.6729 49.1439 28.3715C49.3762 27.9515 49.4107 27.6155 49.5639 27.0868C49.6874 26.6421 49.8357 25.6095 49.7418 24.9276C49.7319 24.8634 49.7122 24.8288 49.6776 24.7596C49.4948 24.9078 49.3416 25.1154 49.0896 25.2339C48.9166 25.2834 48.9117 25.2043 48.8129 25.2685C48.719 25.3328 48.7388 25.4909 48.6251 25.5057C48.5065 25.5205 48.3484 25.1499 48.2298 25.0314C48.2891 24.8634 48.2002 24.8535 48.1755 24.641C47.8988 24.6558 47.7654 24.1716 47.6122 24.0234C47.4393 23.8702 47.3454 23.8702 47.1725 23.6824C46.9649 23.465 47.0242 23.1488 46.8019 22.8375C46.6141 22.5905 46.3769 22.3187 46.2089 21.9728C46.1744 21.7357 46.1249 21.5281 46.0755 21.3058C45.9174 21.1576 45.6012 20.9056 45.5814 20.6387C45.1367 19.9025 44.6723 19.2108 44.193 18.4795C44.1782 18.4202 44.1633 18.3313 44.1386 18.272C44.3511 18.4993 44.6624 19.028 44.8847 19.0774C44.8798 18.9489 44.9144 18.6574 44.9094 18.4746C44.9292 18.6327 44.944 18.776 44.9589 18.86C44.9737 18.8896 45.1565 19.1021 45.1911 19.1564C45.3591 19.359 45.4727 19.4875 45.6358 19.7098C45.6802 19.779 45.7741 19.8877 45.8334 20.0063C45.8581 20.0755 45.8977 20.2583 45.9619 20.3423C45.9915 20.3769 46.1151 20.3522 46.1546 20.4016C46.1842 20.4411 46.2386 20.5103 46.3078 20.5597C46.3918 20.787 46.5252 20.8463 46.6042 21.1378C46.6932 21.622 46.8167 21.8641 47.1428 21.9531C47.2021 22.2545 47.4541 22.6399 47.5826 22.7733C47.7061 22.9166 47.8889 23.0352 47.9087 23.3168C47.9185 23.4206 47.884 23.6726 47.9828 23.6726C48.0174 23.9196 48.052 24.1765 48.1557 24.3594C48.2298 24.4878 48.1607 24.4779 48.1854 24.4977C48.215 24.5175 48.4127 24.6311 48.4472 24.641C48.467 24.6212 48.467 24.6114 48.4868 24.5916C48.6399 24.5669 48.6301 24.3742 48.7289 24.2111C48.8771 24.2062 48.8969 24.221 48.9908 24.226C49.0599 24.1469 49.2576 23.7714 49.3169 23.7269C49.475 23.6429 49.5639 23.554 49.6726 23.4156C49.643 23.4008 49.638 23.3464 49.6331 23.3119C49.6035 23.0599 49.8752 23.0203 49.9987 22.9561C49.9691 22.8227 49.9592 22.6349 50.0679 22.6349C50.2458 22.6349 49.9543 22.3385 50.1321 22.3187H50.142C50.1223 22.2347 50.0976 22.1557 50.0729 22.0717C49.8851 21.4442 49.6726 20.8265 49.4404 20.2188C49.4206 20.4164 49.386 20.5943 49.1439 20.5745C48.9661 20.5646 48.887 20.4757 48.8574 20.3176C48.8129 20.1891 48.8376 20.1002 48.8079 19.9668C48.7931 19.9272 48.7684 19.8828 48.7684 19.8432C48.6498 19.8482 48.8376 19.9767 48.7042 20.031C48.6696 19.9371 48.6301 19.8927 48.5955 19.7691C48.4225 19.6901 48.136 19.196 48.0223 18.9242C47.9877 18.8402 47.963 18.7908 47.9383 18.6673C47.8889 18.5092 47.884 18.3214 47.963 18.3313C48.1508 18.3757 48.3632 18.7266 48.5016 18.9736C48.5214 19.023 48.5362 19.107 48.5856 19.1762C48.6795 19.3195 48.7536 19.2553 48.8574 19.3985C48.9364 19.5122 49.0204 19.6604 49.1192 19.7345C49.1983 19.7592 49.2378 19.7642 49.2675 19.7691C48.803 18.6129 48.2595 17.4913 47.632 16.4141C47.6122 16.3993 47.5875 16.3796 47.5628 16.3549C47.5183 16.2709 47.4887 16.1967 47.3948 16.1424C47.2762 16.088 47.212 16.0139 47.1477 15.9052C47.0736 15.8113 47.0983 15.757 47.0193 15.6433C46.96 15.5742 46.9254 15.5692 46.8859 15.4852C46.9303 15.5149 46.9254 15.5149 46.9797 15.5248C47.0094 15.3963 46.9303 15.3271 46.9303 15.2777C46.7772 15.0405 46.6191 14.8132 46.4609 14.581C46.3967 14.497 46.3423 14.418 46.3028 14.3438C43.8521 10.8802 40.5366 7.96493 36.48 5.94897C36.4701 5.94403 36.4652 5.9391 36.4602 5.92921C36.4108 5.90451 36.3515 5.90945 36.3071 5.93415ZM45.4233 14.3784C45.4332 14.3784 45.4184 14.3784 45.4085 14.3834C45.4134 14.3784 45.4134 14.3784 45.4233 14.3784Z" fill="white"/>
<path d="M26.8001 10.9838C26.8693 10.964 27.0175 10.9443 27.0818 10.9196C27.2004 10.8652 27.3387 10.7021 27.5858 10.6774C27.7439 10.6676 27.8872 10.6676 27.9662 10.5984C28.0749 10.5292 27.9514 10.4205 27.9316 10.3563C27.9119 10.2574 27.8921 10.1636 27.8724 10.0647C27.8625 9.99557 28.1194 9.9857 28.1145 9.91652C28.0749 9.76829 27.8872 9.5904 27.5413 9.61511C27.4721 9.62005 27.3585 9.63488 27.2893 9.63488C27.1411 9.65464 26.8644 9.77322 26.8742 9.83252C26.8841 9.87204 26.9237 9.89676 26.983 9.93134C26.9138 9.98569 26.6568 10.0499 26.5679 10.0647C26.5284 10.0647 26.395 10.0647 26.4197 10.1735C26.4246 10.2624 26.5827 10.2871 26.7408 10.3266C26.7211 10.5341 26.3505 10.5934 26.3851 10.8109C26.395 10.9196 26.6173 10.9887 26.8001 10.9838Z" fill="white"/>
<path d="M27.3436 8.78022C27.5017 8.78022 27.6054 8.67646 27.5807 8.57764C27.4869 8.59246 27.2349 8.64187 27.2349 8.69128C27.2447 8.72093 27.309 8.78022 27.3436 8.78022Z" fill="white"/>
<path d="M27.8623 8.97284C27.8573 8.9926 27.8672 9.0173 27.8771 9.03707C27.8771 9.04695 27.7931 9.10625 27.7981 9.15072C27.8079 9.1853 27.9364 9.19518 28.0303 9.20012C28.0253 9.22483 28.0451 9.2446 28.0451 9.27424C28.0253 9.29401 28.0155 9.31377 28.0006 9.33353C28.0105 9.378 28.0204 9.41753 28.0303 9.462C28.0599 9.45212 28.1192 9.462 28.1489 9.45212C28.1143 9.42742 28.0698 9.40271 28.1192 9.32859C28.1588 9.33354 28.2576 9.36812 28.3762 9.35329C28.3514 9.42741 28.3959 9.43236 28.4107 9.50647C28.4206 9.57565 28.2872 9.62505 28.302 9.69423C28.3119 9.7634 28.4157 9.75352 28.5491 9.74364C28.6479 9.73376 28.727 9.69423 28.8802 9.67941C28.9147 9.68929 28.974 9.67941 29.0136 9.67941C28.9938 9.71399 28.9246 9.73376 28.9345 9.80293C28.9543 9.88693 29.1568 9.89681 29.31 9.87211C29.315 9.91163 29.3298 9.9561 29.3397 10.0006C29.2804 10.0895 28.9839 10.1785 28.7121 10.2032C28.7319 10.297 28.8604 10.3168 28.8851 10.4403C28.9048 10.5737 28.5145 10.6034 28.5244 10.7417C28.5343 10.7566 28.5837 10.7763 28.6084 10.7813C28.6677 10.7664 28.6578 10.7318 28.7467 10.7269C28.9197 10.7121 28.9889 10.8158 29.1865 10.801C29.2705 10.7911 29.3891 10.7566 29.4335 10.6973C29.4385 10.717 29.4632 10.7368 29.478 10.7566C29.4928 10.89 29.2063 10.8603 28.9938 10.9048C28.9592 10.9147 28.5639 11.2408 28.5392 11.2704C28.5442 11.2853 28.5442 11.31 28.5491 11.3248C28.5787 11.3297 28.6232 11.3198 28.6529 11.3149C28.7023 11.2803 28.7418 11.2309 28.8505 11.226C28.9048 11.2111 29.0037 11.2062 29.058 11.2111C29.0481 11.142 29.1074 11.053 29.2656 11.0431C29.3496 11.0333 29.4385 11.0827 29.5472 11.0777C29.7745 11.0679 30.15 10.9641 30.2982 10.9493C30.5008 10.9394 30.6886 10.9246 30.8813 10.9196C31.0641 10.9097 31.1382 10.8603 31.2568 10.7714C31.2519 10.7516 31.242 10.7318 31.242 10.7121C31.1728 10.7269 31.0937 10.7071 30.9455 10.6923C31.0344 10.5737 31.3556 10.4897 31.326 10.3267C31.3111 10.2427 31.153 10.1735 30.985 10.1785C30.8862 10.1883 30.8912 10.1735 30.8072 10.218C30.8269 10.2032 30.8516 10.1933 30.8714 10.1785C30.822 10.1933 30.8121 10.2279 30.7133 10.2476C30.6935 10.2427 30.7034 10.2081 30.6985 10.1883C30.738 10.1834 30.7627 10.1488 30.7577 10.129C30.7429 10.0599 30.5799 10.0253 30.5552 9.96105C30.4959 9.74364 30.1203 9.71893 29.8535 9.60035C29.6509 9.51141 29.6608 9.31377 29.3644 9.27918C29.2655 9.25942 29.1815 9.30883 29.0284 9.28906C29.0481 9.25942 29.0827 9.22483 29.1321 9.21989C29.0926 9.04695 29.5077 8.93331 29.4039 8.7159C29.1173 8.72578 28.8406 8.74555 28.5491 8.76531C28.5293 8.74555 28.5096 8.72084 28.4898 8.70602C28.5096 8.58743 28.8208 8.58249 28.806 8.47873C28.7961 8.46391 28.6924 8.41943 28.643 8.41943C28.5096 8.42932 28.3663 8.44414 28.2279 8.44414C28.1538 8.44908 28.0155 8.51826 28.0204 8.56273C28.0303 8.60226 27.9858 8.6319 27.9908 8.70108C27.9068 8.70108 27.7931 8.74555 27.8079 8.80978C27.8079 8.82955 27.8672 8.84931 27.8919 8.85425C27.8919 8.86907 27.8672 8.9086 27.8425 8.90366C27.8228 8.91355 27.7338 8.88884 27.7239 8.83943C27.6597 8.84437 27.5559 8.84931 27.4917 8.85919C27.5115 8.95801 27.63 8.96296 27.8623 8.97284Z" fill="white"/>
<path d="M28.6385 9.85727C28.6187 9.85233 28.5841 9.85727 28.5644 9.86221C28.4952 9.8968 28.4754 9.92644 28.4853 9.97091C28.5298 9.96597 28.6039 9.96104 28.6484 9.96104C28.6434 9.92645 28.6385 9.89186 28.6385 9.85727Z" fill="white"/>
<path d="M23.8011 6.72469C23.8011 6.69999 23.8406 6.67034 23.8802 6.65552C23.7517 6.6654 23.6726 6.70493 23.5392 6.72963C23.3959 6.73951 23.2872 6.76916 23.2675 6.68022C23.2181 6.69999 23.2181 6.69999 23.1094 6.69999C23.0797 6.72469 23.0501 6.73951 23.0698 6.79881C22.9216 6.76422 22.7783 6.8581 22.5807 6.8828C22.4571 6.91245 22.3336 6.89763 22.1162 6.92728C22.1162 6.95198 22.1063 6.97174 22.1261 6.99151C22.0767 6.98162 22.047 6.98162 21.9186 6.97668C21.8247 7.00633 21.6863 7.03598 21.5776 7.06563C21.5035 7.07551 21.4393 7.04586 21.38 7.03598C21.3405 7.06069 21.3503 7.07551 21.3899 7.11998C21.3355 7.14468 21.2416 7.18915 21.1379 7.19903C21.0539 7.21385 20.9106 7.15951 20.9106 7.10516C20.9007 7.05575 20.8464 7.06068 20.8118 7.0261C20.7821 7.03598 20.7278 7.03598 20.6981 7.04586C20.5993 7.0508 20.5598 7.12986 20.4511 7.15951C20.456 7.17927 20.4511 7.18915 20.456 7.20891C20.377 7.19903 20.2979 7.20398 20.1694 7.2435C20.2139 7.32256 20.7426 7.29785 20.9155 7.26327C20.9205 7.28797 20.9402 7.30279 20.9798 7.30773C20.8217 7.35714 20.4461 7.45103 20.2386 7.49056C20.3918 7.5202 20.624 7.43126 20.8612 7.4115C20.8315 7.4955 20.8019 7.53997 20.8118 7.61902C20.7772 7.6289 20.7228 7.65361 20.6833 7.67337C20.9995 7.62396 21.1181 7.69808 21.3355 7.69314C21.7407 7.68819 22.1212 7.69314 22.6647 7.62396C23.1637 7.5449 23.4207 7.4115 23.7665 7.31762C23.9543 7.26821 24.2804 7.11503 24.3792 7.00633C24.3891 7.00633 24.399 6.99645 24.4039 6.99151C24.3545 6.81363 23.8456 6.91245 23.8011 6.72469Z" fill="white"/>
<path d="M3.08294 27.6302C3.02364 27.645 3.01377 27.6499 2.95447 27.6499C2.93471 27.6302 2.94953 27.5857 2.94953 27.561C2.76177 27.6104 2.53942 27.5215 2.42084 27.3831C2.40601 27.3535 2.35661 27.2596 2.27755 27.2695C2.01567 27.3485 1.85261 27.0866 1.53145 27.1706C1.22016 27.2645 1.09169 27.4968 1.01758 27.8575C1.01758 27.8229 1.04722 27.8624 1.07687 27.8377C1.14604 27.7092 1.30416 27.4918 1.43263 27.4424C1.49192 27.4424 1.48698 27.4029 1.53145 27.4473C1.51168 27.4918 1.48698 27.5264 1.55121 27.5758C1.65498 27.5313 1.68956 27.5363 1.75874 27.5165C1.8625 27.4918 1.92673 27.6549 2.0305 27.6302C2.10955 27.5857 2.10461 27.5462 2.18861 27.6005C2.23308 27.6252 2.21331 27.7092 2.28249 27.6895C2.31213 27.8624 2.43566 27.8278 2.56907 27.8821C2.56907 27.9365 2.55425 27.9958 2.4999 28.0106C2.4999 28.0304 2.50483 28.065 2.50483 28.0847C2.66295 28.0551 2.80624 28.1045 2.98906 28.06C3.10765 28.0502 3.26576 28.0007 3.30529 27.8327C3.23118 27.7883 3.1867 27.6549 3.08294 27.6302Z" fill="white"/>
<path d="M1.35427 27.6846C1.35427 27.6945 1.34933 27.6895 1.33945 27.6895C1.33945 27.7142 1.34439 27.7488 1.34439 27.7735C1.37898 27.7686 1.29498 27.8229 1.29004 27.897C1.29004 27.9168 1.37404 27.8723 1.38392 27.8723C1.38392 27.813 1.37898 27.7488 1.37404 27.6944C1.35921 27.6895 1.35921 27.6945 1.35427 27.6846Z" fill="white"/>
<path d="M2.79193 28.6582C2.80181 28.6632 2.8117 28.6681 2.8117 28.678C2.74253 28.6582 2.6437 28.6187 2.53994 28.6384C2.50535 28.6681 2.46582 28.6879 2.46582 28.7323C2.48558 28.8163 2.52017 28.9053 2.61405 28.8904C2.74252 28.841 2.77711 28.8064 2.88088 28.757C2.86111 28.7126 2.86605 28.6681 2.79193 28.6582Z" fill="white"/>
<path d="M5.35618 28.0997C5.371 28.2331 5.49453 28.2182 5.63288 28.1935C5.69711 28.1787 5.75641 28.1688 5.79099 28.0799C5.74652 28.0206 5.49453 27.991 5.45994 27.9959C5.4303 28.0107 5.35124 28.0453 5.35618 28.0997Z" fill="white"/>
<path d="M4.69421 27.9266C4.71397 27.9414 4.72879 27.9513 4.74856 27.9662C4.5608 27.8772 4.49162 27.6796 4.17539 27.7438C4.07163 27.7685 4.01728 27.8327 3.8987 27.8525C3.79987 27.8822 3.76528 27.7982 3.6714 27.813C3.63682 27.813 3.60717 27.8871 3.60717 27.9167C3.61706 27.981 3.67141 28.0502 3.73564 28.0304C3.74552 28.1193 3.7554 28.2182 3.82458 28.2873C3.72081 28.3862 3.62694 28.3466 3.41941 28.3862C3.40953 28.396 3.39965 28.4356 3.37988 28.4454C3.37988 28.5097 3.43423 28.6134 3.50341 28.6233V28.5196C3.5627 28.5541 3.52812 28.5097 3.61211 28.4998C3.7307 28.4701 3.92834 28.396 4.02716 28.4504C4.07657 28.4948 4.07658 28.6134 4.15563 28.5937C4.27422 28.564 4.2248 28.3466 4.35327 28.317C4.41256 28.317 4.38786 28.3812 4.45704 28.3614C4.53609 28.3516 4.56574 28.2972 4.62503 28.2231C4.74362 28.1984 4.86714 28.1737 4.99067 28.149C4.90173 28.0353 4.80291 28.0156 4.69421 27.9266Z" fill="white"/>
<path d="M7.63896 30.9506C7.56979 30.9605 7.53027 31.1137 7.54509 31.2668C7.55003 31.3014 7.61426 31.257 7.64885 31.252C7.71802 31.2421 7.74767 31.0939 7.75755 31.0396C7.75261 31.0099 7.74767 30.9605 7.74273 30.9358C7.71308 30.9407 7.67849 30.9506 7.63896 30.9506Z" fill="white"/>
<path d="M12.8961 35.1506C12.8368 35.1604 12.738 35.3383 12.6787 35.1407C12.5898 35.1506 12.4613 35.0814 12.3773 35.032C12.3625 35.032 12.3378 35.0369 12.323 35.0369C12.1648 35.0616 12.0858 35.2099 12.1253 35.4372C12.1599 35.5755 12.5305 35.8077 12.738 35.7929C12.9011 35.7633 13.0443 35.4075 13.0147 35.2741C13.0098 35.2593 12.9406 35.1506 12.8961 35.1506Z" fill="white"/>
<path d="M5.67753 17.002C5.67259 16.9872 5.67259 16.9823 5.67753 17.002Z" fill="white"/>
<path d="M5.67726 17.0064V17.002H5.67285L5.67726 17.0064Z" fill="white"/>
<path d="M13.2423 48.8126C13.3213 48.7385 13.3806 48.6989 13.43 48.5754C13.4844 48.4865 13.435 48.4519 13.3905 48.3432C13.346 48.2345 13.1731 48.2295 13.0941 48.1258C12.9952 48.022 12.9656 47.9281 12.847 47.8293C12.8025 47.8145 12.6148 47.7305 12.5802 47.6514C12.5654 47.6218 12.6197 47.6168 12.6543 47.6119C12.8272 47.6267 13.0199 47.7404 13.1781 47.7651C13.262 47.7651 13.5585 47.8935 13.7512 47.9084C14.2997 47.938 14.2305 47.4785 14.3738 47.187C14.5023 46.9399 14.7295 46.7571 14.8778 46.4804C14.9371 46.3519 14.9371 46.5595 14.9914 46.426C14.9964 46.426 15.0013 46.4359 14.9964 46.4359C15.0557 46.2284 15.1347 46.0406 15.362 45.9319C15.2632 45.6305 15.1594 45.3489 15.0655 45.0327C14.9964 44.8251 15.0458 45.0673 15.1792 44.9141C15.2533 44.84 15.4312 44.8202 15.5003 44.672C15.6585 44.3409 16.029 44.499 16.2959 44.2125C16.3206 44.1729 16.3255 44.1186 16.4046 44.079C16.5923 43.9901 16.79 44 17.0667 43.9802C17.3137 43.9555 17.5509 43.7925 17.6151 43.6442C17.625 43.5948 17.5855 43.4614 17.625 43.3774C17.7881 43.1304 17.8276 43.0167 17.9857 42.7005C18.0005 42.656 17.9956 42.4139 17.9709 42.2756C17.9511 42.1916 18.0549 42.0433 18.0994 41.9791C18.1092 41.9445 18.1488 41.8753 18.1389 41.821C18.1092 41.648 18.0697 40.9958 18.0302 40.7537C17.961 40.4474 17.6843 40.3288 17.8572 40.1064C17.9808 39.9829 18.1389 39.9187 18.2476 39.7161C18.3168 39.5926 18.376 39.5481 18.4403 39.4246C18.7466 38.8415 19.3 38.2535 19.137 37.2159C19.0876 36.9244 18.969 36.6625 18.6478 36.5983C18.4255 36.5686 18.3118 36.6526 18.0845 36.6329C17.8276 36.5785 17.3137 36.2475 17.1309 36.0597C16.9629 36.0004 16.6911 35.9312 16.3947 35.9115C16.2217 35.9461 16.0389 35.9905 15.8462 36.0399C15.5448 36.0696 15.4707 35.8522 15.1545 35.8868C15.0507 35.8967 14.9766 36.0054 14.863 36.0696C14.8333 36.0745 14.7888 36.0745 14.7641 36.0795C14.7444 35.9856 14.7394 35.8621 14.6752 35.7385C14.6505 35.6545 14.5171 35.6644 14.3787 35.615C14.191 35.5063 13.6277 35.3185 13.3708 35.3383C13.1484 35.363 13.0348 35.6595 12.931 35.8917C12.9063 35.951 12.8569 36.0548 12.8124 36.0696C12.7778 36.0696 12.7235 35.9609 12.7136 35.9263C12.6197 35.9362 12.5011 35.9461 12.3875 35.9559C12.3282 35.8176 12.259 35.7188 12.1009 35.6694C12.0416 35.6545 11.9131 35.6694 11.8835 35.5409C11.8143 35.1258 12.1602 34.5873 12.3381 34.2859C12.3232 34.1821 12.1503 34.1623 12.0466 34.0388C11.9527 33.8955 11.7106 33.4755 11.6809 33.3125C11.4339 33.273 11.088 32.8727 10.8755 32.8875C10.8558 32.8826 10.8212 32.8974 10.7965 32.8974C10.7965 32.8875 10.7965 32.8777 10.7915 32.8678C10.6532 32.8875 10.4259 32.8085 10.3369 32.769C10.2381 32.7887 10.1294 32.7986 10.0009 32.8085C9.64519 32.7887 9.13132 32.8875 8.97815 32.517C8.91886 32.5318 8.81016 32.4972 8.78051 32.4577C8.58287 32.1414 8.49393 32.1958 8.21229 31.9734C8.10358 31.9833 7.98994 32.0031 7.8763 32.013C7.7923 31.845 7.80712 31.6424 7.649 31.6078C7.45136 31.5584 7.22902 31.5584 7.11043 31.3855C7.10549 31.3558 7.10055 31.3064 7.09561 31.2768C7.13514 31.2916 7.22407 31.2669 7.2636 31.2274C7.2636 31.2274 7.05114 31.2175 6.93749 31.2323C6.9029 31.257 6.68055 31.3064 6.66573 31.3361C6.63608 31.4942 6.50762 31.5238 6.3495 31.5633C6.25562 31.5782 6.12716 31.5633 6.11233 31.4497C5.88999 31.4695 5.73187 31.509 5.53917 31.5288C5.47 31.5189 5.40082 31.4398 5.38106 31.3113C5.22295 31.2916 4.99071 31.2619 4.9166 31.0544C4.84742 31.0643 4.8079 31.0692 4.73872 31.0742C4.77825 31.2224 4.89189 31.1483 4.96107 31.2866C4.86719 31.3015 4.81284 31.3064 4.7239 31.3212C4.63496 31.42 4.48673 31.4052 4.51144 31.5979C4.53614 31.7511 4.65966 31.8252 4.68437 31.9734C4.69425 32.0179 4.66955 32.181 4.62508 32.1909C4.49661 32.2106 4.43238 31.9685 4.40767 31.8302C4.39285 31.7363 4.41261 31.5041 4.42249 31.3015C4.4719 31.2965 4.52132 31.2372 4.50155 31.1335C4.50155 31.1236 4.45214 30.9902 4.39285 30.9951C4.2545 31.01 4.26438 31.2076 4.14579 31.2718C3.92345 31.4151 3.7851 31.4793 3.58251 31.6029C3.47381 31.677 3.38981 31.7165 3.38487 31.9191C3.38487 32.008 3.39969 32.1711 3.35028 32.2353C3.30581 32.3045 3.2317 32.3292 3.24158 32.4626C3.22182 32.4676 3.19711 32.5071 3.20205 32.5318C3.20699 32.5516 3.21193 32.5812 3.21193 32.601C3.13782 32.6405 3.18229 32.6207 3.11312 32.6108C3.10323 32.6207 3.09829 32.6257 3.09335 32.6355C3.09829 32.6257 3.10323 32.6109 3.10323 32.601C2.955 32.4577 2.87594 32.1069 2.64371 32.1316C2.45595 32.1464 2.39666 32.4033 2.19408 32.428C2.07549 32.428 2.02608 32.2205 1.94702 32.1662C1.81362 32.092 1.66044 32.0031 1.62091 31.7462C1.58633 31.4892 1.55174 31.2768 1.52703 31.0297C1.5468 30.9161 1.50233 30.4417 1.49739 30.3429C1.49245 30.2886 1.48256 30.2194 1.47762 30.165C1.33927 30.1403 1.30468 29.9575 1.13175 29.9871C0.914339 30.0514 0.746346 30.1354 0.563526 30.1848C0.494352 30.1897 0.49435 30.165 0.484468 30.0761C0.484468 30.0563 0.479529 30.0366 0.479529 30.0217C0.519058 29.9328 0.563529 29.8933 0.558588 29.7747C0.548706 29.5919 0.528939 29.4189 0.509174 29.2312C0.538821 29.2312 0.533878 29.241 0.553642 29.2213C0.553642 29.246 0.548706 29.2806 0.558588 29.3003C0.573411 29.1817 0.612933 29.0879 0.59811 28.91C0.59811 28.6926 0.66729 28.4702 0.657408 28.3022C0.657408 28.2726 0.652462 28.2331 0.652462 28.1985C0.588228 28.2183 0.563528 28.238 0.519059 28.2182C0.469648 28.2182 0.509171 28.2034 0.405409 28.2232C0.276941 28.2627 0.143532 28.3121 0.104004 28.5197C0.173179 29.3695 0.281889 30.2194 0.435062 31.0544C0.56847 31.1236 0.583289 31.2175 0.677169 31.1977C0.756226 31.1878 0.696936 31.1285 0.780934 31.1236C0.80564 31.1236 0.790812 31.1187 0.815518 31.1187C0.894575 31.3756 0.988457 31.4695 1.12681 31.6375C1.16139 31.7066 1.19598 31.7066 1.23551 31.8203C1.28986 31.9932 1.25527 32.1513 1.36398 32.26C1.4035 32.2551 1.39362 32.26 1.43315 32.2501C1.40844 32.2304 1.41339 32.1859 1.41833 32.1464C1.41833 32.1563 1.67526 32.3638 1.71973 32.428C1.74938 32.5219 1.77409 32.6356 1.88279 32.6603C1.88773 32.68 1.90255 32.7294 1.92726 32.7294C2.00631 32.7146 2.08537 32.6405 2.14466 32.7196C2.22866 32.8184 2.32254 33.016 2.45101 33.016C2.54489 32.9963 2.54983 32.9468 2.53995 32.8233C2.52019 32.8134 2.47077 32.764 2.46089 32.7245C2.45101 32.6603 2.60913 32.3984 2.68818 32.3836C2.81171 32.3638 2.7623 32.6553 2.86606 32.7097C2.85618 32.7591 2.82653 32.7937 2.83641 32.8381C2.84135 32.8678 2.91547 32.9073 2.94511 32.9221C2.955 32.9221 2.96488 32.9172 2.95994 32.9073C2.96488 32.932 2.95499 32.9617 2.95994 32.9864C2.98464 33.2038 3.13287 33.1494 3.17734 33.4064C3.20205 33.5249 3.16746 33.5793 3.18723 33.7226C3.20699 33.8066 3.26134 33.8955 3.28605 33.9845C3.29099 34.0042 3.29099 34.0289 3.29593 34.0438C3.28605 34.0734 3.28605 34.108 3.28111 34.1426C3.29099 34.1722 3.33052 34.2315 3.38487 34.2562C3.37993 34.5873 3.17735 34.5131 3.12794 34.78C3.09335 34.9826 3.10817 35.2889 2.89571 35.2988C3.02912 35.8176 2.96982 36.0449 3.03406 36.3068C3.05876 36.4797 3.13287 36.6922 3.24652 36.6971C3.32558 36.6922 3.28111 36.6378 3.36511 36.707C3.35522 36.8948 3.25146 36.9293 3.21687 37.1023C3.18723 37.1566 3.17734 37.3049 3.21687 37.4383C3.26134 37.6458 3.41946 37.8681 3.54792 38.0015C3.58745 38.051 3.63192 38.0312 3.68627 38.1004C3.73568 38.1695 3.79003 38.3375 3.86415 38.4166C3.89874 38.4512 3.93333 38.4364 3.98768 38.5006C4.10626 38.7229 4.20509 38.8662 4.33356 39.1281C4.45708 39.3801 4.57567 39.6222 4.71896 39.894C4.8079 40.062 4.95119 40.146 5.0006 40.3288C5.05495 40.4573 5.04507 40.5758 5.13895 40.6697C5.36129 40.8871 5.51941 41.0403 5.80105 41.1688C5.9394 41.2281 6.00857 41.2676 6.1568 41.4158C6.30009 41.5443 6.39398 41.5245 6.55703 41.6233C6.75962 41.7419 6.95231 41.9149 7.13019 42.1817C7.19443 42.3003 7.4563 42.9327 7.48595 43.0464C7.54524 43.2094 7.54524 43.4911 7.60454 43.6294C7.64901 43.7925 7.70335 43.9358 7.76265 44.079C7.77253 44.1927 7.80218 44.3459 7.82688 44.4249C7.84665 44.4496 7.84665 44.4842 7.86147 44.5139C7.99982 44.8548 7.92077 45.0277 8.069 45.3934C8.07394 45.4033 8.07393 45.4131 8.07887 45.423C9.40802 46.7077 10.8854 47.8738 12.5061 48.8818C12.5555 48.8916 12.5999 48.9015 12.6395 48.8966C12.847 48.8818 13.1089 48.9361 13.2423 48.8126Z" fill="white"/>
<path d="M2.22852 26.2865C2.23346 26.3754 2.24828 26.5088 2.31746 26.494C2.33722 26.4792 2.35205 26.4446 2.35699 26.4249C2.34711 26.3458 2.35699 26.2766 2.26311 26.2766C2.27299 26.2766 2.24334 26.2914 2.22852 26.2865Z" fill="white"/>
<path d="M2.1941 25.5995C2.13975 25.6193 2.10516 25.6836 2.09033 25.728C2.15951 25.7181 2.20892 25.6984 2.29292 25.6638C2.26327 25.6341 2.26327 25.565 2.1941 25.5995Z" fill="white"/>
<path d="M2.48571 25.7527C2.461 25.728 2.46101 25.6983 2.44124 25.6687C2.42642 25.6983 2.46594 25.7823 2.48571 25.7527Z" fill="white"/>
<path d="M3.44897 27.477C3.50826 27.4819 3.54779 27.4226 3.58731 27.3683C3.58731 27.3386 3.57743 27.2892 3.57743 27.2546C3.55767 27.3337 3.48849 27.4128 3.40944 27.4128C3.40944 27.4325 3.4045 27.472 3.41438 27.4918C3.42921 27.4869 3.43414 27.4869 3.44897 27.477Z" fill="white"/>
<path d="M6.18616 11.063C6.11204 11.142 6.04287 11.2211 5.96875 11.3002C6.04287 11.226 6.13674 11.1668 6.23556 11.0976C6.2158 11.0778 6.20098 11.063 6.18616 11.063Z" fill="white"/>
<path d="M7.1841 11.1025C7.13469 11.1272 7.09516 11.1618 7.02599 11.1618C6.95187 11.0284 6.92222 11.1964 6.71964 11.3001C6.59117 11.3643 6.56647 11.3149 6.57141 11.2408C6.39848 11.3298 6.19095 11.4187 6.19589 11.3199C6.09213 11.3891 6.04765 11.4088 5.97848 11.4187C6.06742 11.3149 6.13165 11.2705 6.27988 11.1618C6.24036 11.1272 6.22059 11.1618 6.17118 11.1914C6.0773 11.2359 6.01307 11.2754 5.95378 11.3149C5.95378 11.3149 5.95378 11.3149 5.94883 11.3199C5.94883 11.3199 5.94884 11.3199 5.9439 11.3199C5.40532 11.9227 4.89145 12.5502 4.40723 13.2024C4.52087 13.1777 4.60487 13.1728 4.76792 13.1036C4.61475 13.3506 5.05945 13.0542 5.23238 13.0097C5.42014 12.9652 5.57332 12.8516 5.81543 12.7923C5.8352 12.7676 5.84013 12.8417 5.88954 12.8071C5.93401 12.8022 5.98342 12.7478 5.98836 12.7034C6.02789 12.565 5.56837 12.7083 5.45473 12.6885C5.50414 12.6589 5.53379 12.654 5.57826 12.6194C5.73143 12.649 6.17118 12.4662 6.33424 12.3921C6.38859 12.3278 6.48247 12.1796 6.51212 12.1253C6.51706 12.0561 6.36883 12.1352 6.37377 12.0907C6.36883 12.0512 6.39353 12.0363 6.39847 11.9919C6.34412 12.0314 6.30953 12.0413 6.25024 12.0709C6.27 11.9622 6.17119 12.0907 6.02296 12.1401C5.93402 12.1796 5.88461 12.15 5.88461 12.061C5.8352 12.0759 5.82037 12.0956 5.7759 12.1203C5.77096 12.0907 5.78578 12.0808 5.79566 12.0511C5.84507 12.0462 5.8599 12.0166 5.91919 11.982C5.91919 11.9573 5.92907 11.9523 5.93401 11.9227C5.85496 11.9919 5.87472 11.9721 5.77096 12.0067C5.78084 11.9968 5.88954 11.893 5.94883 11.8585C6.33918 11.641 6.27495 11.9375 6.72952 11.7201C6.84317 11.6707 6.85305 11.5916 6.87776 11.5274C7.05069 11.4385 7.08034 11.3792 7.09022 11.3693C7.09022 11.3396 7.10505 11.3347 7.10505 11.3051C7.23352 11.2458 7.38174 11.1667 7.40151 11.0877C7.4361 10.9888 7.35704 11.0234 7.1841 11.1025Z" fill="white"/>
<path d="M5.95364 11.3149V11.3194H5.94922H5.95364V11.3149Z" fill="white"/>
<path d="M19.058 6.30963C19.1173 6.2948 19.3446 6.25033 19.3446 6.19598C19.3644 6.15151 19.2161 6.19598 19.2063 6.11198C19.2656 6.11198 19.3446 6.08233 19.4039 6.07245C19.9524 5.94892 19.819 6.20586 20.4613 6.10704C20.6095 6.09222 20.8269 6.05763 20.8171 5.9934C20.7775 5.75129 19.9474 5.81552 19.4484 5.75622C19.4385 5.72658 19.4533 5.72164 19.4434 5.69199C19.4681 5.68705 19.5027 5.68705 19.6114 5.66234C19.7152 5.75128 20.1055 5.76117 20.3526 5.72164C20.5206 5.70187 20.5403 5.64258 20.5403 5.56847C20.5305 5.51906 20.4712 5.49929 20.3872 5.49929H20.402C20.5107 5.41035 21.0295 5.36094 21.1086 5.22753C21.0493 5.23741 20.9603 5.23247 20.9702 5.188C21.2074 5.12377 21.4742 5.06942 21.5483 4.99036C21.3803 5.01507 21.0345 5.09413 21.0147 4.99036C21.0246 4.91131 21.2123 4.90142 21.4297 4.87671C21.3655 4.85201 21.4248 4.84213 21.4199 4.79272C21.405 4.70378 21.2222 4.7433 21.2074 4.65931C21.0196 4.67413 20.8121 4.76801 20.7874 4.66425C20.8121 4.62472 20.8961 4.59508 21.0394 4.56543C21.2667 4.5259 21.9337 4.47649 21.9337 4.37767C21.909 4.22944 21.4396 4.37767 21.3655 4.3332C21.4347 4.32332 21.5335 4.29861 21.5928 4.27885C21.4495 4.28379 21.2865 4.25909 21.074 4.29367C20.9307 4.31838 20.8319 4.35296 20.6886 4.35296C20.7726 4.31838 20.738 4.24426 20.8912 4.18497C21.1234 4.13062 21.7559 4.18497 21.7657 4.06638C21.7855 4.06638 21.7855 4.07626 21.7608 4.02191C22.0078 3.95274 22.3241 3.95768 22.3191 3.87368C22.3191 3.84897 22.3389 3.84403 22.3488 3.84403C22.3438 3.84403 22.334 3.84403 22.3142 3.83415C22.5316 3.77486 22.8874 3.7551 22.8676 3.67604C22.7836 3.68592 22.6897 3.6958 22.6008 3.70569C23.1641 3.62663 23.4161 3.51792 23.8262 3.45863C23.8953 3.43887 24.1226 3.43392 24.1226 3.36969C24.088 3.3104 23.5099 3.34005 23.3518 3.34993C23.2233 3.37463 23.1542 3.34993 23.1097 3.40922C22.9121 3.42404 22.7144 3.44381 22.5069 3.47839C22.3142 3.51792 22.2796 3.55251 22.0523 3.59204C22.0029 3.59698 21.7608 3.62169 21.7608 3.62169C21.489 3.66122 21.2074 3.6958 20.9258 3.74521C20.7281 3.81439 20.1204 4.09108 19.7893 4.18002C19.8338 4.13555 20.5848 3.82427 20.6145 3.78968C20.5996 3.71063 20.5255 3.71557 20.2982 3.76004C19.8832 3.82921 19.1569 4.11579 18.8505 4.18991C18.7616 4.21461 19.2705 3.99227 19.31 3.96262C19.0827 4.00709 17.0569 4.48637 16.8593 4.51602C17.7338 4.27885 18.5985 4.07132 19.5126 3.8885C19.8585 3.78968 20.6738 3.66615 20.738 3.56239C20.4317 3.62168 20.0117 3.69086 19.6658 3.72545C19.0926 3.78474 18.5788 3.79463 17.8623 3.96262C17.2842 4.10591 16.7357 4.22944 16.1675 4.40238C15.8266 4.5012 15.5301 4.6099 15.2337 4.7186C12.7779 5.73646 10.5298 7.11502 8.54346 8.78509C8.98321 8.63686 9.2698 8.65663 9.39827 8.79992C9.39827 8.8345 9.39332 8.83451 9.38344 8.86415C9.48226 8.82462 9.64532 8.73074 9.62061 8.82462C9.59591 8.93333 9.36861 9.0025 9.35379 9.11121C9.32909 9.20015 9.42297 9.14085 9.61073 9.06179C9.75896 9.00744 9.79849 8.92344 9.88743 8.87403C10.2432 8.74556 10.2827 8.88392 10.6187 8.8098C10.6039 8.84933 10.6138 8.87404 10.5001 8.91851C10.2432 9.02721 10.0999 9.01733 9.86767 9.11121C9.76884 9.14579 9.78861 9.13097 9.6799 9.19027C9.68484 9.21991 9.71449 9.23967 9.7639 9.23967C9.74908 9.24461 9.73426 9.24956 9.71449 9.25944C9.61567 9.31873 9.47732 9.37802 9.46744 9.44719C9.44768 9.52131 9.55638 9.54602 9.64532 9.52132C9.72932 9.49661 9.79355 9.45213 9.88249 9.42249C10.0604 9.34343 10.2877 9.24461 10.3272 9.15567C10.1888 9.19026 10.1048 9.19027 10.0208 9.19027C10.2728 9.11121 10.6039 8.97286 10.8065 8.91851C10.6829 9.09638 10.5199 9.18532 10.426 9.3632C10.2827 9.3879 10.2728 9.39284 10.1197 9.49166V9.50155C9.88743 9.66954 9.80343 9.78318 9.64532 9.93636C9.62555 9.98577 9.63543 10.0006 9.62555 10.05C9.68484 10.0006 9.7639 9.97096 9.84296 9.96602C9.80343 10.0253 9.72932 10.0698 9.71449 10.134C9.69967 10.2872 9.98131 10.2032 10.0357 10.2822C10.0851 10.3415 10.0702 10.4156 10.1246 10.4107C10.3222 10.4008 10.3717 10.2328 10.5396 10.2724C10.4606 10.3218 10.3716 10.3514 10.3568 10.4305C10.3469 10.5787 10.6928 10.7862 10.93 10.801C10.9695 10.7961 10.93 10.8801 11.0041 10.885C11.1919 10.885 11.3055 10.8109 11.3895 10.9147C11.5328 10.8653 11.7304 10.7417 11.9034 10.6775C12.2196 10.5886 12.1603 10.8455 12.4864 10.7566C12.5556 10.7417 12.5852 10.6973 12.7384 10.6429C12.7631 10.6825 12.7977 10.6923 12.8867 10.6578C13.2325 10.554 13.0892 10.3218 13.3808 10.1637C13.361 10.0945 13.3857 9.95613 13.3906 9.8573C13.4005 9.70907 14.0182 9.46202 14.0429 9.28414C14.0231 9.21991 13.8946 9.24956 13.8946 9.20509C13.8996 9.17544 13.949 9.14579 13.9836 9.12108C13.9737 9.10132 13.9737 9.09638 13.9638 9.07662C13.9836 8.90368 14.6457 8.76039 14.9273 8.59239C15.036 8.51334 14.9965 8.48863 15.1892 8.39969C15.1892 8.43922 15.1991 8.45898 15.1892 8.49851C15.2485 8.48369 15.3275 8.46887 15.3819 8.44911C15.6586 8.29099 16.0983 8.22675 16.3602 8.05876C16.5677 7.94017 16.1922 7.75241 16.4442 7.5943C16.543 7.55477 16.6567 7.49548 16.7703 7.43124C16.7851 7.38677 16.8939 7.34724 17.0322 7.29289C17.2348 7.24842 17.4473 7.20395 17.6498 7.15454C18.1637 6.97172 18.5244 6.91243 19.0136 6.75926C19.394 6.65055 19.5126 6.49739 19.9622 6.36398C20.2044 6.28986 20.3378 6.27009 20.5305 6.18115C20.2587 6.22068 19.0877 6.43809 19.058 6.30963ZM19.9968 5.47952C20.1006 5.50917 20.2241 5.50423 20.3625 5.50423C20.1747 5.50423 19.898 5.56847 19.7992 5.51412C19.8585 5.49929 19.9375 5.49435 19.9968 5.47952Z" fill="white"/>
<path d="M21.9827 4.74341C21.9135 4.75329 21.8197 4.76317 21.7505 4.77799C21.7208 4.8027 21.6368 4.80764 21.627 4.84717C21.6319 4.87681 21.711 4.89658 21.8048 4.88176C21.9432 4.86199 22.1556 4.78787 22.2149 4.76811C22.1458 4.77799 22.0568 4.78787 21.9926 4.79775C22.0173 4.79281 21.9876 4.77305 21.9827 4.74341Z" fill="white"/>
<path d="M9.47714 15.574C9.41784 15.6234 9.45243 15.6432 9.31903 15.6778C9.32397 15.6136 9.24491 15.5938 9.23997 15.5493C9.24491 15.5147 9.34867 15.4604 9.35856 15.3714C9.31409 15.3813 9.24985 15.4159 9.23008 15.4406C9.24491 15.3122 9.25973 15.2232 9.24985 15.1244C9.21032 15.1738 9.03738 15.2183 8.90892 15.2331C8.86939 15.2627 8.8101 15.2924 8.77057 15.3171C8.78045 15.3023 8.77057 15.2875 8.77057 15.2677C8.70139 15.2875 8.63222 15.3171 8.56304 15.3369C8.57787 15.3171 8.56798 15.2825 8.56798 15.2529C8.58775 15.243 8.61245 15.2084 8.62727 15.1886C8.57292 15.1738 8.51363 15.1738 8.44939 15.2035C8.37034 15.2232 8.37034 15.2875 8.27646 15.3319C8.27646 15.3023 8.27646 15.2776 8.27646 15.2529C8.35552 15.0602 8.58775 14.8823 8.60257 14.6797C8.60751 14.6451 8.57292 14.6105 8.52845 14.6155C8.34069 14.6846 8.27152 14.8428 8.17764 15.0009C7.99976 15.2627 7.84659 15.7173 7.54024 15.9644C7.54518 15.994 7.58965 15.994 7.62424 15.9841C7.61436 15.999 7.61436 16.0237 7.62424 16.0385C7.61436 16.0434 7.42166 16.246 7.41671 16.2855C7.40189 16.3102 7.46613 16.3646 7.52048 16.3448C7.66871 16.3053 7.69836 16.2361 7.86635 16.1719C7.99482 16.1423 8.04423 16.1719 8.20234 16.1274C8.2814 16.1126 8.34069 16.0533 8.43457 16.0039C8.49881 16.0928 8.6421 15.9792 8.75575 15.9397C8.71622 15.994 8.61245 16.0286 8.62727 16.1324C8.61739 16.1472 8.67668 16.1225 8.69645 16.1126C8.84962 16.0731 8.94845 15.8952 9.04233 15.747C9.14115 15.7914 9.06209 15.994 9.15597 15.9693C9.18562 15.9594 9.21526 15.9693 9.24985 15.9594C9.24985 15.999 9.26467 16.0632 9.35361 16.0434C9.48702 16.0088 9.5562 15.8754 9.55126 15.7519C9.56608 15.658 9.46725 15.6827 9.47714 15.574Z" fill="white"/>
<path d="M2.17932 17.2245C2.16944 17.2442 2.17932 17.264 2.16943 17.2838C2.2139 17.3431 2.21884 17.3233 2.27814 17.2739C2.28802 17.2788 2.28802 17.264 2.2979 17.2591C2.31272 17.1454 2.25837 17.1701 2.17932 17.2245Z" fill="white"/>
<path d="M36.8751 15.4603C37.1074 15.5146 37.3248 15.7073 37.557 15.7468C37.5669 15.7765 37.641 15.7962 37.6756 15.7913C37.7102 15.7864 37.7349 15.737 37.7349 15.7073C37.7151 15.6283 37.6459 15.6085 37.6262 15.5196C37.6064 15.48 37.6607 15.3861 37.6607 15.3861C37.6657 15.3417 37.6706 15.2923 37.6805 15.2478C37.4631 15.233 37.4236 15.3367 37.2506 15.3367C37.0629 15.3466 36.9146 15.1934 36.6577 15.3219C36.6627 15.3466 36.6775 15.3812 36.6775 15.401C36.722 15.4504 36.8405 15.4553 36.8751 15.4603Z" fill="white"/>
<path d="M35.0965 14.0277C35.1261 13.9585 35.1064 13.7016 35.1064 13.5632C35.0718 13.5533 35.0273 13.494 35.0224 13.4397C34.9631 13.4545 34.9235 13.5682 34.8297 13.5632C34.805 13.5731 34.7654 13.583 34.7407 13.5879C34.805 13.667 34.9482 14.0079 35.0965 14.0277Z" fill="white"/>
<path d="M34.8047 14.2746C34.8245 14.3537 34.9776 14.413 35.0023 14.5118C35.0221 14.581 34.9579 14.6699 34.9727 14.749C34.9924 14.828 35.032 14.9861 35.1703 14.9911C35.2642 14.9812 35.4816 14.8132 35.4569 14.6452C35.4124 14.4574 35.4174 14.3636 35.2593 14.1709C35.2247 14.1758 35.1555 14.1165 35.0666 14.1116C34.9529 14.1215 34.9529 14.2302 34.8047 14.2746Z" fill="white"/>
<path d="M32.9324 14.8921C32.9176 14.8674 32.8336 14.7834 32.8336 14.7637C32.7644 14.7884 32.6952 14.823 32.6211 14.8625C32.626 14.8773 32.7842 14.9613 32.8336 14.9564C32.8682 14.9613 32.9324 14.9267 32.9324 14.8921Z" fill="white"/>
<path d="M34.3356 9.37796C34.3554 9.42737 34.4443 9.45702 34.553 9.44714C34.553 9.46196 34.558 9.47679 34.5629 9.48667C34.558 9.45702 34.5876 9.47184 34.5728 9.43232C34.553 9.38291 34.5036 9.39279 34.4839 9.3335C34.4345 9.3335 34.3702 9.3335 34.3208 9.3335C34.3257 9.34832 34.3307 9.3582 34.3356 9.37796Z" fill="white"/>
<path d="M34.7905 9.4226C34.7955 9.4473 34.746 9.48189 34.6917 9.48189C34.6818 9.47695 34.6719 9.47201 34.667 9.46213C34.6522 9.46707 34.6472 9.47695 34.6324 9.48683C34.6423 9.49177 34.7065 9.52142 34.7609 9.51648C34.9387 9.5313 34.8202 9.34849 34.9585 9.32872C34.8893 9.25461 34.8646 9.20025 34.6966 9.19531C34.6423 9.20519 34.5731 9.31884 34.583 9.3386C34.5929 9.36825 34.7065 9.40283 34.7905 9.4226Z" fill="white"/>
<path d="M36.9441 8.94814C36.9737 8.94814 37.0577 8.92837 37.0577 8.91354C37.0577 8.89378 37.033 8.87896 37.038 8.85919C37.0528 8.85425 37.0726 8.82955 37.0775 8.80484C37.0479 8.78508 37.0034 8.77025 36.9737 8.75049C36.9737 8.75049 36.9194 8.76531 36.9243 8.79002C36.949 8.80484 36.9737 8.83449 36.9984 8.84932C36.9392 8.85426 36.9046 8.86908 36.8403 8.86908C36.8453 8.9086 36.8749 8.94814 36.9441 8.94814Z" fill="white"/>
<path d="M41.747 16.3399C41.5197 16.2905 41.2579 16.2164 41.0059 16.2658C41.1442 16.3399 41.3715 16.3646 41.4703 16.3597C41.5543 16.3745 41.6136 16.414 41.747 16.3399Z" fill="white"/>
<path d="M43.7185 16.4736C43.7234 16.5032 43.7679 16.5378 43.8025 16.5328C43.9062 16.5477 44.0594 16.4983 44.0742 16.4291C44.0742 16.3945 44.0248 16.3303 44.0644 16.3204C44.1286 16.2809 44.1632 16.3401 44.1632 16.2314C44.0149 16.2562 43.7876 16.3401 43.6592 16.4143C43.6641 16.434 43.6938 16.4785 43.7185 16.4736Z" fill="white"/>
<path d="M5.93945 16.167C6.05804 16.2065 6.32979 16.2806 6.49285 16.2114C6.58179 16.1867 6.61144 16.1521 6.64108 16.1027C6.43356 16.083 6.26062 15.9841 5.93945 16.167Z" fill="white"/>
<path d="M5.96439 17.1208C5.94463 17.1356 5.93475 17.18 5.91992 17.1998C5.91992 17.264 6.2905 17.2986 6.35474 17.2739C6.37944 17.269 6.46838 17.1751 6.4832 17.1257C6.47826 17.1059 6.4832 17.0862 6.4832 17.0664C6.38438 17.1059 6.27568 17.1405 6.17191 17.18C6.05827 17.1949 6.0138 17.1949 5.96439 17.1208Z" fill="white"/>
<path d="M7.0757 16.8143C7.0757 16.7748 7.02629 16.7846 7.00652 16.7451C6.88794 16.8044 6.74959 17.1009 6.74465 17.1552C6.73477 17.2096 6.799 17.2343 6.91264 17.1997C7.02135 17.1503 7.1597 17.0564 7.15476 16.9922C7.16464 16.9724 7.15476 16.9477 7.15476 16.9279C6.89782 17.0169 7.06582 16.8983 7.0757 16.8143Z" fill="white"/>
<path d="M0.143287 25.6242C0.0345841 25.5254 0.108705 25.4661 0.133411 25.3327C0.123529 25.3327 0.108703 25.3228 0.0691745 25.3228C0.148231 25.2141 0.266816 25.1746 0.345873 25.0955C0.355755 25.1252 0.350815 25.1597 0.385402 25.1647C0.459518 25.1054 0.449635 25.0461 0.523751 25.0115C0.671983 24.9473 0.726337 25.1647 0.83504 25.1252C0.92892 25.0807 0.874568 24.9621 0.973389 24.9226C1.25009 24.8139 1.18092 25.5056 1.2995 25.8466C1.34891 26.0146 1.42796 26.0393 1.5169 26.2023C1.57125 26.311 1.56632 26.479 1.67008 26.4444C1.79361 26.4049 1.82325 26.1727 1.81337 25.9256C1.79854 25.7181 1.73925 25.6341 1.7096 25.4908C1.7096 25.471 1.70466 25.4513 1.7096 25.4315C1.69972 25.0609 1.50208 25.0214 1.49714 24.6459C1.4922 23.801 1.84301 23.628 2.21359 23.1833C2.20371 23.1833 2.19877 23.1833 2.19383 23.1734C2.24324 23.0944 2.23336 23.0598 2.3223 22.9758C2.40629 22.9264 2.42606 22.8226 2.51994 22.7633C2.56935 22.7189 2.59405 22.6497 2.61382 22.6003C2.56441 22.5904 2.56441 22.5855 2.52488 22.5608C2.52982 22.5311 2.51994 22.4965 2.52488 22.4718C2.6237 22.4372 2.6237 22.4422 2.64841 22.3088C2.58912 22.3186 2.56935 22.3285 2.5397 22.2544C2.58911 22.2248 2.64841 22.1605 2.64841 22.0765C2.64841 22.0419 2.65335 21.9975 2.65335 21.9629C2.62864 21.9728 2.6237 21.9826 2.59899 21.9826C2.53476 21.9135 2.60888 21.9283 2.60394 21.8146C2.61876 21.7059 2.57923 21.5281 2.57923 21.4391C2.57923 21.4391 2.57923 21.3502 2.59406 21.2909C2.599 21.3996 2.66323 21.533 2.66323 21.617C2.65335 21.6565 2.66323 21.701 2.65829 21.7405C2.65335 21.7603 2.66817 21.8048 2.68794 21.7949C2.71758 21.7751 2.88557 21.3205 2.89052 21.2613C2.89546 21.1723 2.85099 21.1624 2.82629 21.0784C2.84605 21.0587 2.86088 21.029 2.86582 21.0093C2.88064 21.034 2.89546 21.0982 2.92017 21.0735C2.99428 21.0389 3.14745 20.5991 3.17216 20.5003C3.17216 20.5003 3.10793 20.4509 3.10298 20.4015C3.11287 20.3719 3.13263 20.3274 3.15734 20.3027C3.18698 20.2928 3.19686 20.2928 3.23145 20.2829C3.34509 20.2236 3.42909 20.1989 3.55756 20.0902C3.46862 20.0556 3.41922 20.1396 3.3451 20.1792C3.31051 20.194 3.30062 20.2088 3.26109 20.2137C3.44886 20.0013 3.71568 19.9469 3.91332 19.7048C3.96273 19.7443 4.0912 19.6356 4.20978 19.5516C4.1999 19.5319 4.20484 19.4973 4.21472 19.4726C4.21472 19.4726 4.13072 19.5813 4.11096 19.5912C4.04178 19.6109 4.03191 19.4825 4.03191 19.4281C3.99732 19.438 4.00225 19.3787 4.00225 19.3441C4.0319 18.9142 4.34813 18.8994 4.51119 18.6622C4.61001 18.5733 4.61989 18.5437 4.72859 18.4992C4.85212 18.4399 4.9707 18.3361 5.03988 18.1929C5.03 18.1632 5.01517 18.1583 5.00035 18.1336C5.01023 18.1336 5.00529 18.1088 4.99541 18.1039C5.00035 18.094 4.99541 18.0792 5.00035 18.0743C5.02011 18.0841 5.05964 18.0446 5.09423 18.0347C5.15847 18.0051 5.38575 17.9507 5.48457 17.8569C5.56363 17.7482 5.57845 17.6197 5.73162 17.5505C5.72174 17.7136 5.70692 17.7234 5.87492 17.6592C5.63775 17.7778 5.29187 18.0743 5.26223 18.3263C5.27211 18.4201 5.38081 18.5536 5.44999 18.5338C5.53893 18.4992 5.7168 18.1434 5.93421 17.9903C5.97374 17.9507 6.70501 17.4171 6.71984 17.3232C6.72972 17.1948 6.44808 17.2738 6.38879 17.3133C6.08244 17.4072 5.68716 17.3035 5.66245 17.0465C5.66739 17.0564 5.67728 17.0564 5.6921 17.0119C5.68222 17.0119 5.67233 17.0169 5.65751 17.0218C5.59822 17.0317 5.51916 17.0515 5.44999 17.0811C5.52905 16.9724 5.87492 16.7847 5.8848 16.5672C5.90457 16.3647 5.58834 16.5228 5.3907 16.6167C4.95588 16.7896 4.7533 17.1898 4.48648 17.3627C4.62483 17.0268 4.79777 17.0416 5.03494 16.7204C5.17329 16.5129 5.07941 16.4734 5.29682 16.3103C5.6674 16.0287 5.85516 16.0089 6.25538 15.8607C6.75937 15.6532 7.16453 15.7124 7.52523 15.1936C7.70805 14.9515 8.53321 14.66 8.56286 14.3981C8.58262 14.2054 8.48379 14.1708 8.39486 14.0819C8.31086 14.1264 8.42945 13.9929 8.3158 13.9979C8.30098 13.9682 8.32074 13.9386 8.32568 13.904C8.06875 14.1066 7.54005 14.4228 7.28312 14.5216C7.24853 14.5365 7.19418 14.5414 7.17936 14.5315C7.39677 14.3586 7.98475 14.0769 8.07369 13.909C8.08851 13.8694 7.99463 13.8991 7.98969 13.8546C7.72782 13.9831 7.20901 14.1066 7.22877 13.8447C7.22383 13.8398 7.22383 13.8299 7.22877 13.825C7.00148 13.9139 6.8829 13.8645 6.76431 13.8497C6.81372 13.8101 6.91254 13.7459 6.93231 13.652C6.94219 13.573 6.86313 13.568 6.88784 13.4791C6.78408 13.5137 6.5222 13.4988 6.61114 13.321C6.72973 13.1085 6.33938 13.2716 6.33938 13.0937C6.31962 13.1184 6.25538 13.0887 6.20103 13.0789C6.13186 13.1382 5.9441 13.2963 5.95398 13.3753C5.96386 13.5087 5.80574 13.6125 5.62787 13.7805C5.51422 13.8793 5.39563 14.0572 5.30669 14.0967C5.15846 14.1906 5.08929 14.0177 4.98553 14.0621C4.84224 14.1412 4.98553 13.7755 4.99541 13.6421C5.00035 13.4791 4.55071 13.8694 4.60013 13.6224C4.3926 13.741 4.45684 13.6026 4.23943 13.7311C4.19002 13.8003 4.15049 13.7904 4.08131 13.8398C3.99237 13.8991 3.9232 13.9287 3.8639 13.9534C3.67614 14.2301 3.48839 14.5068 3.31051 14.7934C3.33027 14.8132 3.35004 14.828 3.34015 14.8576C3.31545 15.0256 3.11287 15.2233 3.01899 15.3122C3.12769 15.5148 3.23639 15.2924 3.2858 15.3616C3.37474 15.5 3.23145 15.6383 3.19192 15.8508C3.16227 15.9694 2.68794 16.5574 2.55453 16.6759C2.76205 16.6512 2.59406 17.091 2.66323 17.1503C2.63358 17.2096 2.53971 17.4023 2.51006 17.4863C2.39147 17.5653 2.41618 17.6493 2.29759 17.6197C2.15924 17.59 1.99125 17.4912 2.03078 17.2936C2.05548 17.1552 2.08513 17.0366 2.06042 16.9773C1.72443 17.6444 1.41314 18.3263 1.13645 19.023C1.19574 19.0477 1.26985 19.1218 1.27479 19.1514C1.28962 19.2898 1.19574 19.2947 1.27479 19.3837C1.36373 19.4924 1.54655 19.3293 1.68984 19.3837C1.7689 19.3244 1.78372 19.354 1.8529 19.2848C2.00113 19.3441 2.00607 19.3392 1.99125 19.4874C1.96654 19.5516 1.96654 19.5961 1.91219 19.6406C1.78372 19.6949 1.79855 19.6258 1.75408 19.5862C1.70961 19.7641 1.60584 20.2335 1.5169 20.2879C1.4082 20.2039 1.45761 20.1792 1.4675 20.0507C1.38844 20.1396 1.41314 20.1544 1.33902 20.189C1.36867 20.0556 1.42796 19.9321 1.44773 19.8036C1.44773 19.6949 1.30938 19.6554 1.23032 19.7048C1.1315 19.7789 1.20068 19.9173 1.00303 20.0853C0.904213 20.1643 0.904213 20.4064 0.894331 20.5201C0.879507 20.6239 0.874565 20.7128 0.854801 20.8166C0.835037 20.9351 0.765861 21.2316 0.706568 21.286C0.597865 21.3452 0.597863 21.286 0.612687 21.1822C0.642333 20.945 0.751036 20.4559 0.85974 20.189C0.7708 20.2582 0.780683 20.3027 0.72139 20.4064C0.751037 20.1989 0.983266 19.8185 1.10679 19.7295C1.16609 19.6603 1.26491 19.6554 1.35385 19.5566C1.3489 19.5171 1.36373 19.4874 1.36868 19.4479C1.25009 19.5319 1.21056 19.4726 1.07715 19.5566C0.988208 19.6455 0.978327 19.6999 0.923976 19.7542C0.889388 19.7839 0.869626 19.7888 0.864685 19.774C0.815275 19.9074 0.775744 20.0507 0.731275 20.1841C0.286579 22.0123 0.0494106 23.8602 0 25.6934C0.0494106 25.7082 0.0790536 25.7131 0.143287 25.6242ZM4.96577 17.6889C4.96083 17.7284 4.97565 17.7729 4.96577 17.8124C4.96577 17.7679 4.97071 17.7333 4.96577 17.6889ZM4.96082 17.4665C4.96082 17.4616 4.96576 17.4517 4.96082 17.4517C4.96576 17.4517 4.96082 17.4665 4.96082 17.4665ZM2.10489 19.858C2.26794 19.7098 2.60888 19.4232 2.79664 19.3243C2.75711 19.6949 2.30253 19.8283 2.10489 19.942C2.05054 19.9469 2.08018 19.942 2.02583 19.9963C2.02089 20.0062 2.02583 20.0161 2.03078 20.021C2.02089 20.0112 2.00607 20.0013 2.01101 19.9815C2.00607 19.9321 2.08512 19.8876 2.10489 19.858ZM2.05548 20.105C2.06042 20.0853 2.04066 20.0853 2.0456 20.0655C2.06536 20.0606 2.06042 20.0853 2.05548 20.105ZM1.37361 20.6733C1.3835 20.7326 1.39832 20.777 1.45267 20.7326C1.54655 20.6831 1.53173 20.6436 1.55149 20.5843C1.62561 20.4657 1.70961 20.4213 1.79855 20.3719C1.88748 20.3126 1.90725 20.3719 1.95172 20.3225C1.99125 20.2681 2.02089 20.2335 2.07031 20.1841C1.92207 20.3521 1.60584 20.7573 1.4329 20.8561C1.34397 20.9302 1.36373 20.777 1.37361 20.6733Z" fill="white"/>
</svg>
