<?xml version="1.0" encoding="UTF-8"?>
<svg width="58px" height="64px" viewBox="0 0 58 64" version="1.1" xmlns="http://www.w3.org/2000/svg" xmlns:xlink="http://www.w3.org/1999/xlink">
    <title>Fill 1</title>
    <g id="Components" stroke="none" stroke-width="1" fill="none" fill-rule="evenodd">
        <g id="footer" transform="translate(-128.000000, -143.000000)" fill="#FFFFFF">
            <path d="M133.143844,192.353181 C141.474942,202.253594 156.998515,207 156.998515,207 C156.998515,207 172.520604,202.253594 180.856156,192.354674 C178.589301,193.217657 176.135398,193.695433 173.568672,193.695433 C173.519683,193.695433 173.473663,193.690954 173.426158,193.690954 L173.426158,193.695433 C166.65677,193.695433 160.67269,190.391313 156.927259,185.313451 C156.919836,185.326888 156.909445,185.340326 156.897568,185.35227 C154.302636,181.849575 152.763194,177.501814 152.763194,172.794228 L152.749834,172.794228 C152.625134,166.054601 147.163604,160.624378 140.431328,160.624378 C133.620374,160.624378 128.100947,166.177031 128.100947,173.027143 C128.100947,179.875763 133.620374,185.426923 140.431328,185.426923 C144.777988,185.426923 148.5828,183.155994 150.776913,179.738403 C151.608242,182.685683 152.981418,185.404527 154.786588,187.773997 C151.084208,191.42749 146.029434,193.695433 140.431328,193.695433 C137.866087,193.695433 135.409214,193.217657 133.143844,192.353181 M186,156.569255 L186,145.440061 C186,145.440061 179.799181,142.963091 157.007423,143 C134.202304,142.963091 128,145.440061 128,145.440061 L128,156.569255 C131.451497,153.929543 135.75956,152.355868 140.431328,152.355868 C140.743077,152.355868 141.051856,152.372292 141.360635,152.385729 C147.40558,152.739582 152.776555,155.655508 156.409163,160.07195 C156.582851,160.291428 156.759509,160.510906 156.927259,160.73785 L156.927259,160.736357 C159.636499,164.307732 161.248682,168.762993 161.248682,173.591516 L161.266496,173.591516 C161.564884,180.177359 166.949219,185.426923 173.568672,185.426923 C180.379626,185.426923 185.899053,179.875763 185.899053,173.027143 C185.899053,166.177031 180.379626,160.624378 173.568672,160.624378 C169.300691,160.624378 165.549322,162.811696 163.338879,166.129253 C162.440747,163.208848 161.00819,160.530316 159.149578,158.202651 C162.844535,154.592457 167.86665,152.355868 173.426158,152.355868 L173.426158,152.360347 C173.473663,152.360347 173.519683,152.355868 173.568672,152.355868 C178.241925,152.355868 182.548503,153.929543 186,156.569255" id="Fill-1"></path>
        </g>
    </g>
</svg>