<svg id="Ebene_1" data-name="Ebene 1" xmlns="http://www.w3.org/2000/svg" viewBox="0 0 458.68 69.58"><defs><style>.cls-1{fill:#2457a0;}</style></defs><path d="M437,25.16a7.4,7.4,0,0,1-2.69,6c-1.78,1.49-4.34,2.24-7.65,2.24H414V16.72h12.61q4.88,0,7.65,2A7.17,7.17,0,0,1,437,25v.19Zm15.49,12.13Q456.41,32,456.4,24v-.2q0-10.23-6.16-16.19a23.41,23.41,0,0,0-9-5.57,40.88,40.88,0,0,0-13.61-2H394.7V69.57H414V48.51h8.44l14,21.06h22.25L442.09,45.33a24.45,24.45,0,0,0,10.43-8"/><path d="M42.92,47.72a5.38,5.38,0,0,1-2.39,4.72,12.05,12.05,0,0,1-6.85,1.64H18.78V41.26h14.7c3.24,0,5.63.56,7.15,1.69a5.41,5.41,0,0,1,2.29,4.57v.2ZM40,21.69a5.05,5.05,0,0,1-2.34,4.57q-2.33,1.48-6.8,1.49H18.78V15.53H31.29c2.92,0,5.1.51,6.56,1.54A5.07,5.07,0,0,1,40,21.49v.2ZM58.45,39.22a24,24,0,0,0-10.11-6A19.53,19.53,0,0,0,56,27.5q3-3.72,3-9.79v-.2a16.05,16.05,0,0,0-1.2-6.35,15.23,15.23,0,0,0-3.27-4.87,19.65,19.65,0,0,0-7.74-4.67A34.82,34.82,0,0,0,35.61,0H0V69.58H35.86q12.53,0,19.43-5.07t6.9-14.11v-.2q0-7.05-3.74-11"/><path d="M204.11,69a26.38,26.38,0,0,0,10.23-5.81,26.19,26.19,0,0,0,6.56-10,40.66,40.66,0,0,0,2.33-14.55V0H203.56V39.18c0,4.89-1.15,8.51-3.45,10.82a12.46,12.46,0,0,1-9.26,3.48,12.19,12.19,0,0,1-9.27-3.63q-3.45-3.62-3.45-11.17V0H158.46v39a40.59,40.59,0,0,0,2.23,14.16,25.7,25.7,0,0,0,6.41,9.94A26,26,0,0,0,177.23,69a44.35,44.35,0,0,0,13.42,1.89A44.81,44.81,0,0,0,204.11,69"/><polygon points="237.14 69.58 256.11 69.58 256.11 29.84 273.75 56.86 274.15 56.86 291.88 29.64 291.88 69.58 311.06 69.58 311.06 0.03 290.69 0.03 274.1 26.95 257.5 0.03 237.14 0.03 237.14 69.58 237.14 69.58"/><polygon points="324.96 69.58 381.3 69.58 381.3 53.18 343.94 53.18 343.94 42.15 377.32 42.15 377.32 26.95 343.94 26.95 343.94 16.42 380.8 16.42 380.8 0.03 324.96 0.03 324.96 69.58 324.96 69.58"/><path d="M70.1,14.11H86.38V0H70.1V14.11ZM147.38,0H131.09V14.11h16.29V0Z"/><polygon class="cls-1" points="128.45 69.55 148.89 69.55 108.74 0 68.59 69.55 89.03 69.55 108.74 35.4 128.45 69.55 128.45 69.55"/></svg>