<?xml version="1.0" encoding="utf-8"?>
<!-- Generator: Adobe Illustrator 16.0.0, SVG Export Plug-In . SVG Version: 6.00 Build 0)  -->
<!DOCTYPE svg PUBLIC "-//W3C//DTD SVG 1.1//EN" "http://www.w3.org/Graphics/SVG/1.1/DTD/svg11.dtd">
<svg version="1.1" id="Layer_1" xmlns="http://www.w3.org/2000/svg" xmlns:xlink="http://www.w3.org/1999/xlink" x="0px" y="0px"
	 width="30px" height="9px" viewBox="-0.009 10.492 30 9" enable-background="new -0.009 10.492 30 9" xml:space="preserve">
<title>FD304E62-938D-4BA9-AA52-A10AE28AEC4B</title>
<desc>Created with sketchtool.</desc>
<g>
	<g>
		<path fill="#424241" d="M0.803,18.496C0.365,18.15,0,17.602,0,16.835c0-1.187,1.004-2.209,2.447-2.209
			c0.584,0,0.986,0.091,1.497,0.365l-0.292,0.53c-0.365-0.201-0.73-0.292-1.187-0.292c-1.077,0-1.734,0.803-1.734,1.607
			c0,0.42,0.164,0.821,0.475,1.096c0.402,0.329,0.803,0.438,1.205,0.438c0.676,0,1.041-0.184,1.333-0.348l0.274,0.529
			C3.524,18.861,2.995,18.99,2.41,18.99C1.844,19.008,1.296,18.88,0.803,18.496z"/>
		<path fill="#424241" d="M5.204,18.953l2.629-4.419l2.575,4.419H9.55L7.797,15.85l-1.826,3.104H5.204z"/>
		<path fill="#424241" d="M12.818,14.681v3.67h2.465v0.603h-3.195v-4.272H12.818z"/>
		<path fill="#424241" d="M17.4,18.496c-0.438-0.346-0.803-0.895-0.803-1.661c0-1.187,1.004-2.209,2.447-2.209
			c0.584,0,0.985,0.091,1.496,0.365l-0.291,0.53c-0.365-0.201-0.73-0.292-1.188-0.292c-1.077,0-1.734,0.803-1.734,1.607
			c0,0.42,0.164,0.821,0.475,1.096c0.402,0.329,0.804,0.438,1.205,0.438c0.676,0,1.041-0.184,1.333-0.348l0.274,0.529
			c-0.494,0.311-1.023,0.439-1.607,0.439C18.441,19.008,17.895,18.88,17.4,18.496z"/>
		<path fill="#424241" d="M22.952,18.953v-4.272h0.749v4.272H22.952z"/>
		<path fill="#424241" d="M29.982,14.681v0.603h-1.699v3.67h-0.748v-3.67H25.91v-0.603H29.982z"/>
	</g>
	<polygon id="Fill-13_1_" fill="#7BADD3" points="7.87,13.877 6.044,10.992 9.75,10.992 	"/>
</g>
</svg>
