<svg id="Gruppe_21768" data-name="Gruppe 21768" xmlns="http://www.w3.org/2000/svg" xmlns:xlink="http://www.w3.org/1999/xlink" width="121.427" height="28" viewBox="0 0 121.427 28">
  <defs>
    <clipPath id="clip-path">
      <rect id="Rechteck_3391" data-name="Rechteck 3391" width="121.427" height="28" fill="none"/>
    </clipPath>
  </defs>
  <g id="Gruppe_21768-2" data-name="Gruppe 21768" clip-path="url(#clip-path)">
    <path id="Pfad_5446" data-name="Pfad 5446" d="M322.7,35.6A62.061,62.061,0,0,1,306.581,37.6c-16.563,0-29.989-5.742-29.989-12.824,0-3.744,3.625-7.065,9.608-9.41a31.916,31.916,0,0,0,9.494,3.7,10.11,10.11,0,0,0,2.85,6.28,26.654,26.654,0,0,1-10.476-.511,27.447,27.447,0,0,0,9.331,6.271c2.459-.251,4.716-.652,6.723-2.3,1.255.3,1.922.483,3.11.7,2.947.531,4.866.125,7.676-.1A61.992,61.992,0,0,0,322.7,35.6" transform="translate(-215.144 -11.955)" fill="#54a020"/>
    <path id="Pfad_5447" data-name="Pfad 5447" d="M374.35.588A41.753,41.753,0,0,1,378.556,1a2.624,2.624,0,0,1,2.308,1.856c.256.83-.418,1.346-.3,2.207.226,1.668,1.179,2.558,2.709,3.361,1.706.2,2.547-.824,4.114-1.5a6.055,6.055,0,0,1,2.91-.9c.953.025,1.53.226,1.906,1.053a3.559,3.559,0,0,1,2.308,1.053,3.759,3.759,0,0,0-1.649.144A3.819,3.819,0,0,0,391.4,9.1a8.912,8.912,0,0,0-1.4,1.63c1.781.251,3.525-.5,5.418-.251,2.082.276,3.988,2.709,5.117,5.242a29.877,29.877,0,0,1,2.173,6.563c6.052-2.347,9.909-5.692,9.909-9.461C412.612,5.742,399.185,0,382.621,0a65.648,65.648,0,0,0-8.271.588" transform="translate(-291.184 0)" fill="#129bdb"/>
    <path id="Pfad_5448" data-name="Pfad 5448" d="M506.562,108.8a2.665,2.665,0,0,0,2.64-2.461,2.253,2.253,0,0,0-2.3-2.461,2.665,2.665,0,0,0-2.639,2.461,2.253,2.253,0,0,0,2.3,2.461m.316-4.521a1.891,1.891,0,0,1,1.923,2.06,2.243,2.243,0,0,1-2.211,2.06,1.9,1.9,0,0,1-1.923-2.06,2.238,2.238,0,0,1,2.211-2.06" transform="translate(-392.234 -80.8)" fill="#757474"/>
    <path id="Pfad_5449" data-name="Pfad 5449" d="M512,110.384c.5-.033.779-.245.815-.762.052-.742-.382-.858-1.029-.858h-1.361l-.2,2.8h.626l.083-1.185h.435l.544,1.185h.68Zm-1.032-.422.05-.708h.606c.272,0,.633,0,.613.286-.024.354-.206.422-.519.422Z" transform="translate(-396.876 -84.602)" fill="#757474"/>
    <path id="Pfad_5450" data-name="Pfad 5450" d="M0,3.328H11.341c4.591,0,7.7,1.485,7.7,5.974a5.287,5.287,0,0,1-3.274,5.029,5.884,5.884,0,0,1,4.422,6.109c0,4.894-4.152,6.987-8.506,6.987H0Zm5.3,9.755h5.367c1.857,0,3.24-.844,3.24-2.869,0-2.3-1.755-2.768-3.645-2.768H5.3Zm0,10.227H10.97c2.093,0,3.915-.675,3.915-3.173,0-2.464-1.553-3.443-3.814-3.443H5.3Z" transform="translate(0 -2.589)" fill="#757474"/>
    <path id="Pfad_5451" data-name="Pfad 5451" d="M106.955,3.328h10.4c6.244,0,10.936,3.915,10.936,11.915,0,6.987-3.578,12.185-10.936,12.185h-10.4Zm5.3,19.645h4.726c3.071,0,6.008-1.89,6.008-7.223,0-4.86-1.688-7.966-6.953-7.966h-3.781Z" transform="translate(-83.194 -2.589)" fill="#757474"/>
    <rect id="Rechteck_3390" data-name="Rechteck 3390" width="5.299" height="24.1" transform="translate(48.771 0.739)" fill="#757474"/>
  </g>
</svg>
