<?xml version="1.0" encoding="UTF-8"?>
<svg xmlns="http://www.w3.org/2000/svg" xmlns:xlink="http://www.w3.org/1999/xlink" width="98.05mm" height="40.62mm" viewBox="0 0 277.95 115.13">
  <defs>
    <style>.uuid-cfa7c272-f9fa-4cd4-9ebe-b1a8a55f9d1e{fill:#fff;}.uuid-c34a1128-7007-4713-82ba-732235aba3d8{fill:#21694a;}.uuid-3ce78823-eff9-4ebe-a482-79ceef02adde{fill:#0a85be;}.uuid-d90ed8ab-b021-413c-9615-823eccfd0cfa{fill:url(#uuid-296a119b-4f25-4ca8-9539-1deec1e81134);}.uuid-74f2503f-1de3-4d36-ab15-a14cdb318704{fill:url(#uuid-40b32241-586f-41a4-b492-bfddc46c4c69);}</style>
    <linearGradient id="uuid-40b32241-586f-41a4-b492-bfddc46c4c69" x1="9.47" y1="96.85" x2="76.05" y2="42.47" gradientUnits="userSpaceOnUse">
      <stop offset="0" stop-color="#21694a"></stop>
      <stop offset="1" stop-color="#0a85be"></stop>
    </linearGradient>
    <linearGradient id="uuid-296a119b-4f25-4ca8-9539-1deec1e81134" x1="91.3" y1="32.64" x2="20.94" y2="84.63" gradientUnits="userSpaceOnUse">
      <stop offset="0" stop-color="#21694a"></stop>
      <stop offset=".45" stop-color="#2d6f7d"></stop>
      <stop offset=".81" stop-color="#34749f"></stop>
      <stop offset="1" stop-color="#3876ac"></stop>
    </linearGradient>
  </defs>
  <g id="uuid-0ff5224e-1772-45bf-bd73-2374dbc1e890">
    <circle class="uuid-74f2503f-1de3-4d36-ab15-a14cdb318704" cx="57.57" cy="57.57" r="57.57"></circle>
    <circle class="uuid-cfa7c272-f9fa-4cd4-9ebe-b1a8a55f9d1e" cx="57.57" cy="47.96" r="29.35"></circle>
    <circle class="uuid-d90ed8ab-b021-413c-9615-823eccfd0cfa" cx="57.57" cy="57.57" r="34"></circle>
  </g>
  <g id="uuid-9ba67044-2ce3-47e9-bdda-ea97dc73a91f">
    <g>
      <path class="uuid-c34a1128-7007-4713-82ba-732235aba3d8" d="M122.84,82.71c-1.26,.03-2.31,.29-3.17,.79-.86,.5-1.29,1.45-1.29,2.86,0,1.08,.37,1.85,1.1,2.31,.73,.46,1.58,.69,2.56,.69l7.69-.04c.28,.03,.58,.04,.88,.04s.62,.01,.92,.04c.9,.05,1.78,.2,2.65,.44,.87,.24,1.64,.69,2.31,1.33,.62,.56,1.08,1.24,1.38,2.04,.31,.79,.5,1.61,.58,2.46,.03,.26,.04,.51,.06,.75s.02,.49,.02,.75c-.05,3.2-.94,5.38-2.65,6.52-1.72,1.14-4.05,1.71-7,1.71h-15.45v-4.92h14.53c1.28,.03,2.39-.18,3.33-.62,.94-.44,1.31-1.42,1.13-2.96-.13-1.2-.58-1.95-1.35-2.23-.77-.28-1.68-.44-2.73-.46l-6.84-.04c-2.84,.03-5.09-.54-6.75-1.71s-2.47-3.27-2.44-6.32c.05-3.2,.94-5.39,2.67-6.55,1.73-1.17,4.07-1.75,7.02-1.75l15.18-.04v4.92h-14.34Z"></path>
      <path class="uuid-c34a1128-7007-4713-82ba-732235aba3d8" d="M148.71,84.31c-1.05,1.11-1.64,2.7-1.77,4.75l16.07-.04v4.81h-16.11c0,.97,.11,1.91,.33,2.81,.22,.9,.66,1.72,1.33,2.46,.59,.69,1.29,1.12,2.1,1.29,.81,.17,1.63,.25,2.48,.25h.35l9.53-.04v4.81h-9.8c-1.56,0-3.07-.14-4.52-.42-1.45-.28-2.81-.94-4.09-1.96-1.54-1.26-2.61-2.79-3.23-4.59-.62-1.81-.95-3.66-1-5.56-.03-.41-.03-.81-.02-1.19,.01-.38,.03-.77,.06-1.15,.28-4.36,1.47-7.56,3.56-9.61,2.09-2.05,5.22-3.08,9.4-3.08l9.65-.04v4.81h-9.53c-2.13,.03-3.72,.6-4.77,1.71Z"></path>
      <path class="uuid-c34a1128-7007-4713-82ba-732235aba3d8" d="M181.62,77.79c.28,.03,.56,.04,.83,.04s.54,.01,.83,.04c1.05,.05,2.08,.22,3.09,.5,1.01,.28,1.9,.81,2.67,1.58,.69,.67,1.21,1.45,1.56,2.35,.35,.9,.56,1.82,.63,2.77,0,.18,0,.36,.02,.54,.01,.18,.02,.36,.02,.54,.03,1.92-.42,3.58-1.33,4.98-.91,1.4-2.33,2.33-4.25,2.79l6.88,11.49h-6.54l-6.07-10.84h-6.84v10.84h-5.8v-27.6h14.3Zm-1.38,4.92h-7.11v6.96h7.11c.05,.03,.1,.04,.15,.04h.15c1.23,0,2.35-.19,3.36-.56,1.01-.37,1.5-1.35,1.48-2.94,0-1.64-.53-2.63-1.59-2.96-1.06-.33-2.25-.5-3.56-.5v-.04Z"></path>
      <path class="uuid-c34a1128-7007-4713-82ba-732235aba3d8" d="M191.34,77.79h6.54l8.3,20.57,8.5-20.57h6.19l-11.53,27.6h-6l-11.99-27.6Z"></path>
      <path class="uuid-c34a1128-7007-4713-82ba-732235aba3d8" d="M221.59,105.39v-27.6h6.07v27.6h-6.07Z"></path>
      <path class="uuid-c34a1128-7007-4713-82ba-732235aba3d8" d="M238.59,85.29c-.82,1.82-1.27,3.93-1.35,6.34v1.25c0,.42,.01,.85,.04,1.29,.08,.9,.24,1.77,.5,2.63,.26,.86,.68,1.62,1.27,2.29,.62,.69,1.33,1.12,2.13,1.29,.81,.17,1.63,.25,2.48,.25h.35l9.53-.04v4.81h-9.8c-1.56,0-3.07-.14-4.52-.42-1.45-.28-2.81-.94-4.09-1.96-1.54-1.26-2.61-2.79-3.23-4.59-.62-1.81-.95-3.66-1-5.56-.03-.41-.03-.81-.02-1.19,.01-.38,.03-.77,.06-1.15,.28-4.36,1.47-7.56,3.56-9.61,2.09-2.05,5.22-3.08,9.4-3.08l9.65-.04v4.73h-9.53c-2.79,.03-4.6,.95-5.42,2.77Z"></path>
      <path class="uuid-c34a1128-7007-4713-82ba-732235aba3d8" d="M263.65,84.31c-1.05,1.11-1.64,2.7-1.77,4.75l16.07-.04v4.81h-16.11c0,.97,.11,1.91,.33,2.81,.22,.9,.66,1.72,1.33,2.46,.59,.69,1.29,1.12,2.1,1.29,.81,.17,1.63,.25,2.48,.25h.35l9.53-.04v4.81h-9.8c-1.56,0-3.07-.14-4.52-.42-1.45-.28-2.81-.94-4.09-1.96-1.54-1.26-2.61-2.79-3.23-4.59-.62-1.81-.95-3.66-1-5.56-.03-.41-.03-.81-.02-1.19,.01-.38,.03-.77,.06-1.15,.28-4.36,1.47-7.56,3.56-9.61,2.09-2.05,5.22-3.08,9.4-3.08l9.65-.04v4.81h-9.53c-2.13,.03-3.72,.6-4.77,1.71Z"></path>
    </g>
    <g>
      <path class="uuid-cfa7c272-f9fa-4cd4-9ebe-b1a8a55f9d1e" d="M21.7,43.14s.06,.04,.1,.04h1.56c.49,0,.97,.03,1.46,.08,.87,.05,1.74,.17,2.59,.37,.86,.19,1.66,.51,2.4,.94,1.36,.79,2.33,1.88,2.9,3.27,.58,1.38,.88,2.83,.9,4.34,.03,1.38-.21,2.72-.71,4-.5,1.28-1.33,2.34-2.48,3.19-.97,.69-2.03,1.15-3.17,1.37-1.14,.22-2.3,.35-3.48,.4h-1.84l-7.04-.04v9.65h-5.8v-27.6h12.61Zm-.08,4.92h-6.73v8.15h7.07c1.41,0,2.63-.27,3.65-.83,1.02-.55,1.54-1.62,1.54-3.21,.05-1.77-.49-2.89-1.63-3.36s-2.44-.71-3.9-.71v-.04Z"></path>
      <path class="uuid-cfa7c272-f9fa-4cd4-9ebe-b1a8a55f9d1e" d="M36.61,50.83c.67-2.02,1.65-3.67,2.94-4.94,1.29-1.27,2.99-2.17,5.09-2.71,.77-.18,1.56-.32,2.38-.42s1.64-.15,2.46-.15c.87-.03,1.75,.01,2.65,.12,.9,.1,1.75,.27,2.58,.5,2.05,.51,3.73,1.41,5.04,2.69s2.27,2.93,2.88,4.96c.26,.92,.46,1.9,.6,2.92,.14,1.03,.21,2.05,.21,3.08,0,1.1-.06,2.18-.19,3.23-.13,1.05-.33,2.05-.62,3-.61,2.08-1.59,3.75-2.92,5.02-1.33,1.27-3.05,2.15-5.15,2.63-.82,.21-1.67,.35-2.54,.44-.87,.09-1.76,.13-2.65,.13-.79,0-1.59-.05-2.38-.15-.79-.1-1.58-.24-2.34-.42-2.08-.49-3.78-1.36-5.11-2.63-1.33-1.27-2.31-2.94-2.92-5.02-.26-.9-.46-1.87-.6-2.92s-.21-2.11-.21-3.19,.06-2.15,.19-3.21c.13-1.06,.33-2.03,.62-2.9v-.04Zm6,1.96c-.18,.69-.31,1.39-.38,2.09-.08,.71-.12,1.4-.12,2.1s.04,1.43,.13,2.13c.09,.71,.21,1.39,.37,2.06,.28,1.18,.75,2.21,1.4,3.08s1.57,1.51,2.75,1.92c.44,.15,.9,.27,1.38,.35,.49,.08,.97,.12,1.46,.12s.97-.04,1.46-.12c.49-.08,.95-.19,1.38-.35,1.18-.41,2.1-1.05,2.77-1.92,.67-.87,1.13-1.9,1.38-3.08,.15-.67,.28-1.35,.37-2.06,.09-.7,.13-1.42,.13-2.13s-.04-1.39-.13-2.1c-.09-.7-.21-1.39-.37-2.06-.26-1.18-.72-2.21-1.38-3.09-.67-.88-1.59-1.52-2.77-1.9-.44-.15-.9-.27-1.38-.35-.49-.08-.97-.12-1.46-.12s-.97,.04-1.46,.12c-.49,.08-.95,.19-1.38,.35-1.18,.41-2.09,1.05-2.73,1.92-.64,.87-1.12,1.9-1.42,3.08v-.04Z"></path>
      <path class="uuid-cfa7c272-f9fa-4cd4-9ebe-b1a8a55f9d1e" d="M73.38,70.34c-1.53-.27-2.93-1.08-4.21-2.44-1.1-1.15-1.79-2.45-2.08-3.88-.28-1.43-.42-2.91-.42-4.42v-16.45h5.8v15.15c-.03,2.56,.26,4.52,.85,5.88,.59,1.36,2.41,2.04,5.46,2.04l6.84-.04v4.57h-7.34c-1.74,0-3.38-.13-4.9-.4Z"></path>
      <path class="uuid-cfa7c272-f9fa-4cd4-9ebe-b1a8a55f9d1e" d="M90.81,43.14l6.8,10.53,6.92-10.53h6.73l-10.65,15.42v12.19h-5.8v-12.19l-10.5-15.42h6.5Z"></path>
      <path class="uuid-3ce78823-eff9-4ebe-a482-79ceef02adde" d="M127.07,43.14l7.04,21.18,7.03-21.18h8.5v27.6h-5.69l.46-21.49-7.07,21.49h-6.15l-7.3-21.72,.58,21.72h-5.92v-27.6h8.53Z"></path>
      <path class="uuid-3ce78823-eff9-4ebe-a482-79ceef02adde" d="M161.93,49.66c-1.05,1.11-1.64,2.7-1.77,4.75l16.07-.04v4.8h-16.11c0,.97,.11,1.91,.33,2.81,.22,.9,.66,1.72,1.33,2.46,.59,.69,1.29,1.12,2.1,1.29,.81,.17,1.63,.25,2.48,.25h.35l9.53-.04v4.8h-9.8c-1.56,0-3.07-.14-4.52-.42-1.45-.28-2.81-.93-4.09-1.96-1.54-1.26-2.61-2.79-3.23-4.59-.62-1.81-.95-3.66-1-5.56-.03-.41-.03-.81-.02-1.19,.01-.38,.03-.77,.06-1.15,.28-4.36,1.47-7.56,3.56-9.61,2.09-2.05,5.22-3.08,9.4-3.08l9.65-.04v4.81h-9.53c-2.13,.03-3.72,.6-4.77,1.71Z"></path>
      <path class="uuid-3ce78823-eff9-4ebe-a482-79ceef02adde" d="M195.61,43.14c.28,.03,.56,.04,.83,.04s.54,.01,.83,.04c1.05,.05,2.08,.22,3.09,.5s1.9,.81,2.67,1.58c.69,.67,1.21,1.45,1.56,2.34,.35,.9,.56,1.82,.63,2.77,0,.18,0,.36,.02,.54,.01,.18,.02,.36,.02,.54,.03,1.92-.42,3.58-1.33,4.98-.91,1.4-2.33,2.33-4.25,2.79l6.88,11.49h-6.54l-6.07-10.84h-6.84v10.84h-5.8v-27.6h14.3Zm-1.38,4.92h-7.11v6.96h7.11c.05,.03,.1,.04,.15,.04h.15c1.23,0,2.35-.19,3.36-.56,1.01-.37,1.5-1.35,1.48-2.94,0-1.64-.53-2.63-1.59-2.96-1.06-.33-2.25-.5-3.56-.5v-.04Z"></path>
    </g>
  </g>
</svg>
