<?xml version="1.0" encoding="UTF-8"?>
<svg id="Ebene_1" data-name="Ebene 1" xmlns="http://www.w3.org/2000/svg" version="1.1" viewBox="0 0 544.7 124.8">
  <defs>
    <style>
      .cls-1 {
        fill: #fff;
      }

      .cls-1, .cls-2 {
        stroke-width: 0px;
      }

      .cls-2 {
        fill: #047cbf;
      }
    </style>
  </defs>
  <polygon class="cls-1" points="53.1 67.5 0 98.2 0 124.5 75.8 80.7 53.1 67.5 53.1 67.5"/>
  <path class="cls-2" d="M36.4,47.8l48,27.9,22.8-13.2L0,0M0,0v26.6l36.4,21.2"/>
  <path class="cls-1" d="M540.4,56.3c0-9.9-6.1-16.2-16.3-16.2h-31.7v43.6h9.3v-34.3h22.4c4.4,0,7.1,2.5,7.1,7.1s-2.5,7.3-7.1,7.3h-16.9v8h13.6l10.6,11.9h13.3l-13.1-13.1c5.5-2.2,8.8-7.1,8.8-14.3h0ZM482.6,61.4c0-12.7-8.9-21.4-21.7-21.4h-10.8c-12.4,0-21.5,8.5-21.5,21.4s9.1,22.3,21.5,22.3h10.8c12.6,0,21.7-9.6,21.7-22.3h0ZM473.2,61.9c0,7.2-5.1,12.4-12.4,12.4h-10.8c-7.1,0-12.2-5.2-12.2-12.4s5.2-12.5,12.2-12.5h10.8c7.3,0,12.4,5.2,12.4,12.5h0ZM385.9,83.7h37.6v-9.4h-28.2v-34.3h-9.4v43.6h0ZM382.2,124.6h3.1v-17.7h-3.1v7.3h-8.9v2.7h8.9v7.6h0ZM377.7,61.4c0-12.7-8.9-21.4-21.7-21.4h-10.8c-12.4,0-21.5,8.5-21.5,21.4s9.1,22.3,21.5,22.3h10.8c12.6,0,21.7-9.6,21.7-22.3h0ZM368.4,61.9c0,7.2-5.1,12.4-12.4,12.4h-10.8c-7.1,0-12.2-5.2-12.2-12.4s5.2-12.5,12.2-12.5h10.8c7.3,0,12.4,5.2,12.4,12.5h0ZM339,106.9h-16.4v3.1h6.7v14.5h3.1v-14.5h6.7v-3.1h0ZM292.9,83.7h24.1v-9.4h-24.1c-7.1,0-12.2-5.2-12.2-12.4s5.2-12.5,12.2-12.5h24.1v-9.4h-24.1c-12.4,0-21.5,8.5-21.5,21.4s9.1,22.3,21.5,22.3h0ZM271.3,124.5l-5.3-5.3c2.3-.9,3.6-2.9,3.6-5.8s-2.4-6.4-6.4-6.4h-12.6v17.6h3v-14.5h9.6c2.1,0,3.4,1.1,3.4,3.4s-1.2,3.5-3.4,3.5h-7.3v2.7h6.6l4.5,4.9h4.4ZM241.9,65.3h14.6v-7.4h-14.6v7.4h0ZM233.1,114.3v2.6h9.8v-2.6h-9.8ZM243.5,106.9h-15.7v17.6h15.7v-3.1h-12.7v-11.4h12.7v-3.1h0ZM199.1,49.5h28.3v-9.3h-37.6v43.5h9.3v-34.2h0ZM201,106.9h-12.6c-3.5,0-5.4,2.1-5.4,4.9s2.1,5,5.4,5h8.1c1.6,0,2.6.8,2.6,2.3s-.9,2.3-2.6,2.3h-13.2v3.1h13.2c3.7,0,5.5-2.2,5.5-5.2s-1.9-5.1-5.5-5.1h-8.1c-1.4,0-2.2-.8-2.2-2.1s.8-2.2,2.2-2.2h12.6v-3.1h0ZM172.5,83.7h11.2l-24.8-41.2c-1.1-1.8-2.5-3-4.5-3s-3.4,1.2-4.5,3l-24.8,41.2h10.6l18.3-31,8,13.4h-9.8l-4.3,7.3h18.4l6.1,10.3h0ZM129.7,108l-4.5,16.5h3l3.4-12.4,5,11.4c.3.8.8,1.2,1.6,1.2s1.2-.4,1.6-1.2l5-11.4,3.4,12.4h3l-4.5-16.5c-.2-.8-.7-1.3-1.5-1.3s-1.2.4-1.5,1l-5.4,12.4-5.4-12.4c-.3-.7-.9-1-1.5-1s-1.3.4-1.5,1.3h0ZM165.7,107.7l-10.1,16.8h3.5l8-13.5,3.9,6.6h-5.4l-1.5,2.5h8.3l2.6,4.4h3.7l-10.1-16.8c-.4-.6-.8-1-1.5-1s-1.1.4-1.5,1h0ZM225.5,57.8h-21v7.4h21v-7.4h0ZM222.5,106.9h-16.4v3.1h6.7v14.5h3.1v-14.5h6.7v-3.1h0ZM290,106.9h-12.9v17.6h13.2c3.4,0,5.7-2.1,5.7-5.3s-1.2-3.5-2.8-4c1.3-.4,2.4-1.5,2.4-3.8s-2.3-4.5-5.7-4.5h0ZM288.8,110c2.3,0,3.8.3,3.8,2.2s-.8,2.1-2.6,2.1h-7.6v2.6h7.8c1.7,0,2.7.8,2.7,2.3s-1.6,2.3-3.8,2.3h-8.9v-11.5h8.6ZM309.6,107.7l-10.1,16.8h3.5l8-13.5,3.9,6.6h-5.4l-1.5,2.5h8.3l2.6,4.4h3.7l-10.1-16.8c-.4-.6-.8-1-1.5-1s-1.1.4-1.5,1h0ZM343.4,115.5c0,5.1,3.6,9,8.5,9h9.5v-3.1h-9.5c-3.2,0-5.5-2.4-5.5-5.8s2.3-5.7,5.5-5.7h9.5v-3.1h-9.5c-4.9,0-8.5,3.4-8.5,8.6h0ZM371.2,106.9h-3.1v17.7h3.1v-17.7h0ZM397.9,114.3v2.6h9.8v-2.6h-9.8ZM408.3,106.9h-15.7v17.6h15.7v-3.1h-12.7v-11.4h12.7v-3.1h0ZM431.3,119.2c0,1.4-.9,2.3-2.6,2.3h-13.2v3.1h13.2c3.7,0,5.5-2.2,5.5-5.2s-1.9-5.1-5.5-5.1h-8.1c-1.4,0-2.2-.8-2.2-2.1s.8-2.2,2.2-2.2h12.6v-3.1h-12.6c-3.5,0-5.4,2.1-5.4,4.9s2.1,5,5.4,5h8.1c1.6,0,2.6.8,2.6,2.3h0Z"/>
</svg>