<?xml version="1.0" encoding="utf-8"?>
<!-- Generator: Adobe Illustrator 25.2.3, SVG Export Plug-In . SVG Version: 6.00 Build 0)  -->
<svg version="1.1" id="Ebene_1" xmlns="http://www.w3.org/2000/svg" xmlns:xlink="http://www.w3.org/1999/xlink" x="0px" y="0px"
	 viewBox="0 0 155.4 29.9" style="enable-background:new 0 0 155.4 29.9;" xml:space="preserve">
<style type="text/css">
	.st0{fill:#706F6F;stroke:#706F6F;stroke-width:0.4874;}
	.st1{fill:none;stroke:#706F6F;stroke-width:0.4874;}
	.st2{fill:none;}
	.st3{fill:#FBBA00;}
	.st4{fill:#FFCE00;}
	.st5{fill:#F39200;}
	.st6{clip-path:url(#SVGID_2_);fill:#706F6F;}
</style>
<g>
	<polygon class="st0" points="16.1,5.5 16.1,13 16,13 10.2,5.5 5.3,5.5 5.3,15.8 8.5,15.8 8.5,8.3 8.5,8.3 14.4,15.8 19.2,15.8 
		19.2,5.5 	"/>
	<path class="st0" d="M35.1,7.9c-0.2-1.5-1-2.5-4-2.5h-4.7c-2.8,0-4.5,0.7-4.5,3.7v3c0,3,1.7,3.7,4.5,3.7h3.8c3.5,0,5-0.1,5-3.1V9.9
		h-7V12h3.9v0.3c0,1-0.8,1.1-1.6,1.1h-3.3c-1.6,0-2-0.4-2-2.1V10c0-1.7,0.4-2.1,2-2.1h3.4c0.1,0,0.3,0,0.4,0H35.1z"/>
	<path class="st1" d="M86.8,7.9c-0.2-1.5-1-2.5-4-2.5h-4.7c-2.8,0-4.5,0.7-4.5,3.7v3c0,3,1.7,3.7,4.5,3.7h3.8c3.5,0,5-0.1,5-3.1V9.9
		h-7V12h3.9v0.3c0,1-0.8,1.1-1.6,1.1h-3.3c-1.6,0-2-0.4-2-2.1V10c0-1.7,0.4-2.1,2-2.1h3.4c0.1,0,0.3,0,0.4,0H86.8z"/>
	<rect x="7.3" y="5.2" class="st2" width="138.2" height="10.8"/>
	<polygon class="st0" points="42.4,5.5 36.9,15.8 40.4,15.8 44.4,7.9 46.6,12 44.5,12 44.5,14.2 47.8,14.2 47.9,14.4 48.6,15.8 
		52.1,15.8 46.5,5.5 	"/>
	<g>
		<polyline class="st3" points="61.7,6.6 59.8,5.6 55.2,8.1 55.2,13.2 59.8,15.7 64.4,13.2 64.4,12.3 61.7,10.8 		"/>
		<polygon class="st4" points="65.3,5.4 62.1,7.1 62.1,10.5 65.3,12.2 68.4,10.5 68.4,7.1 		"/>
		<polygon class="st5" points="65.2,13.3 65.2,15.1 66.8,16 68.4,15.1 68.4,13.3 66.8,12.5 		"/>
	</g>
	<path class="st1" d="M93.1,10.7V8.2h3.4c1.9,0,2.1,0.1,2.1,1.1v0.2c0,1-0.2,1.1-2.1,1.1H93.1z"/>
	<path class="st1" d="M102.2,14.1c0-1.6-0.3-2.1-1.5-2.3v0c1.1-0.4,1.5-1.2,1.5-2.5V8.9c0-2.3-0.9-3.1-4.4-3.1h-8.1v9.9h3.5V13h2.7
		c2.6,0,2.9,0.2,2.9,1.8v0.9h3.4V14.1z"/>
	<path class="st1" d="M112.1,15.9c5.9,0,6.8-0.6,6.8-5v-0.2c0-4.3-0.9-5-6.8-5h-0.5c-5.9,0-6.8,0.6-6.8,5v0.2c0,4.3,0.9,5,6.8,5
		H112.1z"/>
	<path class="st1" d="M111.8,13.2c-3.2,0-3.4-0.2-3.4-2.4v-0.1c0-2.2,0.2-2.4,3.4-2.4h0.3c3.2,0,3.4,0.2,3.4,2.4v0.1
		c0,2.2-0.2,2.4-3.4,2.4H111.8z"/>
	<path class="st1" d="M128.3,15.9c5.2,0,6.3-0.8,6.3-3.8V5.8h-3.5v5.3c0,1.7-0.3,2-2.9,2H128c-2.6,0-2.9-0.3-2.9-2V5.8h-3.5v6.2
		c0,3,1.2,3.8,6.3,3.8H128.3z"/>
	<path class="st1" d="M141.1,10.8V8.2h3.1c2.1,0,2.3,0.1,2.3,1.2v0.1c0,1.1-0.2,1.2-2.3,1.2H141.1z"/>
	<path class="st1" d="M141.1,13.2h3.6c4.2,0,5.2-0.6,5.2-3.6V9.4c0-3-1-3.6-5.2-3.6h-7.1v9.9h3.5V13.2z"/>
</g>
<g>
	<defs>
		<rect id="SVGID_1_" x="5.1" y="20.2" width="145.2" height="5"/>
	</defs>
	<clipPath id="SVGID_2_">
		<use xlink:href="#SVGID_1_"  style="overflow:visible;"/>
	</clipPath>
	<path class="st6" d="M150.3,25.1v-0.8h-2.7V23h2.4v-0.8h-2.4v-1.1h2.6v-0.8h-3.6v4.8H150.3z M142.1,21.1c0.4,0,0.7,0,0.8,0
		c0.2,0,0.3,0.1,0.5,0.2c0.1,0.1,0.2,0.3,0.3,0.5c0.1,0.2,0.1,0.5,0.1,0.9c0,0.4,0,0.7-0.1,0.9c-0.1,0.2-0.2,0.4-0.3,0.5
		c-0.1,0.1-0.2,0.2-0.4,0.2c-0.1,0-0.3,0-0.6,0h-0.7v-3.2H142.1z M140.7,25.1h1.8c0.4,0,0.6,0,0.9-0.1c0.3-0.1,0.5-0.2,0.7-0.4
		c0.2-0.2,0.4-0.5,0.5-0.9c0.1-0.3,0.1-0.6,0.1-1c0-0.5-0.1-0.8-0.2-1.1c-0.1-0.3-0.3-0.6-0.5-0.8c-0.2-0.2-0.4-0.4-0.7-0.4
		c-0.2-0.1-0.5-0.1-0.9-0.1h-1.8V25.1z M138.8,20.3h-1v4.8h1V20.3z M132.1,25.1l1-3.6l1,3.6h1l1.2-4.8h-1l-0.7,3.4l-0.8-3.4h-1.2
		l-0.9,3.3l-0.7-3.3h-1l1.2,4.8H132.1z M126,21.1c0.4,0,0.7,0,0.8,0c0.2,0,0.3,0.1,0.5,0.2c0.1,0.1,0.2,0.3,0.3,0.5
		c0.1,0.2,0.1,0.5,0.1,0.9c0,0.4,0,0.7-0.1,0.9c-0.1,0.2-0.2,0.4-0.3,0.5c-0.1,0.1-0.2,0.2-0.4,0.2c-0.1,0-0.3,0-0.6,0h-0.7v-3.2
		H126z M124.6,25.1h1.8c0.4,0,0.6,0,0.9-0.1c0.3-0.1,0.5-0.2,0.7-0.4c0.2-0.2,0.4-0.5,0.5-0.9c0.1-0.3,0.1-0.6,0.1-1
		c0-0.5-0.1-0.8-0.2-1.1c-0.1-0.3-0.3-0.6-0.5-0.8c-0.2-0.2-0.4-0.4-0.7-0.4c-0.2-0.1-0.5-0.1-0.9-0.1h-1.8V25.1z M123,25.1v-0.8
		h-2.4v-4h-1v4.8H123z M114.6,21.1h0.8c0.4,0,0.6,0,0.7,0c0.2,0,0.3,0.1,0.4,0.2c0.1,0.1,0.1,0.2,0.1,0.4c0,0.1,0,0.3-0.1,0.4
		c-0.1,0.1-0.2,0.2-0.3,0.2c-0.1,0-0.4,0.1-0.9,0.1h-0.7V21.1z M114.6,25.1v-2h0.2c0.2,0,0.4,0,0.5,0.1c0.1,0,0.2,0.1,0.3,0.2
		c0.1,0.1,0.3,0.3,0.5,0.7l0.7,1.1h1.2l-0.6-0.9c-0.2-0.4-0.4-0.6-0.6-0.8c-0.1-0.1-0.3-0.3-0.5-0.4c0.4-0.1,0.7-0.2,1-0.4
		c0.2-0.2,0.3-0.5,0.3-0.9c0-0.3-0.1-0.5-0.2-0.8c-0.1-0.2-0.3-0.4-0.6-0.5c-0.2-0.1-0.6-0.1-1.1-0.1h-2.1v4.8H114.6z M108.6,21.4
		c0.2-0.3,0.6-0.4,1-0.4c0.4,0,0.7,0.1,1,0.4c0.2,0.3,0.4,0.7,0.4,1.2c0,0.6-0.1,1-0.4,1.3c-0.3,0.3-0.6,0.4-1,0.4
		c-0.4,0-0.7-0.1-1-0.4c-0.3-0.3-0.4-0.7-0.4-1.2C108.2,22.1,108.3,21.7,108.6,21.4 M107.8,24.5c0.4,0.4,1,0.7,1.7,0.7
		c0.7,0,1.3-0.2,1.7-0.7c0.4-0.4,0.6-1.1,0.6-1.8c0-0.8-0.2-1.4-0.6-1.8c-0.4-0.4-1-0.7-1.7-0.7c-0.4,0-0.7,0.1-1,0.2
		c-0.2,0.1-0.4,0.2-0.6,0.4s-0.3,0.4-0.4,0.7c-0.1,0.3-0.2,0.7-0.2,1.2C107.2,23.5,107.4,24.1,107.8,24.5 M101.8,25.1l1-3.6l1,3.6h1
		l1.2-4.8h-1l-0.7,3.4l-0.8-3.4h-1.2l-0.9,3.3l-0.7-3.3h-1l1.2,4.8H101.8z M89.4,24.8c0.3,0.3,0.8,0.4,1.4,0.4
		c0.4,0,0.8-0.1,1.1-0.2c0.3-0.1,0.5-0.3,0.7-0.5c0.2-0.2,0.2-0.5,0.2-0.8c0-0.3-0.1-0.6-0.2-0.8s-0.3-0.4-0.5-0.5
		c-0.2-0.1-0.6-0.2-1.1-0.3c-0.5-0.1-0.8-0.2-0.9-0.3C90,21.7,90,21.6,90,21.5c0-0.1,0.1-0.2,0.2-0.3c0.2-0.1,0.4-0.2,0.7-0.2
		c0.3,0,0.5,0.1,0.6,0.2c0.1,0.1,0.2,0.3,0.3,0.5l1,0c0-0.4-0.2-0.8-0.5-1.1c-0.3-0.3-0.8-0.4-1.4-0.4c-0.4,0-0.7,0.1-1,0.2
		c-0.3,0.1-0.5,0.3-0.6,0.5c-0.1,0.2-0.2,0.4-0.2,0.7c0,0.4,0.1,0.7,0.4,1c0.2,0.2,0.6,0.3,1.1,0.5c0.4,0.1,0.7,0.2,0.8,0.2
		c0.2,0.1,0.3,0.1,0.4,0.2c0.1,0.1,0.1,0.2,0.1,0.3c0,0.2-0.1,0.3-0.2,0.5c-0.2,0.1-0.4,0.2-0.7,0.2c-0.3,0-0.5-0.1-0.7-0.2
		c-0.2-0.2-0.3-0.4-0.3-0.7l-1,0.1C88.9,24.1,89.1,24.5,89.4,24.8 M84.2,25.1V22l2,3.2h1v-4.8h-0.9v3.2l-2-3.2h-1v4.8H84.2z
		 M78.2,21.4c0.2-0.3,0.6-0.4,1-0.4c0.4,0,0.7,0.1,1,0.4c0.2,0.3,0.4,0.7,0.4,1.2c0,0.6-0.1,1-0.4,1.3c-0.3,0.3-0.6,0.4-1,0.4
		c-0.4,0-0.7-0.1-1-0.4c-0.3-0.3-0.4-0.7-0.4-1.2C77.8,22.1,77.9,21.7,78.2,21.4 M77.4,24.5c0.4,0.4,1,0.7,1.7,0.7
		c0.7,0,1.3-0.2,1.7-0.7c0.4-0.4,0.6-1.1,0.6-1.8c0-0.8-0.2-1.4-0.6-1.8c-0.4-0.4-1-0.7-1.7-0.7c-0.4,0-0.7,0.1-1,0.2
		c-0.2,0.1-0.4,0.2-0.6,0.4c-0.2,0.2-0.3,0.4-0.4,0.7c-0.1,0.3-0.2,0.7-0.2,1.2C76.8,23.5,77,24.1,77.4,24.5 M75,20.3h-1v4.8h1V20.3
		z M71,25.1v-4h1.4v-0.8h-3.8v0.8H70v4H71z M63.1,22.9c0,0.5,0,1,0.1,1.2c0,0.2,0.1,0.4,0.3,0.5c0.1,0.2,0.3,0.3,0.6,0.4
		c0.2,0.1,0.6,0.2,1.1,0.2c0.4,0,0.7,0,0.9-0.1c0.2-0.1,0.4-0.2,0.6-0.4c0.1-0.2,0.2-0.4,0.3-0.6s0.1-0.7,0.1-1.2v-2.5h-1V23
		c0,0.4,0,0.7,0,0.8c0,0.2-0.1,0.3-0.3,0.4c-0.1,0.1-0.4,0.2-0.6,0.2c-0.3,0-0.5-0.1-0.6-0.2s-0.3-0.3-0.3-0.5c0-0.1,0-0.4,0-0.8
		v-2.6h-1V22.9z M61.5,25.1v-0.8h-2.4v-4h-1v4.8H61.5z M53,21.4c0.2-0.3,0.6-0.4,1-0.4c0.4,0,0.7,0.1,1,0.4c0.2,0.3,0.4,0.7,0.4,1.2
		c0,0.6-0.1,1-0.4,1.3c-0.2,0.3-0.6,0.4-1,0.4c-0.4,0-0.7-0.1-1-0.4c-0.3-0.3-0.4-0.7-0.4-1.2C52.7,22.1,52.8,21.7,53,21.4
		 M52.3,24.5c0.4,0.4,1,0.7,1.7,0.7c0.7,0,1.3-0.2,1.7-0.7c0.4-0.4,0.6-1.1,0.6-1.8c0-0.8-0.2-1.4-0.6-1.8c-0.4-0.4-1-0.7-1.7-0.7
		c-0.4,0-0.7,0.1-1,0.2c-0.2,0.1-0.4,0.2-0.6,0.4c-0.2,0.2-0.3,0.4-0.5,0.7c-0.1,0.3-0.2,0.7-0.2,1.2C51.6,23.5,51.9,24.1,52.3,24.5
		 M46.7,24.8c0.3,0.3,0.8,0.4,1.4,0.4c0.4,0,0.8-0.1,1.1-0.2c0.3-0.1,0.5-0.3,0.7-0.5c0.2-0.2,0.2-0.5,0.2-0.8
		c0-0.3-0.1-0.6-0.2-0.8c-0.1-0.2-0.3-0.4-0.5-0.5s-0.6-0.2-1.1-0.3c-0.5-0.1-0.8-0.2-0.9-0.3c-0.1-0.1-0.1-0.2-0.1-0.3
		c0-0.1,0.1-0.2,0.2-0.3c0.2-0.1,0.4-0.2,0.7-0.2c0.3,0,0.5,0.1,0.6,0.2c0.1,0.1,0.2,0.3,0.3,0.5l1,0c0-0.4-0.2-0.8-0.5-1.1
		c-0.3-0.3-0.8-0.4-1.4-0.4c-0.4,0-0.7,0.1-1,0.2c-0.3,0.1-0.5,0.3-0.6,0.5c-0.1,0.2-0.2,0.4-0.2,0.7c0,0.4,0.1,0.7,0.4,1
		c0.2,0.2,0.6,0.3,1.1,0.5c0.4,0.1,0.7,0.2,0.8,0.2c0.2,0.1,0.3,0.1,0.4,0.2c0.1,0.1,0.1,0.2,0.1,0.3c0,0.2-0.1,0.3-0.2,0.5
		c-0.2,0.1-0.4,0.2-0.7,0.2c-0.3,0-0.5-0.1-0.7-0.2c-0.2-0.2-0.3-0.4-0.3-0.7l-1,0.1C46.2,24.1,46.4,24.5,46.7,24.8 M37.8,24.1
		c-0.2,0.2-0.4,0.2-0.7,0.2c-0.4,0-0.6-0.1-0.9-0.4c-0.2-0.3-0.3-0.7-0.3-1.3c0-0.6,0.1-1,0.3-1.3c0.2-0.3,0.5-0.4,0.9-0.4
		c0.3,0,0.5,0.1,0.7,0.2c0.2,0.1,0.3,0.3,0.4,0.6l1-0.2c-0.1-0.4-0.3-0.7-0.5-0.9c-0.4-0.4-0.9-0.5-1.4-0.5c-0.7,0-1.2,0.2-1.6,0.7
		c-0.4,0.4-0.6,1.1-0.6,1.9c0,0.8,0.2,1.4,0.6,1.8c0.4,0.4,0.9,0.7,1.6,0.7c0.5,0,0.9-0.1,1.3-0.4c0.3-0.3,0.6-0.6,0.7-1.2l-0.9-0.3
		C38.1,23.7,38,24,37.8,24.1 M33.1,20.3h-1v4.8h1V20.3z M29.1,25.1v-4h1.4v-0.8h-3.8v0.8h1.4v4H29.1z M22,24.8
		c0.3,0.3,0.8,0.4,1.4,0.4c0.4,0,0.8-0.1,1.1-0.2c0.3-0.1,0.5-0.3,0.7-0.5c0.2-0.2,0.2-0.5,0.2-0.8c0-0.3-0.1-0.6-0.2-0.8
		c-0.1-0.2-0.3-0.4-0.5-0.5c-0.2-0.1-0.6-0.2-1.1-0.3c-0.5-0.1-0.8-0.2-0.9-0.3c-0.1-0.1-0.1-0.2-0.1-0.3c0-0.1,0.1-0.2,0.2-0.3
		c0.2-0.1,0.4-0.2,0.7-0.2c0.3,0,0.5,0.1,0.6,0.2c0.1,0.1,0.2,0.3,0.3,0.5l1,0c0-0.4-0.2-0.8-0.5-1.1c-0.3-0.3-0.8-0.4-1.4-0.4
		c-0.4,0-0.7,0.1-1,0.2c-0.3,0.1-0.5,0.3-0.6,0.5c-0.1,0.2-0.2,0.4-0.2,0.7c0,0.4,0.1,0.7,0.4,1c0.2,0.2,0.6,0.3,1.1,0.5
		c0.4,0.1,0.7,0.2,0.8,0.2c0.2,0.1,0.3,0.1,0.4,0.2c0.1,0.1,0.1,0.2,0.1,0.3c0,0.2-0.1,0.3-0.2,0.5c-0.2,0.1-0.4,0.2-0.7,0.2
		c-0.3,0-0.5-0.1-0.7-0.2c-0.2-0.2-0.3-0.4-0.3-0.7l-1,0.1C21.4,24.1,21.6,24.5,22,24.8 M17.1,23.2l0.7-1.8l0.7,1.8H17.1z
		 M18.2,20.3h-1l-1.9,4.8h1l0.4-1.1h1.9l0.4,1.1h1.1L18.2,20.3z M14,25.1v-0.8h-2.4v-4h-1v4.8H14z M6.6,21.1c0.4,0,0.6,0,0.7,0
		c0.2,0,0.3,0.1,0.4,0.2c0.1,0.1,0.2,0.3,0.2,0.4c0,0.1,0,0.3-0.1,0.4c-0.1,0.1-0.2,0.2-0.3,0.2c-0.1,0.1-0.4,0.1-0.8,0.1H6.1v-1.4
		H6.6z M6.1,25.1v-1.8h0.6c0.4,0,0.8,0,1-0.1c0.2,0,0.3-0.1,0.5-0.2c0.2-0.1,0.3-0.3,0.4-0.5c0.1-0.2,0.2-0.5,0.2-0.7
		c0-0.4-0.1-0.7-0.3-0.9c-0.2-0.2-0.4-0.4-0.7-0.5c-0.2,0-0.6-0.1-1.2-0.1H5.1v4.8H6.1z"/>
</g>
</svg>
