<svg width="174" height="32" viewBox="0 0 174 32" fill="none" xmlns="http://www.w3.org/2000/svg">
<g clip-path="url(#clip0_362_25187)">
<path fill-rule="evenodd" clip-rule="evenodd" d="M153.522 25.1435C154.623 25.1435 155.266 25.4647 155.587 25.6941C155.816 25.8317 156.046 26.0153 156.229 26.2447C156.734 26.8411 156.963 27.7129 156.963 28.4929C156.963 29.64 156.459 30.787 155.403 31.3376C155.174 31.4753 154.853 31.6129 154.302 31.7047C153.889 31.7964 153.614 31.7964 153.43 31.7964C153.247 31.7964 152.329 31.7505 151.687 31.4753C150.448 30.9247 149.897 29.7317 149.897 28.447C149.897 27.0247 150.586 26.2447 150.999 25.8776C151.457 25.6023 152.283 25.1435 153.522 25.1435ZM119.019 25.1435C120.12 25.1435 120.762 25.4647 121.083 25.6941C121.313 25.8317 121.542 26.0153 121.726 26.2447C122.23 26.8411 122.46 27.7129 122.46 28.4929C122.46 29.64 121.955 30.787 120.9 31.3376C120.67 31.4753 120.349 31.6129 119.799 31.7047C119.386 31.7964 119.11 31.7964 118.927 31.7964C118.743 31.7964 117.826 31.7505 117.183 31.4753C115.944 30.9247 115.394 29.7317 115.394 28.447C115.394 27.0247 116.082 26.2447 116.495 25.8776C116.908 25.6023 117.734 25.1435 119.019 25.1435ZM132.233 25.327V28.7682C132.233 29.0435 132.233 29.3647 132.324 29.5941C132.462 30.007 132.875 30.7411 134.022 30.7411C134.802 30.7411 135.215 30.42 135.399 30.1905C135.812 29.7317 135.812 29.1811 135.812 28.6305V25.327H137.142V28.5847C137.142 28.7223 137.142 28.8141 137.142 28.9517C137.142 29.2729 137.096 30.1447 136.454 30.8329C136.224 31.0623 135.949 31.2917 135.628 31.4294C135.261 31.567 134.894 31.6588 134.756 31.6588C134.664 31.6588 134.297 31.7505 133.976 31.7505C133.793 31.7505 133.517 31.7505 133.38 31.7047C133.104 31.6588 132.141 31.567 131.499 30.8329C131.361 30.6953 131.132 30.42 130.994 29.9611C130.856 29.5023 130.81 28.9976 130.81 28.5388V25.2811H132.233V25.327ZM170.866 25.1435C171.049 25.1435 171.233 25.1435 171.416 25.1894C171.646 25.1894 172.38 25.2353 173.022 25.74C173.343 25.9694 173.435 26.1988 173.527 26.3364C173.664 26.6576 173.71 26.9788 173.71 27.3458H172.471C172.471 27.0247 172.426 26.887 172.38 26.7494C172.104 26.1529 171.233 26.107 171.003 26.107H170.957C170.59 26.107 169.994 26.1988 169.673 26.3823C169.581 26.4282 169.306 26.6117 169.306 26.9788C169.306 27.1164 169.351 27.3458 169.627 27.4835C169.856 27.5753 170.269 27.667 170.499 27.667L171.875 27.8505C172.059 27.8964 172.242 27.8964 172.426 27.9882C173.297 28.2176 173.619 28.7223 173.756 29.0894C173.802 29.1811 173.848 29.4105 173.848 29.7317C173.848 30.9705 172.747 31.4294 172.426 31.567C172.059 31.7047 171.737 31.7505 171.416 31.7505C171.187 31.7964 170.911 31.7964 170.682 31.7964C169.764 31.7964 168.526 31.6129 168.021 30.7411C167.791 30.3741 167.746 30.007 167.7 29.5482H168.984C168.984 29.64 168.984 29.9153 169.168 30.1447C169.351 30.4658 169.856 30.787 170.728 30.787C170.82 30.787 171.646 30.787 172.104 30.5117C172.196 30.4658 172.288 30.3741 172.334 30.2823C172.471 30.0988 172.471 29.9611 172.471 29.8694C172.471 29.6858 172.38 29.5023 172.334 29.4564C172.15 29.1811 171.691 29.1353 171.416 29.0894L169.81 28.86C169.535 28.8141 169.26 28.7682 169.03 28.6764C168.709 28.5388 167.929 28.1717 167.929 27.1164C167.929 26.52 168.25 26.1529 168.388 25.9694C168.801 25.5564 169.535 25.1435 170.866 25.1435ZM110.668 25.1435C110.852 25.1435 111.035 25.1435 111.219 25.1894H111.31C111.586 25.1894 112.274 25.2811 112.824 25.74C113.146 25.9694 113.237 26.1988 113.329 26.3364C113.467 26.6576 113.467 26.9788 113.513 27.3458H112.274C112.274 27.0247 112.228 26.887 112.182 26.7494C111.907 26.1529 111.035 26.107 110.806 26.107H110.76C110.393 26.107 109.796 26.1988 109.475 26.3823C109.383 26.4282 109.108 26.6117 109.108 26.9788C109.108 27.1164 109.154 27.3458 109.429 27.4835C109.659 27.5753 110.072 27.667 110.301 27.667L111.677 27.8505C111.861 27.8964 112.044 27.8964 112.228 27.9882C113.1 28.2176 113.421 28.7223 113.559 29.0894C113.604 29.1811 113.65 29.4105 113.65 29.7317C113.65 30.9705 112.549 31.4294 112.228 31.567C111.861 31.7047 111.54 31.7505 111.219 31.7505C110.989 31.7964 110.714 31.7964 110.484 31.7964C109.567 31.7964 108.328 31.6129 107.823 30.7411C107.594 30.3741 107.548 30.007 107.502 29.5482H108.787C108.787 29.64 108.787 29.9153 108.924 30.1447C109.108 30.4658 109.613 30.787 110.484 30.787C110.576 30.787 111.402 30.787 111.861 30.5117C111.953 30.4658 112.044 30.3741 112.09 30.2823C112.228 30.0988 112.228 29.9611 112.228 29.8694C112.228 29.6858 112.136 29.5023 112.09 29.4564C111.907 29.1811 111.448 29.1353 111.173 29.0894L109.659 28.8141C109.383 28.7682 109.108 28.7223 108.879 28.6305C108.557 28.4929 107.777 28.1258 107.777 27.0706C107.777 26.4741 108.099 26.107 108.236 25.9235C108.649 25.5564 109.383 25.1435 110.668 25.1435ZM62.2163 25.1894C62.3539 25.1894 63.4551 25.1894 64.1433 25.6023C64.2351 25.6482 64.4186 25.7858 64.5563 25.9235C64.648 26.0153 64.7857 26.1988 64.9233 26.4282C65.061 26.7494 65.1528 27.2082 65.1528 27.3H63.7763C63.7763 27.2082 63.7763 27.0247 63.6386 26.8411C63.501 26.5658 62.9504 26.1529 62.0786 26.1529C61.8492 26.1529 61.5739 26.1988 61.3445 26.2447C60.2892 26.52 59.8763 27.3458 59.8763 28.4011C59.8763 28.6305 59.8763 29.5023 60.4269 30.1447C60.7939 30.5576 61.3904 30.6953 61.941 30.6953C62.4457 30.6953 63.0881 30.5576 63.4551 30.1905C63.6386 29.9611 63.6845 29.7317 63.7763 29.5023H65.1069C65.1069 29.6858 65.061 30.1447 64.7857 30.6035C64.648 30.8329 64.3728 31.1082 63.8222 31.3835C63.2716 31.6588 62.6751 31.7505 62.0328 31.7505C61.7116 31.7505 60.7481 31.7505 59.8763 31.2C58.9128 30.6035 58.5916 29.5941 58.5916 28.4929C58.5916 27.7588 58.7751 27.2541 58.8669 26.9788C59.1422 26.3364 59.7386 25.4647 61.3445 25.2353H61.3904C61.6198 25.2353 61.941 25.1894 62.2163 25.1894ZM38.5869 25.3729C38.6787 25.6941 38.7704 26.0153 38.8622 26.2906C38.954 26.7035 39.0457 27.0705 39.1834 27.4835C39.321 27.9882 39.4587 28.5388 39.5963 29.0435C39.6422 29.2729 39.734 29.5482 39.7798 29.7776C39.8257 30.0529 39.8716 30.2823 39.9175 30.5576C39.9634 30.2823 40.0093 30.007 40.101 29.7317C40.1469 29.5023 40.2387 29.3188 40.2845 29.0894L41.294 25.327H42.9916C43.0834 25.6941 43.1751 26.0611 43.2669 26.3823C43.4045 26.887 43.4963 27.3458 43.634 27.8505C43.7716 28.4011 43.9092 28.9058 44.0469 29.4564L44.3222 30.5576L44.5975 29.4564L45.6528 25.3729H46.8916L46.0657 28.2176C45.8822 28.86 45.6987 29.5482 45.5151 30.1905C45.3775 30.6953 45.2398 31.1541 45.0563 31.6129H43.4963L42.3493 27.3458L42.1198 26.2906L41.9363 27.2082L40.8351 31.567H39.1834L38.2198 28.4929L37.1646 25.3729H38.5869ZM86.3504 25.3729C86.8551 26.4282 87.4057 27.4835 87.9104 28.5388C88.2316 29.227 88.5986 29.9153 88.9198 30.6035L89.4245 31.6588H88.0021L87.3598 30.2823H83.5516L82.8633 31.6588H81.441L84.6527 25.4188H86.3504V25.3729ZM125.855 25.3729V30.6035H129.434V31.6588H124.524V25.3729H125.855ZM53.1775 25.3729V26.3823H49.6904V27.8047H53.0398V28.8141H49.6904V30.5576H53.361V31.567H48.314V25.3729H53.1775ZM158.982 25.327H161.047C161.322 25.74 161.643 26.1529 161.919 26.5658C162.056 26.7953 162.24 27.0247 162.377 27.3C162.607 27.6211 162.836 27.9423 163.02 28.2635C163.249 28.6305 163.479 28.9976 163.708 29.3647L164.442 30.5576L164.396 29.5023V25.3729H165.497V31.6129H163.708C163.433 31.2 163.157 30.787 162.882 30.3741C162.607 29.9611 162.331 29.5482 162.056 29.1353C161.781 28.7223 161.46 28.3094 161.184 27.8964C161.001 27.667 160.863 27.3917 160.68 27.1623L160.083 26.1988L160.129 27.3V31.6588H158.936V25.327H158.982ZM145.126 25.327V26.3823H142.51V31.567H141.18V26.3823H138.564V25.327H145.126ZM102.134 25.3729V26.3823H98.6468V27.8047H101.996V28.8141H98.6468V30.5576H102.317V31.567H97.2704V25.3729H102.134ZM95.7562 25.327V26.3823H93.141V31.567H91.8104V26.3823H89.1951V25.327H95.7562ZM79.9727 25.3729V26.3823H76.4857V27.8047H79.8351V28.8141H76.4857V30.5576H80.1563V31.567H75.1092V25.3729H79.9727ZM147.97 25.3729V31.6129H146.64V25.3729H147.97ZM69.9704 25.327C70.6127 25.327 71.301 25.327 71.8516 25.6482C72.081 25.7858 72.7233 26.1529 72.7233 26.9788C72.7233 27.7129 72.2645 28.1258 72.0351 28.2635C71.8057 28.4011 71.4386 28.5388 71.3928 28.5388C71.8975 28.7223 72.081 28.8141 72.2645 28.9976C72.448 29.227 72.4939 29.4564 72.5398 29.6858V29.7776L72.6775 31.1082C72.7233 31.2917 72.7233 31.3376 72.8151 31.4753L72.861 31.5211H71.4386C71.301 31.0623 71.301 30.9247 71.301 30.6953V30.6494L71.2551 30.1905C71.2551 30.1447 71.2092 29.9153 71.1633 29.7317C70.9798 29.1811 70.4751 29.1353 69.9704 29.1353H68.181V31.6129H66.8045V25.327H69.9704ZM153.522 26.1529C153.201 26.1529 152.329 26.1988 151.733 26.9329C151.549 27.2082 151.274 27.6211 151.274 28.4011C151.274 28.9517 151.411 29.5941 151.779 30.0529C151.962 30.3282 152.513 30.8329 153.43 30.8329C153.981 30.8329 154.577 30.6953 154.944 30.3282C155.22 30.0988 155.679 29.5023 155.679 28.5388C155.679 28.0341 155.541 27.4835 155.311 27.0706C155.082 26.6576 154.531 26.1529 153.522 26.1529ZM119.019 26.1529C118.697 26.1529 117.826 26.1988 117.229 26.9329C117.046 27.2082 116.77 27.6211 116.77 28.4011C116.77 28.9517 116.908 29.5941 117.275 30.0529C117.459 30.3282 118.009 30.8329 118.927 30.8329C119.477 30.8329 120.074 30.6953 120.441 30.3282C120.716 30.0988 121.175 29.5023 121.175 28.5388C121.175 28.0341 121.037 27.4835 120.808 27.0706C120.579 26.6576 120.028 26.1529 119.019 26.1529ZM85.4327 26.2906L83.9645 29.227H86.8092L85.4327 26.2906ZM69.9704 26.3823H68.2728V28.1258H70.1998C70.6127 28.08 70.9798 28.08 71.2551 27.7588C71.4386 27.5294 71.4386 27.3458 71.4386 27.2082C71.4386 27.0247 71.3927 26.7035 70.9798 26.52C70.7504 26.4282 70.4751 26.3823 69.9704 26.3823Z" fill="#27166F"/>
<path fill-rule="evenodd" clip-rule="evenodd" d="M159.762 2.66116L168.159 13.0764V2.66116H173.389V20.0964H168.159L159.67 9.58939V20.0964H154.44V2.66116H159.762ZM150.448 2.66116V20.0964H144.483V2.66116H150.448ZM135.995 2.66116V16.6553H142.464V20.0964H130.03V2.66116H135.995ZM126.268 2.66116V6.10234H118.284V9.63527H125.763V13.0764H118.284V16.5635H126.773V20.0964H112.32V2.66116H126.268ZM72.0351 2.66116V6.10234H64.0516V9.63527H71.5304V13.0764H64.0516V16.5635H72.5398V20.0964H58.0869V2.66116H72.0351ZM54.5998 2.66116V6.05645L45.1481 16.6553H54.5998V20.0964H37.1646V16.6553L46.4787 6.05645H37.6693V2.66116H54.5998ZM100.574 2.66116C101.124 2.66116 103.969 2.70705 105.3 3.16587C108.603 4.22116 109.934 6.65292 109.934 9.26822C109.934 11.7917 108.42 14.2694 105.437 15.3706C104.29 15.7835 102.684 15.967 101.767 15.967C101.446 15.967 100.895 15.967 100.299 15.967H100.161V20.0964H94.0586V2.66116H97.9586H100.574ZM82.4045 2.66116C82.9551 2.66116 85.7998 2.70705 87.1304 3.16587C90.4339 4.22116 91.7645 6.65292 91.7645 9.26822C91.7645 11.7917 90.2504 14.2694 87.268 15.3706C86.121 15.7835 84.4692 15.967 83.5974 15.967C83.2763 15.967 82.7257 15.967 82.1292 15.967H81.9916V20.0964H75.8892V2.66116H79.7892H82.4045ZM101.308 6.1941H101.216C101.17 6.1941 101.17 6.1941 101.17 6.1941H100.207V12.2506H101.17C101.354 12.2506 102.776 12.2047 103.419 11.5623C104.107 10.8741 104.153 10.0482 104.153 9.08469C104.153 8.07528 103.923 7.20351 103.006 6.60704C102.547 6.23998 101.629 6.1941 101.308 6.1941ZM83.0927 6.1941H83.001C82.9551 6.1941 82.9551 6.1941 82.9551 6.1941H81.9916V12.2506H82.9551C83.1386 12.2506 84.561 12.2047 85.2033 11.5623C85.8916 10.8741 85.9374 10.0482 85.9374 9.08469C85.9374 8.07528 85.708 7.20351 84.7904 6.60704C84.3774 6.23998 83.4598 6.1941 83.0927 6.1941Z" fill="#27166F"/>
<path fill-rule="evenodd" clip-rule="evenodd" d="M12.6635 14.1776L7.06587 20.5094V25.6023H19.9588V32.0258H0V14.1776H12.6635ZM27.0706 2.66116V20.5094H14.407L19.9588 14.2235V9.08469H7.06587V2.66116H27.0706Z" fill="#27166F"/>
</g>
<defs>
<clipPath id="clip0_362_25187">
<rect width="173.924" height="32" fill="white"/>
</clipPath>
</defs>
</svg>
