<svg xmlns="http://www.w3.org/2000/svg" width="233" height="65.242" viewBox="0 0 233 65.242">
    <g id="Kraiburg-pos_RGB" transform="translate(-14.173 -14.173)">
        <g id="Gruppe_1" data-name="Gruppe 1" transform="translate(14.173 14.173)">
            <path id="Pfad_1" data-name="Pfad 1" d="M221.386,65.336H39.957a25.582,25.582,0,1,1-.02-51.163H221.37a25.582,25.582,0,1,1,.016,51.163" transform="translate(-14.173 -14.173)" fill="#fff"></path>
            <path id="Pfad_2" data-name="Pfad 2" d="M105.71,38.811q0-4.986,0-9.969a3.254,3.254,0,0,0-.289-1.457,2.512,2.512,0,0,0-2.38-1.42,2.551,2.551,0,0,0-2.627,1.581,3.608,3.608,0,0,0-.224,1.341V48.665a3.752,3.752,0,0,0,.026.51,2.414,2.414,0,0,0,1.7,2.213A2.852,2.852,0,0,0,105,50.743a2.781,2.781,0,0,0,.71-2.062v-9.87ZM75.692,49.069A2.535,2.535,0,0,0,77.763,51.5a2.632,2.632,0,0,0,3.091-1.351c.477-1.1.783-2.269,1.17-3.4a.417.417,0,0,1,.477-.349q4.7.02,9.41,0a.4.4,0,0,1,.457.332c.329,1.019.661,2.038,1.013,3.051a2.47,2.47,0,0,0,2.44,1.782,2.4,2.4,0,0,0,2.657-2.946c-.125-.464-.3-.9-.464-1.355q-1.652-4.439-3.291-8.881-1.4-3.783-2.818-7.559a23.258,23.258,0,0,0-1.164-2.933A3.907,3.907,0,0,0,86.184,25.9,4.1,4.1,0,0,0,83.5,28.214c-.388.783-.648,1.618-.963,2.433q-1.46,3.807-2.916,7.621-1.726,4.513-3.439,9.029a4.53,4.53,0,0,0-.487,1.772m75.766-13.891q0-3.265,0-6.53a3.037,3.037,0,0,0-.168-1,2.78,2.78,0,0,0-3.768-1.453,2.451,2.451,0,0,0-1.552,2.505q-.015,6.165,0,12.323a6.172,6.172,0,0,1-.582,2.657,5.541,5.541,0,0,1-7.059,2.831,5.374,5.374,0,0,1-3.511-5.142c-.046-4.159-.013-8.322-.013-12.484a3.423,3.423,0,0,0-.171-1.223,2.86,2.86,0,0,0-4.9-.556,3.134,3.134,0,0,0-.444,1.772q-.01,6.076,0,12.162a11.27,11.27,0,0,0,.332,2.87,9.92,9.92,0,0,0,3.212,5.142,11.138,11.138,0,0,0,6.05,2.624,11.821,11.821,0,0,0,5.405-.552,10.808,10.808,0,0,0,5.142-3.7,9.514,9.514,0,0,0,2.019-5.652c.053-2.2.013-4.393.01-6.592M39.851,40.129c.1.007.122.072.164.118q2.126,2.229,4.258,4.462,2.668,2.791,5.346,5.576a3.3,3.3,0,0,0,3.094,1.23,2.411,2.411,0,0,0,2.163-2.4,2.945,2.945,0,0,0-.95-2.1c-1.161-1.2-2.344-2.377-3.518-3.564q-2.653-2.678-5.3-5.349c-.174-.171-.1-.26.036-.381,1.927-1.828,3.857-3.653,5.77-5.491A17.88,17.88,0,0,0,53.061,30a2.437,2.437,0,0,0,.543-1.345,2.511,2.511,0,0,0-1.641-2.486,2.764,2.764,0,0,0-2.949.559c-.6.589-1.184,1.19-1.769,1.8-1.108,1.141-2.213,2.292-3.324,3.439-1.266,1.305-2.525,2.611-3.794,3.916-.079.079-.138.237-.27.191-.112-.043-.049-.191-.049-.289,0-2.4-.013-4.8,0-7.2a2.532,2.532,0,0,0-2.745-2.617,2.626,2.626,0,0,0-2.759,2.713q0,10.125,0,20.257a2.5,2.5,0,0,0,2.443,2.617,2.646,2.646,0,0,0,3.071-2.653c-.049-2.841-.013-5.688-.013-8.532Zm126.235.743c.1-.03.138-.049.178-.056a9.25,9.25,0,0,0,3.725-1.417,5.868,5.868,0,0,0,2.67-3.926,8.99,8.99,0,0,0-.266-4.218,6.237,6.237,0,0,0-3-3.824,10.575,10.575,0,0,0-5.169-1.24c-2.348-.033-4.7-.01-7.043-.007a2.825,2.825,0,0,0-1.7.487,2.548,2.548,0,0,0-1.016,2.236q0,9.967-.007,19.935c0,2.374,2.117,3.137,3.909,2.512a2.486,2.486,0,0,0,1.578-2.4V41.474c0-.089-.059-.214.069-.25.1-.023.135.1.187.158q.967,1.124,1.93,2.252,2.949,3.457,5.9,6.921a2.84,2.84,0,0,0,1.891.99,2.767,2.767,0,0,0,2.729-1.414,2.236,2.236,0,0,0-.293-2.749c-1.667-1.756-3.364-3.492-5.044-5.234-.4-.414-.8-.835-1.22-1.276M56.576,38.847V48.911a2.505,2.505,0,0,0,2.417,2.634A2.623,2.623,0,0,0,61.837,50a3.034,3.034,0,0,0,.224-1.276c0-2.423,0-4.843,0-7.26l.049-.23c.109-.036.138.082.191.145.852,1,1.7,2,2.545,3,1.736,2.025,3.479,4.041,5.2,6.079a2.956,2.956,0,0,0,1.973,1.082,2.745,2.745,0,0,0,2.719-1.414,2.2,2.2,0,0,0-.375-2.834q-2.984-3.117-5.974-6.217c-.059-.059-.164-.105-.125-.2l.207-.066a9.872,9.872,0,0,0,2.959-1A6.054,6.054,0,0,0,74.745,35.6a8.84,8.84,0,0,0-.4-4.794,6.245,6.245,0,0,0-3.426-3.669,11.166,11.166,0,0,0-4.623-.94c-2.348-.026-4.7-.01-7.043-.007a2.874,2.874,0,0,0-1.154.207,2.4,2.4,0,0,0-1.519,2.394c-.01,3.354,0,6.707,0,10.061m52.34-.122c0,3.268.02,6.536-.007,9.8a2.6,2.6,0,0,0,2.693,2.795c2.959.023,5.921.1,8.877-.036a7.972,7.972,0,0,0,4.629-1.6,7.026,7.026,0,0,0,2.6-7.079,6.089,6.089,0,0,0-5.1-4.9l-.2-.079c-.02-.1.1-.125.171-.161a5.917,5.917,0,0,0,1.184-.74,4.845,4.845,0,0,0,1.848-3.324,6.109,6.109,0,0,0-.635-3.89,6.55,6.55,0,0,0-5.954-3.321c-2.4-.056-4.8,0-7.2-.013a2.636,2.636,0,0,0-2.913,2.8c.033,3.248.01,6.5.01,9.745m82.822-2.308c-1.282,0-2.351-.007-3.413,0a2.455,2.455,0,1,0,.02,4.9c1.118.013,2.239.007,3.354,0,.237,0,.345.036.335.293a4.939,4.939,0,0,1-1.884,3.873,6.767,6.767,0,0,1-4.508,1.371,6.049,6.049,0,0,1-5.412-3.15,9.712,9.712,0,0,1-1.2-5.366,9.512,9.512,0,0,1,1.111-4.31,5.9,5.9,0,0,1,3.4-2.982,8.246,8.246,0,0,1,6.934.825,9.822,9.822,0,0,0,2.157,1.2,2.459,2.459,0,0,0,2.522-.418,2.585,2.585,0,0,0,.316-3.255,6.65,6.65,0,0,0-2.9-2.269,14.567,14.567,0,0,0-4.79-1.272,14.2,14.2,0,0,0-6.286.608A11.724,11.724,0,0,0,174.7,32.5a13.9,13.9,0,0,0-1.391,6.658,13.351,13.351,0,0,0,2.213,7.253,11.629,11.629,0,0,0,7.059,4.958,13.572,13.572,0,0,0,7.043-.105,10.522,10.522,0,0,0,5.06-3.058,11.989,11.989,0,0,0,3.022-9.236,2.529,2.529,0,0,0-2.578-2.515c-1.2-.105-2.407-.01-3.393-.043m-7.779-21.575a23.647,23.647,0,0,1,9.246,1.92,24.016,24.016,0,0,1,6.8,4.32,23.233,23.233,0,0,1,6.115,8.785,22.863,22.863,0,0,1,1.558,7.22,22.63,22.63,0,0,1-.365,5.287,22.37,22.37,0,0,1-3.837,8.979,24.209,24.209,0,0,1-4.162,4.521,23.886,23.886,0,0,1-5.958,3.676,24.277,24.277,0,0,1-9.752,2.052H30.786c-.283,0-.329-.085-.326-.329.01-1.743.007-3.482.007-5.224q0-20.428-.01-40.859c0-.289.072-.349.385-.349,25.531.007,153.117,0,153.117,0" transform="translate(23.083 -12.642)" fill="#004f9f"></path>
            <path id="Pfad_3" data-name="Pfad 3" d="M18.8,38.183c-.03,10.774,8.923,19.359,19.75,19.55,11.4.207,20.563-8.588,20.6-19.431.039-11-9.006-19.4-19.671-19.632-11.629-.26-20.714,8.812-20.678,19.514m44.939.02q0,11.511.007,23.025c0,.3-.092.372-.391.372-8.141-.007-16.278.016-24.419-.013A24.274,24.274,0,0,1,25.51,57.611a23.366,23.366,0,0,1-7.661-8.082,22.274,22.274,0,0,1-2.966-10,22.6,22.6,0,0,1,4.876-15.473,23.822,23.822,0,0,1,5.866-5.333,24.186,24.186,0,0,1,6.211-2.847,24.507,24.507,0,0,1,6.4-1.019c.546-.013,17.3-.007,25.136-.016.326,0,.375.089.375.368q-.01,11.5,0,22.992" transform="translate(-12.634 -12.642)" fill="#004f9f"></path>
            <path id="Pfad_4" data-name="Pfad 4" d="M56,25.653c0-.881.007-1.762,0-2.64,0-.21.059-.276.273-.273,1.371.016,2.742-.007,4.11.036a3.786,3.786,0,0,1,2.453.848,2.747,2.747,0,0,1,.391,3.577,3.2,3.2,0,0,1-2.831,1.381c-1.368.023-2.739,0-4.107.01-.247,0-.293-.092-.289-.3.007-.881,0-1.759,0-2.64" transform="translate(81.511 5.427)" fill="#004f9f"></path>
            <path id="Pfad_5" data-name="Pfad 5" d="M56,22.353c0-.773.01-1.549,0-2.325-.007-.253.076-.326.339-.319.973.036,1.95-.033,2.923.046a2.488,2.488,0,0,1,2.433,1.923A2.608,2.608,0,0,1,59.2,24.973c-.993.076-2,.02-3,.036-.217,0-.21-.118-.21-.266,0-.8,0-1.595,0-2.39" transform="translate(81.511 -1.507)" fill="#004f9f"></path>
            <path id="Pfad_6" data-name="Pfad 6" d="M40.068,20.1c0-.26.085-.322.342-.322,1.147.01,2.3-.013,3.449.013a3.266,3.266,0,0,1,2.64,1.065,3.181,3.181,0,0,1,.4,3.4,2.884,2.884,0,0,1-2.69,1.729c-1.282.1-2.568.02-3.847.046-.23,0-.3-.076-.3-.3V20.1Z" transform="translate(45.072 -1.356)" fill="#004f9f"></path>
            <path id="Pfad_7" data-name="Pfad 7" d="M69.841,22.912c0-.944,0-1.887,0-2.831,0-.191.046-.3.27-.3,1.335.03,2.676-.062,4.008.049a2.935,2.935,0,0,1,2.854,3.3,2.979,2.979,0,0,1-3.015,2.86c-1.282.082-2.561.013-3.844.039-.224.007-.276-.092-.273-.289.007-.944,0-1.887,0-2.831" transform="translate(113.183 -1.359)" fill="#004f9f"></path>
            <path id="Pfad_8" data-name="Pfad 8" d="M50.038,30c-1.039,0-2.085,0-3.124,0-.21,0-.3-.01-.21-.263,1.088-3.183,3.242-9.558,3.242-9.558s.053-.306.161-.306l.105.178,3.2,9.6c.1.24.079.355-.247.352C52.119,29.991,51.077,30,50.038,30" transform="translate(60.179 -1.13)" fill="#004f9f"></path>
            <path id="Pfad_9" data-name="Pfad 9" d="M18.651,32.735q0-6.273,0-12.547a3.158,3.158,0,0,1,2.989-3.077,3.5,3.5,0,0,1,2.9.98,3.064,3.064,0,0,1,.819,2.223c.007,2.939,0,5.879,0,8.818,0,.1-.062.247.049.3s.168-.105.24-.178q2.944-3.018,5.882-6.043c1.683-1.729,3.35-3.475,5.05-5.185a3.321,3.321,0,0,1,3.587-.681,3.076,3.076,0,0,1,2.015,2.939,3.4,3.4,0,0,1-.963,2.111c-.868,1.019-1.881,1.9-2.841,2.831-1.118,1.095-2.262,2.167-3.393,3.242-1.059,1.006-2.111,2.012-3.176,3.005-.171.161-.187.247-.01.424q2.052,2.042,4.084,4.1c2.177,2.2,4.356,4.389,6.52,6.6a3.868,3.868,0,0,1,1.332,2.88,2.849,2.849,0,0,1-2.163,2.68,3.722,3.722,0,0,1-3.89-1.023c-1.818-1.812-3.558-3.692-5.33-5.54q-3.4-3.546-6.786-7.1l-.145-.1c-.122.053-.062.168-.062.256q0,5.238,0,10.475a3.077,3.077,0,0,1-.963,2.325c-1.539,1.466-4.883,1.147-5.6-1.226a3.231,3.231,0,0,1-.148-.94q0-6.273,0-12.547" transform="translate(-3.935 -7.504)" fill="#004f9f"></path>
        </g>
        <g id="Gruppe_5" data-name="Gruppe 5" transform="translate(28.781 71.918)">
            <path id="Pfad_10" data-name="Pfad 10" d="M18.616,35.484a3.646,3.646,0,0,1,3.659-3.748,3.561,3.561,0,0,1,3.045,1.651L24.462,34A2.533,2.533,0,0,0,22.275,32.8a2.685,2.685,0,0,0,.026,5.359,2.133,2.133,0,0,0,2.285-1.828H22.134V35.317h3.6a3.747,3.747,0,0,1,.023.424A3.326,3.326,0,0,1,22.3,39.232a3.663,3.663,0,0,1-3.686-3.748" transform="translate(-18.616 -31.736)" fill="#9b9b9b"></path>
            <path id="Pfad_11" data-name="Pfad 11" d="M22.606,36.417V31.768H23.7v4.6a1.707,1.707,0,0,0,1.9,1.743,1.7,1.7,0,0,0,1.9-1.743v-4.6H28.59v4.649A2.684,2.684,0,0,1,25.6,39.156a2.69,2.69,0,0,1-3-2.739" transform="translate(-9.487 -31.663)" fill="#9b9b9b"></path>
            <path id="Pfad_12" data-name="Pfad 12" d="M32.635,31.768l-2.466,5.178-2.459-5.178H26.4v7.283h1.111V33.833l2.262,4.7h.786l2.262-4.7v5.218h1.111V31.768Z" transform="translate(-0.798 -31.663)" fill="#9b9b9b"></path>
            <path id="Pfad_13" data-name="Pfad 13" d="M36.926,31.768l-2.463,5.178L32,31.768H30.7v7.283H31.81V33.833l2.262,4.7h.789l2.259-4.7v5.218h1.111V31.768Z" transform="translate(9.019 -31.663)" fill="#9b9b9b"></path>
            <rect id="Rechteck_2" data-name="Rechteck 2" width="1.101" height="7.283" transform="translate(53.829 0.105)" fill="#9b9b9b"></rect>
            <path id="Pfad_14" data-name="Pfad 14" d="M46.365,31.768,44.6,38.035l-1.723-6.148H41.693L39.97,38.035l-1.775-6.267h-1.1l1.986,7.283h1.779l1.427-5.4,1.434,5.4h1.775l1.983-7.283Z" transform="translate(23.651 -31.663)" fill="#9b9b9b"></path>
            <path id="Pfad_15" data-name="Pfad 15" d="M42.018,31.768v7.283h5.1V38.028h-4V35.822h3.337V34.8H43.119V32.791h3.89V31.768Z" transform="translate(34.925 -31.663)" fill="#9b9b9b"></path>
            <g id="Gruppe_2" data-name="Gruppe 2" transform="translate(88.155 0.112)">
                <path id="Pfad_16" data-name="Pfad 16" d="M46.529,32.786v2.4h1.907a1.17,1.17,0,0,0,1.328-1.207c0-.723-.45-1.193-1.328-1.193Zm1.963-1.016a2.167,2.167,0,0,1,2.42,2.209,2.092,2.092,0,0,1-1.44,2.055L51.2,39.046H49.919l-1.611-2.857H46.529v2.857h-1.1V31.77Z" transform="translate(-45.428 -31.77)" fill="#9b9b9b"></path>
            </g>
            <path id="Pfad_17" data-name="Pfad 17" d="M53.357,31.768l-3.265,3.62v-3.62h-1.1v7.283h1.1V36.858L51.328,35.5l2.288,3.551h1.341L52.1,34.74l2.676-2.972Z" transform="translate(50.886 -31.663)" fill="#9b9b9b"></path>
            <path id="Pfad_18" data-name="Pfad 18" d="M59.011,31.768l-3.262,3.62v-3.62h-1.1v7.283h1.1V36.858L56.982,35.5l2.285,3.551h1.348l-2.857-4.31,2.676-2.972Z" transform="translate(63.821 -31.663)" fill="#9b9b9b"></path>
            <g id="Gruppe_3" data-name="Gruppe 3" transform="translate(130.072 0.112)">
                <path id="Pfad_19" data-name="Pfad 19" d="M59.278,32.786v2.4h1.91a1.17,1.17,0,0,0,1.328-1.207c0-.723-.45-1.193-1.328-1.193Zm1.963-1.016a2.168,2.168,0,0,1,2.423,2.209,2.1,2.1,0,0,1-1.44,2.055l1.723,3.012H62.668l-1.611-2.857H59.278v2.857h-1.1V31.77Z" transform="translate(-58.177 -31.77)" fill="#9b9b9b"></path>
            </g>
            <path id="Pfad_20" data-name="Pfad 20" d="M65.02,33.027l1.47,3.567H63.55Zm-.6-1.259-2.943,7.283h1.177l.566-1.519h3.6l.566,1.519h1.177l-2.943-7.283h-1.2Z" transform="translate(79.45 -31.663)" fill="#9b9b9b"></path>
            <rect id="Rechteck_3" data-name="Rechteck 3" width="1.101" height="7.283" transform="translate(153.722 0.105)" fill="#9b9b9b"></rect>
            <g id="Gruppe_4" data-name="Gruppe 4" transform="translate(161.396)">
                <path id="Pfad_21" data-name="Pfad 21" d="M68.812,38.039h2.177a1.1,1.1,0,0,0,1.138-1.118,1.112,1.112,0,0,0-1.138-1.1H68.812Zm1.969-3.173a1.018,1.018,0,0,0,1.059-1.032,1.035,1.035,0,0,0-1.059-1.065H68.812v2.1ZM67.7,39.048V31.769h3.077a2.028,2.028,0,0,1,2.17,2.035,1.731,1.731,0,0,1-.783,1.47,1.787,1.787,0,0,1,1.049,1.667,2.119,2.119,0,0,1-2.229,2.108H67.7Z" transform="translate(-67.704 -31.661)" fill="#9b9b9b"></path>
                <path id="Pfad_22" data-name="Pfad 22" d="M71.222,36.417V31.768H72.31v4.6a1.909,1.909,0,0,0,3.8,0v-4.6H77.2v4.649a3,3,0,0,1-5.981,0" transform="translate(-59.655 -31.663)" fill="#9b9b9b"></path>
                <path id="Pfad_23" data-name="Pfad 23" d="M76.119,32.786v2.4h1.91a1.171,1.171,0,0,0,1.328-1.207c0-.723-.454-1.193-1.328-1.193Zm1.963-1.016a2.17,2.17,0,0,1,2.423,2.209,2.1,2.1,0,0,1-1.44,2.055l1.723,3.012H79.509L77.9,36.189H76.119v2.857h-1.1V31.77Z" transform="translate(-50.97 -31.658)" fill="#9b9b9b"></path>
                <path id="Pfad_24" data-name="Pfad 24" d="M78.426,35.484a3.646,3.646,0,0,1,3.659-3.748,3.551,3.551,0,0,1,3.041,1.651L84.272,34a2.608,2.608,0,1,0-2.16,4.166A2.136,2.136,0,0,0,84.4,36.336H81.944V35.317h3.6a3.749,3.749,0,0,1,.023.424,3.328,3.328,0,0,1-3.452,3.492,3.661,3.661,0,0,1-3.686-3.748" transform="translate(-43.173 -31.736)" fill="#9b9b9b"></path>
            </g>
        </g>
    </g>
</svg>
