<svg id="ÉåÉCÉÑÅ_x5B__1" xmlns="http://www.w3.org/2000/svg" viewBox="0 0 113.6 47.9"><style>.st0{fill:#005d9f}.st1{fill:#706f6f}</style><path class="st0" d="M5.8 13.8l3.1 1.8c.6.3.8.6.8 1.3l.1 11.3h5.6l-.1-11.3c0-2.4-.8-3.8-2.8-4.9l-.9-.5c-.5-.3-.5-.4-.3-.9L15.9 0h-5.6L5.9 10.2V0H.2v28.3h5.7V13.8h-.1zm22.5 8.8c0 .7-.2.9-.9.9H26c-.7 0-.9-.2-.9-.9v-5.7c0-.7.2-1 .8-1.3l2.4-1.4V8.6L22.4 12c-2 1.1-2.8 2.5-2.8 4.9v7.5c0 2.5 1.3 3.8 3.8 3.8h6.8c2.5 0 3.8-1.3 3.8-3.8V3.7c0-2.5-1.3-3.8-3.8-3.8h-9.9v4.8h7.2c.7 0 .9.2.9.9v17h-.1zM48.1 4.7c.7 0 .9.2.9.9v22.6h5.7V3.7c0-2.5-1.3-3.8-3.8-3.8h-7.6c-2.5 0-3.8 1.3-3.8 3.8v24.5h5.7V5.6c0-.7.2-.9.9-.9h2zm17.6.9c0-.7.2-.9.9-.9H68c.7 0 .9.2.9.9V10c0 .7-.2 1-.8 1.3l-2.4 1.4v5.6l5.9-3.4c2-1.1 2.8-2.5 2.8-4.9V3.8c0-2.5-1.3-3.8-3.8-3.8h-6.8C61.3 0 60 1.3 60 3.8v20.6c0 2.5 1.3 3.8 3.8 3.8h9.9v-4.8h-7.2c-.7 0-.9-.2-.9-.9V5.6h.1zm42.1 17c0 .7-.2.9-.9.9h-1.4c-.7 0-.9-.2-.9-.9v-5.7c0-.7.2-1 .8-1.3l2.4-1.4V8.6l-5.9 3.4c-2 1.1-2.8 2.5-2.8 4.9v7.5c0 2.5 1.3 3.8 3.8 3.8h6.8c2.5 0 3.8-1.3 3.8-3.8V3.7c0-2.5-1.3-3.8-3.8-3.8h-9.9v4.8h7.2c.7 0 .9.2.9.9v17h-.1zm-22.5-8.8l3.1 1.8c.6.3.8.6.8 1.3l.1 11.3h5.6l-.1-11.3c0-2.4-.8-3.8-2.8-4.9l-.9-.5c-.5-.3-.5-.4-.3-.9L95.4 0h-5.6l-4.4 10.2V0h-5.7v28.3h5.7V13.8h-.1z"/><path class="st1" d="M83.2 36.2c-.4-.4-1-.7-1.7-.7s-1.2.2-1.6.7c-.4.4-.6 1-.6 1.7s.2 1.3.7 1.7c.4.5 1 .7 1.6.7.7 0 1.2-.2 1.7-.7.4-.4.7-1 .7-1.8-.2-.6-.4-1.1-.8-1.6zm-.8 2.7c-.2.3-.6.4-.9.4-.4 0-.7-.1-.9-.4-.3-.3-.4-.6-.4-1s.1-.7.4-1c.2-.3.6-.4.9-.4.4 0 .7.1.9.4.2.2.4.6.4 1 0 .5-.1.8-.4 1zm31.2-3.3h-1.2l-1.3 2.9-1.2-2.9h-1.1l1.7 4.3-1 2.1h1.2zm-23.5-.1c-.6 0-1.2.4-1.5.9-.3-.5-.8-.9-1.5-.9-.5 0-1 .3-1.3.7v-.5h-1.2v4.6h1.2v-2.9c0-.5.4-.9.9-.9s.9.4.9.9v2.9h1.2v-2.9c0-.5.4-.9.9-.9s.9.4.9.9v2.9h1.2v-3.1c-.1-1-.9-1.7-1.7-1.7zm2.7.2V42H94v-2.1c.4.3.8.5 1.4.5s1.1-.2 1.5-.7.6-1 .6-1.7-.2-1.3-.6-1.7c-.4-.4-.9-.7-1.5-.7s-1 .2-1.4.5v-.4h-1.2zm1.1 2.3c0-.4.1-.7.4-1 .2-.2.6-.4.9-.4.4 0 .7.1.9.4.2.3.4.6.4 1s-.1.7-.4 1c-.2.3-.6.4-.9.4-.4 0-.7-.1-.9-.4-.3-.3-.4-.6-.4-1zm7.9-2.3v.4c-.4-.3-.9-.5-1.4-.5-.6 0-1.1.2-1.5.7-.4.4-.6 1-.6 1.7s.2 1.3.6 1.7c.4.5.9.7 1.5.7.5 0 1-.2 1.4-.5v.4h1.2v-4.6h-1.2zm-.3 3.2c-.2.3-.6.4-.9.4-.4 0-.7-.1-.9-.4-.3-.3-.4-.6-.4-1s.1-.7.4-1c.2-.3.6-.4.9-.4.4 0 .7.1.9.4.2.2.4.6.4 1 0 .5-.2.8-.4 1zm-24.2-.1c-.4.4-.9.6-1.5.6s-1-.2-1.4-.6-.6-.9-.6-1.5.2-1.1.6-1.5.9-.6 1.4-.6c.6 0 1.1.2 1.5.6.1.1.2.3.3.5l.8-.8c-.1-.2-.2-.3-.4-.5-.6-.6-1.3-.9-2.3-.9-.9 0-1.6.3-2.2.9s-.9 1.4-.9 2.3c0 1 .3 1.7.9 2.4.6.6 1.3.9 2.2.9.9 0 1.6-.3 2.2-.9.1-.1.2-.3.3-.4l-.8-.8c.2 0 .1.2-.1.3zm29.1-3.3c-.5 0-1 .3-1.3.7v-.5h-1.2v4.6h1.2v-2.9c0-.5.4-.9.9-.9s.9.4.9.9v2.9h1.2v-3.1c-.1-1-.8-1.7-1.7-1.7zm-55.8.7c-.4-.4-1-.7-1.7-.7s-1.2.2-1.6.7c-.4.4-.6 1-.6 1.7s.2 1.3.7 1.7c.4.5 1 .7 1.6.7.7 0 1.2-.2 1.7-.7.4-.4.7-1 .7-1.8-.2-.6-.4-1.2-.8-1.6zm-.8 2.7c-.2.3-.6.4-.9.4-.4 0-.7-.1-.9-.4-.2-.3-.4-.6-.4-1s.1-.7.4-1c.2-.3.6-.4.9-.4.4 0 .7.1.9.4.2.2.4.6.4 1s-.1.8-.4 1zm8.5-2.7c-.4-.4-1-.7-1.7-.7s-1.2.2-1.6.7c-.4.4-.6 1-.6 1.7s.2 1.3.7 1.7c.4.5 1 .7 1.6.7.7 0 1.2-.2 1.7-.7.4-.4.7-1 .7-1.8-.1-.6-.3-1.2-.8-1.6zm-.7 2.7c-.2.3-.6.4-.9.4-.4 0-.7-.1-.9-.4-.2-.3-.4-.6-.4-1s.1-.7.4-1c.2-.3.6-.4.9-.4.4 0 .7.1.9.4.2.2.4.6.4 1s-.1.8-.4 1zm-5.4-5h1.2v6.4h-1.2zm18.1 1.7h-1.2l-1.3 2.9-1.2-2.9h-1.2l1.7 4.3-.9 2.1h1.2zM17.6 34v6.2h2.6c1.4 0 2.6-1.4 2.6-3.1S21.6 34 20.2 34h-2.6zm2.4 5.1h-1.3v-3.9H20c.9 0 1.6.9 1.6 2 0 1-.7 1.9-1.6 1.9zm6.3-3.6c-.5 0-1 .3-1.3.7v-.6h-1.1v4.7H25v-2.9c0-.5.4-.9.9-.9.2 0 .4.1.6.2l.5-1c-.2-.1-.4-.2-.7-.2zm17.7 0c-.6 0-1.2.4-1.5.9-.3-.5-.8-.9-1.5-.9-.5 0-1 .3-1.3.7v-.5h-1.2v4.6h1.2v-2.9c0-.5.4-.9.9-.9s.9.4.9.9v2.9h1.2v-2.9c0-.5.4-.9.9-.9s.9.4.9.9v2.9h1.2v-3.1c-.1-1-.8-1.7-1.7-1.7zm-7.7.1v.4c-.4-.3-.9-.5-1.4-.5-.6 0-1.1.2-1.5.7-.4.4-.6 1-.6 1.7s.2 1.3.6 1.7c.4.5.9.7 1.5.7.5 0 1-.2 1.4-.5v.4h1.2v-4.6h-1.2zm-.3 3.3c-.2.3-.6.4-.9.4-.4 0-.7-.1-.9-.4-.2-.3-.4-.6-.4-1s.1-.7.4-1c.2-.3.6-.4.9-.4.4 0 .7.1.9.4.2.2.4.6.4 1s-.1.8-.4 1zm27.3-3.3v.3c-.3-.2-.8-.4-1.2-.4-.6 0-1.1.2-1.5.6s-.6 1-.6 1.7.2 1.2.6 1.7c.4.4.9.7 1.5.7.5 0 .9-.1 1.2-.4v.1c0 .6-.6 1.1-1.3 1.1-.4 0-.8-.2-1-.4l-.8.8c.4.4 1.1.7 1.8.7 1.3 0 2.4-.9 2.4-2v-4.4h-1.1v-.1zm-.3 3.2c-.2.2-.5.4-.9.4s-.7-.1-.9-.4c-.2-.2-.4-.6-.4-1s.1-.7.4-.9c.2-.2.5-.4.9-.4s.7.1.9.4c.2.2.4.6.4.9 0 .5-.1.8-.4 1zm-32.4.2c-.3.3-.6.4-1 .4s-.7-.1-1-.4c-.2-.2-.3-.4-.4-.7h3.5v-.4c0-.7-.2-1.3-.7-1.7-.4-.4-1-.7-1.7-.7s-1.2.2-1.6.7c-.4.4-.6 1-.6 1.7s.2 1.3.7 1.7c.4.5 1 .7 1.6.7.7 0 1.2-.2 1.7-.7.1-.1.2-.3.3-.4l-.8-.5c.1.1 0 .2 0 .3zm-2-2.1c.3-.3.6-.4 1-.4s.7.1 1 .4c.1.1.2.3.3.5h-2.5c0-.2.1-.4.2-.5zm-24.7-3H0v1.2h1.3v5.2h1.2v-5.2h1.4zm3.5 1.6c-.5 0-1 .3-1.3.7v-2.3H4.9v6.4h1.2v-.1.1-2.9c0-.5.4-.9.9-.9s.9.4.9.9v2.9h1.2v-3.1c-.1-1-.8-1.7-1.7-1.7zm5.9 3.5c-.3.3-.6.4-1 .4s-.7-.1-1-.4c-.2-.2-.3-.4-.4-.7h3.5v-.4c0-.7-.2-1.3-.7-1.7-.4-.4-1-.7-1.7-.7s-1.2.2-1.6.7c-.4.4-.7 1-.7 1.7s.2 1.3.7 1.7c.4.5 1 .7 1.6.7.7 0 1.2-.2 1.7-.7.1-.1.2-.3.3-.4l-.8-.5c.2.1.2.2.1.3zm-1.9-2.1c.3-.3.6-.4 1-.4s.7.1 1 .4c.1.1.2.3.3.5h-2.5c-.1-.2 0-.4.2-.5zm-2.8 8.8h4.3v.3H8.6v-.3zm93.1 0h4.3v.3h-4.3v-.3zm-87.5 2l.6-4.3h.1l1.7 3.5 1.7-3.5h.1l.6 4.3h-.4l-.4-3-1.5 3h-.1l-1.5-3.1-.4 3.1h-.5zm7-3.2c.2 0 .5.1.7.2s.4.2.5.4v-.5h.4v3.2h-.4v-.5c-.1.2-.3.3-.5.4s-.5.2-.8.2c-.6 0-1-.2-1.2-.6-.3-.4-.4-.7-.4-1.1s.2-.8.4-1.2c.4-.3.8-.5 1.3-.5zm0 .4c-.4 0-.7.2-.9.4-.2.3-.3.6-.3.9s.1.6.3.9.5.4.9.4.7-.2.9-.4c.2-.3.3-.6.3-.9s-.1-.6-.3-.9c-.2-.3-.5-.4-.9-.4zm3-1.3v2.5l1.2-1.5h.5l-1.2 1.5 1.4 1.7h-.5l-1.4-1.7v1.7h-.4v-4.2h.4zm2.5 2.7c0 .3.1.5.3.8.2.3.5.4.9.4.3 0 .5-.1.7-.2s.3-.3.4-.5h.5c-.1.3-.3.5-.5.7-.3.2-.6.3-1 .3-.5 0-.9-.2-1.2-.5-.3-.3-.5-.7-.5-1.2 0-.4.1-.8.4-1.1.3-.3.7-.5 1.3-.5.5 0 .9.2 1.2.5.3.3.4.8.4 1.3h-2.9zm2.4-.3c0-.3-.2-.5-.3-.7-.2-.2-.5-.3-.9-.4-.4 0-.7.1-.9.3-.2.2-.3.5-.4.8h2.5zm4.3 1.2l1-2.6h.5l-1.7 4.2h-.4l.4-1-1.2-3.2h.5l.9 2.6zm3.4-2.7c.5 0 .9.2 1.2.6.3.3.4.7.4 1.1s-.2.8-.4 1.2c-.3.3-.7.5-1.2.5-.6 0-1-.2-1.2-.6-.3-.4-.4-.7-.4-1.1s.2-.8.4-1.1c.3-.4.7-.6 1.2-.6zm-1.3 1.7c0 .3.1.6.3.9.2.3.5.4.9.4s.7-.1.9-.4c.2-.3.3-.6.3-.9s-.1-.6-.3-.9c-.2-.3-.5-.4-.9-.4s-.7.1-.9.4c-.1.3-.2.5-.3.9zm3.7-1.6h.4v1.9c0 .2.1.5.2.7s.4.3.7.3c.4 0 .6-.1.8-.3.2-.2.2-.5.2-.7v-1.8h.4v3.2h-.4v-.5c-.1.1-.2.2-.4.3-.2.1-.4.1-.6.1-.4 0-.7-.1-1-.4-.2-.2-.3-.5-.3-.9v-1.9zm4.8.4c-.1 0-.2 0-.3.1-.1 0-.2.1-.2.2-.1.1-.1.1-.1.2v2.4H43v-3.1h.4v.3l.3-.3c.1-.1.3-.1.4-.1l-.1.3zm5.8-1.4v4.2h-.4v-.5c-.1.2-.3.3-.5.4s-.4.2-.7.2c-.5 0-.9-.2-1.2-.5-.3-.3-.5-.7-.5-1.2 0-.4.2-.8.4-1.1.3-.3.7-.5 1.2-.5.3 0 .6.1.8.2.2.1.4.2.5.4v-1.5h.4v-.1zm-.4 2.6c0-.3-.1-.6-.4-.9-.2-.3-.5-.4-.9-.4s-.7.1-.9.4c-.2.3-.3.5-.3.9 0 .3.1.7.3.9.2.3.5.4.9.4s.7-.2.9-.4c.3-.3.4-.6.4-.9zm2.5-1.2c-.1 0-.2 0-.3.1-.1 0-.2.1-.2.2-.1.1-.1.1-.1.2v2.4h-.4v-3.1h.4v.3l.3-.3c.1-.1.3-.1.4-.1l-.1.3zm.8 1.3c0 .3.1.5.3.8.2.3.5.4.9.4.3 0 .5-.1.7-.2s.3-.3.4-.5h.5c-.1.3-.3.5-.5.7-.3.2-.6.3-1 .3-.5 0-.9-.2-1.2-.5-.3-.3-.5-.7-.5-1.2 0-.4.1-.8.4-1.1.3-.3.7-.5 1.3-.5.5 0 .9.2 1.2.5.3.3.4.8.4 1.3h-2.9zm2.4-.3c0-.3-.2-.5-.3-.7-.2-.2-.5-.3-.9-.4-.4 0-.7.1-.9.3-.2.2-.3.5-.4.8h2.5zm2.7-1.5c.2 0 .5.1.7.2s.4.2.5.4v-.5h.4v3.2H59v-.5c-.1.2-.3.3-.5.4s-.5.2-.8.2c-.6 0-1-.2-1.2-.6-.3-.4-.4-.7-.4-1.1s.2-.8.4-1.2c.4-.3.8-.5 1.3-.5zm0 .4c-.4 0-.7.2-.9.4-.2.3-.3.6-.3.9s.1.6.3.9c.2.3.5.4.9.4s.7-.2.9-.4c.2-.3.3-.6.3-.9s-.1-.6-.3-.9-.5-.4-.9-.4zm5.2 2.9h-.4v-2c0-.2-.1-.4-.2-.6s-.4-.3-.7-.3c-.3 0-.6.1-.7.3-.1.2-.2.4-.2.7v1.8h-.4v-3.2h.4v.4c.1-.1.2-.2.4-.3.2-.1.4-.1.6-.1s.5.1.7.2.3.2.4.4c.1-.2.3-.3.5-.4s.4-.2.7-.2c.4 0 .7.1.9.4.2.2.3.6.3.9v1.9h-.4v-2c0-.2-.1-.4-.2-.6s-.4-.3-.7-.3c-.3 0-.6.1-.7.3-.2.2-.2.4-.2.7l-.1 2zm3.4-1v.3c0 .1.1.2.1.2 0 .1.1.1.2.2.1 0 .2.1.3.1.2 0 .3-.1.4-.2s.1-.2.1-.4-.1-.4-.2-.4c-.1-.1-.3-.2-.5-.2-.2-.1-.4-.1-.5-.3-.1-.1-.2-.3-.2-.6 0-.2.1-.4.2-.6.2-.2.4-.3.7-.3.3 0 .5.1.7.2.2.2.2.4.2.6h-.4c0-.1 0-.2-.1-.3-.1-.1-.2-.1-.4-.1-.1 0-.3.1-.4.2s-.1.2-.1.3c0 .2.1.3.2.4.2.1.3.1.5.2s.4.1.5.3c.2.1.2.4.2.7 0 .1 0 .2-.1.4 0 .1-.1.2-.2.3-.1.1-.2.2-.3.2-.1.1-.3.1-.4.1-.4 0-.6-.1-.8-.4-.2-.2-.2-.5-.2-.7h.5v-.2zm7.5 0c-.1.3-.3.6-.6.8-.3.2-.6.3-1 .3-.5 0-.9-.2-1.2-.5-.3-.3-.4-.7-.4-1.2 0-.4.2-.8.5-1.1.3-.3.7-.5 1.2-.5.2 0 .3 0 .5.1s.3.1.4.2l.3.3c.1.1.2.3.2.4h-.4c-.1-.2-.2-.4-.4-.5-.2-.1-.4-.2-.7-.2-.4 0-.7.1-.9.4-.2.3-.3.5-.3.9 0 .3.1.6.3.9.2.3.5.4.9.4.3 0 .5-.1.7-.2s.3-.3.4-.5h.5zm2.3-2.3c.5 0 .9.2 1.2.6.3.3.4.7.4 1.1s-.2.8-.4 1.2c-.3.3-.7.5-1.2.5-.6 0-1-.2-1.2-.6-.3-.4-.4-.7-.4-1.1s.2-.8.4-1.1c.2-.4.6-.6 1.2-.6zm-1.3 1.7c0 .3.1.6.3.9.2.3.5.4.9.4s.7-.1.9-.4c.2-.3.3-.6.3-.9s-.1-.6-.3-.9c-.2-.3-.5-.4-.9-.4s-.7.1-.9.4c-.2.3-.3.5-.3.9zm6.3 1.6h-.4v-2c0-.2-.1-.4-.2-.6s-.4-.3-.7-.3c-.3 0-.6.1-.7.3-.1.2-.2.4-.2.7v1.8h-.4v-3.2h.4v.4c.1-.1.2-.2.4-.3.2-.1.4-.1.6-.1s.5.1.7.2.3.2.4.4c.1-.2.3-.3.5-.4s.4-.2.7-.2c.4 0 .7.1.9.4.2.2.3.6.3.9v1.9h-.4v-2c0-.2-.1-.4-.2-.6s-.4-.3-.7-.3c-.3 0-.6.1-.7.3-.2.2-.2.4-.2.7l-.1 2zm3.5-1.5c0 .3.1.5.3.8.2.3.5.4.9.4.3 0 .5-.1.7-.2s.3-.3.4-.5h.5c-.1.3-.3.5-.5.7-.3.2-.6.3-1 .3-.5 0-.9-.2-1.2-.5-.3-.3-.5-.7-.5-1.2 0-.4.1-.8.4-1.1.3-.3.7-.5 1.3-.5.5 0 .9.2 1.2.5.3.3.4.8.4 1.3h-2.9zm2.4-.3c0-.3-.2-.5-.3-.7-.2-.2-.5-.3-.9-.4-.4 0-.7.1-.9.3-.2.2-.3.5-.4.8h2.5zm3.5-1H90v-.4h.6v-1.1h.4v1.1h.6v.4H91v2.8h-.4V45zm2.7 0c-.1 0-.2 0-.3.1-.1 0-.2.1-.2.2-.1.1-.1.1-.1.2v2.4h-.4v-3.1h.4v.3l.3-.3c.1-.1.3-.1.4-.1l-.1.3zm.7-.4h.4v1.9c0 .2.1.5.2.7s.4.3.7.3c.4 0 .6-.1.8-.3.2-.2.2-.5.2-.7v-1.8h.4v3.2h-.4v-.5c-.1.1-.2.2-.4.3-.2.1-.4.1-.6.1-.4 0-.7-.1-1-.4-.2-.2-.3-.5-.3-.9v-1.9zm3.9 1.7c0 .3.1.5.3.8.2.3.5.4.9.4.3 0 .5-.1.7-.2s.3-.3.4-.5h.5c-.1.3-.3.5-.5.7-.3.2-.6.3-1 .3-.5 0-.9-.2-1.2-.5-.3-.3-.5-.7-.5-1.2 0-.4.1-.8.4-1.1.3-.3.7-.5 1.3-.5.5 0 .9.2 1.2.5.3.3.4.8.4 1.3h-2.9zm2.4-.3c0-.3-.2-.5-.3-.7-.2-.2-.5-.3-.9-.4-.4 0-.7.1-.9.3-.2.2-.3.5-.4.8h2.5z"/></svg>