<?xml version="1.0" encoding="UTF-8" standalone="no"?>
<!DOCTYPE svg PUBLIC "-//W3C//DTD SVG 1.1//EN" "http://www.w3.org/Graphics/SVG/1.1/DTD/svg11.dtd">
<svg width="100%" height="100%" viewBox="0 0 1175 634" version="1.1" xmlns="http://www.w3.org/2000/svg" xmlns:xlink="http://www.w3.org/1999/xlink" xml:space="preserve" xmlns:serif="http://www.serif.com/" style="fill-rule:evenodd;clip-rule:evenodd;stroke-linejoin:round;stroke-miterlimit:2;">
    <g transform="matrix(4.16667,0,0,4.16667,0,0)">
        <path d="M0.02,144.697L0.02,118.921L3.743,118.921L12.191,141.654L12.263,141.654L20.569,118.921L24.256,118.921L24.256,144.697L21.822,144.697L21.822,121.714L21.75,121.714L13.301,144.697L11.01,144.697L2.525,121.714L2.454,121.714L2.454,144.697L0.02,144.697Z" style="fill:rgb(35,31,32);fill-rule:nonzero;"/>
        <path d="M42.811,134.136C42.811,133.229 42.686,132.377 42.435,131.576C42.185,130.777 41.814,130.085 41.326,129.5C40.836,128.916 40.221,128.45 39.482,128.103C38.742,127.758 37.895,127.585 36.94,127.585C35.985,127.585 35.144,127.763 34.416,128.122C33.688,128.479 33.067,128.958 32.555,129.553C32.041,130.15 31.629,130.842 31.319,131.63C31.009,132.418 30.806,133.254 30.711,134.136L42.811,134.136ZM30.711,135.925C30.711,136.928 30.842,137.877 31.105,138.772C31.367,139.667 31.754,140.443 32.268,141.099C32.781,141.756 33.432,142.281 34.219,142.675C35.007,143.068 35.914,143.265 36.94,143.265C38.348,143.265 39.553,142.895 40.556,142.155C41.558,141.416 42.226,140.365 42.561,139.005L44.959,139.005C44.696,139.888 44.351,140.705 43.921,141.457C43.491,142.209 42.955,142.866 42.31,143.426C41.666,143.987 40.901,144.423 40.019,144.733C39.136,145.043 38.109,145.198 36.94,145.198C35.46,145.198 34.184,144.948 33.109,144.446C32.035,143.945 31.152,143.259 30.46,142.387C29.768,141.517 29.255,140.491 28.921,139.309C28.586,138.128 28.419,136.857 28.419,135.497C28.419,134.136 28.617,132.859 29.01,131.666C29.404,130.472 29.964,129.428 30.693,128.533C31.42,127.638 32.31,126.934 33.36,126.421C34.41,125.908 35.603,125.651 36.94,125.651C39.494,125.651 41.499,126.528 42.955,128.283C44.41,130.037 45.126,132.585 45.103,135.925L30.711,135.925Z" style="fill:rgb(35,31,32);fill-rule:nonzero;"/>
        <path d="M48.628,144.697L48.628,118.921L50.776,118.921L50.776,128.73C51.636,127.823 52.524,127.084 53.443,126.51C54.362,125.938 55.466,125.651 56.755,125.651C57.9,125.651 58.962,125.848 59.941,126.242C60.919,126.635 61.743,127.322 62.412,128.3C62.864,128.969 63.133,129.656 63.217,130.359C63.3,131.063 63.342,131.798 63.342,132.561L63.342,144.697L61.194,144.697L61.194,132.596C61.194,130.926 60.824,129.674 60.085,128.839C59.344,128.003 58.115,127.585 56.397,127.585C55.729,127.585 55.12,127.686 54.571,127.889C54.022,128.091 53.527,128.36 53.085,128.694C52.644,129.029 52.268,129.411 51.958,129.841C51.647,130.27 51.409,130.723 51.242,131.201C51.027,131.798 50.896,132.37 50.848,132.919C50.8,133.468 50.776,134.064 50.776,134.709L50.776,144.697L48.628,144.697Z" style="fill:rgb(35,31,32);fill-rule:nonzero;"/>
        <path d="M69.99,144.697L67.842,144.697L67.842,126.153L69.99,126.153L69.99,129.625L70.062,129.625C70.658,128.145 71.428,127.114 72.371,126.528C73.314,125.944 74.561,125.651 76.112,125.651L76.112,127.978C74.895,127.955 73.893,128.145 73.105,128.551C72.317,128.958 71.691,129.507 71.225,130.199C70.76,130.891 70.438,131.708 70.259,132.65C70.08,133.593 69.99,134.578 69.99,135.604L69.99,144.697Z" style="fill:rgb(35,31,32);fill-rule:nonzero;"/>
        <path d="M101.745,134.96C100.837,135.341 99.918,135.592 98.987,135.712C98.057,135.831 97.126,135.925 96.195,135.998C94.548,136.117 93.265,136.487 92.347,137.107C91.428,137.728 90.968,138.671 90.968,139.935C90.968,140.508 91.081,141.004 91.309,141.422C91.535,141.84 91.833,142.185 92.204,142.46C92.573,142.734 93.003,142.937 93.492,143.068C93.981,143.2 94.477,143.265 94.978,143.265C95.837,143.265 96.672,143.158 97.484,142.943C98.295,142.728 99.017,142.4 99.65,141.959C100.282,141.517 100.79,140.956 101.172,140.276C101.553,139.595 101.745,138.79 101.745,137.859L101.745,134.96ZM98.128,133.885C98.534,133.838 99.017,133.766 99.578,133.671C100.139,133.576 100.599,133.444 100.957,133.277C101.315,133.11 101.535,132.829 101.619,132.435C101.703,132.042 101.745,131.678 101.745,131.343C101.745,130.246 101.392,129.345 100.688,128.64C99.984,127.937 98.796,127.585 97.126,127.585C96.386,127.585 95.706,127.65 95.085,127.782C94.464,127.913 93.922,128.139 93.457,128.462C92.991,128.784 92.609,129.214 92.311,129.751C92.012,130.288 91.815,130.962 91.72,131.773L89.536,131.773C89.608,130.675 89.858,129.74 90.288,128.964C90.718,128.187 91.272,127.555 91.953,127.065C92.633,126.577 93.42,126.218 94.315,125.992C95.21,125.765 96.159,125.651 97.162,125.651C98.092,125.651 98.97,125.754 99.793,125.956C100.617,126.159 101.333,126.481 101.941,126.923C102.55,127.364 103.027,127.955 103.374,128.694C103.719,129.434 103.893,130.341 103.893,131.415L103.893,141.51C103.893,142.346 104.042,142.878 104.34,143.104C104.638,143.331 105.241,143.277 106.148,142.943L106.148,144.626C105.98,144.674 105.736,144.745 105.414,144.841C105.092,144.935 104.775,144.983 104.465,144.983C104.131,144.983 103.809,144.948 103.499,144.876C103.141,144.828 102.854,144.715 102.64,144.536C102.425,144.357 102.251,144.142 102.121,143.891C101.989,143.641 101.899,143.367 101.852,143.068C101.804,142.77 101.78,142.454 101.78,142.12C100.873,143.122 99.835,143.885 98.665,144.411C97.496,144.935 96.231,145.198 94.871,145.198C94.059,145.198 93.277,145.091 92.525,144.876C91.774,144.661 91.111,144.327 90.539,143.874C89.966,143.421 89.512,142.866 89.178,142.209C88.844,141.552 88.677,140.771 88.677,139.864C88.677,136.714 90.837,134.852 95.157,134.279L98.128,133.885Z" style="fill:rgb(35,31,32);fill-rule:nonzero;"/>
        <path d="M121.059,126.153L123.207,126.153L123.207,144.697L121.059,144.697L121.059,142.12C120.772,142.454 120.45,142.8 120.092,143.158C119.734,143.515 119.323,143.843 118.857,144.142C118.392,144.441 117.849,144.691 117.229,144.894C116.607,145.096 115.892,145.198 115.081,145.198C113.839,145.198 112.801,145.025 111.966,144.679C111.13,144.334 110.456,143.85 109.943,143.229C109.43,142.609 109.06,141.886 108.833,141.063C108.606,140.24 108.493,139.34 108.493,138.36L108.493,126.153L110.641,126.153L110.641,138.325C110.641,139.924 111.011,141.147 111.751,141.994C112.49,142.841 113.708,143.265 115.402,143.265C116.285,143.265 117.079,143.092 117.783,142.746C118.487,142.4 119.078,141.917 119.555,141.296C120.033,140.675 120.402,139.935 120.665,139.077C120.927,138.217 121.059,137.275 121.059,136.248L121.059,126.153Z" style="fill:rgb(35,31,32);fill-rule:nonzero;"/>
        <path d="M128.931,138.897C129.265,140.497 129.868,141.625 130.739,142.281C131.61,142.937 132.857,143.265 134.48,143.265C135.268,143.265 135.948,143.17 136.521,142.978C137.094,142.788 137.564,142.531 137.935,142.209C138.305,141.886 138.585,141.523 138.776,141.117C138.967,140.712 139.063,140.282 139.063,139.828C139.063,138.922 138.77,138.248 138.186,137.805C137.601,137.364 136.867,137.018 135.984,136.767C135.101,136.516 134.146,136.301 133.12,136.123C132.093,135.944 131.139,135.675 130.256,135.317C129.373,134.96 128.639,134.446 128.054,133.778C127.469,133.11 127.177,132.167 127.177,130.951C127.177,129.398 127.744,128.128 128.877,127.137C130.011,126.147 131.616,125.651 133.692,125.651C135.697,125.651 137.326,126.099 138.579,126.994C139.832,127.889 140.59,129.386 140.853,131.488L138.669,131.488C138.478,130.054 137.935,129.048 137.04,128.462C136.145,127.877 135.017,127.585 133.657,127.585C132.296,127.585 131.258,127.877 130.542,128.462C129.826,129.048 129.468,129.816 129.468,130.772C129.468,131.606 129.759,132.245 130.345,132.686C130.929,133.128 131.664,133.486 132.547,133.76C133.43,134.035 134.385,134.279 135.411,134.494C136.437,134.709 137.392,135.013 138.275,135.407C139.157,135.8 139.892,136.332 140.477,137C141.062,137.669 141.354,138.599 141.354,139.793C141.354,140.675 141.162,141.457 140.781,142.137C140.399,142.817 139.874,143.384 139.206,143.838C138.537,144.292 137.744,144.632 136.825,144.858C135.906,145.085 134.897,145.198 133.8,145.198C132.702,145.198 131.729,145.037 130.882,144.715C130.035,144.392 129.313,143.945 128.716,143.373C128.119,142.8 127.654,142.132 127.32,141.368C126.986,140.604 126.795,139.781 126.748,138.897L128.931,138.897Z" style="fill:rgb(35,31,32);fill-rule:nonzero;"/>
        <path d="M163.765,131.236C164.91,131.236 165.937,131.165 166.843,131.022C167.75,130.88 168.519,130.61 169.152,130.216C169.785,129.822 170.275,129.285 170.621,128.605C170.966,127.924 171.14,127.036 171.14,125.938C171.14,124.315 170.609,123.086 169.546,122.251C168.484,121.415 166.796,120.998 164.48,120.998L158.179,120.998L158.179,131.236L163.765,131.236ZM155.746,144.697L155.746,118.921L165.162,118.921C166.832,118.921 168.21,119.112 169.296,119.494C170.382,119.876 171.242,120.401 171.873,121.069C172.505,121.737 172.947,122.508 173.199,123.378C173.449,124.25 173.574,125.163 173.574,126.117C173.574,127.549 173.281,128.73 172.697,129.661C172.111,130.591 171.355,131.326 170.423,131.863C169.494,132.4 168.437,132.775 167.255,132.99C166.074,133.205 164.886,133.312 163.693,133.312L158.179,133.312L158.179,144.697L155.746,144.697Z" style="fill:rgb(35,31,32);fill-rule:nonzero;"/>
        <path d="M190.199,135.425C190.199,134.327 190.08,133.3 189.841,132.346C189.601,131.391 189.232,130.563 188.73,129.858C188.23,129.154 187.585,128.599 186.798,128.193C186.009,127.788 185.042,127.585 183.898,127.585C182.775,127.585 181.816,127.805 181.015,128.247C180.216,128.689 179.566,129.273 179.064,130.001C178.564,130.729 178.193,131.564 177.955,132.508C177.716,133.45 177.597,134.423 177.597,135.425C177.597,136.57 177.734,137.627 178.009,138.593C178.283,139.559 178.683,140.389 179.208,141.081C179.732,141.774 180.39,142.31 181.177,142.692C181.964,143.074 182.871,143.265 183.898,143.265C185.019,143.265 185.98,143.045 186.779,142.602C187.58,142.161 188.23,141.571 188.73,140.831C189.232,140.091 189.601,139.256 189.841,138.325C190.08,137.394 190.199,136.427 190.199,135.425ZM183.898,145.198C182.705,145.175 181.589,144.96 180.55,144.553C179.513,144.148 178.605,143.54 177.83,142.728C177.054,141.917 176.439,140.902 175.986,139.685C175.533,138.467 175.306,137.049 175.306,135.425C175.306,134.064 175.484,132.794 175.843,131.613C176.201,130.43 176.738,129.398 177.455,128.515C178.169,127.633 179.064,126.934 180.138,126.421C181.212,125.908 182.466,125.651 183.898,125.651C185.353,125.651 186.619,125.908 187.693,126.421C188.767,126.934 189.662,127.627 190.378,128.498C191.093,129.369 191.625,130.401 191.97,131.594C192.316,132.788 192.49,134.064 192.49,135.425C192.49,136.905 192.287,138.241 191.88,139.434C191.474,140.628 190.896,141.654 190.144,142.513C189.392,143.373 188.486,144.035 187.423,144.5C186.361,144.966 185.187,145.198 183.898,145.198Z" style="fill:rgb(35,31,32);fill-rule:nonzero;"/>
        <rect x="196.125" y="118.921" width="2.148" height="25.776" style="fill:rgb(35,31,32);fill-rule:nonzero;"/>
        <path d="M202.916,149.709C203.201,149.757 203.494,149.804 203.792,149.852C204.089,149.9 204.394,149.924 204.705,149.924C205.3,149.924 205.791,149.733 206.173,149.352C206.554,148.97 206.871,148.511 207.121,147.975C207.373,147.439 207.582,146.879 207.748,146.296C207.916,145.711 208.105,145.217 208.32,144.812L201.125,126.153L203.523,126.153L209.466,142.084L215.41,126.153L217.736,126.153L210.828,144.446C210.398,145.616 209.986,146.666 209.591,147.596C209.199,148.528 208.781,149.321 208.339,149.977C207.896,150.633 207.408,151.134 206.871,151.481C206.333,151.827 205.695,152 204.955,152C204.574,152 204.208,151.976 203.863,151.928C203.517,151.881 203.201,151.821 202.916,151.75L202.916,149.709Z" style="fill:rgb(35,31,32);fill-rule:nonzero;"/>
        <path d="M222.462,144.697L220.314,144.697L220.314,126.153L222.462,126.153L222.462,128.945L222.535,128.945C223.083,127.871 223.871,127.053 224.898,126.493C225.923,125.932 227.044,125.651 228.263,125.651C229.121,125.651 229.849,125.747 230.447,125.938C231.042,126.129 231.55,126.385 231.968,126.708C232.384,127.03 232.732,127.406 233.005,127.836C233.281,128.264 233.513,128.73 233.705,129.231C234.324,128.014 235.154,127.114 236.193,126.528C237.23,125.944 238.417,125.651 239.753,125.651C241.019,125.651 242.027,125.861 242.779,126.278C243.531,126.696 244.109,127.245 244.515,127.924C244.921,128.605 245.189,129.386 245.322,130.27C245.453,131.153 245.517,132.059 245.517,132.99L245.517,144.697L243.371,144.697L243.371,131.882C243.371,130.546 243.089,129.494 242.529,128.73C241.968,127.966 240.923,127.585 239.396,127.585C238.609,127.585 237.851,127.758 237.123,128.103C236.394,128.45 235.755,128.981 235.207,129.697C234.968,130.008 234.771,130.372 234.617,130.789C234.46,131.207 234.335,131.643 234.242,132.095C234.146,132.55 234.08,133.003 234.044,133.456C234.007,133.91 233.99,134.327 233.99,134.709L233.99,144.697L231.841,144.697L231.841,131.882C231.841,130.546 231.562,129.494 231.001,128.73C230.439,127.966 229.396,127.585 227.869,127.585C227.082,127.585 226.324,127.758 225.595,128.103C224.867,128.45 224.228,128.981 223.679,129.697C223.441,130.008 223.244,130.372 223.089,130.789C222.933,131.207 222.808,131.643 222.712,132.095C222.617,132.55 222.552,133.003 222.517,133.456C222.48,133.91 222.462,134.327 222.462,134.709L222.462,144.697Z" style="fill:rgb(35,31,32);fill-rule:nonzero;"/>
        <path d="M263.296,134.136C263.296,133.229 263.169,132.377 262.919,131.576C262.669,130.777 262.298,130.085 261.81,129.5C261.32,128.916 260.707,128.45 259.966,128.103C259.226,127.758 258.377,127.585 257.424,127.585C256.47,127.585 255.628,127.763 254.9,128.122C254.171,128.479 253.552,128.958 253.039,129.553C252.525,130.15 252.113,130.842 251.804,131.63C251.494,132.418 251.291,133.254 251.195,134.136L263.296,134.136ZM251.195,135.925C251.195,136.928 251.326,137.877 251.589,138.772C251.851,139.667 252.24,140.443 252.753,141.099C253.265,141.756 253.916,142.281 254.703,142.675C255.492,143.068 256.398,143.265 257.424,143.265C258.832,143.265 260.039,142.895 261.04,142.155C262.042,141.416 262.71,140.365 263.044,139.005L265.443,139.005C265.181,139.888 264.835,140.705 264.406,141.457C263.976,142.209 263.439,142.866 262.794,143.426C262.15,143.987 261.385,144.423 260.502,144.733C259.621,145.043 258.592,145.198 257.424,145.198C255.945,145.198 254.667,144.948 253.593,144.446C252.519,143.945 251.636,143.259 250.945,142.387C250.251,141.517 249.74,140.491 249.406,139.309C249.07,138.128 248.904,136.857 248.904,135.497C248.904,134.136 249.101,132.859 249.496,131.666C249.888,130.472 250.449,129.428 251.177,128.533C251.906,127.638 252.794,126.934 253.845,126.421C254.894,125.908 256.087,125.651 257.424,125.651C259.978,125.651 261.982,126.528 263.439,128.283C264.894,130.037 265.611,132.585 265.587,135.925L251.195,135.925Z" style="fill:rgb(35,31,32);fill-rule:nonzero;"/>
        <path d="M271.312,144.697L269.164,144.697L269.164,126.153L271.312,126.153L271.312,129.625L271.382,129.625C271.98,128.145 272.75,127.114 273.693,126.528C274.634,125.944 275.882,125.651 277.433,125.651L277.433,127.978C276.216,127.955 275.214,128.145 274.425,128.551C273.638,128.958 273.011,129.507 272.546,130.199C272.082,130.891 271.759,131.708 271.58,132.65C271.402,133.593 271.312,134.578 271.312,135.604L271.312,144.697Z" style="fill:rgb(35,31,32);fill-rule:nonzero;"/>
        <rect x="278.75" y="141.547" width="2.613" height="3.15" style="fill:rgb(35,31,32);fill-rule:nonzero;"/>
        <path d="M16.37,41.628C17.56,41.628 18.613,41.137 19.53,40.152C20.445,39.167 20.904,37.644 20.904,35.583C20.904,33.659 20.445,32.194 19.53,31.186C18.613,30.179 17.56,29.675 16.37,29.675L12.797,29.675L12.797,41.628L16.37,41.628ZM15.889,21.019C17.216,21.019 18.225,20.527 18.912,19.541C19.599,18.557 19.942,17.401 19.942,16.072C19.942,14.698 19.599,13.508 18.912,12.499C18.225,11.492 17.216,10.988 15.889,10.988L12.797,10.988L12.797,21.019L15.889,21.019ZM19.324,1.782C23.903,1.782 27.281,2.894 29.457,5.114C31.632,7.336 32.72,10.301 32.72,14.011C32.72,15.294 32.571,16.542 32.273,17.755C31.975,18.969 31.518,20.069 30.899,21.053C30.281,22.038 29.491,22.873 28.529,23.561C27.568,24.247 26.4,24.728 25.026,25.003L25.026,25.141C26.628,25.277 28.002,25.701 29.148,26.411C30.292,27.122 31.231,28.003 31.964,29.056C32.697,30.11 33.235,31.267 33.579,32.526C33.922,33.786 34.094,35.057 34.094,36.338C34.094,38.445 33.819,40.392 33.27,42.178C32.72,43.964 31.861,45.499 30.693,46.78C29.525,48.064 28.002,49.06 26.125,49.77C24.247,50.48 21.98,50.834 19.324,50.834L0.019,50.834L0.019,1.782L19.324,1.782Z" style="fill:rgb(35,31,32);fill-rule:nonzero;"/>
        <path d="M55.047,11.813L51.543,32.629L58.688,32.629L55.185,11.813L55.047,11.813ZM63.154,1.782L75.107,50.834L61.505,50.834L60.2,42.246L50.032,42.246L48.727,50.834L35.33,50.834L47.078,1.782L63.154,1.782Z" style="fill:rgb(35,31,32);fill-rule:nonzero;"/>
        <path d="M92.557,22.529C94.389,22.529 95.74,21.992 96.61,20.915C97.48,19.84 97.916,18.432 97.916,16.691C97.916,14.629 97.492,13.164 96.645,12.293C95.797,11.424 94.412,10.988 92.489,10.988L90.015,10.988L90.015,22.529L92.557,22.529ZM97.229,1.782C99.656,1.782 101.729,2.104 103.447,2.744C105.164,3.386 106.561,4.29 107.637,5.458C108.713,6.626 109.492,8.012 109.973,9.614C110.454,11.218 110.694,12.958 110.694,14.835C110.694,18.133 110.03,20.789 108.702,22.805C107.374,24.82 105.244,26.057 102.313,26.515L102.313,26.652C105.381,26.927 107.488,28.003 108.634,29.881C109.778,31.759 110.351,34.346 110.351,37.644L110.351,43.826C110.351,44.514 110.374,45.166 110.42,45.784C110.465,46.403 110.534,46.964 110.626,47.468C110.717,47.973 110.832,48.36 110.969,48.636C111.152,48.91 111.335,49.175 111.519,49.426C111.702,49.678 112,49.918 112.412,50.148L112.412,50.834L98.809,50.834C98.488,50.194 98.248,49.438 98.087,48.567C97.927,47.697 97.813,46.827 97.744,45.956C97.675,45.087 97.629,44.251 97.607,43.449C97.583,42.649 97.572,41.995 97.572,41.491L97.572,38.194C97.572,36.819 97.503,35.675 97.366,34.758C97.229,33.843 96.988,33.121 96.645,32.594C96.301,32.069 95.866,31.701 95.34,31.495C94.813,31.289 94.16,31.186 93.382,31.186L90.015,31.186L90.015,50.834L77.237,50.834L77.237,1.782L97.229,1.782Z" style="fill:rgb(35,31,32);fill-rule:nonzero;"/>
        <path d="M129.449,1.782L129.449,40.392L145.181,40.392L145.181,50.834L116.671,50.834L116.671,1.782L129.449,1.782Z" style="fill:rgb(35,31,32);fill-rule:nonzero;"/>
        <path d="M160.364,34.518C160.455,36.694 160.649,38.423 160.948,39.704C161.245,40.987 161.679,41.881 162.252,42.384C162.825,42.889 163.592,43.14 164.554,43.14C165.516,43.14 166.283,42.889 166.856,42.384C167.428,41.881 167.863,40.987 168.161,39.704C168.458,38.423 168.653,36.694 168.745,34.518C168.836,32.343 168.882,29.606 168.882,26.308C168.882,23.011 168.836,20.275 168.745,18.099C168.653,15.924 168.458,14.194 168.161,12.911C167.863,11.63 167.428,10.737 166.856,10.233C166.283,9.729 165.516,9.477 164.554,9.477C163.592,9.477 162.825,9.729 162.252,10.233C161.679,10.737 161.245,11.63 160.948,12.911C160.649,14.194 160.455,15.924 160.364,18.099C160.271,20.275 160.226,23.011 160.226,26.308C160.226,29.606 160.271,32.343 160.364,34.518ZM147.929,14.595C148.524,11.366 149.509,8.733 150.883,6.695C152.257,4.657 154.066,3.168 156.31,2.229C158.553,1.291 161.301,0.821 164.554,0.821C167.805,0.821 170.553,1.291 172.798,2.229C175.042,3.168 176.851,4.657 178.225,6.695C179.599,8.733 180.583,11.366 181.179,14.595C181.774,17.823 182.073,21.729 182.073,26.308C182.073,30.889 181.774,34.793 181.179,38.022C180.583,41.25 179.599,43.885 178.225,45.922C176.851,47.96 175.042,49.415 172.798,50.284C170.553,51.154 167.805,51.59 164.554,51.59C161.301,51.59 158.553,51.154 156.31,50.284C154.066,49.415 152.257,47.96 150.883,45.922C149.509,43.885 148.524,41.25 147.929,38.022C147.333,34.793 147.036,30.889 147.036,26.308C147.036,21.729 147.333,17.823 147.929,14.595Z" style="fill:rgb(35,31,32);fill-rule:nonzero;"/>
        <path d="M219.652,24.179L219.652,50.834L210.996,50.834L210.72,46.506L210.583,46.506C210.171,47.56 209.587,48.43 208.832,49.116C208.076,49.804 207.228,50.319 206.29,50.662C205.35,51.006 204.342,51.246 203.267,51.384C202.19,51.521 201.103,51.59 200.003,51.59C196.75,51.59 194.186,51.051 192.309,49.976C190.43,48.9 189.011,47.285 188.049,45.132C187.087,42.98 186.48,40.323 186.229,37.163C185.977,34.003 185.851,30.385 185.851,26.308C185.851,22.187 186.091,18.545 186.573,15.385C187.053,12.225 187.969,9.57 189.321,7.416C190.671,5.264 192.538,3.626 194.919,2.504C197.3,1.382 200.37,0.821 204.125,0.821C206.369,0.821 208.442,1.119 210.343,1.714C212.243,2.31 213.88,3.272 215.254,4.599C216.628,5.928 217.705,7.634 218.484,9.717C219.262,11.802 219.652,14.332 219.652,17.309L207.286,17.309C207.286,14.698 207.056,12.798 206.598,11.607C206.14,10.188 205.156,9.477 203.645,9.477C202.59,9.477 201.755,9.729 201.137,10.233C200.519,10.737 200.06,11.63 199.763,12.911C199.464,14.194 199.27,15.924 199.179,18.099C199.086,20.275 199.042,23.011 199.042,26.308C199.042,29.606 199.086,32.343 199.179,34.518C199.27,36.694 199.464,38.423 199.763,39.704C200.06,40.987 200.495,41.881 201.068,42.384C201.64,42.889 202.408,43.14 203.37,43.14C204.057,43.14 204.664,43.002 205.19,42.728C205.716,42.452 206.163,41.938 206.53,41.182C206.896,40.426 207.182,39.373 207.389,38.022C207.595,36.671 207.698,34.942 207.698,32.835L203.164,32.835L203.164,24.179L219.652,24.179Z" style="fill:rgb(35,31,32);fill-rule:nonzero;"/>
        <path d="M10.608,79.443C12.069,79.443 13.251,79.002 14.152,78.117C15.053,77.233 15.504,75.856 15.504,73.986C15.504,72.15 15.112,70.756 14.331,69.804C13.548,68.853 12.24,68.376 10.404,68.376L7.344,68.376L7.344,79.443L10.608,79.443ZM12.852,62.97C14.721,62.97 16.294,63.285 17.569,63.913C18.844,64.543 19.872,65.367 20.655,66.387C21.437,67.407 21.998,68.572 22.338,69.881C22.677,71.19 22.848,72.525 22.848,73.884C22.848,75.754 22.567,77.386 22.006,78.779C21.445,80.175 20.663,81.314 19.66,82.197C18.657,83.081 17.442,83.744 16.014,84.186C14.586,84.628 13.005,84.849 11.271,84.849L7.344,84.849L7.344,99.384L0,99.384L0,62.97L12.852,62.97Z" style="fill:rgb(237,28,36);fill-rule:nonzero;"/>
        <rect x="26.52" y="62.97" width="7.038" height="36.414" style="fill:rgb(237,28,36);fill-rule:nonzero;"/>
        <path d="M49.775,86.558C49.231,86.779 48.737,86.94 48.296,87.042C46.868,87.348 45.848,87.858 45.236,88.572C44.624,89.286 44.318,90.255 44.318,91.479C44.318,92.533 44.522,93.435 44.93,94.182C45.338,94.93 46.018,95.304 46.97,95.304C47.445,95.304 47.939,95.228 48.449,95.074C48.959,94.921 49.426,94.675 49.851,94.335C50.276,93.995 50.624,93.553 50.897,93.009C51.168,92.465 51.305,91.819 51.305,91.07L51.305,85.665C50.828,86.039 50.318,86.337 49.775,86.558ZM38.453,79.698C38.453,78.1 38.708,76.765 39.218,75.694C39.728,74.623 40.416,73.756 41.283,73.093C42.15,72.43 43.17,71.955 44.343,71.666C45.516,71.377 46.766,71.232 48.092,71.232C50.199,71.232 51.899,71.436 53.192,71.844C54.483,72.252 55.487,72.83 56.201,73.578C56.915,74.326 57.399,75.219 57.654,76.256C57.909,77.293 58.037,78.423 58.037,79.647L58.037,94.08C58.037,95.372 58.096,96.375 58.215,97.089C58.334,97.803 58.564,98.568 58.904,99.384L52.172,99.384C51.934,98.943 51.755,98.475 51.636,97.982C51.517,97.489 51.407,97.004 51.305,96.527L51.203,96.527C50.387,97.956 49.443,98.883 48.372,99.308C47.301,99.733 45.916,99.944 44.216,99.944C42.992,99.944 41.954,99.733 41.105,99.308C40.254,98.883 39.575,98.296 39.065,97.548C38.555,96.801 38.18,95.959 37.943,95.024C37.705,94.089 37.586,93.162 37.586,92.244C37.586,90.952 37.721,89.839 37.994,88.903C38.266,87.969 38.682,87.169 39.243,86.506C39.804,85.844 40.518,85.291 41.385,84.849C42.252,84.407 43.298,84.016 44.522,83.676L48.5,82.605C49.553,82.333 50.285,81.959 50.693,81.483C51.101,81.007 51.305,80.31 51.305,79.392C51.305,78.339 51.058,77.514 50.565,76.919C50.072,76.324 49.231,76.026 48.041,76.026C46.952,76.026 46.136,76.349 45.593,76.995C45.048,77.641 44.777,78.508 44.777,79.596L44.777,80.36L38.453,80.36L38.453,79.698Z" style="fill:rgb(237,28,36);fill-rule:nonzero;"/>
        <path d="M68.185,91.326C68.185,92.517 68.499,93.477 69.128,94.207C69.757,94.939 70.667,95.304 71.857,95.304C72.945,95.304 73.812,95.032 74.458,94.487C75.104,93.944 75.427,93.128 75.427,92.04C75.427,91.156 75.172,90.485 74.662,90.026C74.152,89.567 73.557,89.201 72.877,88.929L67.93,87.144C65.992,86.464 64.53,85.504 63.544,84.263C62.558,83.022 62.065,81.432 62.065,79.494C62.065,78.372 62.251,77.31 62.626,76.306C63,75.304 63.595,74.428 64.411,73.68C65.227,72.932 66.272,72.337 67.547,71.895C68.822,71.453 70.36,71.232 72.163,71.232C75.358,71.232 77.722,71.912 79.252,73.272C80.782,74.632 81.547,76.553 81.547,79.035L81.547,80.157L75.223,80.157C75.223,78.729 74.994,77.683 74.535,77.021C74.076,76.358 73.268,76.026 72.112,76.026C71.228,76.026 70.455,76.273 69.792,76.765C69.128,77.259 68.797,77.998 68.797,78.985C68.797,79.664 69.009,80.277 69.435,80.819C69.859,81.364 70.667,81.823 71.857,82.197L76.09,83.625C78.3,84.373 79.864,85.351 80.782,86.558C81.7,87.765 82.159,89.405 82.159,91.479C82.159,92.942 81.904,94.207 81.394,95.278C80.884,96.35 80.178,97.242 79.277,97.956C78.377,98.67 77.305,99.18 76.064,99.485C74.823,99.792 73.455,99.944 71.959,99.944C69.987,99.944 68.346,99.758 67.038,99.384C65.728,99.01 64.691,98.449 63.926,97.701C63.162,96.953 62.626,96.043 62.32,94.973C62.014,93.902 61.861,92.703 61.861,91.377L61.861,90.408L68.185,90.408L68.185,91.326Z" style="fill:rgb(237,28,36);fill-rule:nonzero;"/>
        <path d="M94.245,64.092L94.245,71.946L98.325,71.946L98.325,76.74L94.245,76.74L94.245,91.581C94.245,92.669 94.406,93.443 94.73,93.902C95.052,94.36 95.724,94.59 96.744,94.59C97.016,94.59 97.288,94.582 97.56,94.565C97.832,94.548 98.087,94.523 98.325,94.487L98.325,99.384C97.543,99.384 96.786,99.409 96.056,99.46C95.324,99.512 94.551,99.537 93.735,99.537C92.375,99.537 91.262,99.443 90.395,99.256C89.527,99.069 88.865,98.695 88.406,98.135C87.947,97.573 87.632,96.834 87.462,95.916C87.292,94.998 87.207,93.843 87.207,92.448L87.207,76.74L83.637,76.74L83.637,71.946L87.207,71.946L87.207,64.092L94.245,64.092Z" style="fill:rgb(237,28,36);fill-rule:nonzero;"/>
        <path d="M108.066,71.946L108.066,99.384L101.028,99.384L101.028,71.946L108.066,71.946ZM108.066,62.562L108.066,68.58L101.028,68.58L101.028,62.562L108.066,62.562Z" style="fill:rgb(237,28,36);fill-rule:nonzero;"/>
        <path d="M126.095,79.851C126.009,79.205 125.856,78.619 125.635,78.091C125.414,77.565 125.1,77.14 124.692,76.817C124.284,76.494 123.74,76.332 123.06,76.332C122.21,76.332 121.513,76.528 120.969,76.919C120.425,77.31 120.017,77.887 119.745,78.652C119.473,79.417 119.286,80.387 119.184,81.56C119.082,82.733 119.031,84.118 119.031,85.716C119.031,87.416 119.082,88.87 119.184,90.076C119.286,91.283 119.473,92.278 119.745,93.06C120.017,93.843 120.399,94.411 120.893,94.769C121.385,95.125 122.022,95.304 122.805,95.304C123.995,95.304 124.862,94.794 125.406,93.774C125.949,92.754 126.222,91.122 126.222,88.878L132.954,88.878C132.954,92.483 132.146,95.228 130.531,97.114C128.916,99.001 126.239,99.944 122.499,99.944C120.731,99.944 119.192,99.733 117.883,99.308C116.574,98.883 115.486,98.117 114.62,97.013C113.752,95.908 113.098,94.429 112.656,92.575C112.214,90.723 111.993,88.419 111.993,85.665C111.993,82.843 112.265,80.506 112.809,78.652C113.353,76.799 114.118,75.32 115.104,74.215C116.09,73.111 117.263,72.337 118.623,71.895C119.982,71.453 121.479,71.232 123.111,71.232C126.375,71.232 128.83,72.184 130.479,74.088C132.129,75.992 132.954,78.576 132.954,81.84L126.222,81.84C126.222,81.16 126.179,80.497 126.095,79.851Z" style="fill:rgb(237,28,36);fill-rule:nonzero;"/>
        <path d="M141.777,91.326C141.777,92.517 142.091,93.477 142.72,94.207C143.349,94.939 144.258,95.304 145.449,95.304C146.537,95.304 147.404,95.032 148.05,94.487C148.695,93.944 149.019,93.128 149.019,92.04C149.019,91.156 148.763,90.485 148.253,90.026C147.744,89.567 147.148,89.201 146.468,88.929L141.522,87.144C139.584,86.464 138.122,85.504 137.136,84.263C136.149,83.022 135.657,81.432 135.657,79.494C135.657,78.372 135.843,77.31 136.218,76.306C136.591,75.304 137.187,74.428 138.003,73.68C138.819,72.932 139.864,72.337 141.139,71.895C142.414,71.453 143.953,71.232 145.755,71.232C148.951,71.232 151.314,71.912 152.843,73.272C154.375,74.632 155.138,76.553 155.138,79.035L155.138,80.157L148.815,80.157C148.815,78.729 148.585,77.683 148.126,77.021C147.667,76.358 146.859,76.026 145.704,76.026C144.82,76.026 144.046,76.273 143.383,76.765C142.72,77.259 142.388,77.998 142.388,78.985C142.388,79.664 142.601,80.277 143.027,80.819C143.451,81.364 144.258,81.823 145.449,82.197L149.681,83.625C151.892,84.373 153.456,85.351 154.375,86.558C155.292,87.765 155.751,89.405 155.751,91.479C155.751,92.942 155.496,94.207 154.986,95.278C154.476,96.35 153.769,97.242 152.869,97.956C151.968,98.67 150.897,99.18 149.656,99.485C148.415,99.792 147.046,99.944 145.55,99.944C143.579,99.944 141.938,99.758 140.629,99.384C139.32,99.01 138.283,98.449 137.518,97.701C136.753,96.953 136.218,96.043 135.912,94.973C135.606,93.902 135.453,92.703 135.453,91.377L135.453,90.408L141.777,90.408L141.777,91.326Z" style="fill:rgb(237,28,36);fill-rule:nonzero;"/>
    </g>
</svg>
