<svg xmlns="http://www.w3.org/2000/svg" width="140" height="48" viewBox="0 0 140 48">
<path fill="#625370" d="M64.6,46.9l0.5-1.1c0.4,0.4,0.9,0.6,1.4,0.6c0.6,0,1.2-0.4,1.3-1.1c0-0.1,0-0.1,0-0.2v-0.7
	c-0.3,0.5-0.8,0.8-1.4,0.9c-1.3,0-2.1-1.1-2.1-2.8c0-1.7,0.8-2.8,2.1-2.8c0.6,0,1.1,0.3,1.4,0.8v-0.7h1.4v5.4
	c0.1,0.7-0.2,1.5-0.8,1.9c-0.5,0.3-1.1,0.5-1.7,0.5C65.9,47.7,65.2,47.4,64.6,46.9z M65.8,42.5c0,1,0.4,1.6,1.1,1.6
	c0.4,0,0.8-0.3,1-0.6v-1.9c-0.2-0.4-0.6-0.6-1-0.6C66.2,40.9,65.8,41.5,65.8,42.5z M38.2,46.9l0.5-1.1c0.4,0.4,0.9,0.6,1.4,0.6
	c0.6,0,1.2-0.4,1.3-1.1c0-0.1,0-0.1,0-0.2v-0.7c-0.3,0.5-0.8,0.8-1.4,0.9c-1.3,0-2.1-1.1-2.1-2.8c0-1.7,0.8-2.8,2.1-2.8
	c0.6,0,1.1,0.3,1.4,0.8v-0.7h1.4v5.4c0.1,0.7-0.2,1.5-0.8,1.9c-0.5,0.3-1.1,0.5-1.7,0.5C39.5,47.7,38.8,47.4,38.2,46.9z M39.4,42.5
	c0,1,0.4,1.6,1.1,1.6c0.4,0,0.8-0.3,1-0.6v-1.9c-0.2-0.4-0.6-0.6-1-0.6C39.8,40.9,39.4,41.5,39.4,42.5z M135.7,44.7l0.6-1
	c0.4,0.4,1,0.6,1.5,0.7c0.5,0,0.8-0.2,0.8-0.6c0-0.9-2.7-0.4-2.7-2.5c0-0.9,0.7-1.7,2-1.7c0.7,0,1.4,0.2,1.9,0.7l-0.6,1
	c-0.4-0.4-0.9-0.6-1.4-0.6c-0.4,0-0.7,0.2-0.7,0.5c0,0.8,2.8,0.4,2.8,2.5c0,1-0.8,1.7-2.1,1.7C137,45.5,136.3,45.3,135.7,44.7
	L135.7,44.7z M124.7,44.6c-0.9-1.2-0.9-2.9,0-4.1c0.9-1,2.4-1.2,3.5-0.3c0.1,0.1,0.2,0.2,0.3,0.3c0.9,1.2,0.9,2.9,0,4.1
	c-0.9,1-2.4,1.2-3.5,0.3C124.9,44.8,124.8,44.7,124.7,44.6z M125.5,42.6c0,0.8,0.3,1.7,1.1,1.7c0.5,0,1.1-0.4,1.1-1.7
	c0-0.8-0.3-1.7-1.1-1.7S125.5,41.8,125.5,42.6L125.5,42.6z M118.2,44v-3h-0.7v-1.2h0.7v-1.5h1.4v1.5h0.9V41h-0.9v2.7
	c0,0.4,0.1,0.6,0.4,0.6c0.2,0,0.3-0.1,0.4-0.2l0.3,1.1c-0.3,0.2-0.7,0.3-1.1,0.3C118.7,45.5,118.2,45,118.2,44L118.2,44z M112.1,44
	v-4.2h1.4v3.7c0,0.6,0.3,0.8,0.7,0.8c0.4,0,0.8-0.3,1-0.7v-3.8h1.4v5.5h-1.4v-0.7c-0.4,0.5-1,0.8-1.6,0.8c-0.7,0.1-1.4-0.4-1.5-1.2
	C112.1,44.2,112.1,44.1,112.1,44L112.1,44z M108.9,44v-6.3h1.4v6c0,0.4,0.1,0.6,0.4,0.6c0.1,0,0.3-0.1,0.4-0.2l0.3,1.1
	c-0.3,0.2-0.7,0.3-1.1,0.3C109.4,45.5,108.9,45,108.9,44L108.9,44z M103.4,44.6c-0.9-1.2-0.9-2.9,0-4.1c0.9-1,2.4-1.2,3.5-0.3
	c0.1,0.1,0.2,0.2,0.3,0.3c0.9,1.2,0.9,2.9,0,4.1c-0.9,1-2.4,1.2-3.5,0.3C103.6,44.8,103.5,44.8,103.4,44.6z M104.2,42.6
	c0,0.8,0.3,1.7,1.1,1.7c0.5,0,1.1-0.4,1.1-1.7c0-0.8-0.3-1.7-1.1-1.7S104.2,41.8,104.2,42.6L104.2,42.6z M97.7,44.7l0.6-1
	c0.4,0.4,1,0.6,1.5,0.7c0.5,0,0.8-0.2,0.8-0.6c0-0.9-2.7-0.4-2.7-2.5c0-0.9,0.7-1.7,2-1.7c0.7,0,1.4,0.2,1.9,0.7l-0.6,1
	c-0.4-0.4-0.9-0.6-1.4-0.6c-0.4,0-0.7,0.2-0.7,0.5c0,0.8,2.8,0.4,2.8,2.5c0,1-0.8,1.7-2.1,1.7C99.1,45.6,98.3,45.3,97.7,44.7z
	 M89.4,42.6c0-1.8,0.8-2.9,2.1-2.9c0.6,0,1.1,0.3,1.4,0.8v-2.8h1.4v7.7h-1.4v-0.7c-0.3,0.5-0.8,0.8-1.4,0.8
	C90.1,45.5,89.4,44.4,89.4,42.6z M90.8,42.6c0,1,0.4,1.7,1.1,1.7c0.4,0,0.8-0.3,1-0.7v-2.1c-0.2-0.4-0.6-0.6-1-0.6
	C91.2,40.9,90.8,41.6,90.8,42.6z M83.7,42.6c-0.2-1.4,0.9-2.7,2.3-2.9c0.1,0,0.1,0,0.2,0c0.7,0,1.3,0.3,1.8,0.8
	c0.4,0.6,0.7,1.4,0.6,2.1v0.4h-3.5c0,0.7,0.6,1.3,1.3,1.3c0,0,0,0,0.1,0c0.5,0,0.9-0.2,1.2-0.6l0.6,0.8c-0.5,0.5-1.2,0.8-2,0.8
	c-1.4,0-2.6-1.2-2.6-2.6C83.7,42.8,83.7,42.7,83.7,42.6L83.7,42.6z M85.1,42.1h2.2c0-0.6-0.3-1.3-1.1-1.3
	C85.4,40.8,85.1,41.5,85.1,42.1L85.1,42.1z M80.6,44.1v-3h-0.7v-1.2h0.7v-1.5H82v1.5h0.9V41H82v2.7c0,0.4,0.1,0.6,0.4,0.6
	c0.2,0,0.3-0.1,0.4-0.2l0.3,1.1c-0.3,0.2-0.7,0.3-1.1,0.3C81.1,45.5,80.6,45,80.6,44.1L80.6,44.1z M74.1,42.6c0-1.8,0.8-2.9,2.1-2.9
	c0.6,0,1.1,0.3,1.4,0.8v-0.7H79v5.5h-1.4v-0.7c-0.3,0.5-0.8,0.8-1.4,0.8C74.9,45.5,74.1,44.4,74.1,42.6L74.1,42.6z M75.6,42.6
	c0,1,0.4,1.7,1.1,1.7c0.4,0,0.8-0.3,1-0.7v-2.1c-0.2-0.4-0.6-0.6-1-0.6C76,40.9,75.6,41.6,75.6,42.6L75.6,42.6z M58.7,42.6
	c-0.2-1.4,0.9-2.7,2.3-2.9c0.1,0,0.1,0,0.2,0c0.7,0,1.3,0.3,1.8,0.8c0.4,0.6,0.6,1.4,0.6,2.1v0.4h-3.5c0,0.7,0.6,1.3,1.3,1.3
	c0,0,0,0,0.1,0c0.5,0,0.9-0.2,1.2-0.6l0.6,0.8c-0.5,0.5-1.2,0.8-2,0.8c-1.4,0-2.6-1.2-2.6-2.6C58.7,42.8,58.7,42.7,58.7,42.6
	L58.7,42.6z M60.1,42.1h2.2c0-0.6-0.3-1.3-1.1-1.3C60.4,40.8,60.1,41.5,60.1,42.1L60.1,42.1z M55.6,44.1v-3h-0.7v-1.2h0.7v-1.5H57
	v1.5h0.9V41H57v2.7c0,0.4,0.1,0.6,0.4,0.6c0.2,0,0.3-0.1,0.4-0.2l0.3,1.1c-0.3,0.2-0.7,0.3-1.1,0.3C56.1,45.5,55.6,45,55.6,44.1
	L55.6,44.1z M19.8,42.6c-0.2-1.4,0.9-2.7,2.3-2.9c0.1,0,0.1,0,0.2,0c0.7,0,1.3,0.3,1.8,0.8c0.4,0.6,0.7,1.4,0.6,2.1v0.4h-3.5
	c0,0.7,0.6,1.3,1.3,1.3c0,0,0,0,0.1,0c0.5,0,0.9-0.2,1.2-0.6l0.6,0.8c-0.5,0.5-1.2,0.8-2,0.8c-1.4,0-2.6-1.2-2.6-2.6
	C19.8,42.8,19.8,42.7,19.8,42.6z M21.2,42.1h2.2c0-0.6-0.3-1.3-1.1-1.3C21.5,40.8,21.2,41.5,21.2,42.1L21.2,42.1z M6.5,44.6
	c-0.9-1.2-0.9-2.9,0-4.1c0.5-0.6,1.2-0.9,1.9-0.9c0.7,0,1.4,0.3,1.9,0.9c0.9,1.2,0.9,2.9,0,4.1c-0.5,0.6-1.2,0.9-1.9,0.9
	C7.6,45.5,6.9,45.2,6.5,44.6z M7.3,42.6c0,0.8,0.3,1.7,1.1,1.7c0.5,0,1.1-0.4,1.1-1.7c0-0.8-0.3-1.7-1.1-1.7S7.3,41.8,7.3,42.6z
	 M133.3,45.4v-3.6c0-0.6-0.3-0.8-0.7-0.8c-0.4,0-0.8,0.3-1,0.7v3.8h-1.4v-5.5h1.4v0.7c0.4-0.5,1-0.8,1.6-0.9
	c0.7-0.1,1.4,0.4,1.5,1.2c0,0.1,0,0.2,0,0.3v4.2H133.3z M122.9,45.4h-1.4v-5.5h1.4L122.9,45.4L122.9,45.4L122.9,45.4z M70.6,45.4
	v-5.5H72v0.8c0.3-0.5,0.9-0.9,1.5-0.9V41c-0.1,0-0.2,0-0.3,0c-0.5,0-0.9,0.3-1.2,0.7v3.7L70.6,45.4z M52.6,45.4v-3.6
	c0-0.6-0.3-0.8-0.7-0.8c-0.4,0-0.8,0.3-1,0.7v3.8h-1.4v-5.5h1.4v0.7c0.4-0.5,1-0.8,1.6-0.9c0.7-0.1,1.4,0.4,1.5,1.2
	c0,0.1,0,0.2,0,0.3v4.2H52.6z M48.1,45.4h-1.4v-5.5h1.4L48.1,45.4L48.1,45.4L48.1,45.4z M35.5,45.4v-3.6c0-0.6-0.3-0.8-0.7-0.8
	c-0.4,0-0.8,0.3-1,0.7v3.8h-1.4v-5.5h1.4v0.7c0.4-0.5,1-0.8,1.6-0.9c0.7-0.1,1.4,0.4,1.5,1.2c0,0.1,0,0.2,0,0.3v4.2H35.5z M31,45.4
	h-1.4v-5.5H31L31,45.4L31,45.4L31,45.4z M25.8,45.4v-5.5h1.4v0.8c0.3-0.5,0.9-0.9,1.5-0.9V41c-0.1,0-0.2,0-0.3,0
	c-0.5,0-0.9,0.3-1.2,0.7v3.7L25.8,45.4z M16.3,45.4l-1-3.8l-1,3.8h-1.4l-1.5-5.5h1.4l0.9,3.8l1-3.8h1.3l1,3.8l0.9-3.8h1.4l-1.5,5.5
	H16.3z M1.6,45.4H0.1v-7.7h2.8c1.3-0.1,2.3,0.9,2.4,2.2c0,0.1,0,0.2,0,0.3c0,0.6-0.2,1.2-0.6,1.7c-0.5,0.5-1.1,0.8-1.8,0.7H1.6
	L1.6,45.4L1.6,45.4z M1.6,41.3h1.1c0.5,0,1-0.4,1-1c0,0,0-0.1,0-0.1c0.1-0.5-0.3-1-0.9-1.1c0,0-0.1,0-0.1,0H1.6L1.6,41.3z
	 M121.4,38.4c0-0.5,0.3-0.8,0.8-0.9s0.8,0.3,0.9,0.8c0,0,0,0,0,0.1c0,0.5-0.4,0.8-0.9,0.8C121.8,39.2,121.4,38.8,121.4,38.4z
	 M46.6,38.4c0-0.5,0.3-0.8,0.8-0.9c0.5,0,0.8,0.3,0.9,0.8c0,0,0,0,0,0.1c0,0.5-0.4,0.8-0.9,0.8C47,39.2,46.6,38.8,46.6,38.4z
	 M29.4,38.4c0-0.5,0.3-0.8,0.8-0.9c0.5,0,0.8,0.3,0.9,0.8c0,0,0,0,0,0.1c0,0.5-0.4,0.8-0.9,0.8C29.8,39.2,29.4,38.8,29.4,38.4z
	 M65.1,29.1c-1.3-1.2-2.3-2.7-2.9-4.4c-0.7-1.8-1.1-3.7-1.1-5.7V19c-0.1-3.6,1.3-7.2,3.7-9.9c2.5-2.7,6-4.2,9.6-4.1
	c2,0,4,0.4,5.8,1.2c1.6,0.7,3,1.9,4.1,3.2c2.2,2.9,3.3,6.5,3.2,10.2v0.1c0,0.6,0,1-0.1,1.5c0,0.1,0,0.3,0,0.4H68.7
	c0.5,3.2,3.4,5.5,6.6,5.3c1.7,0,3.3-0.4,4.7-1.3c0.5-0.3,1.1-0.5,1.7-0.5c0.8,0,1.6,0.3,2.2,0.8l2.4,2.1c-1.2,1.6-2.8,2.8-4.6,3.7
	c-2,0.9-4.2,1.4-6.4,1.3C71.4,33.1,67.8,31.7,65.1,29.1L65.1,29.1z M70.6,12.7c-1.1,1.2-1.7,2.6-2,4.2h11.5
	c-0.5-3.6-2.6-5.7-5.7-5.7C73,11.1,71.6,11.6,70.6,12.7z M118,28.9l1.5-2.4c0.9-1.4,2.8-1.9,4.3-1.1c1.8,1,3.9,1.6,6,1.7
	c2.2,0,3.2-0.8,3.2-2v-0.1c0-1.7-2.6-2.2-5.6-3.1c-3.8-1.1-8.1-2.9-8.1-8.1v-0.1c0-5.5,4.4-8.6,9.9-8.6c3.6,0.1,7.1,1.1,10.1,3.1
	l-1.4,2.5c-0.8,1.4-2.6,2-4.1,1.4c-1.5-0.7-3.1-1.1-4.7-1.2c-1.9,0-2.8,0.8-2.8,1.9v0.1c0,1.5,2.6,2.2,5.5,3.2
	c3.8,1.3,8.2,3.1,8.2,8v0.1c0,6-4.5,8.7-10.3,8.7C125.4,32.9,121.3,31.5,118,28.9L118,28.9z M111.5,32.4c-1.8,0-3.3-1.5-3.3-3.3
	V17.4c0-3.6-1.7-5.5-4.6-5.5s-4.8,1.9-4.8,5.5v15.1h-7.7v-27h7.7v3.8c1.8-2.3,4-4.3,7.9-4.3c5.8,0,9.2,3.8,9.2,10v17.5H111.5z
	 M0.1,32.4l20-31.5c0.2-0.3,0.6-0.5,1-0.5h6.3c1.1,0,2.2,0.6,2.7,1.5L40,17.4c0.3,0.5,0.4,1.1,0.3,1.6c-0.2,1-1.1,1.6-2.1,1.6h-4.4
	L24.9,6.6c0,0-0.1-0.1-0.1,0c0,0,0,0,0,0L9.3,30.9c-0.6,1-1.7,1.6-2.8,1.6L0.1,32.4z M54.6,32.4l-5-8l-4.1,6.4
	c-0.6,0.9-1.6,1.5-2.7,1.5h-6.1l9-14.1L37.5,5.5h7.8l4.2,6.6L52.8,7c0.6-0.9,1.6-1.5,2.7-1.5h6.1l-8.1,12.8l9,14.1H54.6z"/>
<path fill="#35b6b3" d="M38.2,20.7H15.7l11.7,5.6l0,0c1.1,0.5,2.4,0.7,3.6,0.7c4.6-0.1,8.5-3.5,9.2-8C40,20,39.2,20.7,38.2,20.7"/>
</svg>
