<?xml version="1.0" encoding="UTF-8"?><svg id="a" xmlns="http://www.w3.org/2000/svg" viewBox="0 0 283.4 59.6"><defs><style>.b{fill:#676c6e;}.c{fill:#86bc25;}</style></defs><g><path class="b" d="M17.7,24H7.8l-.5,.5v13.6l-.5,.5H.5l-.5-.5V2.7l.5-.5H17.7c7.3,0,12.5,3.7,12.5,11s-5.2,10.8-12.5,10.8Zm0-15.6H7.8l-.5,.5v8.3l.5,.5h9.9c3.1,0,5.2-1,5.2-4.7s-2-4.6-5.2-4.6ZM63.6,24.6c0,9.4-5.2,14.6-14.6,14.6s-14.6-5.2-14.6-14.6V2.7l.5-.5h6.3l.5,.5V24.6c0,5.2,2.1,8.3,7.3,8.3s7.3-3.1,7.3-8.3V2.7l.5-.5h6.3l.5,.5V24.6h0Zm29.8-1.1v.5l6.8,8.9v5.2l-.5,.5h-3.1l-1-.5-10.4-13.6-1-.5h-5.2l-.5,.5v13.6l-.5,.5h-6.3l-.8-.5V2.7l.5-.5h17.2c7.3,0,12.5,3.7,12.5,11,.1,5.6-3.6,9.3-7.7,10.3Zm-4.7-15.1h-9.9l-.5,.5v8.3l.5,.5h9.9c3.1,0,5.2-1,5.2-4.7s-2.1-4.6-5.2-4.6Zm42.7,30.2h-24.5l-.5-.5V2.7l.5-.5h24.5l.5,.5V7.9l-.5,.5h-17.2l-.5,.5v7.3l.5,.5h16.2l.5,.5v5.2l-.5,.5h-16.2l-.5,.5v8.3l.5,.5h17.2l.5,.5v5.2l-.5,.7Zm47.9,.1h-23.5l-.5-.5V2.7l.5-.5h6.3l.5,.5V31.9l.5,.5h16.2l.5,.5v5.2l-.5,.6Zm91.6-14.6h-9.9l-.5,.5v13.6l-.5,.5h-6.3l-.5-.5V2.7l.5-.5h17.2c7.3,0,12.5,3.7,12.5,11s-5.2,10.9-12.5,10.9Zm0-15.7h-9.9l-.5,.5v8.3l.5,.5h9.9c3.1,0,5.2-1,5.2-4.7,.1-3.6-2-4.6-5.2-4.6Z"/><path class="c" d="M248.6,29.8c-2.6,10.7-12.1,18.2-23.1,18.3-2,0-4.1-.2-6.1-.7-6.2-1.5-11.5-5.4-14.9-10.9-3.3-5.4-4.3-11.7-2.9-17.8h0c.4-1.6,.3-3.2-.1-4.7-1.1-4-4.7-6.9-8.8-6.8-5,.1-9,4.3-9,9.5,.1,5.2,4.2,9.3,9.2,9.3,1.1,0,2.2-.3,3.2-.7,.1,2.5,.5,5,1.2,7.3-1.4,.4-2.8,.6-4.2,.6s-2.8-.1-4.2-.5c-8.9-2.2-14.3-11.2-12.1-20.1,1.8-7.5,8.5-12.5,15.9-12.6,1.4,0,2.8,.1,4.2,.5,8.8,2.2,14.2,11,12.2,19.8h0c-2.1,8.8,3.3,17.7,12.2,19.9,1.4,.3,2.8,.5,4.2,.5,7.4-.1,14-5.1,15.9-12.6,2.2-8.9-3.2-17.9-12.1-20.1-1.4-.3-2.8-.5-4.2-.5-4.1,.1-8.1,1.7-11,4.4-.6-2.6-1.6-5-3.1-7.2,4-2.9,8.8-4.7,14-4.7h0c2,0,4.1,.2,6.1,.7,6.2,1.5,11.5,5.4,14.9,10.9,3.1,5.5,4.1,11.9,2.6,18.2Z"/></g><g><path class="b" d="M10.3,59.4h-1.7l-.1-.1v-5.5h-.1l-2.2,5.5-.1,.1h-1.5l-.1-.1-2.2-5.5h-.4v5.5l-.1,.1H.1l-.1-.1v-9.5l.1-.1H2.2l.1,.1,2.8,6.9h.1l2.8-6.9,.1-.1h2.1l.1,.1v9.6Z"/><path class="b" d="M19.7,59.4h-6.6l-.1-.1v-9.5l.1-.1h6.6l.1,.1v1.4l-.1,.1h-4.6l-.1,.1v2l.1,.1h4.3l.1,.1v1.4l-.1,.1h-4.3l-.1,.1v2.2l.1,.1h4.6l.1,.1v1.4l-.1,.4Z"/><path class="b" d="M32.5,59.4h-1.7l-.1-.1v-5.5h-.1l-2.2,5.5-.1,.1h-1.5l-.1-.1-2.2-5.5h-.1v5.5l-.1,.1h-1.7l-.1-.1v-9.5l.1-.1h2.1l.1,.1,2.8,6.9h.1l2.8-6.9,.1-.1h2.1l.1,.1v9.5l-.3,.1Z"/><path class="b" d="M40.1,59.4h-4.8l-.1-.1v-9.5l.1-.1h4.5c1.4,0,2.8,.7,2.8,2.5,0,1-.4,1.8-1.4,2.1v.1c1.1,.3,1.7,1.1,1.7,2.4,0,1.9-1.4,2.6-2.8,2.6Zm-.6-8.1h-2.2l-.1,.1v2l.1,.1h2.2c.8,0,1.1-.6,1.1-1.1,.1-.7-.2-1.1-1.1-1.1Zm0,3.9h-2.2l-.1,.1v2.2l.1,.1h2.2c1,0,1.4-.4,1.4-1.3,0-.7-.4-1.1-1.4-1.1Z"/><path class="b" d="M51.6,59.4h-6.6l-.1-.1v-9.5l.1-.1h6.6l.1,.1v1.4l-.1,.1h-4.6l-.1,.1v2l.1,.1h4.3l.1,.1v1.4l-.1,.1h-4.3l-.1,.1v2.2l.1,.1h4.6l.1,.1v1.4l-.1,.4Z"/><path class="b" d="M60,55.4v.1l1.8,2.4v1.4l-.1,.1h-.8l-.3-.1-2.8-3.6-.3-.1h-1.4l-.1,.1v3.6l-.1,.1h-1.7l-.1-.1v-9.5l.1-.1h4.6c2,0,3.4,1,3.4,2.9-.1,1.5-1,2.5-2.2,2.8Zm-1.2-4.1h-2.7l-.1,.1v2.2l.1,.1h2.7c.8,0,1.4-.3,1.4-1.3s-.6-1.1-1.4-1.1Z"/><path class="b" d="M72.3,59.6c-2.9,0-4.8-2.1-4.8-5s1.8-5,4.8-5,4.8,2.1,4.8,5c-.1,2.9-1.9,5-4.8,5Zm0-8.4c-1.8,0-2.8,1.4-2.8,3.4s1,3.4,2.8,3.4,2.8-1.4,2.8-3.4c0-2-1-3.4-2.8-3.4Z"/><path class="b" d="M85.5,51.3h-4.3l-.1,.1v2.1l.1,.1h4.1l.1,.1v1.4l-.1,.1h-4.1l-.1,.1v3.8l-.1,.1h-1.7l-.1-.1v-9.5l.1-.1h6.3l.1,.1v1.4l-.2,.3Z"/><path class="b" d="M98.3,59.4h-6.6l-.1-.1v-9.5l.1-.1h6.6l.1,.1v1.4l-.1,.1h-4.6l-.1,.1v2l.1,.1h4.3l.1,.1v1.4l-.1,.1h-4.3l-.1,.1v2.2l.1,.1h4.6l.1,.1v1.4l-.1,.4Z"/><path class="b" d="M106.7,55.4v.1l1.8,2.4v1.4l-.1,.1h-.8l-.3-.1-2.8-3.6-.3-.1h-1.4l-.1,.1v3.6l-.1,.1h-1.7l-.1-.1v-9.5l.1-.1h4.6c2,0,3.4,1,3.4,2.9-.1,1.5-1.1,2.5-2.2,2.8Zm-1.3-4.1h-2.7l-.1,.1v2.2l.1,.1h2.7c.8,0,1.4-.3,1.4-1.3s-.5-1.1-1.4-1.1Z"/><path class="b" d="M117.5,59.4h-6.6l-.1-.1v-9.5l.1-.1h6.6l.1,.1v1.4l-.1,.1h-4.6l-.1,.1v2l.1,.1h4.3l.1,.1v1.4l-.1,.1h-4.3l-.1,.1v2.2l.1,.1h4.6l.1,.1v1.4l-.1,.4Z"/><path class="b" d="M130.3,59.4h-1.7l-.1-.1v-5.5h-.1l-2.2,5.5-.1,.1h-1.5l-.1-.1-2.2-5.5h-.4v5.5l-.1,.1h-1.7l-.1-.1v-9.5l.1-.1h2.1l.1,.1,2.8,6.9h.1l2.8-6.9,.1-.1h2.1l.1,.1v9.6Z"/><path class="b" d="M140.5,59.4h-1.3l-.1-.1-.7-1.8-.3-.1h-3.5l-.3,.1-.7,1.8-.1,.1h-1.3l-.1-.1v-1.4l3.2-8.1,.1-.1h1.8l.1,.1,3.2,8.1v1.5Zm-4.1-7.3h-.1l-1.3,3.4,.1,.1h2.4l.1-.1-1.2-3.4Z"/><path class="b" d="M154.6,59.4h-1.3l-.1-.1-.1-.7h-.2c-.3,.3-1,1-2.5,1-2.8,0-4.6-2.1-4.6-5s1.8-5,4.8-5c2.8,0,3.9,1.5,4.2,2.9l-.1,.1h-1.8l-.1-.1c-.3-.6-.7-1.3-2.2-1.3-1.8,0-2.8,1.4-2.8,3.4s1,3.4,2.8,3.4c1.5,0,2.2-.8,2.2-2l-.1-.1h-2.4l-.1-.1v-1.4l.1-.1h4.3l.1,.1v5h-.1Z"/><path class="b" d="M163,55.4v.1l1.8,2.4v1.4l-.1,.1h-.8l-.3-.1-2.8-3.6-.3-.1h-1.4l-.1,.1v3.6l-.1,.1h-1.7l-.1-.1v-9.5l.1-.1h4.6c2,0,3.4,1,3.4,2.9-.1,1.5-1.1,2.5-2.2,2.8Zm-1.3-4.1h-2.7l-.1,.1v2.2l.1,.1h2.7c.8,0,1.4-.3,1.4-1.3s-.5-1.1-1.4-1.1Z"/><path class="b" d="M171.3,59.6c-2.9,0-4.8-2.1-4.8-5s1.8-5,4.8-5,4.8,2.1,4.8,5c-.1,2.9-1.9,5-4.8,5Zm0-8.4c-1.8,0-2.8,1.4-2.8,3.4s1,3.4,2.8,3.4,2.8-1.4,2.8-3.4-1-3.4-2.8-3.4Z"/><path class="b" d="M185.9,55.6c0,2.5-1.4,3.9-3.9,3.9s-3.9-1.4-3.9-3.9v-5.9l.1-.1h1.7l.1,.1v5.9c0,1.4,.6,2.2,2,2.2s2-.8,2-2.2v-5.9l.1-.1h1.7l.1,.1v5.9h0Z"/><path class="b" d="M193.2,55.5h-2.7l-.1,.1v3.6l-.1,.1h-1.7l-.1-.1v-9.5l.1-.1h4.6c2,0,3.4,1,3.4,2.9s-1.5,3-3.4,3Zm0-4.2h-2.7l-.1,.1v2.2l.1,.1h2.7c.8,0,1.4-.3,1.4-1.3s-.6-1.1-1.4-1.1Z"/></g></svg>