<?xml version="1.0" encoding="UTF-8"?> <svg xmlns="http://www.w3.org/2000/svg" id="Layer_1" viewBox="0 0 508.67 258.5"><defs><style>.cls-1{fill:#231f20;}.cls-2{fill:#ed1f24;}</style></defs><polygon class="cls-2" points="95.45 0 64.32 53.99 95.45 107.94 126.57 53.99 95.45 0 95.45 0"></polygon><polygon class="cls-2" points="157.7 107.94 188.85 161.9 126.56 161.9 95.45 107.94 157.7 107.94 157.7 107.94"></polygon><polygon class="cls-2" points="33.19 107.94 2.05 161.9 64.33 161.9 95.45 107.94 33.19 107.94 33.19 107.94"></polygon><polygon points="235.46 46.93 248.21 16.21 254.08 16.21 254.08 53.99 250.24 53.99 250.24 21.3 250.12 21.3 236.47 53.99 234.45 53.99 220.81 21.3 220.69 21.3 220.69 53.99 216.86 53.99 216.86 16.21 222.73 16.21 235.46 46.93 235.46 46.93"></polygon><polygon points="262.45 53.99 266.28 53.99 266.28 16.21 262.45 16.21 262.45 53.99 262.45 53.99"></polygon><polygon points="286.23 53.99 282.39 53.99 282.39 19.73 269.76 19.73 269.76 16.21 298.87 16.21 298.87 19.73 286.23 19.73 286.23 53.99 286.23 53.99"></polygon><path d="M320.36,22.45c-1.66-2.46-4.11-3.68-7.32-3.68-3.95,0-8.04,2.08-8.04,6.81,0,10.22,19.34,4.81,19.34,18.42,0,6.9-6.44,10.94-12.42,10.94-4.57,0-9.01-1.67-11.88-5.6l3.46-2.52c1.59,2.79,4.64,4.59,8.59,4.59s8.1-2.44,8.1-6.86c0-10.66-19.35-4.75-19.35-18.58,0-7.31,6.08-10.74,12.2-10.74,4.29,0,7.68,1.19,10.67,4.62l-3.35,2.6h0Z"></path><path d="M357.78,39.87c0,6.3-2.51,15.07-13.81,15.07s-13.8-8.77-13.8-15.07v-23.66h3.83v23.27c0,10.88,7.1,11.92,9.97,11.92s9.98-1.04,9.98-11.92v-23.27h3.83v23.66h0Z"></path><path d="M369.84,50.45h7.34c5.56,0,9.93-2.19,9.93-7.15s-3.31-7.34-9.44-7.34h-7.82v14.49h0ZM369.84,32.75h7.72c3.68,0,7.68-1.77,7.68-6.62,0-1.56-.81-6.4-8.06-6.4h-7.34v13.02h0ZM365.99,16.2h11.25c6.24,0,12.17,2.36,12.17,9.5,0,4.1-2.45,7.31-6.66,8.28v.07c5.26.45,8.52,3.97,8.52,9.46,0,2.47-1.59,10.48-13.75,10.48h-11.52V16.2h-.01Z"></path><polygon points="401.56 53.99 397.72 53.99 397.72 16.21 401.56 16.21 401.56 53.99 401.56 53.99"></polygon><path d="M428.05,22.45c-1.65-2.46-4.09-3.68-7.29-3.68-3.94,0-8.04,2.08-8.04,6.81,0,10.22,19.35,4.81,19.35,18.42,0,6.9-6.46,10.94-12.44,10.94-4.58,0-9-1.67-11.89-5.6l3.48-2.52c1.58,2.79,4.64,4.59,8.57,4.59s8.11-2.44,8.11-6.86c0-10.66-19.36-4.75-19.36-18.58,0-7.31,6.09-10.74,12.22-10.74,4.25,0,7.68,1.19,10.66,4.62l-3.37,2.6h0Z"></path><polygon points="437.98 16.21 441.82 16.21 441.82 32.58 462.4 32.58 462.4 16.21 466.24 16.21 466.24 53.99 462.4 53.99 462.4 36.1 441.82 36.1 441.82 53.99 437.98 53.99 437.98 16.21 437.98 16.21"></polygon><polygon points="478.45 53.99 474.61 53.99 474.61 16.21 478.45 16.21 478.45 53.99 478.45 53.99"></polygon><path d="M247.4,101.97c-2.51,3.92-7.73,6.93-13.96,6.93-11.25,0-19.68-8.37-19.68-19.84s8.43-19.85,19.68-19.85c4.69,0,9.76,1.76,13.07,6l-3.36,2.49c-1.5-2.47-5.72-4.97-9.71-4.97-9.72,0-15.52,7.64-15.52,16.33s5.8,16.34,15.52,16.34c3.94,0,7.99-1.29,10.81-5.67l3.15,2.24h0Z"></path><polygon points="251.73 70.18 255.56 70.18 255.56 86.56 276.13 86.56 276.13 70.18 279.98 70.18 279.98 107.94 276.13 107.94 276.13 90.08 255.56 90.08 255.56 107.94 251.73 107.94 251.73 70.18 251.73 70.18"></polygon><polygon points="292.2 104.43 312.4 104.43 312.4 107.94 288.36 107.94 288.36 70.18 311.77 70.18 311.77 73.69 292.2 73.69 292.2 86.56 310.48 86.56 310.48 90.08 292.2 90.08 292.2 104.43 292.2 104.43"></polygon><polygon points="336.45 100.89 349.2 70.18 355.07 70.18 355.07 107.94 351.22 107.94 351.22 75.28 351.12 75.28 337.47 107.94 335.43 107.94 321.78 75.28 321.67 75.28 321.67 107.94 317.84 107.94 317.84 70.18 323.7 70.18 336.45 100.89 336.45 100.89"></polygon><polygon points="367.28 107.94 363.42 107.94 363.42 70.18 367.28 70.18 367.28 107.94 367.28 107.94"></polygon><path d="M406.74,101.97c-2.51,3.92-7.73,6.93-13.97,6.93-11.25,0-19.68-8.37-19.68-19.84s8.43-19.85,19.68-19.85c4.7,0,9.75,1.76,13.05,6l-3.36,2.49c-1.48-2.47-5.69-4.97-9.69-4.97-9.71,0-15.53,7.64-15.53,16.33s5.82,16.34,15.53,16.34c3.93,0,7.99-1.29,10.82-5.67l3.16,2.24h-.01Z"></path><path d="M417.07,94.51h16.37l-8.14-19.86-8.22,19.86h-.01ZM411.47,107.95h-4.48l16.42-37.77h3.73l16.41,37.77h-4.47l-4.16-9.92h-19.3l-4.15,9.92h0Z"></path><polygon points="451.45 104.43 469.06 104.43 469.06 107.94 447.63 107.94 447.63 70.18 451.45 70.18 451.45 104.43 451.45 104.43"></polygon><path d="M244.2,131.07c-2.55-2.72-6.12-4.39-10.76-4.39-9.72,0-15.52,7.63-15.52,16.34s5.81,16.32,15.52,16.32c3.89,0,7.62-1.04,10.44-2.67v-12.64h-9.01v-3.53h12.86v18.52c-4.2,2.52-9.7,3.84-14.28,3.84-11.25,0-19.68-8.39-19.68-19.85s8.43-19.84,19.68-19.84c5.97,0,10.28,1.7,13.65,5.05l-2.89,2.84h0Z"></path><path d="M259.23,140.81h6.82c6.89,0,9.22-2.98,9.22-6.59s-2.33-6.57-9.22-6.57h-6.82v13.16h0ZM259.23,161.91h-3.84v-37.8h11.63c7.68,0,12.42,3.33,12.42,10.11,0,5.22-3.47,9.21-9.64,9.76l10.87,17.93h-4.7l-10.33-17.57h-6.41v17.57h0Z"></path><path d="M302.96,126.68c-9.73,0-15.53,7.63-15.53,16.34s5.81,16.32,15.53,16.32,15.5-7.63,15.5-16.32-5.79-16.34-15.5-16.34M302.96,162.86c-11.26,0-19.68-8.39-19.68-19.85s8.42-19.84,19.68-19.84,19.66,8.37,19.66,19.84-8.42,19.85-19.66,19.85"></path><path d="M355.68,147.81c0,6.28-2.49,15.05-13.81,15.05s-13.81-8.77-13.81-15.05v-23.7h3.85v23.25c0,10.93,7.08,11.98,9.96,11.98s9.97-1.05,9.97-11.98v-23.25h3.84v23.7h0Z"></path><path d="M367.28,140.81h6.17c6.88,0,9.23-2.98,9.23-6.59s-2.35-6.57-9.23-6.57h-6.17v13.16h0ZM363.43,124.11h11c7.68,0,12.42,3.33,12.42,10.11s-4.74,10.11-12.42,10.11h-7.14v17.57h-3.85v-37.8h0Z"></path><path class="cls-1" d="M0,223.12h4.77l8.72,21.96,8.44-21.96h4.73v28.2h-3.43v-23.74l-9.35,23.74h-1.06l-9.66-23.74v23.74H0v-28.2h0Z"></path><path class="cls-1" d="M33.01,224.23c0-1.18.99-2.17,2.17-2.17s2.17.99,2.17,2.17-.99,2.17-2.17,2.17-2.17-.99-2.17-2.17ZM33.6,230.7h3.27v20.62h-3.27v-20.62Z"></path><path class="cls-1" d="M44.28,246.15v-12.7h-2.96v-2.76h2.96v-4.69h3.27v4.69h4.81v2.76h-4.81v12.38c0,2.01.91,3,2.56,3,1.03,0,1.81-.16,2.52-.43v2.76c-.67.24-1.46.43-2.8.43-3.75,0-5.56-2.21-5.56-5.44h0Z"></path><path class="cls-1" d="M55.88,244.97h3.19c.24,2.44,1.54,3.98,4.85,3.98,3.12,0,4.5-1.06,4.5-3.27s-1.62-2.88-4.81-3.47c-5.36-.99-7.18-2.48-7.18-6.07,0-3.83,3.75-5.8,6.98-5.8,3.71,0,6.9,1.5,7.45,5.95h-3.15c-.47-2.25-1.73-3.23-4.34-3.23-2.37,0-3.9,1.18-3.9,2.96s1.03,2.6,4.81,3.27c4.26.79,7.26,1.74,7.26,6.11,0,3.75-2.56,6.27-7.57,6.27s-7.89-2.48-8.08-6.7h-.01Z"></path><path class="cls-1" d="M76.31,243.75v-13.05h3.27v12.89c0,3.63,1.54,5.24,4.77,5.24,2.92,0,5.68-1.93,5.68-5.64v-12.5h3.27v20.62h-3.27v-3.27c-.95,1.93-3.23,3.63-6.55,3.63-4.1,0-7.18-2.25-7.18-7.93h0Z"></path><path class="cls-1" d="M103.2,247.93v3.39h-3.27v-30.48h3.27v13.33c1.18-2.01,3.98-3.83,6.98-3.83,5.4,0,9.39,3.94,9.39,10.37v.32c0,6.31-3.71,10.65-9.39,10.65-3.35,0-5.8-1.7-6.98-3.75ZM116.17,241.18v-.32c0-5.21-2.88-7.81-6.35-7.81-3.83,0-6.74,2.52-6.74,7.81v.32c0,5.28,2.76,7.77,6.78,7.77s6.31-2.76,6.31-7.77h0Z"></path><path class="cls-1" d="M124.14,224.23c0-1.18.99-2.17,2.17-2.17s2.17.99,2.17,2.17-.99,2.17-2.17,2.17-2.17-.99-2.17-2.17ZM124.73,230.7h3.27v20.62h-3.27v-20.62Z"></path><path class="cls-1" d="M133.01,244.97h3.19c.24,2.44,1.54,3.98,4.85,3.98,3.12,0,4.5-1.06,4.5-3.27s-1.62-2.88-4.81-3.47c-5.36-.99-7.18-2.48-7.18-6.07,0-3.83,3.75-5.8,6.98-5.8,3.71,0,6.9,1.5,7.45,5.95h-3.15c-.47-2.25-1.73-3.23-4.34-3.23-2.37,0-3.9,1.18-3.9,2.96s1.03,2.6,4.81,3.27c4.26.79,7.26,1.74,7.26,6.11,0,3.75-2.56,6.27-7.57,6.27s-7.89-2.48-8.08-6.7h-.01Z"></path><path class="cls-1" d="M153.64,220.84h3.27v13.13c.95-1.93,3.23-3.63,6.63-3.63,4.26,0,7.26,2.33,7.26,8.32v12.66h-3.27v-12.89c0-3.63-1.54-5.24-4.85-5.24-3.04,0-5.76,1.93-5.76,5.64v12.5h-3.27v-30.48h-.01Z"></path><path class="cls-1" d="M176.7,224.23c0-1.18.99-2.17,2.17-2.17s2.17.99,2.17,2.17-.99,2.17-2.17,2.17-2.17-.99-2.17-2.17ZM177.3,230.7h3.27v20.62h-3.27v-20.62Z"></path><path class="cls-1" d="M196.58,237.4v-.32c0-8.36,5.6-14.39,13.25-14.39,5.88,0,10.84,3.12,11.44,9.23h-3.39c-.71-4.3-3.19-6.51-8-6.51-5.84,0-9.74,4.54-9.74,11.63v.32c0,7.18,3.63,11.51,9.7,11.51,4.61,0,7.81-2.33,8.52-6.9h3.19c-.99,6.51-5.48,9.7-11.79,9.7-8.16,0-13.17-5.6-13.17-14.27h0Z"></path><path class="cls-1" d="M226.51,220.84h3.27v13.13c.95-1.93,3.23-3.63,6.63-3.63,4.26,0,7.26,2.33,7.26,8.32v12.66h-3.27v-12.89c0-3.63-1.54-5.24-4.85-5.24-3.04,0-5.76,1.93-5.76,5.64v12.5h-3.27v-30.48h-.01Z"></path><path class="cls-1" d="M248.56,241.22v-.32c0-6.23,3.98-10.57,9.66-10.57,4.77,0,9.27,2.88,9.27,10.25v1.06h-15.54c.16,4.69,2.41,7.3,6.63,7.3,3.19,0,5.05-1.18,5.48-3.59h3.27c-.71,4.14-4.14,6.31-8.79,6.31-5.84,0-9.98-4.1-9.98-10.45h0ZM264.13,239.02c-.32-4.26-2.52-5.95-5.91-5.95s-5.6,2.29-6.15,5.95h12.07-.01Z"></path><path class="cls-1" d="M272.49,230.7h3.27v3.15c.95-1.93,3.19-3.51,6.15-3.51,2.64,0,4.97,1.1,6.03,3.86,1.42-2.68,4.5-3.86,7.06-3.86,3.71,0,6.94,2.21,6.94,8.2v12.78h-3.27v-13.01c0-3.63-1.54-5.13-4.38-5.13-2.68,0-5.44,1.81-5.44,5.52v12.62h-3.27v-13.01c0-3.63-1.54-5.13-4.38-5.13-2.68,0-5.44,1.81-5.44,5.52v12.62h-3.27v-20.62Z"></path><path class="cls-1" d="M307.86,224.23c0-1.18.99-2.17,2.17-2.17s2.17.99,2.17,2.17-.99,2.17-2.17,2.17-2.17-.99-2.17-2.17ZM308.46,230.7h3.27v20.62h-3.27v-20.62Z"></path><path class="cls-1" d="M316.89,241.22v-.32c0-6.31,4.5-10.57,10.02-10.57,4.3,0,8.32,1.97,8.95,7.22h-3.23c-.51-3.27-2.88-4.5-5.72-4.5-3.75,0-6.63,3-6.63,7.85v.32c0,5.05,2.76,7.73,6.74,7.73,2.92,0,5.56-1.7,5.92-5.05h3.04c-.43,4.46-4.02,7.77-8.99,7.77-5.76,0-10.1-4.06-10.1-10.45Z"></path><path class="cls-1" d="M339.21,245.6c0-4.77,5.05-6.39,10.33-6.39h2.96v-1.5c0-3.27-1.26-4.65-4.42-4.65-2.84,0-4.42,1.18-4.73,3.71h-3.27c.43-4.69,4.18-6.43,8.16-6.43s7.53,1.62,7.53,7.37v13.61h-3.27v-2.6c-1.54,1.93-3.39,2.96-6.43,2.96-3.83,0-6.86-1.85-6.86-6.07h0ZM352.5,244.1v-2.56h-2.84c-4.14,0-7.18,1.03-7.18,4.06,0,2.13,1.03,3.47,3.9,3.47,3.47,0,6.11-1.77,6.11-4.97h.01Z"></path><path class="cls-1" d="M362.28,220.84h3.31v30.48h-3.31v-30.48Z"></path><path class="cls-1" d="M382.99,223.12h16.44v2.8h-13.01v9.58h10.49v2.8h-10.49v10.21h13.72v2.8h-17.15v-28.2h0Z"></path><path class="cls-1" d="M404.87,243.75v-13.05h3.27v12.89c0,3.63,1.54,5.24,4.77,5.24,2.92,0,5.68-1.93,5.68-5.64v-12.5h3.27v20.62h-3.27v-3.27c-.95,1.93-3.23,3.63-6.55,3.63-4.1,0-7.18-2.25-7.18-7.93h0Z"></path><path class="cls-1" d="M428.5,230.7h3.27v3.71c1.3-2.33,3.08-3.94,6.78-4.06v3.08c-4.14.2-6.78,1.5-6.78,6.59v11.32h-3.27v-20.64Z"></path><path class="cls-1" d="M441.19,241.18v-.32c0-6.19,4.3-10.53,10.13-10.53s10.13,4.3,10.13,10.49v.32c0,6.23-4.3,10.53-10.17,10.53s-10.1-4.46-10.1-10.49h0ZM458.07,241.18v-.28c0-4.77-2.64-7.85-6.74-7.85s-6.74,3.08-6.74,7.81v.32c0,4.69,2.56,7.77,6.74,7.77s6.74-3.11,6.74-7.77Z"></path><path class="cls-1" d="M466.55,230.7h3.27v3.47c1.18-2.01,3.98-3.83,6.98-3.83,5.4,0,9.39,3.94,9.39,10.37v.32c0,6.31-3.71,10.65-9.39,10.65-3.39,0-5.8-1.7-6.98-3.75v10.57h-3.27v-27.8ZM482.8,241.18v-.32c0-5.21-2.88-7.81-6.35-7.81-3.83,0-6.74,2.52-6.74,7.81v.32c0,5.28,2.76,7.77,6.78,7.77s6.31-2.76,6.31-7.77h0Z"></path><path class="cls-1" d="M489.74,241.22v-.32c0-6.23,3.98-10.57,9.66-10.57,4.77,0,9.27,2.88,9.27,10.25v1.06h-15.54c.16,4.69,2.41,7.3,6.62,7.3,3.19,0,5.05-1.18,5.48-3.59h3.27c-.71,4.14-4.14,6.31-8.79,6.31-5.84,0-9.98-4.1-9.98-10.45h0ZM505.31,239.02c-.32-4.26-2.52-5.95-5.92-5.95s-5.6,2.29-6.15,5.95h12.07Z"></path></svg> 