<?xml version="1.0" encoding="utf-8"?>
<!-- Generator: Adobe Illustrator 26.5.0, SVG Export Plug-In . SVG Version: 6.00 Build 0)  -->
<svg version="1.1" id="Ebene_1" xmlns="http://www.w3.org/2000/svg" xmlns:xlink="http://www.w3.org/1999/xlink" x="0px" y="0px"
	 viewBox="0 0 603.9 246.9" style="enable-background:new 0 0 603.9 246.9;" xml:space="preserve">
<style type="text/css">
	.st0{fill:#1D1D1B;}
	.st1{fill:#C30045;}
	.st2{fill:#FFFFFF;}
</style>
<g>
	<path class="st0" d="M147.6,83.5h-22.2l-17,68.7L88.5,83.5H72.6l-19.9,68.7L35.9,83.5H13.7l29.1,109h17.8l20.1-66.1l20.1,66.1h17.8
		L147.6,83.5L147.6,83.5z M211.6,158.8v-8.9c0-21.9-12.5-38.1-34.7-38.1c-20.7,0-34.7,14.7-34.7,40.7c0,32.3,18.1,40.9,36.9,40.9
		c14.4,0,22.2-4.4,30.3-12.6L197.3,169c-5.1,5-9.3,7.5-18.1,7.5c-11.2,0-17.4-7.5-17.4-17.8L211.6,158.8L211.6,158.8z M192,145.2
		h-30.3c0.2-3.5,0.6-5.7,1.8-8.6c2.1-4.7,6.6-8.3,13.3-8.3c6.7,0,11.2,3.5,13.3,8.3C191.4,139.5,191.8,141.6,192,145.2L192,145.2z"
		/>
	<path class="st0" d="M498,99.7V83.6h-20.2v16.1H498L498,99.7z M497.9,192.3v-79.1h-19.7v79.1H497.9L497.9,192.3z M550.9,192.3
		v-16.7h-7.2c-4.7,0-6.8-2.6-6.8-7.1v-37.9h14v-15h-14V92.2h-19.7v23.4h-8.3v15h8.3v39.1c0,11.2,6.8,22.6,22.9,22.6H550.9
		L550.9,192.3z M589.9,192.3v-22.5h-22.6v22.5H589.9L589.9,192.3z"/>
	<path class="st1" d="M340.4,234.5c61.7,0,111.8-50,111.8-111.8s-50-111.8-111.8-111.8C278.7,11,228.7,61,228.7,122.7
		S278.7,234.5,340.4,234.5L340.4,234.5z"/>
	<path class="st2" d="M441.7,83.8h-30.8L389.6,154l-19.5-70.2h-3.7h-23v40.7c0,8.7-3.9,13.5-11,13.5c-6.5,0-10.5-5-10.5-13.6V83.7
		H296v48.2c0,20.4,19.9,28.5,35,28.5c11.9,0,22.3-5.4,28.7-13.2l15,44.9h30L441.7,83.8L441.7,83.8z M334.2,166.1h-44.1V83.8h-31.3
		v108.5h84.4L334.2,166.1L334.2,166.1z"/>
</g>
</svg>
