<?xml version="1.0" encoding="utf-8"?>
<!-- Generator: Adobe Illustrator 16.0.0, SVG Export Plug-In . SVG Version: 6.00 Build 0)  -->
<!DOCTYPE svg PUBLIC "-//W3C//DTD SVG 1.1//EN" "http://www.w3.org/Graphics/SVG/1.1/DTD/svg11.dtd">
<svg version="1.1" id="Layer_1" xmlns="http://www.w3.org/2000/svg" xmlns:xlink="http://www.w3.org/1999/xlink" x="0px" y="0px"
	 width="1626px" height="431px" viewBox="0 0 1626 431" enable-background="new 0 0 1626 431" xml:space="preserve">
<path fill-rule="evenodd" clip-rule="evenodd" fill="#018FD4" d="M330.298,74.002c0.104,0.818,0.298,1.638,0.298,2.457
	c-0.022,94.181-0.06,188.36-0.096,282.541c-35,0-70,0-105,0c0-24.968,0-49.937,0-76.024c-1.305,1.526-1.759,1.99-2.137,2.509
	c-17.325,23.77-34.648,47.54-51.945,71.33c-0.452,0.622-0.618,1.452-0.918,2.186c-0.333,0-0.667,0-1,0
	c-18.018-24.751-36.035-49.502-54.076-74.236c-0.113-0.154-0.559-0.065-1.273-0.127c0,8.827-0.039,17.623,0.009,26.418
	c0.086,15.982,0.224,31.964,0.341,47.945c-35.333,0-70.667,0-106,0c0.071-1.99,0.204-3.98,0.204-5.971
	C8.696,261.843,8.677,170.655,8.651,79.468c0-2.156-0.098-4.312-0.151-6.468c37,0,74,0,111,0
	c16.614,25.785,33.228,51.57,50.242,77.977c4.928-7.614,9.396-14.55,13.895-21.464c12.044-18.507,24.103-37.006,36.156-55.508
	C256.628,74.004,293.463,74.003,330.298,74.002z"/>
<path fill-rule="evenodd" clip-rule="evenodd" fill="#018FD4" d="M219.792,74.005c-0.098-0.335-0.195-0.67-0.292-1.005
	c37,0,74,0,111,0c-0.067,0.334-0.135,0.668-0.202,1.002C293.463,74.003,256.628,74.004,219.792,74.005z"/>
<path fill-rule="evenodd" clip-rule="evenodd" fill="#018FD4" d="M974.213,301.706c2.94-12.194,5.597-23.147,8.222-34.108
	c4.996-20.861,10.064-41.707,14.863-62.613c0.747-3.258,1.937-4.295,5.239-4.271c19.828,0.142,39.658,0.148,59.486-0.005
	c3.428-0.026,4.497,0.836,4.488,4.396c-0.115,49.656-0.097,99.313-0.03,148.969c0.004,2.794-0.345,4.188-3.712,4.121
	c-10.993-0.218-21.995-0.194-32.99-0.012c-3.174,0.053-3.881-1.064-3.875-4.022c0.082-39.741,0.055-79.483,0.055-119.23
	c-1.884,1.168-1.653,3.422-2.145,5.192c-10.485,37.812-20.923,75.638-31.192,113.509c-0.954,3.521-2.377,4.675-6.03,4.577
	c-10.157-0.271-20.332-0.277-30.488,0.005c-3.526,0.099-4.806-1.055-5.709-4.354c-10.232-37.363-20.623-74.684-30.986-112.011
	c-0.612-2.206-1.358-4.374-2.746-6.528c0,1.673,0,3.347,0,5.02c0,37.659-0.067,75.318,0.098,112.977
	c0.018,4.028-1.154,4.995-4.998,4.886c-9.491-0.269-18.995-0.183-28.491-0.03c-2.847,0.046-3.673-0.854-3.669-3.688
	c0.076-49.989,0.086-99.979-0.016-149.969c-0.006-3.299,1.27-3.796,4.116-3.782c19.995,0.096,39.992,0.132,59.987-0.028
	c3.379-0.027,4.455,1.218,5.251,4.316c7.734,30.114,15.647,60.184,23.515,90.265C972.902,296.995,973.387,298.694,974.213,301.706z"
	/>
<path fill-rule="evenodd" clip-rule="evenodd" fill="#018FD4" d="M585.585,235.227c-2.69,9.683-5.399,19.359-8.068,29.048
	c-8.168,29.65-16.388,59.287-24.395,88.981c-0.985,3.655-2.362,5.09-6.326,4.96c-9.653-0.318-19.332-0.354-28.982,0.009
	c-4.393,0.165-6.22-1.023-7.427-5.466c-10.418-38.341-21.144-76.598-31.768-114.882c-0.305-1.096-0.259-2.324-1.579-3.287
	c0,39.205,0.014,78.217-0.013,117.229c-0.005,7.26,0.747,6.231-6.464,6.279c-8.83,0.06-17.663-0.116-26.489,0.084
	c-3.104,0.071-3.92-0.891-3.915-3.939c0.088-49.815,0.097-99.631-0.013-149.445c-0.007-3.44,1.221-4.088,4.313-4.07
	c19.659,0.115,39.321,0.202,58.977-0.059c4.131-0.055,5.212,1.59,6.119,5.125c7.848,30.596,15.883,61.144,23.865,91.704
	c0.198,0.757,0.049,1.687,1.593,2.363c2.149-8.845,4.306-17.575,6.39-26.322c5.433-22.805,10.897-45.603,16.178-68.442
	c0.777-3.36,2.102-4.442,5.635-4.406c19.658,0.199,39.319,0.169,58.978,0.023c3.349-0.024,4.558,0.68,4.549,4.326
	c-0.122,49.648-0.111,99.297-0.017,148.945c0.007,3.218-0.811,4.27-4.134,4.203c-10.492-0.206-20.997-0.285-31.484,0.029
	c-4.096,0.123-4.861-1.258-4.849-5.034c0.134-37.652,0.081-75.306,0.081-112.959c0-1.61,0-3.221,0-4.831
	C586.088,235.337,585.836,235.281,585.585,235.227z"/>
<path fill-rule="evenodd" clip-rule="evenodd" fill="#018FD4" d="M1616.178,358.112c-15.46,0-30.614-0.06-45.767,0.06
	c-2.437,0.02-3.087-1.279-3.718-3.096c-2.726-7.854-5.63-15.648-8.173-23.561c-1.015-3.155-2.396-4.437-5.941-4.395
	c-17.827,0.21-35.659,0.172-53.488,0.023c-3.043-0.025-4.425,0.994-5.35,3.813c-2.589,7.897-5.522,15.683-8.156,23.566
	c-0.834,2.498-1.864,3.726-4.841,3.675c-11.994-0.205-23.995-0.181-35.991-0.026c-3.534,0.046-3.779-0.973-2.602-4.009
	c19.428-50.066,38.784-100.161,58.054-150.289c0.971-2.524,2.32-3.149,4.8-3.135c15.33,0.088,30.661,0.085,45.991,0.003
	c2.453-0.014,3.84,0.559,4.836,3.095c19.988,50.92,40.087,101.797,60.153,152.686
	C1616.099,356.811,1616.068,357.156,1616.178,358.112z M1525.855,233.293c-6.778,20.302-13.531,40.567-20.319,60.822
	c-1.131,3.372,1.104,2.997,3.128,2.996c10.998-0.009,21.999-0.133,32.994,0.067c3.798,0.069,4.435-0.851,3.288-4.499
	c-5.883-18.716-11.506-37.513-17.228-56.278C1527.393,235.334,1527.538,234.005,1525.855,233.293z"/>
<path fill-rule="evenodd" clip-rule="evenodd" fill="#018FD4" d="M665.553,358.112c6.578-17.079,12.887-33.5,19.226-49.909
	c13.236-34.264,26.542-68.501,39.655-102.812c1.334-3.49,2.97-4.772,6.792-4.709c14.821,0.246,29.648,0.164,44.473,0.043
	c2.719-0.021,4.073,0.727,5.123,3.397c19.754,50.276,39.628,100.505,59.464,150.749c0.355,0.9,0.552,1.863,0.949,3.236
	c-15.642,0-30.933-0.053-46.224,0.052c-2.574,0.018-2.898-1.653-3.497-3.359c-2.754-7.84-5.612-15.646-8.213-23.537
	c-0.961-2.919-2.303-4.166-5.617-4.132c-17.821,0.182-35.646,0.173-53.468,0.005c-3.245-0.03-4.688,1.071-5.66,4.056
	c-2.572,7.899-5.452,15.699-8.182,23.549c-0.673,1.936-1.247,3.474-3.975,3.441C693.085,358.026,679.769,358.112,665.553,358.112z
	 M751.204,231.751c-7.438,22.359-14.513,43.628-21.74,65.355c13.273,0,25.733-0.041,38.192,0.036
	c2.385,0.016,3.395-0.522,2.603-3.098C764.023,273.761,757.838,253.461,751.204,231.751z"/>
<path fill-rule="evenodd" clip-rule="evenodd" fill="#018FD4" d="M1192.488,200.783c7.666,0,15.337,0.141,22.997-0.073
	c2.849-0.079,4.043,0.995,5.036,3.524c19.636,49.994,39.322,99.968,59.131,149.894c1.484,3.739,0.266,4.063-2.991,4.035
	c-13.498-0.118-26.999-0.157-40.495,0.031c-3.105,0.044-4.354-1.069-5.271-3.867c-2.538-7.739-5.546-15.326-8.019-23.086
	c-0.97-3.043-2.32-4.131-5.575-4.102c-17.831,0.163-35.664,0.16-53.495,0.003c-3.222-0.028-4.61,0.981-5.583,4.063
	c-2.451,7.766-5.453,15.355-8.014,23.09c-0.909,2.747-2.107,3.958-5.25,3.903c-11.996-0.21-23.998-0.164-35.996-0.03
	c-3.047,0.034-3.669-0.575-2.509-3.566c19.478-50.233,38.876-100.497,58.223-150.78c0.937-2.436,2.303-3.146,4.814-3.095
	C1177.154,200.882,1184.822,200.783,1192.488,200.783z M1210.73,297.103c-6.6-21.708-13.046-42.908-19.873-65.36
	c-7.26,21.768-14.063,42.226-20.927,62.663c-0.657,1.959-0.29,2.725,1.857,2.718C1184.576,297.082,1197.364,297.103,1210.73,297.103
	z"/>
<path fill-rule="evenodd" clip-rule="evenodd" fill="#018FD4" d="M1360.919,200.785c21.652,0,43.305,0.09,64.956-0.088
	c3.678-0.03,4.888,0.809,4.721,4.641c-0.326,7.48-0.306,14.994-0.006,22.477c0.147,3.669-1.157,4.347-4.511,4.295
	c-12.488-0.192-24.991,0.205-37.469-0.214c-5.064-0.17-5.888,1.504-5.864,6.126c0.189,38.307,0.042,76.614,0.201,114.922
	c0.018,4.086-0.901,5.395-5.162,5.275c-11.317-0.315-22.652-0.273-33.973-0.014c-3.784,0.088-4.69-1.016-4.677-4.723
	c0.138-38.64-0.01-77.281,0.206-115.921c0.027-4.764-1.437-5.727-5.837-5.628c-12.651,0.281-25.315-0.012-37.971,0.175
	c-3.28,0.049-4.241-0.886-4.142-4.154c0.233-7.654,0.283-15.329-0.015-22.979c-0.146-3.735,1.313-4.278,4.585-4.259
	C1317.614,200.848,1339.268,200.785,1360.919,200.785z"/>
</svg>
