<?xml version="1.0" encoding="utf-8"?>
<!-- Generator: Adobe Illustrator 26.5.0, SVG Export Plug-In . SVG Version: 6.00 Build 0)  -->
<svg version="1.1" id="Ebene_1" xmlns="http://www.w3.org/2000/svg" xmlns:xlink="http://www.w3.org/1999/xlink" x="0px" y="0px"
	 viewBox="0 0 732.77 124.72" style="enable-background:new 0 0 732.77 124.72;" xml:space="preserve">
<style type="text/css">
	.st0{fill:#FFFFFF;}
	.st1{fill:#F4963B;}
</style>
<g>
	<polygon class="st0" points="0,98.15 0,124.49 75.77,80.66 53.06,67.45 	"/>
	<polygon class="st1" points="0,0 0,0.28 0,26.58 36.34,47.8 84.33,75.71 107.11,62.53 	"/>
	<g>
		<path class="st0" d="M146.9,116.72c0,3.53-1.57,4.98-6.41,4.98c-4.84,0-6.41-1.45-6.41-4.98v-9.82h-3.17v9.82
			c0,5.44,2.71,8.01,9.48,8.01c6.82,0,9.51-2.56,9.51-8.01v-9.82h-3V116.72z"/>
	</g>
	<path class="st0" d="M162.29,116.84h9.75v-2.59h-9.75V116.84z M156.99,106.9v17.58h15.72v-3.07h-12.67v-11.44h12.65v-3.07H156.99z"
		/>
	<g>
		<path class="st0" d="M185.09,114.25v2.59h7.81c1.72,0,2.66,0.82,2.66,2.27c0,1.72-1.6,2.32-3.8,2.32h-8.9v-11.46h8.64
			c2.27,0,3.75,0.29,3.75,2.15c0,1.52-0.82,2.13-2.56,2.13H185.09z M198.37,111.45c0-3-2.27-4.55-5.71-4.55H179.8v17.58h13.23
			c3.43,0,5.66-2.11,5.66-5.32c0-2.06-1.16-3.46-2.76-3.97C197.23,114.78,198.37,113.67,198.37,111.45"/>
	</g>
	<path class="st0" d="M210.74,116.84h9.75v-2.59h-9.75V116.84z M205.44,106.9v17.58h15.72v-3.07h-12.67v-11.44h12.65v-3.07H205.44z"
		/>
	<g>
		<path class="st0" d="M248.93,124.48l-5.3-5.35c2.27-0.87,3.63-2.93,3.63-5.83c0-3.92-2.37-6.41-6.38-6.41h-12.63v17.58h3.05
			v-14.51h9.58c2.1,0,3.36,1.11,3.36,3.39c0,2.27-1.16,3.53-3.36,3.53h-7.33v2.71h6.58l4.45,4.89H248.93z"/>
		<path class="st0" d="M267.63,124.48c3.68,0,5.47-2.2,5.47-5.15c0-3.41-1.91-5.08-5.47-5.08h-8.05c-1.36,0-2.2-0.8-2.2-2.13
			c0-1.33,0.82-2.15,2.22-2.15h12.63v-3.07H259.6c-3.51,0-5.42,2.1-5.42,4.93c0,2.9,2.06,5.01,5.37,5.01h8.08
			c1.64,0,2.56,0.77,2.56,2.27c0,1.38-0.92,2.3-2.56,2.3h-13.18v3.07H267.63z"/>
	</g>
	<path class="st0" d="M284.55,116.84h9.75v-2.59h-9.75V116.84z M279.26,106.9v17.58h15.72v-3.07H282.3v-11.44h12.65v-3.07H279.26z"
		/>
	<path class="st0" d="M307.51,116.84h9.75v-2.59h-9.75V116.84z M302.21,106.9v17.58h15.72v-3.07h-12.67v-11.44h12.65v-3.07H302.21z"
		/>
	<g>
		<path class="st0" d="M342.87,124.48v-10.23h-11.03v2.59h7.93v4.57h-7.52c-3.17,0-5.47-2.44-5.47-5.76c0-3.34,2.32-5.68,5.47-5.68
			h9.53v-3.07h-9.53c-4.91,0-8.54,3.43-8.54,8.61c0,5.1,3.63,8.97,8.54,8.97H342.87z"/>
	</g>
	<path class="st0" d="M355.11,116.84h9.75v-2.59h-9.75V116.84z M349.82,106.9v17.58h15.72v-3.07h-12.67v-11.44h12.65v-3.07H349.82z"
		/>
	<g>
		<path class="st0" d="M384.94,124.48c3.68,0,5.47-2.2,5.47-5.15c0-3.41-1.91-5.08-5.47-5.08h-8.05c-1.36,0-2.2-0.8-2.2-2.13
			c0-1.33,0.82-2.15,2.22-2.15h12.63v-3.07h-12.63c-3.51,0-5.42,2.1-5.42,4.93c0,2.9,2.06,5.01,5.37,5.01h8.08
			c1.64,0,2.56,0.77,2.56,2.27c0,1.38-0.92,2.3-2.56,2.3h-13.18v3.07H384.94z"/>
	</g>
	<path class="st0" d="M401.87,116.84h9.75v-2.59h-9.75V116.84z M396.57,106.9v17.58h15.72v-3.07h-12.67v-11.44h12.65v-3.07H396.57z"
		/>
	<polygon class="st0" points="418.65,106.9 418.65,124.48 433.55,124.48 433.55,121.41 421.72,121.41 421.72,106.9 	"/>
	<polygon class="st0" points="438.88,106.9 438.88,124.48 453.78,124.48 453.78,121.41 441.95,121.41 441.95,106.9 	"/>
	<g>
		<path class="st0" d="M471.65,124.48c3.68,0,5.47-2.2,5.47-5.15c0-3.41-1.91-5.08-5.47-5.08h-8.05c-1.36,0-2.2-0.8-2.2-2.13
			c0-1.33,0.82-2.15,2.22-2.15h12.63v-3.07h-12.63c-3.51,0-5.42,2.1-5.42,4.93c0,2.9,2.06,5.01,5.37,5.01h8.08
			c1.64,0,2.56,0.77,2.56,2.27c0,1.38-0.92,2.3-2.56,2.3h-13.18v3.07H471.65z"/>
		<path class="st0" d="M499.29,124.48v-3.07h-9.53c-3.17,0-5.47-2.44-5.47-5.76c0-3.34,2.32-5.68,5.47-5.68h9.53v-3.07h-9.53
			c-4.91,0-8.54,3.43-8.54,8.61c0,5.1,3.63,8.97,8.54,8.97H499.29z"/>
	</g>
	<path class="st0" d="M506.44,124.56h3.07V106.9h-3.07V124.56z M520.59,106.9v7.28h-8.85v2.73h8.85v7.64h3.07V106.9H520.59z"/>
	<g>
		<path class="st0" d="M551.19,124.48l-10.13-16.83c-0.36-0.61-0.8-0.99-1.48-0.99c-0.68,0-1.14,0.39-1.5,0.99l-10.11,16.83h3.51
			l7.98-13.5l3.92,6.58h-5.39l-1.45,2.49h8.32l2.64,4.43H551.19z"/>
	</g>
	<path class="st0" d="M560.79,117.2h8.9v-2.68h-8.9V117.2z M555.49,106.9v17.58h3.05v-14.51h11.88v-3.07H555.49z"/>
	<polygon class="st0" points="575.43,106.9 575.43,109.97 582.11,109.97 582.11,124.48 585.18,124.48 585.18,109.97 591.86,109.97 
		591.86,106.9 	"/>
	<g>
		<path class="st0" d="M257.64,79.32c0-2.69-2.16-4.85-4.91-4.85c-2.69,0-4.79,2.15-4.79,4.85s2.1,4.85,4.79,4.85
			C255.49,84.17,257.64,82.02,257.64,79.32"/>
		<path class="st0" d="M238.11,61.9c0,7.18-5.15,12.39-12.21,12.39h-16.34V49.45h16.34C232.96,49.45,238.11,54.66,238.11,61.9
			 M247.44,61.42c0-12.63-9.04-21.31-21.55-21.31h-25.62v43.52h25.62C238.4,83.63,247.44,74.05,247.44,61.42"/>
		<path class="st0" d="M194.52,79.32c0-2.69-2.16-4.85-4.91-4.85c-2.69,0-4.79,2.15-4.79,4.85s2.1,4.85,4.79,4.85
			C192.37,84.17,194.52,82.02,194.52,79.32"/>
		<path class="st0" d="M179.93,83.63l-26.7-22.21l25.86-21.31h-13.95l-20.12,17c-1.8,1.5-2.33,2.69-2.33,4.25
			c0,1.32,0.3,2.45,1.92,3.83l21.37,18.44H179.93z"/>
	</g>
	<rect x="130.9" y="40.11" class="st0" width="9.34" height="43.52"/>
	<g>
		<path class="st0" d="M732.77,78.66V39.69h-8.92v28.97l-28.5-27.36c-1.32-1.26-2.39-1.74-3.77-1.74c-2.87,0-4.67,2.1-4.67,5.51
			v38.55h8.86V54.66l28.5,27.78c1.26,1.26,2.39,1.8,3.83,1.8C730.86,84.23,732.77,82.13,732.77,78.66"/>
	</g>
	<path class="st0" d="M678.6,74.29h-30.29V49.45h30.23v-9.34h-39.51v43.52h39.57V74.29z M653.76,65.19h23.11v-7.36h-23.11V65.19z"/>
	<g>
		<path class="st0" d="M594.89,53.64c0-2.69,1.62-4.19,4.25-4.19h31.49v-9.34h-31.49c-9.04,0-13.95,5.39-13.95,12.57
			c0,7.36,5.27,12.51,13.83,12.51h19.7c3.35,0,5.27,1.68,5.27,4.61c0,2.75-1.91,4.49-5.27,4.49h-32.87v9.34h32.87
			c9.46,0,14.07-5.57,14.07-13.05c0-8.68-4.91-12.75-14.07-12.75h-19.58C596.56,57.83,594.89,56.33,594.89,53.64"/>
		<path class="st0" d="M581.84,83.63l-13.05-13.11c5.45-2.15,8.8-7.12,8.8-14.25c0-9.88-6.05-16.16-16.22-16.16h-31.61v43.52h9.28
			V49.45h22.33c4.43,0,7.06,2.46,7.06,7.06c0,4.61-2.51,7.3-7.06,7.3h-16.88v7.96h13.53l10.6,11.85H581.84z"/>
	</g>
	<path class="st0" d="M521.1,74.29H490.8V49.45h30.23v-9.34h-39.51v43.52h39.57V74.29z M496.25,65.19h23.11v-7.36h-23.11V65.19z"/>
	<g>
		<path class="st0" d="M466.42,61.9c0,7.18-5.15,12.39-12.21,12.39h-16.34V49.45h16.34C461.27,49.45,466.42,54.66,466.42,61.9
			 M475.76,61.42c0-12.63-9.04-21.31-21.55-21.31h-25.62v43.52h25.62C466.72,83.63,475.76,74.05,475.76,61.42"/>
		<path class="st0" d="M413.51,61.9c0,7.18-5.15,12.39-12.21,12.39h-16.34V49.45h16.34C408.36,49.45,413.51,54.66,413.51,61.9
			 M422.85,61.42c0-12.63-9.04-21.31-21.55-21.31h-25.62v43.52h25.62C413.81,83.63,422.85,74.05,422.85,61.42"/>
	</g>
	<path class="st0" d="M367.17,74.29h-30.29V49.45h30.23v-9.34H327.6v43.52h39.57V74.29z M342.33,65.19h23.11v-7.36h-23.11V65.19z"/>
	<path class="st0" d="M317.26,57.82h-21.01v7.37h21.01V57.82z M319.06,49.45v-9.34h-37.54v43.52h9.28V49.45H319.06z"/>
</g>
</svg>
