<?xml version="1.0" encoding="utf-8"?>
<!-- Generator: Adobe Illustrator 26.5.0, SVG Export Plug-In . SVG Version: 6.00 Build 0)  -->
<svg version="1.1" id="Livello_1" xmlns="http://www.w3.org/2000/svg" xmlns:xlink="http://www.w3.org/1999/xlink" x="0px" y="0px"
	 viewBox="0 0 450 450" style="enable-background:new 0 0 450 450;" xml:space="preserve">
<style type="text/css">
	.st0{fill:#FFFFFF;}
	.st1{fill:#009EE2;}
	.st2{fill:#1D1D1B;}
	.st3{fill:#18174B;}
	.st4{fill:#A0D9F7;}
	.st5{fill:#64B23A;}
	.st6{fill:#004F9E;}
	.st7{fill:none;}
</style>
<g>
	<path class="st0" d="M450,225c0,124.3-100.7,225-225,225S0,349.3,0,225S100.7,0,225,0S450,100.7,450,225"/>
	<g>
		<path class="st1" d="M41,250.1l-5.4,0.7c8.2,60.5,44.9,112.1,96.1,140.9l2.7-4.8C84.7,359,49,308.9,41,250.1 M143,371.4
			c-44.9-25.3-77.1-70.6-84.3-123.7l-5.4,0.7c7.5,54.9,40.7,101.7,87.1,127.7L143,371.4z M396.8,248.6l-5.4-0.7
			c-7.3,53.4-39.9,98.9-85.2,124.1l2.7,4.8C355.6,350.7,389.2,303.7,396.8,248.6 M414.4,251l-5.4-0.7c-8.1,59.1-44,109.4-94.1,137.2
			l2.7,4.8C369.1,363.6,406.1,311.8,414.4,251"/>
		<path class="st2" d="M57.8,226.5l0-0.8c-0.1-5.8-3.1-9.4-8.6-9.4l0,3.5c3.5,0,5.2,2,5.2,5.9l0,0.7c0.1,4.4-2,6.6-6.2,6.7l-4.8,0.1
			c-4.3,0.1-6.3-2.2-6.4-6.5l0-0.7c-0.1-3.9,1.6-6,5.1-6l0-3.5c-5.5,0.1-8.5,3.7-8.4,9.6l0,0.8c0.1,6.2,3.5,10,9.6,10l5.2-0.1
			C54.6,236.6,57.9,232.7,57.8,226.5"/>
		<path class="st2" d="M37.6,211l1.6-14.2l-3.1-0.4l-1.6,14.2L37.6,211z M57.8,213.3l1.6-14.5l-3.1-0.4l-1.3,11l-7.1-0.8l1-9.2
			l-3.1-0.4l-1,9.2l-5.2-0.6l-0.4,3.5L57.8,213.3z"/>
		<path class="st2" d="M59.9,196.1l0.7-3.4l-9.2-2l1.1-5.1l10.2-2.4l0.8-3.9l-7.5,1.8c-2.1,0.5-3,0.7-3.8,1.5l-0.3-0.1
			c0.1-2.1-0.8-4.7-3.7-5.3l-2-0.4c-3.9-0.9-6.4,1.4-7.4,5.8l-1.9,8.5l3.1,0.7l1.9-8.6c0.5-2.4,1.7-3.4,3.7-3l1.7,0.4
			c2,0.4,2.6,1.9,2.1,4.2l-1.1,5.2l-5.9-1.3l-0.7,3.4L59.9,196.1z"/>
		<path class="st2" d="M44.4,172.7l6-16.9l-3-1.1l-6,16.9L44.4,172.7z M65.9,172.7l1.2-3.3l-17.6-6.2l-1.2,3.3L65.9,172.7z"/>
		
			<rect x="58.7" y="142.6" transform="matrix(0.4012 -0.916 0.916 0.4012 -105.2194 147.7422)" class="st2" width="3.5" height="23.5"/>
		<path class="st2" d="M55.5,144.1l6.7-12.6l-2.8-1.5l-6.7,12.6L55.5,144.1z M73.5,153.6l1.6-3.1l-8.3-4.4l4.6-8.7l-2.8-1.5
			l-4.6,8.7l-5.5-2.9l-1.6,3.1L73.5,153.6z"/>
		
			<rect x="70.9" y="119.3" transform="matrix(0.5295 -0.8483 0.8483 0.5295 -76.9932 123.2233)" class="st2" width="3.5" height="23.5"/>
		<path class="st2" d="M91.4,125l0.5-0.6c3.5-4.6,3.4-9.3-1-12.7l-2.1,2.8c2.8,2.1,2.9,4.8,0.5,7.9l-0.4,0.5c-2.7,3.5-5.6,4-9,1.4
			l-3.8-2.9c-3.4-2.6-3.6-5.6-1-9.1l0.4-0.5c2.4-3.1,5-3.7,7.7-1.6l2.1-2.8c-4.4-3.4-9-2.3-12.5,2.3l-0.5,0.6
			c-3.8,4.9-3.5,10,1.4,13.8l4.1,3.2C82.6,130.9,87.6,129.9,91.4,125"/>
		<path class="st2" d="M97.5,116.2l2.5-2.6l-2.6-5.7l6.8-7l5.7,2.5l2.7-2.8l-23.4-9.6l-1.9,2L97.5,116.2z M93.8,100.2
			c-0.8-1.8-1.7-3.7-2.6-4.8l0.2-0.2c1.2,0.9,3.2,1.7,5.2,2.5l4.5,2l-5.1,5.2L93.8,100.2z"/>
		<path class="st2" d="M113,100.6l12.6-10.2l-1.8-2.3L114,96l-0.2-0.2c0-0.9,0.2-1.9,0.1-2.8l-1.2-18.5l-1.8-2.3L98.2,82.3l1.8,2.3
			l9.8-7.9L110,77c-0.1,0.8-0.2,1.7-0.1,2.5l1.2,18.8L113,100.6z"/>
		
			<rect x="121.2" y="66.3" transform="matrix(0.8222 -0.5692 0.5692 0.8222 -22.592 83.8395)" class="st2" width="3.5" height="23.5"/>
		<path class="st2" d="M140.9,77c-3.8,2.1-6.8,1.5-8.8-2.3l-2.4-4.2c-2.1-3.7-1.1-6.6,2.7-8.7l0.6-0.3c3.8-2.1,6.8-1.5,8.8,2.3
			l2.4,4.2c2.1,3.7,1.1,6.6-2.7,8.7L140.9,77z M142.5,80l0.7-0.4c5.4-3,7.2-7.9,4.2-13.2l-2.5-4.5c-3-5.3-8-6.4-13.4-3.3l-0.7,0.4
			c-5.4,3-7.2,7.9-4.2,13.2l2.5,4.5C132.1,82,137.1,83,142.5,80"/>
		<path class="st2" d="M154.3,73.1l3.1-1.2l-5.5-14.5c-0.4-1.1-1-2.2-1.5-3.1l0.3-0.1c0.7,0.8,1.7,1.6,3.2,2.6l15.7,10.5l3.1-1.2
			l-8.4-22l-3.1,1.2l5.5,14.6c0.4,1,0.8,1.9,1.4,2.8l-0.3,0.1c-0.8-0.9-1.7-1.5-3.1-2.4l-15.7-10.5l-3.1,1.2L154.3,73.1z"/>
		<path class="st2" d="M171.2,45.4l13.8-3.7l-0.8-3.1l-13.8,3.7L171.2,45.4z M176.5,65l14.1-3.8l-0.8-3.1L179,61l-1.9-6.9l8.9-2.4
			l-0.8-3.1l-8.9,2.4L175,46l-3.4,0.9L176.5,65z"/>
		<path class="st2" d="M198.6,59.6l8.7-0.8c6.4-0.6,10-4,9.5-10.3l-0.4-4.6c-0.6-6.3-4.8-9-11.1-8.5l-8.7,0.8l0.3,3.2l8.7-0.8
			c4.5-0.4,7,1.4,7.4,5.8l0.4,4.2c0.4,4.4-1.8,6.6-6.2,7l-5.3,0.5l-1.4-15.5L197,41L198.6,59.6z"/>
		
			<rect x="221" y="34.5" transform="matrix(0.9999 -1.261612e-02 1.261612e-02 0.9999 -0.5654 2.8143)" class="st2" width="3.5" height="23.5"/>
		<path class="st2" d="M241.5,59l1.1,0.1c4.9,0.6,8.3-1.7,8.8-6.1l0.1-0.7c0.4-3.6-1.7-6.4-6.2-6.9l-2.5-0.3c-1.7-0.2-3.3-1-3-3.6
			l0.1-0.5c0.2-1.7,1.8-3.1,4.4-2.8l1,0.1c2.6,0.3,3.8,1.5,3.5,3.7l3.5,0.4c0.5-4.5-2.1-6.8-6.6-7.3l-1.1-0.1
			c-4.6-0.5-7.8,2.3-8.2,5.6l-0.1,0.8c-0.4,3.3,1.2,6.5,6.4,7.1l2.4,0.3c1.6,0.2,3.3,1,3,3.6l-0.1,0.4c-0.3,2.5-2,3.4-5,3.1l-1-0.1
			c-2.9-0.3-4.3-1.8-4-4.4l-3.5-0.4C233.8,56,236.6,58.5,241.5,59"/>
		
			<rect x="245.9" y="47.4" transform="matrix(0.1873 -0.9823 0.9823 0.1873 161.1359 293.0777)" class="st2" width="23.5" height="3.5"/>
		<path class="st2" d="M268,63.8l1,0.3c4.8,1.3,8.5-0.5,9.6-4.7l0.2-0.7c0.9-3.5-0.7-6.6-5.1-7.8l-2.4-0.7c-1.6-0.4-3.1-1.5-2.4-4
			l0.1-0.5c0.5-1.7,2.2-2.8,4.7-2.1l1,0.3c2.5,0.7,3.5,2.1,2.9,4.2l3.4,0.9c1.2-4.4-1-7-5.4-8.2l-1-0.3c-4.5-1.2-8.1,1.1-9,4.3
			l-0.2,0.8c-0.9,3.2,0.2,6.6,5.3,7.9l2.3,0.6c1.5,0.4,3.1,1.5,2.5,4l-0.1,0.4c-0.6,2.4-2.5,3.1-5.4,2.3l-1-0.3
			c-2.8-0.8-4-2.4-3.3-5l-3.4-0.9C260.9,59.6,263.3,62.6,268,63.8"/>
		<path class="st2" d="M285,47.3l16.7,6.4l1.1-3l-16.7-6.4L285,47.3z M284.5,68.8l3.3,1.2l6.7-17.5l-3.3-1.2L284.5,68.8z"/>
		<path class="st2" d="M305.4,55.4l12.6,6.7l1.5-2.8l-12.6-6.7L305.4,55.4z M295.9,73.4l12.9,6.8l1.5-2.8l-9.8-5.2l3.3-6.3l8.2,4.3
			l1.5-2.8l-8.2-4.3l2.4-4.6l-3.1-1.6L295.9,73.4z"/>
		<path class="st2" d="M329.1,93.7l2.8,1.9l13.4-19.3l-2.8-1.9l-14.5,8.3c-1.4,0.8-3.4,1.9-4.1,2.6l-0.3-0.2
			c0.5-1.2,0.9-3.1,1.2-4.8l2.5-16.4l-2.8-1.9l-13.4,19.3l2.8,1.9l7.2-10.4c1-1.5,2.2-3.4,2.8-4.6l0.3,0.2c-0.6,1.5-1.2,3.3-1.5,5.3
			l-2.2,14.1l2.2,1.5l11.9-6.9c2-1.1,3.7-2.2,4.9-3.3l0.3,0.2c-1.2,1.1-2.5,2.9-3.6,4.4L329.1,93.7z"/>
		<path class="st2" d="M332.5,96.6l2.7,2.5l5.6-2.8l7.2,6.7l-2.4,5.8l2.8,2.6l9.1-23.7l-2-1.9L332.5,96.6z M348.5,92.6
			c1.8-0.9,3.7-1.8,4.8-2.7l0.2,0.2c-0.8,1.2-1.6,3.2-2.4,5.2l-1.9,4.6l-5.4-5L348.5,92.6z"/>
		<path class="st2" d="M361.1,122.6c-2.7-3.5-2.4-6.5,1-9.1l3.8-2.9c3.4-2.6,6.4-2,9,1.4l0.4,0.5c2.7,3.5,2.4,6.5-1,9.1l-3.8,2.9
			c-1.8,1.4-3.5,1.9-5,1.5l1-3.3l-2.4-3.1l-1.5,4.7c-0.4-0.4-0.8-0.8-1.2-1.3L361.1,122.6z M358.4,124.6l0.5,0.6
			c0.9,1.1,1.8,2,2.7,2.8l-0.8,2.8l2.4,3.1l1.3-4.5c2.6,0.7,5.3,0.1,8-1.9l4.1-3.2c4.8-3.7,5.1-8.8,1.4-13.8l-0.5-0.6
			c-3.8-4.9-8.8-6-13.6-2.2l-4.1,3.2C354.9,114.6,354.6,119.7,358.4,124.6"/>
		<path class="st2" d="M370.4,142.8l0.7,1.2c2.7,4.8,7,6.2,12,3.4l13.1-7.3l-1.7-3.1l-12.9,7.2c-3.3,1.9-5.9,1.2-7.6-1.9l-0.6-1.1
			c-1.7-3.1-1-5.6,2.3-7.4l12.9-7.2l-1.7-3.1l-13.1,7.3C368.8,133.5,367.7,138,370.4,142.8"/>
		<path class="st2" d="M376,151.8l1.4,3.4l6.2-0.1l3.7,9.1l-4.6,4.2l1.5,3.6l18.2-17.7l-1.1-2.6L376,151.8z M392.2,154.9
			c2,0,4.1-0.1,5.5-0.5l0.1,0.3c-1.3,0.7-2.8,2.3-4.4,3.7l-3.6,3.4L387,155L392.2,154.9z"/>
		<polygon class="st2" points="384.5,173.2 388.3,187.3 391.3,186.5 388.4,175.8 408.1,170.5 407.2,167.1 		"/>
		
			<rect x="388.9" y="187.5" transform="matrix(0.9773 -0.2119 0.2119 0.9773 -30.9883 89.1706)" class="st2" width="23.5" height="3.5"/>
		<path class="st2" d="M410.1,192.6l2.5,17.7l3.2-0.4l-2.5-17.7L410.1,192.6z M391,202.6l0.5,3.4l18.5-2.6l-0.5-3.4L391,202.6z"/>
		<path class="st2" d="M392.4,210.9l0,3.6l5.8,2.2l0.1,9.8l-5.8,2.3l0,3.9l23.4-9.7l0-2.8L392.4,210.9z M406.4,219.6
			c1.9,0.7,3.8,1.5,5.2,1.6l0,0.3c-1.4,0.2-3.4,1.1-5.4,1.9l-4.6,1.8l-0.1-7.3L406.4,219.6z"/>
		<path class="st2" d="M412.8,232.9l-0.1,2.5l-0.3,0c-1.2,0-1.7-1-1.6-2.1l0-0.5l-2.8-0.1l0,1c0,1.3,0.6,3,3.1,3.1l5.1,0.2l0.2-3.9
			L412.8,232.9z"/>
		<path class="st2" d="M282,379.6c2.5,0,4.2-1.1,4.8-2.3h0.3v17.9h3.5v-23.5h-2.8c-0.8,3-3.2,4.5-5.8,4.5V379.6z M269.4,392.2
			c-3.5,0-5.4-2-5.4-6.3v-4.8c0-4.3,1.8-6.3,5.4-6.3h0.7c3.5,0,5.4,2,5.4,6.3v4.8c0,4.3-1.8,6.3-5.4,6.3H269.4z M269.4,395.5h0.8
			c5.4,0,8.8-3.4,8.8-9.5v-5.2c0-6.1-3.4-9.5-8.8-9.5h-0.8c-5.4,0-8.8,3.3-8.8,9.5v5.2C260.6,392.2,263.9,395.5,269.4,395.5
			 M247.6,392.2c-3.5,0-5.4-2-5.4-6.3v-4.8c0-4.3,1.8-6.3,5.4-6.3h0.7c3.5,0,5.4,2,5.4,6.3v4.8c0,4.3-1.8,6.3-5.4,6.3H247.6z
			 M247.5,395.5h0.8c5.4,0,8.8-3.4,8.8-9.5v-5.2c0-6.1-3.4-9.5-8.8-9.5h-0.8c-5.4,0-8.8,3.3-8.8,9.5v5.2
			C238.7,392.2,242.1,395.5,247.5,395.5 M227.3,374.8c2.9,0,4.4,1.4,4.4,4.4v0.8c0,2.5-1.5,3.7-4.4,3.7h-0.7c-2.9,0-4.4-1.3-4.4-4
			v-0.8c0-2.8,1.5-4.1,4.4-4.1H227.3z M227.3,371.4h-0.8c-4.9,0-7.9,2.6-7.9,7.3v1.1c0,4.6,2.8,7.2,7.2,7.2h0.7
			c2.9,0,4.2-1.1,4.8-2.8h0.3v0.7c0,5.7-2.6,7.3-4.9,7.3h-0.5c-2.3,0-3.3-0.8-3.5-2.3h-3.4c0.2,3.7,2.8,5.7,6.8,5.7h0.5
			c4.5,0,8.6-3.4,8.6-10.2v-5.4C235.2,374.5,232.2,371.4,227.3,371.4 M198.2,392.2c-4.4,0-6.6-2-6.6-6.3v-4.8c0-4.3,2.3-6.3,6.6-6.3
			h0.7c4.4,0,6.6,2,6.6,6.3v4.8c0,4.3-2.3,6.3-6.6,6.3H198.2z M198.2,395.5h0.8c6.2,0,10.1-3.4,10.1-9.5v-5.2
			c0-6.1-3.9-9.5-10.1-9.5h-0.8c-6.2,0-10.1,3.3-10.1,9.5v5.2C188.1,392.2,192,395.5,198.2,395.5 M175.5,395.5h1.1
			c5,0,8.1-2.7,8.1-7v-0.7c0-3.6-2.4-6.1-7-6.1h-2.5c-1.7,0-3.4-0.6-3.4-3.3v-0.5c0-1.8,1.4-3.3,4-3.3h1c2.6,0,3.9,1.1,3.9,3.3h3.5
			c0-4.5-2.8-6.5-7.4-6.5h-1.1c-4.7,0-7.5,3.1-7.5,6.5v0.8c0,3.4,1.9,6.3,7.1,6.3h2.4c1.6,0,3.4,0.7,3.4,3.2v0.4
			c0,2.5-1.6,3.6-4.6,3.6h-1c-2.9,0-4.5-1.3-4.5-3.9h-3.5C167.5,393.3,170.6,395.5,175.5,395.5 M160,395.2h3.5v-23.5H160V395.2z"/>
		<path class="st3" d="M181.5,274.6c0,4.5-1.2,7.8-3.6,9.9c-2.4,2.2-5.9,3.2-10.6,3.2h-15.5V259h15.5c4.7,0,8.3,1.1,10.6,3.2
			c2.4,2.1,3.6,5.4,3.6,10V274.6z M178.4,254.9c-3.1-1.4-6.9-2.1-11.3-2.1h-15.4H148h-3.1v41.2h3.1h3.8h15.4c4.4,0,8.1-0.7,11.3-2.1
			c3.1-1.4,5.6-3.5,7.2-6.4c1.7-2.8,2.5-6.4,2.5-10.7v-2.9c0-4.3-0.8-7.8-2.5-10.7C184,258.4,181.6,256.3,178.4,254.9"/>
		<polygon class="st3" points="239.8,285 207.9,252.8 204.1,252.8 201.2,252.8 201.2,293.9 207.9,293.9 207.9,261.8 239.8,293.9 
			246.5,293.9 246.5,252.8 239.8,252.8 		"/>
		<rect x="144.9" y="157" class="st4" width="160.3" height="38.3"/>
		<rect x="144.9" y="208.1" class="st5" width="160.3" height="6.4"/>
		<rect x="144.9" y="220.8" class="st6" width="160.3" height="12.8"/>
		<polygon class="st3" points="297.8,252.8 282.1,285 266.3,252.8 258.6,252.8 279.2,293.9 284.5,293.9 305.1,252.8 		"/>
		<g>
			<defs>
				<rect id="SVGID_1_" x="222.3" y="173.4" width="6.9" height="6.9"/>
			</defs>
			<clipPath id="SVGID_00000076603957291202397840000007693139646752545193_">
				<use xlink:href="#SVGID_1_"  style="overflow:visible;"/>
			</clipPath>
			
				<g transform="matrix(1 0 0 1 -1.525879e-05 -1.525879e-05)" style="clip-path:url(#SVGID_00000076603957291202397840000007693139646752545193_);">
				
					<image style="overflow:visible;" width="3" height="3" xlink:href="FF595AE7.jpg"  transform="matrix(2.3114 0 0 2.3114 222.2506 173.3634)">
				</image>
			</g>
		</g>
		<rect x="224.6" y="175.7" class="st7" width="0.9" height="0.9"/>
	</g>
</g>
</svg>
