<?xml version="1.0" encoding="utf-8"?>
<!-- Generator: Adobe Illustrator 16.0.0, SVG Export Plug-In . SVG Version: 6.00 Build 0)  -->
<!DOCTYPE svg PUBLIC "-//W3C//DTD SVG 1.1//EN" "http://www.w3.org/Graphics/SVG/1.1/DTD/svg11.dtd">
<svg version="1.1" id="圖層_1" xmlns="http://www.w3.org/2000/svg" xmlns:xlink="http://www.w3.org/1999/xlink" x="0px" y="0px"
	 width="80px" height="58px" viewBox="60 -14 80 58" enable-background="new 60 -14 80 58" xml:space="preserve">
<g>
	<rect x="69.672" y="29.294" fill="#FFFFFF" width="4.046" height="14.141"/>
	<polygon fill="#FFFFFF" points="75.557,29.294 79.327,29.294 84.246,37.116 84.246,29.294 88.051,29.294 88.051,43.435 
		84.246,43.435 79.352,35.67 79.352,43.435 75.557,43.435 	"/>
	<polygon fill="#FFFFFF" points="89.883,29.294 95.192,29.294 97.239,37.897 99.272,29.294 104.579,29.294 104.579,43.435 
		101.272,43.435 101.272,32.65 98.725,43.435 95.732,43.435 93.189,32.65 93.189,43.435 89.883,43.435 	"/>
	<rect x="106.409" y="29.294" fill="#FFFFFF" width="4.047" height="14.141"/>
	<polygon fill="#FFFFFF" points="112.285,29.294 116.055,29.294 120.974,37.116 120.974,29.294 124.778,29.294 124.778,43.435 
		120.974,43.435 116.081,35.67 116.081,43.435 112.285,43.435 	"/>
	<path fill="#FFFFFF" d="M133.001,38.312v-2.94h6.238v6.027c-1.258,1.049-2.25,1.48-3.168,1.798
		c-0.918,0.32-2.006,0.479-3.266,0.479c-1.551,0-2.814-0.287-3.793-0.859c-0.977-0.572-1.734-1.424-2.271-2.555
		c-0.539-1.133-0.807-2.432-0.807-3.897c0-1.543,0.293-2.886,0.882-4.026s1.449-2.008,2.584-2.6
		c0.886-0.457,2.076-0.685,3.574-0.685c1.443,0,2.523,0.142,3.239,0.424c0.716,0.283,1.311,0.722,1.783,1.316
		c0.472,0.595,0.826,1.35,1.064,2.263l-3.895,0.752c-0.162-0.534-0.432-0.942-0.816-1.225c-0.383-0.283-0.871-0.425-1.465-0.425
		c-0.887,0-1.592,0.333-2.116,0.998c-0.526,0.665-0.789,1.72-0.789,3.159c0,1.531,0.265,2.624,0.797,3.279
		c0.532,0.656,1.272,0.983,2.224,0.983c0.451,0,0.967-0.101,1.377-0.242c0.41-0.141,0.848-0.319,1.323-0.692v-1.332H133.001z"/>
	<path fill="#FFFFFF" d="M63.667,29.294v8.711c0,0.862-0.014,1.383-0.338,1.795c-0.259,0.331-0.511,0.426-0.966,0.529
		c-0.445,0.104-1.263-0.085-1.603-0.225v3.33c0.392,0.066,1.389,0.24,1.889,0.24c1.248,0,2.379-0.262,3.193-0.825
		c0.842-0.585,1.239-1.347,1.504-2.187c0.265-0.842,0.366-2.074,0.366-3.688v-7.682H63.667z"/>
	<path fill="#FFFFFF" d="M86.811-11.651l0.002-2.023l-7.598,0.003h-0.032c-1.861,0-3.369,1.508-3.369,3.369v6.392
		C78.046-7.967,82.064-10.899,86.811-11.651"/>
	<path fill="#FFFFFF" d="M86.795,11.853l0.019-21.709c-5.032,0.848-9.175,4.305-10.995,8.932l0,7.052h0v3.479v1.208v6.727
		c0,0.054-0.003,0.106-0.004,0.16c0,0.123-0.009,0.245-0.018,0.364c-0.02,0.238-0.054,0.475-0.099,0.708
		c-0.222,1.009-0.747,1.901-1.476,2.581c-0.226,0.223-0.536,0.361-0.878,0.361c-0.693,0-1.254-0.562-1.254-1.253
		c0-0.278,0.094-0.534,0.249-0.742c-0.001-0.001-0.003-0.003-0.005-0.005c0.488-0.62,0.782-1.4,0.782-2.252
		c0-2.016-1.636-3.651-3.652-3.651c-1.455,0-2.706,0.853-3.293,2.084l-0.004-0.002l-0.005,0.022
		c-0.005,0.01-0.009,0.019-0.014,0.028c0.008-0.018,0.013-0.034,0.02-0.051c-0.007,0.017-0.013,0.038-0.022,0.056
		c-0.052,0.115-0.1,0.234-0.141,0.357c-0.13,0.361-0.218,0.748-0.266,1.148l-0.002,0.008v0.006c-0.027,0.229-0.044,0.46-0.044,0.695
		c0,3.202,2.595,5.797,5.796,5.797c0.082,0,0.163-0.009,0.244-0.012c0.087,0.003,0.174,0.012,0.264,0.012h3.143l0.003-0.006
		l0.641-0.001c5.225,0,9.638-3.646,10.757-8.534c0.001-0.005-0.037-0.009-0.037-0.014c0.176-0.774,0.274-1.578,0.277-2.405
		l0.018-4.209V11.853z"/>
	<path fill="#FFFFFF" d="M107.208-13.65c-1.915,0-3.467,1.552-3.467,3.468v0.057v20.538v9.027c0,2.265-1.836,4.099-4.1,4.099h-0.002
		c0,0,7.551,0.002,11.565,0.002c1.947,0,3.525-1.578,3.525-3.525l0.001-29.563v-0.005c0.002-2.264,1.837-4.097,4.101-4.097
		C118.797-13.651,107.208-13.65,107.208-13.65"/>
	<path fill="#FFFFFF" d="M133.53,23.54h-7.771c-1.79,0-3.373-1.162-3.91-2.871l-7.113-22.634l-0.002-7.585
		c-0.001-2.266,1.835-4.102,4.1-4.102c1.791,0,3.375,1.162,3.912,2.871L133.53,23.54z"/>
	<path fill="#FFFFFF" d="M103.729,11.853l-7.113-22.635c-0.536-1.707-2.12-2.869-3.91-2.869h-4.1v11.687l7.113,22.634
		c0.537,1.709,2.121,2.871,3.912,2.871c2.264,0,4.101-1.836,4.099-4.102L103.729,11.853z"/>
</g>
</svg>
