<?xml version="1.0" encoding="UTF-8"?>
<svg xmlns="http://www.w3.org/2000/svg" id="Layer_1" data-name="Layer 1" version="1.1" viewBox="0 0 841.9 114.1">
  <defs>
    <style>
      .cls-1 {
        fill: #fff;
        stroke-width: 0px;
      }
    </style>
  </defs>
  <polygon class="cls-1" points="10 7.5 10 18.4 30.9 18.4 30.9 54.7 45.8 54.7 45.8 18.4 67.1 18.4 67.1 7.5 10 7.5"></polygon>
  <polygon class="cls-1" points="89 7.5 89 24.7 121.6 24.7 121.6 7.5 136.1 7.5 136.1 54.7 121.5 54.7 121.5 36.3 88.8 36.3 88.8 54.7 74.2 54.7 74.2 7.5 89 7.5"></polygon>
  <rect class="cls-1" x="145" y="25.8" width="44.9" height="11.4"></rect>
  <rect class="cls-1" x="145" y="42.6" width="47" height="12.2"></rect>
  <rect class="cls-1" x="145" y="7.5" width="47" height="11.9"></rect>
  <rect class="cls-1" x="655.2" y="25.8" width="44.9" height="11.4"></rect>
  <rect class="cls-1" x="655.2" y="42.6" width="47" height="12.2"></rect>
  <rect class="cls-1" x="655.2" y="7.5" width="47" height="11.9"></rect>
  <polygon class="cls-1" points="289.8 7.5 306.9 38.5 324.1 7.5 347.2 7.5 347.2 54.7 333.2 54.7 333.2 19 312.5 54.7 300.9 54.7 280.3 18.8 280.3 54.7 266.4 54.7 266.4 7.5 289.8 7.5"></polygon>
  <g>
    <path class="cls-1" d="M356.7,20.8c0-.7.2-1.5.3-2.2.7-3.7,2.5-6.8,5.8-8.8,2.5-1.5,4.8-1.9,7.6-2.3,5.8-.3,11.5-.6,17.3-.6s13.7.3,20.6.6c.7,0,1.5.2,2.2.3,1.9.3,6.8,1.3,9.7,6.4,1.7,3.1,1.9,6.1,2.1,9.5.1,3.4.3,6.8.1,10.2,0,2.2-.3,4.4-.4,6.7-.5,3.5-.9,6.2-3.3,9.1-3.6,4.4-9.2,5-14.4,5.4-4.7,0-9.4.2-14.2.2s-10.8-.1-16.2-.3c-4.2-.3-8.3-.5-12-3.1-5.7-4-5.8-11.3-5.8-17.3l.5-13.9ZM399.3,43.6c3.1-.3,5.9-.5,7.4-3.1.6-1,.9-2,1.1-4.3v-10.2c0-1.1-.1-1.9-.5-2.9-1.1-3.7-3.9-4.1-7.6-4.4h-20.2c-3.3.2-4.6.6-5.9,1.6-.9.7-1.3,1.3-1.5,1.7-.5,1-.7,2.3-.8,2.6-.2,1.7-.3,4.2-.3,7.9.1,4,.4,6.9,1.5,8.4,1.2,1.7,3.6,2.2,7.6,2.5h19.3Z"></path>
    <polygon class="cls-1" points="467.8 7.4 485.7 7.4 497.2 42.9 514.4 7.4 529.5 7.4 506.4 54.6 487.1 54.6 476.6 21 465.4 54.6 446.1 54.6 426.9 7.4 441.7 7.4 455.7 42.9 467.8 7.4"></polygon>
    <path class="cls-1" d="M560.1,7.4l26.6,47.3h-16.4l-4.4-8.4h-30.5l-4.5,8.4h-15.9l26.2-47.3h18.8ZM540.8,36.2h19.9l-9.8-18.4-10.1,18.4Z"></path>
    <path class="cls-1" d="M641.5,40c5.2-4,4.8-14,4.8-14.5,0-1.2,0-2.3-.1-3.5-.1-4-.3-7.3-3.1-10.5-1.9-2.3-4.4-4-10.6-4.2-1.3,0-2.6,0-3.9,0h-39.6v47.3h14.9v-11.8h19.8l6.2,12h16.4l-7-13.5c.8-.3,1.6-.7,2.3-1.3M603.7,31.2v-12.6h21.9c1.8.2,3.6.4,4.7,1.5,1.5,1.5,1.5,4.8,1.5,5,0,1.7-.5,2.7-.8,3.5-1.3,2.5-3.3,2.7-6.2,2.6h-21.2Z"></path>
    <polygon class="cls-1" points="738.3 7.7 738.3 25.5 774 25.5 774 44.6 794.5 44.6 794.5 25.5 831.1 25.5 831.1 7.7 738.3 7.7"></polygon>
    <path class="cls-1" d="M812.7,54.7l-10,27.6-8.1-27.6h-20.2l-8.6,27.8c-.6-1.7-9.8-27.8-9.8-27.8h-19.6l19.1,51.9h21.4l7.4-24.7,7,24.7h21.3l20.3-51.9h-20.1Z"></path>
    <path class="cls-1" d="M254.2,40.1c5.2-4,4.8-14,4.8-14.5,0-1.2,0-2.3-.1-3.5-.1-4-.3-7.3-3.1-10.5-1.9-2.3-4.4-4-10.6-4.2-1.3,0-2.6,0-3.9,0h-39.6v47.3h14.9v-11.8h19.8l6.2,12h16.4l-7-13.5c.8-.3,1.6-.7,2.3-1.3M216.3,31.2v-12.6h21.9c1.8.2,3.6.4,4.7,1.5,1.5,1.5,1.5,4.8,1.5,5,0,1.7-.5,2.7-.8,3.5-1.3,2.5-3.3,2.7-6.2,2.6h-21.2Z"></path>
    <path class="cls-1" d="M265.9,87.8h11.6c4.6,0,6.1,2.8,6.1,5.9s-1.8,5.8-6.1,5.8h-7.7v7.2h-4v-18.8ZM269.9,96.5h6.4c2.2,0,3.5-.6,3.5-2.8s-1.6-2.9-3.2-2.9h-6.7v5.8Z"></path>
    <path class="cls-1" d="M290.6,87.8h4.7l8.4,18.8h-4.4l-2-4.7h-8.9l-2,4.7h-4.3l8.4-18.8ZM296.2,99l-3.2-7.9-3.3,7.9h6.5Z"></path>
    <path class="cls-1" d="M305.3,87.8h11.9c4.8,0,6.4,2.2,6.4,5.1s-1.3,4-3.1,4.5h0c2.2.5,2.7,2.5,2.7,5.1s0,3,.8,4h-4.3c-.3-.5-.5-1.5-.5-2.8,0-2.7-.4-4.6-3.3-4.6h-6.7v7.4h-4v-18.8ZM316.1,96.3c2.2,0,3.4-.7,3.4-2.8s-1.3-2.7-3.4-2.7h-6.8v5.5h6.8Z"></path>
    <polygon class="cls-1" points="331.8 90.8 324.8 90.8 324.8 87.8 342.9 87.8 342.9 90.8 335.8 90.8 335.8 106.7 331.8 106.7 331.8 90.8"></polygon>
    <rect class="cls-1" x="344.5" y="87.8" width="4" height="18.8"></rect>
    <path class="cls-1" d="M367.6,94.8c-.4-2.8-2.7-4.5-6.1-4.5s-6.4,2.4-6.4,7.3,2.7,6.7,6.6,6.7,5.5-2.8,5.8-4.8h4.3c-.6,3.7-3,7.7-10.8,7.7s-10.1-4.6-10.1-9.9,3.1-9.9,10.5-9.9,9.9,3.4,10.3,7.5h-4.3Z"></path>
    <polygon class="cls-1" points="374.7 87.8 378.6 87.8 378.6 103.6 390.1 103.6 390.1 106.7 374.7 106.7 374.7 87.8"></polygon>
    <polygon class="cls-1" points="391.9 87.8 408.2 87.8 408.2 90.8 395.8 90.8 395.8 95.5 407.7 95.5 407.7 98.5 395.8 98.5 395.8 103.7 408.4 103.7 408.4 106.7 391.9 106.7 391.9 87.8"></polygon>
    <polygon class="cls-1" points="420.6 87.8 436.3 87.8 436.3 90.8 424.6 90.8 424.6 95.5 435.6 95.5 435.6 98.5 424.6 98.5 424.6 106.7 420.6 106.7 420.6 87.8"></polygon>
    <path class="cls-1" d="M437.3,97.2c0-5.3,3.1-9.9,11.1-9.9s11.1,4.6,11.1,9.9-3.1,9.9-11.1,9.9-11.1-4.6-11.1-9.9M455.3,97.2c0-4.1-2.5-7-7-7s-7,2.9-7,7,2.5,7,7,7,7-2.9,7-7"></path>
    <path class="cls-1" d="M467.4,87.8h4.7l8.4,18.8h-4.4l-2-4.7h-8.9l-2,4.7h-4.3l8.4-18.8ZM472.9,99l-3.2-7.9-3.3,7.9h6.5Z"></path>
    <polygon class="cls-1" points="482 87.8 487.7 87.8 494.3 102.4 500.9 87.8 506.5 87.8 506.5 106.7 502.8 106.7 503 91.1 502.9 91.1 495.9 106.7 492.6 106.7 485.7 91.1 485.6 91.1 485.8 106.7 482 106.7 482 87.8"></polygon>
    <polygon class="cls-1" points="519.6 87.8 525.3 87.8 531.9 102.4 538.4 87.8 544.1 87.8 544.1 106.7 540.3 106.7 540.5 91.1 540.4 91.1 533.5 106.7 530.1 106.7 523.2 91.1 523.1 91.1 523.3 106.7 519.6 106.7 519.6 87.8"></polygon>
    <path class="cls-1" d="M554,87.8h4.7l8.4,18.8h-4.4l-2-4.7h-8.9l-2,4.7h-4.3l8.4-18.8ZM559.5,99l-3.2-7.9-3.3,7.9h6.5Z"></path>
    <path class="cls-1" d="M583.2,94.8c-.4-2.8-2.7-4.5-6.1-4.5s-6.4,2.4-6.4,7.3,2.7,6.7,6.6,6.7,5.5-2.8,5.8-4.8h4.3c-.6,3.7-3,7.7-10.8,7.7s-10.1-4.6-10.1-9.9,3.1-9.9,10.5-9.9,9.9,3.4,10.3,7.5h-4.3Z"></path>
    <polygon class="cls-1" points="590.3 87.8 594.2 87.8 594.2 95.2 605.9 95.2 605.9 87.8 609.9 87.8 609.9 106.7 605.9 106.7 605.9 98.1 594.2 98.1 594.2 106.7 590.3 106.7 590.3 87.8"></polygon>
    <rect class="cls-1" x="613.5" y="87.8" width="4" height="18.8"></rect>
    <polygon class="cls-1" points="621.1 87.8 625.6 87.8 636.8 102 636.9 102 636.9 87.8 640.7 87.8 640.7 106.7 636.2 106.7 624.9 92.5 624.9 92.5 624.9 106.7 621.1 106.7 621.1 87.8"></polygon>
    <polygon class="cls-1" points="644.3 87.8 660.7 87.8 660.7 90.8 648.3 90.8 648.3 95.5 660.2 95.5 660.2 98.5 648.3 98.5 648.3 103.7 660.9 103.7 660.9 106.7 644.3 106.7 644.3 87.8"></polygon>
    <path class="cls-1" d="M663.7,87.8h11.9c4.8,0,6.4,2.2,6.4,5.1s-1.3,4-3.1,4.5h0c2.2.5,2.7,2.5,2.7,5.1s0,3,.8,4h-4.3c-.3-.5-.5-1.5-.5-2.8,0-2.7-.4-4.6-3.3-4.6h-6.7v7.4h-4v-18.8ZM674.5,96.3c2.2,0,3.4-.7,3.4-2.8s-1.3-2.7-3.4-2.7h-6.8v5.5h6.8Z"></path>
    <polygon class="cls-1" points="690.5 99.5 682.2 87.8 687.1 87.8 692.4 96.2 697.8 87.8 702.7 87.8 694.4 99.5 694.4 106.7 690.5 106.7 690.5 99.5"></polygon>
  </g>
</svg>
