<?xml version="1.0" encoding="utf-8"?>
<!-- Generator: Adobe Illustrator 22.1.0, SVG Export Plug-In . SVG Version: 6.00 Build 0)  -->
<svg version="1.1" id="Laag_1" xmlns="http://www.w3.org/2000/svg" xmlns:xlink="http://www.w3.org/1999/xlink" x="0px" y="0px"
	 viewBox="0 0 382.3 134.5" style="enable-background:new 0 0 382.3 134.5;" xml:space="preserve">
<style type="text/css">
	.st0{display:none;}
	.st1{display:inline;}
	.st2{fill:#2A3282;}
	.st3{fill:url(#SVGID_1_);}
	.st4{fill:url(#SVGID_2_);}
	.st5{fill:url(#SVGID_3_);}
	.st6{fill:url(#SVGID_4_);}
	.st7{fill:#033582;}
	.st8{fill:url(#SVGID_5_);}
	.st9{fill:url(#SVGID_6_);}
	.st10{fill:url(#SVGID_7_);}
	.st11{fill:url(#SVGID_8_);}
	.st12{fill:#273C8D;}
	.st13{fill:url(#SVGID_9_);}
	.st14{fill:url(#SVGID_10_);}
	.st15{fill:url(#SVGID_11_);}
</style>
<g id="Laag_2_1_" class="st0">
	<g id="Layer_1_1_" class="st1">
		<g>
			<path class="st2" d="M134.7,68.1c3.4,0,5.2,1.8,5.2,4.7c0,3-2,4.7-5.3,4.7h-4v6h-1.2V68.1H134.7L134.7,68.1z M130.7,69.2v7.1h3.8
				c3.3,0,4.2-1.7,4.2-3.6c0-1.8-0.8-3.5-4.2-3.5H130.7z"/>
			<path class="st2" d="M156.8,75.8c0,5.2-2.3,7.9-7.1,7.9s-7.1-2.7-7.1-7.9c0-5.2,2.3-7.9,7.1-7.9S156.8,70.6,156.8,75.8z
				 M155.6,75.8c0-4.6-1.8-6.8-5.9-6.8s-5.9,2.3-5.9,6.8c0,4.6,1.8,6.8,5.9,6.8C153.8,82.6,155.6,80.4,155.6,75.8z"/>
			<path class="st2" d="M169.6,82.4v1.2h-9.3V68.2h1.2v14.2C161.5,82.4,169.6,82.4,169.6,82.4z"/>
			<path class="st2" d="M181.4,68.1l-5.7,8.6v6.8h-1.2v-6.8l-5.8-8.6h1.4l4.9,7.5l4.9-7.5H181.4z"/>
			<path class="st2" d="M185.3,75.2h7.4v1.2h-7.4v6.1h8.4v1.1h-9.6V68.2h9.6v1.1h-8.4V75.2z"/>
			<path class="st2" d="M206.7,79.6c0,2.4-1.8,4.2-5.4,4.2c-2,0-3.5-0.5-4.7-1.1v-1.3c1.1,0.6,2.6,1.2,4.6,1.2c2.4,0,4.3-0.9,4.3-3
				c0-4.9-8.8-2.3-8.8-7.6c0-2.1,1.4-4.2,5.1-4.2c1.6,0,3,0.4,4.1,0.9v1.2c-1-0.5-2.4-1-4-1c-2.6,0-4,1.2-4,3
				C197.9,76.1,206.7,73.7,206.7,79.6z"/>
			<path class="st2" d="M221.1,68.1v1.2h-5.6v14.3h-1.2V69.3h-5.6v-1.2C208.7,68.1,221.1,68.1,221.1,68.1z"/>
			<path class="st2" d="M224.9,75.2h7.4v1.2h-7.4v6.1h8.4v1.1h-9.6V68.2h9.6v1.1h-8.4V75.2z"/>
			<path class="st2" d="M246.2,83.5l-4.2-6.4h-4.4v6.4h-1.2V68.1h5.5c3.3,0,5.1,1.6,5.1,4.4c0,3.2-2.4,4.2-3.7,4.4l4.3,6.6H246.2z
				 M237.6,69.2V76h4.2c3.1,0,4-1.6,4-3.4c0-1.7-0.8-3.4-4-3.4H237.6z"/>
			<path class="st2" d="M258.9,68.1v9.4c0,3.4,1.7,5.2,4.9,5.2c3.2,0,4.9-1.7,4.9-5.2v-9.4h1.2v9.4c0,4.1-2.2,6.3-6.1,6.3
				s-6.1-2.2-6.1-6.3v-9.4H258.9z"/>
			<path class="st2" d="M279.1,68.1c3.4,0,5.2,1.8,5.2,4.7c0,3-2,4.7-5.3,4.7h-4v6h-1.2V68.1H279.1L279.1,68.1z M275.1,69.2v7.1h3.8
				c3.3,0,4.2-1.7,4.2-3.6c0-1.8-0.8-3.5-4.2-3.5H275.1z"/>
			<path class="st2" d="M299.3,75.4v7.2c-1.6,0.7-3.4,1.1-5.2,1.1c-4.2,0-7.2-2.2-7.2-7.9c0-5.6,2.9-7.9,7.2-7.9
				c1.7,0,3.2,0.3,4.7,0.9V70c-1.5-0.6-3-0.9-4.6-0.9c-3.7,0-6.1,1.8-6.1,6.8s2.4,6.8,6.1,6.8c1.3,0,2.7-0.2,3.9-0.6v-5.4h-4.3v-1.3
				H299.3z"/>
			<path class="st2" d="M312.8,83.5l-4.2-6.4h-4.4v6.4H303V68.1h5.5c3.3,0,5.1,1.6,5.1,4.4c0,3.2-2.4,4.2-3.7,4.4l4.3,6.6H312.8z
				 M304.2,69.2V76h4.2c3.1,0,4-1.6,4-3.4c0-1.7-0.8-3.4-4-3.4H304.2z"/>
			<path class="st2" d="M330.2,83.5h-1.3c-0.7-1.6-1.3-3.3-2-4.9h-7.2l-1.9,4.9h-1.3c2.1-5.1,4.2-10.3,6.3-15.4h1.2L330.2,83.5z
				 M320.2,77.5h6.4l-3.2-8L320.2,77.5z"/>
			<path class="st2" d="M337.7,68.1c4.9,0,7.3,2.6,7.3,7.7s-2.4,7.7-7.3,7.7H333V68.1H337.7L337.7,68.1z M334.2,82.4h3.4
				c4.2,0,6.2-2.1,6.2-6.6s-1.9-6.6-6.2-6.6h-3.4V82.4z"/>
			<path class="st2" d="M349.6,68.1v15.4h-1.2V68.1H349.6z"/>
			<path class="st2" d="M364.6,83.5l-9.7-13.7v13.7h-1.2V68.1h1.3l9.7,13.7V68.1h1.2v15.4H364.6z"/>
			<path class="st2" d="M381.8,75.4v7.2c-1.6,0.7-3.4,1.1-5.2,1.1c-4.2,0-7.2-2.2-7.2-7.9c0-5.6,2.9-7.9,7.2-7.9
				c1.7,0,3.2,0.3,4.7,0.9V70c-1.5-0.6-3-0.9-4.6-0.9c-3.7,0-6.1,1.8-6.1,6.8s2.4,6.8,6.1,6.8c1.3,0,2.7-0.2,3.9-0.6v-5.4h-4.3v-1.3
				H381.8z"/>
		</g>
		<path class="st2" d="M138.6,40.5c0,8.5,3.9,10.4,8.2,10.4c3.7,0,7.1-0.7,11-2.6v8c-3.8,1.5-7.7,2.5-11.6,2.5
			c-7.7,0-16.9-3.2-16.9-18.4S138.5,22,146.2,22c3.8,0,7.8,1,11.6,2.5v8c-3.9-1.9-7.3-2.6-11-2.6C142.5,30.1,138.6,32,138.6,40.5z"
			/>
		<path class="st2" d="M195.6,22.5V43c0,10.1-5.7,15.9-15.4,15.9s-15.4-5.8-15.4-15.9V22.5h9.3v21.6c0,4.6,1.9,6.8,6.1,6.8
			s6.1-2.2,6.1-6.8V22.5H195.6z"/>
		<path class="st2" d="M238.9,22.5v36h-9.3V36.2l-8.3,11.9L213,36.2v22.3h-9.3v-36h9.1l8.5,12.3l8.5-12.3H238.9z"/>
		<path class="st2" d="M280.8,58.5h-10l-2.8-8.6h-11.8l-2.8,8.6h-10l14.3-36h8.7L280.8,58.5z M265.7,43l-3.6-11.2L258.4,43H265.7z"
			/>
		<path class="st2" d="M313.9,35.2c0,8-5,12.7-13.8,12.7h-5.3v10.7h-9.3v-36h14.6C308.9,22.5,313.9,27.2,313.9,35.2z M304.7,35.2
			c0-2.3-1.3-5.1-5.4-5.1h-4.4v10.1h4.4C303.4,40.2,304.7,37.5,304.7,35.2z"/>
		<path class="st2" d="M352.3,40.5c0,15.2-9.2,18.4-16.9,18.4s-16.9-3.2-16.9-18.4s9.2-18.4,16.9-18.4S352.3,25.3,352.3,40.5z
			 M343,40.5c0-8.6-3.7-10.4-7.6-10.4s-7.6,1.8-7.6,10.4s3.7,10.4,7.6,10.4S343,49.1,343,40.5z"/>
		<path class="st2" d="M383.7,50.2v8.4h-25.3v-36h9.3v27.6C367.7,50.2,383.7,50.2,383.7,50.2z"/>
		<g>
			
				<linearGradient id="SVGID_1_" gradientUnits="userSpaceOnUse" x1="-1498.9677" y1="-1892.0275" x2="-1456.8313" y2="-1779.908" gradientTransform="matrix(-0.3965 0.9181 -0.9181 -0.3965 -2210.9575 691.9386)">
				<stop  offset="0.3817" style="stop-color:#E2DF1F"/>
				<stop  offset="0.7178" style="stop-color:#E2DF1F"/>
				<stop  offset="1" style="stop-color:#BFBE1D"/>
			</linearGradient>
			<path class="st3" d="M33.5,105.5c27.8,12,59.9-0.7,72-28.4c0.9-2,1.2-4.2,1.8-6.2c0-6.2-0.7-38.1-32.9-54.5
				c0.4,0.2,0.9,0.5,1.3,0.8l0,0l0,0c3.1,2.1,5.4,4.9,6.9,8.1c14.2,22.4,5.3,58.9-25.5,67C35.5,98,3.7,83.4,0.7,61.1
				C2.8,80.1,14.8,97.4,33.5,105.5z"/>
			
				<linearGradient id="SVGID_2_" gradientUnits="userSpaceOnUse" x1="153.776" y1="3869.7734" x2="45.1684" y2="3852.613" gradientTransform="matrix(0.9941 -0.1082 0.1082 0.9941 -449.4768 -3777.7837)">
				<stop  offset="0" style="stop-color:#249CD8"/>
				<stop  offset="0.3172" style="stop-color:#1E70B7"/>
				<stop  offset="0.737" style="stop-color:#1E8DCD"/>
				<stop  offset="0.9892" style="stop-color:#249CD8"/>
			</linearGradient>
			<path class="st4" d="M109.7,49.3C106.4,19.2,79.4-2.5,49.3,0.7c-2.2,0.2-4.5,0.7-6.6,1.1c-5.4,3-32.3,19.8-30.7,55.8
				c0-0.5,0-1,0.1-1.5l0,0l0,0c0.3-3.7,1.6-7.1,3.6-10c12.5-23.4,48.6-33.7,70.8-10.8c15.8,16.3,18.7,50.8,0.8,64.5
				C102.8,88.6,112,69.6,109.7,49.3z"/>
			
				<linearGradient id="SVGID_3_" gradientUnits="userSpaceOnUse" x1="-5662.0205" y1="2410.3081" x2="-5609.1328" y2="2345.4402" gradientTransform="matrix(-0.5938 -0.8046 0.8046 -0.5938 -5216.9458 -3075.8113)">
				<stop  offset="0" style="stop-color:#36A8E0"/>
				<stop  offset="0.2581" style="stop-color:#2B3082"/>
				<stop  offset="0.3768" style="stop-color:#2C3E8C"/>
				<stop  offset="0.6565" style="stop-color:#2362AA"/>
				<stop  offset="0.7903" style="stop-color:#1E70B7"/>
			</linearGradient>
			<path class="st5" d="M22.7,11.1c-16.3,12-24,31.3-22,50c1,9.4,7.7,18.4,20.9,26.1c15.3,7.9,27.4,6.7,33.8,5.5
				c-22-5.6-40.5-28.4-33.2-54.5C28.3,16.3,56.7-3.5,77.5,5.1C60.1-2.6,39.2-1,22.7,11.1z"/>
		</g>
	</g>
</g>
<g id="Laag_3" class="st0">
	<g id="Layer_1_2_" class="st1">
		<g>
			
				<linearGradient id="SVGID_4_" gradientUnits="userSpaceOnUse" x1="300.0951" y1="-1591.3298" x2="368.3617" y2="-1615.5525" gradientTransform="matrix(0.9999 8.100000e-03 8.100000e-03 -0.9999 -335.719 -1575.4406)">
				<stop  offset="0.2204" style="stop-color:#E42522"/>
				<stop  offset="0.3817" style="stop-color:#EB6A39"/>
				<stop  offset="0.4136" style="stop-color:#E36037"/>
				<stop  offset="0.4674" style="stop-color:#D14431"/>
				<stop  offset="0.508" style="stop-color:#C1292D"/>
				<stop  offset="0.6957" style="stop-color:#E20025"/>
				<stop  offset="0.8286" style="stop-color:#343434"/>
			</linearGradient>
			<path class="st6" d="M29.2,16.1c-9.8-4.7-21.1,7.6-30.8,10.5c-3.6,1.1-5.7,1.7-9,2.5h-0.1c-13.2,3.4-26.4,6.7-39.6,0.4
				c-0.1,0-0.2-0.1-0.3-0.1l5,10.6l-4,8.1c2.3,1,6.6,2.7,12.2,3c7.4,0.7,16.9-1.2,26.5-3.8h0.1c3.3-0.9,6.7-1.7,9.9-2.4
				c6-1.2,10-6.1,14.8-5.7c7.4,0.4,1.4,0.9,2.4,1.3c-4.6-4.8,3.5-6.2,3.5-6.3c0-5.8-1.5,3.2-1.5-2.6C18.4,30.7,29.8,16.4,29.2,16.1z
				"/>
			<g>
				<path class="st7" d="M166.8,57.5h-10l-2.8-8.6h-11.8l-2.8,8.6h-10l14.3-36h8.7L166.8,57.5z M151.7,42l-3.6-11.2L144.4,42H151.7z
					"/>
				<path class="st7" d="M179.4,39.5c0,8.5,3.9,10.4,8.2,10.4c3.7,0,7.1-0.7,11-2.6v8c-3.8,1.5-7.7,2.5-11.6,2.5
					c-7.7,0-16.9-3.2-16.9-18.4S179.3,21,187,21c3.8,0,7.8,1,11.6,2.5v8c-3.9-1.9-7.3-2.6-11-2.6C183.3,29.1,179.4,31,179.4,39.5z"
					/>
				<path class="st7" d="M215,29.1v6.6h13.7v7.6H215v6.6h15.8v7.6h-25.1v-36h25.1v7.6C230.8,29.1,215,29.1,215,29.1z"/>
				<path class="st7" d="M260.2,23.7v8.1c-2.8-1.7-5.7-2.6-8.4-2.6c-2.3,0-5.4,0.6-5.4,3c0,4.5,16.6,0.7,16.6,15.1
					c0,6.5-5.9,10.7-13,10.7c-5.1,0-9.3-1.3-12.5-3.5v-8.7c3.4,2.8,7.1,4.2,11.1,4.2c2.5,0,5-0.9,5-3c0-5-16.6-1.1-16.6-14.5
					c0-7.9,6.4-11.2,13.3-11.2C253.9,21.2,257.4,22.2,260.2,23.7z"/>
				<path class="st7" d="M134.6,67.1c3.4,0,5.2,1.8,5.2,4.7c0,3-2,4.7-5.3,4.7h-4v6h-1.1V67.1H134.6z M130.6,68.3v7.1h3.8
					c3.3,0,4.2-1.7,4.2-3.6c0-1.8-0.8-3.5-4.2-3.5H130.6z"/>
				<path class="st7" d="M156.7,74.8c0,5.2-2.3,7.9-7.1,7.9s-7.1-2.7-7.1-7.9s2.3-7.9,7.1-7.9S156.7,69.6,156.7,74.8z M155.5,74.8
					c0-4.6-1.8-6.8-5.9-6.8c-4.1,0-5.9,2.3-5.9,6.8c0,4.6,1.8,6.8,5.9,6.8C153.7,81.6,155.5,79.4,155.5,74.8z"/>
				<path class="st7" d="M169.5,81.4v1.2h-9.3V67.1h1.2v14.3H169.5z"/>
				<path class="st7" d="M181.4,67.1l-5.7,8.6v6.8h-1.3v-6.8l-5.8-8.6h1.4l4.9,7.5l4.9-7.5H181.4z"/>
				<path class="st7" d="M194.3,82.5H193c-0.7-1.6-1.3-3.3-2-4.9h-7.2l-1.9,4.9h-1.3c2.1-5.1,4.2-10.3,6.3-15.4h1.2L194.3,82.5z
					 M184.3,76.5h6.4l-3.2-8L184.3,76.5z"/>
				<path class="st7" d="M210.9,67.1v15.4h-1.2V69.1l-5.8,8.4l-5.8-8.4v13.5h-1.2V67.1h1.3l5.7,8.4l5.7-8.4H210.9z"/>
				<path class="st7" d="M216.1,67.1v15.4h-1.2V67.1H216.1z"/>
				<path class="st7" d="M224.9,67.1c4.9,0,7.3,2.6,7.3,7.7s-2.4,7.7-7.3,7.7h-4.7V67.1H224.9z M221.4,81.4h3.4
					c4.2,0,6.2-2.1,6.2-6.6s-1.9-6.6-6.2-6.6h-3.4V81.4z"/>
				<path class="st7" d="M236.7,74.2h7.4v1.2h-7.4v6h8.4v1.1h-9.6V67.1h9.6v1.1h-8.4V74.2z"/>
				<path class="st7" d="M265.4,78.6c0,2.4-1.8,4.2-5.4,4.2c-2,0-3.5-0.5-4.7-1.1v-1.3c1.1,0.6,2.6,1.2,4.6,1.2c2.4,0,4.3-0.9,4.3-3
					c0-4.9-8.8-2.3-8.8-7.6c0-2.1,1.4-4.2,5.1-4.2c1.6,0,3,0.4,4.1,0.9v1.2c-1-0.5-2.4-1-4-1c-2.6,0-4,1.2-4,3
					C256.6,75.1,265.4,72.7,265.4,78.6z"/>
				<path class="st7" d="M273.8,67.1c3.4,0,5.2,1.8,5.2,4.7c0,3-2,4.7-5.3,4.7h-4v6h-1.2V67.1H273.8z M269.8,68.3v7.1h3.8
					c3.3,0,4.2-1.7,4.2-3.6c0-1.8-0.8-3.5-4.2-3.5H269.8z"/>
				<path class="st7" d="M283.1,74.2h7.4v1.2h-7.4v6h8.4v1.1h-9.6V67.1h9.6v1.1h-8.4V74.2z"/>
				<path class="st7" d="M301.1,81.6c1.5,0,3-0.3,4.5-0.8v1.1c-1.5,0.5-3,0.8-4.6,0.8c-4.2,0-7.2-2.3-7.2-7.9c0-5.7,2.9-8,7.1-8
					c1.6,0,3.2,0.3,4.6,0.9v1.1c-1.4-0.6-3-0.9-4.5-0.9c-3.7,0-6.1,1.8-6.1,6.8C295,79.9,297.5,81.6,301.1,81.6z"/>
				<path class="st7" d="M309.7,67.1v15.4h-1.2V67.1H309.7z"/>
				<path class="st7" d="M326.2,82.5h-1.3c-0.7-1.6-1.3-3.3-2-4.9h-7.2l-1.9,4.9h-1.3c2.1-5.1,4.2-10.3,6.3-15.4h1.2L326.2,82.5z
					 M316.2,76.5h6.4l-3.2-8L316.2,76.5z"/>
				<path class="st7" d="M338.3,81.4v1.2H329V67.1h1.2v14.3H338.3z"/>
				<path class="st7" d="M349.9,67.1v1.2h-5.6v14.3h-1.2V68.3h-5.6v-1.2C337.5,67.1,349.9,67.1,349.9,67.1z"/>
				<path class="st7" d="M353.8,67.1v15.4h-1.2V67.1H353.8z"/>
				<path class="st7" d="M359,74.2h7.4v1.2H359v6h8.4v1.1h-9.6V67.1h9.6v1.1H359V74.2z"/>
				<path class="st7" d="M380.3,78.6c0,2.4-1.8,4.2-5.4,4.2c-2,0-3.5-0.5-4.7-1.1v-1.3c1.1,0.6,2.6,1.2,4.6,1.2c2.4,0,4.3-0.9,4.3-3
					c0-4.9-8.8-2.3-8.8-7.6c0-2.1,1.4-4.2,5.1-4.2c1.6,0,3,0.4,4.1,0.9v1.2c-1-0.5-2.4-1-4-1c-2.6,0-4,1.2-4,3
					C371.5,75.1,380.3,72.7,380.3,78.6z"/>
			</g>
			
				<linearGradient id="SVGID_5_" gradientUnits="userSpaceOnUse" x1="-5213.6646" y1="4794.2969" x2="-5156.314" y2="4864.0127" gradientTransform="matrix(-0.3965 0.9181 0.9181 0.3965 -6433.6616 2910.4541)">
				<stop  offset="0" style="stop-color:#38A8DB"/>
				<stop  offset="0.2581" style="stop-color:#033582"/>
				<stop  offset="0.3647" style="stop-color:#0A418B"/>
				<stop  offset="0.6526" style="stop-color:#0C63A7"/>
				<stop  offset="0.7903" style="stop-color:#0C71B3"/>
			</linearGradient>
			<path class="st8" d="M33.4,104.5c27.8,12,59.9-0.7,72-28.4c0.9-2,1.2-4.2,1.8-6.3c0-6.2-0.7-38.1-32.9-54.5
				c0.4,0.2,0.9,0.5,1.3,0.8l0,0l0,0c3.1,2.1,5.4,4.9,6.9,8.1c14.2,22.4,5.3,58.9-25.5,67C35.4,97,3.6,82.4,0.6,60.1
				C2.7,79.1,14.6,96.4,33.4,104.5z"/>
			
				<linearGradient id="SVGID_6_" gradientUnits="userSpaceOnUse" x1="105.3132" y1="-2230.1296" x2="196.4299" y2="-2296.8455" gradientTransform="matrix(0.9941 -0.1082 -0.1082 -0.9941 -333.3471 -2193.8533)">
				<stop  offset="0.3013" style="stop-color:#E42522"/>
				<stop  offset="0.4879" style="stop-color:#EB6A39"/>
				<stop  offset="0.5352" style="stop-color:#E36037"/>
				<stop  offset="0.615" style="stop-color:#D14431"/>
				<stop  offset="0.6751" style="stop-color:#C1292D"/>
				<stop  offset="0.7865" style="stop-color:#E20025"/>
				<stop  offset="1" style="stop-color:#E42522"/>
			</linearGradient>
			<path class="st9" d="M109.6,48.3C106.3,18.2,79.3-3.5,49.2-0.3c-2.2,0.2-4.5,0.7-6.6,1.1c-5.4,3-32.3,19.8-30.7,55.8
				c0-0.5,0-1,0.1-1.5l0,0l0,0c0.3-3.7,1.6-7.1,3.6-10c12.5-23.4,48.6-33.7,70.8-10.8c15.8,16.3,18.7,50.8,0.8,64.5
				C102.6,87.6,111.8,68.6,109.6,48.3z"/>
			
				<linearGradient id="SVGID_7_" gradientUnits="userSpaceOnUse" x1="-8710.6738" y1="-3309.2097" x2="-8661.624" y2="-3408.1389" gradientTransform="matrix(-0.5938 -0.8046 -0.8046 0.5938 -7822.0176 -4948.4292)">
				<stop  offset="0" style="stop-color:#259CD3"/>
				<stop  offset="0.3172" style="stop-color:#0C71B3"/>
				<stop  offset="0.737" style="stop-color:#1B8DC9"/>
				<stop  offset="0.9892" style="stop-color:#259CD3"/>
			</linearGradient>
			<path class="st10" d="M22.6,10.1c-16.3,12-24,31.3-22,50c1,9.4,7.7,18.4,20.9,26.1c15.3,7.9,27.4,6.7,33.8,5.5
				c-22-5.6-40.5-28.4-33.2-54.5C28.3,15.4,56.7-4.5,77.5,4.1C60-3.6,39-2,22.6,10.1z"/>
			<path class="st7" d="M239.6,104.7h3.7v1.8h-3.7V104.7z"/>
			
				<linearGradient id="SVGID_8_" gradientUnits="userSpaceOnUse" x1="129.3" y1="-1679.0741" x2="199.5" y2="-1679.0741" gradientTransform="matrix(1 0 0 -1 0 -1573.9741)">
				<stop  offset="0.3817" style="stop-color:#E20025"/>
				<stop  offset="0.8011" style="stop-color:#E20025"/>
				<stop  offset="1" style="stop-color:#C00221"/>
			</linearGradient>
			<path class="st11" d="M129.3,107.2l3.5-2.5c0.5-0.4,0.7-0.7,0.7-1c0-0.4-0.3-0.6-0.8-0.6s-0.9,0.3-1.6,1l-1.8-1.6
				c1-1.2,2-1.8,3.7-1.8c1.9,0,3.3,1.2,3.3,2.7l0,0c0,1.3-0.7,2-1.7,2.6l-1.5,1h3.3v2.2h-7.1L129.3,107.2L129.3,107.2z M138.1,105.1
				L138.1,105.1c0-2.3,1.5-4.4,4.1-4.4c2.5,0,4,2,4,4.4l0,0c0,2.3-1.5,4.4-4.1,4.4C139.6,109.4,138.1,107.4,138.1,105.1z
				 M143.4,105.1L143.4,105.1c0-1.2-0.5-2-1.3-2s-1.2,0.8-1.2,1.9l0,0c0,1.2,0.5,1.9,1.3,1.9C142.9,107,143.4,106.2,143.4,105.1z
				 M155,106.3l-3.2-5.4h3.1l1.4,2.8l1.5-2.8h3.1l-3.2,5.4v3h-2.8L155,106.3L155,106.3z M162.4,100.9h7.2v2.3h-4.4v0.9h4.1v2h-4.1
				v0.9h4.5v2.3h-7.3V100.9z M174.5,100.8h2.8l3.5,8.5h-3l-0.4-1.1h-3l-0.4,1.1h-3L174.5,100.8z M176.7,106.1l-0.8-2l-0.8,2H176.7z
				 M182.4,100.9h4.1c1.5,0,2.4,0.4,3,1c0.5,0.5,0.8,1.1,0.8,2l0,0c0,1.2-0.6,2.1-1.7,2.6l2,2.9h-3.2l-1.6-2.4h-0.6v2.4h-2.8V100.9z
				 M186.4,104.9c0.7,0,1.1-0.3,1.1-0.8l0,0c0-0.5-0.4-0.8-1.1-0.8h-1.2v1.6C185.2,104.9,186.4,104.9,186.4,104.9z M191.5,108
				l1.5-1.8c0.9,0.7,2,1,2.9,1c0.5,0,0.7-0.1,0.7-0.4l0,0c0-0.2-0.3-0.4-1.2-0.6c-1.9-0.4-3.5-0.9-3.5-2.7l0,0
				c0-1.6,1.2-2.8,3.6-2.8c1.6,0,2.8,0.4,3.8,1.2l-1.4,1.9c-0.8-0.6-1.7-0.8-2.5-0.8c-0.4,0-0.6,0.1-0.6,0.3l0,0
				c0,0.2,0.2,0.4,1.1,0.5c2.1,0.4,3.6,1,3.6,2.7l0,0c0,1.8-1.5,2.8-3.7,2.8C194.1,109.4,192.5,108.9,191.5,108z"/>
			<path class="st7" d="M207.8,102.7l-1.5,0.4l-0.4-1.5l2.4-0.7h1.3v8.5h-1.8V102.7z"/>
			<path class="st7" d="M212.8,108.4l1-1.4c0.6,0.5,1.1,0.7,1.8,0.7c1,0,1.6-0.8,1.7-1.9c-0.4,0.3-1,0.6-1.7,0.6c-1.8,0-3-1-3-2.7
				l0,0c0-1.7,1.3-2.9,3.2-2.9c1.1,0,1.8,0.3,2.4,0.9s1,1.5,1,3.2l0,0c0,2.7-1.3,4.6-3.7,4.6C214.3,109.4,213.5,109,212.8,108.4z
				 M217.3,103.6L217.3,103.6c0-0.8-0.6-1.3-1.5-1.3s-1.4,0.5-1.4,1.3l0,0c0,0.7,0.6,1.3,1.5,1.3S217.3,104.3,217.3,103.6z"/>
			<path class="st7" d="M221.9,108.4l1-1.4c0.6,0.5,1.1,0.7,1.8,0.7c1,0,1.6-0.8,1.7-1.9c-0.4,0.3-1,0.6-1.7,0.6c-1.8,0-3-1-3-2.7
				l0,0c0-1.7,1.3-2.9,3.2-2.9c1.1,0,1.8,0.3,2.4,0.9s1,1.5,1,3.2l0,0c0,2.7-1.3,4.6-3.7,4.6C223.5,109.4,222.6,109,221.9,108.4z
				 M226.5,103.6L226.5,103.6c0-0.8-0.6-1.3-1.5-1.3s-1.4,0.5-1.4,1.3l0,0c0,0.7,0.6,1.3,1.5,1.3S226.5,104.3,226.5,103.6z"/>
			<path class="st7" d="M230.8,106.9L230.8,106.9c0-1,0.5-1.6,1.4-2.1c-0.6-0.4-1.1-0.9-1.1-1.8l0,0c0-1.3,1.2-2.3,3-2.3s3,1,3,2.3
				l0,0c0,0.9-0.4,1.4-1.1,1.8c0.9,0.4,1.4,1,1.4,2l0,0c0,1.6-1.4,2.5-3.2,2.5S230.8,108.4,230.8,106.9z M235.4,106.8L235.4,106.8
				c0-0.7-0.6-1.1-1.5-1.1c-0.8,0-1.5,0.4-1.5,1l0,0c0,0.6,0.5,1,1.5,1S235.4,107.4,235.4,106.8z M235.2,103.3L235.2,103.3
				c0-0.5-0.4-1-1.2-1s-1.2,0.5-1.2,1l0,0c0,0.6,0.5,1,1.2,1S235.2,103.9,235.2,103.3z"/>
			<path class="st7" d="M245.7,107.8l2.8-2.3c1-0.9,1.5-1.3,1.5-2s-0.5-1.1-1.1-1.1s-1.1,0.4-1.7,1.1l-1.3-1
				c0.8-1.1,1.6-1.7,3.1-1.7c1.7,0,2.9,1,2.9,2.6l0,0c0,1.4-0.7,2.1-2.2,3.3l-1.4,1.1h3.7v1.6h-6.2L245.7,107.8L245.7,107.8z"/>
			<path class="st7" d="M254.4,105.1L254.4,105.1c0-2.5,1.5-4.4,3.7-4.4s3.7,1.9,3.7,4.3l0,0c0,2.4-1.5,4.3-3.7,4.3
				C255.9,109.4,254.4,107.5,254.4,105.1z M260,105.1L260,105.1c0-1.5-0.7-2.7-1.8-2.7c-1.1,0-1.8,1.1-1.8,2.7l0,0
				c0,1.5,0.7,2.7,1.8,2.7S260,106.6,260,105.1z"/>
			<path class="st7" d="M265.8,102.7l-1.5,0.4l-0.4-1.5l2.4-0.7h1.3v8.5h-1.8V102.7z"/>
			<path class="st7" d="M270.4,106.9L270.4,106.9c0-1,0.5-1.6,1.4-2.1c-0.6-0.4-1.1-0.9-1.1-1.8l0,0c0-1.3,1.2-2.3,3-2.3
				s2.9,1,2.9,2.3l0,0c0,0.9-0.4,1.4-1.1,1.8c0.9,0.4,1.4,1,1.4,2l0,0c0,1.6-1.4,2.5-3.2,2.5C271.8,109.4,270.4,108.4,270.4,106.9z
				 M275.1,106.8L275.1,106.8c0-0.7-0.6-1.1-1.5-1.1c-0.8,0-1.5,0.4-1.5,1l0,0c0,0.6,0.5,1,1.5,1
				C274.6,107.8,275.1,107.4,275.1,106.8z M274.9,103.3L274.9,103.3c0-0.5-0.4-1-1.2-1c-0.8,0-1.2,0.5-1.2,1l0,0c0,0.6,0.5,1,1.2,1
				S274.9,103.9,274.9,103.3z"/>
		</g>
	</g>
</g>
<g>
	<path class="st12" d="M159.2,40.8c0,11.8-5.9,18-17.1,18h-13v-36h13C153.2,22.8,159.2,29,159.2,40.8z M149.9,40.8
		c0-6.6-2.3-10.5-7.8-10.5h-3.7v20.8h3.7C147.6,51.2,149.9,47.3,149.9,40.8z"/>
	<path class="st12" d="M197.5,22.8v20.5c0,10.1-5.7,15.9-15.4,15.9s-15.4-5.8-15.4-15.9V22.8h9.3v21.6c0,4.6,1.9,6.8,6.1,6.8
		s6.1-2.2,6.1-6.8V22.8H197.5z"/>
	<path class="st12" d="M215.6,30.3v7.3h13.1v7.6h-13.1v13.6h-9.3v-36h24.5v7.6H215.6z"/>
	<path class="st12" d="M269.5,40.8c0,15.2-9.2,18.4-16.9,18.4c-7.7,0-16.9-3.2-16.9-18.4s9.2-18.4,16.9-18.4
		C260.4,22.4,269.5,25.6,269.5,40.8z M260.3,40.8c0-8.6-3.7-10.4-7.6-10.4c-3.9,0-7.6,1.8-7.6,10.4c0,8.6,3.7,10.4,7.6,10.4
		C256.6,51.2,260.3,49.3,260.3,40.8z"/>
	<path class="st12" d="M307.3,58.8H297l-6.7-12h-3.8v12h-9.3v-36h14.2c8.6,0,14.5,4.1,14.5,11.7c0,5.9-3.1,9.5-7.2,10.9L307.3,58.8z
		 M292,39.8c2.4,0,4.6-1.8,4.6-4.7c0-2.9-2.2-4.8-4.6-4.8h-5.5v9.5H292z"/>
	<path class="st12" d="M134.6,68.4c3.4,0,5.2,1.8,5.2,4.7c0,3-2,4.7-5.3,4.7h-4v6h-1.2V68.4H134.6z M130.6,69.5v7.1h3.8
		c3.3,0,4.2-1.7,4.2-3.6c0-1.8-0.8-3.5-4.2-3.5H130.6z"/>
	<path class="st12" d="M156.7,76.1c0,5.2-2.3,7.9-7.1,7.9c-4.8,0-7.1-2.7-7.1-7.9c0-5.2,2.3-7.9,7.1-7.9
		C154.4,68.1,156.7,70.9,156.7,76.1z M155.5,76.1c0-4.6-1.8-6.8-5.9-6.8c-4.1,0-5.9,2.3-5.9,6.8c0,4.6,1.8,6.8,5.9,6.8
		C153.7,82.9,155.5,80.6,155.5,76.1z"/>
	<path class="st12" d="M169.5,82.6v1.2h-9.3V68.4h1.2v14.3H169.5z"/>
	<path class="st12" d="M181.3,68.4l-5.7,8.6v6.8h-1.2V77l-5.8-8.6h1.4l4.9,7.5l4.9-7.5H181.3z"/>
	<path class="st12" d="M185.2,75.4h7.4v1.2h-7.4v6.1h8.4v1.1H184V68.4h9.6v1.1h-8.4V75.4z"/>
	<path class="st12" d="M206.6,79.9c0,2.4-1.8,4.2-5.4,4.2c-2,0-3.5-0.5-4.7-1.1v-1.3c1.1,0.6,2.6,1.2,4.6,1.2c2.4,0,4.3-0.9,4.3-3
		c0-4.9-8.8-2.3-8.8-7.6c0-2.1,1.4-4.2,5.1-4.2c1.6,0,3,0.4,4.1,0.9v1.2c-1-0.5-2.4-1-4-1c-2.6,0-4,1.2-4,3
		C197.8,76.3,206.6,74,206.6,79.9z"/>
	<path class="st12" d="M221,68.4v1.2h-5.6v14.3h-1.2V69.5h-5.6v-1.2H221z"/>
	<path class="st12" d="M224.8,75.4h7.4v1.2h-7.4v6.1h8.4v1.1h-9.6V68.4h9.6v1.1h-8.4V75.4z"/>
	<path class="st12" d="M246.1,83.8l-4.2-6.4h-4.4v6.4h-1.2V68.4h5.5c3.3,0,5.1,1.6,5.1,4.4c0,3.2-2.4,4.2-3.7,4.4l4.3,6.6H246.1z
		 M237.5,69.5v6.8h4.2c3.1,0,4-1.6,4-3.4c0-1.7-0.8-3.4-4-3.4H237.5z"/>
	<path class="st12" d="M267.4,79.9c0,2.4-1.8,4.2-5.4,4.2c-2,0-3.5-0.5-4.7-1.1v-1.3c1.1,0.6,2.6,1.2,4.6,1.2c2.4,0,4.3-0.9,4.3-3
		c0-4.9-8.8-2.3-8.8-7.6c0-2.1,1.4-4.2,5.1-4.2c1.6,0,3,0.4,4.1,0.9v1.2c-1-0.5-2.4-1-4-1c-2.6,0-4,1.2-4,3
		C258.6,76.3,267.4,74,267.4,79.9z"/>
	<path class="st12" d="M275.8,68.4c3.4,0,5.2,1.8,5.2,4.7c0,3-2,4.7-5.3,4.7h-4v6h-1.2V68.4H275.8z M271.8,69.5v7.1h3.8
		c3.3,0,4.2-1.7,4.2-3.6c0-1.8-0.8-3.5-4.2-3.5H271.8z"/>
	<path class="st12" d="M285.1,75.4h7.4v1.2h-7.4v6.1h8.4v1.1h-9.6V68.4h9.6v1.1h-8.4V75.4z"/>
	<path class="st12" d="M303.1,82.9c1.5,0,3-0.3,4.5-0.8v1.1c-1.5,0.5-3,0.8-4.6,0.8c-4.2,0-7.2-2.3-7.2-7.9c0-5.7,2.9-8,7.1-8
		c1.6,0,3.2,0.3,4.6,0.9v1.1c-1.4-0.6-3-0.9-4.5-0.9c-3.7,0-6.1,1.8-6.1,6.8C297,81.1,299.5,82.9,303.1,82.9z"/>
	<path class="st12" d="M311.7,68.4v15.4h-1.2V68.4H311.7z"/>
	<path class="st12" d="M328.2,83.8H327c-0.7-1.6-1.3-3.3-2-4.9h-7.2l-1.9,4.9h-1.3c2.1-5.1,4.2-10.3,6.3-15.4h1.2L328.2,83.8z
		 M318.2,77.8h6.4l-3.2-8L318.2,77.8z"/>
	<path class="st12" d="M340.3,82.6v1.2h-9.3V68.4h1.2v14.3H340.3z"/>
	<path class="st12" d="M351.9,68.4v1.2h-5.6v14.3h-1.2V69.5h-5.6v-1.2H351.9z"/>
	<path class="st12" d="M355.8,68.4v15.4h-1.2V68.4H355.8z"/>
	<path class="st12" d="M361,75.4h7.4v1.2H361v6.1h8.4v1.1h-9.6V68.4h9.6v1.1H361V75.4z"/>
	<path class="st12" d="M382.3,79.9c0,2.4-1.8,4.2-5.4,4.2c-2,0-3.5-0.5-4.7-1.1v-1.3c1.1,0.6,2.6,1.2,4.6,1.2c2.4,0,4.3-0.9,4.3-3
		c0-4.9-8.8-2.3-8.8-7.6c0-2.1,1.4-4.2,5.1-4.2c1.6,0,3,0.4,4.1,0.9v1.2c-1-0.5-2.4-1-4-1c-2.6,0-4,1.2-4,3
		C373.5,76.3,382.3,74,382.3,79.9z"/>
</g>
<linearGradient id="SVGID_9_" gradientUnits="userSpaceOnUse" x1="200.0645" y1="273.7364" x2="242.2835" y2="386.0755" gradientTransform="matrix(-0.5968 -0.8024 0.8024 -0.5968 -87.4397 430.7874)">
	<stop  offset="0" style="stop-color:#DE6D45"/>
	<stop  offset="0.2577" style="stop-color:#F27043"/>
	<stop  offset="0.6183" style="stop-color:#F27043"/>
</linearGradient>
<path class="st13" d="M22.1,11.7C-2.3,29.8-7.3,64.1,10.9,88.4c1.3,1.8,2.9,3.1,4.3,4.7c5.3,3.1,33.3,18.2,63.6-1.5
	c-0.4,0.3-0.9,0.5-1.3,0.7c0,0,0,0,0,0c0,0,0,0,0,0c-3.3,1.6-6.9,2.2-10.5,1.9c-26.5,1.1-53.7-24.8-45.2-55.6
	C27.8,16.9,56.2-3.1,77,5.5C59.5-2.2,38.5-0.5,22.1,11.7z"/>
<linearGradient id="SVGID_10_" gradientUnits="userSpaceOnUse" x1="240.8467" y1="292.4847" x2="132.2182" y2="275.321" gradientTransform="matrix(-0.4033 0.9151 -0.9151 -0.4033 388.5405 12.4455)">
	<stop  offset="0" style="stop-color:#159BD7"/>
	<stop  offset="0.3172" style="stop-color:#1A75B9"/>
	<stop  offset="0.5579" style="stop-color:#1884C5"/>
	<stop  offset="0.9892" style="stop-color:#159BD7"/>
</linearGradient>
<path class="st14" d="M32.7,105.8c27.8,12.2,60-0.2,72.2-28c0.9-2,1.2-4.1,2.2-6.3c0.1-6.2-0.9-37.9-32.9-54.6
	c0.4,0.3,0.9,0.5,1.3,0.8c0,0,0,0,0,0c0,0,0,0,0,0c3,2.1,5.3,4.9,6.8,8.2c14.1,22.5,4.9,59-26,66.8c-22,5.6-53.3-9.3-56.2-31.6
	C2.2,80.1,13.6,97.4,32.7,105.8z"/>
<linearGradient id="SVGID_11_" gradientUnits="userSpaceOnUse" x1="226.2908" y1="304.5165" x2="279.1811" y2="239.6453" gradientTransform="matrix(0.9937 -0.112 0.112 0.9937 -213.0655 -193.0339)">
	<stop  offset="0" style="stop-color:#25A8E0"/>
	<stop  offset="0.2581" style="stop-color:#29398B"/>
	<stop  offset="0.562" style="stop-color:#205EA7"/>
	<stop  offset="0.7903" style="stop-color:#1A75B9"/>
</linearGradient>
<path class="st15" d="M109.3,49.5C107,29.4,94.2,13.1,77,5.4c-8.6-3.8-20.3-2.7-33,5.1c-14.5,9.3-19.4,19.9-21.7,26.6
	C38.1,20.8,67.1,16.2,86,35.6c15.9,16.2,18.8,50.8,1,64.4C102.4,88.8,111.6,69.8,109.3,49.5z"/>
</svg>
