<svg xmlns="http://www.w3.org/2000/svg" xmlns:xlink="http://www.w3.org/1999/xlink" preserveAspectRatio="xMidYMid" width="2363" height="186" viewBox="0 0 2363 186">

  <g id="logo">
  <path d="M379.000,0.281 C416.275,-0.511 450.024,1.535 473.000,15.281 C522.169,44.698 524.643,140.213 474.000,169.281 C448.856,183.714 421.101,184.080 396.000,184.281 C365.635,184.525 340.258,182.438 319.000,166.281 C287.056,142.003 272.182,94.657 295.000,44.281 C312.705,13.688 345.448,4.277 379.000,0.281 ZM1252.000,117.281 C1252.000,104.949 1252.000,92.613 1252.000,80.281 C1282.997,80.281 1314.003,80.281 1345.000,80.281 C1345.333,80.615 1345.667,80.948 1346.000,81.281 C1346.000,113.945 1346.000,146.618 1346.000,179.281 C1337.001,179.615 1327.999,179.948 1319.000,180.281 C1316.334,174.282 1313.666,168.281 1311.000,162.281 C1297.632,177.729 1279.855,179.912 1254.000,183.281 C1218.122,187.957 1183.378,182.910 1160.000,166.281 C1142.788,154.038 1131.355,135.097 1128.000,111.281 C1125.934,96.618 1125.292,80.428 1131.000,62.281 C1137.735,40.872 1153.817,20.043 1177.000,11.281 C1223.755,-6.390 1291.700,-4.730 1327.000,26.281 C1337.041,35.102 1342.995,47.823 1346.000,62.281 C1346.000,62.615 1346.000,62.948 1346.000,63.281 C1324.002,63.281 1301.998,63.281 1280.000,63.281 C1274.919,44.558 1258.411,38.950 1241.000,38.281 C1210.082,37.093 1186.267,53.794 1187.000,95.281 C1187.293,111.894 1193.738,128.563 1205.000,137.281 C1215.443,145.365 1227.606,147.306 1240.000,147.281 C1259.557,147.242 1278.905,139.126 1287.000,118.281 C1287.000,117.948 1287.000,117.615 1287.000,117.281 C1275.334,117.281 1263.666,117.281 1252.000,117.281 ZM96.000,5.281 C103.421,4.865 133.467,56.194 131.000,97.281 C128.876,132.660 114.072,171.001 97.000,185.281 C96.333,184.281 95.667,183.281 95.000,182.281 C102.730,162.924 112.234,140.748 114.000,115.281 C115.119,99.146 115.718,80.599 111.899,62.500 C109.763,40.465 93.215,7.020 96.000,5.281 ZM110.000,5.281 C131.613,5.281 159.027,5.132 182.449,5.132 C202.009,5.132 218.692,10.570 227.000,20.281 C245.818,42.277 239.158,87.588 210.000,93.281 C227.670,100.157 230.997,118.686 232.000,141.281 C232.593,154.640 235.799,169.008 241.000,180.281 C219.669,179.948 198.331,179.615 177.000,179.281 C172.118,161.761 175.816,141.949 170.000,131.281 C165.530,123.083 156.638,120.710 139.000,121.281 C139.000,120.948 139.000,120.615 139.000,120.281 C140.638,107.758 142.114,95.705 141.011,82.286 C158.550,82.286 164.224,81.149 169.000,77.281 C174.086,73.829 177.611,55.427 168.000,49.281 C160.792,43.242 145.741,43.770 132.000,44.281 C125.931,30.486 118.637,17.923 110.000,5.281 ZM544.000,5.281 C562.998,5.615 582.002,5.948 601.000,6.281 C609.666,44.944 618.334,83.618 627.000,122.281 C637.666,83.285 648.334,44.277 659.000,5.281 C675.665,5.281 692.335,5.281 709.000,5.281 C719.666,44.277 730.334,83.285 741.000,122.281 C749.999,83.285 759.001,44.277 768.000,5.281 C786.665,5.281 805.335,5.281 824.000,5.281 C806.335,63.609 788.665,121.954 771.000,180.281 C755.294,180.574 713.000,180.281 713.000,180.281 C713.000,180.281 693.666,103.944 684.000,67.281 C673.668,104.944 663.332,142.618 653.000,180.281 C634.335,180.281 615.665,180.281 597.000,180.281 C579.335,121.954 561.665,63.609 544.000,5.281 ZM907.000,5.281 C930.664,5.281 954.336,5.281 978.000,5.281 C1002.997,63.609 1053.000,180.281 1053.000,180.281 C1053.000,180.281 990.000,180.281 990.000,180.281 C990.000,180.281 983.333,160.614 980.000,151.281 C955.003,151.281 929.998,151.281 905.000,151.281 C901.334,160.947 897.666,170.616 894.000,180.281 C873.335,180.281 852.665,180.281 832.000,180.281 C832.000,179.948 832.000,179.615 832.000,179.281 C856.998,121.287 882.002,63.275 907.000,5.281 ZM1404.000,5.281 C1404.000,5.281 1502.200,5.107 1545.875,5.107 C1557.305,5.107 1576.307,9.453 1582.000,13.281 C1613.028,34.148 1606.144,83.956 1575.000,94.281 C1593.365,101.689 1594.511,116.640 1596.000,144.281 C1596.677,156.845 1600.187,170.615 1605.000,180.281 C1598.097,180.281 1583.410,180.281 1541.000,180.281 C1538.829,166.982 1538.122,152.947 1538.000,141.281 C1535.547,127.703 1530.355,122.281 1517.000,122.281 C1501.490,122.281 1462.000,122.281 1462.000,122.281 C1462.000,122.281 1462.000,160.950 1462.000,180.281 C1442.669,180.281 1423.331,180.281 1404.000,180.281 C1404.000,121.954 1404.000,5.281 1404.000,5.281 ZM1977.000,5.281 C1977.000,5.281 1977.000,72.669 1977.000,111.281 C1977.000,120.201 1978.962,127.641 1982.000,132.281 C1990.135,144.706 2007.050,148.830 2030.000,144.281 C2038.413,142.614 2045.702,139.938 2050.000,132.281 C2052.438,127.939 2056.000,121.234 2056.000,115.281 C2056.000,83.809 2056.000,36.603 2056.000,5.281 M2114.000,5.281 C2114.006,5.281 2114.088,89.366 2114.054,125.262 C2114.038,142.858 2104.694,157.192 2094.000,165.281 C2052.475,196.691 1942.965,192.617 1923.000,145.281 C1920.455,139.248 1918.000,132.312 1918.000,124.281 C1918.000,88.611 1918.000,39.154 1918.000,5.281 M2170.000,180.281 C2170.000,122.287 2170.000,5.281 2170.000,5.281 C2170.000,5.281 2243.268,5.281 2298.000,5.281 C2334.891,5.281 2350.789,20.485 2357.000,32.281 C2362.305,42.358 2363.907,65.022 2361.000,79.281 C2357.342,97.221 2345.539,119.432 2311.000,121.281 C2271.481,121.281 2229.000,121.281 2229.000,121.281 C2229.000,121.281 2229.000,180.281 2229.000,180.281 M401.000,39.281 C384.242,39.281 369.487,44.137 363.000,50.281 C325.940,85.387 350.243,161.726 416.000,144.281 C429.058,140.817 440.307,132.527 445.000,120.281 C454.373,95.824 449.938,64.165 435.000,51.281 C420.582,38.847 414.961,39.281 401.000,39.281 ZM2229.000,42.281 C2229.000,42.281 2229.000,70.949 2229.000,85.281 C2244.190,85.281 2263.459,85.281 2279.000,85.281 C2296.699,85.281 2305.336,78.807 2303.000,58.281 C2301.861,48.269 2293.706,42.227 2282.062,42.227 C2267.002,42.227 2229.000,42.281 2229.000,42.281 ZM1462.000,44.281 C1462.000,44.281 1462.000,82.281 1462.000,82.281 C1462.000,82.281 1494.496,82.281 1510.000,82.281 C1526.503,82.281 1533.518,80.529 1538.000,69.281 C1540.620,60.464 1537.769,52.887 1532.000,49.281 C1528.389,46.513 1522.279,44.305 1514.900,44.305 C1498.226,44.305 1462.000,44.281 1462.000,44.281 ZM942.000,50.281 C934.001,71.946 925.999,93.617 918.000,115.281 C933.998,115.281 950.002,115.281 966.000,115.281 C966.000,114.948 966.000,114.615 966.000,114.281 C958.001,92.950 949.999,71.612 942.000,50.281 ZM1738.000,0.281 C1775.275,-0.511 1809.024,1.535 1832.000,15.281 C1881.169,44.698 1883.643,140.213 1833.000,169.281 C1807.856,183.714 1780.101,184.080 1755.000,184.281 C1724.635,184.525 1699.258,182.438 1678.000,166.281 C1646.056,142.003 1631.182,94.657 1654.000,44.281 C1671.705,13.688 1704.448,4.277 1738.000,0.281 ZM1760.000,39.281 C1743.242,39.281 1728.487,44.137 1722.000,50.281 C1684.940,85.387 1709.243,161.726 1775.000,144.281 C1788.058,140.817 1799.307,132.527 1804.000,120.281 C1813.373,95.824 1808.938,64.165 1794.000,51.281 C1779.582,38.847 1773.961,39.281 1760.000,39.281 ZM72.000,5.281 C79.421,4.865 109.467,56.194 107.000,97.281 C104.876,132.660 90.072,171.001 73.000,185.281 C72.333,184.281 71.667,183.281 71.000,182.281 C78.730,162.924 88.234,140.748 90.000,115.281 C91.119,99.146 91.718,80.599 87.899,62.500 C85.763,40.465 69.215,7.020 72.000,5.281 ZM48.000,5.281 C55.421,4.865 85.467,56.194 83.000,97.281 C80.876,132.660 66.072,171.001 49.000,185.281 C48.333,184.281 47.667,183.281 47.000,182.281 C54.730,162.924 64.234,140.748 66.000,115.281 C67.119,99.146 67.718,80.599 63.899,62.500 C61.763,40.465 45.215,7.020 48.000,5.281 ZM25.000,5.281 C32.421,4.865 62.467,56.194 60.000,97.281 C57.876,132.660 43.072,171.001 26.000,185.281 C25.333,184.281 24.667,183.281 24.000,182.281 C31.730,162.924 41.234,140.748 43.000,115.281 C44.119,99.146 44.718,80.599 40.899,62.500 C38.763,40.465 22.215,7.020 25.000,5.281 ZM1.000,5.281 C8.421,4.865 38.467,56.194 36.000,97.281 C33.876,132.660 19.072,171.001 2.000,185.281 C1.333,184.281 0.667,183.281 0.000,182.281 C7.730,162.924 17.234,140.748 19.000,115.281 C20.119,99.146 20.718,80.599 16.899,62.500 C14.763,40.465 -1.785,7.020 1.000,5.281 Z" fill-rule="fill:inherit"/>
  </g>


  <use x="0" y="0" xlink:href="#logo" style="fill:#ffffff" />
</svg>
