<svg xmlns="http://www.w3.org/2000/svg" viewBox="0 0 278.89 85.15"><defs><style>.cls-1{fill:#322661;}.cls-2{fill:#23a1db;}</style></defs><g id="Laag_2" data-name="Laag 2"><g id="Layer_1" data-name="Layer 1"><path class="cls-1" d="M85,45.4A43,43,0,0,1,61.24,80.73C54.4,83.49,48,85.72,39.74,85,23.8,84.82,8.69,72.7,3.13,58.79A39.29,39.29,0,0,1,0,42.13H23.5c.08,7,3.76,14,10.07,17.33a19.63,19.63,0,0,0,17.52,0c7.23-3.83,9.58-9.46,10.2-15.72,0,0,.06-43.34.06-43.56S85,.18,85,.18Z"/><path class="cls-2" d="M24.29,38.34c3-11.43,8.35-23.39,19.05-30.29a99.78,99.78,0,0,1,9.94-4.77c3.84-1.69,3.77-1.93,7.26-2.82A3.55,3.55,0,0,0,59.41.23C47.67-.22,38-.42,27.51,3.74,13.25,9.16,2.55,23.35.91,38.34H24.29"/><path class="cls-1" d="M111,22.07h11.4v3.38c0,2.84,1.47,4,5.11,4h4.64c3.86,0,6.12-.47,6.12-4V.36H150v26c0,10.48-5.75,12.54-16.35,12.54H126c-11,0-15-3.37-15-12.28Z"/><path class="cls-1" d="M156.33,19.73c0-8.47,4.75-10.47,12.75-10.47h14.24c8,0,12.76,2,12.76,10.47v8.64c0,8.47-4.76,10.47-12.76,10.47H169.08c-8,0-12.75-2-12.75-10.47Zm9.11,5.88c0,4.2.88,5.79,5.08,5.79h11.36c4.2,0,5.08-1.59,5.08-5.79V22.49c0-3.59-.88-5.79-5.56-5.79H171c-4.68,0-5.56,2.2-5.56,5.79Z"/><path class="cls-1" d="M200.91,29.05h8.88c0,3.07,1.28,3.31,3.84,3.31h10.88c1.88,0,3.8-.2,3.8-2.43,0-2.52-1-2.68-12.48-2.68-13.36,0-14.88-1.6-14.88-8.71,0-5.24.48-9.28,11.68-9.28H225c10.23,0,11.19,3.48,11.19,8.56v.92h-8.87c0-2.12-.24-3-4.32-3h-9.84c-2,0-3.36.68-3.36,2.24,0,2.51,1.08,2.59,10.6,2.55,13.79,0,17,.8,17,9.24,0,7.79-2.64,9.07-14.43,9.07H212.23c-8.08,0-11.32-1.52-11.32-7.8Z"/><path class="cls-1" d="M242.38,29.05h8.87c0,3.07,1.28,3.31,3.84,3.31H266c1.88,0,3.8-.2,3.8-2.43,0-2.52-1-2.68-12.48-2.68-13.35,0-14.87-1.6-14.87-8.71,0-5.24.48-9.28,11.67-9.28h12.4c10.24,0,11.2,3.48,11.2,8.56v.92h-8.88c0-2.12-.24-3-4.32-3h-9.84c-2,0-3.36.68-3.36,2.24,0,2.51,1.08,2.59,10.6,2.55,13.8,0,17,.8,17,9.24,0,7.79-2.64,9.07-14.44,9.07H253.69c-8.07,0-11.31-1.52-11.31-7.8Z"/><path class="cls-2" d="M158.91,53.6H153.1l-.92,4.83h6.54l-.46,2.37h-9.34L152,44.62h9L160.52,47h-6.17l-.82,4.25h5.83Z"/><path class="cls-2" d="M160.73,60.8l3.27-17h2.78l-3.24,17Z"/><path class="cls-2" d="M174.39,60.8c0-.69.13-1.63.22-2.64h-.07c-1.15,2.16-2.69,2.91-4.18,2.91-2.09,0-3.46-1.64-3.46-4a8,8,0,0,1,8.24-8.23,12.38,12.38,0,0,1,3.53.53l-1.2,6.09A26.85,26.85,0,0,0,177,60.8Zm1.16-9.67a4.84,4.84,0,0,0-1.16-.12c-2.59,0-4.58,2.9-4.58,5.57,0,1.22.45,2.23,1.68,2.23s2.88-1.63,3.43-4.61Z"/><path class="cls-2" d="M180,58.19a6.5,6.5,0,0,0,2.81.79c1.13,0,1.81-.67,1.81-1.44s-.39-1.2-1.54-1.8c-1.35-.7-2.31-1.71-2.31-3.05,0-2.26,2-3.84,4.73-3.84a5.87,5.87,0,0,1,2.77.6l-.72,2a4.72,4.72,0,0,0-2.19-.53c-1.06,0-1.78.57-1.78,1.37,0,.64.53,1.1,1.52,1.6,1.27.7,2.42,1.66,2.42,3.15,0,2.57-2.16,4-5,4a6,6,0,0,1-3.27-.84Z"/><path class="cls-2" d="M195.19,45.9l-.6,3.21h2.64l-.43,2.16h-2.62L193.24,56a11,11,0,0,0-.19,1.66.91.91,0,0,0,1,1,5.8,5.8,0,0,0,1,0l-.26,2.19a6.5,6.5,0,0,1-1.83.24c-1.92,0-2.78-1.06-2.78-2.4a9.73,9.73,0,0,1,.26-2.19l1-5.21h-1.58l.4-2.16h1.59l.48-2.52Z"/><path class="cls-2" d="M208.92,53.7c0,4-2.78,7.37-6.77,7.37a4.55,4.55,0,0,1-4.78-4.83c0-4,2.76-7.39,6.75-7.39A4.57,4.57,0,0,1,208.92,53.7Zm-8.67,2.47c0,1.61.87,2.74,2.29,2.74,2.09,0,3.48-2.88,3.48-5.21,0-1.2-.53-2.69-2.24-2.69C201.55,51,200.25,54,200.25,56.17Z"/><path class="cls-2" d="M210.12,60.8l1.49-8.06c.26-1.39.46-2.62.58-3.63h2.42l-.24,2h0a4.92,4.92,0,0,1,4.06-2.3,2.53,2.53,0,0,1,2.76,2.4,4.87,4.87,0,0,1,4.13-2.4c1.61,0,2.86,1,2.86,3.12a15.22,15.22,0,0,1-.2,2l-1.29,6.84H224l1.23-6.53a10.65,10.65,0,0,0,.17-1.48c0-1-.41-1.66-1.44-1.66-1.28,0-2.69,1.61-3.15,4.08l-1.06,5.59h-2.69l1.25-6.62a6.75,6.75,0,0,0,.15-1.37c0-.89-.27-1.68-1.4-1.68-1.29,0-2.78,1.75-3.22,4.13l-1,5.54Z"/><path class="cls-2" d="M239,60.13a9.37,9.37,0,0,1-4.13.91c-3.24,0-4.8-2-4.8-4.82,0-3.53,2.59-7.37,6.62-7.37,2.31,0,3.78,1.34,3.78,3.29,0,3-3.15,4-7.67,3.86a3.28,3.28,0,0,0,.32,1.66,2.57,2.57,0,0,0,2.4,1.2,7,7,0,0,0,3.22-.77Zm-2.67-9.19a3.61,3.61,0,0,0-3.24,3c2.88.05,4.73-.36,4.73-1.75C237.83,51.39,237.23,50.94,236.34,50.94Z"/><path class="cls-2" d="M241.34,60.8l1.37-7.2c.31-1.65.45-3.43.6-4.49h2.42c-.07.8-.14,1.61-.26,2.48h.07a4.3,4.3,0,0,1,3.67-2.74,4.18,4.18,0,0,1,.61,0l-.56,2.73a3.83,3.83,0,0,0-.53,0c-2,0-3.26,2-3.72,4.51l-.89,4.7Z"/><path class="cls-2" d="M250,58.19a6.45,6.45,0,0,0,2.81.79c1.13,0,1.8-.67,1.8-1.44s-.39-1.2-1.54-1.8a3.61,3.61,0,0,1-2.3-3.05c0-2.26,2-3.84,4.73-3.84a5.85,5.85,0,0,1,2.76.6l-.72,2a4.69,4.69,0,0,0-2.19-.53c-1.05,0-1.77.57-1.77,1.37,0,.64.52,1.1,1.51,1.6,1.27.7,2.42,1.66,2.42,3.15,0,2.57-2.16,4-5,4a6,6,0,0,1-3.26-.84Z"/><path class="cls-2" d="M273.63,60.8c-.36-.41-.64-.81-1-1.27a6.69,6.69,0,0,1-4.44,1.54c-2.91,0-4.71-1.71-4.71-4.18s1.9-4.13,3.94-5.09l0-.07a5.67,5.67,0,0,1-.89-2.83,4.52,4.52,0,0,1,4.71-4.54c2.31,0,3.75,1.44,3.75,3.41s-1.4,3.33-4.09,4.58v.08c.75,1.22,1.76,2.68,2.5,3.72a13.74,13.74,0,0,0,2.31-4.44h2.59A15.4,15.4,0,0,1,274.72,58c.62.86,1.36,1.84,2.2,2.85Zm-2.11-2.93c-.79-1.1-2-2.83-3.1-4.53a3.88,3.88,0,0,0-2.09,3.09,2.41,2.41,0,0,0,2.65,2.5A3.57,3.57,0,0,0,271.52,57.87Zm-2.4-9.26a4,4,0,0,0,.72,2.26c1.56-.75,2.64-1.71,2.64-3A1.4,1.4,0,0,0,271,46.23,2.14,2.14,0,0,0,269.12,48.61Z"/><path class="cls-2" d="M188,84.41a11,11,0,0,1-4.22.72c-4.21,0-6.9-2.59-6.9-6.79a9.56,9.56,0,0,1,9.83-9.89,7.21,7.21,0,0,1,3.53.74l-.82,2.26a6.93,6.93,0,0,0-3-.58,6.3,6.3,0,0,0-4.13,1.49A7.47,7.47,0,0,0,179.87,78c0,2.71,1.39,4.75,4.59,4.75a8,8,0,0,0,3.24-.62Z"/><path class="cls-2" d="M189.86,84.89l3.21-17h2.81L194.52,75h0a5,5,0,0,1,3.92-2,2.82,2.82,0,0,1,2.93,3.14,12.33,12.33,0,0,1-.19,2.06l-1.3,6.75h-2.79l1.25-6.55a9.8,9.8,0,0,0,.15-1.54,1.38,1.38,0,0,0-1.47-1.58c-1.37,0-2.9,1.63-3.36,4.1l-1.06,5.57Z"/><path class="cls-2" d="M212.24,84.22a9.44,9.44,0,0,1-4.13.91c-3.25,0-4.81-2-4.81-4.83,0-3.52,2.6-7.36,6.63-7.36,2.31,0,3.77,1.34,3.77,3.28,0,3-3.14,4-7.66,3.87a3.21,3.21,0,0,0,.31,1.65,2.58,2.58,0,0,0,2.4,1.2,6.92,6.92,0,0,0,3.22-.76ZM209.57,75a3.6,3.6,0,0,0-3.24,3c2.88,0,4.73-.36,4.73-1.75C211.06,75.48,210.46,75,209.57,75Z"/><path class="cls-2" d="M214.56,84.89l1.49-8.07c.27-1.39.46-2.61.58-3.62h2.43l-.25,2h0a4.92,4.92,0,0,1,4.06-2.3,2.53,2.53,0,0,1,2.76,2.4,4.87,4.87,0,0,1,4.13-2.4c1.61,0,2.86,1,2.86,3.12a17.21,17.21,0,0,1-.19,2l-1.3,6.84h-2.71l1.22-6.53a10.79,10.79,0,0,0,.17-1.49c0-1-.41-1.65-1.44-1.65-1.28,0-2.69,1.6-3.15,4.08l-1.06,5.59H221.5l1.25-6.63a6.67,6.67,0,0,0,.15-1.37c0-.88-.27-1.67-1.4-1.67-1.29,0-2.78,1.75-3.21,4.12l-1,5.55Z"/><path class="cls-2" d="M234.28,84.89l2.21-11.69h2.81l-2.24,11.69ZM236.94,70a1.66,1.66,0,0,1,1.68-1.7,1.44,1.44,0,0,1,1.49,1.51,1.66,1.66,0,0,1-1.73,1.68A1.39,1.39,0,0,1,236.94,70Z"/><path class="cls-2" d="M248.61,84.48a7.86,7.86,0,0,1-3.36.65,4.39,4.39,0,0,1-4.73-4.66A7.39,7.39,0,0,1,248,72.94a6.36,6.36,0,0,1,2.37.45l-.72,2.19a4,4,0,0,0-1.75-.36c-2.71,0-4.42,2.49-4.42,4.92A2.44,2.44,0,0,0,246,82.87a6.1,6.1,0,0,0,2.5-.55Z"/><path class="cls-2" d="M258,84.89c0-.7.12-1.63.21-2.64h-.07c-1.15,2.16-2.69,2.9-4.18,2.9-2.09,0-3.46-1.63-3.46-4a8,8,0,0,1,8.24-8.23,12.77,12.77,0,0,1,3.53.52l-1.2,6.1a26.79,26.79,0,0,0-.48,5.33Zm1.15-9.67A4.34,4.34,0,0,0,258,75.1c-2.6,0-4.59,2.9-4.59,5.56,0,1.23.45,2.24,1.68,2.24s2.88-1.64,3.43-4.61Z"/><path class="cls-2" d="M263.24,84.89l3.26-17h2.79l-3.24,17Z"/><path class="cls-2" d="M269.5,82.27a6.36,6.36,0,0,0,2.81.79c1.13,0,1.8-.67,1.8-1.44s-.38-1.2-1.53-1.8a3.58,3.58,0,0,1-2.31-3c0-2.26,2-3.84,4.73-3.84a5.67,5.67,0,0,1,2.76.6l-.72,2a4.64,4.64,0,0,0-2.18-.53c-1.06,0-1.78.58-1.78,1.37s.53,1.11,1.51,1.61c1.28.7,2.43,1.66,2.43,3.14,0,2.57-2.16,4-5,4a6.14,6.14,0,0,1-3.27-.84Z"/></g></g></svg>