<?xml version="1.0" encoding="utf-8"?>
<!-- Generator: Adobe Illustrator 26.0.2, SVG Export Plug-In . SVG Version: 6.00 Build 0)  -->
<svg version="1.1" id="圖層_1" xmlns="http://www.w3.org/2000/svg" xmlns:xlink="http://www.w3.org/1999/xlink" x="0px" y="0px"
	 viewBox="0 0 79.6 44.3" style="enable-background:new 0 0 79.6 44.3;" xml:space="preserve">
<style type="text/css">
	.st0{fill:#CF121B;}
	.st1{fill:#DBD5D2;}
</style>
<g>
	<path class="st0" d="M36.9,13.5c0.6,0.1,1.6-0.5,3.7-4.9c2.1-4.3,1.5-7,0.4-7.9c-1-0.9-3.3-1.2-7.1,0.1c-3.8,1.3-7.2,4.4-10.3,9.4
		c-3.1,5-2.9,9.7-5.5,14.2c-2.5,4.5-3.9,6.8-9.3,6.8c-5.4,0.1-8.1,1.4-8.7,2.7h68.9c0,0,3.9-0.1,5.6-0.6c1.7-0.5,5.1-2.5,4.4-3.3
		c-0.7-0.8-0.5,1.1-5.5,1.1c-5,0-60.1,0-60.1,0s4-1.3,8.8-9.4c4.8-8.1,4-13.4,9-18c0,0,4.9-4.4,7.4-2c0,0,1.4,0.9-0.7,6.2
		C38,7.9,35.7,13.3,36.9,13.5z"/>
	<g>
		<path class="st1" d="M29.1,23c0,0-2,0-3-0.1c-1,0-2.1,0.7-2.2,1.8c-0.1,1.1,1,1.4,1,1.4s-2.4,0.9-2.4,2.3c0,0-0.2,1,1.5,1
			c1.7,0,3.5,0,3.5,0s0.7,0,1.5-0.9c0.8-0.9,0.8-1,0.7-1.1c-0.1-0.1-0.7,1-2.2,1c-1.5,0-3,0-3,0s-0.6,0.1-0.7-0.5
			c-0.1-0.6,0.9-1.4,1.6-1.7h1.4c0,0,0.5,0,0.7-0.4c0.2-0.4-0.1-0.5-0.4-0.5c-0.3,0-2.2,0-2.3-0.8c-0.1-0.7,0.7-1.3,1.4-1
			c0.7,0.3,1.2,0.7,1.8,0.7C28.6,24.2,29.4,23.3,29.1,23z"/>
		<path class="st1" d="M55,23c0,0-2,0-3-0.1c-1,0-2.1,0.7-2.2,1.8c-0.1,1.1,1,1.4,1,1.4s-2.4,0.9-2.4,2.3c0,0-0.2,1,1.5,1
			c1.7,0,3.5,0,3.5,0s0.7,0,1.5-0.9c0.8-0.9,0.8-1,0.7-1.1c-0.1-0.1-0.7,1-2.2,1c-1.5,0-3,0-3,0s-0.6,0.1-0.7-0.5
			c-0.1-0.6,0.9-1.4,1.6-1.7h1.4c0,0,0.5,0,0.7-0.4c0.2-0.4-0.1-0.5-0.4-0.5c-0.3,0-2.2,0-2.3-0.8c-0.1-0.7,0.7-1.3,1.4-1
			c0.7,0.3,1.2,0.7,1.8,0.7C54.5,24.2,55.4,23.3,55,23z"/>
		<path class="st1" d="M38,28.3c-0.8,0.4-1.9,0.3-1.8-0.1c0.1-0.3,1.3-2.5,1.4-3.6c0.1-1.1-0.6-2-2.3-1.8c-1.7,0.2-3.7,1.4-4.9,4.1
			c0,0-0.5,1.9,0.9,2.5c1.4,0.6,3.1-0.4,4-1.8c0,0-0.2,1.8,1.1,1.9c1.3,0.1,2.7-1.4,2.7-2C39.2,27.5,38.9,27.9,38,28.3z M33.6,28.4
			c-2.1,0.6-2.5-0.8-1.3-2.9c1.3-2.1,3.5-2.3,4-1.9C37,24.2,35.6,27.8,33.6,28.4z"/>
		<path class="st1" d="M50.4,13.3c-0.1-0.2-1.2,0.2-2.3,2.4c-1.1,2.2-2.3,7.5-2.3,7.5s-1-0.9-2.8,0.2c-1.8,1-3.3,2.4-3.5,4.4
			c-0.3,2,1.5,1.9,2.2,1.9c0.7-0.1,1.8-0.7,2.9-1.9c0,0-0.1,1.8,1,2c1.1,0.2,2.9-1.5,2.6-1.9c0,0-1.2,0.8-1.9,0.8
			c-0.8,0-0.7-0.1-0.4-1.2c0.3-1.1,1.6-6.3,2.2-9.6c0,0,0.8-3,2-4.1C50.1,13.7,50.5,13.5,50.4,13.3z M42.8,28.4
			c-2.1,0.6-2.5-0.8-1.2-2.9c1.3-2.1,3.5-2.3,4-1.9C46.2,24.2,44.8,27.8,42.8,28.4z"/>
		<path class="st1" d="M58,23.1c0,0,0.2-0.6-0.6-0.6c-0.8-0.1-1.3,1.7-0.1,1.8c0,0-0.1,1.4-0.7,1.9c0,0-0.1,0.1,0,0.2
			c0,0,0.7-0.2,1.2-2.1h2.5c0,0-1.5,1.4-2,2.9c-0.5,1.5,0.2,2.5,0.7,2.6c0.6,0.2,1.9,0.1,3.1-1.4c0,0,0.4-0.5,0.2-0.5
			c-0.1-0.1-1.8,1.2-2.6,0.7C59,28,59.3,26.2,60,25.2c0.7-0.9,2-2.2,2-2.2H58z"/>
	</g>
	<path class="st0" d="M0,34.4v9.9h79.6v-9.9H0z M78.5,38.9H67.1l-1.9-3.6h13.4V38.9z M55.4,38.9h-11l-1.9-3.6h14.9L55.4,38.9z
		 M58.1,35.3h6.2l1.9,3.6H56.2L58.1,35.3z M43.6,38.9H33.5l1.9-3.6h6.2L43.6,38.9z M32.7,38.9h-11l-1.9-3.6h14.9L32.7,38.9z
		 M20.9,38.9H10.8l1.9-3.6H19L20.9,38.9z M21.4,39.8l1.9,3.6H8.5l1.9-3.6H21.4z M22.2,39.8h10.1l-1.9,3.6h-6.2L22.2,39.8z
		 M33.1,39.8h11l1.9,3.6H31.1L33.1,39.8z M44.8,39.8h10.1L53,43.4h-6.2L44.8,39.8z M55.8,39.8h11l1.9,3.6H53.8L55.8,39.8z M12,35.3
		L10,38.9h-9v-3.6H12z M1.1,39.8h8.5l-1.9,3.6H1.1V39.8z M69.5,43.4l-1.9-3.6h11v3.6H69.5z"/>
	<g>
		<path class="st0" d="M29.1,22.8c0,0-2,0-2.9-0.1c-1,0-2,0.7-2.1,1.8c-0.1,1.1,1,1.3,1,1.3s-2.4,0.8-2.4,2.3c0,0-0.2,1,1.5,1
			s3.4,0,3.4,0s0.7,0,1.5-0.9c0.8-0.9,0.7-1,0.7-1.1c-0.1-0.1-0.7,0.9-2.2,0.9c-1.5,0-2.9,0-2.9,0s-0.6,0.1-0.7-0.5
			c-0.1-0.6,0.9-1.4,1.6-1.6h1.3c0,0,0.5,0,0.7-0.4c0.2-0.4-0.1-0.5-0.4-0.5c-0.3,0-2.2,0-2.3-0.8c-0.1-0.7,0.7-1.3,1.4-1
			c0.7,0.3,1.1,0.7,1.8,0.7C28.6,24,29.5,23.1,29.1,22.8z"/>
		<path class="st0" d="M54.8,22.8c0,0-2,0-2.9-0.1c-1,0-2,0.7-2.1,1.8c-0.1,1.1,1,1.3,1,1.3s-2.4,0.8-2.4,2.3c0,0-0.2,1,1.5,1
			c1.7,0,3.4,0,3.4,0s0.7,0,1.5-0.9c0.8-0.9,0.7-1,0.7-1.1c-0.1-0.1-0.7,0.9-2.2,0.9c-1.5,0-2.9,0-2.9,0s-0.6,0.1-0.7-0.5
			c-0.1-0.6,0.9-1.4,1.6-1.6h1.4c0,0,0.5,0,0.7-0.4c0.2-0.4-0.1-0.5-0.4-0.5c-0.3,0-2.2,0-2.3-0.8c-0.1-0.7,0.7-1.3,1.4-1
			c0.7,0.3,1.1,0.7,1.8,0.7C54.3,24,55.2,23.1,54.8,22.8z"/>
		<path class="st0" d="M38,28c-0.8,0.4-1.9,0.3-1.8-0.1c0.1-0.3,1.3-2.5,1.4-3.5c0.1-1.1-0.6-2-2.3-1.8c-1.7,0.2-3.7,1.4-4.8,4.1
			c0,0-0.5,1.8,0.9,2.4c1.4,0.6,3-0.4,3.9-1.8c0,0-0.2,1.7,1.1,1.9c1.3,0.1,2.7-1.3,2.7-2C39.1,27.2,38.8,27.6,38,28z M33.6,28.1
			c-2,0.6-2.5-0.8-1.2-2.9c1.3-2.1,3.5-2.3,3.9-1.9C36.9,23.9,35.6,27.4,33.6,28.1z"/>
		<path class="st0" d="M50.2,13.1c-0.1-0.2-1.2,0.1-2.3,2.4c-1.1,2.2-2.2,7.5-2.2,7.5s-0.9-0.9-2.8,0.2c-1.8,1-3.2,2.4-3.5,4.4
			c-0.3,2,1.5,1.9,2.2,1.9c0.7-0.1,1.8-0.6,2.9-1.9c0,0-0.1,1.8,1,2c1.1,0.2,2.9-1.5,2.6-1.9c0,0-1.1,0.8-1.9,0.8
			c-0.8,0-0.7-0.1-0.4-1.1c0.3-1.1,1.6-6.3,2.2-9.5c0,0,0.8-3,2-4C50,13.5,50.3,13.3,50.2,13.1z M42.7,28.1c-2,0.6-2.5-0.8-1.2-2.9
			c1.3-2.1,3.5-2.3,3.9-1.9C46.1,23.9,44.7,27.4,42.7,28.1z"/>
		<path class="st0" d="M57.8,22.8c0,0,0.2-0.6-0.6-0.6c-0.8-0.1-1.3,1.7-0.1,1.7c0,0-0.1,1.4-0.7,1.9c0,0-0.1,0.1,0,0.2
			c0,0,0.7-0.2,1.2-2.1h2.5c0,0-1.5,1.4-2,2.9c-0.5,1.5,0.2,2.5,0.7,2.6c0.6,0.2,1.9,0.1,3.1-1.3c0,0,0.3-0.5,0.2-0.5
			c-0.1-0.1-1.8,1.2-2.6,0.7c-0.8-0.5-0.5-2.3,0.2-3.3c0.7-0.9,1.9-2.2,1.9-2.2H57.8z"/>
	</g>
</g>
</svg>
