<svg id="txt" xmlns="http://www.w3.org/2000/svg" width="123.893" height="57.506" viewBox="0 0 123.893 57.506">
  <path id="Path_263" data-name="Path 263" d="M174.414,759.275a6.668,6.668,0,0,1-4.166,6.4,11.984,11.984,0,0,1-2.837.784,26.7,26.7,0,0,1-3.831.236h-1.246q.016-1.074.029-4t.027-7.034q0-2.515-.015-4.879c-.006-1.576-.023-3.182-.042-4.825h2.21l-.043,6.447a18.078,18.078,0,0,1,4.586.515,9.02,9.02,0,0,1,2.88,1.3,5.652,5.652,0,0,1,1.818,2.141,6.464,6.464,0,0,1,.629,2.907m-2.236.056a4.266,4.266,0,0,0-.966-2.839,5.411,5.411,0,0,0-2.459-1.663,10.167,10.167,0,0,0-1.692-.405,11.379,11.379,0,0,0-1.872-.152H164.5q0,.306-.013,2.235v3.159q0,2.338.013,3.3c.008.641.014,1.295.014,1.955a16.143,16.143,0,0,0,2.811-.223,7.632,7.632,0,0,0,2.194-.727,4.823,4.823,0,0,0,2-1.872,5.616,5.616,0,0,0,.657-2.769" transform="translate(-162.334 -715.392)" fill="#fff" fill-rule="evenodd"/>
  <path id="Path_264" data-name="Path 264" d="M336.553,808.857h-10.11a6.211,6.211,0,0,0,.63,2.726,5.124,5.124,0,0,0,1.887,2.041,6.357,6.357,0,0,0,1.847.784,10.73,10.73,0,0,0,2.488.252c.532,0,1.014-.016,1.454-.045l.824-.053-.251,1.858c-.075.008-.322.024-.742.044s-.912.038-1.481.038a11.965,11.965,0,0,1-3.9-.57,7.5,7.5,0,0,1-2.715-1.609,7.3,7.3,0,0,1-1.551-2.181,6.8,6.8,0,0,1-.63-2.95,8.2,8.2,0,0,1,.478-2.881,7.8,7.8,0,0,1,1.425-2.39,5.5,5.5,0,0,1,2.042-1.468,6.5,6.5,0,0,1,2.542-.516,6.323,6.323,0,0,1,2.309.391,4.662,4.662,0,0,1,1.746,1.189,5.926,5.926,0,0,1,1.258,2.209,10.211,10.211,0,0,1,.449,3.131m-2.168-1.566a4.567,4.567,0,0,0-1.189-2.712,3.324,3.324,0,0,0-2.516-.992,3.626,3.626,0,0,0-2.614,1.006,5.29,5.29,0,0,0-1.453,2.7Z" transform="translate(-306.981 -765.379)" fill="#fff" fill-rule="evenodd"/>
  <path id="Path_265" data-name="Path 265" d="M501.542,809.37a8.338,8.338,0,0,1-.587,3.1A6.93,6.93,0,0,1,499.293,815a6.534,6.534,0,0,1-2.056,1.342,6.631,6.631,0,0,1-2.545.46,6.964,6.964,0,0,1-2.513-.447,6.451,6.451,0,0,1-2.1-1.341,7,7,0,0,1-1.649-2.517,8.762,8.762,0,0,1-.573-3.158,8.542,8.542,0,0,1,.489-2.95,6.912,6.912,0,0,1,1.551-2.434,6.384,6.384,0,0,1,2.18-1.5,6.611,6.611,0,0,1,2.631-.531,6.763,6.763,0,0,1,2.628.489,5.992,5.992,0,0,1,2.112,1.439,7.239,7.239,0,0,1,1.579,2.49,8.47,8.47,0,0,1,.516,3.018m-2.236.1a7.717,7.717,0,0,0-.434-2.557,5.084,5.084,0,0,0-1.315-2.1,3.615,3.615,0,0,0-1.3-.81,4.163,4.163,0,0,0-1.551-.294,4.236,4.236,0,0,0-1.678.307,4.188,4.188,0,0,0-1.343.964,5.346,5.346,0,0,0-1.173,1.931,7.143,7.143,0,0,0-.419,2.432,7.7,7.7,0,0,0,.432,2.628,5.045,5.045,0,0,0,1.4,2.056,3.846,3.846,0,0,0,1.257.755,4.54,4.54,0,0,0,1.509.253,4.285,4.285,0,0,0,1.637-.31,3.841,3.841,0,0,0,1.341-.9,5.376,5.376,0,0,0,1.217-1.956,6.934,6.934,0,0,0,.42-2.4" transform="translate(-453.041 -765.375)" fill="#fff" fill-rule="evenodd"/>
  <path id="Path_266" data-name="Path 266" d="M779.245,807.845a8.456,8.456,0,0,1-.6,3.141,7,7,0,0,1-1.684,2.56,6.6,6.6,0,0,1-2.078,1.359,6.734,6.734,0,0,1-2.575.465,7.109,7.109,0,0,1-2.547-.452,6.478,6.478,0,0,1-2.122-1.357,7.085,7.085,0,0,1-1.67-2.549,8.843,8.843,0,0,1-.58-3.2,8.674,8.674,0,0,1,.495-2.983,6.991,6.991,0,0,1,1.571-2.462,6.429,6.429,0,0,1,2.207-1.513,6.677,6.677,0,0,1,2.66-.538,6.866,6.866,0,0,1,2.659.495,6.039,6.039,0,0,1,2.137,1.459,7.268,7.268,0,0,1,1.6,2.516,8.616,8.616,0,0,1,.524,3.057m-2.265.1a7.8,7.8,0,0,0-.437-2.587,5.165,5.165,0,0,0-1.329-2.124,3.757,3.757,0,0,0-1.316-.819,4.2,4.2,0,0,0-1.571-.3,4.292,4.292,0,0,0-1.7.31,4.175,4.175,0,0,0-1.359.978,5.435,5.435,0,0,0-1.187,1.952,7.259,7.259,0,0,0-.425,2.459,7.784,7.784,0,0,0,.439,2.662,5.135,5.135,0,0,0,1.414,2.079,3.979,3.979,0,0,0,1.275.765,4.58,4.58,0,0,0,1.527.251,4.408,4.408,0,0,0,1.655-.308,3.934,3.934,0,0,0,1.358-.906,5.472,5.472,0,0,0,1.23-1.981,7.009,7.009,0,0,0,.424-2.434" transform="translate(-700.896 -763.934)" fill="#fff" fill-rule="evenodd"/>
  <path id="Path_267" data-name="Path 267" d="M957.473,802.56q0,.312-.026,2.8t-.016,4.739q0,1.527.016,3.113c.006,1.057.011,2.021.011,2.9a7.3,7.3,0,0,1-.832,3.791,5.959,5.959,0,0,1-2.35,2.192,11.371,11.371,0,0,1-2.928.977,20.648,20.648,0,0,1-4.189.368l-.225-1.8q1.653-.028,2.971-.184a9.967,9.967,0,0,0,2.391-.539,4.468,4.468,0,0,0,2.307-1.653,4.727,4.727,0,0,0,.679-2.492H954.6a16.038,16.038,0,0,1-3.467-.394,8.656,8.656,0,0,1-3.04-1.288,6.229,6.229,0,0,1-2.8-5.5,5.829,5.829,0,0,1,1.091-3.493,7.654,7.654,0,0,1,2.913-2.4,9.892,9.892,0,0,1,2.829-.878,23.444,23.444,0,0,1,3.722-.255h1.626m-2.163,7.526q0-1.019-.015-2.545t-.028-3.184H954.9a14.092,14.092,0,0,0-2.3.169,9.294,9.294,0,0,0-2.066.638,4.756,4.756,0,0,0-2.207,1.826,4.949,4.949,0,0,0-.765,2.716,4.63,4.63,0,0,0,.75,2.66,5.078,5.078,0,0,0,2.038,1.71,9.385,9.385,0,0,0,1.994.666,11.163,11.163,0,0,0,2.42.253h.523q0-.168.014-1.569t.015-3.339" transform="translate(-861.553 -765.935)" fill="#fff" fill-rule="evenodd"/>
  <path id="Path_268" data-name="Path 268" d="M1137.5,818.069h-2.237q.014-.228.028-2.787t.028-4.229q0-1.457-.011-3.2t-.045-4.1h2.237c-.022,1.357-.039,2.632-.059,3.819s-.013,2.232-.013,3.156q0,3.295.028,5.29.044,1.995.045,2.051" transform="translate(-1031.203 -767)" fill="#fff" fill-rule="evenodd"/>
  <path id="Path_269" data-name="Path 269" d="M1230.234,815.9l-.171,1.9h-.778a16.321,16.321,0,0,1-3.409-.339,11.066,11.066,0,0,1-2.844-1.034,7.059,7.059,0,0,1-2.674-2.475,6.368,6.368,0,0,1-.962-3.439,5.781,5.781,0,0,1,.88-3.113,7.207,7.207,0,0,1,2.289-2.333,9.838,9.838,0,0,1,3.042-1.247,15.351,15.351,0,0,1,3.678-.435h.58l.114,1.893h-.439a15.881,15.881,0,0,0-2.687.2,9.753,9.753,0,0,0-2.151.623,4.767,4.767,0,0,0-2.221,1.783,4.57,4.57,0,0,0-.821,2.6,4.865,4.865,0,0,0,.764,2.786,5.18,5.18,0,0,0,2.051,1.727,8.354,8.354,0,0,0,2.236.694,15.794,15.794,0,0,0,2.632.211h.891" transform="translate(-1106.341 -766.666)" fill="#fff"/>
  <path id="Path_270" data-name="Path 270" d="M686.6,716.733l-2.391-.7h0c-.071.444-.347,1.647-1.142,4.639a115.859,115.859,0,0,0-3.155,19.059h2.238c0-.049-1.338-4,1.837-15.713a34.731,34.731,0,0,1,2.614-7.287" transform="translate(-624.555 -688.664)" fill="#fff" fill-rule="evenodd"/>
  <path id="Path_271" data-name="Path 271" d="M608.327,488.777c0-.1.136-.168.241-.258a2.563,2.563,0,0,0,1.951.336l.036-.005a12.924,12.924,0,0,0,2.526-.75,15.958,15.958,0,0,0,1.776-.8,10.894,10.894,0,0,0,5.183-5.447,7.116,7.116,0,0,0,.621-3.888c-.445-2.346-3.725-4.3-5.944-3.062,0,0,.887-6.335-7.9-3.39l-.169-.337c0-.009,2.682-2.122,2.664-4.532,0-1.4-.864-2.966-3.814-4.386a6.507,6.507,0,0,0-2.8-.719c-5.294-.074-6.408,9.331-6.412,9.336l-.044.366-.276-.241a3.41,3.41,0,0,0-2.061-.668,5.641,5.641,0,0,0-3.85,1.851,5.215,5.215,0,0,0-1.892,3.823c-.029,3.908,5.378,7.272,5.393,7.28l-.163.346s-8.085-5.037-7.977-10.1a5.788,5.788,0,0,1,1.994-4.2c2.5-2.366,4.632-2.828,5.888-2.826a4.267,4.267,0,0,1,1.009.111c.344-1.081,2.3-6.475,7.439-6.5a12.035,12.035,0,0,1,4.817,1.034c4.971,2.377,5.585,4.491,5.591,5.929a2.536,2.536,0,0,1-.513,1.523c1.01.263,4.011,1.266,4.176,3.956a14.19,14.19,0,0,1,1.642-.1,6.9,6.9,0,0,1,5.9,2.587,6.557,6.557,0,0,1,.2,6.944,13.276,13.276,0,0,1-3.138,3.577,17.35,17.35,0,0,1-4.312,2.369,34.1,34.1,0,0,1-3.693,1.181,8.214,8.214,0,0,1-2.143.357,3.436,3.436,0,0,1-1.337-.262c-.146-.063-.53-.207-.6-.36a.152.152,0,0,1-.016-.071" transform="translate(-540.168 -460.117)" fill="#7fba23"/>
</svg>
