<svg xmlns="http://www.w3.org/2000/svg" width="468" height="188.314" viewBox="0 0 468 188.314">
  <g id="Group_1105" data-name="Group 1105" transform="translate(-119.69 -158.621)">
    <g id="Group_1104" data-name="Group 1104" transform="translate(119.69 158.621)">
      <path id="Path_247" data-name="Path 247" d="M343.758,202.5c1.1-2.017,4.31-6.786,9.721-6.786a8.667,8.667,0,0,1,4.677,1.009l2.935-10.638a12.241,12.241,0,0,0-6.052-1.192c-5.686,0-9.354,3.851-11.28,7.152v-6.052h-12.2v44.661h12.2Z" transform="translate(-168.105 -164.624)" fill="#fff"/>
      <path id="Path_248" data-name="Path 248" d="M393.056,184.892c-8.437,0-14.489,3.118-18.066,6.419l5.319,7.429a18.274,18.274,0,0,1,11.371-4.219c5.319,0,7.245,1.926,7.245,6.236v2.568h-1.559c-11.83,0-23.844,4.219-23.844,15.866,0,7.978,5.894,12.494,13.481,13.111,8.6.7,23.653-1.94,23.653-1.94.025-4.759.374-28.962.374-28.962C411.031,189.569,405.254,184.892,393.056,184.892Zm5.87,37.644a28.943,28.943,0,0,1-8.326.6c-2.74-.241-5.339-1.653-5.339-4.954,0-5.227,4.952-7.336,12.105-7.336h1.559Z" transform="translate(-177.694 -164.624)" fill="#fff"/>
      <rect id="Rectangle_962" data-name="Rectangle 962" width="4.714" height="40.251" transform="translate(228.312 85.641)" fill="#fff"/>
      <path id="Path_249" data-name="Path 249" d="M219.725,269.1a98.764,98.764,0,0,1,2.245-24.155,131.026,131.026,0,0,1,7.165-22.048q1.923-4.9,4.078-9.8c3.422-7.977,7.464-16.741,12.1-26.769H232.751s-3.545,8.47-6.38,15.551c-2.812,7.024-5.039,13.24-5.039,13.24l-.123,1.6-.093.213-9.776-30.6H198.318l16.705,42.448c-14.741,48.152-4.735,87.643,27.522,124.5l7.635-2.623A167.629,167.629,0,0,1,225.9,303.249,114.382,114.382,0,0,1,219.725,269.1Z" transform="translate(-137.658 -164.95)" fill="#fff"/>
      <path id="Path_250" data-name="Path 250" d="M343.56,312.271q2.083-3.138,4.081-6.491c-31.326-16.42-58.519-35.03-66.279-42.474C289.792,275.951,312.561,298.686,343.56,312.271Z" transform="translate(-156.634 -182.542)" fill="#fff"/>
      <path id="Path_251" data-name="Path 251" d="M279.651,225.294c10.073.957,24.028-2.338,24.028-2.338.15-3.183.183-64.334.183-64.334h-12.2v23.385c-2.109-1.742-5.594-3.118-10.363-3.118-11.464,0-19.992,9.262-19.992,23.568C261.31,217.405,268.513,224.235,279.651,225.294Zm4.218-36.868a10.958,10.958,0,0,1,7.8,2.935V214.64a26.866,26.866,0,0,1-8.345.842c-6.231-.255-9.079-4.5-9.079-13.024C274.241,193.654,277.634,188.426,283.87,188.426Z" transform="translate(-152.052 -158.621)" fill="#fff"/>
      <path id="Path_252" data-name="Path 252" d="M159.95,189.067H132.621V165.04H119.69v61.077h12.931V199.7H159.95v26.412H172.88V165.04H159.95Z" transform="translate(-119.69 -160.088)" fill="#fff"/>
      <path id="Path_253" data-name="Path 253" d="M301.776,349.1c2.061-1.426,4.106-2.918,6.129-4.5-27.445-34.056-46.138-71.631-50.144-84.108C258.518,278.99,269.99,319.379,301.776,349.1Z" transform="translate(-151.241 -181.9)" fill="#fff"/>
      <path id="Path_254" data-name="Path 254" d="M276.377,360.245c2.382-1.092,4.759-2.249,7.125-3.489-27.641-37.79-37.486-76.731-40.365-101.275C238.305,281.357,242.984,323.276,276.377,360.245Z" transform="translate(-147.532 -180.755)" fill="#fff"/>
      <path id="Path_255" data-name="Path 255" d="M269.78,262.649c5.414,15.982,22.934,48.48,54.795,69.9,1.685-1.745,3.7-3.911,5.334-5.8C299.972,301.311,275.8,272.9,269.78,262.649Z" transform="translate(-153.987 -182.393)" fill="#fff"/>
      <path id="Path_256" data-name="Path 256" d="M600.07,307.674c-2.538,0-3.385-1.389-3.385-4.291V285.252H604v-3.5h-7.313v-8.28h-4.412v8.28H587.5v3.5h4.774v18.554c0,4.835,2.418,7.676,7.253,7.676a11.18,11.18,0,0,0,6.1-1.753L604,306.4A7.361,7.361,0,0,1,600.07,307.674Z" transform="translate(-226.59 -184.865)" fill="#fff"/>
      <path id="Path_257" data-name="Path 257" d="M648.652,268.689a3.263,3.263,0,1,0,3.263,3.263A3.251,3.251,0,0,0,648.652,268.689Z" transform="translate(-239.818 -183.773)" fill="#fff"/>
      <path id="Path_258" data-name="Path 258" d="M623.636,288.518v-4.533h-4.411v29.01h4.411V293.534c.363-.906,2.78-5.923,7.132-5.923a5,5,0,0,1,2.539.483l1.087-4.23a6.4,6.4,0,0,0-3.021-.6C627.323,283.26,624.785,286.584,623.636,288.518Z" transform="translate(-233.84 -187.102)" fill="#fff"/>
      <path id="Path_259" data-name="Path 259" d="M449.992,283.26a11.861,11.861,0,0,0-9.428,4.9v-4.17h-4.412v29.01h4.412V292.567c2.054-2.841,5.137-5.319,8.4-5.319,3.867,0,5.137,2.3,5.137,5.923v19.823h4.412v-20.67C458.514,287.309,456.1,283.26,449.992,283.26Z" transform="translate(-192.005 -187.102)" fill="#fff"/>
      <path id="Path_260" data-name="Path 260" d="M675.6,283.26c-7.736,0-13.054,6.527-13.054,15.048,0,8.582,4.593,15.412,13.719,15.412a17.3,17.3,0,0,0,9.972-2.962l-1.813-3.445a14.5,14.5,0,0,1-8.038,2.6c-6.528,0-9.006-5.379-9.126-11.543H686.9c.061-.725.121-1.39.121-2.055C687.021,288.4,682.79,283.26,675.6,283.26Zm-8.1,11.6c.785-4.533,3.324-7.8,7.978-7.8,5.016,0,6.889,3.686,7.01,7.8Z" transform="translate(-243.739 -187.102)" fill="#fff"/>
      <path id="Path_261" data-name="Path 261" d="M711.523,296.253c-3.2-1.329-5.56-2.478-5.56-5.2,0-2.478,1.753-3.989,4.835-3.989a10.5,10.5,0,0,1,6.467,2.176l2.176-3.2a13.639,13.639,0,0,0-8.582-2.78c-5.8,0-9.186,3.5-9.186,7.977,0,4.956,3.445,7.01,7.978,8.945,4.23,1.813,6.406,2.962,6.406,5.62s-2.3,4.171-5.923,4.171a12.508,12.508,0,0,1-7.192-2.358L701.007,311a16.2,16.2,0,0,0,9.187,2.78c6.346,0,10.334-3.324,10.334-8.582C720.528,300.3,716.237,298.248,711.523,296.253Z" transform="translate(-252.528 -187.102)" fill="#fff"/>
      <rect id="Rectangle_963" data-name="Rectangle 963" width="4.472" height="29.01" transform="translate(406.597 96.882)" fill="#fff"/>
      <path id="Path_262" data-name="Path 262" d="M494.567,265.4v16.318a10.614,10.614,0,0,0-7.374-2.538c-7.313,0-12.812,6.1-12.812,15.29,0,9.67,5.016,14.951,11.967,14.951a34.125,34.125,0,0,0,12.668-2.612c0-1.582-.037-41.408-.037-41.408Zm0,38.751c-1.656.875-4.715,1.281-7.313,1.281-5.8,0-8.159-4.5-8.159-11.083,0-6.527,3.022-11.362,8.522-11.362a9.627,9.627,0,0,1,6.95,2.659Z" transform="translate(-200.741 -183.021)" fill="#fff"/>
      <path id="Path_263" data-name="Path 263" d="M455.046,218.253c-3.393,0-4.494-1.926-4.494-6.328V191.567h10.455v-9.079H450.552V169.557h-12.1v12.931h-7.153v9.079h7.153V214.31c0,8.529,3.577,13.939,14.123,13.939a23.246,23.246,0,0,0,11.188-2.568l-2.843-9.08A12.133,12.133,0,0,1,455.046,218.253Z" transform="translate(-190.895 -161.12)" fill="#fff"/>
      <path id="Path_264" data-name="Path 264" d="M514.143,219.557a22.875,22.875,0,0,1-11.647,3.118c-7.428,0-10.821-4.952-11.372-11.555H519.37c.092-1.467.184-2.843.184-4.219,0-13.939-6.786-22.009-19.441-22.009-12.381,0-22.1,9.079-22.1,23.2,0,14.214,8.437,23.66,23.385,23.66,9.171,0,13.756-2.659,16.69-4.31ZM499.928,193.7c5.594,0,7.612,4.127,7.7,9.171h-16.69C491.857,197.088,494.7,193.7,499.928,193.7Z" transform="translate(-201.57 -164.624)" fill="#fff"/>
      <path id="Path_265" data-name="Path 265" d="M577.211,227.719l-3.76-8.162a17.513,17.513,0,0,1-9.63,2.751c-7.612,0-11.187-6.052-11.187-14.306s3.759-13.847,10.913-13.847a16.462,16.462,0,0,1,9.354,2.659l3.943-8.345c-2.109-1.376-6.42-3.576-13.665-3.576-13.48,0-23.476,8.437-23.476,23.476,0,13.848,8.8,23.385,23.11,23.385C570.975,231.754,575.1,229.094,577.211,227.719Z" transform="translate(-215.668 -164.624)" fill="#fff"/>
      <path id="Path_266" data-name="Path 266" d="M567.307,296.253c-3.2-1.329-5.56-2.478-5.56-5.2,0-2.478,1.753-3.989,4.835-3.989a10.5,10.5,0,0,1,6.467,2.176l2.176-3.2a13.639,13.639,0,0,0-8.582-2.78c-5.8,0-9.186,3.5-9.186,7.977,0,4.956,3.445,7.01,7.978,8.945,4.23,1.813,6.406,2.962,6.406,5.62s-2.3,4.171-5.923,4.171a12.508,12.508,0,0,1-7.192-2.358L556.791,311a16.2,16.2,0,0,0,9.187,2.78c6.346,0,10.334-3.324,10.334-8.582C576.312,300.3,572.021,298.248,567.307,296.253Z" transform="translate(-219.573 -187.102)" fill="#fff"/>
      <path id="Path_267" data-name="Path 267" d="M536.12,284.2v24.258c-1.974,1.038-6.553,1.629-8.176,1.6-3.928-.076-5.361-2.406-5.361-6.032V284.2h-4.412v20.669c0,5.016,2.417,9.066,8.582,9.066a35.385,35.385,0,0,0,13.8-2.912c0-1.275-.024-26.822-.024-26.822Z" transform="translate(-210.748 -187.317)" fill="#fff"/>
    </g>
    <path id="Path_268" data-name="Path 268" d="M357.935,290.748c.973-1.97,2.607-4.454,3.541-6.519-31.356-6.23-60.011-16.517-68.362-21.391C303.13,271.91,333.427,287.625,357.935,290.748Z" transform="translate(-39.629 -23.815)" fill="#fff"/>
  </g>
</svg>
