<?xml version="1.0" encoding="UTF-8"?>
<!DOCTYPE svg PUBLIC "-//W3C//DTD SVG 1.1//EN" "http://www.w3.org/Graphics/SVG/1.1/DTD/svg11.dtd">
<!-- Creator: CorelDRAW Home & Student X7 -->
<svg xmlns="http://www.w3.org/2000/svg" xml:space="preserve" width="250px" height="63px" version="1.1" shape-rendering="geometricPrecision" text-rendering="geometricPrecision" image-rendering="optimizeQuality" fill-rule="evenodd" clip-rule="evenodd"
viewBox="0 0 249 63"
 xmlns:xlink="http://www.w3.org/1999/xlink">
 <g id="__x0023_Layer_x0020_1">
  <metadata id="CorelCorpID_0Corel-Layer"/>
  <g id="_381714936">
   <g>
    <path fill="#2A6F3B" d="M96 40c-3,0 -5,-2 -5,-4 0,-5 7,-4 12,-6 0,5 -1,10 -7,10zm25 7l0 0 0 0c-2,-2 -3,-3 -3,-5l0 -19c0,-9 -1,-16 -19,-16 -16,0 -22,5 -22,13l15 0c1,-3 4,-4 6,-4 1,0 5,1 5,4 0,7 -28,-1 -28,17 0,8 7,12 14,12 6,0 10,-2 15,-6l1 4 16 0z"/>
    <path fill="#2A6F3B" d="M142 37c-4,0 -6,-4 -6,-10 0,-5 2,-8 6,-8 4,0 7,2 7,9 0,5 -3,9 -7,9zm-21 -29l0 0 0 55 15 0 0 -19c3,3 6,5 10,5 9,0 19,-6 19,-21 0,-11 -6,-21 -18,-21 -4,0 -10,2 -12,7l0 0 0 -6 -14 0z"/>
    <path fill="#2A6F3B" d="M179 23c0,-4 3,-6 8,-6 3,0 7,3 7,6l-15 0zm30 8l0 0c0,-14 -8,-24 -23,-24 -12,0 -22,8 -22,21 0,13 10,20 22,20 9,0 19,-3 22,-12l-15 0c-1,2 -3,3 -6,3 -4,0 -8,-3 -8,-8l30 0z"/>
    <polygon fill="#2A6F3B" points="218,27 205,8 222,8 227,18 232,8 249,8 236,27 249,47 232,47 227,36 221,47 204,47 "/>
    <path fill="#2A2929" d="M139 55c0,0 0,-1 0,-1l3 0 0 1c0,-1 1,-1 2,-1 0,0 1,0 2,1 0,-1 2,-1 2,-1 1,0 2,0 2,1 1,0 1,1 1,2l0 3 -3 0 0 -3c0,-1 0,-2 -1,-2 0,0 -1,0 -1,1 0,0 0,0 0,1l0 3 -2 0 0 -3c0,-1 0,-2 -1,-2 -1,0 -1,1 -1,2l0 3 -3 0 0 -5z"/>
    <path fill="#2A2929" d="M155 57c0,1 0,1 0,1 0,1 -1,1 -1,1 0,0 -1,0 -1,-1 0,-1 1,-1 2,-1zm3 3l0 0c0,0 0,0 0,-1l0 -3c0,-1 -1,-1 -1,-2 -1,0 -2,0 -2,0 -2,0 -3,0 -3,0 -1,1 -1,1 -1,2l3 0c0,-1 0,-1 1,-1 0,0 0,0 0,1 -3,0 -4,1 -4,2 0,2 1,2 2,2 2,0 2,0 2,-1 0,1 0,1 0,1l3 0z"/>
    <path fill="#2A2929" d="M162 56c0,-1 0,-1 -1,-1 -1,0 -1,1 -1,2 0,2 1,2 1,2 1,0 1,-1 1,-1l3 0c0,1 -2,3 -4,3 -2,0 -3,-2 -3,-4 0,-3 1,-3 3,-3 1,0 2,0 3,0 1,1 1,2 1,2l-3 0z"/>
    <path fill="#2A2929" d="M165 51l2 0 0 3c1,0 1,0 2,0 1,0 2,0 2,0 1,1 1,2 1,3l0 3 -3 0 0 -3c0,-1 0,-2 -1,-2 0,0 -1,1 -1,1 0,0 0,1 0,1l0 3 -2 0 0 -9z"/>
    <path fill="#2A2929" d="M172 51l3 0 0 2 -3 0 0 -2zm1 3l0 0 2 0 0 6 -2 0 0 -6z"/>
    <path fill="#2A2929" d="M176 55l0 -1 2 0 0 1c0,-1 1,-1 2,-1 3,0 3,1 3,2l0 4 -3 0 0 -3c0,-1 0,-2 -1,-2 -1,0 -1,1 -1,2l0 3 -2 0 0 -5z"/>
    <path fill="#2A2929" d="M185 56c0,0 1,-1 2,-1 1,0 1,1 1,1l-3 0zm5 2l0 0c0,-2 0,-2 0,-3 -1,-1 -2,-1 -3,-1 -3,0 -4,1 -4,3 0,2 1,3 4,3 1,0 3,0 3,-2l-2 0c0,1 -1,1 -1,1 -2,0 -2,-1 -2,-1l5 0z"/>
    <path fill="#2A2929" d="M198 56c0,-1 0,-1 -1,-1 -1,0 -1,1 -1,2 0,2 0,2 1,2 1,0 1,-1 1,-1l2 0c0,1 -1,3 -3,3 -2,0 -4,-2 -4,-4 0,-3 2,-3 4,-3 1,0 2,0 3,0 0,1 0,2 0,2l-2 0z"/>
    <path fill="#2A2929" d="M203 57c0,-1 0,-2 1,-2 1,0 1,1 1,2 0,1 0,2 -1,2 0,0 -1,0 -1,0 0,-1 0,-2 0,-2zm-3 0l0 0c0,1 0,2 1,3 1,0 2,1 3,1 2,0 2,-1 3,-1 1,-1 1,-2 1,-3 0,-2 -2,-3 -4,-3 -2,0 -4,1 -4,3z"/>
    <path fill="#2A2929" d="M208 55c0,0 0,-1 0,-1l3 0 0 1c0,-1 1,-1 2,-1 0,0 2,0 2,1 1,-1 2,-1 2,-1 2,0 2,0 2,1 1,0 1,1 1,2l0 3 -3 0 0 -3c0,-1 0,-2 -1,-2 0,0 0,0 -1,1 0,0 0,0 0,1l0 3 -2 0 0 -3c0,-1 0,-2 -1,-2 -1,0 -1,1 -1,2l0 3 -3 0 0 -5z"/>
    <path fill="#2A2929" d="M223 57c0,0 0,-2 1,-2 1,0 1,1 1,2 0,1 0,2 -1,2 -1,0 -1,-1 -1,-2zm-3 -3l0 0c0,0 0,0 0,1l0 8 3 0 0 -3c0,0 1,0 2,0 1,0 3,-1 3,-3 0,-3 -2,-3 -3,-3 -1,0 -2,0 -2,1l0 -1 -3 0z"/>
    <path fill="#2A2929" d="M232 57c0,1 0,1 0,1 0,1 -1,1 -1,1 -1,0 -1,0 -1,-1 0,-1 1,-1 2,-1zm3 3l0 0c-1,0 -1,0 -1,-1l0 -3c0,-1 0,-1 0,-2 -1,0 -2,0 -3,0 -1,0 -2,0 -2,0 -1,1 -1,1 -1,2l2 0c0,-1 1,-1 1,-1 1,0 1,0 1,1 -3,0 -4,1 -4,2 0,2 0,2 2,2 1,0 2,0 2,-1 0,1 0,1 0,1l3 0z"/>
    <path fill="#2A2929" d="M235 55l0 -1 2 0 0 1c1,-1 1,-1 3,-1 2,0 2,1 2,2l0 4 -2 0 0 -3c0,-1 0,-2 -1,-2 -2,0 -2,1 -2,2l0 3 -2 0 0 -5z"/>
    <polygon fill="#2A2929" points="246,63 243,63 244,61 241,54 244,54 245,58 247,54 249,54 "/>
   </g>
   <g>
    <path fill="#E9D300" d="M31 30l-18 -18c10,-10 26,-10 36,0l-18 18z"/>
    <path fill="#1E6E39" d="M30 31l-18 18c-10,-10 -10,-26 0,-36l18 18z"/>
    <path fill="#0058A2" d="M32 31l18 -18c10,10 10,26 0,36l-18 -18z"/>
    <path fill="#C22728" d="M31 32l18 18c-10,10 -26,10 -36,0l18 -18z"/>
    <g>
     <polygon fill="#B2B3B3" fill-rule="nonzero" points="61,62 0,1 1,0 62,61 "/>
    </g>
    <g>
     <polygon fill="#B2B3B3" fill-rule="nonzero" points="62,1 1,62 0,61 61,0 "/>
    </g>
   </g>
  </g>
 </g>
</svg>
