<?xml version="1.0" encoding="UTF-8"?>
<svg id="uuid-f4b320b9-bf9c-4055-877e-1a052bbff1e8" data-name="Layer 2" xmlns="http://www.w3.org/2000/svg" viewBox="0 0 116.9 29.62">
  <g id="uuid-d0f2fef0-214a-498c-a7f4-c438529bb37c" data-name="Layer 1">
    <path d="m16.53,5.05c-.65-.96-1.27-1.87-1.83-2.75-.15-.23-.41-.37-.69-.37h-.01c-.28,0-.54.15-.69.39l-2.05,3.36-2.05-3.36c-.14-.24-.4-.38-.69-.39s-.54.14-.69.37c-.57.88-1.18,1.79-1.83,2.75C3.2,9.23,0,13.95,0,18.08c0,6.22,5.06,11.28,11.28,11.28s11.28-5.06,11.28-11.28c0-4.13-3.2-8.85-6.02-13.02Zm-5.26,18.61c-2.79,0-5.07-2.27-5.07-5.07s3.21-7.59,5.05-10.07c1.85,2.58,5.08,7.62,5.08,10.07,0,2.79-2.27,5.07-5.07,5.07Zm0,4.07c-5.32,0-9.65-4.33-9.65-9.65,0-3.63,3.05-8.14,5.74-12.12.4-.59.78-1.15,1.14-1.7l1.76,2.89c-1.33,1.75-5.68,7.77-5.68,11.45s3,6.69,6.69,6.69,6.69-3,6.69-6.69c0-3.39-4.32-9.57-5.68-11.44l1.76-2.89c.37.55.75,1.12,1.14,1.7,2.69,3.98,5.74,8.48,5.74,12.12,0,5.32-4.34,9.65-9.65,9.65ZM46.72,3c-.38-.32-.84-.56-1.37-.72-.52-.16-1.11-.25-1.74-.25h-4.31v11.32h1.8v-3.79h2.31c.6,0,1.17-.08,1.71-.23.54-.16,1.03-.4,1.44-.72.42-.32.75-.72,1-1.19.25-.47.37-1.03.37-1.66v-.03c0-.57-.11-1.09-.31-1.54-.21-.46-.51-.86-.89-1.18Zm-3.25,4.88h-2.37V3.73h2.43c.8,0,1.45.18,1.92.54.45.34.67.83.67,1.51v.03c0,.32-.06.6-.18.84-.12.25-.3.47-.52.64-.23.19-.52.33-.84.43-.33.09-.71.15-1.12.15Zm15.05,3.76h-6.04V2.02h-1.8v11.32h7.83v-1.7Zm11.59,1.7h1.95l-5.15-11.39h-1.51l-5.16,11.39h1.88l1.27-2.84h5.46l1.26,2.84Zm-2-4.51h-3.99l2-4.46s1.99,4.46,1.99,4.46Zm10.43,4.66c.56,0,1.08-.08,1.56-.23.49-.15.91-.38,1.25-.67.35-.29.63-.65.83-1.05.2-.41.3-.88.3-1.38v-.03c0-.91-.32-1.63-.96-2.16-.6-.5-1.53-.89-2.77-1.17-.57-.12-1.05-.25-1.42-.38-.35-.13-.62-.26-.81-.42-.18-.14-.29-.28-.35-.43-.07-.16-.1-.35-.1-.57v-.03c0-.4.16-.73.5-1.01.35-.29.85-.43,1.49-.43.52,0,1.01.09,1.49.26.47.17.95.45,1.42.84l.23.19,1.06-1.41-.22-.18c-.57-.45-1.17-.81-1.79-1.03-.62-.23-1.35-.35-2.17-.35-.54,0-1.05.08-1.51.24s-.87.38-1.21.66c-.35.28-.62.63-.81,1.03-.2.4-.29.83-.29,1.29v.03c0,.48.08.91.24,1.27.16.37.41.69.74.96.32.26.73.49,1.21.67.47.18,1.02.33,1.65.47.55.12,1,.25,1.35.37.33.12.59.26.77.4.16.13.28.28.34.43.07.16.1.35.1.55v.03c0,.44-.18.79-.54,1.08-.38.3-.9.45-1.56.45-.7,0-1.33-.12-1.86-.35-.54-.24-1.08-.6-1.62-1.09l-.23-.2-1.13,1.34.21.19c.67.6,1.38,1.06,2.12,1.35.74.31,1.57.45,2.46.45Zm9.79-.15h1.8V3.73h3.6v-1.71h-9v1.71h3.6v9.61Zm8.34-11.32h1.8v11.32h-1.8V2.02Zm14.18,8.14l-.2.2c-.49.47-.99.84-1.49,1.09-.49.25-1.08.37-1.77.37-.55,0-1.06-.11-1.52-.32-.47-.21-.88-.51-1.23-.88-.35-.37-.62-.81-.81-1.31-.2-.5-.3-1.05-.3-1.63v-.03c0-.57.1-1.12.3-1.62.2-.5.47-.94.81-1.31.35-.37.76-.66,1.22-.87s.98-.32,1.53-.32c.69,0,1.27.13,1.76.38.5.26.98.6,1.42,1.01l.21.2,1.22-1.32-.21-.2c-.28-.26-.56-.5-.86-.72-.3-.22-.64-.41-.99-.57s-.74-.28-1.15-.37-.88-.13-1.39-.13c-.83,0-1.59.16-2.29.46s-1.3.73-1.81,1.26c-.5.53-.9,1.16-1.18,1.87-.28.71-.43,1.46-.43,2.26v.03c0,.8.14,1.56.43,2.27s.68,1.33,1.19,1.85c.5.52,1.11.94,1.8,1.24.69.3,1.45.45,2.26.45.51,0,.98-.05,1.4-.14s.81-.23,1.18-.4c.37-.17.71-.38,1.03-.62.32-.24.62-.51.9-.81l.2-.21s-1.22-1.16-1.22-1.16Zm-69.76,14.41h5.86v-1.67h-5.86v-3.11h6.55v-1.68h-8.34v11.32h8.42v-1.67h-6.63v-3.19Zm17.69,1.59l-6.33-8.05h-1.57v11.32h1.76v-8.25l6.5,8.25h1.4v-11.32h-1.76v8.05Zm7.33-1.59h5.86v-1.67h-5.86v-3.11h6.55v-1.68h-8.34v11.32h8.42v-1.67h-6.62v-3.19Zm16.96.09c.38-.18.72-.42,1.01-.7.29-.29.51-.63.67-1.01s.23-.83.23-1.31v-.04c0-.47-.08-.9-.23-1.29-.16-.39-.38-.74-.68-1.03-.37-.37-.83-.66-1.39-.86-.55-.2-1.18-.3-1.87-.3h-4.91v11.32h1.8v-4.17h2.63l3.11,4.17h2.22l-3.38-4.49c.29-.07.55-.17.79-.28Zm-5.36-4.84h3.02c.8,0,1.42.17,1.85.5.41.32.61.75.61,1.32v.03c0,.3-.06.57-.18.79-.12.23-.28.43-.49.59-.21.16-.48.3-.78.39-.31.09-.66.14-1.02.14h-3.01s0-3.77,0-3.77Zm15.46,4.97h3.26v2.23c-.32.24-.72.45-1.18.63-.5.2-1.05.3-1.63.3-.61,0-1.17-.11-1.64-.32s-.89-.5-1.24-.86c-.34-.37-.6-.81-.79-1.31-.19-.5-.28-1.07-.28-1.68v-.03c0-.55.09-1.09.29-1.59.19-.5.45-.94.79-1.31.33-.37.73-.66,1.2-.88.46-.21.97-.33,1.52-.33.36,0,.69.03.98.09s.56.14.81.24c.24.1.47.22.68.36.21.14.42.3.61.47l.22.2,1.17-1.37-.23-.19c-.28-.23-.56-.44-.85-.63-.3-.19-.62-.35-.96-.48-.34-.13-.71-.23-1.1-.29-.38-.06-.82-.09-1.28-.09-.84,0-1.63.16-2.32.48s-1.29.75-1.79,1.29c-.49.54-.88,1.16-1.15,1.87-.27.7-.41,1.44-.41,2.21v.03c0,.8.13,1.56.4,2.26.26.71.65,1.33,1.15,1.85.5.53,1.11.95,1.81,1.25.71.3,1.51.45,2.39.45.95,0,1.81-.17,2.58-.51.76-.33,1.41-.74,1.93-1.21l.09-.09v-4.7h-5.02v1.67h-.02Zm12.75-1.53l-3.46-5.14h-2.18l4.73,6.87v4.45h1.8v-4.46l4.73-6.86h-2.12l-3.48,5.14ZM29.65,1.95h1.32v27.49h-1.32V1.95Zm85.34,1.85c-.26,0-.52-.05-.74-.15-.23-.1-.43-.23-.6-.41-.17-.17-.3-.37-.4-.6s-.14-.47-.14-.73h0c0-.27.05-.52.14-.74.1-.23.23-.43.4-.6s.37-.31.6-.41.49-.15.75-.15.52.05.74.15c.23.1.43.23.6.41.17.17.3.37.4.6s.14.47.14.73h0c0,.27-.05.52-.14.74-.1.23-.23.43-.4.6-.17.18-.37.31-.6.41s-.49.15-.75.15Zm0-.21c.24,0,.47-.04.67-.13.21-.09.38-.21.54-.37s.27-.33.35-.54c.09-.21.13-.43.13-.66h0c0-.25-.04-.46-.13-.67-.09-.21-.2-.38-.35-.54s-.33-.27-.53-.36c-.21-.09-.43-.13-.66-.13s-.47.04-.67.13c-.21.09-.38.21-.54.37-.15.15-.27.33-.35.54-.09.21-.13.43-.13.66h0c0,.25.04.46.13.67s.2.38.35.54c.15.15.33.27.54.36.2.09.42.13.66.13Zm-.78-2.76h.9c.27,0,.48.08.62.22.11.11.17.26.17.44h0c0,.18-.04.31-.12.41-.08.1-.18.18-.32.23l.49.72h-.52l-.43-.65h-.35v.65h-.45V.83Zm.89.99c.11,0,.2-.03.26-.08.06-.06.09-.13.09-.21h0c0-.11-.03-.18-.09-.23s-.15-.08-.26-.08h-.43v.59h.45Z" style="stroke-width: 0px;"/>
  </g>
</svg>