<?xml version="1.0" encoding="utf-8"?>
<!-- Generator: Adobe Illustrator 22.1.0, SVG Export Plug-In . SVG Version: 6.00 Build 0)  -->
<svg version="1.1" id="Ebene_1" xmlns="http://www.w3.org/2000/svg" xmlns:xlink="http://www.w3.org/1999/xlink" x="0px" y="0px"
	 viewBox="0 0 88 25" style="enable-background:new 0 0 88 25;" xml:space="preserve">
<style type="text/css">
	.st0{fill:#fff;}
</style>
<path class="st0" d="M12.5,20.5c-4.4,0-8-3.6-8-8c0-4.4,3.6-8,8-8c4.4,0,8,3.6,8,8C20.5,16.9,16.9,20.5,12.5,20.5z M3.7,0.5h17.8V3
	H3.7V0.5z M3.7,22h17.8v2.5H3.7V22z M22,3.7h2.5v17.8H22V3.7z M0.5,3.7H3v17.8H0.5V3.7z M87.5,17.4v4H76V8h5.2v9.5H87.5z M68.7,8
	h5.2v13.4h-5.2v-4.9h-3.5v4.9H60V8h5.2v4.7h3.5V8z M49.6,15.3l1.5-4.4l1.5,4.4H49.6z M47.6,8l-4.3,12.2l-4.1-6L43.7,8h-5.9l-3.2,5.3
	V8h-5.2v13.4h5.2v-5.7l3.4,5.7h6.2H48l0.8-2.9h4.4l0.9,2.9h5.4L54.7,8H47.6z"/>
</svg>
