<?xml version="1.0" encoding="UTF-8"?> <svg xmlns="http://www.w3.org/2000/svg" id="Logo_esecutivo" viewBox="0 0 220 66.92"><g><g><polygon points="17.66 38.51 17.66 20.67 0 20.67 17.66 38.51" style="fill:#ffed00; fill-rule:evenodd;"></polygon><polygon points="21.24 38.51 21.24 20.67 38.9 20.67 21.24 38.51" style="fill:#009fe3; fill-rule:evenodd;"></polygon><polygon points="17.66 0 17.66 17.84 0 17.84 17.66 0" style="fill:#009fe3; fill-rule:evenodd;"></polygon><polygon points="21.24 0 21.24 17.84 38.9 17.84 21.24 0" style="fill:#e6007e; fill-rule:evenodd;"></polygon></g><g><path d="M89.01,60.61c-.52-.15-1.14-.2-1.72-.2-3.19,0-5.45,1.41-5.45,3.27s2.26,3.24,5.46,3.24c.48,0,1.41-.09,1.84-.23l.32-1.65c-.55,.23-1.27,.46-1.98,.46-1.86,0-3.04-.78-3.04-1.86s1.26-1.82,3.04-1.82c.7,0,1.35,.21,1.92,.44l-.4-1.66Z" style="fill:#e6007e; fill-rule:evenodd;"></path><path d="M92.7,64.44c0-.65,.94-1.17,1.99-1.17s2.01,.52,2.01,1.17-.94,1.17-2.01,1.17-1.99-.52-1.99-1.17Zm1.99,2.49c2.33,0,4.4-1.04,4.4-2.49s-2.07-2.49-4.4-2.49-4.39,1.04-4.39,2.49,2.07,2.49,4.39,2.49Z" style="fill:#e6007e; fill-rule:evenodd;"></path><polygon points="100.32 60.45 100.32 66.85 102.71 66.71 102.71 60.31 100.32 60.45" style="fill:#e6007e; fill-rule:evenodd;"></polygon><path d="M106.33,64.44c0-.65,.94-1.17,1.99-1.17s2.01,.52,2.01,1.17-.94,1.17-2.01,1.17-1.99-.52-1.99-1.17Zm1.99,2.49c2.33,0,4.4-1.04,4.4-2.49s-2.07-2.49-4.4-2.49-4.39,1.04-4.39,2.49,2.07,2.49,4.39,2.49Z" style="fill:#e6007e; fill-rule:evenodd;"></path><path d="M113.69,66.85l2.39-.15v-2.37c0-.7,.43-.98,1.63-.97l.67-1.41c-1.31,0-2.09,.15-2.55,.96h-.03v-.89l-2.12,.15v4.68h0Z" style="fill:#e6007e; fill-rule:evenodd;"></path><path d="M124.3,60.06l-1.5,.91,1.73,.74,1.53-.89-1.76-.76h0Zm1.41,1.97l-2.39,.15v4.68l2.39-.15v-4.68Z" style="fill:#e6007e; fill-rule:evenodd;"></path><path d="M126.79,66.29c1.06,.48,1.81,.63,3.15,.63,1.55,0,3.1-.55,3.1-1.57,0-1.94-3.68-1.16-3.68-1.94,0-.24,.52-.28,.81-.28,.44,0,.92,.11,1.26,.26l1.32-.79c-.69-.38-1.67-.65-2.62-.65-1.57,0-2.99,.48-2.99,1.52,0,1.9,3.68,1.25,3.68,1.9,0,.34-.68,.37-1.07,.37-.67,0-1.26-.15-1.73-.43l-1.21,.97h0Z" style="fill:#e6007e; fill-rule:evenodd;"></path><path d="M141.08,61.87h.75c.97,0,1.49,.25,1.49,.67s-.52,.67-1.49,.67h-.75v-1.34h0Zm-2.61,4.98l2.61-.15v-2.18h.92c2.18,0,3.93-.75,3.93-1.98,0-1.53-1.67-2-4.28-2h-3.18v6.3h0Z" style="fill:#e6007e; fill-rule:evenodd;"></path><path d="M147.48,63.41c.65-.17,1.36-.28,2.07-.28,1.03,0,1.53,.14,1.53,.78,0,.05,0,.1-.01,.15-.51-.22-1.18-.36-1.78-.36-1.52,0-2.82,.59-2.82,1.53,0,1,.97,1.69,2.75,1.69,.81,0,1.5-.12,1.97-.53h.03v.46l2.09-.15v-3.12c0-1.15-1.35-1.63-3.31-1.63-.66,0-1.55,.08-2.16,.21l-.34,1.25h0Zm1.21,1.81c0-.38,.54-.61,1.2-.61s1.18,.23,1.18,.61-.54,.62-1.18,.62-1.2-.23-1.2-.62Z" style="fill:#e6007e; fill-rule:evenodd;"></path><path d="M154.06,66.29c1.06,.48,1.81,.63,3.15,.63,1.55,0,3.1-.55,3.1-1.57,0-1.94-3.68-1.16-3.68-1.94,0-.24,.52-.28,.81-.28,.44,0,.92,.11,1.26,.26l1.32-.79c-.69-.38-1.67-.65-2.62-.65-1.57,0-2.99,.48-2.99,1.52,0,1.9,3.68,1.25,3.68,1.9,0,.34-.68,.37-1.07,.37-.67,0-1.26-.15-1.73-.43l-1.21,.97h0Z" style="fill:#e6007e; fill-rule:evenodd;"></path><path d="M160.87,66.29c1.06,.48,1.81,.63,3.15,.63,1.55,0,3.1-.55,3.1-1.57,0-1.94-3.68-1.16-3.68-1.94,0-.24,.52-.28,.81-.28,.44,0,.92,.11,1.26,.26l1.32-.79c-.69-.38-1.67-.65-2.62-.65-1.57,0-2.99,.48-2.99,1.52,0,1.9,3.68,1.25,3.68,1.9,0,.34-.67,.37-1.07,.37-.67,0-1.26-.15-1.73-.43l-1.21,.97h0Z" style="fill:#e6007e; fill-rule:evenodd;"></path><path d="M169.44,60.06l-1.5,.91,1.73,.74,1.53-.89-1.76-.76h0Zm1.41,1.97l-2.39,.15v4.68l2.39-.15v-4.68Z" style="fill:#e6007e; fill-rule:evenodd;"></path><path d="M174.47,64.44c0-.65,.94-1.17,1.99-1.17s2.01,.52,2.01,1.17-.94,1.17-2.01,1.17-1.99-.52-1.99-1.17Zm1.99,2.49c2.33,0,4.4-1.04,4.4-2.49s-2.07-2.49-4.4-2.49-4.39,1.04-4.39,2.49,2.07,2.49,4.39,2.49Z" style="fill:#e6007e; fill-rule:evenodd;"></path><path d="M184.04,61.95l-2.21,.15v4.75l2.39-.15v-2.68c0-.55,.48-.81,1.2-.81s1.2,.26,1.2,.81v2.82l2.39-.15v-2.78c0-1.16-.72-1.98-2.89-1.98-.66,0-1.44,.16-2.06,.71h-.03v-.71h0Z" style="fill:#e6007e; fill-rule:evenodd;"></path></g><g><path d="M201.9,54.88c.02,.3,.09,.53,.21,.72,.23,.34,.65,.52,1.24,.52,.27,0,.51-.04,.72-.11,.42-.15,.63-.41,.63-.79,0-.28-.09-.49-.27-.61-.18-.12-.46-.22-.84-.31l-.7-.16c-.46-.1-.79-.22-.98-.34-.33-.22-.49-.54-.49-.98,0-.47,.16-.85,.49-1.15,.32-.3,.78-.45,1.38-.45,.55,0,1.01,.13,1.39,.4,.38,.26,.57,.68,.57,1.26h-.66c-.04-.28-.11-.49-.23-.64-.22-.27-.58-.41-1.1-.41-.42,0-.72,.09-.9,.26s-.27,.38-.27,.61c0,.25,.11,.44,.32,.56,.14,.08,.46,.17,.95,.28l.73,.17c.35,.08,.62,.19,.82,.33,.33,.24,.49,.6,.49,1.06,0,.58-.21,.99-.63,1.24-.42,.25-.91,.37-1.46,.37-.65,0-1.15-.16-1.52-.49-.37-.33-.55-.77-.54-1.34h.67Z" style="fill:#009fe3; fill-rule:evenodd;"></path><rect x="206.35" y="55.79" width=".74" height=".77" style="fill:#009fe3;"></rect><path d="M208.16,52.78h.62v.5c.13-.17,.27-.3,.42-.4,.22-.14,.47-.21,.76-.21,.43,0,.79,.16,1.1,.49,.3,.33,.45,.8,.45,1.41,0,.83-.22,1.42-.65,1.77-.27,.22-.59,.34-.96,.34-.29,0-.53-.06-.72-.19-.11-.07-.24-.19-.38-.37v1.94h-.64v-5.29h0Zm2.39,2.98c.2-.25,.3-.62,.3-1.12,0-.3-.04-.56-.13-.78-.16-.42-.47-.63-.91-.63s-.74,.22-.91,.66c-.09,.24-.13,.54-.13,.9,0,.29,.04,.54,.13,.75,.16,.39,.47,.59,.91,.59,.3,0,.55-.12,.74-.37h0Z" style="fill:#009fe3; fill-rule:evenodd;"></path><rect x="212.4" y="55.79" width=".74" height=".77" style="fill:#009fe3;"></rect><path d="M215.86,51.36h.8l1.89,5.21h-.77l-.53-1.56h-2.06l-.56,1.56h-.72l1.96-5.21h0Zm1.16,3.07l-.79-2.3-.84,2.3h1.63Z" style="fill:#009fe3; fill-rule:evenodd;"></path><rect x="219.26" y="55.79" width=".74" height=".77" style="fill:#009fe3;"></rect></g><g><polygon points="199.86 58.79 191.75 66.85 211.9 66.85 220 58.79 199.86 58.79" style="fill:#009fe3; fill-rule:evenodd;"></polygon><g><g><polygon points="143.56 50.48 138.93 50.48 156.69 32.72 148.43 32.72 124.49 56.74 137.27 56.74 143.56 50.48" style="fill:#009fe3; fill-rule:evenodd;"></polygon><polygon points="203.36 32.72 192.07 32.72 174.14 50.66 171.04 50.65 164.92 56.77 176.29 56.77 194.73 38.25 197.87 38.25 203.36 32.72" style="fill:#009fe3; fill-rule:evenodd;"></polygon><polygon points="220 32.72 205.65 32.72 200.29 37.93 203.52 37.92 184.72 56.72 192.98 56.72 211.37 38.25 214.51 38.25 220 32.72" style="fill:#009fe3; fill-rule:evenodd;"></polygon><path d="M110.34,18.58l-6.48,6.51h-21.19l-31.22,31.09h34.54L123.58,18.58h-13.24Zm-28.61,28.73h-8.11l13.31-13.35h8.1l-13.3,13.35Z" style="fill:#009fe3; fill-rule:evenodd;"></path></g><polygon points="83.39 58.79 26.04 58.79 34.91 49.92 34.91 55.73 43.8 55.73 48.71 50.77 48.76 55.72 60.91 43.71 60.91 24.76 44.91 41.04 44.91 24.4 2.46 66.85 75.36 66.85 83.39 58.79" style="fill:#009fe3; fill-rule:evenodd;"></polygon></g></g></g><path d="M177.11,32.72h-13.02l-24.04,24.04h8.26l10.02-10.06h4.79s-10.05,10.06-10.05,10.06h8.26l23.94-24.04h-8.16Zm-10.36,5.53h4.83l-3.32,3.32h-4.81l3.31-3.32h0Z" style="fill:#009fe3; fill-rule:evenodd;"></path><path d="M145.12,32.72h-22.94l-23.45,23.46h8.26l8.41-8.44h14.72s15.01-15.01,15.01-15.01Zm-20.28,5.53h6.53l-3.92,3.95h-6.55l3.93-3.95h0Z" style="fill:#009fe3; fill-rule:evenodd;"></path></svg> 